<svg width="66" height="55" viewBox="0 0 66 55" fill="none" xmlns="http://www.w3.org/2000/svg">
<path d="M0.7725 41.6659C0.922645 41.3656 8.65515 30.405 10.532 30.2548C12.4088 30.1047 20.5167 39.4888 20.3665 38.3627C17.2135 19.2942 15.1865 10.9611 17.4387 10.2103C18.9402 9.68484 59.6297 -0.074642 61.4314 0.000430873C63.2332 0.0755038 65.11 -0.224787 65.8607 2.77813C66.6114 5.78104 64.2091 6.98221 61.5065 7.5828C58.8038 8.18338 24.1202 16.066 24.1202 16.066C24.1202 16.066 29.1501 48.0471 29.4504 49.2483C30.126 52.5515 29.1501 54.4283 26.7477 54.128C24.3454 53.8277 11.8833 39.4888 11.8833 39.4888C11.8833 39.4888 4.90151 46.9961 4.22586 47.5967C3.24991 48.3474 -1.93012 47.5216 0.7725 41.6659Z" fill="#477E84"/>
<path d="M33.7298 7.05726C33.7298 7.05726 56.0264 1.80215 57.3778 2.17752C58.7291 2.62795 29.5257 9.1593 33.7298 7.05726Z" fill="#FFFAF0"/>
<path d="M57.9778 2.02741C57.9778 2.02741 59.6294 1.12653 60.7555 1.42682C61.6564 1.72712 57.5274 2.77814 57.9778 2.02741Z" fill="#FFFAF0"/>
</svg>
