<svg width="41" height="53" viewBox="0 0 41 53" fill="none" xmlns="http://www.w3.org/2000/svg">
<path d="M33.3906 4.16407C24.8632 -1.80512 8.74642 -3.25478 2.35086 12.862C-3.95942 28.9788 12.669 35.8008 12.669 35.8008C12.669 35.8008 9.94026 37.6768 5.25018 40.9172C0.560107 44.1576 -1.99812 45.6073 1.92449 49.7857C7.38203 55.4991 13.607 49.1888 16.6769 46.9716C19.7468 44.7545 25.9718 41.5994 35.0961 33.2425C44.2204 24.8857 41.918 10.1333 33.3906 4.16407ZM18.3824 25.5679C14.6303 24.1182 12.7543 19.9398 14.1187 16.1877C15.5683 12.4357 19.7468 10.5596 23.4988 11.924C27.2509 13.3737 29.1269 17.5521 27.7625 21.3042C26.3129 25.1415 22.1345 27.0175 18.3824 25.5679Z" fill="#963D64"/>
<path d="M34.3293 6.55172C34.3293 6.55172 39.4458 9.45105 39.5311 18.149C39.6163 26.847 35.4379 30.599 33.3913 31.4518C31.3447 32.3045 37.9961 27.785 37.9108 18.4048C37.8256 11.4976 35.1821 9.02468 34.5852 8.42776C32.7944 6.72228 32.7944 5.86953 34.3293 6.55172Z" fill="#FFFAF0"/>
<path d="M25.546 2.03223C25.546 2.03223 30.3214 3.14078 31.9416 4.84626C34.3293 7.57503 30.4919 4.84626 27.9337 3.82297C26.3988 3.22606 23.8406 2.4586 25.546 2.03223Z" fill="#FFFAF0"/>
<path d="M23.4133 1.34998C23.4133 1.34998 24.5218 1.6058 24.6071 2.20272C24.6924 2.88492 23.2427 2.45854 22.8164 1.9469C22.3047 1.43525 22.9869 1.17943 23.4133 1.34998Z" fill="#FFFAF0"/>
</svg>
