<svg width="59" height="61" viewBox="0 0 59 61" fill="none" xmlns="http://www.w3.org/2000/svg">
<path d="M42.9751 60.1218C42.7227 60.248 42.5334 60.3111 42.2811 60.3742C38.6844 61.3838 34.6461 57.8502 31.9329 55.9573C27.8314 53.1809 23.7931 50.3415 19.8179 47.3758C16.1582 44.5995 12.4354 41.9494 8.83873 39.173C7.00887 37.7217 5.24211 36.2705 3.47534 34.693C2.21337 33.5572 -0.121282 31.9798 0.00491502 30.0237C0.0680137 28.7617 1.01449 27.7522 1.96097 26.995C6.50408 23.209 12.3723 20.8113 18.1773 20.0541C22.9097 19.4231 27.8314 19.9279 32.2484 22.0102C32.3746 21.8209 32.5638 21.5685 32.69 21.3792C34.3937 18.7921 36.2236 16.2051 38.0534 13.618C38.2427 13.3025 38.4951 12.9871 38.6844 12.7347C39.9464 10.9048 41.1453 9.01183 42.4703 7.11887C42.7227 6.74028 42.9751 6.36169 43.2275 6.0462C43.0382 5.92 42.8489 5.7307 42.7227 5.54141C42.5334 5.35211 42.281 5.16281 42.0918 4.97352C39.8833 2.76506 41.6501 -1.33635 44.805 0.430412C45.2467 0.682806 45.6253 0.935201 46.067 1.1876C49.7267 3.52225 53.1971 6.55099 56.6045 9.26423C56.983 9.57972 57.3616 9.83212 57.7402 10.1476C60.9583 12.6085 57.3616 16.8992 54.2067 14.4383C53.9543 14.249 53.7019 14.0597 53.4495 13.8704L53.2602 13.7442C53.0078 14.1228 52.6923 14.5014 52.4399 14.88C50.9887 16.773 49.4112 18.6659 48.023 20.4958C47.8337 20.7482 47.6444 21.0006 47.4551 21.1899C45.6253 23.6507 43.7954 26.0485 41.9656 28.3831C41.7132 28.6355 41.5239 28.951 41.2715 29.2034C41.7132 29.7713 42.0918 30.3392 42.4703 30.9071C45.1205 35.0085 46.5718 39.804 46.9504 44.6626C47.2028 47.6282 47.1397 50.657 46.5718 53.6226C46.067 56.0204 45.5622 58.9229 42.9751 60.1218Z" fill="#99DDFF"/>
<path d="M42.6587 52.8024C42.9742 51.0356 43.1004 49.1427 43.1004 47.3759C43.1004 46.3032 42.9742 44.9151 42.5956 43.9686C42.154 42.8328 40.7658 41.697 39.8824 40.8767C37.737 38.9207 35.15 37.4063 32.4368 36.4598C31.3641 36.0812 30.2914 35.8288 29.3449 35.3872C26.2531 33.8728 26.0007 30.2762 24.1708 27.7522C23.0981 26.2378 21.5207 25.1652 19.7539 24.5973C18.9336 24.3449 17.9241 24.0925 17.0407 24.2187C16.2204 24.2818 15.337 24.7235 14.5167 24.9759C13.2547 25.3545 11.9928 25.7962 10.7308 26.364C9.27953 26.995 5.30431 28.1939 5.24121 30.0869C5.24121 31.475 6.56628 32.6739 7.51276 33.4311C9.02713 34.63 10.6046 35.7657 12.119 36.9015C16.7252 40.3089 21.2683 43.7162 25.9376 47.1235C28.3353 48.8272 30.67 50.5939 33.0677 52.2345C34.8345 53.4965 36.7275 55.3894 38.8097 56.1466C41.0813 56.9669 42.2802 54.8216 42.6587 52.8024Z" fill="#1F9999"/>
<path d="M42.6599 52.8024C42.9754 51.0356 43.1016 49.1426 43.1016 47.3759C43.1016 46.3663 43.1647 45.0412 42.5337 44.1578C41.7766 43.1483 40.3884 43.2745 39.2526 42.8328C36.9811 42.0756 34.5202 41.4446 33.0689 39.4254C31.9963 37.9111 31.5546 36.0181 30.4819 34.5037C28.3365 31.6012 25.4971 32.2322 22.4053 31.7905C21.585 31.6643 20.7016 31.3488 20.1337 30.7178C19.4396 29.9606 19.3134 28.8879 19.1872 27.8784C19.061 27.0581 19.3134 24.471 18.3038 24.0924C17.3574 23.777 15.3382 24.5972 14.3917 24.9127C13.1297 25.2913 11.8678 25.733 10.6058 26.3009C9.15453 26.9319 5.17931 28.1308 5.11621 30.0237C5.11621 31.4119 6.44128 32.6108 7.38776 33.368C8.90213 34.5668 10.4796 35.7026 11.994 36.8384C16.6002 40.2457 21.1433 43.653 25.8126 47.0604C28.2103 48.764 30.545 50.5308 32.9427 52.1714C34.7095 53.4333 36.6025 55.3263 38.6847 56.0835C41.0825 56.9669 42.2813 54.8215 42.6599 52.8024Z" fill="#24B3B3"/>
<path d="M52.3767 12.987C51.0516 12.1036 49.6003 11.4727 48.2752 10.5262C46.8871 9.4535 45.4358 8.12843 44.2369 6.86646C44.2369 6.86646 44.1738 6.86646 44.1738 6.92955C45.6882 9.95829 48.78 12.8608 52.2505 13.1763C52.3767 13.2394 52.4398 13.0501 52.3767 12.987Z" fill="white"/>
<path d="M32.3753 26.427C26.0023 24.4709 17.1054 24.2816 12.0575 29.3295C11.3634 29.9605 11.6789 31.6011 12.8778 31.2856C19.1877 29.645 24.5511 27.7521 31.1133 29.7081C33.1956 30.276 34.5207 27.058 32.3753 26.427Z" fill="white"/>
</svg>
