<svg width="67" height="64" viewBox="0 0 67 64" fill="none" xmlns="http://www.w3.org/2000/svg">
<path d="M43.955 62.3804C34.0196 58.6531 12.2242 52.0786 0 52.2856C8.42687 30.6466 11.4439 21.0177 16.5936 6.57446C28.4017 10.9747 44.9433 13.5114 52.0697 15.0644C49.5208 28.2135 46.5038 44.7275 43.955 62.3804Z" fill="#A3CCCC"/>
<path d="M50.6653 63.6746C41.4581 58.2908 21.3273 48.2478 9.57129 46.4359C21.0152 26.9711 25.4367 18.1706 32.6671 5.07324C43.4348 11.0783 59.3002 16.1516 66.0625 18.74C61.537 31.1643 55.9711 46.7983 50.6653 63.6746Z" fill="#B8E6E6"/>
<path d="M49.2602 55.8577C39.845 51.3539 19.142 43.1228 7.33398 42.2427C17.1133 22.3638 20.7025 13.4079 26.7886 0C37.9204 5.12503 53.8898 8.95587 60.7562 11.0266C57.323 23.4509 53.1096 39.0849 49.2602 55.8577Z" fill="#E6FFFF"/>
<path d="M39.7926 9.31832C39.4285 9.21478 39.1684 9.00771 38.9083 8.80064C38.7523 8.6971 38.5442 8.59356 38.3881 8.49003C37.7119 8.12765 37.0877 7.92058 36.5155 7.76528C36.2034 7.71351 35.9433 7.66174 35.6312 7.60997C35.2671 7.5582 34.8509 7.45467 34.4868 7.35113C33.7586 7.14406 33.1344 6.78168 32.5622 6.41931C31.8859 6.00516 31.2617 5.64279 30.4814 5.48748C30.2734 5.43571 30.0653 5.43571 29.8572 5.43571C29.4931 5.43571 29.129 5.43571 28.7128 5.22864C28.5568 5.17687 28.5048 5.02157 28.6088 4.91803C28.6608 4.8145 28.8169 4.76273 28.9729 4.8145C29.285 4.9698 29.5451 4.9698 29.8572 4.9698C30.0653 4.9698 30.2734 4.9698 30.5335 5.02157C31.4178 5.17687 32.146 5.59102 32.8222 6.00516C33.3944 6.36754 33.9666 6.67815 34.5908 6.83345C34.955 6.93699 35.3191 6.98876 35.7352 7.04052C36.0473 7.09229 36.3595 7.14406 36.6195 7.19583C37.2438 7.35113 37.92 7.60997 38.6482 7.97235C38.8563 8.07588 39.0644 8.17942 39.2204 8.33472C39.4805 8.5418 39.7406 8.6971 40.0527 8.80064C40.3128 8.8524 40.5729 8.90417 40.885 8.90417C40.989 8.90417 41.0931 8.90417 41.1971 8.95594C42.2374 9.05948 43.0697 9.47362 43.902 9.836C44.5782 10.1466 45.1504 10.4572 45.8787 10.6125C46.2948 10.7161 46.763 10.8196 47.2312 10.8714C48.4276 11.0784 49.624 11.3373 50.8204 11.8032C51.1845 11.9585 51.5486 12.1138 51.8607 12.2691C52.2248 12.4762 52.589 12.6315 52.9531 12.7868C53.5253 12.9938 54.1495 13.1491 54.7217 13.3045C55.0338 13.408 55.3459 13.4598 55.606 13.5633C55.7621 13.6151 55.8141 13.7186 55.8141 13.8739C55.7621 13.9774 55.658 14.081 55.502 14.0292C55.1899 13.9257 54.9298 13.8739 54.6177 13.7704C54.0455 13.6151 53.4213 13.4598 52.797 13.2527C52.3809 13.0974 52.0168 12.8903 51.6006 12.735C51.2885 12.5797 50.9244 12.4244 50.6123 12.2691C49.4679 11.8549 48.2715 11.5961 47.1271 11.389C46.659 11.2855 46.2428 11.2337 45.7747 11.1302C44.9944 10.9749 44.3182 10.6643 43.6939 10.3537C42.8617 9.9913 42.1334 9.62892 41.1971 9.52539C41.0931 9.52539 40.989 9.52539 40.885 9.47362C40.5729 9.47362 40.2608 9.42185 39.9487 9.31832C39.8446 9.37008 39.8446 9.31832 39.7926 9.31832Z" fill="#CFE6E6"/>
<path d="M48.9481 26.9713C48.3239 26.7642 47.7517 26.4018 47.1795 26.0912C46.5553 25.7288 45.9831 25.3665 45.3589 25.2112C44.9948 25.1076 44.5787 25.0558 44.2145 25.0041C43.9024 24.9523 43.5903 24.9005 43.2782 24.8488C42.602 24.6935 41.9258 24.4346 41.1455 24.0205C40.9374 23.917 40.7293 23.7616 40.5733 23.6581C40.2612 23.451 40.0011 23.244 39.689 23.1922C39.4289 23.1404 39.1168 23.0887 38.8047 23.0887C38.7007 23.0887 38.5966 23.0887 38.4926 23.0369C37.4002 22.9334 36.5159 22.5192 35.6836 22.1051C35.0074 21.7945 34.3832 21.4839 33.6549 21.3286C33.1868 21.225 32.7186 21.1215 32.2505 21.0697C31.002 20.8109 29.7016 20.6038 28.5052 20.1379C28.1411 19.9826 27.7769 19.8273 27.4128 19.6202C27.0487 19.4131 26.6846 19.2578 26.2684 19.1025C25.6962 18.8955 25.02 18.7401 24.4478 18.5331C24.1357 18.4295 23.8236 18.3778 23.5115 18.2742C23.3554 18.2225 23.3034 18.1189 23.3554 17.9636C23.4075 17.8601 23.5635 17.7566 23.6675 17.8083C23.9797 17.9119 24.2918 17.9636 24.6039 18.0672C25.2281 18.2225 25.8523 18.4295 26.4765 18.6366C26.8926 18.7919 27.3088 18.999 27.6729 19.2061C27.985 19.3614 28.3491 19.5684 28.7133 19.672C29.8577 20.1379 31.1581 20.345 32.3545 20.6038C32.8227 20.7073 33.2908 20.7591 33.759 20.8626C34.5392 21.0179 35.2675 21.3803 35.9437 21.6909C36.776 22.1051 37.5563 22.4674 38.5446 22.571C38.6486 22.571 38.7527 22.571 38.8567 22.571C39.1688 22.571 39.5329 22.6228 39.845 22.7263C40.2612 22.8298 40.5733 23.0369 40.8854 23.2957C41.0415 23.3993 41.2495 23.5546 41.4056 23.6581C42.1338 24.0205 42.758 24.2793 43.3823 24.4346C43.6944 24.4864 44.0065 24.5382 44.3186 24.5899C44.7347 24.6417 45.1509 24.7452 45.515 24.8488C46.2432 25.0558 46.9195 25.4182 47.4916 25.8324C48.1679 26.2465 48.8441 26.6607 49.6764 26.816C49.8845 26.8677 50.0925 26.8677 50.3006 26.8677C50.6647 26.8677 51.0289 26.8677 51.445 27.0748C51.601 27.1266 51.6531 27.2819 51.601 27.3854C51.549 27.4889 51.393 27.5407 51.2369 27.4889C50.9248 27.3336 50.6647 27.3336 50.3006 27.3336C50.0925 27.3336 49.8324 27.3336 49.5724 27.2819C49.3643 27.0748 49.1562 27.023 48.9481 26.9713Z" fill="#CFE6E6"/>
<path d="M43.7978 15.2198C43.2256 15.0127 42.7054 14.8057 42.2373 14.5468C42.0292 14.4433 41.8211 14.3397 41.6131 14.2362C41.457 14.1844 41.405 14.0291 41.457 13.9256C41.509 13.8221 41.6651 13.7703 41.8211 13.8221C42.0292 13.9256 42.2373 14.0291 42.4453 14.1327C43.1216 14.4433 43.7458 14.7539 44.474 14.9092C44.9422 15.0127 45.4104 15.1163 45.8265 15.168C47.0229 15.4269 48.3233 15.6339 49.5198 16.0999C49.8839 16.2552 50.248 16.4105 50.6121 16.6175C50.9763 16.8246 51.3404 16.9799 51.7565 17.1352C52.3287 17.3423 52.9529 17.4976 53.5771 17.6529C53.8892 17.7564 54.2014 17.8082 54.5135 17.9117C54.6695 17.9635 54.7215 18.067 54.7215 18.2224C54.6695 18.3259 54.5655 18.4294 54.4094 18.3777C54.0973 18.2741 53.7852 18.2224 53.5251 18.1188C52.9009 17.9635 52.2767 17.7564 51.7045 17.5494C51.2884 17.3941 50.8722 17.187 50.5081 16.9799C50.196 16.8246 49.8319 16.6175 49.5198 16.514C48.3754 16.0481 47.1269 15.841 45.9305 15.5822C45.4624 15.4786 44.9942 15.4269 44.5261 15.3233C44.2139 15.3233 44.0059 15.2716 43.7978 15.2198Z" fill="#CFE6E6"/>
<path d="M32.5622 11.389C31.938 11.1819 31.3658 10.8195 30.8456 10.5089C30.1694 10.0948 29.5452 9.68062 28.7129 9.57708C28.5048 9.52531 28.2968 9.52531 28.0887 9.52531C27.7246 9.52531 27.3604 9.52531 26.9443 9.31824C26.7882 9.26647 26.7362 9.11117 26.8403 9.00763C26.8923 8.9041 27.0483 8.85233 27.2044 8.9041C27.5165 9.0594 27.7766 9.0594 28.1407 9.0594C28.3488 9.0594 28.6089 9.0594 28.8689 9.11117C29.8053 9.26647 30.5335 9.68062 31.2097 10.1465C31.7819 10.5089 32.3541 10.8713 33.0304 11.0266C33.3945 11.1301 33.8106 11.1819 34.1748 11.2337C34.4869 11.2854 34.799 11.3372 35.1111 11.389C35.7353 11.5443 36.4115 11.8031 37.1918 12.1655C37.2958 12.2173 37.3478 12.3726 37.2958 12.4761C37.2438 12.5796 37.0877 12.6314 36.9317 12.5796C36.2034 12.2173 35.5792 11.9584 35.007 11.8549C34.6949 11.8031 34.3828 11.7513 34.1227 11.6996C33.7066 11.6478 33.3425 11.5443 32.9263 11.4407C32.7183 11.4407 32.6142 11.4407 32.5622 11.389Z" fill="#CFE6E6"/>
<path d="M37.5044 15.6339C37.1403 15.5304 36.8282 15.3233 36.5681 15.1162C36.412 15.0127 36.204 14.8574 36.0479 14.7539C35.3197 14.3915 34.6954 14.1326 34.0712 13.9773C33.7591 13.9256 33.447 13.8738 33.1349 13.822C32.7188 13.7703 32.3026 13.6667 31.9385 13.5632C31.2103 13.3561 30.586 12.9937 29.9618 12.5796C29.2856 12.1655 28.6094 11.7513 27.8291 11.596C27.621 11.5442 27.413 11.5442 27.2049 11.5442C26.8408 11.5442 26.4766 11.5442 26.0605 11.3372C25.9045 11.2854 25.8524 11.1301 25.9565 11.0266C26.0085 10.923 26.1645 10.8713 26.3206 10.923C26.6327 11.0783 26.8928 11.0783 27.2569 11.0783C27.465 11.0783 27.7251 11.0783 27.9852 11.1301C28.9215 11.2854 29.6497 11.7513 30.378 12.1655C30.9502 12.5278 31.5224 12.8902 32.1986 13.0455C32.5627 13.149 32.9789 13.2008 33.343 13.3043C33.6551 13.3561 33.9672 13.4079 34.2793 13.4597C34.9555 13.615 35.6318 13.8738 36.36 14.2879C36.5681 14.3915 36.7761 14.5468 36.9322 14.6503C37.2443 14.8574 37.5044 15.0645 37.8165 15.1162C38.0766 15.168 38.3887 15.2198 38.7008 15.2198C38.8048 15.2198 38.9089 15.2198 39.0129 15.2715C40.1053 15.3751 40.9376 15.7892 41.8219 16.2034C42.4981 16.514 43.1223 16.8246 43.8506 16.9799C44.3187 17.0834 44.7869 17.187 45.255 17.2387C46.5035 17.4976 47.7519 17.7046 49.0003 18.1705C49.3644 18.3258 49.7286 18.4812 50.0927 18.6882C50.4568 18.8953 50.8209 19.0506 51.2371 19.2059C51.8093 19.413 52.4335 19.5683 53.0577 19.7754C53.3698 19.8789 53.6819 19.9307 53.994 20.0342C54.1501 20.086 54.2021 20.1895 54.2021 20.3448C54.1501 20.4483 54.046 20.5519 53.89 20.5001C53.5779 20.3966 53.2658 20.3448 52.9537 20.2413C52.3294 20.086 51.7052 19.8789 51.081 19.6718C50.6649 19.5165 50.2487 19.3094 49.8846 19.1024C49.5725 18.9471 49.2084 18.74 48.8443 18.6365C47.6999 18.1705 46.4514 17.9635 45.203 17.7046C44.7349 17.6011 44.2667 17.5493 43.7985 17.4458C43.0183 17.2905 42.29 16.9281 41.6138 16.6175C40.7815 16.2034 40.0012 15.841 39.0129 15.7374C38.9089 15.7374 38.8048 15.7374 38.7008 15.6857C38.3887 15.6857 38.0766 15.6339 37.7125 15.5304C37.5564 15.6339 37.5564 15.6339 37.5044 15.6339Z" fill="#CFE6E6"/>
<path d="M50.5601 22.7781C49.8838 22.571 49.3116 22.2087 48.7915 21.8463C48.1672 21.4839 47.595 21.1215 46.9188 20.9145C46.5547 20.8109 46.1386 20.7591 45.7224 20.6556C45.4103 20.6038 45.0982 20.5521 44.7861 20.5003C44.1099 20.345 43.4336 20.0862 42.6534 19.672C42.4453 19.5685 42.2372 19.4132 42.0292 19.2579C41.7171 19.0508 41.457 18.8437 41.1449 18.792C40.8848 18.7402 40.5727 18.6884 40.2606 18.6884C40.1565 18.6884 40.0525 18.6884 39.9485 18.6367C38.8561 18.5331 37.9718 18.119 37.1395 17.6531C36.4633 17.3425 35.8391 16.9801 35.0588 16.8248C34.5906 16.7212 34.1225 16.6177 33.6543 16.5659C32.4059 16.3071 31.1054 16.0483 29.857 15.5823C29.4929 15.427 29.1288 15.2717 28.7646 15.0647C28.4005 14.8576 28.0364 14.6505 27.6203 14.547C26.996 14.3399 26.3718 14.1328 25.7476 13.9775C25.4355 13.874 25.1234 13.8222 24.8113 13.7187C24.6552 13.6669 24.6032 13.5634 24.6552 13.4081C24.7073 13.3046 24.8633 13.201 24.9674 13.2528C25.2795 13.3563 25.5916 13.4081 25.9037 13.5116C26.5279 13.6669 27.1521 13.874 27.7763 14.0811C28.1925 14.2364 28.6086 14.4434 28.9727 14.6505C29.2848 14.8058 29.6489 15.0129 30.0131 15.1164C31.2095 15.5823 32.4579 15.8412 33.7063 16.0483C34.1745 16.1518 34.6426 16.2553 35.1108 16.3589C35.8911 16.5142 36.6193 16.8765 37.2955 17.2389C38.1278 17.6531 38.9601 18.0672 39.8964 18.1707C40.0005 18.1707 40.1045 18.1707 40.2085 18.2225C40.5206 18.2225 40.8848 18.2743 41.1969 18.3778C41.613 18.4814 41.9251 18.7402 42.2372 18.9473C42.4453 19.1026 42.6013 19.2061 42.7574 19.3096C43.4856 19.672 44.1619 19.9309 44.7341 20.0862C45.0462 20.1379 45.3583 20.1897 45.6704 20.2415C46.0865 20.2932 46.5027 20.3968 46.9188 20.5003C47.6991 20.7074 48.3233 21.1215 48.9475 21.4839C49.6758 21.9498 50.3 22.364 51.1323 22.4675C51.3403 22.5193 51.5484 22.5193 51.7565 22.5193C52.1206 22.5193 52.4847 22.5193 52.9529 22.7263C53.1089 22.7781 53.1609 22.9334 53.1089 23.0369C53.0569 23.1405 52.9009 23.1922 52.7448 23.1405C52.4327 22.9852 52.1726 22.9852 51.8085 22.9852C51.6004 22.9852 51.3403 22.9852 51.0802 22.9334C50.9762 22.8816 50.7681 22.8816 50.5601 22.7781Z" fill="#CFE6E6"/>
<path d="M35.891 20.1378C35.5269 20.0343 35.2148 19.7754 34.9026 19.5684C34.6946 19.4131 34.5385 19.3095 34.3825 19.206C33.6542 18.7919 32.978 18.533 32.3538 18.4295C32.0417 18.3777 31.7296 18.3259 31.4175 18.2742C31.0013 18.2224 30.5852 18.1189 30.169 18.0153C29.3888 17.8083 28.7646 17.3941 28.1403 17.0317C27.4121 16.5658 26.7879 16.1517 25.9556 16.0482C25.6955 15.9964 25.4874 15.9964 25.2794 15.9964C24.9152 15.9964 24.5511 15.9964 24.083 15.7893C23.9269 15.7375 23.8749 15.5822 23.9789 15.4787C24.0309 15.3752 24.187 15.3234 24.3431 15.3752C24.6552 15.5305 24.9673 15.5305 25.2794 15.5305C25.4874 15.5305 25.7475 15.5305 26.0076 15.5822C26.9439 15.7375 27.7242 16.2035 28.4525 16.6694C29.0767 17.0317 29.6489 17.4459 30.3251 17.6012C30.6892 17.7047 31.1054 17.7565 31.5215 17.86C31.8336 17.9118 32.1457 17.9636 32.5098 18.0671C33.1861 18.2224 33.8623 18.4812 34.6426 18.8954C34.8506 18.9989 35.0587 19.1542 35.2668 19.3095C35.5789 19.5166 35.839 19.7237 36.1511 19.8272C36.4112 19.879 36.7233 19.9308 37.0354 19.9308C37.1394 19.9308 37.2434 19.9308 37.3995 19.9825C38.4919 20.0861 39.3762 20.552 40.2605 20.9661C40.9367 21.3285 41.6129 21.6391 42.3412 21.7944C42.8093 21.8979 43.2775 22.0015 43.7457 22.105C44.9941 22.3639 46.2945 22.6227 47.5429 23.0886C47.9071 23.2439 48.2712 23.451 48.6353 23.6063C49.0515 23.8134 49.4156 24.0204 49.8317 24.1757C50.4559 24.3828 51.0802 24.5899 51.7044 24.7452C52.0165 24.8487 52.3286 24.9005 52.6407 25.004C52.7967 25.0558 52.8488 25.2111 52.8488 25.3146C52.7967 25.4699 52.6927 25.5217 52.5366 25.4699C52.2245 25.3664 51.9124 25.2629 51.6003 25.2111C50.9761 25.0558 50.2999 24.8487 49.6757 24.6416C49.2595 24.4863 48.8434 24.2793 48.4272 24.0722C48.0631 23.9169 47.751 23.7098 47.3869 23.5545C46.1905 23.0886 44.89 22.8298 43.6936 22.6227C43.2255 22.5192 42.7573 22.4156 42.2371 22.3121C41.4049 22.1568 40.7286 21.7944 40.0004 21.432C39.1681 21.0179 38.3358 20.6037 37.3475 20.5002C37.2434 20.5002 37.1394 20.5002 37.0354 20.4484C36.7233 20.4484 36.3591 20.3967 36.047 20.2931C35.943 20.1378 35.943 20.1378 35.891 20.1378Z" fill="#CFE6E6"/>
<path d="M52.8503 15.9965C52.1741 15.7894 51.6019 15.4271 51.0297 15.0647C50.4055 14.7023 49.8333 14.3399 49.157 14.1329C48.7929 14.0293 48.3768 13.9776 48.0127 13.874C47.7005 13.8222 47.3884 13.7705 47.0763 13.6669C46.4001 13.5116 45.7239 13.2528 44.9436 12.8387C44.7355 12.7351 44.5275 12.5798 44.3194 12.4245C44.0073 12.2174 43.7472 12.0104 43.4351 11.9586C43.175 11.9068 42.8629 11.8551 42.5508 11.8551C42.4468 11.8551 42.3427 11.8551 42.2387 11.8033C41.1463 11.6998 40.262 11.2338 39.4297 10.8197C38.7535 10.4573 38.1293 10.1467 37.401 9.99141C36.9329 9.88788 36.4647 9.78434 35.9966 9.68081C34.7481 9.42196 33.4477 9.16312 32.2513 8.69721C31.8872 8.54191 31.523 8.33484 31.1589 8.17953C30.7948 7.97246 30.4307 7.76539 30.0145 7.66185C29.4423 7.45478 28.7661 7.24771 28.1939 7.0924C27.8818 6.98887 27.5697 6.9371 27.2576 6.83356C27.1015 6.7818 27.0495 6.67826 27.1015 6.52296C27.1536 6.41942 27.3096 6.31588 27.4136 6.36765C27.7258 6.47119 28.0379 6.52296 28.35 6.62649C28.9742 6.7818 29.5984 6.98887 30.2226 7.19594C30.6387 7.35124 31.0549 7.55832 31.419 7.76539C31.7311 7.92069 32.0952 8.12776 32.4594 8.2313C33.6558 8.69721 34.9042 8.95605 36.1006 9.16312C36.5688 9.26666 37.0369 9.3702 37.5051 9.47373C38.2853 9.62904 39.0136 9.99141 39.6898 10.3538C40.5221 10.7679 41.3544 11.1821 42.2907 11.2856C42.3947 11.2856 42.4988 11.2856 42.6028 11.3374C42.9149 11.3374 43.279 11.3892 43.5912 11.4927C44.0073 11.5962 44.3194 11.8551 44.6315 12.0621C44.8396 12.2174 44.9956 12.321 45.1517 12.4245C45.8799 12.7869 46.5041 13.0457 47.1284 13.201C47.4405 13.2528 47.7526 13.3046 48.0647 13.3563C48.4808 13.4081 48.897 13.5116 49.2611 13.6152C49.9893 13.8222 50.6656 14.2364 51.2898 14.5988C52.018 15.0647 52.6422 15.4788 53.4745 15.5824C53.6826 15.6341 53.8907 15.6341 54.0987 15.6341C54.4628 15.6341 54.827 15.6341 55.2951 15.8412C55.4512 15.893 55.5032 16.0483 55.4512 16.1518C55.3992 16.2553 55.2431 16.3071 55.1391 16.2553C54.827 16.1 54.5669 16.1 54.2028 16.1C53.9947 16.1 53.7346 16.1 53.4745 16.0483C53.2664 16.1518 53.0584 16.1 52.8503 15.9965Z" fill="#CFE6E6"/>
<path d="M40.1048 26.7641C39.4806 26.557 38.9084 26.2982 38.3882 25.9876C37.5039 25.5217 36.6716 25.1075 35.6833 25.004C35.5792 25.004 35.4752 25.004 35.3712 24.9522C35.0591 24.9522 34.6949 24.9005 34.3308 24.7969C33.9147 24.6934 33.5506 24.4346 33.2384 24.1757C33.0304 24.0204 32.8743 23.9169 32.6663 23.8133C31.938 23.3992 31.2618 23.1404 30.5855 22.9851C30.2734 22.9333 29.9613 22.8815 29.5972 22.778C29.1811 22.7262 28.7649 22.6227 28.2968 22.5191C27.5165 22.3121 26.8403 21.8979 26.2161 21.4838C25.4878 21.0179 24.8116 20.552 23.9793 20.4484C23.7192 20.3967 23.5111 20.3967 23.3031 20.3967C22.9389 20.3967 22.5228 20.3967 22.0546 20.1896C21.8986 20.1378 21.8466 19.9825 21.9506 19.879C22.0026 19.7754 22.1587 19.7237 22.3147 19.7754C22.6789 19.9307 22.9389 19.9307 23.3031 19.9307C23.5111 19.9307 23.7712 19.9307 24.0833 19.9825C25.0717 20.1378 25.7999 20.6555 26.5802 21.1214C27.2044 21.5355 27.7766 21.8979 28.5048 22.105C28.921 22.2085 29.3371 22.2603 29.7533 22.3638C30.0654 22.4156 30.4295 22.4674 30.7416 22.5709C31.4178 22.7262 32.1461 23.0368 32.9263 23.451C33.1344 23.5545 33.3425 23.7098 33.5506 23.8651C33.8627 24.0722 34.1227 24.2793 34.4349 24.3828C34.747 24.4863 35.0071 24.4863 35.3712 24.4863C35.4752 24.4863 35.5792 24.4863 35.7353 24.5381C36.8797 24.6416 37.764 25.1075 38.6483 25.5735C39.3765 25.9358 40.0008 26.2464 40.781 26.4535C41.2492 26.557 41.7694 26.6606 42.2375 26.7641C43.538 27.023 44.8904 27.2818 46.1388 27.7995C46.555 27.9548 46.9191 28.1619 47.2832 28.3689C47.6994 28.576 48.0635 28.7831 48.4796 28.9384C49.1038 29.1454 49.7801 29.3525 50.4043 29.5078C50.7164 29.6114 51.0805 29.7149 51.3926 29.7667C51.5487 29.8184 51.6007 29.9737 51.6007 30.0773C51.5487 30.2326 51.4446 30.2843 51.2886 30.2326C50.9765 30.129 50.6644 30.0255 50.3003 29.9737C49.676 29.7667 48.9998 29.6114 48.3236 29.3525C47.8554 29.1972 47.4393 28.9384 47.0231 28.7313C46.659 28.5242 46.2949 28.3689 45.9308 28.2136C44.7344 27.6959 43.3819 27.4371 42.1335 27.23C41.6653 27.1265 41.1451 27.023 40.677 26.9194C40.4689 26.8677 40.2608 26.8159 40.1048 26.7641Z" fill="#CFE6E6"/>
<path d="M33.2898 27.2818C32.8737 27.1783 32.5616 26.9194 32.2495 26.6606C32.0414 26.5053 31.8853 26.4018 31.6773 26.2982C30.897 25.8841 30.2208 25.6252 29.5965 25.4699C29.2844 25.4182 28.9203 25.3146 28.6082 25.2629C28.1921 25.2111 27.7239 25.1076 27.3078 25.004C26.5275 24.797 25.8513 24.331 25.2271 23.9169C24.4988 23.451 23.8226 22.9851 22.9383 22.8298C22.6782 22.778 22.4701 22.778 22.2621 22.778C21.8979 22.778 21.4818 22.778 21.0136 22.5709C20.8576 22.5192 20.8056 22.3639 20.9096 22.2086C20.9616 22.105 21.1177 22.0533 21.2737 22.105C21.6378 22.2603 21.8979 22.2603 22.2621 22.2603C22.4701 22.2603 22.7302 22.2603 23.0423 22.3121C24.0307 22.4674 24.8109 22.9851 25.5392 23.451C26.1634 23.8651 26.7356 24.2793 27.4638 24.4346C27.88 24.5381 28.2961 24.6417 28.7122 24.6934C29.0244 24.7452 29.3885 24.797 29.7006 24.9005C30.3768 25.0558 31.1051 25.3664 31.9373 25.7806C32.1454 25.8841 32.3535 26.0394 32.5616 26.1947C32.8737 26.4018 33.1338 26.6606 33.4979 26.7124C33.81 26.8159 34.1221 26.8159 34.4342 26.8159C34.5382 26.8159 34.6943 26.8159 34.7983 26.8677C35.3705 26.9194 35.9427 27.0748 36.5669 27.3336C36.723 27.3854 36.775 27.5407 36.723 27.6442C36.671 27.7477 36.5149 27.8513 36.3588 27.7477C35.7867 27.4889 35.2665 27.3854 34.7463 27.3336C34.6423 27.3336 34.5382 27.3336 34.3822 27.2818C34.0181 27.2818 33.7059 27.2301 33.3418 27.1265C33.3418 27.3336 33.3418 27.3336 33.2898 27.2818Z" fill="#CFE6E6"/>
<path d="M36.7757 37.1176C36.0995 36.9106 35.4753 36.5999 34.9031 36.2376C33.9668 35.7717 33.1345 35.3057 32.0421 35.2022C31.9381 35.2022 31.782 35.2022 31.678 35.1504C31.3139 35.1504 30.9498 35.0987 30.5856 34.9951C30.1175 34.8916 29.8054 34.581 29.4412 34.3222C29.2332 34.1669 29.0771 34.0115 28.869 33.908C28.0888 33.4421 27.3605 33.1833 26.6843 33.028C26.3722 32.9762 26.0081 32.8726 25.644 32.8209C25.1758 32.7691 24.7597 32.6656 24.2915 32.562C23.4592 32.355 22.783 31.8891 22.1067 31.4231C21.3785 30.9055 20.6503 30.4396 19.766 30.2842C19.5059 30.2325 19.2978 30.2325 19.0377 30.2325C18.6216 30.2325 18.2054 30.2325 17.7373 30.0254C17.5812 29.9736 17.5292 29.8183 17.6332 29.663C17.6852 29.5595 17.8933 29.5077 17.9973 29.5595C18.3615 29.7148 18.6736 29.7148 19.0377 29.7148C19.2978 29.7148 19.5579 29.7148 19.87 29.7666C20.9103 29.9219 21.6906 30.4913 22.4709 31.009C23.0951 31.4749 23.7193 31.8891 24.4475 32.0961C24.8637 32.1997 25.3318 32.3032 25.748 32.355C26.1121 32.4067 26.4242 32.4585 26.7883 32.562C27.5166 32.7173 28.2969 33.028 29.1291 33.4939C29.3372 33.6492 29.5973 33.8045 29.7534 33.9598C30.0655 34.2186 30.3776 34.4257 30.6897 34.5292C31.0018 34.6328 31.3139 34.6328 31.678 34.6328C31.782 34.6328 31.9381 34.6328 32.0421 34.6845C33.2385 34.7881 34.1749 35.3057 35.1112 35.7717C35.8394 36.1858 36.5677 36.5482 37.3479 36.7035C37.8681 36.807 38.3883 36.9106 38.9085 37.0141C40.2609 37.2729 41.7174 37.5318 43.0179 38.1012C43.434 38.2565 43.8501 38.5154 44.2143 38.7224C44.6304 38.9813 45.0466 39.1884 45.4627 39.3437C46.1389 39.6025 46.8152 39.8096 47.4914 39.9649C47.8555 40.0684 48.1676 40.1719 48.5317 40.2755C48.6878 40.3272 48.7398 40.4826 48.7398 40.5861C48.6878 40.7414 48.5317 40.7932 48.4277 40.7414C48.0636 40.6379 47.7515 40.5343 47.3873 40.4308C46.7111 40.2237 45.9829 40.0166 45.3066 39.7578C44.8385 39.6025 44.3703 39.3437 43.9542 39.0848C43.5901 38.8777 43.2259 38.6707 42.8098 38.5154C41.5094 37.9977 40.1049 37.7388 38.8044 37.4282C38.2843 37.3247 37.7641 37.2212 37.2439 37.1176C37.1399 37.2212 36.9318 37.1694 36.7757 37.1176Z" fill="#CFE6E6"/>
<path d="M45.3588 42.9675C45.0987 42.8639 44.8386 42.8122 44.5785 42.7086C44.1104 42.5015 43.6422 42.2945 43.2261 42.0356C42.8619 41.8286 42.4978 41.6215 42.0817 41.4662C40.7812 40.8967 39.3768 40.6379 38.0243 40.3791C37.5041 40.2755 36.9839 40.172 36.4638 40.0684C36.0996 39.9649 35.6835 39.8614 35.2674 39.6543C35.1113 39.6025 35.0593 39.4472 35.1113 39.2919C35.1633 39.1366 35.3194 39.0849 35.4754 39.1884C35.8916 39.3437 36.2037 39.499 36.5678 39.5508C37.088 39.6543 37.6082 39.7578 38.1283 39.8614C39.5328 40.1202 40.9373 40.4308 42.3418 41.0003C42.7579 41.1556 43.174 41.4144 43.5382 41.6215C43.9543 41.8803 44.3704 42.0874 44.8386 42.2427C45.5148 42.5015 46.1911 42.7086 46.9193 42.9157C47.2834 43.0192 47.5955 43.1228 47.9597 43.2263C48.1157 43.2781 48.1677 43.4334 48.1677 43.5887C48.1157 43.744 47.9597 43.7957 47.8556 43.744C47.4915 43.6404 47.1794 43.5369 46.8153 43.4334C46.2431 43.2263 45.8269 43.1228 45.3588 42.9675Z" fill="#CFE6E6"/>
<path d="M29.4938 37.7389C29.0777 37.5836 28.7136 37.3248 28.4015 37.066C28.1934 36.9107 28.0373 36.7554 27.8293 36.6518C27.049 36.1859 26.3208 35.8753 25.6445 35.72C25.3324 35.6165 24.9683 35.5647 24.6042 35.5129C24.136 35.4612 23.6679 35.3576 23.2517 35.2541C22.4194 35.047 21.7432 34.5293 21.067 34.0634C20.2867 33.5457 19.6105 33.0281 18.6742 32.8727C18.4141 32.821 18.154 32.821 17.9459 32.821C17.5298 32.821 17.1136 32.821 16.6455 32.6139C16.4894 32.5621 16.4374 32.4068 16.5414 32.2515C16.5934 32.148 16.8015 32.0962 16.9056 32.148C17.2697 32.3033 17.5818 32.3033 17.9459 32.3033C18.206 32.3033 18.4661 32.3033 18.7782 32.3551C19.8185 32.5104 20.6508 33.0798 21.4311 33.5975C22.1073 34.0634 22.7315 34.4776 23.4598 34.6846C23.8759 34.7882 24.3441 34.8917 24.7602 34.9435C25.1243 34.9952 25.4885 35.047 25.8006 35.1505C26.5288 35.3058 27.3091 35.6165 28.1414 36.1341C28.4015 36.2894 28.6095 36.4447 28.8176 36.6C29.1297 36.8589 29.4418 37.066 29.7539 37.1695C30.066 37.273 30.3781 37.273 30.7423 37.273C30.8463 37.273 31.0023 37.273 31.1064 37.3248C31.2624 37.3248 31.4185 37.3766 31.5225 37.3766C31.6786 37.3766 31.7826 37.5319 31.7306 37.6872C31.7306 37.8425 31.5745 37.946 31.4185 37.8942C31.3145 37.8942 31.1584 37.8425 31.0544 37.8425C30.9503 37.8425 30.7943 37.8425 30.6902 37.8425C30.3261 37.8425 29.962 37.7907 29.5979 37.6872C29.5459 37.7389 29.5459 37.7389 29.4938 37.7389Z" fill="#CFE6E6"/>
<path d="M44.6307 45.9182C44.3185 45.8147 44.0585 45.7112 43.7984 45.6076C43.3302 45.4006 42.8621 45.1417 42.3939 44.9346C42.0298 44.7276 41.6136 44.5205 41.2495 44.3134C39.9491 43.744 38.4926 43.4851 37.0881 43.2263C36.5679 43.1228 35.9957 43.0192 35.4755 42.9157C34.5912 42.7086 33.759 42.2945 33.0307 41.8803C32.0944 41.3626 31.2101 40.8967 30.0657 40.7932C29.9617 40.7932 29.8056 40.7932 29.7016 40.7932C29.3374 40.7932 28.9733 40.7414 28.5572 40.6379C28.089 40.5344 27.7249 40.2238 27.3608 39.9131C27.1527 39.7578 26.9446 39.6025 26.7886 39.499C25.9563 39.0331 25.2801 38.7225 24.5518 38.5672C24.1877 38.4636 23.8756 38.4119 23.5115 38.3601C23.0433 38.2566 22.5751 38.2048 22.107 38.0495C21.2747 37.7907 20.5465 37.3247 19.8702 36.8588C19.09 36.3411 18.3617 35.8235 17.4254 35.6682C17.1653 35.6164 16.9052 35.6164 16.6971 35.6164C16.281 35.6164 15.8649 35.6164 15.3447 35.3576C15.1886 35.3058 15.1366 35.1505 15.2406 34.9952C15.2927 34.8916 15.5007 34.8399 15.6048 34.8916C15.9689 35.0987 16.281 35.0469 16.6451 35.0469C16.9052 35.0469 17.1653 35.047 17.4774 35.0987C18.5178 35.254 19.35 35.8235 20.1303 36.3929C20.8065 36.8588 21.4308 37.273 22.159 37.5318C22.5751 37.6354 23.0433 37.7389 23.5115 37.7907C23.8756 37.8424 24.2397 37.8942 24.6038 37.9977C25.3321 38.153 26.1124 38.5154 26.9967 38.9813C27.2567 39.1366 27.4648 39.2919 27.6729 39.4472C27.985 39.7061 28.2971 39.9649 28.6612 40.0684C28.9733 40.172 29.2854 40.172 29.6496 40.2237C29.7536 40.2237 29.9096 40.2238 30.0137 40.2755C31.2621 40.3791 32.2504 40.8967 33.1868 41.4144C33.967 41.8286 34.6433 42.1909 35.4755 42.398C35.9957 42.5015 36.5159 42.6051 37.0881 42.7086C38.4926 42.9675 39.9491 43.2781 41.3535 43.8475C41.7697 44.0546 42.1858 44.2617 42.602 44.4687C43.0181 44.7276 43.4342 44.9346 43.9024 45.1417C44.5786 45.4006 45.3069 45.6076 45.9831 45.8147C46.3472 45.9182 46.7114 46.0218 47.0235 46.1253C47.1795 46.1771 47.2315 46.3324 47.2315 46.4877C47.1795 46.643 47.0235 46.6948 46.8674 46.643C46.5033 46.5394 46.1912 46.4359 45.8271 46.3324C45.4629 46.1771 45.0468 46.0735 44.6307 45.9182Z" fill="#CFE6E6"/>
<path d="M20.8062 40.8451C20.026 40.5862 19.3497 40.1203 18.7255 39.6544C17.9452 39.0849 17.217 38.5673 16.2807 38.412C16.0206 38.3602 15.7605 38.3602 15.5524 38.3602C15.1363 38.3602 14.6681 38.3602 14.2 38.1014C14.0439 38.1014 13.9919 37.946 14.0439 37.7907C14.0959 37.6354 14.304 37.6354 14.408 37.6872C14.7722 37.8943 15.0843 37.8943 15.5004 37.8425C15.7605 37.8425 16.0206 37.8425 16.3327 37.8943C17.4251 38.0496 18.2574 38.6708 19.0376 39.2403C19.7138 39.7062 20.3381 40.1721 21.1183 40.3791C21.5345 40.4827 22.0026 40.5862 22.4708 40.638C22.8349 40.6898 23.199 40.7415 23.5632 40.8451C23.7192 40.8968 23.9273 40.9486 24.0833 41.0004C24.2394 41.0521 24.2914 41.2074 24.2394 41.3627C24.1874 41.518 24.0313 41.5698 23.8753 41.518C23.7192 41.4663 23.5632 41.4145 23.4071 41.3627C23.043 41.2592 22.6789 41.2074 22.3668 41.1557C21.8986 41.0521 21.4304 41.0004 20.9623 40.8451C20.9103 40.8968 20.8582 40.8451 20.8062 40.8451Z" fill="#CFE6E6"/>
</svg>
