<svg width="70" height="80" viewBox="0 0 70 80" fill="none" xmlns="http://www.w3.org/2000/svg">
<path d="M46.1225 71.2081L41.6927 72.8068C41.3978 72.1071 41.1404 71.3938 40.91 70.7556C40.7881 70.4178 40.6662 70.0799 40.5713 69.8171C40.2191 68.8411 39.8293 67.8786 39.477 66.9025C39.3145 66.452 39.1654 66.0391 39.0164 65.6261C38.7725 64.9504 38.4911 64.2882 38.2608 63.65C37.9221 62.7115 37.5834 61.773 37.2447 60.8345C37.055 60.3089 36.8518 59.7458 36.6621 59.2202L36.1202 57.7186C35.9305 57.1931 35.7273 56.63 35.5376 56.1044C36.302 55.871 37.0528 55.6 37.79 55.2915C38.3396 55.0507 38.8516 54.8235 39.4012 54.5827C39.5138 54.5421 39.5753 54.4775 39.6879 54.4368C39.8776 54.9624 40.1048 55.4744 40.3081 56.0375C40.4842 56.5255 40.7114 57.0376 40.8875 57.5256C41.0772 58.0512 41.3044 58.5632 41.5076 59.1263C42.0871 60.6144 42.629 62.116 43.2492 63.7167C43.4117 64.1672 43.5743 64.6176 43.788 65.0921C43.8151 65.1672 43.8422 65.2423 43.8693 65.3174C44.1778 66.0546 44.8157 67.3519 45.3816 68.8024C45.5775 69.5803 45.8755 70.4062 46.1225 71.2081Z" fill="#FF8C66"/>
<path opacity="0.5" d="M40.8118 57.5531C40.6221 57.0275 40.4084 56.553 40.2323 56.065L40.1948 56.0785C40.0822 56.1192 40.0206 56.1838 39.908 56.2245C39.4095 56.4892 38.86 56.73 38.2969 56.9332C37.5596 57.2417 36.8088 57.5127 36.0444 57.7461L36.5864 59.2477C36.776 59.7733 36.9657 60.2989 37.1689 60.862C37.5819 60.7129 37.9708 60.615 38.3838 60.466C38.7967 60.3169 39.1721 60.1815 39.5715 59.9949C40.1962 59.727 40.8208 59.4592 41.3568 59.1809C41.3568 59.1809 41.3568 59.1809 41.3944 59.1673C41.2287 58.5907 41.039 58.0651 40.8118 57.5531Z" fill="black"/>
<path d="M58.9305 66.3734C58.8826 66.4756 58.821 66.5402 58.7084 66.5809C56.2161 67.9047 53.3297 68.6069 50.6643 69.5688L36.6617 74.6224C33.9963 75.5843 31.3267 76.8872 28.5634 77.4601C28.4883 77.4872 28.3621 77.4903 28.2599 77.4424C28.1067 77.3704 28.0629 77.1316 28.0838 76.9543C28.1434 76.2964 28.6116 75.8304 28.9162 75.381C29.3198 74.8535 29.7235 74.3259 30.1646 73.7849C30.3972 73.4888 30.6433 73.2302 30.8519 72.9852C31.4537 72.3013 32.1201 71.6789 32.8001 71.0941C34.2216 69.8598 35.7858 68.7861 37.4043 67.8625C37.9779 67.5707 38.5139 67.2924 39.101 67.0381C39.8998 66.6649 40.7257 66.3669 41.514 66.0823C42.1522 65.852 42.7529 65.6352 43.4046 65.4425C44.2065 65.1955 45.022 64.9861 45.8134 64.8277C47.6351 64.4673 49.5006 64.3456 51.4202 64.3742C52.6579 64.3942 53.8987 64.5404 55.1666 64.7617C55.2553 64.7722 55.3574 64.8201 55.4461 64.8306C55.9914 64.9308 56.5503 65.0685 57.1091 65.2063C57.6169 65.32 58.2884 65.4171 58.7544 65.8854C58.9212 65.9949 58.989 66.1826 58.9305 66.3734Z" fill="#FFC34D"/>
<path d="M54.235 21.7348C53.767 20.6732 53.224 19.6387 52.6058 18.6313C50.2761 14.7624 47.259 11.6931 43.6568 9.47139C43.3232 9.25236 42.952 9.04687 42.632 8.86538C41.7228 8.34489 40.7521 7.88903 39.8085 7.50826C39.3112 7.30588 38.8138 7.1035 38.2925 6.9522C37.8598 6.81135 37.376 6.64651 36.9433 6.50566C36.422 6.35437 35.9142 6.24061 35.4064 6.12686C34.9943 7.33634 34.7115 8.66889 34.5122 9.2924C35.02 9.40615 35.5653 9.50635 36.0491 9.67119C36.4818 9.81204 36.9521 9.93935 37.3848 10.0802C37.8685 10.245 38.4034 10.4339 38.8632 10.6498C39.6025 10.9346 40.2937 11.3216 41.0225 11.695C41.329 11.839 41.6116 12.034 41.8941 12.2291C44.6247 13.9167 47.0809 16.2549 49.1126 19.298C49.3231 19.6463 49.5712 19.9811 49.7818 20.3294C51.164 22.6309 52.1197 25.044 52.6834 27.4288C52.7678 27.7802 52.8522 28.1316 52.8855 28.459C54.0667 34.9064 52.4347 41.4356 48.7497 46.6266C48.5307 46.9602 48.2606 47.2699 48.004 47.6171C47.7714 47.9131 47.5388 48.2092 47.2927 48.4678C46.814 49.0224 46.2977 49.5906 45.7304 50.1348C43.9428 51.8831 41.8832 53.3477 39.589 54.5151C39.4764 54.5558 39.4148 54.6204 39.3022 54.6611C38.8037 54.9258 38.2542 55.1666 37.6911 55.3698C36.9538 55.6783 36.203 55.9493 35.4386 56.1827C35.1008 56.3047 34.7494 56.389 34.3979 56.4734C34.3229 56.5005 34.2478 56.5276 34.2102 56.5412C34.009 56.5714 33.8213 56.6391 33.62 56.6693L33.2311 56.7673C31.7743 57.0808 30.277 57.2818 28.7765 57.3566C28.6503 57.3597 28.5241 57.3628 28.3604 57.3795C27.7671 57.3814 27.1873 57.4209 26.5805 57.3854C25.5576 57.3727 24.5451 57.2713 23.5702 57.1565C23.0384 57.0938 22.4931 56.9936 21.9853 56.8798C21.6683 56.8245 21.3378 56.7316 21.0208 56.6763C20.5131 56.5626 19.9917 56.4113 19.4704 56.26C19.1887 57.1254 18.9445 57.9772 18.6628 58.8426C18.6044 59.0335 18.5324 59.1867 18.4875 59.4151C19.0089 59.5664 19.5302 59.7177 20.038 59.8314C20.3685 59.9243 20.6855 59.9796 21.016 60.0725C21.5238 60.1862 22.0691 60.2864 22.6009 60.3491C23.8553 60.5328 25.1712 60.652 26.511 60.72C26.5486 60.7064 26.5997 60.7304 26.6372 60.7169C27.2816 60.7389 27.8749 60.7369 28.5058 60.7214C28.5433 60.7079 28.5944 60.7319 28.6319 60.7183C30.4359 60.6613 32.2231 60.4406 33.9937 60.0562L34.3451 59.9718C34.5464 59.9416 34.7716 59.8603 34.9729 59.8301C35.0855 59.7894 35.2117 59.7863 35.3243 59.7457C35.7508 59.6342 36.1773 59.5227 36.5902 59.3737C37.0032 59.2246 37.3921 59.1267 37.8051 58.9777C38.218 58.8286 38.5934 58.6931 38.9928 58.5066C39.6175 58.2387 40.2421 57.9709 40.7781 57.6925C43.4717 56.3386 45.9172 54.6498 48.0125 52.5783C48.6413 51.9695 49.2191 51.3367 49.7594 50.7174C50.0295 50.4078 50.2861 50.0606 50.5562 49.7509C50.8503 49.3902 51.1309 48.992 51.4114 48.5937C55.767 42.4393 57.4555 35.126 56.1055 27.9758C56.0316 27.5358 55.9576 27.0957 55.8597 26.7068C55.5263 24.9601 54.9677 23.2948 54.235 21.7348Z" fill="#FFC34D"/>
<path opacity="0.5" d="M23.631 57.092C23.607 57.1431 23.6206 57.1806 23.5966 57.2317C23.4902 57.5247 23.4213 57.8041 23.3149 58.0971C23.1605 58.4922 22.9674 59.3681 22.6993 60.271C22.154 60.1708 21.6222 60.1082 21.1144 59.9944C20.7974 59.9391 20.4669 59.8462 20.1364 59.7534C20.1948 59.5626 20.2532 59.3718 20.3117 59.1809C20.5558 58.3291 20.8375 57.4637 21.0817 56.6118C21.4122 56.7047 21.7292 56.76 22.0462 56.8153C22.5539 56.9291 23.0857 56.9918 23.631 57.092Z" fill="black"/>
<path opacity="0.5" d="M39.8323 7.4572C39.5673 8.48631 39.2511 9.49144 38.959 10.4455C38.935 10.4966 38.911 10.5476 38.9006 10.6363C38.4032 10.4339 37.9059 10.2315 37.4221 10.0667C36.9894 9.92582 36.5431 9.74743 36.0864 9.65767C36.2857 9.03416 36.5821 7.73916 36.9807 6.49214C37.4509 6.61944 37.8836 6.76029 38.3299 6.93868C38.8512 7.08997 39.335 7.25482 39.8323 7.4572Z" fill="black"/>
<path opacity="0.5" d="M55.907 26.6046C56.005 26.9935 56.1165 27.42 56.1529 27.8736C57.4893 34.9863 55.8144 42.3372 51.4588 48.4915C51.1782 48.8898 50.8977 49.288 50.6036 49.6488C50.371 49.9449 50.1009 50.2545 49.8067 50.6152C49.2665 51.2345 48.6512 51.8809 48.0598 52.4761C45.9511 54.5101 43.5191 56.2364 40.8255 57.5904C40.2519 57.8822 39.6648 58.1365 39.0402 58.4044C38.6783 58.5774 38.2654 58.7264 37.8525 58.8755C37.477 59.011 37.0641 59.16 36.6376 59.2715C36.2247 59.4205 35.7982 59.532 35.3717 59.6435C35.2591 59.6841 35.1464 59.7248 35.0203 59.7279C34.819 59.7581 34.6313 59.8258 34.3925 59.8696C34.062 59.7767 33.7315 59.6839 33.4385 59.5774C33.3874 59.5534 33.3363 59.5295 33.2477 59.519C33.0058 59.4366 32.7639 59.3542 32.5084 59.2342C31.2208 58.723 29.9811 58.1097 28.8509 57.3295C30.3514 57.2547 31.8488 57.0537 33.3056 56.7402L33.6945 56.6422C33.8958 56.612 34.0835 56.5443 34.2847 56.5141C34.3598 56.487 34.4349 56.4599 34.4724 56.4463C34.8238 56.3619 35.1617 56.24 35.5131 56.1556C36.2775 55.9222 37.0283 55.6512 37.7655 55.3427C38.3151 55.102 38.8271 54.8747 39.3767 54.634C39.4893 54.5933 39.5508 54.5287 39.6635 54.488C41.9577 53.3206 44.0173 51.856 45.8049 50.1077C46.3722 49.5635 46.8645 49.0464 47.3672 48.4407C47.6133 48.1821 47.8459 47.886 48.0785 47.59C48.3486 47.2803 48.5676 46.9467 48.8242 46.5995C52.5091 41.4085 54.1412 34.8793 52.96 28.4319C52.9131 28.067 52.8423 27.7531 52.7579 27.4017C52.1942 25.0169 51.2385 22.6038 49.8563 20.3023C49.6457 19.954 49.4351 19.6057 49.187 19.2709C50.4852 19.6934 51.7353 20.2182 52.951 20.8826C53.1689 21.0161 53.3732 21.1121 53.5911 21.2456C53.6422 21.2696 53.6933 21.2936 53.7069 21.3311C53.8737 21.4406 54.0916 21.5742 54.2584 21.6837C54.9671 23.2948 55.5257 24.9601 55.907 26.6046Z" fill="#D79C2A"/>
<path d="M38.7078 5.402C38.594 5.90978 38.4427 6.43112 38.329 6.9389C38.0399 8.01911 37.7373 9.06177 37.3972 10.118C37.2699 10.5882 37.1051 11.072 36.9402 11.5558C35.8959 14.7755 34.7493 17.9473 33.7049 21.167C32.1796 25.8756 30.6167 30.5978 29.0913 35.3065C27.4596 40.3081 25.8654 45.2962 24.22 50.2603C23.7151 51.8003 23.2341 53.2892 22.7156 54.7916C22.4923 55.4662 22.2555 56.1033 22.0322 56.7779C21.9258 57.0709 21.8569 57.3503 21.7505 57.6433C21.6097 58.076 21.3926 59.0029 21.0869 59.9194C20.6539 61.3062 20.0332 62.7607 19.2282 62.8815C18.7131 62.9825 18.2471 62.5142 18.146 61.9991C17.9742 61.1701 18.3143 60.1139 18.596 59.2485C18.6544 59.0577 18.7128 58.8669 18.7713 58.6761C19.0154 57.8242 19.2971 56.9588 19.5788 56.0934C19.6821 55.6743 19.823 55.2416 19.9638 54.8089C20.0463 54.567 20.1151 54.2875 20.1975 54.0456C20.8987 51.7559 21.6374 49.4527 22.3385 47.163C23.9327 42.1749 25.578 37.2109 27.1723 32.2228C28.7665 27.2347 30.4118 22.2706 32.006 17.2825C32.6967 15.0815 33.3874 12.8804 34.0406 10.6929C34.2054 10.2091 34.3327 9.73889 34.4976 9.2551L34.5216 9.20401C34.7208 8.5805 35.0037 7.24796 35.4158 6.03848C35.8279 4.829 36.4172 3.64041 37.2056 3.3559C37.3182 3.31525 37.4069 3.3257 37.5195 3.28505C38.6686 3.29465 38.9384 4.5126 38.7078 5.402Z" fill="#FF8C66"/>
<path opacity="0.5" d="M36.9649 11.5044C35.8966 14.7752 34.75 17.9469 33.7056 21.1667C32.1803 25.8753 30.6174 30.5975 29.0921 35.3061C27.4603 40.3078 25.8661 45.2958 24.2208 50.2599C23.7158 51.7999 23.2348 53.2889 22.7163 54.7913C21.8915 54.6222 21.0397 54.3781 20.2118 54.0828L20.1607 54.0588C20.8619 51.7692 21.6005 49.4659 22.3017 47.1762C23.8959 42.1882 25.5412 37.2241 27.1354 32.236C28.7297 27.2479 30.375 22.2838 31.9692 17.2958C32.6599 15.0947 33.3506 12.8937 34.0038 10.7062C35.0193 10.9337 35.9974 11.1747 36.9649 11.5044Z" fill="black"/>
<path d="M50.3857 28.0031C50.4565 28.3169 50.5138 28.5933 50.5847 28.9071C50.5982 28.9447 50.6118 28.9822 50.6253 29.0198C51.6347 34.6381 50.1821 40.254 46.9864 44.8017C46.7913 45.0842 46.5587 45.3803 46.3637 45.6629C46.1551 45.9079 45.9465 46.1529 45.7379 46.3979C45.3207 46.8879 44.866 47.3914 44.3467 47.8334C42.7437 49.3878 40.8582 50.7472 38.7246 51.7718C38.2501 51.9854 37.8132 52.1856 37.3387 52.3992C36.4137 52.7755 35.4752 53.1142 34.4585 53.3538C34.3834 53.3809 34.3459 53.3945 34.2708 53.4216C34.1207 53.4758 33.957 53.4924 33.7692 53.5601L33.4554 53.631C32.0737 53.9175 30.6514 54.0913 29.1885 54.1526C28.6462 54.1786 28.1416 54.191 27.6233 54.1658C25.2741 54.1226 22.9155 53.7009 20.6874 52.9352C20.3944 52.8288 20.0639 52.7359 19.7573 52.5919C17.5396 51.7375 15.5139 50.4744 13.7687 48.813C11.2103 46.4268 9.22347 43.1554 8.1732 38.952C8.13256 38.8394 8.12945 38.7132 8.08881 38.6006C8.03462 38.4504 8.01796 38.2867 7.96377 38.1365C7.87627 37.6589 7.78878 37.1814 7.68773 36.6662C6.72328 30.8195 8.12359 25.6468 10.9397 21.5755C11.0972 21.3066 11.3058 21.0616 11.5008 20.779C12.6262 19.3121 13.932 17.9923 15.3805 16.8331C16.1356 16.2211 16.9552 15.6707 17.7885 15.1579C19.1442 14.3291 20.5916 13.6371 22.1308 13.0816C22.5813 12.919 23.0317 12.7564 23.4958 12.6314C23.6459 12.5772 23.7586 12.5365 23.9223 12.5199C24.1986 12.4626 24.4614 12.3678 24.7753 12.2969C24.9765 12.2667 25.1642 12.199 25.403 12.1552C25.6418 12.1115 25.9181 12.0542 26.1569 12.0104C27.6272 11.7344 29.1141 11.622 30.6042 11.6359C31.16 11.6475 31.6782 11.6726 32.2475 11.7217C35.019 11.9944 37.7278 12.7988 40.2239 14.1892C40.4793 14.3092 40.7483 14.4667 40.9797 14.6378C43.6081 16.2774 45.9757 18.6052 47.8572 21.7025C49.0455 23.8194 49.8929 25.9321 50.3857 28.0031Z" fill="#45B0E6"/>
<g opacity="0.5">
<path opacity="0.5" d="M50.3855 28.003C50.4564 28.3168 50.5137 28.5932 50.5845 28.907C47.9985 29.5009 45.4124 30.0948 42.8128 30.6511C31.2808 33.4976 19.7217 36.2691 8.17306 38.9519C8.11576 38.6755 8.02093 38.4128 7.95008 38.0989C8.50275 37.9843 9.04186 37.8322 9.59452 37.7176C23.1735 34.4293 36.766 31.1786 50.3855 28.003Z" fill="black"/>
<path opacity="0.5" d="M34.4209 53.3673C34.3458 53.3944 34.3083 53.408 34.2332 53.4351C34.083 53.4893 33.9193 53.5059 33.7316 53.5736L33.5304 53.6038L33.3449 52.7373C32.9636 51.0929 32.5958 49.486 32.2145 47.8415C32.1437 47.5276 32.0728 47.2138 31.9884 46.8624C31.9311 46.586 31.8498 46.3608 31.7925 46.0845C30.81 42.0687 29.8275 38.053 28.896 34.0613C28.8252 33.7475 28.7544 33.4336 28.6835 33.1197C27.8125 29.5305 26.979 25.9277 26.1079 22.3385C26.0506 22.0622 25.9933 21.7859 25.8985 21.5231C25.2067 18.5481 24.5149 15.573 23.8096 12.5605C24.0859 12.5032 24.3487 12.4084 24.6625 12.3375C25.4054 15.3365 26.0972 18.3115 26.8401 21.3105C26.8974 21.5869 26.9923 21.8497 27.036 22.0884C27.907 25.6777 28.7781 29.2669 29.6116 32.8696C29.6824 33.1835 29.7533 33.4974 29.8241 33.8112C30.7691 37.8405 31.7005 41.8322 32.6455 45.8615C32.7028 46.1378 32.7841 46.363 32.8414 46.6394C33.402 48.898 33.9114 51.1327 34.4209 53.3673Z" fill="black"/>
<path opacity="0.5" d="M46.313 45.6388C46.1044 45.8838 45.9093 46.1664 45.6872 46.3738C45.4588 46.329 45.268 46.2705 45.0532 46.2632C43.557 45.997 42.0263 45.8706 40.4852 45.8327C40.1442 45.8285 39.8032 45.8243 39.4622 45.82C37.2663 45.8488 35.039 46.1435 32.8929 46.6634C32.8179 46.6905 32.7428 46.7176 32.6542 46.7071C32.4529 46.7373 32.2277 46.8186 32.04 46.8864C30.7605 47.2208 29.5592 47.6544 28.385 48.163C28.0471 48.2849 27.7228 48.4444 27.436 48.5903C26.1252 49.1907 24.9061 49.9277 23.7006 50.7022C23.3523 50.9128 23.0551 51.1473 22.7203 51.3954C22.0132 51.9052 21.3437 52.4014 20.7013 52.9727C20.4083 52.8663 20.0778 52.7734 19.7712 52.6294C20.4752 51.9935 21.2063 51.4327 21.9749 50.8583C22.3096 50.6102 22.6444 50.3621 22.9927 50.1515C24.2222 49.3259 25.4924 48.6129 26.8647 47.9479C27.189 47.7884 27.4758 47.6425 27.8137 47.5206C29.1005 46.9713 30.452 46.4836 31.8441 46.1085C32.0693 46.0272 32.2706 45.997 32.4958 45.9157L32.6971 45.8855C34.9557 45.3249 37.3092 45.0272 39.6449 45.0328C39.9858 45.037 40.3268 45.0413 40.6678 45.0455C42.2465 45.0698 43.8418 45.2578 45.4131 45.4969C45.7165 45.5147 45.996 45.5835 46.313 45.6388Z" fill="black"/>
<path opacity="0.5" d="M40.982 14.7638C40.4761 15.2434 39.9192 15.6989 39.3623 16.1545C39.0276 16.4026 38.7064 16.6882 38.3956 16.8853C37.1556 17.7995 35.851 18.6522 34.4171 19.3818C34.1304 19.5278 33.8061 19.6872 33.5193 19.8332C32.0719 20.5252 30.5462 21.1183 28.9424 21.6122C28.3282 21.7914 27.714 21.9707 27.1238 22.0988C26.81 22.1697 26.5336 22.227 26.2198 22.2978C24.323 22.6853 22.3449 22.8476 20.4013 22.8702C20.0603 22.866 19.7193 22.8617 19.4159 22.8439C17.6975 22.7852 15.9896 22.6379 14.34 22.2997C13.9344 22.234 13.5288 22.1682 13.1472 22.0513C12.4111 21.8927 11.7125 21.7205 11.0003 21.5108C11.1954 21.2283 11.3664 20.9968 11.575 20.7518C12.1985 20.9511 12.846 21.0993 13.4425 21.2235C13.8481 21.2892 14.2297 21.4061 14.6353 21.4719C16.2713 21.7725 17.9041 21.9469 19.5339 21.9952C19.8749 21.9994 20.1783 22.0172 20.5193 22.0214C22.3367 22.002 24.1886 21.8428 26.0103 21.4824C26.3242 21.4115 26.6005 21.3542 26.9144 21.2834C27.5422 21.1417 28.1563 20.9624 28.7705 20.7832C30.2617 20.3299 31.6372 19.7911 32.9855 19.1772C33.3098 19.0177 33.5966 18.8718 33.9209 18.7123C35.2797 18.0098 36.5604 17.2082 37.7628 16.3075C38.0975 16.0594 38.3948 15.8248 38.7295 15.5767C39.2489 15.1347 39.7682 14.6927 40.2876 14.2507C40.444 14.4488 40.713 14.6063 40.982 14.7638Z" fill="black"/>
<path opacity="0.5" d="M29.1885 54.1525C28.6462 54.1785 28.1416 54.1909 27.6233 54.1658C25.8999 53.3876 24.2484 52.4561 22.7199 51.3954C22.451 51.2379 22.2195 51.0668 21.9745 50.8582C17.628 47.6323 14.29 43.321 12.605 37.9465C12.5101 37.6837 12.4393 37.3699 12.3444 37.1071C11.0399 32.3166 11.3662 27.1072 13.049 22.1296C13.1555 21.8366 13.2379 21.5947 13.3443 21.3017C13.9003 19.7857 14.5586 18.3177 15.3565 16.8841C16.1116 16.2721 16.9313 15.7217 17.7645 15.2089C16.4638 17.2482 15.3675 19.3835 14.5747 21.5366C14.4547 21.792 14.3858 22.0714 14.2794 22.3644C12.6414 27.1137 12.3464 32.0572 13.5864 36.7862C13.6437 37.0625 13.7521 37.3628 13.8094 37.6392C15.3892 42.8395 18.6938 46.8233 22.9412 50.1275C23.1727 50.2985 23.4177 50.5071 23.6491 50.6782C25.4226 51.9475 27.2304 53.0771 29.1885 54.1525Z" fill="black"/>
<path opacity="0.5" d="M34.2704 53.4215C34.1203 53.4757 33.9565 53.4923 33.7688 53.5601L33.455 53.6309C31.2864 52.2072 29.2753 50.5145 27.4728 48.5768C27.2653 48.3546 27.0714 48.17 26.9015 47.9343C24.018 44.6471 21.7497 40.7135 20.3763 36.2025C20.3627 36.1649 20.3492 36.1274 20.3356 36.0899C20.2273 35.7895 20.1564 35.4757 20.0856 35.1618C19.0415 31.2107 18.8369 26.9991 19.3789 22.8575C19.4102 22.5916 19.4791 22.3122 19.5104 22.0463C19.9406 19.0058 20.8379 15.9665 22.0688 13.1461C22.5193 12.9836 22.9698 12.821 23.4338 12.6959C21.9672 15.6862 20.9844 18.8413 20.4582 22.0861C20.3893 22.3656 20.358 22.6315 20.3267 22.8973C19.7441 26.9263 19.9456 31.0117 20.9896 34.9628C21.0605 35.2767 21.1689 35.577 21.2397 35.8909C21.2533 35.9284 21.2668 35.9659 21.2804 36.0035C22.6027 40.4906 24.8783 44.2093 27.8129 47.5205C28.0204 47.7427 28.1767 47.9408 28.3842 48.163C29.9011 49.7795 31.5545 51.3042 33.3446 52.7373C33.6782 52.9563 33.9743 53.1889 34.2704 53.4215Z" fill="black"/>
<path opacity="0.5" d="M46.9491 44.8151C46.7541 45.0976 46.5215 45.3937 46.3265 45.6763C46.1179 45.9213 45.9228 46.2038 45.7007 46.4113C45.2835 46.9013 44.8288 47.4048 44.347 47.8333C44.6244 47.3089 44.8644 46.798 45.0532 46.2631C45.1731 46.0076 45.2796 45.7147 45.3995 45.4592C47.4578 40.3461 48.0438 34.9157 46.7434 29.7842C46.6861 29.5079 46.6153 29.194 46.5205 28.9313C46.4798 28.8186 46.4767 28.6925 46.4225 28.5423C44.9678 23.806 42.0854 20.0516 38.3593 16.8988C38.1278 16.7277 37.9204 16.5056 37.6889 16.3345C35.5381 14.6074 33.1276 13.1012 30.543 11.7004C31.0987 11.712 31.617 11.7371 32.1863 11.7862C34.5093 12.8148 36.6612 14.0748 38.6421 15.5662C38.8735 15.7373 39.105 15.9083 39.35 16.1169C43.1887 19.2291 46.0909 23.2734 47.6509 28.1838C47.6916 28.2965 47.7457 28.4466 47.7488 28.5728C47.8572 28.8731 47.9145 29.1494 47.9854 29.4633C49.2315 34.4446 48.7686 39.7457 46.9491 44.8151Z" fill="black"/>
<path opacity="0.5" d="M40.291 31.3065C41.4226 35.7351 41.4759 40.4681 40.6669 45.0454C40.5981 45.3249 40.5667 45.5908 40.4979 45.8702C40.0804 47.8878 39.4857 49.8845 38.7377 51.8092C38.2632 52.0229 37.7887 52.2366 37.3518 52.4367C38.2844 50.318 39.0126 48.1034 39.5125 45.844C39.5814 45.5645 39.6127 45.2986 39.6816 45.0192C40.5312 40.5544 40.481 35.9477 39.4005 31.543C39.3432 31.2667 39.2724 30.9528 39.1775 30.69C39.1609 30.5263 39.1067 30.3761 39.0525 30.226C37.8823 26.278 35.9434 22.9044 33.5093 19.9218C33.3393 19.6861 33.1454 19.5015 32.9755 19.2658C30.779 16.7066 28.2101 14.409 25.3545 12.2573C25.5933 12.2135 25.8697 12.1562 26.1085 12.1125C28.9923 13.8721 31.6227 16.1051 33.8598 18.777C34.0297 19.0126 34.2237 19.1972 34.3936 19.4329C36.8038 22.4667 38.7217 26.0175 39.943 29.9895C39.9972 30.1396 40.0514 30.2898 40.0681 30.4535C40.1629 30.7163 40.2202 30.9926 40.291 31.3065Z" fill="black"/>
</g>
<path opacity="0.5" d="M50.5882 29.0332C51.5976 34.6516 50.145 40.2674 46.9493 44.8151C46.7542 45.0977 46.5216 45.3938 46.3266 45.6763C46.118 45.9213 45.9094 46.1663 45.7008 46.4113C45.2836 46.9013 44.8289 47.4049 44.3096 47.8469C42.7066 49.4013 40.8211 50.7606 38.6875 51.7852C38.213 51.9989 37.7761 52.199 37.3016 52.4127C36.3766 52.7889 35.4381 53.1276 34.4214 53.3672C34.3463 53.3943 34.3088 53.4079 34.2337 53.435C34.0836 53.4892 33.9199 53.5058 33.7321 53.5736L33.4183 53.6444C32.0366 53.9309 30.6143 54.1048 29.1514 54.166C28.6091 54.192 28.1045 54.2044 27.5862 54.1793C25.237 54.1361 22.8784 53.7144 20.6503 52.9486C20.3573 52.8422 20.0268 52.7493 19.7202 52.6054C17.5025 51.7509 15.4768 50.4878 13.7316 48.8264C11.1732 46.4402 9.18637 43.1688 8.13611 38.9654C8.09546 38.8528 8.09236 38.7266 8.05171 38.614C12.0894 42.6303 17.2212 45.4456 23.0687 45.5416C34.3478 45.7564 45.8409 39.2749 50.5882 29.0332Z" fill="#1E8BC1"/>
<path d="M26.433 16.5358C25.722 15.859 24.8264 15.376 23.9401 15.2716C22.4199 15.0565 20.8807 15.612 19.4844 16.328C17.1286 17.5601 15.0376 19.2906 13.348 21.4279C12.0996 23.024 11.0722 24.8799 10.9341 26.9664C10.6476 31.2279 14.3218 33.2963 17.8297 32.2C20.8736 31.2288 23.4746 28.6778 25.5094 26.2038C26.9185 24.4648 28.3766 22.1565 28.1404 19.7383C28.0103 18.5548 27.338 17.3973 26.433 16.5358Z" fill="white"/>
</svg>
