<svg width="48" height="53" viewBox="0 0 48 53" fill="none" xmlns="http://www.w3.org/2000/svg">
<path d="M0.0316589 18.307C0.0316589 18.307 0.653427 1.67467 15.8868 0.120249C29.7212 -1.27873 33.6849 9.8354 33.8404 17.5298C34.0735 28.4885 26.69 37.3487 29.3326 37.271C31.9751 37.1933 40.5244 29.6543 45.0322 33.4626C49.5401 37.271 46.8198 41.0016 39.2031 44.4991C31.5865 47.9965 19.0734 54.3697 16.5863 52.7375C14.0992 51.1054 13.3997 45.9758 18.2961 36.5715C23.1926 27.1672 26.0683 13.4106 17.7521 12.167C11.6898 11.3121 12.7779 20.6386 9.20276 23.2812C6.09391 25.6128 -0.512389 24.7579 0.0316589 18.307Z" fill="#E8B031"/>
<path d="M11.7677 2.91821C11.7677 2.91821 19.4621 -0.890126 25.369 3.6177C32.597 9.05819 32.053 14.8096 31.5867 17.0635C31.1203 19.3174 30.8094 9.21363 24.9803 5.01668C19.1513 0.81974 14.0217 3.53998 13.2444 3.77314C10.9128 4.23947 10.3688 3.77314 11.7677 2.91821Z" fill="#FFFAF0"/>
<path d="M8.50261 5.32754C8.50261 5.32754 10.1348 3.30679 10.8342 4.23945C11.6115 5.1721 7.41452 6.41564 8.50261 5.32754Z" fill="#FFFAF0"/>
</svg>
