<svg width="36" height="27" viewBox="0 0 36 27" fill="none" xmlns="http://www.w3.org/2000/svg">
<path d="M5.31477 0.064C5.31477 0.064 30.9148 -0.336 33.4148 0.864C35.9148 2.064 37.5148 10.164 29.3148 10.764C21.1148 11.264 6.11477 10.064 4.01477 10.064C0.714767 10.064 -2.88523 1.564 5.31477 0.064Z" fill="#CF472A"/>
<path d="M5.31461 15.764C5.31461 15.764 30.9146 15.364 33.4146 16.564C35.9146 17.764 37.5146 25.864 29.3146 26.464C21.1146 27.064 6.11461 25.664 4.01461 25.764C-0.185386 25.964 -2.88539 17.264 5.31461 15.764Z" fill="#CF472A"/>
<path d="M12.3144 0.86397C12.3144 0.86397 29.1144 0.66397 29.4144 1.26397C29.7144 1.86397 23.9144 2.16397 18.4144 1.96397C12.9144 1.76397 9.01439 1.56397 12.3144 0.86397Z" fill="#FFFAF0"/>
<path d="M31.4144 1.16397C31.4144 1.16397 29.8144 1.36397 30.0144 1.76397C30.2144 2.16397 32.8144 2.06397 32.9144 1.76397C33.0144 1.46397 32.1144 0.96397 31.4144 1.16397Z" fill="#FFFAF0"/>
<path d="M12.3144 16.564C12.3144 16.564 29.1144 16.364 29.4144 16.964C29.7144 17.564 23.9144 17.864 18.4144 17.664C12.9144 17.464 9.01439 17.264 12.3144 16.564Z" fill="#FFFAF0"/>
<path d="M31.4144 16.864C31.4144 16.864 29.8144 17.064 30.0144 17.464C30.2144 17.764 32.8144 17.764 32.9144 17.464C33.0144 17.064 32.1144 16.664 31.4144 16.864Z" fill="#FFFAF0"/>
</svg>
