<svg width="49" height="56" viewBox="0 0 49 56" fill="none" xmlns="http://www.w3.org/2000/svg">
<path d="M31.3381 16.3414C31.3381 16.3414 14.2456 8.65394 13.9185 5.628C13.5096 2.60207 13.9185 -3.94049 29.2117 3.25633C44.505 10.4531 50.2297 11.5163 48.3487 18.3042C46.4677 25.0921 34.1187 27.7909 34.1187 27.7909C34.1187 27.7909 42.2151 36.0509 36.7357 45.8647C31.1745 55.7603 20.134 58.8681 9.5023 53.1433C-2.02896 46.9279 -2.19253 31.144 4.35003 30.4897C10.8926 29.8355 12.6918 42.9206 18.6619 43.0024C24.632 43.0841 28.1486 36.5416 24.223 34.0881C20.2975 31.5529 8.84804 27.9545 15.3906 24.5196C21.9332 21.0848 31.3381 16.3414 31.3381 16.3414Z" fill="#477E84"/>
<path d="M33.2194 29.6719C33.2194 29.6719 37.3903 33.3521 36.8178 39.2404C36.0818 46.3554 32.6469 49.136 30.9295 49.7085C29.2121 50.2809 34.9368 47.0097 35.5093 39.3222C35.9182 33.5974 33.383 31.3075 32.9741 30.8168C31.5838 29.3448 32.0745 29.0176 33.2194 29.6719Z" fill="#FFFAF0"/>
<path d="M36.3271 7.83606C36.3271 7.83606 45.5684 10.6984 47.3676 14.0515C49.1668 17.4045 46.3045 21.4119 42.6243 23.0475C38.9441 24.7649 43.0332 21.6572 44.9142 19.858C46.7952 18.0588 47.7765 15.0329 45.2413 13.0701C44.0964 12.3341 33.8736 8.16319 36.3271 7.83606Z" fill="#FFFAF0"/>
<path d="M33.5463 6.11868C33.5463 6.11868 35.509 6.77294 35.0183 7.50897C34.5277 8.24501 30.5203 5.21908 33.5463 6.11868Z" fill="#FFFAF0"/>
</svg>
