<svg id="Component_105_1" data-name="Component 105 – 1" xmlns="http://www.w3.org/2000/svg" xmlns:xlink="http://www.w3.org/1999/xlink" width="341" height="165" viewBox="0 0 341 165">
  <defs>
    <clipPath id="clip-path">
      <rect id="Rectangle_1613" data-name="Rectangle 1613" width="341" height="165" rx="16" transform="translate(744 1040)" fill="#596ae6"/>
    </clipPath>
  </defs>
  <g id="Group_1816" data-name="Group 1816" transform="translate(-744 -1040)" clip-path="url(#clip-path)">
    <g id="Rectangle_1612" data-name="Rectangle 1612" transform="translate(732 1019)" fill="#596ae6" stroke="#707070" stroke-width="1">
      <rect width="361" height="191" stroke="none"/>
      <rect x="0.5" y="0.5" width="360" height="190" fill="none"/>
    </g>
    <ellipse id="Ellipse_243" data-name="Ellipse 243" cx="181" cy="174.5" rx="181" ry="174.5" transform="translate(604 932)" fill="#2e398b" opacity="0.213"/>
  </g>
  <text id="Accounts" transform="translate(220 140)" fill="#fff" font-size="19" font-family="WorkSans-Bold, Work Sans" font-weight="700" letter-spacing="-0.009em"><tspan x="0" y="0">Accounts</tspan></text>
  <g id="accounting" transform="translate(32.861 23.863)">
    <path id="Path_4579" data-name="Path 4579" d="M115.287,288a11.287,11.287,0,1,0,11.287,11.287A11.287,11.287,0,0,0,115.287,288Zm0,20.316a9.029,9.029,0,1,1,9.029-9.029A9.029,9.029,0,0,1,115.287,308.316Zm0,0" transform="translate(-89.327 -247.368)" fill="#fff"/>
    <path id="Path_4580" data-name="Path 4580" d="M156.515,323.386c1.378,0,2.257.668,2.257,1.129h2.257c0-1.6-1.421-2.9-3.386-3.273V320h-2.257v1.242c-1.965.368-3.386,1.667-3.386,3.273,0,1.9,1.983,3.386,4.515,3.386,1.378,0,2.257.668,2.257,1.129s-.879,1.129-2.257,1.129-2.257-.668-2.257-1.129H152c0,1.6,1.421,2.9,3.386,3.273v1.242h2.257V332.3c1.965-.368,3.386-1.667,3.386-3.273,0-1.9-1.983-3.386-4.515-3.386-1.378,0-2.257-.668-2.257-1.129S155.136,323.386,156.515,323.386Zm0,0" transform="translate(-130.555 -274.853)" fill="#fff"/>
    <path id="Path_4581" data-name="Path 4581" d="M57.562,65.463h-47.4V38.375H28.217A3.386,3.386,0,0,0,31.6,34.989V6.772H44.018V20.316H57.562v15.8h2.257V18.72L45.614,4.515H31.6V3.386A3.386,3.386,0,0,0,28.217,0H3.386A3.386,3.386,0,0,0,0,3.386v31.6a3.386,3.386,0,0,0,3.386,3.386H7.9V67.72H59.819v-15.8H57.562ZM46.275,8.368l9.691,9.691H46.275ZM2.257,34.989V3.386A1.129,1.129,0,0,1,3.386,2.257H28.217a1.129,1.129,0,0,1,1.129,1.129v31.6a1.129,1.129,0,0,1-1.129,1.129H3.386A1.129,1.129,0,0,1,2.257,34.989Zm0,0" fill="#fff"/>
    <path id="Path_4582" data-name="Path 4582" d="M256,200h2.257v2.257H256Zm0,0" transform="translate(-219.883 -171.783)" fill="#fff"/>
    <path id="Path_4583" data-name="Path 4583" d="M288,200h13.544v2.257H288Zm0,0" transform="translate(-247.368 -171.783)" fill="#fff"/>
    <path id="Path_4584" data-name="Path 4584" d="M256,168h2.257v2.257H256Zm0,0" transform="translate(-219.883 -144.298)" fill="#fff"/>
    <path id="Path_4585" data-name="Path 4585" d="M288,168h13.544v2.257H288Zm0,0" transform="translate(-247.368 -144.298)" fill="#fff"/>
    <path id="Path_4586" data-name="Path 4586" d="M256,232h2.257v2.257H256Zm0,0" transform="translate(-219.883 -199.269)" fill="#fff"/>
    <path id="Path_4587" data-name="Path 4587" d="M288,232h13.544v2.257H288Zm0,0" transform="translate(-247.368 -199.269)" fill="#fff"/>
    <path id="Path_4588" data-name="Path 4588" d="M256,264h2.257v2.257H256Zm0,0" transform="translate(-219.883 -226.754)" fill="#fff"/>
    <path id="Path_4589" data-name="Path 4589" d="M288,264h13.544v2.257H288Zm0,0" transform="translate(-247.368 -226.754)" fill="#fff"/>
    <path id="Path_4590" data-name="Path 4590" d="M48.831,24H24v7.9H48.831Zm-2.257,5.643H26.257V26.257H46.573Zm0,0" transform="translate(-20.614 -20.614)" fill="#fff"/>
    <path id="Path_4591" data-name="Path 4591" d="M36.515,88H34.257A2.257,2.257,0,0,0,32,90.257v2.257a2.257,2.257,0,0,0,2.257,2.257h2.257a2.257,2.257,0,0,0,2.257-2.257V90.257A2.257,2.257,0,0,0,36.515,88Zm-2.257,4.515V90.257h2.257v2.257Zm0,0" transform="translate(-27.485 -75.585)" fill="#fff"/>
    <path id="Path_4592" data-name="Path 4592" d="M92.515,88H90.257A2.257,2.257,0,0,0,88,90.257v2.257a2.257,2.257,0,0,0,2.257,2.257h2.257a2.257,2.257,0,0,0,2.257-2.257V90.257A2.257,2.257,0,0,0,92.515,88Zm-2.257,4.515V90.257h2.257v2.257Zm0,0" transform="translate(-75.585 -75.585)" fill="#fff"/>
    <path id="Path_4593" data-name="Path 4593" d="M148.515,88h-2.257A2.257,2.257,0,0,0,144,90.257v2.257a2.257,2.257,0,0,0,2.257,2.257h2.257a2.257,2.257,0,0,0,2.257-2.257V90.257A2.257,2.257,0,0,0,148.515,88Zm-2.257,4.515V90.257h2.257v2.257Zm0,0" transform="translate(-123.684 -75.585)" fill="#fff"/>
    <path id="Path_4594" data-name="Path 4594" d="M36.515,144H34.257A2.257,2.257,0,0,0,32,146.257v2.257a2.257,2.257,0,0,0,2.257,2.257h2.257a2.257,2.257,0,0,0,2.257-2.257v-2.257A2.257,2.257,0,0,0,36.515,144Zm-2.257,4.515v-2.257h2.257v2.257Zm0,0" transform="translate(-27.485 -123.684)" fill="#fff"/>
    <path id="Path_4595" data-name="Path 4595" d="M92.515,144H90.257A2.257,2.257,0,0,0,88,146.257v2.257a2.257,2.257,0,0,0,2.257,2.257h2.257a2.257,2.257,0,0,0,2.257-2.257v-2.257A2.257,2.257,0,0,0,92.515,144Zm-2.257,4.515v-2.257h2.257v2.257Zm0,0" transform="translate(-75.585 -123.684)" fill="#fff"/>
    <path id="Path_4596" data-name="Path 4596" d="M148.515,144h-2.257A2.257,2.257,0,0,0,144,146.257v2.257a2.257,2.257,0,0,0,2.257,2.257h2.257a2.257,2.257,0,0,0,2.257-2.257v-2.257A2.257,2.257,0,0,0,148.515,144Zm-2.257,4.515v-2.257h2.257v2.257Zm0,0" transform="translate(-123.684 -123.684)" fill="#fff"/>
    <path id="Path_4597" data-name="Path 4597" d="M36.515,200H34.257A2.257,2.257,0,0,0,32,202.257v2.257a2.257,2.257,0,0,0,2.257,2.257h2.257a2.257,2.257,0,0,0,2.257-2.257v-2.257A2.257,2.257,0,0,0,36.515,200Zm-2.257,4.515v-2.257h2.257v2.257Zm0,0" transform="translate(-27.485 -171.783)" fill="#fff"/>
    <path id="Path_4598" data-name="Path 4598" d="M92.515,200H90.257A2.257,2.257,0,0,0,88,202.257v2.257a2.257,2.257,0,0,0,2.257,2.257h2.257a2.257,2.257,0,0,0,2.257-2.257v-2.257A2.257,2.257,0,0,0,92.515,200Zm-2.257,4.515v-2.257h2.257v2.257Zm0,0" transform="translate(-75.585 -171.783)" fill="#fff"/>
    <path id="Path_4599" data-name="Path 4599" d="M148.515,200h-2.257A2.257,2.257,0,0,0,144,202.257v2.257a2.257,2.257,0,0,0,2.257,2.257h2.257a2.257,2.257,0,0,0,2.257-2.257v-2.257A2.257,2.257,0,0,0,148.515,200Zm-2.257,4.515v-2.257h2.257v2.257Zm0,0" transform="translate(-123.684 -171.783)" fill="#fff"/>
    <path id="Path_4600" data-name="Path 4600" d="M307.2,249.425a3.466,3.466,0,0,0-4.787,0l-19.349,19.348a1.141,1.141,0,0,0-.226.326l-2.725,5.917a1.129,1.129,0,0,0,1.5,1.5l5.917-2.725a1.13,1.13,0,0,0,.326-.226L307.2,254.214A3.385,3.385,0,0,0,307.2,249.425Zm-20.8,22.4-2.957,1.362,1.362-2.957L299.233,255.8l1.6,1.6Zm16.027-16.027-1.6-1.6.79-.79,1.6,1.6Zm3.183-3.183-.8.8-1.6-1.6.8-.8a1.154,1.154,0,0,1,1.595,0A1.129,1.129,0,0,1,305.611,252.612Zm0,0" transform="translate(-240.508 -213.411)" fill="#fff"/>
  </g>
</svg>
