<svg xmlns="http://www.w3.org/2000/svg" xmlns:xlink="http://www.w3.org/1999/xlink" viewBox="0 0 356.87 187.26"><defs><style>.cls-1{fill:url(#linear-gradient);}.cls-2{isolation:isolate;}.cls-3{clip-path:url(#clip-path);}.cls-4{opacity:0.27;}.cls-104,.cls-111,.cls-118,.cls-125,.cls-132,.cls-138,.cls-140,.cls-147,.cls-154,.cls-161,.cls-168,.cls-175,.cls-182,.cls-189,.cls-4,.cls-59,.cls-61,.cls-7,.cls-79{mix-blend-mode:multiply;}.cls-5{fill:url(#linear-gradient-4);}.cls-35,.cls-36,.cls-37,.cls-38,.cls-39,.cls-40,.cls-41,.cls-42,.cls-43,.cls-44,.cls-45,.cls-46,.cls-47,.cls-48,.cls-49,.cls-50,.cls-51,.cls-52,.cls-53,.cls-54,.cls-55,.cls-56,.cls-6,.cls-8{fill:#fff;}.cls-35,.cls-8{opacity:0;}.cls-9{fill:#faf9f9;}.cls-36,.cls-82,.cls-9{opacity:0.05;}.cls-10{fill:#f4f4f3;}.cls-10,.cls-37,.cls-83{opacity:0.1;}.cls-11{fill:#efeeee;}.cls-11,.cls-38,.cls-84{opacity:0.14;}.cls-12{fill:#e9e8e8;}.cls-12,.cls-39,.cls-85{opacity:0.19;}.cls-13{fill:#e4e3e2;}.cls-13,.cls-40,.cls-86{opacity:0.24;}.cls-14{fill:#dfdddc;}.cls-14,.cls-41,.cls-87{opacity:0.29;}.cls-15{fill:#d9d7d6;}.cls-15,.cls-42,.cls-88{opacity:0.33;}.cls-16{fill:#d4d2d1;}.cls-16,.cls-43,.cls-89{opacity:0.38;}.cls-17{fill:#cfcccb;}.cls-17,.cls-44,.cls-90{opacity:0.43;}.cls-18{fill:#c9c6c5;}.cls-18,.cls-45,.cls-91{opacity:0.48;}.cls-19{fill:#c4c1bf;}.cls-19,.cls-46,.cls-92{opacity:0.52;}.cls-20{fill:#bebbb9;}.cls-20,.cls-47,.cls-93{opacity:0.57;}.cls-21{fill:#b9b5b3;}.cls-21,.cls-48,.cls-94{opacity:0.62;}.cls-22{fill:#b4b0ae;}.cls-22,.cls-49,.cls-95{opacity:0.67;}.cls-23{fill:#aeaaa8;}.cls-23,.cls-50,.cls-96{opacity:0.71;}.cls-24{fill:#a9a4a2;}.cls-24,.cls-51,.cls-97{opacity:0.76;}.cls-25{fill:#a49f9c;}.cls-25,.cls-52,.cls-98{opacity:0.81;}.cls-26{fill:#9e9996;}.cls-26,.cls-53,.cls-99{opacity:0.86;}.cls-27{fill:#999391;}.cls-100,.cls-27,.cls-54{opacity:0.9;}.cls-28{fill:#938e8b;}.cls-101,.cls-28,.cls-55{opacity:0.95;}.cls-29{fill:#8e8885;}.cls-30{fill:url(#linear-gradient-5);}.cls-31{fill:url(#linear-gradient-6);}.cls-32{opacity:0.45;fill:url(#linear-gradient-7);}.cls-32,.cls-33,.cls-35,.cls-36,.cls-37,.cls-38,.cls-39,.cls-40,.cls-41,.cls-42,.cls-43,.cls-44,.cls-45,.cls-46,.cls-47,.cls-48,.cls-49,.cls-50,.cls-51,.cls-52,.cls-53,.cls-54,.cls-55,.cls-56{mix-blend-mode:screen;}.cls-33{opacity:0.49;fill:url(#linear-gradient-8);}.cls-34{mix-blend-mode:soft-light;}.cls-57{fill:url(#linear-gradient-9);}.cls-58,.cls-59{fill:#acbcbb;}.cls-59,.cls-60,.cls-61,.cls-63,.cls-64,.cls-65,.cls-68,.cls-70,.cls-71,.cls-73,.cls-75{fill-rule:evenodd;}.cls-60{fill:#6e737a;}.cls-61{fill:#808988;}.cls-62,.cls-63{fill:#7d7d7d;}.cls-64{fill:#f7aa2f;}.cls-65,.cls-66{fill:#839da5;}.cls-67,.cls-68{fill:#030303;}.cls-69,.cls-70{fill:#404040;}.cls-71{fill:#e2691b;}.cls-72,.cls-73{fill:#648187;}.cls-74,.cls-75{fill:#dedede;}.cls-76{fill:url(#linear-gradient-10);}.cls-77,.cls-79{fill:#a3a2a2;}.cls-78{fill:#d3d2d1;}.cls-80{fill:#dbdbdb;}.cls-81{fill:#bfbebe;}.cls-82{fill:#fafafa;}.cls-83{fill:#f4f4f4;}.cls-84{fill:#efefef;}.cls-85{fill:#e9e9e9;}.cls-86{fill:#e4e4e4;}.cls-87{fill:#dfdede;}.cls-88{fill:#d9d9d9;}.cls-89{fill:#d4d4d4;}.cls-90{fill:#cfcece;}.cls-91{fill:#c9c9c9;}.cls-92{fill:#c4c3c3;}.cls-93{fill:#bebebe;}.cls-94{fill:#b9b8b8;}.cls-95{fill:#b4b3b3;}.cls-96{fill:#aeaeae;}.cls-97{fill:#a9a8a8;}.cls-98{fill:#a4a3a3;}.cls-99{fill:#9e9d9d;}.cls-100{fill:#999898;}.cls-101{fill:#939292;}.cls-102{fill:#8e8d8d;}.cls-103{fill:url(#linear-gradient-11);}.cls-104{fill:url(#linear-gradient-12);}.cls-105{fill:url(#linear-gradient-13);}.cls-106{fill:url(#linear-gradient-14);}.cls-107,.cls-114,.cls-121,.cls-128,.cls-135,.cls-143,.cls-150,.cls-157,.cls-164,.cls-171,.cls-178,.cls-185,.cls-192{opacity:0.9;}.cls-107{fill:url(#linear-gradient-15);}.cls-108{fill:url(#linear-gradient-16);}.cls-109{fill:url(#linear-gradient-17);}.cls-110{fill:url(#linear-gradient-18);}.cls-111{fill:url(#linear-gradient-19);}.cls-112{fill:url(#linear-gradient-20);}.cls-113{fill:url(#linear-gradient-21);}.cls-114{fill:url(#linear-gradient-22);}.cls-115{fill:url(#linear-gradient-23);}.cls-116{fill:url(#linear-gradient-24);}.cls-117{fill:url(#linear-gradient-25);}.cls-118{fill:url(#linear-gradient-26);}.cls-119{fill:url(#linear-gradient-27);}.cls-120{fill:url(#linear-gradient-28);}.cls-121{fill:url(#linear-gradient-29);}.cls-122{fill:url(#linear-gradient-30);}.cls-123{fill:url(#linear-gradient-31);}.cls-124{fill:url(#linear-gradient-32);}.cls-125{fill:url(#linear-gradient-33);}.cls-126{fill:url(#linear-gradient-34);}.cls-127{fill:url(#linear-gradient-35);}.cls-128{fill:url(#linear-gradient-36);}.cls-129{fill:url(#linear-gradient-37);}.cls-130{fill:url(#linear-gradient-38);}.cls-131{fill:url(#linear-gradient-39);}.cls-132{fill:url(#linear-gradient-40);}.cls-133{fill:url(#linear-gradient-41);}.cls-134{fill:url(#linear-gradient-42);}.cls-135{fill:url(#linear-gradient-43);}.cls-136{fill:url(#linear-gradient-44);}.cls-137{fill:url(#linear-gradient-45);}.cls-138{fill:#5c2700;opacity:0.4;}.cls-139{fill:url(#linear-gradient-46);}.cls-140{fill:url(#linear-gradient-47);}.cls-141{fill:url(#linear-gradient-48);}.cls-142{fill:url(#linear-gradient-49);}.cls-143{fill:url(#linear-gradient-50);}.cls-144{fill:url(#linear-gradient-51);}.cls-145{fill:url(#linear-gradient-52);}.cls-146{fill:url(#linear-gradient-53);}.cls-147{fill:url(#linear-gradient-54);}.cls-148{fill:url(#linear-gradient-55);}.cls-149{fill:url(#linear-gradient-56);}.cls-150{fill:url(#linear-gradient-57);}.cls-151{fill:url(#linear-gradient-58);}.cls-152{fill:url(#linear-gradient-59);}.cls-153{fill:url(#linear-gradient-60);}.cls-154{fill:url(#linear-gradient-61);}.cls-155{fill:url(#linear-gradient-62);}.cls-156{fill:url(#linear-gradient-63);}.cls-157{fill:url(#linear-gradient-64);}.cls-158{fill:url(#linear-gradient-65);}.cls-159{fill:url(#linear-gradient-66);}.cls-160{fill:url(#linear-gradient-67);}.cls-161{fill:url(#linear-gradient-68);}.cls-162{fill:url(#linear-gradient-69);}.cls-163{fill:url(#linear-gradient-70);}.cls-164{fill:url(#linear-gradient-71);}.cls-165{fill:url(#linear-gradient-72);}.cls-166{fill:url(#linear-gradient-73);}.cls-167{fill:url(#linear-gradient-74);}.cls-168{fill:url(#linear-gradient-75);}.cls-169{fill:url(#linear-gradient-76);}.cls-170{fill:url(#linear-gradient-77);}.cls-171{fill:url(#linear-gradient-78);}.cls-172{fill:url(#linear-gradient-79);}.cls-173{fill:url(#linear-gradient-80);}.cls-174{fill:url(#linear-gradient-81);}.cls-175{fill:url(#linear-gradient-82);}.cls-176{fill:url(#linear-gradient-83);}.cls-177{fill:url(#linear-gradient-84);}.cls-178{fill:url(#linear-gradient-85);}.cls-179{fill:url(#linear-gradient-86);}.cls-180{fill:url(#linear-gradient-87);}.cls-181{fill:url(#linear-gradient-88);}.cls-182{fill:url(#linear-gradient-89);}.cls-183{fill:url(#linear-gradient-90);}.cls-184{fill:url(#linear-gradient-91);}.cls-185{fill:url(#linear-gradient-92);}.cls-186{fill:url(#linear-gradient-93);}.cls-187{fill:url(#linear-gradient-94);}.cls-188{fill:url(#linear-gradient-95);}.cls-189{fill:url(#linear-gradient-96);}.cls-190{fill:url(#linear-gradient-97);}.cls-191{fill:url(#linear-gradient-98);}.cls-192{fill:url(#linear-gradient-99);}.cls-193{fill:url(#linear-gradient-100);}.cls-194{fill:url(#linear-gradient-101);}</style><linearGradient id="linear-gradient" x1="63.87" y1="104.01" x2="356.87" y2="104.01" gradientUnits="userSpaceOnUse"><stop offset="0" stop-color="#fee767"/><stop offset="0.21" stop-color="#f4d656"/><stop offset="0.63" stop-color="#dbac2c"/><stop offset="1" stop-color="#c28000"/></linearGradient><clipPath id="clip-path"><rect class="cls-1" x="63.87" y="42.51" width="293" height="123" rx="11.19"/></clipPath><linearGradient id="linear-gradient-4" x1="0" y1="93.63" x2="202.41" y2="93.63" xlink:href="#linear-gradient"/><linearGradient id="linear-gradient-5" x1="150.35" y1="71.63" x2="92.8" y2="129.18" gradientUnits="userSpaceOnUse"><stop offset="0" stop-color="#080808"/><stop offset="0.59"/><stop offset="0.65"/><stop offset="0.79" stop-color="#070707"/><stop offset="1" stop-color="#1a1a1a"/></linearGradient><linearGradient id="linear-gradient-6" x1="149.65" y1="72.33" x2="93.5" y2="128.48" gradientUnits="userSpaceOnUse"><stop offset="0" stop-color="#242424"/><stop offset="0.48" stop-color="#141414"/><stop offset="0.74" stop-color="#141414"/><stop offset="0.84" stop-color="#1b1b1b"/><stop offset="0.97" stop-color="#2f2f2f"/><stop offset="1" stop-color="#333"/></linearGradient><linearGradient id="linear-gradient-7" x1="103.88" y1="112.77" x2="120.13" y2="136.17" gradientUnits="userSpaceOnUse"><stop offset="0"/><stop offset="0.03" stop-color="#090909"/><stop offset="0.08" stop-color="#212121"/><stop offset="0.14" stop-color="#494949"/><stop offset="0.22" stop-color="gray"/><stop offset="0.3" stop-color="#c6c6c6"/><stop offset="0.36" stop-color="#fff"/><stop offset="0.39" stop-color="#f7f7f7"/><stop offset="0.44" stop-color="#e0e0e0"/><stop offset="0.5" stop-color="#bbb"/><stop offset="0.58" stop-color="#878787"/><stop offset="0.66" stop-color="#464646"/><stop offset="0.74"/></linearGradient><linearGradient id="linear-gradient-8" x1="126.15" y1="74.12" x2="139.81" y2="91.41" xlink:href="#linear-gradient-7"/><linearGradient id="linear-gradient-9" x1="140.93" y1="62.77" x2="101.19" y2="98.93" gradientUnits="userSpaceOnUse"><stop offset="0" stop-color="#fff"/><stop offset="1" stop-color="#c4c4c4"/></linearGradient><linearGradient id="linear-gradient-10" x1="66.6" y1="69.96" x2="60.69" y2="78.1" gradientTransform="translate(66.57)" gradientUnits="userSpaceOnUse"><stop offset="0.18" stop-color="#fff"/><stop offset="0.83" stop-color="#d9d9d9"/></linearGradient><linearGradient id="linear-gradient-11" x1="126.35" y1="137.19" x2="143.82" y2="137.83" gradientUnits="userSpaceOnUse"><stop offset="0" stop-color="#fee767"/><stop offset="0.02" stop-color="#f1d657"/><stop offset="0.07" stop-color="#cfac2c"/><stop offset="0.11" stop-color="#ab7f00"/><stop offset="0.15" stop-color="#b3890a"/><stop offset="0.21" stop-color="#caa426"/><stop offset="0.26" stop-color="#dfbd41"/><stop offset="0.47" stop-color="#7e4003"/><stop offset="0.56" stop-color="#9a4e00"/><stop offset="0.88" stop-color="#dfbd41"/><stop offset="0.91" stop-color="#ddb83f"/><stop offset="0.94" stop-color="#d8a93a"/><stop offset="0.97" stop-color="#d09131"/><stop offset="1" stop-color="#c87728"/></linearGradient><linearGradient id="linear-gradient-12" x1="126.4" y1="138.37" x2="143.79" y2="138.99" xlink:href="#linear-gradient-11"/><linearGradient id="linear-gradient-13" x1="140.38" y1="140.46" x2="126.63" y2="121.23" gradientUnits="userSpaceOnUse"><stop offset="0.13" stop-color="#feffb8"/><stop offset="0.26" stop-color="#fef2c2"/><stop offset="0.54" stop-color="#dea803"/><stop offset="0.77" stop-color="#c28000"/><stop offset="1" stop-color="#dba727"/></linearGradient><linearGradient id="linear-gradient-14" x1="140.3" y1="-1401.94" x2="127.21" y2="-1420.23" gradientTransform="matrix(1, 0, 0, -1, 0, -1273.36)" gradientUnits="userSpaceOnUse"><stop offset="0" stop-color="#fee767"/><stop offset="0.02" stop-color="#f1d657"/><stop offset="0.07" stop-color="#cfac2c"/><stop offset="0.11" stop-color="#ab7f00"/><stop offset="0.15" stop-color="#a77503"/><stop offset="0.22" stop-color="#9e590b"/><stop offset="0.26" stop-color="#964212"/><stop offset="0.47" stop-color="#7e4003"/><stop offset="0.56" stop-color="#9a4e00"/><stop offset="0.88" stop-color="#c29129"/><stop offset="0.93" stop-color="#c38c29"/><stop offset="0.98" stop-color="#c77d28"/><stop offset="1" stop-color="#c87728"/></linearGradient><linearGradient id="linear-gradient-15" x1="140.3" y1="140.49" x2="127.22" y2="122.19" gradientUnits="userSpaceOnUse"><stop offset="0.03" stop-color="#ffffc2"/><stop offset="0.13" stop-color="#feffff"/><stop offset="0.2" stop-color="#feffee"/><stop offset="0.33" stop-color="#feffc4"/><stop offset="0.42" stop-color="#feffa6"/><stop offset="0.77" stop-color="#c28000"/><stop offset="1" stop-color="#faedb8"/></linearGradient><linearGradient id="linear-gradient-16" x1="128.71" y1="128.6" x2="140" y2="138.07" gradientUnits="userSpaceOnUse"><stop offset="0.03" stop-color="#feffa1"/><stop offset="0.1" stop-color="#f9ee90"/><stop offset="0.26" stop-color="#ecc365"/><stop offset="0.3" stop-color="#e8b557"/><stop offset="0.48" stop-color="#feffa1"/><stop offset="0.55" stop-color="#fdfd9e"/><stop offset="0.6" stop-color="#fbf596"/><stop offset="0.64" stop-color="#f6e887"/><stop offset="0.67" stop-color="#f0d572"/><stop offset="0.71" stop-color="#e8be57"/><stop offset="0.73" stop-color="#e0a63d"/><stop offset="0.81" stop-color="#c28000"/><stop offset="0.9" stop-color="#feffa1"/><stop offset="0.93" stop-color="#fdfd9e"/><stop offset="0.95" stop-color="#fbf796"/><stop offset="0.96" stop-color="#f7ec87"/><stop offset="0.97" stop-color="#f1dd72"/><stop offset="0.98" stop-color="#e9ca57"/><stop offset="1" stop-color="#dfb236"/><stop offset="1" stop-color="#dba727"/></linearGradient><linearGradient id="linear-gradient-17" x1="137.69" y1="142.44" x2="134.68" y2="126.58" gradientUnits="userSpaceOnUse"><stop offset="0.13" stop-color="#feffb8"/><stop offset="0.26" stop-color="#fef2c2"/><stop offset="0.54" stop-color="#dea803"/><stop offset="0.81" stop-color="#c28000"/><stop offset="1" stop-color="#dba727"/></linearGradient><linearGradient id="linear-gradient-18" x1="125.51" y1="134.11" x2="142.98" y2="134.74" xlink:href="#linear-gradient-11"/><linearGradient id="linear-gradient-19" x1="125.56" y1="135.28" x2="142.95" y2="135.91" xlink:href="#linear-gradient-11"/><linearGradient id="linear-gradient-20" x1="139.54" y1="137.37" x2="125.79" y2="118.15" xlink:href="#linear-gradient-13"/><linearGradient id="linear-gradient-21" x1="139.46" y1="-1398.85" x2="126.38" y2="-1417.14" xlink:href="#linear-gradient-14"/><linearGradient id="linear-gradient-22" x1="139.46" y1="137.4" x2="126.37" y2="119.1" xlink:href="#linear-gradient-15"/><linearGradient id="linear-gradient-23" x1="127.87" y1="125.51" x2="139.16" y2="134.98" xlink:href="#linear-gradient-16"/><linearGradient id="linear-gradient-24" x1="136.85" y1="139.36" x2="133.84" y2="123.49" xlink:href="#linear-gradient-17"/><linearGradient id="linear-gradient-25" x1="125.37" y1="130.88" x2="142.84" y2="131.51" xlink:href="#linear-gradient-11"/><linearGradient id="linear-gradient-26" x1="125.42" y1="132.05" x2="142.8" y2="132.68" xlink:href="#linear-gradient-11"/><linearGradient id="linear-gradient-27" x1="139.4" y1="134.14" x2="125.64" y2="114.92" xlink:href="#linear-gradient-13"/><linearGradient id="linear-gradient-28" x1="139.32" y1="-1395.62" x2="126.23" y2="-1413.92" xlink:href="#linear-gradient-14"/><linearGradient id="linear-gradient-29" x1="139.32" y1="134.17" x2="126.23" y2="115.88" xlink:href="#linear-gradient-15"/><linearGradient id="linear-gradient-30" x1="127.73" y1="122.28" x2="139.02" y2="131.76" xlink:href="#linear-gradient-16"/><linearGradient id="linear-gradient-31" x1="136.7" y1="136.13" x2="133.7" y2="120.27" xlink:href="#linear-gradient-17"/><linearGradient id="linear-gradient-32" x1="127.34" y1="128.07" x2="144.81" y2="128.71" xlink:href="#linear-gradient-11"/><linearGradient id="linear-gradient-33" x1="127.38" y1="129.25" x2="144.77" y2="129.88" xlink:href="#linear-gradient-11"/><linearGradient id="linear-gradient-34" x1="141.36" y1="131.34" x2="127.61" y2="112.11" xlink:href="#linear-gradient-13"/><linearGradient id="linear-gradient-35" x1="141.28" y1="-1392.82" x2="128.2" y2="-1411.11" xlink:href="#linear-gradient-14"/><linearGradient id="linear-gradient-36" x1="141.28" y1="131.36" x2="128.2" y2="113.07" xlink:href="#linear-gradient-15"/><linearGradient id="linear-gradient-37" x1="129.7" y1="119.48" x2="140.98" y2="128.95" xlink:href="#linear-gradient-16"/><linearGradient id="linear-gradient-38" x1="138.67" y1="133.32" x2="135.66" y2="117.46" xlink:href="#linear-gradient-17"/><linearGradient id="linear-gradient-39" x1="125.93" y1="124.85" x2="143.4" y2="125.48" xlink:href="#linear-gradient-11"/><linearGradient id="linear-gradient-40" x1="125.98" y1="126.02" x2="143.37" y2="126.65" xlink:href="#linear-gradient-11"/><linearGradient id="linear-gradient-41" x1="137.78" y1="127.77" x2="131.19" y2="109.67" gradientUnits="userSpaceOnUse"><stop offset="0.13" stop-color="#fee767"/><stop offset="0.2" stop-color="#fedf56"/><stop offset="0.29" stop-color="#fed13a"/><stop offset="0.54" stop-color="#c78707"/><stop offset="0.77" stop-color="#c28000"/><stop offset="1" stop-color="#dba727"/></linearGradient><linearGradient id="linear-gradient-42" x1="139.88" y1="-1389.59" x2="126.8" y2="-1407.88" xlink:href="#linear-gradient-14"/><linearGradient id="linear-gradient-43" x1="139.88" y1="128.14" x2="126.8" y2="109.85" xlink:href="#linear-gradient-15"/><linearGradient id="linear-gradient-44" x1="128.29" y1="116.25" x2="139.58" y2="125.72" xlink:href="#linear-gradient-16"/><linearGradient id="linear-gradient-45" x1="137.27" y1="130.09" x2="134.26" y2="114.23" xlink:href="#linear-gradient-17"/><linearGradient id="linear-gradient-46" x1="143.96" y1="137.9" x2="161.43" y2="138.53" xlink:href="#linear-gradient-11"/><linearGradient id="linear-gradient-47" x1="144.01" y1="139.07" x2="161.4" y2="139.7" xlink:href="#linear-gradient-11"/><linearGradient id="linear-gradient-48" x1="157.99" y1="141.16" x2="144.24" y2="121.93" xlink:href="#linear-gradient-13"/><linearGradient id="linear-gradient-49" x1="157.91" y1="-1402.64" x2="144.83" y2="-1420.93" xlink:href="#linear-gradient-14"/><linearGradient id="linear-gradient-50" x1="157.91" y1="141.19" x2="144.82" y2="122.89" xlink:href="#linear-gradient-15"/><linearGradient id="linear-gradient-51" x1="146.32" y1="129.3" x2="157.61" y2="138.77" xlink:href="#linear-gradient-16"/><linearGradient id="linear-gradient-52" x1="155.3" y1="143.14" x2="152.29" y2="127.28" xlink:href="#linear-gradient-17"/><linearGradient id="linear-gradient-53" x1="142.56" y1="135.51" x2="160.03" y2="136.14" xlink:href="#linear-gradient-11"/><linearGradient id="linear-gradient-54" x1="142.6" y1="136.68" x2="159.99" y2="137.31" xlink:href="#linear-gradient-11"/><linearGradient id="linear-gradient-55" x1="156.58" y1="138.77" x2="142.83" y2="119.55" xlink:href="#linear-gradient-13"/><linearGradient id="linear-gradient-56" x1="156.51" y1="-1400.25" x2="143.42" y2="-1418.55" xlink:href="#linear-gradient-14"/><linearGradient id="linear-gradient-57" x1="156.51" y1="138.8" x2="143.42" y2="120.5" xlink:href="#linear-gradient-15"/><linearGradient id="linear-gradient-58" x1="144.92" y1="126.91" x2="156.21" y2="136.38" xlink:href="#linear-gradient-16"/><linearGradient id="linear-gradient-59" x1="153.89" y1="140.76" x2="150.89" y2="124.9" xlink:href="#linear-gradient-17"/><linearGradient id="linear-gradient-60" x1="143.68" y1="133.4" x2="161.15" y2="134.04" xlink:href="#linear-gradient-11"/><linearGradient id="linear-gradient-61" x1="143.72" y1="134.58" x2="161.12" y2="135.21" xlink:href="#linear-gradient-11"/><linearGradient id="linear-gradient-62" x1="155.53" y1="136.33" x2="148.94" y2="118.23" xlink:href="#linear-gradient-41"/><linearGradient id="linear-gradient-63" x1="157.63" y1="-1398.15" x2="144.54" y2="-1416.44" xlink:href="#linear-gradient-14"/><linearGradient id="linear-gradient-64" x1="157.63" y1="136.7" x2="144.55" y2="118.41" xlink:href="#linear-gradient-15"/><linearGradient id="linear-gradient-65" x1="146.04" y1="124.81" x2="157.33" y2="134.28" xlink:href="#linear-gradient-16"/><linearGradient id="linear-gradient-66" x1="155.02" y1="138.65" x2="152.01" y2="122.8" xlink:href="#linear-gradient-17"/><linearGradient id="linear-gradient-67" x1="143.4" y1="130.32" x2="160.87" y2="130.95" xlink:href="#linear-gradient-11"/><linearGradient id="linear-gradient-68" x1="143.44" y1="131.49" x2="160.84" y2="132.12" xlink:href="#linear-gradient-11"/><linearGradient id="linear-gradient-69" x1="157.43" y1="133.58" x2="143.68" y2="114.36" xlink:href="#linear-gradient-13"/><linearGradient id="linear-gradient-70" x1="157.35" y1="-1395.06" x2="144.27" y2="-1413.36" xlink:href="#linear-gradient-14"/><linearGradient id="linear-gradient-71" x1="157.35" y1="133.61" x2="144.27" y2="115.32" xlink:href="#linear-gradient-15"/><linearGradient id="linear-gradient-72" x1="145.76" y1="121.72" x2="157.05" y2="131.19" xlink:href="#linear-gradient-16"/><linearGradient id="linear-gradient-73" x1="154.74" y1="135.56" x2="151.73" y2="119.71" xlink:href="#linear-gradient-17"/><linearGradient id="linear-gradient-74" x1="142.56" y1="127.23" x2="160.03" y2="127.86" xlink:href="#linear-gradient-11"/><linearGradient id="linear-gradient-75" x1="142.6" y1="128.4" x2="159.99" y2="129.03" xlink:href="#linear-gradient-11"/><linearGradient id="linear-gradient-76" x1="156.58" y1="130.5" x2="142.83" y2="111.27" xlink:href="#linear-gradient-13"/><linearGradient id="linear-gradient-77" x1="156.51" y1="-1391.97" x2="143.42" y2="-1410.27" xlink:href="#linear-gradient-14"/><linearGradient id="linear-gradient-78" x1="156.51" y1="130.52" x2="143.42" y2="112.23" xlink:href="#linear-gradient-15"/><linearGradient id="linear-gradient-79" x1="144.92" y1="118.64" x2="156.21" y2="128.11" xlink:href="#linear-gradient-16"/><linearGradient id="linear-gradient-80" x1="153.89" y1="132.48" x2="150.89" y2="116.62" xlink:href="#linear-gradient-17"/><linearGradient id="linear-gradient-81" x1="142.42" y1="124" x2="159.89" y2="124.64" xlink:href="#linear-gradient-11"/><linearGradient id="linear-gradient-82" x1="142.46" y1="125.18" x2="159.86" y2="125.8" xlink:href="#linear-gradient-11"/><linearGradient id="linear-gradient-83" x1="156.44" y1="127.27" x2="142.69" y2="108.04" xlink:href="#linear-gradient-13"/><linearGradient id="linear-gradient-84" x1="156.37" y1="-1388.75" x2="143.28" y2="-1407.04" xlink:href="#linear-gradient-14"/><linearGradient id="linear-gradient-85" x1="156.37" y1="127.29" x2="143.28" y2="109" xlink:href="#linear-gradient-15"/><linearGradient id="linear-gradient-86" x1="144.78" y1="115.41" x2="156.06" y2="124.88" xlink:href="#linear-gradient-16"/><linearGradient id="linear-gradient-87" x1="153.75" y1="129.25" x2="150.75" y2="113.39" xlink:href="#linear-gradient-17"/><linearGradient id="linear-gradient-88" x1="144.38" y1="121.2" x2="161.86" y2="121.83" xlink:href="#linear-gradient-11"/><linearGradient id="linear-gradient-89" x1="144.43" y1="122.37" x2="161.82" y2="123" xlink:href="#linear-gradient-11"/><linearGradient id="linear-gradient-90" x1="158.41" y1="124.46" x2="144.66" y2="105.24" xlink:href="#linear-gradient-13"/><linearGradient id="linear-gradient-91" x1="158.33" y1="-1385.94" x2="145.25" y2="-1404.24" xlink:href="#linear-gradient-14"/><linearGradient id="linear-gradient-92" x1="158.33" y1="124.49" x2="145.25" y2="106.2" xlink:href="#linear-gradient-15"/><linearGradient id="linear-gradient-93" x1="146.74" y1="112.6" x2="158.03" y2="122.07" xlink:href="#linear-gradient-16"/><linearGradient id="linear-gradient-94" x1="155.72" y1="126.45" x2="152.71" y2="110.59" xlink:href="#linear-gradient-17"/><linearGradient id="linear-gradient-95" x1="142.98" y1="117.97" x2="160.45" y2="118.6" xlink:href="#linear-gradient-11"/><linearGradient id="linear-gradient-96" x1="143.03" y1="119.14" x2="160.41" y2="119.77" xlink:href="#linear-gradient-11"/><linearGradient id="linear-gradient-97" x1="154.83" y1="120.89" x2="148.24" y2="102.8" xlink:href="#linear-gradient-41"/><linearGradient id="linear-gradient-98" x1="156.93" y1="-1382.72" x2="143.84" y2="-1401.01" xlink:href="#linear-gradient-14"/><linearGradient id="linear-gradient-99" x1="156.93" y1="121.26" x2="143.84" y2="102.97" xlink:href="#linear-gradient-15"/><linearGradient id="linear-gradient-100" x1="145.34" y1="109.37" x2="156.63" y2="118.84" xlink:href="#linear-gradient-16"/><linearGradient id="linear-gradient-101" x1="154.32" y1="123.22" x2="151.31" y2="107.36" xlink:href="#linear-gradient-17"/></defs><title>Asset 14</title><g class="cls-2"><g id="Layer_2" data-name="Layer 2"><g id="Layer_1-2" data-name="Layer 1"><rect class="cls-1" x="63.87" y="42.51" width="293" height="123" rx="11.19"/><g class="cls-3"><rect class="cls-1" x="63.87" y="42.51" width="293" height="123" rx="11.19"/><g class="cls-4"><path class="cls-5" d="M68.53,2.8C50.1,7,28.18,20.26,17.1,35.57,7.37,49,1.13,63.44.28,80c-1.37,26.56,1.82,55.58,20.06,74.93a103.78,103.78,0,0,0,47.45,28.36c13.12,3.44,53.24,6.87,72.13,0,14.06-5.11,27.76-11.67,38.06-22.52,6.06-6.38,11.74-13.23,15.92-21C201,126.53,203.45,111,202,96S197.42,65.29,190.26,52a93.43,93.43,0,0,0-28-32.14C149.26,10.51,110.93-6.77,68.53,2.8Z"/></g></g><path class="cls-6" d="M268.5,127.88h2.89l4.33,12.23H273l-.81-2.51h-4.51l-.82,2.51h-2.68Zm-.17,7.61h3.13l-1.54-4.82Z"/><path class="cls-6" d="M282.38,134.31a2.18,2.18,0,0,0-.34-.91,1.43,1.43,0,0,0-1.24-.55,1.63,1.63,0,0,0-1.64,1.19,4.79,4.79,0,0,0-.23,1.67,4.48,4.48,0,0,0,.23,1.6,1.57,1.57,0,0,0,1.6,1.12,1.42,1.42,0,0,0,1.18-.44,2.27,2.27,0,0,0,.42-1.16h2.42a4.06,4.06,0,0,1-.78,2,4.45,4.45,0,0,1-6.52.25,5.19,5.19,0,0,1-1-3.35,5.32,5.32,0,0,1,1.14-3.63,4,4,0,0,1,3.14-1.29,4.72,4.72,0,0,1,2.79.76,3.55,3.55,0,0,1,1.28,2.7Z"/><path class="cls-6" d="M291.71,134.31a1.94,1.94,0,0,0-.34-.91,1.41,1.41,0,0,0-1.24-.55,1.64,1.64,0,0,0-1.64,1.19,5,5,0,0,0-.23,1.67,4.72,4.72,0,0,0,.23,1.6,1.59,1.59,0,0,0,1.6,1.12,1.39,1.39,0,0,0,1.18-.44,2.19,2.19,0,0,0,.43-1.16h2.41a3.89,3.89,0,0,1-.78,2,4.44,4.44,0,0,1-6.51.25,5.19,5.19,0,0,1-1-3.35,5.32,5.32,0,0,1,1.14-3.63,4,4,0,0,1,3.14-1.29,4.71,4.71,0,0,1,2.78.76,3.56,3.56,0,0,1,1.29,2.7Z"/><path class="cls-6" d="M303.18,139a5,5,0,0,1-6.95,0,5.18,5.18,0,0,1-1.15-3.4,5.25,5.25,0,0,1,1.15-3.39,4.91,4.91,0,0,1,6.95,0,5.25,5.25,0,0,1,1.15,3.39A5.18,5.18,0,0,1,303.18,139Zm-1.89-1.3a4.2,4.2,0,0,0,0-4.19,2.09,2.09,0,0,0-3.19,0,4.2,4.2,0,0,0,0,4.19,2.11,2.11,0,0,0,3.19,0Z"/><path class="cls-6" d="M308.26,131.06v5.46a2.9,2.9,0,0,0,.18,1.16,1.27,1.27,0,0,0,1.27.69,1.66,1.66,0,0,0,1.65-1,3.65,3.65,0,0,0,.23-1.4v-4.93H314v9.05h-2.3v-1.28l-.17.25a1.85,1.85,0,0,1-.31.37,3.33,3.33,0,0,1-1.07.68,3.73,3.73,0,0,1-1.22.18,2.69,2.69,0,0,1-2.69-1.44,5.54,5.54,0,0,1-.39-2.35v-5.46Z"/><path class="cls-6" d="M323.46,131.58a3,3,0,0,1,.89,2.44v6.09h-2.42v-5.5a2.5,2.5,0,0,0-.19-1.1,1.33,1.33,0,0,0-1.32-.69,1.63,1.63,0,0,0-1.64,1,3.59,3.59,0,0,0-.23,1.37v4.9h-2.37v-9h2.3v1.32a3.92,3.92,0,0,1,.86-1,2.92,2.92,0,0,1,1.84-.55A3.45,3.45,0,0,1,323.46,131.58Z"/><path class="cls-6" d="M325.5,132.83v-1.68h1.27v-2.53h2.34v2.53h1.47v1.68h-1.47v4.78c0,.37,0,.61.14.7a1.57,1.57,0,0,0,.86.13h.47v1.76l-1.13.05a3.08,3.08,0,0,1-2.29-.58,1.78,1.78,0,0,1-.39-1.26v-5.57Z"/><g class="cls-7"><path class="cls-8" d="M158.49,133.23c0,2.68-15.9,4.85-35.52,4.85s-35.53-2.17-35.53-4.85,15.91-4.85,35.53-4.85S158.49,130.55,158.49,133.23Z"/><path class="cls-9" d="M158.14,133.19c0,2.62-16.37,4.7-35.1,4.7-19.43,0-35.16-2.1-35.16-4.67s15.29-4.71,35.16-4.7C141.76,128.52,158.14,130.59,158.14,133.19Z"/><path class="cls-10" d="M157.79,133.16c0,2.56-16.85,4.54-34.67,4.54-19.25,0-34.8-2-34.8-4.48s14.68-4.58,34.78-4.56C140.93,128.66,157.8,130.64,157.79,133.16Z"/><path class="cls-11" d="M157.43,133.12c0,2.51-17.31,4.39-34.23,4.39-19.08-.06-34.43-1.94-34.43-4.3s14-4.44,34.4-4.42C140.1,128.8,157.45,130.68,157.43,133.12Z"/><path class="cls-12" d="M157.08,133.09c0,2.45-17.78,4.24-33.81,4.23-18.89-.08-34.06-1.87-34.06-4.12s13.44-4.31,34-4.27C139.27,128.93,157.1,130.72,157.08,133.09Z"/><path class="cls-13" d="M156.73,133.05c0,2.39-18.26,4.12-33.38,4.08-18.71,0-33.7-1.79-33.7-3.93s12.82-4.18,33.66-4.13C138.44,129.07,156.75,130.77,156.73,133.05Z"/><path class="cls-14" d="M156.37,133c0,2.33-18.72,4-32.95,3.92-18.52-.06-33.32-1.71-33.32-3.75s12.2-4,33.28-4C137.61,129.21,156.4,130.81,156.37,133Z"/><path class="cls-15" d="M156,133c0,2.27-19.19,3.82-32.52,3.77-18.34-.08-33-1.65-33-3.57s11.58-3.91,32.9-3.84C136.77,129.35,156.05,130.86,156,133Z"/><path class="cls-16" d="M155.66,133c0,2.21-19.65,3.67-32.09,3.62C105.42,136.49,91,135,91,133.18s11-3.77,32.53-3.69C135.94,129.49,155.7,130.9,155.66,133Z"/><path class="cls-17" d="M155.31,132.92c-.05,2.15-20.13,3.52-31.66,3.46-18-.09-32.23-1.49-32.23-3.2s10.35-3.64,32.16-3.55C135.11,129.63,155.36,131,155.31,132.92Z"/><path class="cls-18" d="M155,132.88c-.06,2.1-20.6,3.37-31.24,3.31-17.79-.1-31.85-1.42-31.85-3s9.73-3.46,31.78-3.4C134.28,129.79,155,131,155,132.88Z"/><path class="cls-19" d="M154.6,132.85c-.06,2-21.06,3.21-30.8,3.15-17.61-.11-31.49-1.34-31.49-2.84s9.11-3.31,31.4-3.26C133.45,129.93,154.66,131,154.6,132.85Z"/><path class="cls-20" d="M154.25,132.81c-.07,2-21.54,3.07-30.38,3-17.42-.12-31.12-1.27-31.12-2.65s8.49-3.18,31-3.12C132.62,130.07,154.31,131.08,154.25,132.81Z"/><path class="cls-21" d="M153.9,132.78c-.08,1.92-22,2.91-29.95,2.84-17.24-.13-30.75-1.19-30.75-2.47s7.87-3,30.65-3C131.79,130.21,154,131.13,153.9,132.78Z"/><path class="cls-22" d="M153.54,132.74c-.08,1.87-22.47,2.76-29.51,2.69-17.06-.14-30.39-1.11-30.39-2.28s7.25-2.9,30.28-2.83C131,130.34,153.61,131.17,153.54,132.74Z"/><path class="cls-23" d="M153.19,132.71c-.09,1.81-22.94,2.59-29.09,2.54-16.88-.17-30-1.05-30-2.11s6.64-2.76,29.9-2.68C130.13,130.48,153.26,131.22,153.19,132.71Z"/><path class="cls-24" d="M152.83,132.67c-.09,1.75-23.41,2.44-28.65,2.39-16.7-.18-29.66-1-29.66-1.93s6-2.62,29.53-2.53C129.3,130.62,152.91,131.26,152.83,132.67Z"/><path class="cls-25" d="M152.48,132.64c-.1,1.69-23.88,2.28-28.23,2.23C107.74,134.68,95,134,95,133.13s5.4-2.49,29.15-2.39C128.47,130.76,152.56,131.31,152.48,132.64Z"/><path class="cls-26" d="M152.13,132.6c-.11,1.64-24.35,2.12-27.8,2.08-16.33-.21-28.92-.82-28.92-1.56s4.78-2.35,28.78-2.24C127.64,130.89,152.21,131.35,152.13,132.6Z"/><path class="cls-27" d="M151.77,132.57c-.11,1.57-24.81,2-27.37,1.92-16.14-.23-28.55-.74-28.55-1.37s4.17-2.23,28.41-2.1C126.81,131,151.86,131.39,151.77,132.57Z"/><path class="cls-28" d="M151.42,132.53c-.12,1.52-25.29,1.8-26.94,1.77-16-.27-28.18-.66-28.18-1.19s3.54-2.15,28-2C126,131.16,151.51,131.44,151.42,132.53Z"/><path class="cls-29" d="M151.07,132.5c-.13,1.46-25.76,1.63-26.52,1.61-15.77-.4-27.81-.59-27.81-1s2.93-2,27.65-1.81C125.15,131.3,151.16,131.48,151.07,132.5Z"/></g><rect class="cls-30" x="95.16" y="68.25" width="52.84" height="64.31" rx="1.74"/><path class="cls-31" d="M147.14,130.28a1.69,1.69,0,0,1-1.68,1.7H97.69a1.69,1.69,0,0,1-1.68-1.7V70.53a1.7,1.7,0,0,1,1.68-1.71h47.77a1.7,1.7,0,0,1,1.68,1.71Z"/><path class="cls-32" d="M96.72,129.43,96,108.06v22.19a1.69,1.69,0,0,0,1.68,1.7H137.6l-39.2-.81A1.69,1.69,0,0,1,96.72,129.43Z"/><path class="cls-33" d="M146.58,71.44l-.47,58.66.69-1,.31-58.53a1.7,1.7,0,0,0-1.69-1.71h-39.9l39.43.45C145.88,69.27,146.58,70.49,146.58,71.44Z"/><g class="cls-34"><path class="cls-35" d="M147.67,130.66c0,.33-.53.61-1.18.61h0c-.65,0-1.18-.28-1.18-.61V70.26c0-.34.53-.61,1.18-.61h0c.65,0,1.18.27,1.18.61Z"/><path class="cls-36" d="M145.36,70.38c0-.33.5-.6,1.13-.6h0c.62,0,1.13.27,1.13.6v60.26c0,.34-.51.61-1.13.61h0c-.62,0-1.13-.27-1.13-.61Z"/><path class="cls-37" d="M145.41,70.51c0-.34.48-.61,1.08-.61h0c.59,0,1.08.27,1.08.61v60.12c0,.33-.48.6-1.08.6h0c-.59,0-1.07-.27-1.07-.6Z"/><path class="cls-38" d="M145.46,70.63c0-.33.46-.6,1-.6h0c.57,0,1,.27,1,.6v60c0,.33-.46.6-1,.6h0c-.55,0-1-.27-1-.6Z"/><path class="cls-39" d="M145.52,70.75c0-.33.43-.59,1-.59h0c.54,0,1,.26,1,.59v59.86c0,.33-.43.59-1,.59h0c-.53,0-1-.26-1-.59Z"/><path class="cls-40" d="M145.57,70.88c0-.33.41-.6.92-.6h0c.51,0,.93.27.93.6v59.71c0,.33-.42.6-.93.6h0c-.5,0-.92-.27-.92-.6Z"/><path class="cls-41" d="M145.62,71c0-.32.39-.59.87-.59h0c.49,0,.88.27.88.59v59.58c0,.33-.39.59-.88.59h0c-.46,0-.87-.26-.87-.59Z"/><path class="cls-42" d="M145.67,71.12c0-.32.37-.58.82-.58h0c.46,0,.83.26.83.58v59.45c0,.33-.37.59-.83.59h0c-.43,0-.82-.26-.82-.59Z"/><path class="cls-43" d="M145.72,71.25a.71.71,0,0,1,.77-.59h0a.71.71,0,0,1,.78.59v59.31c0,.32-.35.58-.77.58h0c-.41,0-.78-.26-.78-.58Z"/><path class="cls-44" d="M145.77,71.37a.67.67,0,0,1,.73-.58h0a.66.66,0,0,1,.72.58v59.18a.66.66,0,0,1-.72.58h0a.68.68,0,0,1-.72-.58Z"/><path class="cls-45" d="M145.82,71.5a.64.64,0,0,1,.68-.58h0a.63.63,0,0,1,.67.58l0,59a.64.64,0,0,1-.68.58h0a.65.65,0,0,1-.67-.58Z"/><path class="cls-46" d="M145.87,71.62a.6.6,0,0,1,.63-.57h0a.59.59,0,0,1,.62.57l0,58.9a.61.61,0,0,1-.63.58h0a.62.62,0,0,1-.62-.58Z"/><path class="cls-47" d="M145.93,71.74a.57.57,0,0,1,.57-.57h0a.58.58,0,0,1,.57.57l0,58.77a.57.57,0,0,1-.57.57h0a.59.59,0,0,1-.57-.57Z"/><path class="cls-48" d="M146,71.87a.54.54,0,0,1,.52-.57h0a.54.54,0,0,1,.52.57l0,58.63a.55.55,0,0,1-.52.57h0a.58.58,0,0,1-.52-.57Z"/><path class="cls-49" d="M146,72a.52.52,0,0,1,.47-.56h0A.52.52,0,0,1,147,72l0,58.49a.52.52,0,0,1-.47.57h0a.55.55,0,0,1-.47-.57Z"/><path class="cls-50" d="M146.08,72.11c0-.31.19-.56.42-.56h0c.23,0,.42.25.42.56l0,58.36c0,.31-.19.57-.43.57h0c-.18,0-.42-.26-.42-.57Z"/><path class="cls-51" d="M146.13,72.24c0-.31.17-.56.37-.56h0c.21,0,.37.25.37.56l0,58.22c0,.31-.17.56-.37.56h0c-.16,0-.37-.25-.37-.56Z"/><path class="cls-52" d="M146.18,72.36c0-.3.15-.55.32-.55h0c.18,0,.32.25.32.55l0,58.09c0,.31-.14.56-.32.56h0c-.13,0-.32-.25-.32-.56Z"/><path class="cls-53" d="M146.23,72.49c0-.31.13-.56.27-.56h0c.15,0,.27.25.27.56l0,57.94c0,.31-.12.56-.27.56h0c-.09,0-.27-.25-.27-.56Z"/><path class="cls-54" d="M146.28,72.61c0-.3.11-.55.22-.55h0c.13,0,.23.25.23.55l0,57.81c0,.31-.1.56-.22.56h0c-.06,0-.21-.25-.21-.56Z"/><path class="cls-55" d="M146.34,72.73c0-.3.07-.54.17-.54h0c.09,0,.17.24.17.54l0,57.68c0,.31-.08.55-.18.55h0a.84.84,0,0,1-.16-.55Z"/><path class="cls-56" d="M146.66,130.4c0,.3-.06.55-.12.55a1.42,1.42,0,0,1-.12-.55l0-57.54c0-.3.05-.55.12-.55h0c.06,0,.12.25.12.55Z"/></g><path class="cls-57" d="M101.67,74.52H141.1a1.71,1.71,0,0,1,1.71,1.71v8.63a1.71,1.71,0,0,1-1.71,1.71H101.68A1.71,1.71,0,0,1,100,84.86V76.23A1.7,1.7,0,0,1,101.67,74.52Z"/><rect class="cls-58" x="101.83" y="75.87" width="39.11" height="9.36" rx="0.85"/><path class="cls-59" d="M101.83,76.71v7.67a.84.84,0,0,0,.85.84H140.1a.84.84,0,0,0,.85-.84V76.71a.81.81,0,0,0-.26-.6.37.37,0,0,1,0,.11v7.66a.85.85,0,0,1-.85.85l-36.84,0a.77.77,0,0,1-.77-.83V76.27c0-.12.23-.29.28-.39A.85.85,0,0,0,101.83,76.71Z"/><polygon class="cls-60" points="114.62 78.24 114.52 80.13 114.8 80.36 115.11 80.13 115.21 78.24 114.93 78 114.62 78.24"/><polygon class="cls-60" points="112.92 80.67 112.82 82.57 113.1 82.8 113.4 82.57 113.51 80.67 113.23 80.44 112.92 80.67"/><polygon class="cls-60" points="113.61 80.64 114.39 80.64 114.7 80.4 114.42 80.17 113.64 80.17 113.33 80.4 113.61 80.64"/><polygon class="cls-60" points="113.48 83.07 114.26 83.07 114.57 82.84 114.29 82.61 113.5 82.61 113.2 82.84 113.48 83.07"/><polygon class="cls-60" points="113.74 78.2 114.53 78.2 114.83 77.97 114.55 77.73 113.77 77.73 113.46 77.97 113.74 78.2"/><polygon class="cls-60" points="117.27 78.24 117.17 80.13 117.45 80.36 117.75 80.13 117.86 78.24 117.58 78 117.27 78.24"/><polygon class="cls-60" points="117.14 80.67 117.03 82.57 117.31 82.8 117.62 82.57 117.72 80.67 117.44 80.44 117.14 80.67"/><polygon class="cls-60" points="116.26 80.64 117.04 80.64 117.35 80.4 117.07 80.17 116.28 80.17 115.97 80.4 116.26 80.64"/><polygon class="cls-60" points="116.13 83.07 116.91 83.07 117.22 82.84 116.94 82.61 116.15 82.61 115.84 82.84 116.13 83.07"/><polygon class="cls-60" points="116.39 78.2 117.17 78.2 117.48 77.97 117.2 77.73 116.41 77.73 116.11 77.97 116.39 78.2"/><polygon class="cls-60" points="120.31 78.24 120.2 80.13 120.48 80.36 120.8 80.13 120.89 78.24 120.62 78 120.31 78.24"/><polygon class="cls-60" points="120.18 80.67 120.07 82.57 120.36 82.8 120.66 82.57 120.77 80.67 120.48 80.44 120.18 80.67"/><polygon class="cls-60" points="119.3 80.64 120.08 80.64 120.39 80.4 120.11 80.17 119.32 80.17 119.01 80.4 119.3 80.64"/><polygon class="cls-60" points="118.74 78.24 118.64 80.13 118.92 80.36 119.22 80.13 119.33 78.24 119.05 78 118.74 78.24"/><polygon class="cls-60" points="122.37 78.24 122.27 80.13 121.96 80.36 121.68 80.13 121.78 78.24 122.08 78 122.37 78.24"/><polygon class="cls-60" points="123.8 80.67 123.7 82.57 123.4 82.8 123.11 82.57 123.22 80.67 123.52 80.44 123.8 80.67"/><polygon class="cls-60" points="123.12 80.64 122.34 80.64 122.06 80.4 122.36 80.17 123.14 80.17 123.43 80.4 123.12 80.64"/><polygon class="cls-60" points="122.99 83.07 122.2 83.07 121.92 82.84 122.23 82.61 123.01 82.61 123.3 82.84 122.99 83.07"/><polygon class="cls-60" points="123.25 78.2 122.47 78.2 122.19 77.97 122.5 77.73 123.28 77.73 123.56 77.97 123.25 78.2"/><polygon class="cls-60" points="125.36 78.24 125.26 80.13 124.95 80.36 124.67 80.13 124.77 78.24 125.08 78 125.36 78.24"/><polygon class="cls-60" points="126.8 80.67 126.69 82.57 126.39 82.8 126.1 82.57 126.21 80.67 126.52 80.44 126.8 80.67"/><polygon class="cls-60" points="126.11 80.64 125.33 80.64 125.05 80.4 125.35 80.17 126.14 80.17 126.42 80.4 126.11 80.64"/><polygon class="cls-60" points="125.98 83.07 125.19 83.07 124.92 82.84 125.22 82.61 126.01 82.61 126.29 82.84 125.98 83.07"/><polygon class="cls-60" points="126.24 78.2 125.46 78.2 125.18 77.97 125.48 77.73 126.27 77.73 126.55 77.97 126.24 78.2"/><polygon class="cls-60" points="125.23 80.67 125.13 82.57 124.82 82.8 124.54 82.57 124.64 80.67 124.94 80.44 125.23 80.67"/><polygon class="cls-60" points="128.64 78.27 128.54 80.17 128.82 80.4 129.13 80.17 129.23 78.27 128.95 78.04 128.64 78.27"/><polygon class="cls-60" points="128.51 80.71 128.41 82.61 128.69 82.84 129 82.61 129.1 80.71 128.81 80.48 128.51 80.71"/><polygon class="cls-60" points="127.71 78.2 128.5 78.2 128.81 77.97 128.52 77.73 127.74 77.73 127.43 77.97 127.71 78.2"/><polygon class="cls-60" points="130.75 78.24 130.65 80.13 130.34 80.36 130.06 80.13 130.17 78.24 130.47 78 130.75 78.24"/><polygon class="cls-60" points="132.19 80.67 132.09 82.57 131.78 82.8 131.5 82.57 131.6 80.67 131.91 80.44 132.19 80.67"/><polygon class="cls-60" points="131.5 80.64 130.72 80.64 130.44 80.4 130.75 80.17 131.53 80.17 131.81 80.4 131.5 80.64"/><polygon class="cls-60" points="131.38 83.07 130.59 83.07 130.31 82.84 130.62 82.61 131.4 82.61 131.68 82.84 131.38 83.07"/><polygon class="cls-60" points="131.64 78.2 130.85 78.2 130.57 77.97 130.88 77.73 131.66 77.73 131.94 77.97 131.64 78.2"/><polygon class="cls-60" points="130.62 80.67 130.52 82.57 130.21 82.8 129.93 82.57 130.03 80.67 130.34 80.44 130.62 80.67"/><polygon class="cls-60" points="132.32 78.24 132.22 80.13 131.91 80.36 131.63 80.13 131.73 78.24 132.04 78 132.32 78.24"/><polygon class="cls-60" points="133.6 78.24 133.5 80.13 133.19 80.36 132.9 80.13 133.01 78.24 133.31 78 133.6 78.24"/><polygon class="cls-60" points="135.04 80.67 134.93 82.57 134.63 82.8 134.34 82.57 134.44 80.67 134.75 80.44 135.04 80.67"/><polygon class="cls-60" points="134.35 80.64 133.56 80.64 133.28 80.4 133.59 80.17 134.37 80.17 134.66 80.4 134.35 80.64"/><polygon class="cls-60" points="134.22 83.07 133.43 83.07 133.15 82.84 133.46 82.61 134.24 82.61 134.53 82.84 134.22 83.07"/><polygon class="cls-60" points="134.48 78.2 133.7 78.2 133.41 77.97 133.72 77.73 134.51 77.73 134.79 77.97 134.48 78.2"/><polygon class="cls-60" points="135.17 78.24 135.06 80.13 134.76 80.36 134.48 80.13 134.58 78.24 134.88 78 135.17 78.24"/><polygon class="cls-60" points="136.59 78.24 136.49 80.13 136.18 80.36 135.9 80.13 136 78.24 136.3 78 136.59 78.24"/><polygon class="cls-60" points="138.02 80.67 137.92 82.57 137.61 82.8 137.33 82.57 137.43 80.67 137.74 80.44 138.02 80.67"/><polygon class="cls-60" points="137.21 83.07 136.42 83.07 136.14 82.84 136.45 82.61 137.24 82.61 137.51 82.84 137.21 83.07"/><polygon class="cls-60" points="137.47 78.2 136.69 78.2 136.41 77.97 136.71 77.73 137.5 77.73 137.78 77.97 137.47 78.2"/><polygon class="cls-60" points="136.46 80.67 136.35 82.57 136.05 82.8 135.76 82.57 135.87 80.67 136.17 80.44 136.46 80.67"/><polygon class="cls-60" points="138.16 78.24 138.05 80.13 137.74 80.36 137.46 80.13 137.57 78.24 137.87 78 138.16 78.24"/><polygon class="cls-60" points="111.38 78.24 111.28 80.13 111.56 80.36 111.87 80.13 111.97 78.24 111.69 78 111.38 78.24"/><polygon class="cls-60" points="111.25 80.67 111.15 82.57 111.43 82.8 111.74 82.57 111.84 80.67 111.56 80.44 111.25 80.67"/><path class="cls-61" d="M103,76.16h37.41a.78.78,0,0,1,.44.12.82.82,0,0,0-.72-.41H102.68a.85.85,0,0,0-.85.85S102,76,103,76.16Z"/><rect class="cls-62" x="100.98" y="91.29" width="6.42" height="4.97" rx="0.72"/><rect class="cls-62" x="109.47" y="91.29" width="6.43" height="4.97" rx="0.72"/><path class="cls-63" d="M118,92v3.54a.71.71,0,0,0,.71.71h5a.72.72,0,0,0,.72-.71V92a.72.72,0,0,0-.72-.72h-5A.71.71,0,0,0,118,92Z"/><path class="cls-63" d="M126.46,92v3.53a.72.72,0,0,0,.72.72h5a.72.72,0,0,0,.72-.72V92a.72.72,0,0,0-.72-.72h-5A.72.72,0,0,0,126.46,92Z"/><path class="cls-64" d="M135,92v3.53a.72.72,0,0,0,.72.72h5a.73.73,0,0,0,.73-.72V92a.73.73,0,0,0-.73-.72h-5A.72.72,0,0,0,135,92Z"/><path class="cls-65" d="M101,99.36v3.54a.71.71,0,0,0,.72.71h5a.71.71,0,0,0,.72-.71V99.36a.72.72,0,0,0-.72-.71h-5A.71.71,0,0,0,101,99.36Z"/><rect class="cls-66" x="109.47" y="98.65" width="6.43" height="4.97" rx="0.72"/><path class="cls-65" d="M118,99.36v3.54a.71.71,0,0,0,.71.71h5a.71.71,0,0,0,.72-.71V99.36a.72.72,0,0,0-.72-.71h-5A.71.71,0,0,0,118,99.36Z"/><path class="cls-63" d="M126.46,99.36v3.54a.71.71,0,0,0,.72.71h5a.71.71,0,0,0,.72-.71V99.36a.71.71,0,0,0-.72-.71h-5A.71.71,0,0,0,126.46,99.36Z"/><path class="cls-63" d="M135,99.36v3.54a.71.71,0,0,0,.72.71h5a.72.72,0,0,0,.73-.71V99.36a.72.72,0,0,0-.73-.71h-5A.72.72,0,0,0,135,99.36Z"/><path class="cls-65" d="M101,106.71v3.54a.72.72,0,0,0,.72.72h5a.72.72,0,0,0,.72-.72v-3.54a.72.72,0,0,0-.72-.71h-5A.71.71,0,0,0,101,106.71Z"/><path class="cls-65" d="M109.47,106.71v3.54a.73.73,0,0,0,.73.72h5a.72.72,0,0,0,.72-.72v-3.54a.72.72,0,0,0-.72-.71h-5A.72.72,0,0,0,109.47,106.71Z"/><rect class="cls-66" x="117.97" y="106" width="6.43" height="4.97" rx="0.72"/><rect class="cls-62" x="126.46" y="106" width="6.42" height="4.97" rx="0.72"/><path class="cls-63" d="M135,106.71v3.54a.72.72,0,0,0,.72.72h5a.73.73,0,0,0,.73-.72v-3.54a.72.72,0,0,0-.73-.71h-5A.72.72,0,0,0,135,106.71Z"/><rect class="cls-66" x="100.98" y="113.35" width="6.42" height="4.97" rx="0.72"/><rect class="cls-66" x="109.47" y="113.35" width="6.43" height="4.97" rx="0.72"/><rect class="cls-66" x="117.97" y="113.35" width="6.43" height="4.97" rx="0.72"/><path class="cls-63" d="M126.46,114.07V125a.71.71,0,0,0,.72.71h5a.71.71,0,0,0,.72-.71V114.07a.72.72,0,0,0-.72-.72h-5A.72.72,0,0,0,126.46,114.07Z"/><path class="cls-63" d="M135,114.07v3.53a.72.72,0,0,0,.72.72h5a.73.73,0,0,0,.73-.72v-3.53a.73.73,0,0,0-.73-.72h-5A.72.72,0,0,0,135,114.07Z"/><rect class="cls-66" x="100.98" y="120.7" width="6.42" height="4.97" rx="0.72"/><rect class="cls-66" x="109.47" y="120.7" width="6.43" height="4.97" rx="0.72"/><rect class="cls-66" x="117.97" y="120.7" width="6.43" height="4.97" rx="0.72"/><path class="cls-63" d="M135,121.42V125a.72.72,0,0,0,.72.71h5a.72.72,0,0,0,.73-.71v-3.54a.73.73,0,0,0-.73-.72h-5A.72.72,0,0,0,135,121.42Z"/><path class="cls-67" d="M101.62,91.74h5a.72.72,0,0,1,.72.72V96a.72.72,0,0,1-.72.72h-5a.71.71,0,0,1-.71-.71V92.46A.72.72,0,0,1,101.62,91.74Z"/><path class="cls-68" d="M109.39,92.46V96a.71.71,0,0,0,.72.71h5a.71.71,0,0,0,.72-.71V92.46a.72.72,0,0,0-.72-.72h-5A.72.72,0,0,0,109.39,92.46Z"/><path class="cls-67" d="M118.6,91.74h5a.72.72,0,0,1,.72.72V96a.72.72,0,0,1-.72.72h-5a.71.71,0,0,1-.71-.71V92.46A.72.72,0,0,1,118.6,91.74Z"/><rect class="cls-67" x="126.37" y="91.74" width="6.42" height="4.97" rx="0.72"/><path class="cls-67" d="M135.58,91.74h5a.72.72,0,0,1,.72.72V96a.72.72,0,0,1-.72.72h-5a.71.71,0,0,1-.71-.71V92.46A.72.72,0,0,1,135.58,91.74Z"/><path class="cls-67" d="M101.62,99.09h5a.72.72,0,0,1,.72.72v3.54a.72.72,0,0,1-.72.72h-5a.71.71,0,0,1-.71-.71V99.81A.72.72,0,0,1,101.62,99.09Z"/><path class="cls-68" d="M109.39,99.81v3.54a.72.72,0,0,0,.72.72h5a.72.72,0,0,0,.72-.72V99.81a.72.72,0,0,0-.72-.72h-5A.72.72,0,0,0,109.39,99.81Z"/><rect class="cls-67" x="117.88" y="99.09" width="6.42" height="4.97" rx="0.72"/><path class="cls-67" d="M127.09,99.09h5a.72.72,0,0,1,.72.72v3.54a.72.72,0,0,1-.72.72h-5a.71.71,0,0,1-.71-.71V99.81A.72.72,0,0,1,127.09,99.09Z"/><rect class="cls-67" x="134.87" y="99.09" width="6.42" height="4.97" rx="0.72"/><rect class="cls-67" x="100.9" y="106.44" width="6.42" height="4.98" rx="0.72"/><rect class="cls-67" x="109.39" y="106.44" width="6.42" height="4.98" rx="0.72"/><rect class="cls-67" x="117.88" y="106.44" width="6.42" height="4.98" rx="0.72"/><rect class="cls-67" x="126.37" y="106.44" width="6.42" height="4.98" rx="0.72"/><rect class="cls-67" x="134.87" y="106.44" width="6.42" height="4.98" rx="0.72"/><rect class="cls-67" x="100.9" y="113.8" width="6.42" height="4.97" rx="0.72"/><rect class="cls-67" x="109.39" y="113.8" width="6.42" height="4.97" rx="0.72"/><rect class="cls-67" x="117.88" y="113.8" width="6.42" height="4.97" rx="0.72"/><rect class="cls-67" x="126.37" y="113.8" width="6.42" height="12.32" rx="0.72"/><rect class="cls-67" x="134.87" y="113.8" width="6.42" height="4.97" rx="0.72"/><rect class="cls-67" x="100.9" y="121.15" width="6.42" height="4.97" rx="0.72"/><rect class="cls-67" x="109.39" y="121.15" width="6.42" height="4.97" rx="0.72"/><rect class="cls-67" x="117.88" y="121.15" width="6.42" height="4.97" rx="0.72"/><rect class="cls-67" x="134.87" y="121.15" width="6.42" height="4.97" rx="0.72"/><rect class="cls-69" x="100.98" y="91.5" width="6.42" height="4.97" rx="0.72"/><rect class="cls-69" x="109.47" y="91.5" width="6.43" height="4.97" rx="0.72"/><rect class="cls-69" x="117.97" y="91.5" width="6.43" height="4.97" rx="0.72"/><path class="cls-70" d="M126.46,92.22v3.53a.72.72,0,0,0,.72.72h5a.72.72,0,0,0,.72-.72V92.22a.72.72,0,0,0-.72-.72h-5A.72.72,0,0,0,126.46,92.22Z"/><path class="cls-71" d="M135,92.22v3.53a.72.72,0,0,0,.72.72h5a.73.73,0,0,0,.73-.72V92.22a.73.73,0,0,0-.73-.72h-5A.72.72,0,0,0,135,92.22Z"/><rect class="cls-72" x="100.98" y="98.85" width="6.42" height="4.97" rx="0.72"/><rect class="cls-72" x="109.47" y="98.85" width="6.43" height="4.97" rx="0.72"/><rect class="cls-72" x="117.97" y="98.85" width="6.43" height="4.97" rx="0.72"/><path class="cls-70" d="M126.46,99.57v3.53a.72.72,0,0,0,.72.72h5a.72.72,0,0,0,.72-.72V99.57a.72.72,0,0,0-.72-.72h-5A.72.72,0,0,0,126.46,99.57Z"/><path class="cls-70" d="M135,99.57v3.53a.72.72,0,0,0,.72.72h5a.73.73,0,0,0,.73-.72V99.57a.73.73,0,0,0-.73-.72h-5A.73.73,0,0,0,135,99.57Z"/><rect class="cls-72" x="100.98" y="106.2" width="6.42" height="4.97" rx="0.72"/><rect class="cls-72" x="109.47" y="106.2" width="6.43" height="4.97" rx="0.72"/><rect class="cls-72" x="117.97" y="106.2" width="6.43" height="4.97" rx="0.72"/><path class="cls-70" d="M126.46,106.92v3.54a.71.71,0,0,0,.72.71h5a.71.71,0,0,0,.72-.71v-3.54a.72.72,0,0,0-.72-.72h-5A.72.72,0,0,0,126.46,106.92Z"/><path class="cls-70" d="M135,106.92v3.54a.72.72,0,0,0,.72.71h5a.72.72,0,0,0,.73-.71v-3.54a.73.73,0,0,0-.73-.72h-5A.73.73,0,0,0,135,106.92Z"/><rect class="cls-72" x="100.98" y="113.56" width="6.42" height="4.97" rx="0.72"/><path class="cls-73" d="M109.47,114.27v3.54a.73.73,0,0,0,.73.72h5a.72.72,0,0,0,.72-.72v-3.54a.72.72,0,0,0-.72-.71h-5A.72.72,0,0,0,109.47,114.27Z"/><path class="cls-73" d="M118,114.27v3.54a.71.71,0,0,0,.71.72h5a.72.72,0,0,0,.72-.72v-3.54a.72.72,0,0,0-.72-.71h-5A.71.71,0,0,0,118,114.27Z"/><path class="cls-69" d="M127.18,113.56h5a.72.72,0,0,1,.72.72v10.89a.72.72,0,0,1-.72.72h-5a.72.72,0,0,1-.72-.72v-10.9A.71.71,0,0,1,127.18,113.56Z"/><path class="cls-70" d="M135,114.27v3.54a.72.72,0,0,0,.72.72h5a.73.73,0,0,0,.73-.72v-3.54a.72.72,0,0,0-.73-.71h-5A.72.72,0,0,0,135,114.27Z"/><path class="cls-73" d="M101,121.63v3.53a.72.72,0,0,0,.72.72h5a.72.72,0,0,0,.72-.72v-3.53a.72.72,0,0,0-.72-.72h-5A.72.72,0,0,0,101,121.63Z"/><path class="cls-73" d="M109.47,121.63v3.53a.73.73,0,0,0,.73.72h5a.72.72,0,0,0,.72-.72v-3.53a.72.72,0,0,0-.72-.72h-5A.73.73,0,0,0,109.47,121.63Z"/><rect class="cls-72" x="117.97" y="120.91" width="6.43" height="4.97" rx="0.72"/><path class="cls-70" d="M135,121.63v3.53a.72.72,0,0,0,.72.72h5a.73.73,0,0,0,.73-.72v-3.53a.73.73,0,0,0-.73-.72h-5A.72.72,0,0,0,135,121.63Z"/><path class="cls-74" d="M137,94.17l.23.08a.45.45,0,0,1-.49.38.51.51,0,0,1-.39-.16.62.62,0,0,1-.15-.44.65.65,0,0,1,.15-.46.55.55,0,0,1,.41-.17.48.48,0,0,1,.35.13.47.47,0,0,1,.12.22l-.24.06a.22.22,0,0,0-.08-.15.24.24,0,0,0-.16,0,.27.27,0,0,0-.22.09.52.52,0,0,0-.08.31.51.51,0,0,0,.08.32.24.24,0,0,0,.21.1.2.2,0,0,0,.16-.07A.31.31,0,0,0,137,94.17Z"/><polygon class="cls-74" points="137.44 94.61 137.44 93.42 138.32 93.42 138.32 93.63 137.68 93.63 137.68 93.89 138.28 93.89 138.28 94.09 137.68 94.09 137.68 94.41 138.34 94.41 138.34 94.61 137.44 94.61"/><polygon class="cls-74" points="138.43 94.63 138.72 93.4 138.89 93.4 138.59 94.63 138.43 94.63"/><path class="cls-74" d="M139.77,94.17l.23.08a.52.52,0,0,1-.17.29.55.55,0,0,1-.32.09.5.5,0,0,1-.39-.16A.62.62,0,0,1,139,94a.65.65,0,0,1,.15-.46.53.53,0,0,1,.4-.17.48.48,0,0,1,.36.13.57.57,0,0,1,.12.22l-.24.06a.2.2,0,0,0-.09-.15.22.22,0,0,0-.16,0,.29.29,0,0,0-.22.09.74.74,0,0,0,0,.63.27.27,0,0,0,.22.1.2.2,0,0,0,.16-.07A.31.31,0,0,0,139.77,94.17Z"/><polygon class="cls-75" points="139.5 101.49 139.92 101.25 139.35 100.92 138.78 100.59 138.78 101.04 137.28 101.04 137.28 101.5 138.78 101.5 138.78 101.9 139.35 101.57 139.48 101.5 139.5 101.5 139.5 101.49"/><g class="cls-34"><path class="cls-76" d="M109.12,74.48l33.77,10.73s0-8.5-.07-8.95A1.92,1.92,0,0,0,141,74.48Z"/></g><g class="cls-7"><path class="cls-77" d="M103.22,100.06l1.59,0h0c-.06.09-.91,2.29-1,2.48l-.3-.15c.07-.11.87-2,.9-2.07l-1.2,0Z"/><path class="cls-77" d="M112.21,101.2a.55.55,0,0,1-.28-.2.52.52,0,0,1-.09-.31.56.56,0,0,1,.2-.45.69.69,0,0,1,.52-.19.76.76,0,0,1,.52.2.62.62,0,0,1,.19.46.51.51,0,0,1-.09.3.64.64,0,0,1-.27.2.66.66,0,0,1,.34.24.68.68,0,0,1,.12.4.7.7,0,0,1-.23.53.8.8,0,0,1-.59.22.86.86,0,0,1-.6-.23.7.7,0,0,1-.22-.54.58.58,0,0,1,.13-.4A.57.57,0,0,1,112.21,101.2Zm-.17.63a.48.48,0,0,0,.07.26.47.47,0,0,0,.18.19.59.59,0,0,0,.26.07.49.49,0,0,0,.36-.14.47.47,0,0,0,.14-.36.46.46,0,0,0-.14-.37.51.51,0,0,0-.36-.15.46.46,0,0,0-.36.15A.45.45,0,0,0,112,101.83Zm.11-1.15a.36.36,0,0,0,.11.29.39.39,0,0,0,.3.12.44.44,0,0,0,.29-.11.4.4,0,0,0,.11-.27.42.42,0,0,0-.11-.29.45.45,0,0,0-.58,0A.37.37,0,0,0,112.15,100.68Z"/><path class="cls-77" d="M120.23,102l.29,0a.53.53,0,0,0,.14.3.41.41,0,0,0,.28.1.4.4,0,0,0,.24-.07.58.58,0,0,0,.18-.17,1.18,1.18,0,0,0,.11-.29,1.57,1.57,0,0,0,0-.37v-.07a.75.75,0,0,1-.26.24.67.67,0,0,1-.34.09.68.68,0,0,1-.52-.23.82.82,0,0,1-.21-.59.89.89,0,0,1,.22-.61.78.78,0,0,1,.57-.23.79.79,0,0,1,.44.14.85.85,0,0,1,.3.37,1.7,1.7,0,0,1,.1.7,2.25,2.25,0,0,1-.1.76.94.94,0,0,1-.31.43.81.81,0,0,1-.49.15.73.73,0,0,1-.47-.17A.69.69,0,0,1,120.23,102Zm1.26-1.09a.64.64,0,0,0-.14-.42.45.45,0,0,0-.34-.15.48.48,0,0,0-.36.16.68.68,0,0,0-.15.43.56.56,0,0,0,.14.39.49.49,0,0,0,.35.15.46.46,0,0,0,.36-.15A.61.61,0,0,0,121.49,100.88Z"/><path class="cls-77" d="M104.46,117.32h-.3v-1.95a1.14,1.14,0,0,1-.29.21,3.16,3.16,0,0,1-.32.16v-.3a2,2,0,0,0,.45-.28,1.11,1.11,0,0,0,.27-.34h.2Z"/><path class="cls-77" d="M113.37,117v.3h-1.65a.46.46,0,0,1,0-.21,1.21,1.21,0,0,1,.2-.34,5.39,5.39,0,0,1,.4-.37,3.81,3.81,0,0,0,.56-.52.66.66,0,0,0,.14-.37.42.42,0,0,0-.13-.31.45.45,0,0,0-.33-.12.48.48,0,0,0-.36.12.49.49,0,0,0-.13.37l-.32,0A.83.83,0,0,1,112,115a.82.82,0,0,1,.56-.18.81.81,0,0,1,.57.2.67.67,0,0,1,.21.5,1,1,0,0,1-.07.29,1,1,0,0,1-.2.3,4.76,4.76,0,0,1-.48.44l-.35.31a.7.7,0,0,0-.13.17Z"/><path class="cls-77" d="M120.19,116.64l.31,0a.59.59,0,0,0,.18.37.41.41,0,0,0,.3.12.5.5,0,0,0,.37-.15.48.48,0,0,0,.15-.36.48.48,0,0,0-.14-.35.44.44,0,0,0-.34-.14l-.22,0,0-.27h0a.65.65,0,0,0,.36-.1.36.36,0,0,0,.15-.32.33.33,0,0,0-.11-.27.38.38,0,0,0-.29-.12.44.44,0,0,0-.3.11.64.64,0,0,0-.16.34l-.3-.06a.8.8,0,0,1,.25-.47.72.72,0,0,1,.5-.17.82.82,0,0,1,.38.09.67.67,0,0,1,.26.24.62.62,0,0,1,.09.32.75.75,0,0,1-.09.3.6.6,0,0,1-.26.2.58.58,0,0,1,.34.22.65.65,0,0,1,.12.4.72.72,0,0,1-.24.55.85.85,0,0,1-.6.23.81.81,0,0,1-.55-.2A.77.77,0,0,1,120.19,116.64Z"/><path class="cls-77" d="M104.23,110.14v-.6h-1.09v-.28l1.14-1.61h.26l0,1.61h.34v.28h-.34v.59Zm0-.88v-1.12l-.78,1.12Z"/><path class="cls-77" d="M111.72,109.45l.33,0a.55.55,0,0,0,.16.36.48.48,0,0,0,.31.12.52.52,0,0,0,.38-.17.63.63,0,0,0,.15-.44.55.55,0,0,0-.14-.41.49.49,0,0,0-.39-.15.43.43,0,0,0-.27.06.49.49,0,0,0-.18.17l-.29,0,.25-1.27h1.24v.29h-1l-.14.67a.79.79,0,0,1,.48-.16.81.81,0,0,1,.55.23.79.79,0,0,1,.21.59.87.87,0,0,1-.2.58.75.75,0,0,1-.65.29A.81.81,0,0,1,112,110,.77.77,0,0,1,111.72,109.45Z"/><path class="cls-77" d="M121.79,108.25l-.3,0a.57.57,0,0,0-.12-.26.38.38,0,0,0-.3-.13.34.34,0,0,0-.26.08.65.65,0,0,0-.23.3,1.5,1.5,0,0,0-.09.58.65.65,0,0,1,.27-.25.67.67,0,0,1,.33-.08.7.7,0,0,1,.53.23.81.81,0,0,1,.21.58,1,1,0,0,1-.11.44.74.74,0,0,1-.28.3.75.75,0,0,1-.4.11.78.78,0,0,1-.62-.29,1.42,1.42,0,0,1-.24-.93,1.71,1.71,0,0,1,.28-1,.76.76,0,0,1,.63-.27.71.71,0,0,1,.48.16A.69.69,0,0,1,121.79,108.25Zm-1.26,1.06a.82.82,0,0,0,.07.31.48.48,0,0,0,.44.29.37.37,0,0,0,.33-.15.61.61,0,0,0,.14-.42.58.58,0,0,0-.13-.41.48.48,0,0,0-.7,0A.55.55,0,0,0,120.53,109.31Z"/></g><path class="cls-78" d="M103.33,100l1.59,0h0c0,.09-.9,2.28-1,2.47l-.3-.15c.07-.11.87-2,.9-2.07h-1.2Z"/><path class="cls-78" d="M112.32,101.15a.61.61,0,0,1-.28-.2.5.5,0,0,1-.1-.31.6.6,0,0,1,.2-.46.76.76,0,0,1,.53-.18.73.73,0,0,1,.52.19.6.6,0,0,1,.19.46.54.54,0,0,1-.09.31.6.6,0,0,1-.28.19.65.65,0,0,1,.35.24.68.68,0,0,1,.12.4.74.74,0,0,1-.23.54.93.93,0,0,1-1.19,0,.74.74,0,0,1-.22-.55.65.65,0,0,1,.12-.4A.63.63,0,0,1,112.32,101.15Zm-.17.63a.57.57,0,0,0,.06.25.39.39,0,0,0,.19.19.48.48,0,0,0,.26.07.51.51,0,0,0,.36-.14.49.49,0,0,0,.14-.36.45.45,0,0,0-.14-.36.5.5,0,0,0-.37-.15.48.48,0,0,0-.35.14A.46.46,0,0,0,112.15,101.78Zm.1-1.15a.4.4,0,0,0,.12.29.42.42,0,0,0,.3.11.39.39,0,0,0,.29-.11.37.37,0,0,0,.11-.27.38.38,0,0,0-.4-.4.44.44,0,0,0-.3.11A.42.42,0,0,0,112.25,100.63Z"/><path class="cls-78" d="M120.34,101.91l.29,0a.47.47,0,0,0,.14.3.43.43,0,0,0,.51,0,.47.47,0,0,0,.18-.16.94.94,0,0,0,.12-.3,1.5,1.5,0,0,0,0-.37.18.18,0,0,0,0-.06.62.62,0,0,1-.25.23.67.67,0,0,1-.34.09.71.71,0,0,1-.52-.22.81.81,0,0,1-.22-.6,1,1,0,0,1,.23-.61.77.77,0,0,1,.57-.22.78.78,0,0,1,.44.13.83.83,0,0,1,.3.38,1.64,1.64,0,0,1,.1.7,2.12,2.12,0,0,1-.11.75.9.9,0,0,1-.31.44.85.85,0,0,1-.48.14.68.68,0,0,1-.47-.17A.63.63,0,0,1,120.34,101.91Zm1.25-1.08a.53.53,0,0,0-.14-.42.41.41,0,0,0-.33-.16.52.52,0,0,0-.36.16.63.63,0,0,0-.15.44.5.5,0,0,0,.14.38.49.49,0,0,0,.35.15.47.47,0,0,0,.35-.14A.55.55,0,0,0,121.59,100.83Z"/><path class="cls-78" d="M104.57,117.27h-.3v-2a2.77,2.77,0,0,1-.29.21,1.55,1.55,0,0,1-.33.15v-.3a1.44,1.44,0,0,0,.45-.28,1.14,1.14,0,0,0,.28-.33h.2Z"/><path class="cls-78" d="M113.48,117v.29h-1.65a.52.52,0,0,1,0-.21,1.17,1.17,0,0,1,.2-.33,3,3,0,0,1,.4-.38,3.33,3.33,0,0,0,.56-.52.66.66,0,0,0,.14-.37.42.42,0,0,0-.13-.31.47.47,0,0,0-.34-.12.48.48,0,0,0-.35.13.49.49,0,0,0-.14.36l-.31,0a.84.84,0,0,1,1.38-.51.73.73,0,0,1,.21.49,1.09,1.09,0,0,1-.07.3,1.41,1.41,0,0,1-.2.3c-.1.1-.26.25-.48.43l-.35.31a1,1,0,0,0-.14.17Z"/><path class="cls-78" d="M120.3,116.59l.31,0a.67.67,0,0,0,.17.38.49.49,0,0,0,.31.11.47.47,0,0,0,.36-.14.5.5,0,0,0,.15-.37.44.44,0,0,0-.13-.35.48.48,0,0,0-.35-.14l-.22,0,0-.27h0a.6.6,0,0,0,.35-.1.34.34,0,0,0,.16-.31.39.39,0,0,0-.11-.28.44.44,0,0,0-.3-.11.38.38,0,0,0-.29.11.52.52,0,0,0-.16.33l-.3-.06a.76.76,0,0,1,.26-.47.73.73,0,0,1,.49-.17.75.75,0,0,1,.37.09.56.56,0,0,1,.26.24.58.58,0,0,1,.1.33.75.75,0,0,1-.09.29.69.69,0,0,1-.26.21.53.53,0,0,1,.34.21.65.65,0,0,1,.12.4.76.76,0,0,1-.24.56.84.84,0,0,1-.6.22.81.81,0,0,1-.55-.2A.77.77,0,0,1,120.3,116.59Z"/><path class="cls-78" d="M104.34,110.08v-.59h-1.08v-.28l1.14-1.61h.25v1.62H105v.28h-.34v.59Zm0-.87v-1.13l-.79,1.12Z"/><path class="cls-78" d="M111.83,109.39l.32,0a.61.61,0,0,0,.17.35.43.43,0,0,0,.31.12.52.52,0,0,0,.38-.17.62.62,0,0,0,.15-.44.56.56,0,0,0-.15-.41.49.49,0,0,0-.38-.15.6.6,0,0,0-.27.06.52.52,0,0,0-.18.18l-.29,0,.25-1.28h1.24v.29h-1l-.13.67a.8.8,0,0,1,.47-.15.74.74,0,0,1,.55.23.77.77,0,0,1,.21.58.91.91,0,0,1-.2.58.77.77,0,0,1-.65.3.86.86,0,0,1-.56-.19A.77.77,0,0,1,111.83,109.39Z"/><path class="cls-78" d="M121.9,108.19l-.31,0a.52.52,0,0,0-.11-.26.38.38,0,0,0-.3-.13.45.45,0,0,0-.26.08.68.68,0,0,0-.23.31,1.41,1.41,0,0,0-.09.57.72.72,0,0,1,.27-.25.8.8,0,0,1,.33-.08.68.68,0,0,1,.52.23.83.83,0,0,1,.22.58,1,1,0,0,1-.11.44.71.71,0,0,1-.68.41.79.79,0,0,1-.62-.28,1.44,1.44,0,0,1-.24-.93,1.65,1.65,0,0,1,.28-1.05.75.75,0,0,1,.62-.28.69.69,0,0,1,.48.17A.7.7,0,0,1,121.9,108.19Zm-1.26,1.07a.63.63,0,0,0,.07.3.44.44,0,0,0,.18.22.5.5,0,0,0,.26.08.43.43,0,0,0,.33-.15.6.6,0,0,0,.14-.43.59.59,0,0,0-.13-.41.49.49,0,0,0-.35-.15.47.47,0,0,0-.35.15A.53.53,0,0,0,120.64,109.26Z"/><g class="cls-7"><path class="cls-77" d="M103.19,123.58a2.2,2.2,0,0,1,.11-.75.86.86,0,0,1,.28-.44.76.76,0,0,1,.48-.15.75.75,0,0,1,.37.09.69.69,0,0,1,.26.25,1,1,0,0,1,.16.39,2.12,2.12,0,0,1,.06.62,2.52,2.52,0,0,1-.1.75.92.92,0,0,1-.29.44.73.73,0,0,1-.48.15.75.75,0,0,1-.6-.28A1.78,1.78,0,0,1,103.19,123.58Zm.33,0a1.72,1.72,0,0,0,.15.87.46.46,0,0,0,.38.21.44.44,0,0,0,.37-.21,1.74,1.74,0,0,0,.16-.86,1.67,1.67,0,0,0-.15-.87.46.46,0,0,0-.38-.21.39.39,0,0,0-.35.18A1.67,1.67,0,0,0,103.52,123.58Z"/><path class="cls-77" d="M110.83,123.57a2.54,2.54,0,0,1,.1-.76.91.91,0,0,1,.29-.43.7.7,0,0,1,.48-.16.75.75,0,0,1,.37.09.63.63,0,0,1,.26.25,1.38,1.38,0,0,1,.16.39,2.59,2.59,0,0,1,.06.62,2.52,2.52,0,0,1-.1.75.88.88,0,0,1-.29.44.73.73,0,0,1-.48.15.71.71,0,0,1-.59-.27A1.7,1.7,0,0,1,110.83,123.57Zm.34,0a1.58,1.58,0,0,0,.14.86.47.47,0,0,0,.37.22.44.44,0,0,0,.38-.22,1.63,1.63,0,0,0,.16-.86,1.65,1.65,0,0,0-.15-.86.44.44,0,0,0-.38-.22.41.41,0,0,0-.35.19A1.66,1.66,0,0,0,111.17,123.57Z"/><path class="cls-77" d="M112.77,123.6a2.51,2.51,0,0,1,.09-.75.94.94,0,0,1,.29-.44.66.66,0,0,1,.48-.15.75.75,0,0,1,.37.08.63.63,0,0,1,.26.25,1.14,1.14,0,0,1,.16.39,2.65,2.65,0,0,1,.06.62,2.59,2.59,0,0,1-.1.76.91.91,0,0,1-.29.43.82.82,0,0,1-1.08-.12A1.71,1.71,0,0,1,112.77,123.6Zm.33,0a1.58,1.58,0,0,0,.14.86.43.43,0,0,0,.75,0,1.63,1.63,0,0,0,.15-.86,1.58,1.58,0,0,0-.14-.86.45.45,0,0,0-.38-.22.41.41,0,0,0-.35.19A1.57,1.57,0,0,0,113.1,123.6Z"/></g><path class="cls-78" d="M103.25,123.51a2.47,2.47,0,0,1,.1-.75.9.9,0,0,1,.29-.44.71.71,0,0,1,.48-.15.75.75,0,0,1,.37.09.66.66,0,0,1,.26.24,1.14,1.14,0,0,1,.16.39,2.68,2.68,0,0,1,.06.63,2.62,2.62,0,0,1-.1.75,1,1,0,0,1-.29.43.71.71,0,0,1-.48.16.78.78,0,0,1-.6-.28A1.78,1.78,0,0,1,103.25,123.51Zm.33,0a1.62,1.62,0,0,0,.15.87.44.44,0,0,0,.37.21.46.46,0,0,0,.38-.21,1.68,1.68,0,0,0,.15-.86,1.6,1.6,0,0,0-.14-.87.51.51,0,0,0-.38-.22.42.42,0,0,0-.35.19A1.67,1.67,0,0,0,103.58,123.51Z"/><path class="cls-78" d="M110.89,123.49a2.52,2.52,0,0,1,.1-.75.94.94,0,0,1,.29-.44.83.83,0,0,1,.85-.06.77.77,0,0,1,.26.25,1.27,1.27,0,0,1,.16.39,2.53,2.53,0,0,1,.06.62,2.89,2.89,0,0,1-.1.75,1,1,0,0,1-.29.44.76.76,0,0,1-.48.15.72.72,0,0,1-.6-.28A1.76,1.76,0,0,1,110.89,123.49Zm.33,0a1.7,1.7,0,0,0,.15.87.44.44,0,0,0,.37.21.42.42,0,0,0,.38-.21,2.49,2.49,0,0,0,0-1.73.46.46,0,0,0-.38-.21.39.39,0,0,0-.35.19A1.6,1.6,0,0,0,111.22,123.49Z"/><path class="cls-78" d="M112.82,123.52a2.52,2.52,0,0,1,.1-.75.92.92,0,0,1,.29-.44.73.73,0,0,1,.47-.15.76.76,0,0,1,.38.09.75.75,0,0,1,.26.24,1.59,1.59,0,0,1,.16.4,2.53,2.53,0,0,1,.06.62,2.89,2.89,0,0,1-.1.75.94.94,0,0,1-.29.44.76.76,0,0,1-.48.15.73.73,0,0,1-.6-.27A1.79,1.79,0,0,1,112.82,123.52Zm.33,0a1.68,1.68,0,0,0,.15.86.45.45,0,0,0,.37.22.47.47,0,0,0,.38-.22,1.65,1.65,0,0,0,.15-.86,1.58,1.58,0,0,0-.14-.86.44.44,0,0,0-.38-.22.41.41,0,0,0-.36.19A1.64,1.64,0,0,0,113.15,123.53Z"/><rect class="cls-79" x="120.99" y="123.28" width="0.51" height="0.51"/><rect class="cls-80" x="121.07" y="123.19" width="0.51" height="0.51"/><path class="cls-79" d="M129.57,118.63v-.89h-.89v-.37h.89v-.89H130v.89h.89v.38H130v.9Z"/><path class="cls-78" d="M129.64,118.55v-.9h-.88v-.37h.89v-.89H130v.89h.9v.38H130v.9Z"/><path class="cls-79" d="M128.68,109.77l.77-1.09-.7-1h.44l.32.49.15.24c.05-.09.11-.16.15-.23l.36-.5h.43l-.73,1,.77,1.11h-.44l-.42-.65-.12-.18-.55.82Z"/><path class="cls-78" d="M128.74,109.71l.77-1.08-.7-1h.44l.32.49a2.36,2.36,0,0,1,.14.24l.16-.23.36-.49h.42l-.73,1,.78,1.11h-.44l-.43-.66-.11-.17-.56.82Z"/><path class="cls-79" d="M139.18,123.23l-2,0v-.35h2Zm0,.93-2,0v-.35h2Z"/><path class="cls-78" d="M139.25,123.18h-2v-.35h2Zm0,.93h-2v-.35h2Z"/><path class="cls-79" d="M139.22,116.27l-2,0v-.35h2Z"/><path class="cls-78" d="M139.25,116.22h-2v-.36l2,0Z"/><g class="cls-7"><path class="cls-77" d="M139.29,108.85h-2v-.35h2Z"/><path class="cls-77" d="M138.51,108H138v-.35h.47Z"/><path class="cls-77" d="M138.51,109.74H138v-.35h.47Z"/></g><path class="cls-78" d="M139.33,108.81h-2v-.35h2Z"/><path class="cls-78" d="M138.55,107.94h-.47v-.35h.47Z"/><path class="cls-78" d="M138.55,109.7h-.47v-.35h.47Z"/><path class="cls-79" d="M128.52,100.72a.73.73,0,0,1,.14-.45.44.44,0,0,1,.39-.19.51.51,0,0,1,.39.17.73.73,0,0,1,.16.5.72.72,0,0,1-.16.49.5.5,0,0,1-.39.17.49.49,0,0,1-.38-.17A.79.79,0,0,1,128.52,100.72Zm.54-.43a.22.22,0,0,0-.19.1.56.56,0,0,0-.08.36.55.55,0,0,0,.07.34.24.24,0,0,0,.19.11.26.26,0,0,0,.2-.1.75.75,0,0,0,.08-.37.58.58,0,0,0-.08-.34A.24.24,0,0,0,129.06,100.29Zm0,2.44,1.39-2.64h.25l-1.39,2.64Zm1.09-.68a.78.78,0,0,1,.14-.46.46.46,0,0,1,.4-.18.54.54,0,0,1,.39.17.75.75,0,0,1,.15.5.77.77,0,0,1-.16.49.5.5,0,0,1-.39.17.48.48,0,0,1-.38-.18A.74.74,0,0,1,130.14,102.05Zm.54-.43a.28.28,0,0,0-.2.1.65.65,0,0,0-.07.36.55.55,0,0,0,.07.34.23.23,0,0,0,.2.11.23.23,0,0,0,.19-.1.65.65,0,0,0,.08-.37.58.58,0,0,0-.08-.34A.24.24,0,0,0,130.68,101.62Z"/><path class="cls-78" d="M128.55,100.65a.76.76,0,0,1,.14-.46.43.43,0,0,1,.39-.18.48.48,0,0,1,.39.17.75.75,0,0,1,.16.5.69.69,0,0,1-.16.48.48.48,0,0,1-.4.17.45.45,0,0,1-.37-.17A.69.69,0,0,1,128.55,100.65Zm.54-.43a.22.22,0,0,0-.19.1.64.64,0,0,0-.08.36.51.51,0,0,0,.07.34.24.24,0,0,0,.19.1.22.22,0,0,0,.2-.09.75.75,0,0,0,.08-.37.58.58,0,0,0-.08-.34A.23.23,0,0,0,129.09,100.22Zm0,2.44,1.4-2.64h.25l-1.39,2.64Zm1.1-.68a.78.78,0,0,1,.14-.46.43.43,0,0,1,.39-.18.51.51,0,0,1,.39.17.64.64,0,0,1,.15.5.74.74,0,0,1-.15.49.54.54,0,0,1-.39.17.52.52,0,0,1-.38-.17A.79.79,0,0,1,130.17,102Zm.54-.43a.22.22,0,0,0-.19.1.56.56,0,0,0-.08.36.57.57,0,0,0,.07.34.26.26,0,0,0,.19.11.28.28,0,0,0,.2-.1A.65.65,0,0,0,131,102a.58.58,0,0,0-.08-.34A.26.26,0,0,0,130.71,101.55Z"/><g class="cls-7"><path class="cls-77" d="M120.12,95V93.1h.38l.43,1.32a2.19,2.19,0,0,1,.08.27l.11-.29.45-1.29h.33V95h-.24V93.41L121.12,95h-.23l-.52-1.58V95Z"/><path class="cls-77" d="M122.18,94.41v-.23h.7v.23Z"/></g><path class="cls-81" d="M120.2,94.88V93h.37l.43,1.32a2.76,2.76,0,0,1,.09.27l.1-.3.45-1.28H122v1.85h-.24l0-1.55-.55,1.55H121l-.52-1.59v1.59Z"/><path class="cls-81" d="M122.25,94.33v-.22H123v.23Z"/><g class="cls-7"><path class="cls-77" d="M111.42,94.92V93.16h.35l.41,1.25a2.78,2.78,0,0,0,.09.27,2.75,2.75,0,0,1,.09-.29l.43-1.22h.31v1.76h-.23V93.46l-.52,1.47h-.22l-.5-1.51v1.5Z"/><path class="cls-77" d="M113.9,94.65v-.48h-.48V94h.48v-.48h.21V94h.48v.2h-.48v.48Z"/></g><path class="cls-81" d="M111.47,94.84V93.08h.36l.41,1.25c0,.12.06.2.08.26l.09-.28.43-1.23h.31v1.76h-.22V93.37l-.52,1.47h-.21l-.5-1.5v1.5Z"/><path class="cls-81" d="M114,94.57v-.49h-.48v-.2H114V93.4h.2v.47h.48v.2h-.48v.49Z"/><g class="cls-7"><path class="cls-77" d="M102.61,94.79v-1.6h.32l.37,1.13.08.24c0-.06,0-.14.08-.26l.4-1.11h.28v1.6h-.2V93.45l-.48,1.34h-.19l-.45-1.37v1.37Z"/><path class="cls-77" d="M105.63,94.24l.21.06a.67.67,0,0,1-.24.39.64.64,0,0,1-.43.14.77.77,0,0,1-.42-.11.66.66,0,0,1-.24-.3,1.08,1.08,0,0,1-.08-.44.85.85,0,0,1,.1-.43.61.61,0,0,1,.27-.28.65.65,0,0,1,.39-.09.6.6,0,0,1,.4.12.65.65,0,0,1,.23.34l-.21,0a.47.47,0,0,0-.16-.25.38.38,0,0,0-.26-.08.42.42,0,0,0-.31.08.43.43,0,0,0-.18.24.79.79,0,0,0,0,.3.8.8,0,0,0,.06.36.35.35,0,0,0,.18.23.5.5,0,0,0,.27.08.49.49,0,0,0,.3-.1A.55.55,0,0,0,105.63,94.24Z"/></g><path class="cls-81" d="M102.64,94.75l0-1.61H103l.38,1.14c0,.11.06.19.07.24l.09-.26.39-1.11h.28v1.6H104V93.41l-.48,1.34h-.19l-.45-1.37v1.37Z"/><path class="cls-81" d="M105.66,94.2l.22,0a.71.71,0,0,1-.25.4.64.64,0,0,1-.42.14.77.77,0,0,1-.42-.11.6.6,0,0,1-.25-.31,1.22,1.22,0,0,1-.08-.43,1,1,0,0,1,.1-.43.63.63,0,0,1,.27-.29.86.86,0,0,1,.39-.09.63.63,0,0,1,.4.12.66.66,0,0,1,.23.35l-.21.05a.55.55,0,0,0-.16-.26.46.46,0,0,0-.27-.08.54.54,0,0,0-.31.09.53.53,0,0,0-.17.24,1,1,0,0,0,0,.3,1,1,0,0,0,.06.36.38.38,0,0,0,.18.23.5.5,0,0,0,.27.08.49.49,0,0,0,.3-.1A.56.56,0,0,0,105.66,94.2Z"/><g class="cls-7"><path class="cls-77" d="M128.67,94.69v-.61h-.56v-.25h.56v-.6h.23v.6h.56v.25h-.56v.61Z"/><path class="cls-77" d="M129.62,95.08l.61-2.25h.2l-.6,2.26Z"/><path class="cls-77" d="M130.51,94.39v-.27h.78v.27Z"/></g><path class="cls-81" d="M128.73,94.6V94h-.56v-.26h.56v-.6H129v.6h.56V94H129v.6Z"/><path class="cls-81" d="M129.68,95l.61-2.25h.21L129.89,95Z"/><path class="cls-81" d="M130.58,94.31V94h.77v.27Z"/><g class="cls-7"><path class="cls-8" d="M152.71,139.5c0,2.68-9.21,4.85-20.55,4.85s-20.56-2.17-20.56-4.85,9.2-4.86,20.56-4.86S152.71,136.81,152.71,139.5Z"/><path class="cls-82" d="M152.35,139.45c0,2.7-9.19,4.76-20,4.76-11.07,0-20-2.12-20-4.76s8.78-4.69,20-4.68C143.16,134.77,152.36,136.84,152.35,139.45Z"/><path class="cls-83" d="M152,139.41c0,2.71-9.18,4.66-19.47,4.66-10.8,0-19.44-2.08-19.47-4.67s8.36-4.53,19.46-4.51C142.81,134.89,152,136.88,152,139.41Z"/><path class="cls-84" d="M151.64,139.36c0,2.74-9.16,4.6-18.93,4.57-10.51,0-18.88-2-18.91-4.58,0-2.36,7.93-4.36,18.9-4.33C142.46,135,151.67,136.91,151.64,139.36Z"/><path class="cls-85" d="M151.29,139.32c0,2.75-9.15,4.51-18.39,4.48-10.24,0-18.32-2-18.37-4.49,0-2.26,7.51-4.2,18.35-4.16C142.11,135.15,151.33,136.94,151.29,139.32Z"/><path class="cls-86" d="M150.93,139.27c-.06,2.78-9.13,4.43-17.84,4.39-10,0-17.76-1.94-17.82-4.4-.06-2.15,7.08-4,17.79-4C141.77,135.29,151,137,150.93,139.27Z"/><path class="cls-87" d="M150.58,139.22c-.07,2.8-9.12,4.35-17.31,4.3-9.68-.06-17.2-1.89-17.27-4.31-.06-2,6.66-3.84,17.24-3.81C141.42,135.43,150.64,137,150.58,139.22Z"/><path class="cls-88" d="M150.22,139.18c-.08,2.81-9.11,4.26-16.76,4.21-9.4-.08-16.64-1.85-16.73-4.23-.07-1.93,6.24-3.67,16.69-3.63C141.07,135.55,150.29,137,150.22,139.18Z"/><path class="cls-89" d="M149.87,139.13c-.1,2.84-9.1,4.18-16.22,4.12-9.13-.08-16.08-1.8-16.18-4.14-.08-1.81,5.81-3.49,16.13-3.45C140.72,135.68,149.94,137.08,149.87,139.13Z"/><path class="cls-90" d="M149.51,139.09c-.11,2.85-9.08,4.09-15.68,4-8.84-.09-15.51-1.75-15.63-4-.08-1.71,5.39-3.33,15.58-3.29C140.38,135.81,149.59,137.11,149.51,139.09Z"/><path class="cls-91" d="M149.16,139c-.13,2.87-9.07,4-15.14,3.93-8.57-.1-15-1.7-15.08-3.95-.1-1.6,5-3.16,15-3.11C140,135.94,149.24,137.14,149.16,139Z"/><path class="cls-92" d="M148.8,139c-.14,2.89-9.05,3.91-14.59,3.84-8.3-.12-14.4-1.66-14.54-3.87-.1-1.49,4.54-3,14.47-2.93C139.68,136.07,148.89,137.18,148.8,139Z"/><path class="cls-93" d="M148.45,139c-.16,2.91-9,3.83-14.06,3.75-8-.13-13.83-1.62-14-3.78-.1-1.38,4.12-2.82,13.92-2.76C139.33,136.2,148.54,137.21,148.45,139Z"/><path class="cls-94" d="M148.09,138.91c-.17,2.93-9,3.73-13.51,3.65-7.74-.13-13.27-1.57-13.44-3.69-.11-1.27,3.69-2.65,13.36-2.58C139,136.32,148.19,137.24,148.09,138.91Z"/><path class="cls-95" d="M147.74,138.86c-.2,2.95-9,3.64-13,3.56-7.46-.14-12.71-1.52-12.9-3.59-.11-1.17,3.26-2.49,12.81-2.41C138.64,136.45,147.84,137.28,147.74,138.86Z"/><path class="cls-96" d="M147.38,138.81c-.21,3-9,3.55-12.43,3.48-7.18-.16-12.14-1.48-12.34-3.51-.11-1.06,2.83-2.31,12.25-2.23C138.29,136.58,147.49,137.31,147.38,138.81Z"/><path class="cls-97" d="M147,138.77c-.23,3-9,3.45-11.89,3.38-6.9-.17-11.57-1.43-11.8-3.42-.11-.95,2.41-2.14,11.7-2.06C137.94,136.7,147.14,137.34,147,138.77Z"/><path class="cls-98" d="M146.67,138.72c-.25,3-9,3.36-11.34,3.29-6.63-.18-11-1.38-11.26-3.33-.11-.84,2-2,11.15-1.88C137.59,136.82,146.79,137.38,146.67,138.72Z"/><path class="cls-99" d="M146.32,138.68c-.28,3-9,3.25-10.81,3.19-6.35-.19-10.42-1.33-10.7-3.24-.11-.73,1.56-1.81,10.59-1.7C137.25,137,146.44,137.41,146.32,138.68Z"/><path class="cls-100" d="M146,138.63c-.31,3.05-8.95,3.15-10.27,3.11-6.07-.22-9.85-1.29-10.16-3.15-.1-.63,1.14-1.65,10-1.54C136.9,137.07,146.08,137.44,146,138.63Z"/><path class="cls-101" d="M145.61,138.59c-.34,3.06-8.93,3-9.72,3-5.8-.24-9.26-1.25-9.62-3.06-.1-.52.72-1.5,9.49-1.36C136.55,137.19,145.73,137.48,145.61,138.59Z"/><path class="cls-102" d="M145.26,138.54c-.36,3.08-8.93,2.94-9.19,2.92-5.51-.41-8.66-1.21-9.06-3-.1-.41.29-1.38,8.93-1.18C136.2,137.32,145.38,137.51,145.26,138.54Z"/></g><g class="cls-7"><path class="cls-8" d="M169.64,140.22c0,2.68-9.2,4.85-20.56,4.85s-20.55-2.17-20.55-4.85,9.2-4.86,20.55-4.86S169.64,137.53,169.64,140.22Z"/><path class="cls-82" d="M169.28,140.17c0,2.7-9.18,4.76-20,4.76-11.07,0-20-2.12-20-4.76s8.77-4.69,20-4.68C160.09,135.49,169.3,137.57,169.28,140.17Z"/><path class="cls-83" d="M168.93,140.13c0,2.72-9.17,4.67-19.47,4.66-10.8,0-19.44-2.07-19.46-4.67s8.35-4.53,19.45-4.51C159.74,135.61,169,137.6,168.93,140.13Z"/><path class="cls-84" d="M168.57,140.08c0,2.74-9.16,4.61-18.93,4.58-10.51,0-18.87-2-18.91-4.59,0-2.35,7.93-4.36,18.9-4.33C159.4,135.74,168.61,137.63,168.57,140.08Z"/><path class="cls-85" d="M168.22,140c-.05,2.76-9.15,4.53-18.39,4.49-10.24,0-18.31-2-18.36-4.49-.05-2.25,7.5-4.2,18.34-4.16C159.05,135.87,168.26,137.67,168.22,140Z"/><path class="cls-86" d="M167.87,140c-.06,2.78-9.14,4.44-17.85,4.39-10,0-17.76-1.94-17.82-4.4,0-2.14,7.08-4,17.79-4C158.7,136,167.92,137.7,167.87,140Z"/><path class="cls-87" d="M167.51,139.94c-.07,2.8-9.12,4.36-17.31,4.3-9.68-.06-17.19-1.89-17.27-4.31-.06-2,6.66-3.84,17.24-3.81C158.35,136.15,167.57,137.73,167.51,139.94Z"/><path class="cls-88" d="M167.16,139.9c-.09,2.81-9.11,4.27-16.77,4.21-9.4-.08-16.64-1.85-16.72-4.23-.07-1.92,6.23-3.67,16.68-3.63C158,136.28,167.22,137.77,167.16,139.9Z"/><path class="cls-89" d="M166.8,139.85c-.1,2.84-9.09,4.18-16.22,4.12-9.13-.08-16.08-1.8-16.18-4.14-.08-1.81,5.81-3.49,16.13-3.45C157.66,136.41,166.87,137.8,166.8,139.85Z"/><path class="cls-90" d="M166.45,139.81c-.12,2.85-9.08,4.09-15.69,4-8.85-.09-15.51-1.75-15.63-4-.08-1.71,5.39-3.33,15.58-3.29C157.31,136.53,166.53,137.83,166.45,139.81Z"/><path class="cls-91" d="M166.09,139.76c-.13,2.88-9.07,4-15.14,3.93-8.57-.1-14.95-1.7-15.08-3.95-.09-1.6,5-3.16,15-3.11C157,136.66,166.18,137.87,166.09,139.76Z"/><path class="cls-92" d="M165.74,139.72c-.15,2.89-9.06,3.91-14.6,3.84-8.3-.12-14.4-1.66-14.54-3.87-.1-1.49,4.54-3,14.47-2.93C156.61,136.79,165.83,137.9,165.74,139.72Z"/><path class="cls-93" d="M165.38,139.67c-.16,2.91-9,3.83-14.06,3.75-8-.13-13.83-1.61-14-3.78-.1-1.38,4.12-2.82,13.92-2.75C156.27,136.92,165.48,137.93,165.38,139.67Z"/><path class="cls-94" d="M165,139.62c-.18,2.94-9,3.74-13.52,3.66-7.74-.14-13.27-1.56-13.44-3.68-.11-1.28,3.69-2.65,13.36-2.59C155.92,137.05,165.13,138,165,139.62Z"/><path class="cls-95" d="M164.67,139.58c-.19,2.95-9,3.64-13,3.56-7.46-.14-12.71-1.51-12.9-3.59-.11-1.17,3.27-2.48,12.81-2.41C155.57,137.17,164.78,138,164.67,139.58Z"/><path class="cls-96" d="M164.32,139.53c-.21,3-9,3.55-12.44,3.48-7.18-.16-12.13-1.47-12.34-3.51-.11-1.06,2.83-2.31,12.25-2.23C155.22,137.3,164.43,138,164.32,139.53Z"/><path class="cls-97" d="M164,139.49c-.23,3-9,3.45-11.89,3.38-6.91-.17-11.57-1.42-11.8-3.42-.11-.95,2.41-2.14,11.7-2C154.88,137.42,164.08,138.07,164,139.49Z"/><path class="cls-98" d="M163.61,139.44c-.25,3-9,3.36-11.35,3.29-6.63-.19-11-1.37-11.26-3.33-.11-.84,2-2,11.15-1.88C154.53,137.55,163.72,138.1,163.61,139.44Z"/><path class="cls-99" d="M163.26,139.4c-.28,3-9,3.25-10.82,3.19-6.35-.2-10.43-1.33-10.7-3.23-.11-.74,1.56-1.81,10.59-1.71C154.18,137.67,163.37,138.13,163.26,139.4Z"/><path class="cls-100" d="M162.9,139.35c-.3,3.05-9,3.16-10.27,3.11-6.07-.23-9.85-1.29-10.16-3.15-.11-.63,1.14-1.65,10-1.53C153.83,137.8,163,138.17,162.9,139.35Z"/><path class="cls-101" d="M162.55,139.31c-.33,3.06-8.94,3-9.73,3-5.8-.26-9.27-1.24-9.62-3.06-.1-.52.72-1.5,9.49-1.35C153.48,137.92,162.66,138.2,162.55,139.31Z"/><path class="cls-102" d="M162.19,139.26c-.36,3.08-8.92,2.94-9.19,2.92-5.51-.41-8.66-1.2-9.06-3-.1-.41.29-1.38,8.93-1.18C153.14,138,162.31,138.23,162.19,139.26Z"/></g><path class="cls-103" d="M127.18,134.29v2.54c.14,2.4,4.14,4.3,9,4.3s8.88-1.89,9-4.29v-2.55Z"/><path class="cls-104" d="M136.2,140.91c-4.86,0-8.82-1.87-9-4.23v.15c.14,2.4,4.14,4.3,9,4.3s8.88-1.89,9-4.29v-.21C145.08,139,141.09,140.91,136.2,140.91Z"/><path class="cls-105" d="M145.22,134.61c0,2.46-4,4.45-9,4.45s-9-2-9-4.45,4-4.45,9-4.45S145.22,132.16,145.22,134.61Z"/><path class="cls-106" d="M145.22,134.43c0-2.45-4-4.44-9-4.44s-9,2-9,4.44a2.18,2.18,0,0,0,.13.72c0-.08,0-.15,0-.22-.36-2.69,4-4.63,8.92-4.63s9.24,2.07,8.92,4.63a1.46,1.46,0,0,0,0,.22A2.18,2.18,0,0,0,145.22,134.43Z"/><path class="cls-107" d="M145.09,133.92a1.92,1.92,0,0,0,0,.22c.32,2.55-4,4.63-8.92,4.63s-9.28-2-8.92-4.63c0-.08,0-.15,0-.22a2.17,2.17,0,0,0-.13.71c0,2.46,4,4.45,9,4.45s9-2,9-4.45A2.17,2.17,0,0,0,145.09,133.92Z"/><path class="cls-108" d="M136,130.81c-4.79,0-8.66,1.74-8.66,3.88s3.87,3.88,8.66,3.88,8.65-1.74,8.65-3.88S140.75,130.81,136,130.81Zm0,6.9c-4.11,0-7.43-1.4-7.43-3.11s3.32-3.11,7.43-3.11,7.42,1.39,7.42,3.11S140.08,137.71,136,137.71Z"/><path class="cls-109" d="M136.18,130.08c-5,0-9,2-9,4.42s4,4.43,9,4.43,9-2,9-4.43S141.14,130.08,136.18,130.08Zm0,7.88c-4.26,0-7.7-1.59-7.7-3.56s3.44-3.56,7.7-3.56,7.69,1.6,7.69,3.56S140.44,138,136.19,138Z"/><path class="cls-110" d="M126.34,131.2v2.53h0c.14,2.4,4.13,4.3,9,4.3s8.88-1.89,9-4.29V131.2Z"/><path class="cls-111" d="M135.36,137.83c-4.86,0-8.83-1.88-9-4.24v.15c.14,2.4,4.13,4.3,9,4.3s8.88-1.89,9-4.29v-.21C144.24,135.93,140.25,137.83,135.36,137.83Z"/><path class="cls-112" d="M144.38,131.52c0,2.46-4,4.45-9,4.45s-9-2-9-4.45,4-4.44,9-4.44S144.38,129.07,144.38,131.52Z"/><path class="cls-113" d="M144.38,131.35c0-2.46-4-4.45-9-4.45s-9,2-9,4.45a2.17,2.17,0,0,0,.13.71l0-.22c-.35-2.68,4-4.63,8.93-4.63s9.24,2.08,8.91,4.63a1.5,1.5,0,0,1,0,.22A2.17,2.17,0,0,0,144.38,131.35Z"/><path class="cls-114" d="M144.25,130.83a1.5,1.5,0,0,1,0,.22c.33,2.55-4,4.63-8.91,4.63s-9.28-2-8.93-4.63l0-.22a2.18,2.18,0,0,0-.13.72c0,2.45,4,4.44,9,4.44s9-2,9-4.44A2.18,2.18,0,0,0,144.25,130.83Z"/><path class="cls-115" d="M135.13,127.72c-4.78,0-8.65,1.74-8.65,3.89s3.87,3.87,8.65,3.87,8.66-1.74,8.66-3.87S139.91,127.72,135.13,127.72Zm0,6.9c-4.1,0-7.42-1.39-7.42-3.11s3.32-3.11,7.42-3.11,7.43,1.39,7.43,3.11S139.23,134.62,135.13,134.62Z"/><path class="cls-116" d="M135.34,127c-5,0-9,2-9,4.43s4,4.43,9,4.43,9-2,9-4.43S140.3,127,135.34,127Zm0,7.88c-4.25,0-7.7-1.59-7.7-3.56s3.45-3.55,7.7-3.55,7.7,1.59,7.7,3.55S139.59,134.87,135.34,134.87Z"/><path class="cls-117" d="M126.2,128v2.55c.14,2.39,4.14,4.29,9,4.29s8.88-1.89,9-4.28V128Z"/><path class="cls-118" d="M135.22,134.6c-4.86,0-8.82-1.87-9-4.24v.16c.14,2.39,4.14,4.29,9,4.29s8.88-1.89,9-4.28v-.22C144.1,132.71,140.11,134.6,135.22,134.6Z"/><path class="cls-119" d="M144.24,128.3c0,2.45-4.05,4.44-9,4.44s-9-2-9-4.44,4-4.45,9-4.45S144.24,125.84,144.24,128.3Z"/><path class="cls-120" d="M144.24,128.12c0-2.46-4.05-4.44-9-4.44s-9,2-9,4.44a2.28,2.28,0,0,0,.13.72c0-.07,0-.15,0-.23-.36-2.68,4-4.63,8.92-4.63s9.24,2.08,8.91,4.63c0,.08,0,.16,0,.23A2.28,2.28,0,0,0,144.24,128.12Z"/><path class="cls-121" d="M144.11,127.6c0,.07,0,.15,0,.22.33,2.55-4,4.64-8.91,4.64s-9.28-2-8.92-4.64c0-.07,0-.15,0-.22a2.18,2.18,0,0,0-.13.72c0,2.46,4,4.45,9,4.45s9-2,9-4.45A2.18,2.18,0,0,0,144.11,127.6Z"/><path class="cls-122" d="M135,124.5c-4.78,0-8.65,1.73-8.65,3.88s3.87,3.87,8.65,3.87,8.66-1.73,8.66-3.87S139.77,124.5,135,124.5Zm0,6.9c-4.1,0-7.42-1.4-7.42-3.12s3.32-3.11,7.42-3.11,7.43,1.39,7.43,3.11S139.09,131.4,135,131.4Z"/><path class="cls-123" d="M135.2,123.76c-4.95,0-9,2-9,4.43s4,4.43,9,4.43,9-2,9-4.43S140.16,123.76,135.2,123.76Zm0,7.88c-4.25,0-7.7-1.59-7.7-3.55s3.45-3.56,7.7-3.56,7.7,1.59,7.7,3.56S139.45,131.64,135.2,131.64Z"/><path class="cls-124" d="M128.16,125.17v2.54c.14,2.39,4.14,4.3,9,4.3s8.88-1.89,9-4.29v-2.55Z"/><path class="cls-125" d="M137.18,131.8c-4.86,0-8.82-1.88-9-4.25v.16c.14,2.39,4.14,4.3,9,4.3s8.88-1.89,9-4.29v-.21C146.06,129.9,142.07,131.8,137.18,131.8Z"/><path class="cls-126" d="M146.2,125.49c0,2.45-4,4.45-9,4.45s-9-2-9-4.45,4-4.44,9-4.44S146.2,123,146.2,125.49Z"/><path class="cls-127" d="M146.2,125.31c0-2.45-4-4.44-9-4.44s-9,2-9,4.44a2.54,2.54,0,0,0,.13.72c0-.07,0-.15,0-.22-.36-2.69,4-4.63,8.93-4.63s9.23,2.08,8.91,4.63a1.66,1.66,0,0,1,0,.22A2.23,2.23,0,0,0,146.2,125.31Z"/><path class="cls-128" d="M146.07,124.8a1.46,1.46,0,0,1,0,.22c.32,2.55-4,4.63-8.91,4.63s-9.29-2-8.93-4.63c0-.08,0-.15,0-.22a2.47,2.47,0,0,0-.13.71c0,2.46,4,4.45,9,4.45s9-2,9-4.45A2.17,2.17,0,0,0,146.07,124.8Z"/><path class="cls-129" d="M137,121.69c-4.79,0-8.66,1.74-8.66,3.88s3.87,3.88,8.66,3.88,8.65-1.74,8.65-3.88S141.73,121.69,137,121.69Zm0,6.9c-4.1,0-7.43-1.39-7.43-3.11s3.33-3.11,7.43-3.11,7.42,1.39,7.42,3.11S141.06,128.59,137,128.59Z"/><path class="cls-130" d="M137.16,121c-4.95,0-9,2-9,4.42s4,4.43,9,4.43,9-2,9-4.43S142.12,121,137.16,121Zm0,7.88c-4.24,0-7.69-1.59-7.69-3.56s3.45-3.56,7.69-3.56,7.71,1.6,7.71,3.56S141.42,128.84,137.16,128.84Z"/><path class="cls-131" d="M126.75,121.94v2.53h0c.14,2.4,4.14,4.3,9,4.3s8.88-1.89,9-4.29v-2.55Z"/><path class="cls-132" d="M135.78,128.57c-4.86,0-8.83-1.88-9-4.24v.15c.14,2.4,4.14,4.3,9,4.3s8.88-1.89,9-4.29v-.21C144.66,126.67,140.67,128.57,135.78,128.57Z"/><path class="cls-133" d="M144.8,122.26c0,2.46-4,4.45-9,4.45s-9-2-9-4.45,4-4.44,9-4.44S144.8,119.81,144.8,122.26Z"/><path class="cls-134" d="M144.8,122.08c0-2.45-4-4.44-9-4.44s-9,2-9,4.44a2.18,2.18,0,0,0,.13.72c0-.07,0-.15,0-.22-.36-2.69,4-4.63,8.92-4.63s9.24,2.08,8.91,4.63a1.64,1.64,0,0,1,0,.22A2.18,2.18,0,0,0,144.8,122.08Z"/><path class="cls-135" d="M144.67,121.57a1.5,1.5,0,0,1,0,.22c.33,2.55-4,4.63-8.91,4.63s-9.28-2-8.92-4.63c0-.08,0-.15,0-.22a2.17,2.17,0,0,0-.13.71c0,2.46,4,4.45,9,4.45s9-2,9-4.45A2.17,2.17,0,0,0,144.67,121.57Z"/><path class="cls-136" d="M135.55,118.47c-4.78,0-8.65,1.73-8.65,3.87s3.87,3.88,8.65,3.88,8.66-1.74,8.66-3.88S140.34,118.47,135.55,118.47Zm0,6.89c-4.1,0-7.42-1.39-7.42-3.11s3.32-3.11,7.42-3.11,7.43,1.39,7.43,3.11S139.65,125.36,135.55,125.36Z"/><path class="cls-137" d="M135.76,117.73c-4.95,0-9,2-9,4.43s4,4.43,9,4.43,9-2,9-4.43S140.72,117.73,135.76,117.73Zm0,7.88c-4.25,0-7.7-1.59-7.7-3.56s3.45-3.56,7.7-3.56,7.7,1.6,7.7,3.56S140,125.61,135.76,125.61Z"/><path class="cls-138" d="M143.91,124.34a8.82,8.82,0,0,0-1.19.9c-.25.37.1,3,.1,3.57s-.45,1.48-.45,2.14.1,1.8.1,1.8-.46,1.47-.52,1.82a7.44,7.44,0,0,0,.1,2,3.22,3.22,0,0,1,1.06,1c.31.55-.11,1.79.2,1.79s5.3.17,6.36-1.37S143.91,124.34,143.91,124.34Z"/><path class="cls-139" d="M144.79,135v2.54c.14,2.4,4.14,4.3,9,4.3s8.88-1.89,9-4.29V135Z"/><path class="cls-140" d="M153.81,141.62c-4.86,0-8.83-1.88-9-4.24v.15c.14,2.4,4.14,4.3,9,4.3s8.88-1.89,9-4.29v-.21C162.69,139.72,158.7,141.62,153.81,141.62Z"/><path class="cls-141" d="M162.83,135.31c0,2.46-4,4.45-9,4.45s-9-2-9-4.45,4-4.45,9-4.45S162.83,132.86,162.83,135.31Z"/><path class="cls-142" d="M162.83,135.13c0-2.45-4-4.44-9-4.44s-9,2-9,4.44a2.18,2.18,0,0,0,.13.72c0-.07,0-.14,0-.22-.36-2.68,4-4.63,8.92-4.63s9.24,2.08,8.91,4.63c0,.08,0,.15,0,.22A2.18,2.18,0,0,0,162.83,135.13Z"/><path class="cls-143" d="M162.7,134.62c0,.07,0,.15,0,.22.33,2.55-4,4.63-8.91,4.63s-9.28-1.94-8.92-4.63c0-.07,0-.15,0-.22a2.17,2.17,0,0,0-.13.71c0,2.46,4,4.45,9,4.45s9-2,9-4.45A2.17,2.17,0,0,0,162.7,134.62Z"/><path class="cls-144" d="M153.58,131.52c-4.78,0-8.65,1.73-8.65,3.87s3.87,3.88,8.65,3.88,8.66-1.74,8.66-3.88S158.37,131.52,153.58,131.52Zm0,6.89c-4.1,0-7.42-1.39-7.42-3.11s3.32-3.11,7.42-3.11,7.43,1.39,7.43,3.11S157.68,138.41,153.58,138.41Z"/><path class="cls-145" d="M153.79,130.78c-4.95,0-9,2-9,4.43s4,4.43,9,4.43,9-2,9-4.43S158.75,130.78,153.79,130.78Zm0,7.88c-4.24,0-7.69-1.59-7.69-3.56s3.45-3.55,7.69-3.55,7.7,1.59,7.7,3.55S158,138.66,153.79,138.66Z"/><path class="cls-146" d="M143.39,132.6v2.53l0,0c.15,2.39,4.15,4.29,9,4.29s8.87-1.89,9-4.28V132.6Z"/><path class="cls-147" d="M152.41,139.24c-4.86,0-8.83-1.88-9-4.25l0,.16c.15,2.39,4.15,4.29,9,4.29s8.87-1.89,9-4.28v-.22C161.28,137.34,157.3,139.24,152.41,139.24Z"/><path class="cls-148" d="M161.43,132.93c0,2.45-4,4.44-9,4.44s-9-2-9-4.44,4-4.45,9-4.45S161.43,130.47,161.43,132.93Z"/><path class="cls-149" d="M161.43,132.75c0-2.46-4-4.44-9-4.44s-9,2-9,4.44a2.53,2.53,0,0,0,.12.72c0-.07,0-.15,0-.23-.37-2.68,4-4.63,8.92-4.63s9.24,2.09,8.91,4.63c0,.08,0,.16,0,.23A2.23,2.23,0,0,0,161.43,132.75Z"/><path class="cls-150" d="M161.3,132.23c0,.08,0,.15,0,.23.33,2.55-4,4.62-8.91,4.62s-9.29-1.94-8.92-4.62c0-.08,0-.15,0-.23a2.47,2.47,0,0,0-.12.72c0,2.45,4,4.44,9,4.44s9-2,9-4.44A2.18,2.18,0,0,0,161.3,132.23Z"/><path class="cls-151" d="M152.18,129.13c-4.78,0-8.66,1.73-8.66,3.88s3.88,3.87,8.66,3.87,8.66-1.73,8.66-3.87S157,129.13,152.18,129.13Zm0,6.9c-4.1,0-7.42-1.4-7.42-3.11s3.32-3.12,7.42-3.12,7.43,1.39,7.43,3.12S156.28,136,152.18,136Z"/><path class="cls-152" d="M152.39,128.39c-5,0-9,2-9,4.43s4,4.43,9,4.43,9-2,9-4.43S157.35,128.39,152.39,128.39Zm0,7.88c-4.25,0-7.7-1.59-7.7-3.55s3.45-3.56,7.7-3.56,7.7,1.59,7.7,3.56S156.64,136.27,152.39,136.27Z"/><path class="cls-153" d="M144.5,130.5V133c.15,2.39,4.15,4.3,9,4.3s8.88-1.9,9-4.29V130.5Z"/><path class="cls-154" d="M153.53,137.13c-4.86,0-8.83-1.88-9-4.24V133c.15,2.39,4.15,4.3,9,4.3s8.88-1.9,9-4.29v-.21C162.41,135.23,158.42,137.13,153.53,137.13Z"/><path class="cls-155" d="M162.55,130.82c0,2.46-4,4.45-9,4.45s-9-2-9-4.45,4-4.44,9-4.44S162.55,128.37,162.55,130.82Z"/><path class="cls-156" d="M162.55,130.64c0-2.45-4-4.44-9-4.44s-9,2-9,4.44a2.18,2.18,0,0,0,.13.72c0-.07,0-.15,0-.22-.37-2.68,4-4.63,8.92-4.63s9.24,2.08,8.91,4.63a1.64,1.64,0,0,1,0,.22A2.18,2.18,0,0,0,162.55,130.64Z"/><path class="cls-157" d="M162.42,130.13a1.5,1.5,0,0,1,0,.22c.33,2.55-4,4.63-8.91,4.63s-9.29-1.95-8.92-4.63c0-.07,0-.15,0-.22a2.17,2.17,0,0,0-.13.71c0,2.46,4,4.45,9,4.45s9-2,9-4.45A2.17,2.17,0,0,0,162.42,130.13Z"/><path class="cls-158" d="M153.3,127c-4.78,0-8.66,1.73-8.66,3.87s3.88,3.88,8.66,3.88S162,133,162,130.9,158.08,127,153.3,127Zm0,6.89c-4.1,0-7.42-1.39-7.42-3.11s3.32-3.11,7.42-3.11,7.43,1.39,7.43,3.11S157.41,133.92,153.3,133.92Z"/><path class="cls-159" d="M153.52,126.29c-5,0-9,2-9,4.43s4,4.43,9,4.43,9-2,9-4.43S158.47,126.29,153.52,126.29Zm0,7.87c-4.26,0-7.71-1.58-7.71-3.54s3.45-3.56,7.71-3.56,7.69,1.59,7.69,3.56S157.77,134.16,153.52,134.16Z"/><path class="cls-160" d="M144.22,127.41v2.53h0c.15,2.4,4.14,4.3,9,4.3s8.88-1.89,9-4.29v-2.55Z"/><path class="cls-161" d="M153.25,134c-4.86,0-8.82-1.87-9-4.24V130c.15,2.4,4.14,4.3,9,4.3s8.88-1.89,9-4.29v-.21C162.13,132.15,158.14,134,153.25,134Z"/><path class="cls-162" d="M162.27,127.73c0,2.46-4,4.45-9,4.45s-9-2-9-4.45,4-4.44,9-4.44S162.27,125.28,162.27,127.73Z"/><path class="cls-163" d="M162.27,127.56c0-2.46-4-4.45-9-4.45s-9,2-9,4.45a2.28,2.28,0,0,0,.13.72,1.79,1.79,0,0,1,0-.23c-.37-2.68,4-4.63,8.93-4.63s9.23,2.08,8.9,4.63a1.79,1.79,0,0,1,0,.23A2.28,2.28,0,0,0,162.27,127.56Z"/><path class="cls-164" d="M162.14,127a1.64,1.64,0,0,1,0,.22c.33,2.55-4,4.63-8.9,4.63s-9.3-1.94-8.93-4.63a1.64,1.64,0,0,1,0-.22,2.18,2.18,0,0,0-.13.72c0,2.45,4,4.44,9,4.44s9-2,9-4.44A2.18,2.18,0,0,0,162.14,127Z"/><path class="cls-165" d="M153,123.94c-4.78,0-8.65,1.73-8.65,3.87s3.87,3.88,8.65,3.88,8.66-1.74,8.66-3.88S157.8,123.94,153,123.94Zm0,6.89c-4.1,0-7.43-1.39-7.43-3.11s3.33-3.11,7.43-3.11,7.43,1.4,7.43,3.11S157.12,130.83,153,130.83Z"/><path class="cls-166" d="M153.23,123.2c-4.95,0-9,2-9,4.43s4,4.43,9,4.43,9-2,9-4.43S158.19,123.2,153.23,123.2Zm0,7.88c-4.25,0-7.69-1.59-7.69-3.55S149,124,153.23,124s7.7,1.59,7.7,3.56S157.49,131.08,153.23,131.08Z"/><path class="cls-167" d="M143.39,124.32v2.53l0,0c.15,2.39,4.15,4.29,9,4.29s8.87-1.89,9-4.28v-2.56Z"/><path class="cls-168" d="M152.41,131c-4.86,0-8.83-1.87-9-4.24l0,.16c.15,2.39,4.15,4.29,9,4.29s8.87-1.89,9-4.28v-.21C161.28,129.06,157.3,131,152.41,131Z"/><path class="cls-169" d="M161.43,124.65c0,2.46-4,4.45-9,4.45s-9-2-9-4.45,4-4.45,9-4.45S161.43,122.19,161.43,124.65Z"/><path class="cls-170" d="M161.43,124.47c0-2.45-4-4.45-9-4.45s-9,2-9,4.45a2.23,2.23,0,0,0,.13.72,1.8,1.8,0,0,1,0-.22c-.37-2.69,4-4.63,8.92-4.63s9.24,2.07,8.91,4.63c0,.07,0,.14,0,.22A2.23,2.23,0,0,0,161.43,124.47Z"/><path class="cls-171" d="M161.3,124c0,.08,0,.15,0,.22.33,2.55-4,4.64-8.91,4.64s-9.29-2-8.92-4.64a1.8,1.8,0,0,1,0-.22,2.23,2.23,0,0,0-.13.72c0,2.46,4,4.45,9,4.45s9-2,9-4.45A2.23,2.23,0,0,0,161.3,124Z"/><path class="cls-172" d="M152.18,120.85c-4.78,0-8.66,1.74-8.66,3.88s3.88,3.87,8.66,3.87,8.66-1.73,8.66-3.87S157,120.85,152.18,120.85Zm0,6.9c-4.1,0-7.42-1.4-7.42-3.11s3.32-3.12,7.42-3.12,7.43,1.4,7.43,3.12S156.28,127.75,152.18,127.75Z"/><path class="cls-173" d="M152.39,120.12c-4.95,0-9,2-9,4.42s4,4.43,9,4.43,9-2,9-4.43S157.35,120.12,152.39,120.12Zm0,7.87c-4.25,0-7.7-1.59-7.7-3.55s3.45-3.56,7.7-3.56,7.7,1.6,7.7,3.56S156.64,128,152.39,128Z"/><path class="cls-174" d="M143.24,121.1v2.53h0c.15,2.4,4.14,4.3,9,4.3s8.89-1.9,9-4.29V121.1Z"/><path class="cls-175" d="M152.26,127.73c-4.85,0-8.82-1.88-9-4.25v.16c.15,2.4,4.14,4.3,9,4.3s8.89-1.9,9-4.29v-.21C161.15,125.83,157.16,127.73,152.26,127.73Z"/><path class="cls-176" d="M161.28,121.42c0,2.46-4,4.45-9,4.45s-9-2-9-4.45,4-4.44,9-4.44S161.28,119,161.28,121.42Z"/><path class="cls-177" d="M161.28,121.25c0-2.46-4-4.45-9-4.45s-9,2-9,4.45a2.17,2.17,0,0,0,.13.71l0-.22c-.36-2.68,4-4.63,8.93-4.63s9.23,2.07,8.91,4.63c0,.07,0,.15,0,.22A2.16,2.16,0,0,0,161.28,121.25Z"/><path class="cls-178" d="M161.16,120.72c0,.08,0,.15,0,.23.32,2.55-4,4.63-8.91,4.63s-9.29-2-8.93-4.63l0-.23a2.28,2.28,0,0,0-.13.72c0,2.46,4,4.45,9,4.45s9-2,9-4.45A2.27,2.27,0,0,0,161.16,120.72Z"/><path class="cls-179" d="M152,117.62c-4.78,0-8.65,1.74-8.65,3.88s3.87,3.88,8.65,3.88,8.65-1.74,8.65-3.88S156.82,117.62,152,117.62Zm0,6.9c-4.1,0-7.43-1.39-7.43-3.11s3.33-3.11,7.43-3.11,7.42,1.39,7.42,3.11S156.14,124.52,152,124.52Z"/><path class="cls-180" d="M152.25,116.89c-4.95,0-9,2-9,4.43s4,4.42,9,4.42,9-2,9-4.42S157.21,116.89,152.25,116.89Zm0,7.88c-4.25,0-7.7-1.59-7.7-3.56s3.45-3.55,7.7-3.55,7.7,1.59,7.7,3.55S156.5,124.77,152.25,124.77Z"/><path class="cls-181" d="M145.21,118.29v2.55c.14,2.39,4.14,4.29,9,4.29s8.88-1.89,9-4.29v-2.55Z"/><path class="cls-182" d="M154.23,124.92c-4.85,0-8.82-1.88-9-4.24v.16c.14,2.39,4.14,4.29,9,4.29s8.88-1.89,9-4.29v-.21C163.11,123,159.13,124.92,154.23,124.92Z"/><path class="cls-183" d="M163.25,118.61c0,2.46-4,4.45-9,4.45s-9-2-9-4.45,4-4.44,9-4.44S163.25,116.16,163.25,118.61Z"/><path class="cls-184" d="M163.25,118.43c0-2.45-4-4.44-9-4.44s-9,2-9,4.44a2.59,2.59,0,0,0,.12.73c0-.08,0-.15,0-.23-.36-2.68,4-4.63,8.93-4.63s9.23,2.08,8.91,4.63l0,.23A2.29,2.29,0,0,0,163.25,118.43Z"/><path class="cls-185" d="M163.12,117.92l0,.22c.32,2.55-4,4.63-8.91,4.63s-9.29-1.94-8.93-4.63c0-.07,0-.15,0-.22a2.47,2.47,0,0,0-.12.72c0,2.45,4,4.44,9,4.44s9-2,9-4.44A2.18,2.18,0,0,0,163.12,117.92Z"/><path class="cls-186" d="M154,114.82c-4.78,0-8.65,1.73-8.65,3.87s3.87,3.88,8.65,3.88,8.66-1.73,8.66-3.88S158.79,114.82,154,114.82Zm0,6.89c-4.11,0-7.43-1.39-7.43-3.11s3.32-3.11,7.43-3.11,7.42,1.39,7.42,3.11S158.1,121.71,154,121.71Z"/><path class="cls-187" d="M154.21,114.08c-5,0-9,2-9,4.43s4,4.43,9,4.43,9-2,9-4.43S159.17,114.08,154.21,114.08Zm0,7.88c-4.26,0-7.7-1.59-7.7-3.55s3.44-3.56,7.7-3.56,7.69,1.59,7.69,3.56S158.47,122,154.22,122Z"/><path class="cls-188" d="M143.81,115.06v2.55c.14,2.39,4.13,4.29,9,4.29s8.88-1.89,9-4.29v-2.55Z"/><path class="cls-189" d="M152.83,121.69c-4.86,0-8.83-1.87-9-4.24v.16c.14,2.39,4.13,4.29,9,4.29s8.88-1.89,9-4.29v-.21C161.71,119.8,157.72,121.69,152.83,121.69Z"/><path class="cls-190" d="M161.85,115.39c0,2.45-4,4.44-9,4.44s-9-2-9-4.44,4-4.45,9-4.45S161.85,112.93,161.85,115.39Z"/><path class="cls-191" d="M161.85,115.21c0-2.46-4-4.45-9-4.45s-9,2-9,4.45a2.23,2.23,0,0,0,.13.72,1.8,1.8,0,0,1,0-.22c-.36-2.69,4-4.64,8.92-4.64s9.24,2.08,8.91,4.64c0,.07,0,.14,0,.22A2.23,2.23,0,0,0,161.85,115.21Z"/><path class="cls-192" d="M161.72,114.69c0,.08,0,.15,0,.22.33,2.56-4,4.63-8.91,4.63s-9.28-1.94-8.92-4.63a1.8,1.8,0,0,1,0-.22,2.23,2.23,0,0,0-.13.72c0,2.45,4,4.44,9,4.44s9-2,9-4.44A2.23,2.23,0,0,0,161.72,114.69Z"/><path class="cls-193" d="M152.6,111.59c-4.78,0-8.66,1.74-8.66,3.87s3.88,3.88,8.66,3.88,8.66-1.73,8.66-3.88S157.39,111.59,152.6,111.59Zm0,6.9c-4.1,0-7.42-1.4-7.42-3.11s3.32-3.12,7.42-3.12,7.43,1.4,7.43,3.12S156.7,118.49,152.6,118.49Z"/><path class="cls-194" d="M152.81,110.86c-4.95,0-9,2-9,4.42s4,4.43,9,4.43,9-2,9-4.43S157.77,110.86,152.81,110.86Zm0,7.87c-4.25,0-7.69-1.59-7.69-3.55s3.44-3.56,7.69-3.56,7.7,1.59,7.7,3.56S157.06,118.73,152.81,118.73Z"/></g></g></g></svg>