<?xml version="1.0" encoding="utf-8"?>
<!-- Generator: Adobe Illustrator 23.0.1, SVG Export Plug-In . SVG Version: 6.00 Build 0)  -->
<svg version="1.1" id="Layer_1" xmlns="http://www.w3.org/2000/svg" xmlns:xlink="http://www.w3.org/1999/xlink" x="0px" y="0px"
	 viewBox="0 0 293 123" style="enable-background:new 0 0 293 123;" xml:space="preserve">
<style type="text/css">
	.st0{clip-path:url(#SVGID_3_);fill:url(#SVGID_4_);}
	.st1{opacity:0.27;clip-path:url(#SVGID_3_);}
	.st2{fill:url(#SVGID_5_);}
	.st3{fill:#FFFFFF;}
	.st4{fill:#2C7300;}
	.st5{fill:#378F00;}
	.st6{fill:#FAB700;}
	.st7{fill:#BA8800;}
	.st8{fill:#FFD154;}
	.st9{fill:#66C30F;}
</style>
<g>
	<g>
		<defs>
			<path id="SVGID_1_" d="M281.8,123H11.2C5,123,0,118,0,111.8V11.2C0,5,5,0,11.2,0h270.6C288,0,293,5,293,11.2v100.6
				C293,118,288,123,281.8,123z"/>
		</defs>
		<linearGradient id="SVGID_2_" gradientUnits="userSpaceOnUse" x1="0" y1="61.5" x2="293" y2="61.5">
			<stop  offset="0" style="stop-color:#66C30F"/>
			<stop  offset="0.2131" style="stop-color:#53A40E"/>
			<stop  offset="0.7507" style="stop-color:#255B0B"/>
			<stop  offset="1" style="stop-color:#133E0A"/>
		</linearGradient>
		<use xlink:href="#SVGID_1_"  style="overflow:visible;fill:url(#SVGID_2_);"/>
		<clipPath id="SVGID_3_">
			<use xlink:href="#SVGID_1_"  style="overflow:visible;"/>
		</clipPath>
		<linearGradient id="SVGID_4_" gradientUnits="userSpaceOnUse" x1="0" y1="61.5" x2="293" y2="61.5">
			<stop  offset="0" style="stop-color:#66C30F"/>
			<stop  offset="0.2131" style="stop-color:#53A40E"/>
			<stop  offset="0.7507" style="stop-color:#255B0B"/>
			<stop  offset="1" style="stop-color:#133E0A"/>
		</linearGradient>
		<path class="st0" d="M281.8,123H11.2C5,123,0,118,0,111.8V11.2C0,5,5,0,11.2,0h270.6C288,0,293,5,293,11.2v100.6
			C293,118,288,123,281.8,123z"/>
		<g class="st1">
			<linearGradient id="SVGID_5_" gradientUnits="userSpaceOnUse" x1="-63.8719" y1="51.1187" x2="138.5388" y2="51.1187">
				<stop  offset="0" style="stop-color:#66C30F"/>
				<stop  offset="0.2131" style="stop-color:#53A40E"/>
				<stop  offset="0.7507" style="stop-color:#255B0B"/>
				<stop  offset="1" style="stop-color:#133E0A"/>
			</linearGradient>
			<path class="st2" d="M4.7-39.7c-18.4,4.2-40.4,17.5-51.4,32.8c-9.7,13.4-16,27.9-16.8,44.4C-65,64-61.8,93.1-43.5,112.4
				c12.4,13.2,29.9,23.7,47.5,28.4c13.1,3.4,53.2,6.9,72.1,0c14.1-5.1,27.8-11.7,38.1-22.5c6.1-6.4,11.7-13.2,15.9-21
				c7.1-13.3,9.6-28.8,8.1-43.8c-1.4-15-4.6-30.7-11.8-44c-7-13-16.1-23.5-28-32.1C85.4-32,47.1-49.3,4.7-39.7z"/>
		</g>
	</g>
	<g>
		<g>
			<path class="st3" d="M185.6,96.2h-4.3l-0.9,2.7h-2.4l4.1-11.2h2.8l4.1,11.2h-2.4L185.6,96.2z M185,94.5l-1.1-3.2l-0.5-1.7h0
				l-0.5,1.7l-1.1,3.2H185z"/>
			<path class="st3" d="M198.2,99.6c0,2-1.8,3-4.5,3c-2.9,0-4.2-0.9-4.2-2.2c0-0.8,0.4-1.4,1.5-1.6c-0.7-0.3-1.1-0.8-1.1-1.6
				c0-0.8,0.5-1.4,1.3-1.7c-0.9-0.5-1.3-1.3-1.3-2.3c0-1.8,1.5-2.9,3.9-2.9c0.7,0,1.3,0.1,1.8,0.3c0.2-1.2,1-2.2,2.5-2.1l0.3,1.7
				c-1.1-0.1-1.7,0.3-1.8,0.9c0.7,0.5,1.1,1.2,1.1,2.1c0,1.8-1.5,2.9-3.9,2.9c-0.5,0-1-0.1-1.4-0.1c-0.5,0.2-0.7,0.4-0.7,0.7
				c0,0.5,0.4,0.7,1.1,0.7h2.6C197.1,97.4,198.2,98.2,198.2,99.6z M196.3,100c0-0.4-0.3-0.7-1.2-0.7h-2.9c-0.5,0-0.9,0.3-0.9,0.8
				c0,0.6,0.9,1,2.4,1C195.5,101,196.3,100.5,196.3,100z M192.2,93.2c0,0.9,0.7,1.4,1.6,1.4c0.9,0,1.5-0.5,1.5-1.4
				c0-0.9-0.6-1.4-1.5-1.4C192.8,91.8,192.2,92.3,192.2,93.2z"/>
			<path class="st3" d="M199.5,90.5h2l0.2,1.7c0.4-1.2,1.3-1.8,2.6-1.8c0.4,0,0.7,0.1,0.9,0.2l-0.3,2c-0.2-0.1-0.5-0.1-1.1-0.1
				c-1,0-2.1,0.7-2.1,2.3V99h-2.3V90.5z"/>
			<path class="st3" d="M206.2,88c0-0.8,0.5-1.3,1.4-1.3c1,0,1.4,0.4,1.4,1.3s-0.5,1.2-1.4,1.2C206.7,89.2,206.2,88.8,206.2,88z
				 M208.8,99h-2.3v-8.5h2.3V99z"/>
			<path class="st3" d="M218.9,92.8l-2.2,0.8c-0.2-1-0.8-1.5-1.7-1.5c-1.3,0-2,0.9-2,2.7c0,1.8,0.8,2.7,2.1,2.7c1,0,1.6-0.5,1.8-1.5
				l2.1,0.7c-0.4,1.5-1.8,2.6-3.9,2.6c-2.7,0-4.4-1.6-4.4-4.4c0-2.8,1.8-4.4,4.3-4.4C217.3,90.3,218.5,91.4,218.9,92.8z"/>
			<path class="st3" d="M220.6,96.1v-5.6h2.3v5.1c0,1.3,0.6,1.8,1.6,1.8c1,0,1.9-0.7,1.9-2.3v-4.6h2.3V99h-2.1l-0.1-1.5
				c-0.6,1.1-1.6,1.6-2.9,1.6C221.9,99.1,220.6,98.3,220.6,96.1z"/>
			<path class="st3" d="M233.3,96.3c0,0.8,0.3,1.1,0.9,1.1c0.4,0,0.6,0,1-0.2l-0.2,1.5c-0.4,0.2-1,0.4-1.6,0.4
				c-1.6,0-2.4-0.8-2.4-2.5v-9.9h2.3V96.3z"/>
			<path class="st3" d="M241.9,98.4c-0.6,0.4-1.4,0.7-2.3,0.7c-1.7,0-2.9-0.7-2.9-2.6v-4.4h-1.6v-1.7h1.6v-2l2.3-0.6v2.6h2.7v1.7
				H239v4c0,0.8,0.4,1.2,1.2,1.2c0.6,0,1-0.2,1.3-0.5L241.9,98.4z"/>
			<path class="st3" d="M243.2,96.1v-5.6h2.3v5.1c0,1.3,0.6,1.8,1.6,1.8c1,0,1.9-0.7,1.9-2.3v-4.6h2.3V99h-2.1l-0.1-1.5
				c-0.6,1.1-1.6,1.6-2.9,1.6C244.5,99.1,243.2,98.3,243.2,96.1z"/>
			<path class="st3" d="M253.6,90.5h2l0.2,1.7c0.4-1.2,1.3-1.8,2.6-1.8c0.4,0,0.7,0.1,0.9,0.2l-0.3,2c-0.2-0.1-0.5-0.1-1.1-0.1
				c-1,0-2.1,0.7-2.1,2.3V99h-2.3V90.5z"/>
			<path class="st3" d="M268.3,95.4h-6c0.2,1.3,1,2,2.1,2c1,0,1.6-0.4,1.9-1.1l1.9,0.7c-0.5,1.3-2,2.1-3.8,2.1
				c-2.7,0-4.4-1.6-4.4-4.4c0-2.8,1.8-4.4,4.3-4.4c2.6,0,4,1.7,4,4C268.4,94.7,268.3,95.1,268.3,95.4z M262.3,93.8h3.8
				c-0.1-1.2-0.8-1.8-1.8-1.8C263.2,92,262.5,92.6,262.3,93.8z"/>
		</g>
	</g>
	<g>
		<g>
			<path class="st4" d="M63.6,77.9c2.3-8.2-16.7-2.4-16.7-2.4S61.3,86.1,63.6,77.9z"/>
			<path class="st5" d="M72.7,34.6c-3.4,7.8-6.9,9.3-6.3,16.2C69.1,51.4,75.8,46.8,72.7,34.6z"/>
			<g>
				<path class="st6" d="M70.9,34.5c0.4,8.9-1.3,16.3-3.9,16.4c-2.6,0.1-5.1-7-5.5-15.9c-0.4-8.9,1.3-16.3,3.9-16.4
					C68,18.5,70.5,25.6,70.9,34.5z"/>
				<path class="st7" d="M64.3,22.9l-1.1,0.1c-0.2,0-0.4-0.2-0.4-0.4l0-0.2c0-0.2,0.2-0.4,0.4-0.4l1.1-0.1c0.2,0,0.4,0.2,0.4,0.4
					l0,0.2C64.7,22.7,64.5,22.9,64.3,22.9z"/>
				<path class="st7" d="M66.3,24.3l-1.1,0.1c-0.2,0-0.4-0.2-0.4-0.4l0-0.2c0-0.2,0.2-0.4,0.4-0.4l1.1-0.1c0.2,0,0.4,0.2,0.4,0.4
					l0,0.2C66.7,24.1,66.5,24.3,66.3,24.3z"/>
				<path class="st7" d="M66.4,26.8l-1.1,0.1c-0.2,0-0.4-0.2-0.4-0.4l0-0.2c0-0.2,0.2-0.4,0.4-0.4l1.1-0.1c0.2,0,0.4,0.2,0.4,0.4
					l0,0.2C66.8,26.6,66.6,26.8,66.4,26.8z"/>
				<path class="st7" d="M66.1,21.7L65,21.8c-0.2,0-0.4-0.2-0.4-0.4l0-0.2c0-0.2,0.2-0.4,0.4-0.4l1.1-0.1c0.2,0,0.4,0.2,0.4,0.4
					l0,0.2C66.5,21.5,66.4,21.7,66.1,21.7z"/>
				<path class="st7" d="M68,22.9l-1.1,0.1c-0.2,0-0.4-0.2-0.4-0.4l0-0.2c0-0.2,0.2-0.4,0.4-0.4l1.1-0.1c0.2,0,0.4,0.2,0.4,0.4
					l0,0.2C68.3,22.7,68.2,22.9,68,22.9z"/>
				<path class="st7" d="M68.4,25.3l-1.1,0.1c-0.2,0-0.4-0.2-0.4-0.4l0-0.2c0-0.2,0.2-0.4,0.4-0.4l1.1-0.1c0.2,0,0.4,0.2,0.4,0.4
					l0,0.2C68.8,25.1,68.6,25.3,68.4,25.3z"/>
				<path class="st7" d="M64.2,25.5L63,25.5c-0.2,0-0.4-0.2-0.4-0.4l0-0.2c0-0.2,0.2-0.4,0.4-0.4l1.1-0.1c0.2,0,0.4,0.2,0.4,0.4
					l0,0.2C64.6,25.3,64.4,25.5,64.2,25.5z"/>
				<path class="st7" d="M66.5,29.3l-1.1,0.1c-0.2,0-0.4-0.2-0.4-0.4l0-0.2c0-0.2,0.2-0.4,0.4-0.4l1.1-0.1c0.2,0,0.4,0.2,0.4,0.4
					l0,0.2C66.9,29.1,66.7,29.3,66.5,29.3z"/>
				<path class="st7" d="M68.5,27.8l-1.1,0.1c-0.2,0-0.4-0.2-0.4-0.4l0-0.2c0-0.2,0.2-0.4,0.4-0.4l1.1-0.1c0.2,0,0.4,0.2,0.4,0.4
					l0,0.2C68.9,27.6,68.7,27.8,68.5,27.8z"/>
				<path class="st7" d="M64.3,28L63.2,28c-0.2,0-0.4-0.2-0.4-0.4l0-0.2c0-0.2,0.2-0.4,0.4-0.4l1.1-0.1c0.2,0,0.4,0.2,0.4,0.4l0,0.2
					C64.7,27.8,64.5,28,64.3,28z"/>
				<path class="st7" d="M66.7,32.1l-1.1,0.1c-0.2,0-0.4-0.2-0.4-0.4l0-0.2c0-0.2,0.2-0.4,0.4-0.4l1.1-0.1c0.2,0,0.4,0.2,0.4,0.4
					l0,0.2C67,31.9,66.9,32.1,66.7,32.1z"/>
				<path class="st7" d="M68.6,30.6l-1.1,0.1c-0.2,0-0.4-0.2-0.4-0.4l0-0.2c0-0.2,0.2-0.4,0.4-0.4l1.1-0.1c0.2,0,0.4,0.2,0.4,0.4
					l0,0.2C69,30.4,68.9,30.5,68.6,30.6z"/>
				<path class="st7" d="M64.5,30.8l-1.1,0.1c-0.2,0-0.4-0.2-0.4-0.4l0-0.2c0-0.2,0.2-0.4,0.4-0.4l1.1-0.1c0.2,0,0.4,0.2,0.4,0.4
					l0,0.2C64.8,30.6,64.7,30.8,64.5,30.8z"/>
				<path class="st7" d="M66.8,34.9L65.7,35c-0.2,0-0.4-0.2-0.4-0.4l0-0.2c0-0.2,0.2-0.4,0.4-0.4l1.1-0.1c0.2,0,0.4,0.2,0.4,0.4
					l0,0.2C67.2,34.7,67,34.9,66.8,34.9z"/>
				<path class="st7" d="M68.8,33.4l-1.1,0.1c-0.2,0-0.4-0.2-0.4-0.4l0-0.2c0-0.2,0.2-0.4,0.4-0.4l1.1-0.1c0.2,0,0.4,0.2,0.4,0.4
					l0,0.2C69.2,33.2,69,33.4,68.8,33.4z"/>
				<path class="st8" d="M69.9,32L68.7,32c-0.2,0-0.4-0.2-0.4-0.4l0-0.2c0-0.2,0.2-0.4,0.4-0.4l1.1-0.1c0.2,0,0.4,0.2,0.4,0.4l0,0.2
					C70.2,31.7,70.1,31.9,69.9,32z"/>
				<path class="st8" d="M69.7,29.2l-1.1,0.1c-0.2,0-0.4-0.2-0.4-0.4l0-0.2c0-0.2,0.2-0.4,0.4-0.4l1.1-0.1c0.2,0,0.4,0.2,0.4,0.4
					l0,0.2C70.1,29,69.9,29.2,69.7,29.2z"/>
				<path class="st8" d="M69.1,26.5L68,26.6c-0.2,0-0.4-0.2-0.4-0.4l0-0.2c0-0.2,0.2-0.4,0.4-0.4l1.1-0.1c0.2,0,0.4,0.2,0.4,0.4
					l0,0.2C69.5,26.3,69.3,26.5,69.1,26.5z"/>
				<path class="st8" d="M66.3,25.6l-1.1,0.1c-0.2,0-0.4-0.2-0.4-0.4l0-0.2c0-0.2,0.2-0.4,0.4-0.4l1.1-0.1c0.2,0,0.4,0.2,0.4,0.4
					l0,0.2C66.7,25.4,66.5,25.6,66.3,25.6z"/>
				<path class="st8" d="M68.4,24.1l-1.1,0.1c-0.2,0-0.4-0.2-0.4-0.4l0-0.2c0-0.2,0.2-0.4,0.4-0.4l1.1-0.1c0.2,0,0.4,0.2,0.4,0.4
					l0,0.2C68.8,23.9,68.6,24,68.4,24.1z"/>
				<path class="st8" d="M64.1,24.3L63,24.3c-0.2,0-0.4-0.2-0.4-0.4l0-0.2c0-0.2,0.2-0.4,0.4-0.4l1.1-0.1c0.2,0,0.4,0.2,0.4,0.4
					l0,0.2C64.5,24.1,64.3,24.3,64.1,24.3z"/>
				<path class="st8" d="M66.2,23.1l-1.1,0.1c-0.2,0-0.4-0.2-0.4-0.4l0-0.2c0-0.2,0.2-0.4,0.4-0.4l1.1-0.1c0.2,0,0.4,0.2,0.4,0.4
					l0,0.2C66.6,22.9,66.4,23.1,66.2,23.1z"/>
				<path class="st8" d="M66,20.4l-1.1,0.1c-0.2,0-0.4-0.2-0.4-0.4l0-0.2c0-0.2,0.2-0.4,0.4-0.4l1.1-0.1c0.2,0,0.4,0.2,0.4,0.4
					l0,0.2C66.4,20.2,66.2,20.4,66,20.4z"/>
				<path class="st8" d="M63.9,26.8l-1.1,0.1c-0.2,0-0.4-0.2-0.4-0.4l0-0.2c0-0.2,0.2-0.4,0.4-0.4l1.1-0.1c0.2,0,0.4,0.2,0.4,0.4
					l0,0.2C64.2,26.5,64.1,26.7,63.9,26.8z"/>
				<path class="st8" d="M66.5,28.1l-1.1,0.1c-0.2,0-0.4-0.2-0.4-0.4l0-0.2c0-0.2,0.2-0.4,0.4-0.4l1.1-0.1c0.2,0,0.4,0.2,0.4,0.4
					l0,0.2C66.8,27.8,66.7,28,66.5,28.1z"/>
				<path class="st8" d="M63.7,29.5l-1.1,0.1c-0.2,0-0.4-0.2-0.4-0.4l0-0.2c0-0.2,0.2-0.4,0.4-0.4l1.1-0.1c0.2,0,0.4,0.2,0.4,0.4
					l0,0.2C64.1,29.3,63.9,29.5,63.7,29.5z"/>
				<path class="st8" d="M66.6,30.8l-1.1,0.1c-0.2,0-0.4-0.2-0.4-0.4l0-0.2c0-0.2,0.2-0.4,0.4-0.4l1.1-0.1c0.2,0,0.4,0.2,0.4,0.4
					l0,0.2C67,30.6,66.8,30.8,66.6,30.8z"/>
				<path class="st8" d="M63.6,32.3l-1.1,0.1c-0.2,0-0.4-0.2-0.4-0.4l0-0.2c0-0.2,0.2-0.4,0.4-0.4l1.1-0.1c0.2,0,0.4,0.2,0.4,0.4
					l0,0.2C63.9,32.1,63.8,32.2,63.6,32.3z"/>
				<path class="st8" d="M66.7,33.5l-1.1,0.1c-0.2,0-0.4-0.2-0.4-0.4l0-0.2c0-0.2,0.2-0.4,0.4-0.4l1.1-0.1c0.2,0,0.4,0.2,0.4,0.4
					l0,0.2C67.1,33.3,66.9,33.5,66.7,33.5z"/>
				<path class="st8" d="M70,34.6l-1.1,0.1c-0.2,0-0.4-0.2-0.4-0.4l0-0.2c0-0.2,0.2-0.4,0.4-0.4l1.1-0.1c0.2,0,0.4,0.2,0.4,0.4
					l0,0.2C70.4,34.4,70.2,34.6,70,34.6z"/>
				<path class="st8" d="M70,37.3l-1.1,0.1c-0.2,0-0.4-0.2-0.4-0.4l0-0.2c0-0.2,0.2-0.4,0.4-0.4l1.1-0.1c0.2,0,0.4,0.2,0.4,0.4
					l0,0.2C70.3,37.1,70.2,37.3,70,37.3z"/>
				<path class="st8" d="M69.8,39.9L68.6,40c-0.2,0-0.4-0.2-0.4-0.4l0-0.2c0-0.2,0.2-0.4,0.4-0.4l1.1-0.1c0.2,0,0.4,0.2,0.4,0.4
					l0,0.2C70.2,39.7,70,39.9,69.8,39.9z"/>
				<path class="st8" d="M69.6,42.5l-1.1,0.1c-0.2,0-0.4-0.2-0.4-0.4l0-0.2c0-0.2,0.2-0.4,0.4-0.4l1.1-0.1c0.2,0,0.4,0.2,0.4,0.4
					l0,0.2C70,42.3,69.8,42.4,69.6,42.5z"/>
				<path class="st8" d="M69.5,45.1l-1.1,0.1c-0.2,0-0.4-0.2-0.4-0.4l0-0.2c0-0.2,0.2-0.4,0.4-0.4l1.1-0.1c0.2,0,0.4,0.2,0.4,0.4
					l0,0.2C69.9,44.9,69.8,45.1,69.5,45.1z"/>
				<path class="st8" d="M69.3,47.7l-1,0c-0.2,0-0.3-0.1-0.3-0.3l0-0.2c0-0.2,0.1-0.4,0.3-0.4l1,0c0.2,0,0.3,0.1,0.3,0.3l0,0.2
					C69.6,47.5,69.4,47.7,69.3,47.7z"/>
				<path class="st8" d="M65.5,47.9l-1,0c-0.2,0-0.3-0.1-0.3-0.3l0-0.2c0-0.2,0.1-0.4,0.3-0.4l1,0c0.2,0,0.3,0.1,0.3,0.3l0,0.2
					C65.8,47.7,65.7,47.9,65.5,47.9z"/>
				<path class="st8" d="M65,45.3l-1.1,0.1c-0.2,0-0.4-0.2-0.4-0.4l0-0.2c0-0.2,0.2-0.4,0.4-0.4l1.1-0.1c0.2,0,0.4,0.2,0.4,0.4
					l0,0.2C65.4,45.1,65.2,45.3,65,45.3z"/>
				<path class="st8" d="M64.4,42.9L63.2,43c-0.2,0-0.4-0.2-0.4-0.4l0-0.2c0-0.2,0.2-0.4,0.4-0.4l1.1-0.1c0.2,0,0.4,0.2,0.4,0.4
					l0,0.2C64.8,42.7,64.6,42.9,64.4,42.9z"/>
				<path class="st8" d="M64,40.2l-1.1,0.1c-0.2,0-0.4-0.2-0.4-0.4l0-0.2c0-0.2,0.2-0.4,0.4-0.4l1.1-0.1c0.2,0,0.4,0.2,0.4,0.4
					l0,0.2C64.3,40,64.2,40.2,64,40.2z"/>
				<path class="st8" d="M63.6,37.6l-1.1,0.1c-0.2,0-0.4-0.2-0.4-0.4l0-0.2c0-0.2,0.2-0.4,0.4-0.4l1.1-0.1c0.2,0,0.4,0.2,0.4,0.4
					l0,0.2C64,37.4,63.8,37.6,63.6,37.6z"/>
				<path class="st8" d="M66.9,36.2l-1.1,0.1c-0.2,0-0.4-0.2-0.4-0.4l0-0.2c0-0.2,0.2-0.4,0.4-0.4l1.1-0.1c0.2,0,0.4,0.2,0.4,0.4
					l0,0.2C67.2,36,67.1,36.2,66.9,36.2z"/>
				<path class="st8" d="M67,38.8l-1.1,0.1c-0.2,0-0.4-0.2-0.4-0.4l0-0.2c0-0.2,0.2-0.4,0.4-0.4l1.1-0.1c0.2,0,0.4,0.2,0.4,0.4
					l0,0.2C67.4,38.6,67.2,38.8,67,38.8z"/>
				<path class="st8" d="M67.1,41.5L66,41.6c-0.2,0-0.4-0.2-0.4-0.4l0-0.2c0-0.2,0.2-0.4,0.4-0.4l1.1-0.1c0.2,0,0.4,0.2,0.4,0.4
					l0,0.2C67.5,41.3,67.3,41.5,67.1,41.5z"/>
				<path class="st8" d="M67.3,44.1l-1.1,0.1c-0.2,0-0.4-0.2-0.4-0.4l0-0.2c0-0.2,0.2-0.4,0.4-0.4l1.1-0.1c0.2,0,0.4,0.2,0.4,0.4
					l0,0.2C67.6,43.9,67.5,44.1,67.3,44.1z"/>
				<path class="st8" d="M67.4,46.6l-1.1,0.1c-0.2,0-0.4-0.2-0.4-0.4l0-0.2c0-0.2,0.2-0.4,0.4-0.4l1.1-0.1c0.2,0,0.4,0.2,0.4,0.4
					l0,0.2C67.8,46.4,67.6,46.6,67.4,46.6z"/>
				<path class="st8" d="M67.5,49.1l-1.1,0.1c-0.2,0-0.4-0.2-0.4-0.4l0-0.2c0-0.2,0.2-0.4,0.4-0.4l1.1-0.1c0.2,0,0.4,0.2,0.4,0.4
					l0,0.2C67.9,48.9,67.7,49.1,67.5,49.1z"/>
				<path class="st8" d="M63.7,34.7l-1.1,0.1c-0.2,0-0.4-0.2-0.4-0.4l0-0.2c0-0.2,0.2-0.4,0.4-0.4l1.1-0.1c0.2,0,0.4,0.2,0.4,0.4
					l0,0.2C64.1,34.5,63.9,34.7,63.7,34.7z"/>
				<path class="st7" d="M64.6,33.6l-1.1,0.1c-0.2,0-0.4-0.2-0.4-0.4l0-0.2c0-0.2,0.2-0.4,0.4-0.4l1.1-0.1c0.2,0,0.4,0.2,0.4,0.4
					l0,0.2C65,33.4,64.8,33.6,64.6,33.6z"/>
				<path class="st7" d="M66.9,37.4l-1.1,0.1c-0.2,0-0.4-0.2-0.4-0.4l0-0.2c0-0.2,0.2-0.4,0.4-0.4l1.1-0.1c0.2,0,0.4,0.2,0.4,0.4
					l0,0.2C67.3,37.2,67.1,37.4,66.9,37.4z"/>
				<path class="st7" d="M68.9,35.9l-1.1,0.1c-0.2,0-0.4-0.2-0.4-0.4l0-0.2c0-0.2,0.2-0.4,0.4-0.4l1.1-0.1c0.2,0,0.4,0.2,0.4,0.4
					l0,0.2C69.3,35.7,69.1,35.9,68.9,35.9z"/>
				<path class="st7" d="M64.7,36.1l-1.1,0.1c-0.2,0-0.4-0.2-0.4-0.4l0-0.2c0-0.2,0.2-0.4,0.4-0.4l1.1-0.1c0.2,0,0.4,0.2,0.4,0.4
					l0,0.2C65.1,35.9,64.9,36.1,64.7,36.1z"/>
				<path class="st7" d="M67.1,40.3l-1.1,0.1c-0.2,0-0.4-0.2-0.4-0.4l0-0.2c0-0.2,0.2-0.4,0.4-0.4l1.1-0.1c0.2,0,0.4,0.2,0.4,0.4
					l0,0.2C67.4,40.1,67.3,40.2,67.1,40.3z"/>
				<path class="st7" d="M69.1,38.7l-1.1,0.1c-0.2,0-0.4-0.2-0.4-0.4l0-0.2c0-0.2,0.2-0.4,0.4-0.4l1.1-0.1c0.2,0,0.4,0.2,0.4,0.4
					l0,0.2C69.4,38.5,69.3,38.7,69.1,38.7z"/>
				<path class="st7" d="M64.9,38.9L63.7,39c-0.2,0-0.4-0.2-0.4-0.4l0-0.2c0-0.2,0.2-0.4,0.4-0.4l1.1-0.1c0.2,0,0.4,0.2,0.4,0.4
					l0,0.2C65.2,38.7,65.1,38.9,64.9,38.9z"/>
				<path class="st7" d="M67.2,42.8L66,42.8c-0.2,0-0.4-0.2-0.4-0.4l0-0.2c0-0.2,0.2-0.4,0.4-0.4l1.1-0.1c0.2,0,0.4,0.2,0.4,0.4
					l0,0.2C67.6,42.6,67.4,42.7,67.2,42.8z"/>
				<path class="st7" d="M69.2,41.2L68,41.3c-0.2,0-0.4-0.2-0.4-0.4l0-0.2c0-0.2,0.2-0.4,0.4-0.4l1.1-0.1c0.2,0,0.4,0.2,0.4,0.4
					l0,0.2C69.6,41,69.4,41.2,69.2,41.2z"/>
				<path class="st7" d="M65,41.4l-1.1,0.1c-0.2,0-0.4-0.2-0.4-0.4l0-0.2c0-0.2,0.2-0.4,0.4-0.4l1.1-0.1c0.2,0,0.4,0.2,0.4,0.4
					l0,0.2C65.4,41.2,65.2,41.4,65,41.4z"/>
				<path class="st7" d="M67.3,45.4l-1.1,0.1c-0.2,0-0.4-0.2-0.4-0.4l0-0.2c0-0.2,0.2-0.4,0.4-0.4l1.1-0.1c0.2,0,0.4,0.2,0.4,0.4
					l0,0.2C67.7,45.2,67.5,45.4,67.3,45.4z"/>
				<path class="st7" d="M69.3,43.8l-1.1,0.1c-0.2,0-0.4-0.2-0.4-0.4l0-0.2c0-0.2,0.2-0.4,0.4-0.4l1.1-0.1c0.2,0,0.4,0.2,0.4,0.4
					l0,0.2C69.7,43.6,69.5,43.8,69.3,43.8z"/>
				<path class="st7" d="M65.1,44L64,44.1c-0.2,0-0.4-0.2-0.4-0.4l0-0.2c0-0.2,0.2-0.4,0.4-0.4l1.1-0.1c0.2,0,0.4,0.2,0.4,0.4l0,0.2
					C65.5,43.8,65.3,44,65.1,44z"/>
				<path class="st7" d="M67.4,47.9l-1.1,0.1c-0.2,0-0.4-0.2-0.4-0.4l0-0.2c0-0.2,0.2-0.4,0.4-0.4l1.1-0.1c0.2,0,0.4,0.2,0.4,0.4
					l0,0.2C67.8,47.7,67.7,47.9,67.4,47.9z"/>
				<path class="st7" d="M67.6,50.2l-1.1,0.1c-0.2,0-0.4-0.2-0.4-0.4l0-0.2c0-0.2,0.2-0.4,0.4-0.4l1.1-0.1c0.2,0,0.4,0.2,0.4,0.4
					l0,0.2C67.9,50,67.8,50.2,67.6,50.2z"/>
				<path class="st7" d="M69.4,46.3l-1.1,0.1c-0.2,0-0.4-0.2-0.4-0.4l0-0.2c0-0.2,0.2-0.4,0.4-0.4l1.1-0.1c0.2,0,0.4,0.2,0.4,0.4
					l0,0.2C69.8,46.1,69.6,46.3,69.4,46.3z"/>
				<path class="st7" d="M65.2,46.5l-1.1,0.1c-0.2,0-0.4-0.2-0.4-0.4l0-0.2c0-0.2,0.2-0.4,0.4-0.4l1.1-0.1c0.2,0,0.4,0.2,0.4,0.4
					l0,0.2C65.6,46.3,65.5,46.5,65.2,46.5z"/>
			</g>
			<path class="st9" d="M59,29.5c4.4,10.4,9,12.4,8.1,21.4C63.6,51.6,54.8,45.5,59,29.5z"/>
			<path class="st9" d="M60.5,109.7c-1.3-14.6,1-24.6,2.9-33.3c1.8-8,3.5-15.5,2.4-25.5l1.3-0.1c1.1,10.1-0.6,17.8-2.4,25.9
				c-2,9.1-4.1,18.5-2.9,32.9L60.5,109.7z"/>
			<path class="st5" d="M66.9,63.6c2.8,8.1,15.1-7.3,15.1-7.3S64.1,55.6,66.9,63.6z"/>
		</g>
		<g>
			<path class="st5" d="M55.4,90.4c1-14-27.6,1.5-27.6,1.5S58.2,104.6,55.4,90.4z"/>
			<path class="st9" d="M59.9,109.7c-1.7-14.2-5-20.9-8-26.8c-0.7-1.5-1.4-2.9-2.1-4.4l2.3-1c0.6,1.4,1.3,2.8,2.1,4.3
				c3.1,6.1,6.5,13,8.2,27.7L59.9,109.7z"/>
			<path class="st5" d="M52.3,43.8c-1.8,17.4-7.7,22.5-2.2,35.5C55.6,78.8,65.9,65.7,52.3,43.8z"/>
			<g>
				
					<ellipse transform="matrix(0.9367 -0.3503 0.3503 0.9367 -14.2734 16.9437)" class="st6" cx="39.7" cy="47.9" rx="9.6" ry="33.3"/>
				<path class="st7" d="M28.6,25.9l-2.2,0.8c-0.4,0.2-0.9-0.1-1.1-0.5l-0.2-0.4c-0.2-0.4,0-0.9,0.5-1.1l2.2-0.8
					c0.4-0.2,0.9,0.1,1.1,0.5l0.2,0.4C29.2,25.2,29,25.7,28.6,25.9z"/>
				<path class="st7" d="M33.3,27.5l-2.2,0.8c-0.4,0.2-0.9-0.1-1.1-0.5l-0.2-0.4c-0.2-0.4,0-0.9,0.5-1.1l2.2-0.8
					c0.4-0.2,0.9,0.1,1.1,0.5l0.2,0.4C34,26.9,33.8,27.4,33.3,27.5z"/>
				<path class="st7" d="M35.1,32.3l-2.2,0.8c-0.4,0.2-0.9-0.1-1.1-0.5l-0.2-0.4c-0.2-0.4,0-0.9,0.5-1.1l2.2-0.8
					c0.4-0.2,0.9,0.1,1.1,0.5l0.2,0.4C35.8,31.7,35.6,32.2,35.1,32.3z"/>
				<path class="st7" d="M31.5,22.5l-2.2,0.8c-0.4,0.2-0.9-0.1-1.1-0.5L28,22.4c-0.2-0.4,0-0.9,0.5-1.1l2.2-0.8
					c0.4-0.2,0.9,0.1,1.1,0.5l0.2,0.4C32.1,21.9,31.9,22.3,31.5,22.5z"/>
				<path class="st7" d="M35.8,23.7l-2.2,0.8c-0.4,0.2-0.9-0.1-1.1-0.5l-0.2-0.4c-0.2-0.4,0-0.9,0.5-1.1l2.2-0.8
					c0.4-0.2,0.9,0.1,1.1,0.5l0.2,0.4C36.4,23,36.2,23.5,35.8,23.7z"/>
				<path class="st7" d="M38.1,28.1l-2.2,0.8c-0.4,0.2-0.9-0.1-1.1-0.5l-0.2-0.4c-0.2-0.4,0-0.9,0.5-1.1l2.2-0.8
					c0.4-0.2,0.9,0.1,1.1,0.5l0.2,0.4C38.7,27.4,38.5,27.9,38.1,28.1z"/>
				<path class="st7" d="M30,31l-2.2,0.8c-0.4,0.2-0.9-0.1-1.1-0.5l-0.2-0.4c-0.2-0.4,0-0.9,0.5-1.1l2.2-0.8
					c0.4-0.2,0.9,0.1,1.1,0.5l0.2,0.4C30.6,30.4,30.4,30.9,30,31z"/>
				<path class="st7" d="M36.9,37.1L34.7,38c-0.4,0.2-0.9-0.1-1.1-0.5L33.5,37c-0.2-0.4,0-0.9,0.5-1.1l2.2-0.8
					c0.4-0.2,0.9,0.1,1.1,0.5l0.2,0.4C37.6,36.5,37.4,37,36.9,37.1z"/>
				<path class="st7" d="M39.9,32.9l-2.2,0.8c-0.4,0.2-0.9-0.1-1.1-0.5l-0.2-0.4c-0.2-0.4,0-0.9,0.5-1.1l2.2-0.8
					c0.4-0.2,0.9,0.1,1.1,0.5l0.2,0.4C40.5,32.3,40.3,32.7,39.9,32.9z"/>
				<path class="st7" d="M31.8,35.9l-2.2,0.8c-0.4,0.2-0.9-0.1-1.1-0.5l-0.2-0.4c-0.2-0.4,0-0.9,0.5-1.1l2.2-0.8
					c0.4-0.2,0.9,0.1,1.1,0.5l0.2,0.4C32.4,35.2,32.2,35.7,31.8,35.9z"/>
				<path class="st7" d="M38.9,42.5l-2.2,0.8c-0.4,0.2-0.9-0.1-1.1-0.5l-0.2-0.4c-0.2-0.4,0-0.9,0.5-1.1l2.2-0.8
					c0.4-0.2,0.9,0.1,1.1,0.5l0.2,0.4C39.6,41.9,39.3,42.3,38.9,42.5z"/>
				<path class="st7" d="M41.9,38.2L39.7,39c-0.4,0.2-0.9-0.1-1.1-0.5l-0.2-0.4c-0.2-0.4,0-0.9,0.5-1.1l2.2-0.8
					c0.4-0.2,0.9,0.1,1.1,0.5l0.2,0.4C42.5,37.6,42.3,38.1,41.9,38.2z"/>
				<path class="st7" d="M33.8,41.2L31.6,42c-0.4,0.2-0.9-0.1-1.1-0.5l-0.2-0.4c-0.2-0.4,0-0.9,0.5-1.1l2.2-0.8
					c0.4-0.2,0.9,0.1,1.1,0.5l0.2,0.4C34.4,40.6,34.2,41,33.8,41.2z"/>
				<path class="st7" d="M41,47.9l-2.2,0.8c-0.4,0.2-0.9-0.1-1.1-0.5l-0.2-0.4c-0.2-0.4,0-0.9,0.5-1.1l2.2-0.8
					c0.4-0.2,0.9,0.1,1.1,0.5l0.2,0.4C41.6,47.3,41.4,47.8,41,47.9z"/>
				<path class="st7" d="M43.9,43.7l-2.2,0.8c-0.4,0.2-0.9-0.1-1.1-0.5l-0.2-0.4c-0.2-0.4,0-0.9,0.5-1.1l2.2-0.8
					c0.4-0.2,0.9,0.1,1.1,0.5l0.2,0.4C44.5,43,44.3,43.5,43.9,43.7z"/>
				<path class="st8" d="M45.1,40.2L42.9,41c-0.4,0.2-0.9-0.1-1.1-0.5l-0.2-0.4c-0.2-0.4,0-0.9,0.5-1.1l2.2-0.8
					c0.4-0.2,0.9,0.1,1.1,0.5l0.2,0.4C45.7,39.6,45.5,40.1,45.1,40.2z"/>
				<path class="st8" d="M43.1,34.9l-2.2,0.8c-0.4,0.2-0.9-0.1-1.1-0.5l-0.2-0.4c-0.2-0.4,0-0.9,0.5-1.1l2.2-0.8
					c0.4-0.2,0.9,0.1,1.1,0.5l0.2,0.4C43.7,34.3,43.5,34.7,43.1,34.9z"/>
				<path class="st8" d="M40.2,30L38,30.8c-0.4,0.2-0.9-0.1-1.1-0.5l-0.2-0.4c-0.2-0.4,0-0.9,0.5-1.1l2.2-0.8
					c0.4-0.2,0.9,0.1,1.1,0.5l0.2,0.4C40.9,29.4,40.7,29.9,40.2,30z"/>
				<path class="st8" d="M34.2,29.9L32,30.7c-0.4,0.2-0.9-0.1-1.1-0.5l-0.2-0.4c-0.2-0.4,0-0.9,0.5-1.1l2.2-0.8
					c0.4-0.2,0.9,0.1,1.1,0.5l0.2,0.4C34.9,29.3,34.7,29.8,34.2,29.9z"/>
				<path class="st8" d="M37.4,25.7l-2.2,0.8c-0.4,0.2-0.9-0.1-1.1-0.5l-0.2-0.4c-0.2-0.4,0-0.9,0.5-1.1l2.2-0.8
					c0.4-0.2,0.9,0.1,1.1,0.5l0.2,0.4C38,25,37.8,25.5,37.4,25.7z"/>
				<path class="st8" d="M29.1,28.7l-2.2,0.8c-0.4,0.2-0.9-0.1-1.1-0.5l-0.2-0.4c-0.2-0.4,0-0.9,0.5-1.1l2.2-0.8
					c0.4-0.2,0.9,0.1,1.1,0.5l0.2,0.4C29.7,28,29.5,28.5,29.1,28.7z"/>
				<path class="st8" d="M32.5,25.2L30.3,26c-0.4,0.2-0.9-0.1-1.1-0.5L29,25c-0.2-0.4,0-0.9,0.5-1.1l2.2-0.8
					c0.4-0.2,0.9,0.1,1.1,0.5l0.2,0.4C33.1,24.5,32.9,25,32.5,25.2z"/>
				<path class="st8" d="M30.4,20l-2.2,0.8c-0.4,0.2-0.9-0.1-1.1-0.5l-0.2-0.4c-0.2-0.4,0-0.9,0.5-1.1l2.2-0.8
					c0.4-0.2,0.9,0.1,1.1,0.5l0.2,0.4C31,19.4,30.8,19.9,30.4,20z"/>
				<path class="st8" d="M30.1,33.7l-2.2,0.8c-0.4,0.2-0.9-0.1-1.1-0.5l-0.2-0.4c-0.2-0.4,0-0.9,0.5-1.1l2.2-0.8
					c0.4-0.2,0.9,0.1,1.1,0.5l0.2,0.4C30.7,33.1,30.5,33.6,30.1,33.7z"/>
				<path class="st8" d="M36,34.7l-2.2,0.8c-0.4,0.2-0.9-0.1-1.1-0.5l-0.2-0.4c-0.2-0.4,0-0.9,0.5-1.1l2.2-0.8
					c0.4-0.2,0.9,0.1,1.1,0.5l0.2,0.4C36.6,34,36.4,34.5,36,34.7z"/>
				<path class="st8" d="M31.5,39.1l-2.2,0.8c-0.4,0.2-0.9-0.1-1.1-0.5L28.1,39c-0.2-0.4,0-0.9,0.5-1.1l2.2-0.8
					c0.4-0.2,0.9,0.1,1.1,0.5L32,38C32.1,38.5,31.9,39,31.5,39.1z"/>
				<path class="st8" d="M38,40l-2.2,0.8c-0.4,0.2-0.9-0.1-1.1-0.5l-0.2-0.4c-0.2-0.4,0-0.9,0.5-1.1l2.2-0.8
					c0.4-0.2,0.9,0.1,1.1,0.5l0.2,0.4C38.6,39.4,38.4,39.9,38,40z"/>
				<path class="st8" d="M33,44.7l-2.2,0.8c-0.4,0.2-0.9-0.1-1.1-0.5l-0.2-0.4c-0.2-0.4,0-0.9,0.5-1.1l2.2-0.8
					c0.4-0.2,0.9,0.1,1.1,0.5l0.2,0.4C33.6,44,33.4,44.5,33,44.7z"/>
				<path class="st8" d="M39.9,45.1l-2.2,0.8c-0.4,0.2-0.9-0.1-1.1-0.5L36.5,45c-0.2-0.4,0-0.9,0.5-1.1l2.2-0.8
					c0.4-0.2,0.9,0.1,1.1,0.5l0.2,0.4C40.5,44.5,40.3,45,39.9,45.1z"/>
				<path class="st8" d="M47,45.3l-2.2,0.8c-0.4,0.2-0.9-0.1-1.1-0.5l-0.2-0.4c-0.2-0.4,0-0.9,0.5-1.1l2.2-0.8
					c0.4-0.2,0.9,0.1,1.1,0.5l0.2,0.4C47.6,44.6,47.4,45.1,47,45.3z"/>
				<path class="st8" d="M48.6,50.6l-2.2,0.8c-0.4,0.2-0.9-0.1-1.1-0.5l-0.2-0.4c-0.2-0.4,0-0.9,0.5-1.1l2.2-0.8
					c0.4-0.2,0.9,0.1,1.1,0.5l0.2,0.4C49.2,49.9,49,50.4,48.6,50.6z"/>
				<path class="st8" d="M49.9,55.9l-2.2,0.8c-0.4,0.2-0.9-0.1-1.1-0.5l-0.2-0.4c-0.2-0.4,0-0.9,0.5-1.1l2.2-0.8
					c0.4-0.2,0.9,0.1,1.1,0.5l0.2,0.4C50.5,55.3,50.3,55.8,49.9,55.9z"/>
				<path class="st8" d="M51.1,61l-2.2,0.8c-0.4,0.2-0.9-0.1-1.1-0.5l-0.2-0.4c-0.2-0.4,0-0.9,0.5-1.1l2.2-0.8
					c0.4-0.2,0.9,0.1,1.1,0.5l0.2,0.4C51.8,60.3,51.6,60.8,51.1,61z"/>
				<path class="st8" d="M52.7,66.2L50.5,67c-0.4,0.2-0.9-0.1-1.1-0.5l-0.2-0.4c-0.2-0.4,0-0.9,0.5-1.1l2.2-0.8
					c0.4-0.2,0.9,0.1,1.1,0.5l0.2,0.4C53.3,65.5,53.1,66,52.7,66.2z"/>
				<path class="st8" d="M53.7,71.4l-1.9,0.7c-0.4,0.1-0.8-0.1-0.9-0.4l-0.1-0.3c-0.1-0.4,0-0.8,0.4-0.9l1.9-0.7
					c0.4-0.1,0.8,0.1,0.9,0.4l0.1,0.3C54.2,70.9,54.1,71.3,53.7,71.4z"/>
				<path class="st8" d="M46.5,74.1l-1.9,0.7c-0.4,0.1-0.8-0.1-0.9-0.4L43.6,74c-0.1-0.4,0-0.8,0.4-0.9l1.9-0.7
					c0.4-0.1,0.8,0.1,0.9,0.4l0.1,0.3C47,73.5,46.8,73.9,46.5,74.1z"/>
				<path class="st8" d="M43.9,69.4l-2.2,0.8c-0.4,0.2-0.9-0.1-1.1-0.5l-0.2-0.4c-0.2-0.4,0-0.9,0.5-1.1l2.2-0.8
					c0.4-0.2,0.9,0.1,1.1,0.5l0.2,0.4C44.5,68.8,44.3,69.3,43.9,69.4z"/>
				<path class="st8" d="M41.2,65L39,65.8c-0.4,0.2-0.9-0.1-1.1-0.5l-0.2-0.4c-0.2-0.4,0-0.9,0.5-1.1l2.2-0.8
					c0.4-0.2,0.9,0.1,1.1,0.5l0.2,0.4C41.8,64.4,41.6,64.8,41.2,65z"/>
				<path class="st8" d="M38.7,60l-2.2,0.8c-0.4,0.2-0.9-0.1-1.1-0.5l-0.2-0.4c-0.2-0.4,0-0.9,0.5-1.1l2.2-0.8
					c0.4-0.2,0.9,0.1,1.1,0.5l0.2,0.4C39.3,59.4,39.1,59.9,38.7,60z"/>
				<path class="st8" d="M36.4,55.1l-2.2,0.8c-0.4,0.2-0.9-0.1-1.1-0.5L33,54.9c-0.2-0.4,0-0.9,0.5-1.1l2.2-0.8
					c0.4-0.2,0.9,0.1,1.1,0.5l0.2,0.4C37,54.4,36.8,54.9,36.4,55.1z"/>
				<path class="st8" d="M41.9,50.5l-2.2,0.8c-0.4,0.2-0.9-0.1-1.1-0.5l-0.2-0.4c-0.2-0.4,0-0.9,0.5-1.1l2.2-0.8
					c0.4-0.2,0.9,0.1,1.1,0.5l0.2,0.4C42.5,49.8,42.3,50.3,41.9,50.5z"/>
				<path class="st8" d="M43.8,55.4l-2.2,0.8c-0.4,0.2-0.9-0.1-1.1-0.5l-0.2-0.4c-0.2-0.4,0-0.9,0.5-1.1l2.2-0.8
					c0.4-0.2,0.9,0.1,1.1,0.5l0.2,0.4C44.4,54.8,44.2,55.3,43.8,55.4z"/>
				<path class="st8" d="M45.7,60.6l-2.2,0.8c-0.4,0.2-0.9-0.1-1.1-0.5l-0.2-0.4c-0.2-0.4,0-0.9,0.5-1.1l2.2-0.8
					c0.4-0.2,0.9,0.1,1.1,0.5l0.2,0.4C46.3,60,46.1,60.5,45.7,60.6z"/>
				<path class="st8" d="M47.5,65.5l-2.2,0.8c-0.4,0.2-0.9-0.1-1.1-0.5l-0.2-0.4c-0.2-0.4,0-0.9,0.5-1.1l2.2-0.8
					c0.4-0.2,0.9,0.1,1.1,0.5l0.2,0.4C48.2,64.9,47.9,65.4,47.5,65.5z"/>
				<path class="st8" d="M49.4,70.5l-2.2,0.8c-0.4,0.2-0.9-0.1-1.1-0.5L46,70.3c-0.2-0.4,0-0.9,0.5-1.1l2.2-0.8
					c0.4-0.2,0.9,0.1,1.1,0.5l0.2,0.4C50,69.8,49.8,70.3,49.4,70.5z"/>
				<path class="st8" d="M51.1,75.2L48.9,76c-0.4,0.2-0.9-0.1-1.1-0.5l-0.2-0.4c-0.2-0.4,0-0.9,0.5-1.1l2.2-0.8
					c0.4-0.2,0.9,0.1,1.1,0.5l0.2,0.4C51.8,74.6,51.6,75,51.1,75.2z"/>
				<path class="st8" d="M34.7,49.3l-2.2,0.8c-0.4,0.2-0.9-0.1-1.1-0.5l-0.2-0.4c-0.2-0.4,0-0.9,0.5-1.1l2.2-0.8
					c0.4-0.2,0.9,0.1,1.1,0.5l0.2,0.4C35.3,48.7,35.1,49.2,34.7,49.3z"/>
				<path class="st7" d="M35.8,46.6l-2.2,0.8c-0.4,0.2-0.9-0.1-1.1-0.5l-0.2-0.4c-0.2-0.4,0-0.9,0.5-1.1l2.2-0.8
					c0.4-0.2,0.9,0.1,1.1,0.5l0.2,0.4C36.4,46,36.2,46.5,35.8,46.6z"/>
				<path class="st7" d="M42.8,52.7l-2.2,0.8c-0.4,0.2-0.9-0.1-1.1-0.5l-0.2-0.4c-0.2-0.4,0-0.9,0.5-1.1l2.2-0.8
					c0.4-0.2,0.9,0.1,1.1,0.5l0.2,0.4C43.4,52.1,43.2,52.6,42.8,52.7z"/>
				<path class="st7" d="M45.7,48.5l-2.2,0.8c-0.4,0.2-0.9-0.1-1.1-0.5l-0.2-0.4c-0.2-0.4,0-0.9,0.5-1.1l2.2-0.8
					c0.4-0.2,0.9,0.1,1.1,0.5l0.2,0.4C46.3,47.8,46.1,48.3,45.7,48.5z"/>
				<path class="st7" d="M37.6,51.4l-2.2,0.8c-0.4,0.2-0.9-0.1-1.1-0.5l-0.2-0.4c-0.2-0.4,0-0.9,0.5-1.1l2.2-0.8
					c0.4-0.2,0.9,0.1,1.1,0.5l0.2,0.4C38.2,50.8,38,51.3,37.6,51.4z"/>
				<path class="st7" d="M44.8,58.2L42.6,59c-0.4,0.2-0.9-0.1-1.1-0.5l-0.2-0.4c-0.2-0.4,0-0.9,0.5-1.1l2.2-0.8
					c0.4-0.2,0.9,0.1,1.1,0.5l0.2,0.4C45.4,57.6,45.2,58,44.8,58.2z"/>
				<path class="st7" d="M47.7,54l-2.2,0.8c-0.4,0.2-0.9-0.1-1.1-0.5l-0.2-0.4c-0.2-0.4,0-0.9,0.5-1.1l2.2-0.8
					c0.4-0.2,0.9,0.1,1.1,0.5l0.2,0.4C48.3,53.3,48.1,53.8,47.7,54z"/>
				<path class="st7" d="M39.6,56.9l-2.2,0.8c-0.4,0.2-0.9-0.1-1.1-0.5l-0.2-0.4c-0.2-0.4,0-0.9,0.5-1.1l2.2-0.8
					c0.4-0.2,0.9,0.1,1.1,0.5l0.2,0.4C40.3,56.3,40.1,56.8,39.6,56.9z"/>
				<path class="st7" d="M46.6,63l-2.2,0.8c-0.4,0.2-0.9-0.1-1.1-0.5l-0.2-0.4c-0.2-0.4,0-0.9,0.5-1.1l2.2-0.8
					c0.4-0.2,0.9,0.1,1.1,0.5l0.2,0.4C47.2,62.4,47,62.9,46.6,63z"/>
				<path class="st7" d="M49.5,58.8l-2.2,0.8c-0.4,0.2-0.9-0.1-1.1-0.5l-0.2-0.4c-0.2-0.4,0-0.9,0.5-1.1l2.2-0.8
					c0.4-0.2,0.9,0.1,1.1,0.5l0.2,0.4C50.1,58.1,49.9,58.6,49.5,58.8z"/>
				<path class="st7" d="M41.4,61.7l-2.2,0.8c-0.4,0.2-0.9-0.1-1.1-0.5L38,61.6c-0.2-0.4,0-0.9,0.5-1.1l2.2-0.8
					c0.4-0.2,0.9,0.1,1.1,0.5l0.2,0.4C42.1,61.1,41.9,61.6,41.4,61.7z"/>
				<path class="st7" d="M48.5,68l-2.2,0.8c-0.4,0.2-0.9-0.1-1.1-0.5l-0.2-0.4c-0.2-0.4,0-0.9,0.5-1.1l2.2-0.8
					c0.4-0.2,0.9,0.1,1.1,0.5l0.2,0.4C49.1,67.4,48.9,67.9,48.5,68z"/>
				<path class="st7" d="M51.4,63.8l-2.2,0.8c-0.4,0.2-0.9-0.1-1.1-0.5L48,63.7c-0.2-0.4,0-0.9,0.5-1.1l2.2-0.8
					c0.4-0.2,0.9,0.1,1.1,0.5l0.2,0.4C52,63.2,51.8,63.6,51.4,63.8z"/>
				<path class="st7" d="M43.3,66.8l-2.2,0.8c-0.4,0.2-0.9-0.1-1.1-0.5l-0.2-0.4c-0.2-0.4,0-0.9,0.5-1.1l2.2-0.8
					c0.4-0.2,0.9,0.1,1.1,0.5l0.2,0.4C43.9,66.1,43.7,66.6,43.3,66.8z"/>
				<path class="st7" d="M50.3,72.9l-2.2,0.8c-0.4,0.2-0.9-0.1-1.1-0.5l-0.2-0.4c-0.2-0.4,0-0.9,0.5-1.1l2.2-0.8
					c0.4-0.2,0.9,0.1,1.1,0.5l0.2,0.4C50.9,72.2,50.7,72.7,50.3,72.9z"/>
				<path class="st7" d="M52,77.4l-2.2,0.8c-0.4,0.2-0.9-0.1-1.1-0.5l-0.2-0.4c-0.2-0.4,0-0.9,0.5-1.1l2.2-0.8
					c0.4-0.2,0.9,0.1,1.1,0.5l0.2,0.4C52.6,76.8,52.4,77.3,52,77.4z"/>
				<path class="st7" d="M53.2,68.6L51,69.4c-0.4,0.2-0.9-0.1-1.1-0.5l-0.2-0.4c-0.2-0.4,0-0.9,0.5-1.1l2.2-0.8
					c0.4-0.2,0.9,0.1,1.1,0.5l0.2,0.4C53.8,68,53.6,68.5,53.2,68.6z"/>
				<path class="st7" d="M45.1,71.6l-2.2,0.8c-0.4,0.2-0.9-0.1-1.1-0.5l-0.2-0.4c-0.2-0.4,0-0.9,0.5-1.1l2.2-0.8
					c0.4-0.2,0.9,0.1,1.1,0.5l0.2,0.4C45.7,70.9,45.5,71.4,45.1,71.6z"/>
			</g>
			<path class="st9" d="M22.3,42.2c15,17.6,25.4,18.7,29.2,36.9C45.2,82.8,24.1,76.1,22.3,42.2z"/>
			<path class="st5" d="M60.7,102.1c8.2,14.3,26.1-19.3,26.1-19.3S52.5,87.7,60.7,102.1z"/>
		</g>
		<g>
			<path class="st9" d="M59.8,109.6c-0.2-6,4-9.9,8.8-14.5c4.6-4.4,9.9-9.3,12.8-17.4l2.4,0.9c-3.1,8.6-8.9,14-13.5,18.4
				c-4.6,4.3-8.2,7.7-8,12.6L59.8,109.6z"/>
			<path class="st5" d="M100.1,57C90.4,67.5,84,67.9,81.1,79C85,81.5,98.2,77.9,100.1,57z"/>
			<g>
				
					<ellipse transform="matrix(0.2891 -0.9573 0.9573 0.2891 12.5803 124.0993)" class="st6" cx="89.8" cy="53.6" rx="27.1" ry="7.9"/>
				<path class="st7" d="M93.5,33.8l-1.8-0.5c-0.3-0.1-0.5-0.5-0.4-0.9l0.1-0.3c0.1-0.4,0.5-0.6,0.8-0.5l1.8,0.5
					c0.3,0.1,0.5,0.5,0.4,0.9l-0.1,0.3C94.2,33.6,93.8,33.9,93.5,33.8z"/>
				<path class="st7" d="M95.8,37.2L94,36.6c-0.3-0.1-0.5-0.5-0.4-0.9l0.1-0.3c0.1-0.4,0.5-0.6,0.8-0.5l1.8,0.5
					c0.3,0.1,0.5,0.5,0.4,0.9l-0.1,0.3C96.5,37,96.1,37.3,95.8,37.2z"/>
				<path class="st7" d="M94.6,41.2l-1.8-0.5c-0.3-0.1-0.5-0.5-0.4-0.9l0.1-0.3c0.1-0.4,0.5-0.6,0.8-0.5l1.8,0.5
					c0.3,0.1,0.5,0.5,0.4,0.9l-0.1,0.3C95.3,41.1,94.9,41.3,94.6,41.2z"/>
				<path class="st7" d="M97.1,33l-1.8-0.5c-0.3-0.1-0.5-0.5-0.4-0.9l0.1-0.3c0.1-0.4,0.5-0.6,0.8-0.5l1.8,0.5
					c0.3,0.1,0.5,0.5,0.4,0.9l-0.1,0.3C97.8,32.9,97.4,33.1,97.1,33z"/>
				<path class="st7" d="M99.3,35.8l-1.8-0.5c-0.3-0.1-0.5-0.5-0.4-0.9l0.1-0.3c0.1-0.4,0.5-0.6,0.8-0.5l1.8,0.5
					c0.3,0.1,0.5,0.5,0.4,0.9l-0.1,0.3C100,35.7,99.6,35.9,99.3,35.8z"/>
				<path class="st7" d="M98.6,39.8l-1.8-0.5c-0.3-0.1-0.5-0.5-0.4-0.9l0.1-0.3c0.1-0.4,0.5-0.6,0.8-0.5l1.8,0.5
					c0.3,0.1,0.5,0.5,0.4,0.9l-0.1,0.3C99.3,39.7,98.9,39.9,98.6,39.8z"/>
				<path class="st7" d="M91.9,37.8L90,37.3c-0.3-0.1-0.5-0.5-0.4-0.9l0.1-0.3c0.1-0.4,0.5-0.6,0.8-0.5l1.8,0.5
					c0.3,0.1,0.5,0.5,0.4,0.9l-0.1,0.3C92.6,37.7,92.2,37.9,91.9,37.8z"/>
				<path class="st7" d="M93.4,45.2l-1.8-0.5c-0.3-0.1-0.5-0.5-0.4-0.9l0.1-0.3c0.1-0.4,0.5-0.6,0.8-0.5l1.8,0.5
					c0.3,0.1,0.5,0.5,0.4,0.9l-0.1,0.3C94.1,45.1,93.7,45.3,93.4,45.2z"/>
				<path class="st7" d="M97.4,43.8l-1.8-0.5c-0.3-0.1-0.5-0.5-0.4-0.9l0.1-0.3c0.1-0.4,0.5-0.6,0.8-0.5l1.8,0.5
					c0.3,0.1,0.5,0.5,0.4,0.9l-0.1,0.3C98.1,43.7,97.7,43.9,97.4,43.8z"/>
				<path class="st7" d="M90.7,41.9l-1.8-0.5c-0.3-0.1-0.5-0.5-0.4-0.9l0.1-0.3c0.1-0.4,0.5-0.6,0.8-0.5l1.8,0.5
					c0.3,0.1,0.5,0.5,0.4,0.9l-0.1,0.3C91.4,41.7,91,42,90.7,41.9z"/>
				<path class="st7" d="M92,49.7l-1.8-0.5c-0.3-0.1-0.5-0.5-0.4-0.9l0.1-0.3c0.1-0.4,0.5-0.6,0.8-0.5l1.8,0.5
					c0.3,0.1,0.5,0.5,0.4,0.9l-0.1,0.3C92.7,49.5,92.4,49.8,92,49.7z"/>
				<path class="st7" d="M96,48.3l-1.8-0.5c-0.3-0.1-0.5-0.5-0.4-0.9l0.1-0.3c0.1-0.4,0.5-0.6,0.8-0.5l1.8,0.5
					c0.3,0.1,0.5,0.5,0.4,0.9l-0.1,0.3C96.8,48.2,96.4,48.4,96,48.3z"/>
				<path class="st7" d="M89.3,46.3l-1.8-0.5c-0.3-0.1-0.5-0.5-0.4-0.9l0.1-0.3c0.1-0.4,0.5-0.6,0.8-0.5l1.8,0.5
					c0.3,0.1,0.5,0.5,0.4,0.9l-0.1,0.3C90,46.2,89.7,46.4,89.3,46.3z"/>
				<path class="st7" d="M90.7,54.2l-1.8-0.5c-0.3-0.1-0.5-0.5-0.4-0.9l0.1-0.3c0.1-0.4,0.5-0.6,0.8-0.5l1.8,0.5
					c0.3,0.1,0.5,0.5,0.4,0.9l-0.1,0.3C91.4,54.1,91,54.3,90.7,54.2z"/>
				<path class="st7" d="M94.7,52.8l-1.8-0.5c-0.3-0.1-0.5-0.5-0.4-0.9l0.1-0.3c0.1-0.4,0.5-0.6,0.8-0.5l1.8,0.5
					c0.3,0.1,0.5,0.5,0.4,0.9l-0.1,0.3C95.4,52.7,95,52.9,94.7,52.8z"/>
				<path class="st8" d="M97.2,51.2l-1.8-0.5c-0.3-0.1-0.5-0.5-0.4-0.9l0.1-0.3c0.1-0.4,0.5-0.6,0.8-0.5l1.8,0.5
					c0.3,0.1,0.5,0.5,0.4,0.9L98,50.7C97.9,51.1,97.5,51.3,97.2,51.2z"/>
				<path class="st8" d="M98.5,46.7l-1.8-0.5c-0.3-0.1-0.5-0.5-0.4-0.9l0.1-0.3c0.1-0.4,0.5-0.6,0.8-0.5L99,45
					c0.3,0.1,0.5,0.5,0.4,0.9l-0.1,0.3C99.2,46.6,98.9,46.8,98.5,46.7z"/>
				<path class="st8" d="M99.1,42.1l-1.8-0.5c-0.3-0.1-0.5-0.5-0.4-0.9l0.1-0.3c0.1-0.4,0.5-0.6,0.8-0.5l1.8,0.5
					c0.3,0.1,0.5,0.5,0.4,0.9l-0.1,0.3C99.8,42,99.4,42.3,99.1,42.1z"/>
				<path class="st8" d="M95.2,39.2l-1.8-0.5c-0.3-0.1-0.5-0.5-0.4-0.9l0.1-0.3c0.1-0.4,0.5-0.6,0.8-0.5l1.8,0.5
					c0.3,0.1,0.5,0.5,0.4,0.9L96,38.7C95.9,39,95.5,39.3,95.2,39.2z"/>
				<path class="st8" d="M99.3,37.9l-1.8-0.5c-0.3-0.1-0.5-0.5-0.4-0.9l0.1-0.3c0.1-0.4,0.5-0.6,0.8-0.5l1.8,0.5
					c0.3,0.1,0.5,0.5,0.4,0.9l-0.1,0.3C100,37.8,99.7,38,99.3,37.9z"/>
				<path class="st8" d="M92.5,35.9l-1.8-0.5c-0.3-0.1-0.5-0.5-0.4-0.9l0.1-0.3c0.1-0.4,0.5-0.6,0.8-0.5l1.8,0.5
					c0.3,0.1,0.5,0.5,0.4,0.9l-0.1,0.3C93.2,35.8,92.8,36,92.5,35.9z"/>
				<path class="st8" d="M96.4,35.2l-1.8-0.5c-0.3-0.1-0.5-0.5-0.4-0.9l0.1-0.3c0.1-0.4,0.5-0.6,0.8-0.5l1.8,0.5
					c0.3,0.1,0.5,0.5,0.4,0.9l-0.1,0.3C97.1,35.1,96.7,35.3,96.4,35.2z"/>
				<path class="st8" d="M97.6,30.8l-1.8-0.5c-0.3-0.1-0.5-0.5-0.4-0.9l0.1-0.3c0.1-0.4,0.5-0.6,0.8-0.5l1.8,0.5
					c0.3,0.1,0.5,0.5,0.4,0.9l-0.1,0.3C98.3,30.7,97.9,30.9,97.6,30.8z"/>
				<path class="st8" d="M90.6,39.7l-1.8-0.5c-0.3-0.1-0.5-0.5-0.4-0.9l0.1-0.3c0.1-0.4,0.5-0.6,0.8-0.5l1.8,0.5
					c0.3,0.1,0.5,0.5,0.4,0.9l-0.1,0.3C91.3,39.5,91,39.8,90.6,39.7z"/>
				<path class="st8" d="M94,43.1l-1.8-0.5c-0.3-0.1-0.5-0.5-0.4-0.9l0.1-0.3c0.1-0.4,0.5-0.6,0.8-0.5l1.8,0.5
					c0.3,0.1,0.5,0.5,0.4,0.9l-0.1,0.3C94.7,43,94.3,43.2,94,43.1z"/>
				<path class="st8" d="M88.9,43.9L87,43.3c-0.3-0.1-0.5-0.5-0.4-0.9l0.1-0.3c0.1-0.4,0.5-0.6,0.8-0.5l1.8,0.5
					c0.3,0.1,0.5,0.5,0.4,0.9l-0.1,0.3C89.6,43.7,89.2,44,88.9,43.9z"/>
				<path class="st8" d="M92.7,47.6L90.8,47c-0.3-0.1-0.5-0.5-0.4-0.9l0.1-0.3c0.1-0.4,0.5-0.6,0.8-0.5l1.8,0.5
					c0.3,0.1,0.5,0.5,0.4,0.9l-0.1,0.3C93.4,47.5,93,47.7,92.7,47.6z"/>
				<path class="st8" d="M87.1,48.2l-1.8-0.5c-0.3-0.1-0.5-0.5-0.4-0.9l0.1-0.3c0.1-0.4,0.5-0.6,0.8-0.5l1.8,0.5
					c0.3,0.1,0.5,0.5,0.4,0.9l-0.1,0.3C87.8,48.1,87.4,48.3,87.1,48.2z"/>
				<path class="st8" d="M91.4,51.8l-1.8-0.5c-0.3-0.1-0.5-0.5-0.4-0.9l0.1-0.3c0.1-0.4,0.5-0.6,0.8-0.5l1.8,0.5
					c0.3,0.1,0.5,0.5,0.4,0.9l-0.1,0.3C92.1,51.7,91.7,51.9,91.4,51.8z"/>
				<path class="st8" d="M95.9,55.4l-1.8-0.5c-0.3-0.1-0.5-0.5-0.4-0.9l0.1-0.3c0.1-0.4,0.5-0.6,0.8-0.5l1.8,0.5
					c0.3,0.1,0.5,0.5,0.4,0.9l-0.1,0.3C96.6,55.3,96.2,55.5,95.9,55.4z"/>
				<path class="st8" d="M94.3,59.6l-1.8-0.5c-0.3-0.1-0.5-0.5-0.4-0.9l0.1-0.3c0.1-0.4,0.5-0.6,0.8-0.5l1.8,0.5
					c0.3,0.1,0.5,0.5,0.4,0.9l-0.1,0.3C95.1,59.5,94.7,59.7,94.3,59.6z"/>
				<path class="st8" d="M92.6,63.8l-1.8-0.5c-0.3-0.1-0.5-0.5-0.4-0.9l0.1-0.3c0.1-0.4,0.5-0.6,0.8-0.5l1.8,0.5
					c0.3,0.1,0.5,0.5,0.4,0.9l-0.1,0.3C93.3,63.6,92.9,63.9,92.6,63.8z"/>
				<path class="st8" d="M90.9,67.6L89,67.1c-0.3-0.1-0.5-0.5-0.4-0.9l0.1-0.3c0.1-0.4,0.5-0.6,0.8-0.5l1.8,0.5
					c0.3,0.1,0.5,0.5,0.4,0.9l-0.1,0.3C91.6,67.5,91.2,67.7,90.9,67.6z"/>
				<path class="st8" d="M89.3,71.8l-1.8-0.5c-0.3-0.1-0.5-0.5-0.4-0.9l0.1-0.3c0.1-0.4,0.5-0.6,0.8-0.5l1.8,0.5
					c0.3,0.1,0.5,0.5,0.4,0.9l-0.1,0.3C90,71.7,89.6,71.9,89.3,71.8z"/>
				<path class="st8" d="M87.4,75.7l-1.6-0.5c-0.3-0.1-0.5-0.4-0.4-0.7l0.1-0.3c0.1-0.3,0.4-0.5,0.7-0.4l1.6,0.5
					c0.3,0.1,0.5,0.4,0.4,0.7l-0.1,0.3C88,75.6,87.7,75.8,87.4,75.7z"/>
				<path class="st8" d="M81.3,73.9l-1.6-0.5c-0.3-0.1-0.5-0.4-0.4-0.7l0.1-0.3c0.1-0.3,0.4-0.5,0.7-0.4l1.6,0.5
					c0.3,0.1,0.5,0.4,0.4,0.7L82,73.5C81.9,73.8,81.6,74,81.3,73.9z"/>
				<path class="st8" d="M81.9,69.6l-1.8-0.5c-0.3-0.1-0.5-0.5-0.4-0.9l0.1-0.3c0.1-0.4,0.5-0.6,0.8-0.5l1.8,0.5
					c0.3,0.1,0.5,0.5,0.4,0.9l-0.1,0.3C82.6,69.5,82.3,69.7,81.9,69.6z"/>
				<path class="st8" d="M82.4,65.4l-1.8-0.5c-0.3-0.1-0.5-0.5-0.4-0.9l0.1-0.3c0.1-0.4,0.5-0.6,0.8-0.5l1.8,0.5
					c0.3,0.1,0.5,0.5,0.4,0.9l-0.1,0.3C83.1,65.3,82.7,65.5,82.4,65.4z"/>
				<path class="st8" d="M83.2,61l-1.8-0.5c-0.3-0.1-0.5-0.5-0.4-0.9l0.1-0.3c0.1-0.4,0.5-0.6,0.8-0.5l1.8,0.5
					c0.3,0.1,0.5,0.5,0.4,0.9L84,60.5C83.9,60.9,83.5,61.1,83.2,61z"/>
				<path class="st8" d="M84.1,56.6l-1.8-0.5c-0.3-0.1-0.5-0.5-0.4-0.9l0.1-0.3c0.1-0.4,0.5-0.6,0.8-0.5l1.8,0.5
					c0.3,0.1,0.5,0.5,0.4,0.9L85,56.1C84.9,56.5,84.5,56.7,84.1,56.6z"/>
				<path class="st8" d="M90,56.3l-1.8-0.5c-0.3-0.1-0.5-0.5-0.4-0.9l0.1-0.3c0.1-0.4,0.5-0.6,0.8-0.5l1.8,0.5
					c0.3,0.1,0.5,0.5,0.4,0.9l-0.1,0.3C90.7,56.2,90.4,56.4,90,56.3z"/>
				<path class="st8" d="M88.8,60.4l-1.8-0.5c-0.3-0.1-0.5-0.5-0.4-0.9l0.1-0.3c0.1-0.4,0.5-0.6,0.8-0.5l1.8,0.5
					c0.3,0.1,0.5,0.5,0.4,0.9l-0.1,0.3C89.5,60.3,89.1,60.5,88.8,60.4z"/>
				<path class="st8" d="M87.5,64.8l-1.8-0.5c-0.3-0.1-0.5-0.5-0.4-0.9l0.1-0.3c0.1-0.4,0.5-0.6,0.8-0.5l1.8,0.5
					c0.3,0.1,0.5,0.5,0.4,0.9l-0.1,0.3C88.2,64.7,87.8,64.9,87.5,64.8z"/>
				<path class="st8" d="M86.2,68.9l-1.8-0.5c-0.3-0.1-0.5-0.5-0.4-0.9l0.1-0.3c0.1-0.4,0.5-0.6,0.8-0.5l1.8,0.5
					c0.3,0.1,0.5,0.5,0.4,0.9l-0.1,0.3C87,68.7,86.6,69,86.2,68.9z"/>
				<path class="st8" d="M85,73l-1.8-0.5c-0.3-0.1-0.5-0.5-0.4-0.9l0.1-0.3c0.1-0.4,0.5-0.6,0.8-0.5l1.8,0.5
					c0.3,0.1,0.5,0.5,0.4,0.9l-0.1,0.3C85.7,72.9,85.3,73.1,85,73z"/>
				<path class="st8" d="M83.8,76.9L82,76.4c-0.3-0.1-0.5-0.5-0.4-0.9l0.1-0.3c0.1-0.4,0.5-0.6,0.8-0.5l1.8,0.5
					c0.3,0.1,0.5,0.5,0.4,0.9l-0.1,0.3C84.5,76.8,84.2,77,83.8,76.9z"/>
				<path class="st8" d="M85.9,52.1L84,51.5c-0.3-0.1-0.5-0.5-0.4-0.9l0.1-0.3c0.1-0.4,0.5-0.6,0.8-0.5l1.8,0.5
					c0.3,0.1,0.5,0.5,0.4,0.9l-0.1,0.3C86.6,51.9,86.2,52.2,85.9,52.1z"/>
				<path class="st7" d="M87.9,50.8l-1.8-0.5c-0.3-0.1-0.5-0.5-0.4-0.9l0.1-0.3c0.1-0.4,0.5-0.6,0.8-0.5l1.8,0.5
					c0.3,0.1,0.5,0.5,0.4,0.9l-0.1,0.3C88.7,50.7,88.3,50.9,87.9,50.8z"/>
				<path class="st7" d="M89.5,58.2l-1.8-0.5c-0.3-0.1-0.5-0.5-0.4-0.9l0.1-0.3c0.1-0.4,0.5-0.6,0.8-0.5l1.8,0.5
					c0.3,0.1,0.5,0.5,0.4,0.9l-0.1,0.3C90.2,58.1,89.8,58.3,89.5,58.2z"/>
				<path class="st7" d="M93.5,56.8l-1.8-0.5c-0.3-0.1-0.5-0.5-0.4-0.9l0.1-0.3c0.1-0.4,0.5-0.6,0.8-0.5l1.8,0.5
					c0.3,0.1,0.5,0.5,0.4,0.9l-0.1,0.3C94.2,56.7,93.8,56.9,93.5,56.8z"/>
				<path class="st7" d="M86.7,54.8l-1.8-0.5c-0.3-0.1-0.5-0.5-0.4-0.9l0.1-0.3c0.1-0.4,0.5-0.6,0.8-0.5l1.8,0.5
					c0.3,0.1,0.5,0.5,0.4,0.9l-0.1,0.3C87.5,54.7,87.1,54.9,86.7,54.8z"/>
				<path class="st7" d="M88.1,62.7l-1.8-0.5c-0.3-0.1-0.5-0.5-0.4-0.9l0.1-0.3c0.1-0.4,0.5-0.6,0.8-0.5l1.8,0.5
					c0.3,0.1,0.5,0.5,0.4,0.9l-0.1,0.3C88.8,62.6,88.4,62.9,88.1,62.7z"/>
				<path class="st7" d="M92.1,61.4l-1.8-0.5c-0.3-0.1-0.5-0.5-0.4-0.9l0.1-0.3c0.1-0.4,0.5-0.6,0.8-0.5l1.8,0.5
					c0.3,0.1,0.5,0.5,0.4,0.9l-0.1,0.3C92.8,61.3,92.4,61.5,92.1,61.4z"/>
				<path class="st7" d="M85.4,59.4l-1.8-0.5c-0.3-0.1-0.5-0.5-0.4-0.9l0.1-0.3c0.1-0.4,0.5-0.6,0.8-0.5l1.8,0.5
					c0.3,0.1,0.5,0.5,0.4,0.9l-0.1,0.3C86.1,59.3,85.7,59.5,85.4,59.4z"/>
				<path class="st7" d="M86.9,66.8L85,66.2c-0.3-0.1-0.5-0.5-0.4-0.9l0.1-0.3c0.1-0.4,0.5-0.6,0.8-0.5l1.8,0.5
					c0.3,0.1,0.5,0.5,0.4,0.9l-0.1,0.3C87.6,66.7,87.2,66.9,86.9,66.8z"/>
				<path class="st7" d="M90.9,65.4L89,64.9c-0.3-0.1-0.5-0.5-0.4-0.9l0.1-0.3c0.1-0.4,0.5-0.6,0.8-0.5l1.8,0.5
					c0.3,0.1,0.5,0.5,0.4,0.9l-0.1,0.3C91.6,65.3,91.2,65.5,90.9,65.4z"/>
				<path class="st7" d="M84.1,63.4l-1.8-0.5c-0.3-0.1-0.5-0.5-0.4-0.9l0.1-0.3c0.1-0.4,0.5-0.6,0.8-0.5l1.8,0.5
					c0.3,0.1,0.5,0.5,0.4,0.9L85,62.9C84.9,63.3,84.5,63.5,84.1,63.4z"/>
				<path class="st7" d="M85.6,71l-1.8-0.5c-0.3-0.1-0.5-0.5-0.4-0.9l0.1-0.3c0.1-0.4,0.5-0.6,0.8-0.5l1.8,0.5
					c0.3,0.1,0.5,0.5,0.4,0.9l-0.1,0.3C86.3,70.8,86,71.1,85.6,71z"/>
				<path class="st7" d="M89.6,69.6l-1.8-0.5c-0.3-0.1-0.5-0.5-0.4-0.9l0.1-0.3c0.1-0.4,0.5-0.6,0.8-0.5l1.8,0.5
					c0.3,0.1,0.5,0.5,0.4,0.9l-0.1,0.3C90.3,69.5,90,69.7,89.6,69.6z"/>
				<path class="st7" d="M82.9,67.6L81,67.1c-0.3-0.1-0.5-0.5-0.4-0.9l0.1-0.3c0.1-0.4,0.5-0.6,0.8-0.5l1.8,0.5
					c0.3,0.1,0.5,0.5,0.4,0.9l-0.1,0.3C83.6,67.5,83.2,67.7,82.9,67.6z"/>
				<path class="st7" d="M84.4,75l-1.8-0.5c-0.3-0.1-0.5-0.5-0.4-0.9l0.1-0.3c0.1-0.4,0.5-0.6,0.8-0.5l1.8,0.5
					c0.3,0.1,0.5,0.5,0.4,0.9l-0.1,0.3C85.1,74.9,84.7,75.1,84.4,75z"/>
				<path class="st7" d="M83.2,78.8l-1.8-0.5c-0.3-0.1-0.5-0.5-0.4-0.9l0.1-0.3c0.1-0.4,0.5-0.6,0.8-0.5l1.8,0.5
					c0.3,0.1,0.5,0.5,0.4,0.9l-0.1,0.3C84,78.7,83.6,78.9,83.2,78.8z"/>
				<path class="st7" d="M88.4,73.6l-1.8-0.5c-0.3-0.1-0.5-0.5-0.4-0.9l0.1-0.3c0.1-0.4,0.5-0.6,0.8-0.5l1.8,0.5
					c0.3,0.1,0.5,0.5,0.4,0.9l-0.1,0.3C89.1,73.5,88.8,73.7,88.4,73.6z"/>
				<path class="st7" d="M81.7,71.6l-1.8-0.5c-0.3-0.1-0.5-0.5-0.4-0.9l0.1-0.3c0.1-0.4,0.5-0.6,0.8-0.5l1.8,0.5
					c0.3,0.1,0.5,0.5,0.4,0.9l-0.1,0.3C82.4,71.5,82,71.7,81.7,71.6z"/>
			</g>
			<path class="st9" d="M81.4,41.2C82.5,60,88.7,66,82.1,79.7C76.2,79,65.8,64.2,81.4,41.2z"/>
			<path class="st4" d="M77.3,86.9c6.7-5.4-12.2-11.5-12.2-11.5S70.6,92.2,77.3,86.9z"/>
			<path class="st4" d="M71.3,96.1c-4.8,7.1,15,7.5,15,7.5S76.1,89.1,71.3,96.1z"/>
		</g>
	</g>
</g>
</svg>
