<svg xmlns="http://www.w3.org/2000/svg" xmlns:xlink="http://www.w3.org/1999/xlink" viewBox="0 0 356.87 187.26"><defs><style>.cls-1{fill:url(#linear-gradient);}.cls-2{isolation:isolate;}.cls-3{clip-path:url(#clip-path);}.cls-4{opacity:0.27;mix-blend-mode:multiply;}.cls-5{fill:url(#linear-gradient-4);}.cls-6{fill:#fff;}.cls-7{fill:#2c7300;}.cls-8{fill:#378f00;}.cls-9{fill:#fab700;}.cls-10{fill:#ba8800;}.cls-11{fill:#ffd154;}.cls-12{fill:#66c30f;}</style><linearGradient id="linear-gradient" x1="63.87" y1="104.01" x2="356.87" y2="104.01" gradientUnits="userSpaceOnUse"><stop offset="0" stop-color="#66c30f"/><stop offset="0.21" stop-color="#53a40e"/><stop offset="0.75" stop-color="#255b0b"/><stop offset="1" stop-color="#133e0a"/></linearGradient><clipPath id="clip-path"><rect class="cls-1" x="63.87" y="42.51" width="293" height="123" rx="11.19"/></clipPath><linearGradient id="linear-gradient-4" x1="0" y1="93.63" x2="202.41" y2="93.63" xlink:href="#linear-gradient"/></defs><title>Asset 17</title><g class="cls-2"><g id="Layer_2" data-name="Layer 2"><g id="Layer_1-2" data-name="Layer 1"><rect class="cls-1" x="63.87" y="42.51" width="293" height="123" rx="11.19"/><g class="cls-3"><rect class="cls-1" x="63.87" y="42.51" width="293" height="123" rx="11.19"/><g class="cls-4"><path class="cls-5" d="M68.53,2.8C50.1,7,28.18,20.26,17.1,35.57,7.37,49,1.13,63.44.28,80c-1.37,26.56,1.82,55.58,20.06,74.93a103.78,103.78,0,0,0,47.45,28.36c13.12,3.44,53.24,6.87,72.13,0,14.06-5.11,27.76-11.67,38.06-22.52,6.06-6.38,11.74-13.23,15.92-21C201,126.53,203.45,111,202,96S197.42,65.29,190.26,52a93.43,93.43,0,0,0-28-32.14C149.26,10.51,110.93-6.77,68.53,2.8Z"/></g></g><path class="cls-6" d="M249.45,138.74h-4.33l-.92,2.73h-2.4l4.1-11.21h2.8l4.1,11.21h-2.43Zm-.58-1.74-1.07-3.16-.51-1.7h0l-.48,1.67L245.71,137Z"/><path class="cls-6" d="M262,142.14c0,2-1.82,3-4.47,3-2.92,0-4.21-.9-4.21-2.21,0-.77.44-1.38,1.54-1.62a1.58,1.58,0,0,1-1.14-1.59,1.78,1.78,0,0,1,1.31-1.69,2.52,2.52,0,0,1-1.34-2.33c0-1.78,1.48-2.88,3.88-2.88a5.38,5.38,0,0,1,1.83.27A2.31,2.31,0,0,1,262,131l.27,1.67c-1.07-.1-1.68.27-1.84.93a2.53,2.53,0,0,1,1.09,2.14c0,1.77-1.48,2.88-3.87,2.88a7.13,7.13,0,0,1-1.45-.14c-.49.15-.7.41-.7.73,0,.48.36.72,1.09.72h2.62C261,139.88,262,140.71,262,142.14Zm-1.87.32c0-.44-.29-.71-1.17-.71h-2.87c-.55,0-.94.3-.94.76,0,.63.9,1,2.4,1C259.33,143.53,260.16,143.06,260.16,142.46ZM256,135.68a1.43,1.43,0,0,0,1.57,1.43,1.41,1.41,0,0,0,1.54-1.43,1.39,1.39,0,0,0-1.54-1.41A1.41,1.41,0,0,0,256,135.68Z"/><path class="cls-6" d="M263.33,133h2l.15,1.66a2.62,2.62,0,0,1,2.64-1.83,1.91,1.91,0,0,1,.91.18l-.27,2a2.88,2.88,0,0,0-1-.14,2.07,2.07,0,0,0-2.08,2.26v4.4h-2.32Z"/><path class="cls-6" d="M270.11,130.51c0-.83.47-1.26,1.44-1.26s1.45.43,1.45,1.26-.48,1.24-1.45,1.24S270.11,131.34,270.11,130.51Zm2.6,11h-2.33V133h2.33Z"/><path class="cls-6" d="M282.81,135.3l-2.18.79a1.64,1.64,0,0,0-1.68-1.55c-1.31,0-2,.92-2,2.7s.78,2.67,2,2.67a1.65,1.65,0,0,0,1.77-1.51l2.11.68c-.37,1.51-1.75,2.56-3.86,2.56a4.42,4.42,0,0,1-.07-8.83C281.19,132.81,282.4,133.91,282.81,135.3Z"/><path class="cls-6" d="M284.47,138.62V133h2.33v5.08c0,1.32.56,1.75,1.58,1.75s1.87-.68,1.87-2.26V133h2.33v8.49h-2.07l-.09-1.47a3,3,0,0,1-2.94,1.64A2.73,2.73,0,0,1,284.47,138.62Z"/><path class="cls-6" d="M297.21,138.86c0,.78.25,1.07.88,1.07a2.39,2.39,0,0,0,1-.17l-.2,1.53a3.48,3.48,0,0,1-1.58.35c-1.65,0-2.38-.76-2.38-2.53v-9.86h2.33Z"/><path class="cls-6" d="M305.79,141a3.82,3.82,0,0,1-2.31.69c-1.72,0-2.89-.69-2.89-2.56v-4.37H299V133h1.56v-2l2.33-.65V133h2.72v1.73h-2.72v4a1,1,0,0,0,1.17,1.18,1.88,1.88,0,0,0,1.33-.48Z"/><path class="cls-6" d="M307.05,138.62V133h2.33v5.08c0,1.32.56,1.75,1.58,1.75s1.87-.68,1.87-2.26V133h2.33v8.49h-2.08L313,140a3,3,0,0,1-2.94,1.64A2.73,2.73,0,0,1,307.05,138.62Z"/><path class="cls-6" d="M317.49,133h2l.15,1.66a2.62,2.62,0,0,1,2.64-1.83,1.91,1.91,0,0,1,.91.18l-.27,2a2.85,2.85,0,0,0-1.05-.14,2.06,2.06,0,0,0-2.07,2.26v4.4h-2.33Z"/><path class="cls-6" d="M332.17,138h-6a2,2,0,0,0,2.13,1.95,1.93,1.93,0,0,0,1.92-1.09l1.85.72a3.83,3.83,0,0,1-3.75,2.1,4.42,4.42,0,0,1-.12-8.83,3.76,3.76,0,0,1,4,4A9.77,9.77,0,0,1,332.17,138Zm-6-1.62H330a1.76,1.76,0,0,0-1.82-1.82A1.92,1.92,0,0,0,326.19,136.34Z"/><path class="cls-7" d="M126.36,116.83c2-7.14-14.47-2.09-14.47-2.09S124.36,124,126.36,116.83Z"/><path class="cls-8" d="M134.3,79.22c-3,6.8-6,8.09-5.45,14C131.14,93.8,137,89.77,134.3,79.22Z"/><path class="cls-9" d="M132.75,79.12c.38,7.76-1.13,14.14-3.38,14.25s-4.39-6.09-4.78-13.85,1.13-14.14,3.38-14.25S132.36,71.36,132.75,79.12Z"/><path class="cls-10" d="M127,69l-1,0a.36.36,0,0,1-.36-.35v-.18a.36.36,0,0,1,.32-.38l1,0a.35.35,0,0,1,.36.34v.19A.36.36,0,0,1,127,69Z"/><path class="cls-10" d="M128.72,70.27l-1,0a.35.35,0,0,1-.35-.35v-.19a.35.35,0,0,1,.32-.38l1,0a.35.35,0,0,1,.36.34v.19A.35.35,0,0,1,128.72,70.27Z"/><path class="cls-10" d="M128.83,72.44l-1,0a.36.36,0,0,1-.36-.35V72a.36.36,0,0,1,.33-.38l1,0a.35.35,0,0,1,.36.34v.19A.36.36,0,0,1,128.83,72.44Z"/><path class="cls-10" d="M128.61,68l-1,0a.36.36,0,0,1-.36-.35v-.19a.36.36,0,0,1,.33-.38l1,0a.36.36,0,0,1,.36.35v.19A.36.36,0,0,1,128.61,68Z"/><path class="cls-10" d="M130.19,69l-1,0a.36.36,0,0,1-.36-.35v-.19a.35.35,0,0,1,.32-.38l1-.05a.37.37,0,0,1,.36.35v.19A.37.37,0,0,1,130.19,69Z"/><path class="cls-10" d="M130.56,71.09l-1,0a.35.35,0,0,1-.36-.34v-.19a.36.36,0,0,1,.33-.38l1,0a.36.36,0,0,1,.36.35v.18A.35.35,0,0,1,130.56,71.09Z"/><path class="cls-10" d="M126.91,71.27l-1,0a.36.36,0,0,1-.36-.35v-.18a.36.36,0,0,1,.32-.38l1,0a.36.36,0,0,1,.36.35v.18A.36.36,0,0,1,126.91,71.27Z"/><path class="cls-10" d="M128.93,74.61l-1,0a.35.35,0,0,1-.36-.34v-.19a.36.36,0,0,1,.32-.38l1,0a.36.36,0,0,1,.36.35v.18A.36.36,0,0,1,128.93,74.61Z"/><path class="cls-10" d="M130.66,73.27l-1,0a.36.36,0,0,1-.36-.35v-.19a.36.36,0,0,1,.32-.38l1-.05a.36.36,0,0,1,.36.35v.19A.36.36,0,0,1,130.66,73.27Z"/><path class="cls-10" d="M127,73.44l-1,0a.35.35,0,0,1-.36-.34V73a.35.35,0,0,1,.32-.38l1,0a.36.36,0,0,1,.36.35v.18A.34.34,0,0,1,127,73.44Z"/><path class="cls-10" d="M129.05,77l-1,0a.35.35,0,0,1-.36-.34v-.19a.36.36,0,0,1,.32-.38l1,0a.36.36,0,0,1,.36.35v.18A.36.36,0,0,1,129.05,77Z"/><path class="cls-10" d="M130.78,75.68l-1,0a.36.36,0,0,1-.36-.35v-.19a.36.36,0,0,1,.32-.38l1,0a.36.36,0,0,1,.36.35v.19A.36.36,0,0,1,130.78,75.68Z"/><path class="cls-10" d="M127.14,75.85l-1,.05a.35.35,0,0,1-.36-.34v-.19a.35.35,0,0,1,.32-.38l1,0a.36.36,0,0,1,.36.35v.18A.34.34,0,0,1,127.14,75.85Z"/><path class="cls-10" d="M129.18,79.47l-1,0a.35.35,0,0,1-.36-.34V79a.36.36,0,0,1,.33-.38l1,0a.36.36,0,0,1,.36.35v.19A.36.36,0,0,1,129.18,79.47Z"/><path class="cls-10" d="M130.91,78.12l-1,0a.36.36,0,0,1-.36-.35v-.19a.36.36,0,0,1,.33-.38l1,0a.35.35,0,0,1,.36.34v.19A.36.36,0,0,1,130.91,78.12Z"/><path class="cls-11" d="M131.83,76.89l-1,0a.35.35,0,0,1-.35-.35V76.4a.35.35,0,0,1,.32-.38l1,0a.35.35,0,0,1,.36.34v.19A.35.35,0,0,1,131.83,76.89Z"/><path class="cls-11" d="M131.71,74.48l-1,0a.36.36,0,0,1-.36-.35V74a.35.35,0,0,1,.32-.38l1,0a.35.35,0,0,1,.36.34v.19A.35.35,0,0,1,131.71,74.48Z"/><path class="cls-11" d="M131.19,72.15l-1,0a.36.36,0,0,1-.36-.35v-.18a.35.35,0,0,1,.32-.38l1-.05a.35.35,0,0,1,.36.34v.19A.35.35,0,0,1,131.19,72.15Z"/><path class="cls-11" d="M128.77,71.35l-1,.05a.35.35,0,0,1-.36-.34v-.19a.35.35,0,0,1,.32-.38l1,0a.36.36,0,0,1,.36.35V71A.36.36,0,0,1,128.77,71.35Z"/><path class="cls-11" d="M130.58,70l-1,0a.36.36,0,0,1-.36-.35v-.18a.36.36,0,0,1,.33-.38l1,0a.36.36,0,0,1,.36.35v.18A.36.36,0,0,1,130.58,70Z"/><path class="cls-11" d="M126.86,70.21l-1,.05a.35.35,0,0,1-.36-.34v-.19a.35.35,0,0,1,.32-.38l1,0a.36.36,0,0,1,.36.35v.18A.35.35,0,0,1,126.86,70.21Z"/><path class="cls-11" d="M128.67,69.21l-1,.05a.36.36,0,0,1-.36-.35v-.18a.35.35,0,0,1,.33-.38l1,0a.35.35,0,0,1,.36.34v.19A.36.36,0,0,1,128.67,69.21Z"/><path class="cls-11" d="M128.48,66.88l-1,.05a.36.36,0,0,1-.36-.35v-.19a.36.36,0,0,1,.33-.38l1-.05a.36.36,0,0,1,.36.35v.19A.35.35,0,0,1,128.48,66.88Z"/><path class="cls-11" d="M126.62,72.37l-1,0a.35.35,0,0,1-.36-.34v-.19a.35.35,0,0,1,.32-.38l1-.05a.35.35,0,0,1,.35.35V72A.35.35,0,0,1,126.62,72.37Z"/><path class="cls-11" d="M128.88,73.5l-1,0a.35.35,0,0,1-.35-.35V73a.35.35,0,0,1,.32-.38l1,0a.35.35,0,0,1,.36.34v.19A.35.35,0,0,1,128.88,73.5Z"/><path class="cls-11" d="M126.49,74.73l-1,0a.35.35,0,0,1-.36-.35v-.18a.35.35,0,0,1,.32-.38l1-.05a.36.36,0,0,1,.36.35v.18A.37.37,0,0,1,126.49,74.73Z"/><path class="cls-11" d="M129,75.9l-1,0a.35.35,0,0,1-.35-.34v-.19A.35.35,0,0,1,128,75l1-.05a.36.36,0,0,1,.36.35v.19A.34.34,0,0,1,129,75.9Z"/><path class="cls-11" d="M126.37,77.15l-1,0a.35.35,0,0,1-.36-.34v-.19a.36.36,0,0,1,.33-.38l1-.05a.36.36,0,0,1,.36.35v.19A.34.34,0,0,1,126.37,77.15Z"/><path class="cls-11" d="M129.11,78.21l-1,.05a.36.36,0,0,1-.36-.35v-.19a.35.35,0,0,1,.32-.38l1,0a.36.36,0,0,1,.36.35v.19A.36.36,0,0,1,129.11,78.21Z"/><path class="cls-11" d="M131.94,79.16l-1,0a.36.36,0,0,1-.36-.35v-.18a.34.34,0,0,1,.32-.38l1,0a.35.35,0,0,1,.36.34v.19A.37.37,0,0,1,131.94,79.16Z"/><path class="cls-11" d="M131.92,81.51l-1,0a.36.36,0,0,1-.36-.35V81a.35.35,0,0,1,.32-.38l1-.05a.35.35,0,0,1,.36.34v.19A.36.36,0,0,1,131.92,81.51Z"/><path class="cls-11" d="M131.77,83.83l-1,0a.35.35,0,0,1-.35-.35v-.18a.35.35,0,0,1,.32-.38l1,0a.36.36,0,0,1,.36.35v.18A.35.35,0,0,1,131.77,83.83Z"/><path class="cls-11" d="M131.62,86l-1,0a.36.36,0,0,1-.36-.35v-.19a.36.36,0,0,1,.33-.38l1-.05a.36.36,0,0,1,.36.35v.19A.36.36,0,0,1,131.62,86Z"/><path class="cls-11" d="M131.56,88.32l-1,.05a.36.36,0,0,1-.36-.35v-.18a.36.36,0,0,1,.33-.38l1,0a.35.35,0,0,1,.36.34v.19A.35.35,0,0,1,131.56,88.32Z"/><path class="cls-11" d="M131.32,90.57l-.84,0a.3.3,0,0,1-.31-.29v-.16a.31.31,0,0,1,.28-.32l.84,0a.29.29,0,0,1,.3.29v.16A.29.29,0,0,1,131.32,90.57Z"/><path class="cls-11" d="M128.05,90.73l-.84,0a.29.29,0,0,1-.3-.29v-.16a.29.29,0,0,1,.27-.32l.84,0a.29.29,0,0,1,.3.29v.16A.29.29,0,0,1,128.05,90.73Z"/><path class="cls-11" d="M127.59,88.51l-1,0a.35.35,0,0,1-.36-.34V88a.35.35,0,0,1,.32-.38l1-.05a.36.36,0,0,1,.36.35v.18A.34.34,0,0,1,127.59,88.51Z"/><path class="cls-11" d="M127.07,86.4l-1,0a.36.36,0,0,1-.36-.35v-.19a.35.35,0,0,1,.32-.38l1,0a.37.37,0,0,1,.36.35V86A.35.35,0,0,1,127.07,86.4Z"/><path class="cls-11" d="M126.71,84.08l-1,0a.36.36,0,0,1-.36-.35v-.19a.35.35,0,0,1,.32-.38l1,0a.35.35,0,0,1,.36.34v.19A.35.35,0,0,1,126.71,84.08Z"/><path class="cls-11" d="M126.41,81.78l-1,0a.36.36,0,0,1-.36-.35v-.19a.36.36,0,0,1,.33-.38l1,0a.35.35,0,0,1,.36.34v.19A.36.36,0,0,1,126.41,81.78Z"/><path class="cls-11" d="M129.23,80.61l-1,0a.36.36,0,0,1-.36-.35v-.18a.35.35,0,0,1,.32-.38l1,0a.35.35,0,0,1,.36.35v.18A.36.36,0,0,1,129.23,80.61Z"/><path class="cls-11" d="M129.34,82.85l-1,0a.35.35,0,0,1-.36-.34v-.19a.36.36,0,0,1,.32-.38l1,0a.36.36,0,0,1,.36.35v.19A.36.36,0,0,1,129.34,82.85Z"/><path class="cls-11" d="M129.46,85.21l-1,.05a.36.36,0,0,1-.36-.35v-.19a.35.35,0,0,1,.32-.38l1,0a.36.36,0,0,1,.35.35v.19A.35.35,0,0,1,129.46,85.21Z"/><path class="cls-11" d="M129.57,87.41l-1,0a.36.36,0,0,1-.36-.35v-.18a.35.35,0,0,1,.32-.38l1,0a.35.35,0,0,1,.35.34V87A.35.35,0,0,1,129.57,87.41Z"/><path class="cls-11" d="M129.68,89.64l-1,0a.35.35,0,0,1-.36-.34v-.19a.35.35,0,0,1,.32-.38l1,0a.36.36,0,0,1,.36.35v.18A.35.35,0,0,1,129.68,89.64Z"/><path class="cls-11" d="M129.79,91.76l-1,0a.35.35,0,0,1-.36-.34v-.19a.36.36,0,0,1,.33-.38l1-.05a.36.36,0,0,1,.36.35v.18A.34.34,0,0,1,129.79,91.76Z"/><path class="cls-11" d="M126.47,79.25l-1,0a.36.36,0,0,1-.36-.35v-.18a.35.35,0,0,1,.32-.38l1,0a.35.35,0,0,1,.36.34v.19A.35.35,0,0,1,126.47,79.25Z"/><path class="cls-10" d="M127.26,78.3l-1,0a.36.36,0,0,1-.36-.35v-.19a.36.36,0,0,1,.32-.38l1-.05a.36.36,0,0,1,.36.35v.19A.36.36,0,0,1,127.26,78.3Z"/><path class="cls-10" d="M129.28,81.64l-1,0a.36.36,0,0,1-.36-.35v-.19a.36.36,0,0,1,.32-.38l1,0a.35.35,0,0,1,.36.34v.19A.36.36,0,0,1,129.28,81.64Z"/><path class="cls-10" d="M131,80.29l-1,0a.36.36,0,0,1-.36-.35v-.18a.36.36,0,0,1,.32-.38l1-.05a.36.36,0,0,1,.36.35v.18A.36.36,0,0,1,131,80.29Z"/><path class="cls-10" d="M127.37,80.47l-1,0a.36.36,0,0,1-.36-.35V80a.34.34,0,0,1,.32-.37l1,0a.35.35,0,0,1,.35.34v.19A.35.35,0,0,1,127.37,80.47Z"/><path class="cls-10" d="M129.41,84.11l-1,0a.35.35,0,0,1-.36-.34v-.19a.36.36,0,0,1,.33-.38l1,0a.36.36,0,0,1,.36.35v.19A.36.36,0,0,1,129.41,84.11Z"/><path class="cls-10" d="M131.14,82.76l-1,0a.36.36,0,0,1-.36-.35v-.19a.36.36,0,0,1,.33-.38l1,0a.35.35,0,0,1,.36.34v.19A.36.36,0,0,1,131.14,82.76Z"/><path class="cls-10" d="M127.49,82.94l-1,0a.36.36,0,0,1-.36-.35v-.19a.36.36,0,0,1,.32-.38l1,0a.36.36,0,0,1,.36.35v.19A.36.36,0,0,1,127.49,82.94Z"/><path class="cls-10" d="M129.51,86.28l-1,0a.36.36,0,0,1-.36-.35v-.19a.36.36,0,0,1,.32-.38l1,0a.35.35,0,0,1,.36.34v.19A.36.36,0,0,1,129.51,86.28Z"/><path class="cls-10" d="M131.24,84.93l-1,0a.36.36,0,0,1-.36-.35v-.18a.36.36,0,0,1,.32-.38l1,0a.35.35,0,0,1,.36.35v.18A.36.36,0,0,1,131.24,84.93Z"/><path class="cls-10" d="M127.6,85.11l-1,0a.36.36,0,0,1-.36-.35v-.19a.35.35,0,0,1,.32-.38l1,0a.35.35,0,0,1,.36.34v.19A.35.35,0,0,1,127.6,85.11Z"/><path class="cls-10" d="M129.63,88.54l-1,0a.35.35,0,0,1-.36-.34v-.19a.36.36,0,0,1,.33-.38l1-.05a.36.36,0,0,1,.36.35v.18A.34.34,0,0,1,129.63,88.54Z"/><path class="cls-10" d="M131.36,87.2l-1,0a.36.36,0,0,1-.36-.35v-.19a.36.36,0,0,1,.33-.38l1,0a.36.36,0,0,1,.36.35v.19A.36.36,0,0,1,131.36,87.2Z"/><path class="cls-10" d="M127.71,87.38l-1,0a.35.35,0,0,1-.36-.34v-.19a.36.36,0,0,1,.32-.38l1-.05a.36.36,0,0,1,.36.35V87A.36.36,0,0,1,127.71,87.38Z"/><path class="cls-10" d="M129.73,90.72l-1,0a.36.36,0,0,1-.36-.35v-.19a.36.36,0,0,1,.33-.38l1,0a.36.36,0,0,1,.36.35v.19A.36.36,0,0,1,129.73,90.72Z"/><path class="cls-10" d="M129.84,92.78l-1,0a.36.36,0,0,1-.36-.35v-.19a.36.36,0,0,1,.33-.38l1,0a.36.36,0,0,1,.36.35v.19A.35.35,0,0,1,129.84,92.78Z"/><path class="cls-10" d="M131.46,89.37l-1,0a.36.36,0,0,1-.36-.35v-.18a.35.35,0,0,1,.32-.38l1-.05a.35.35,0,0,1,.36.34V89A.36.36,0,0,1,131.46,89.37Z"/><path class="cls-10" d="M127.82,89.55l-1,0a.36.36,0,0,1-.36-.35v-.19a.35.35,0,0,1,.32-.38l1-.05a.36.36,0,0,1,.36.35v.19A.36.36,0,0,1,127.82,89.55Z"/><path class="cls-12" d="M122.39,74.72c3.82,9,7.85,10.75,7,18.58C126.41,94,118.75,88.63,122.39,74.72Z"/><path class="cls-12" d="M123.69,144.39c-1.1-12.7.83-21.34,2.54-29,1.55-6.94,3-13.5,2.07-22.12l1.11-.12c1,8.8-.52,15.45-2.09,22.48-1.77,7.91-3.6,16.1-2.52,28.62Z"/><path class="cls-8" d="M129.25,104.41c2.4,7,13.15-6.34,13.15-6.34S126.86,97.4,129.25,104.41Z"/><path class="cls-8" d="M119.26,127.68c.89-12.14-24,1.29-24,1.29S121.74,140,119.26,127.68Z"/><path class="cls-12" d="M123.14,144.47c-1.44-12.33-4.36-18.16-6.93-23.31-.65-1.29-1.25-2.5-1.83-3.79l2-.89c.56,1.24,1.16,2.43,1.79,3.7,2.65,5.31,5.66,11.33,7.15,24Z"/><path class="cls-8" d="M116.59,87.14c-1.53,15.1-6.72,19.51-1.92,30.8C119.49,117.6,128.41,106.17,116.59,87.14Z"/><ellipse class="cls-9" cx="105.64" cy="90.77" rx="8.36" ry="28.89" transform="translate(-25.1 42.75) rotate(-20.5)"/><path class="cls-10" d="M96,71.59l-1.91.7a.72.72,0,0,1-.92-.46L93,71.48a.74.74,0,0,1,.4-1l1.92-.7a.73.73,0,0,1,.91.46l.14.36A.72.72,0,0,1,96,71.59Z"/><path class="cls-10" d="M100.11,73l-1.92.7a.74.74,0,0,1-.92-.46l-.13-.36a.71.71,0,0,1,.4-.94l1.91-.7a.73.73,0,0,1,.92.46l.13.36A.72.72,0,0,1,100.11,73Z"/><path class="cls-10" d="M101.67,77.21l-1.92.71a.73.73,0,0,1-.91-.46l-.14-.36a.72.72,0,0,1,.4-.94l1.91-.7a.72.72,0,0,1,.92.45l.14.36A.72.72,0,0,1,101.67,77.21Z"/><path class="cls-10" d="M98.48,68.67l-1.91.7a.72.72,0,0,1-.92-.46l-.14-.36a.73.73,0,0,1,.4-.94l1.91-.7a.73.73,0,0,1,.92.46l.14.36A.72.72,0,0,1,98.48,68.67Z"/><path class="cls-10" d="M102.21,69.68l-1.91.7a.72.72,0,0,1-.92-.46l-.14-.36a.73.73,0,0,1,.4-.94l1.92-.7a.74.74,0,0,1,.92.46l.13.36A.72.72,0,0,1,102.21,69.68Z"/><path class="cls-10" d="M104.22,73.52l-1.92.71a.74.74,0,0,1-.92-.46l-.13-.36a.71.71,0,0,1,.4-.94l1.91-.71a.74.74,0,0,1,.92.46l.13.36A.71.71,0,0,1,104.22,73.52Z"/><path class="cls-10" d="M97.2,76.09l-1.92.7a.71.71,0,0,1-.91-.45L94.23,76a.73.73,0,0,1,.4-1l1.91-.7a.74.74,0,0,1,.92.46l.14.36A.72.72,0,0,1,97.2,76.09Z"/><path class="cls-10" d="M103.23,81.4l-1.91.7a.72.72,0,0,1-.92-.46l-.14-.36a.73.73,0,0,1,.4-.94l1.92-.7a.72.72,0,0,1,.91.46l.14.36A.72.72,0,0,1,103.23,81.4Z"/><path class="cls-10" d="M105.78,77.71l-1.92.7A.72.72,0,0,1,103,78l-.14-.36a.72.72,0,0,1,.4-.94l1.91-.7a.73.73,0,0,1,.92.46l.14.36A.72.72,0,0,1,105.78,77.71Z"/><path class="cls-10" d="M98.76,80.28l-1.91.7a.73.73,0,0,1-.92-.46l-.14-.36a.72.72,0,0,1,.4-.94l1.92-.7A.72.72,0,0,1,99,79l.14.36A.72.72,0,0,1,98.76,80.28Z"/><path class="cls-10" d="M105,86l-1.92.71a.74.74,0,0,1-.92-.46l-.13-.36a.71.71,0,0,1,.39-.94l1.92-.7a.73.73,0,0,1,.92.45l.13.36A.71.71,0,0,1,105,86Z"/><path class="cls-10" d="M107.51,82.35l-1.91.71a.74.74,0,0,1-.92-.46l-.13-.36a.71.71,0,0,1,.39-.94l1.92-.71a.74.74,0,0,1,.92.46l.13.36A.72.72,0,0,1,107.51,82.35Z"/><path class="cls-10" d="M100.5,84.92l-1.92.7a.73.73,0,0,1-.92-.46l-.13-.36a.72.72,0,0,1,.39-.94l1.92-.7a.74.74,0,0,1,.92.46l.13.36A.71.71,0,0,1,100.5,84.92Z"/><path class="cls-10" d="M106.72,90.75l-1.91.7a.72.72,0,0,1-.92-.46l-.14-.36a.73.73,0,0,1,.4-.94l1.92-.7a.74.74,0,0,1,.92.46l.13.36A.72.72,0,0,1,106.72,90.75Z"/><path class="cls-10" d="M109.27,87.06l-1.92.7a.72.72,0,0,1-.91-.46l-.14-.36a.73.73,0,0,1,.4-.94l1.91-.7a.73.73,0,0,1,.92.46l.14.36A.72.72,0,0,1,109.27,87.06Z"/><path class="cls-11" d="M110.31,84.09l-1.91.7a.73.73,0,0,1-.92-.46l-.14-.36a.72.72,0,0,1,.4-.94l1.92-.7a.74.74,0,0,1,.92.46l.13.36A.72.72,0,0,1,110.31,84.09Z"/><path class="cls-11" d="M108.58,79.44l-1.92.71a.73.73,0,0,1-.91-.46l-.14-.36a.72.72,0,0,1,.4-.94l1.91-.71a.74.74,0,0,1,.92.46l.14.36A.72.72,0,0,1,108.58,79.44Z"/><path class="cls-11" d="M106.11,75.21l-1.91.7a.73.73,0,0,1-.92-.46l-.14-.36a.72.72,0,0,1,.4-.94l1.92-.7a.71.71,0,0,1,.91.46l.14.36A.72.72,0,0,1,106.11,75.21Z"/><path class="cls-11" d="M100.89,75.12l-1.92.7a.74.74,0,0,1-.92-.46L97.92,75a.71.71,0,0,1,.4-.94l1.91-.7a.73.73,0,0,1,.92.46l.13.36A.71.71,0,0,1,100.89,75.12Z"/><path class="cls-11" d="M103.6,71.43l-1.92.7a.73.73,0,0,1-.92-.46l-.13-.36a.72.72,0,0,1,.39-.94l1.92-.7a.74.74,0,0,1,.92.46l.13.36A.71.71,0,0,1,103.6,71.43Z"/><path class="cls-11" d="M96.44,74.05l-1.92.7a.73.73,0,0,1-.92-.46l-.13-.36a.71.71,0,0,1,.4-.94l1.91-.7a.74.74,0,0,1,.92.46l.13.36A.71.71,0,0,1,96.44,74.05Z"/><path class="cls-11" d="M99.35,71l-1.92.7a.74.74,0,0,1-.92-.46l-.13-.36a.71.71,0,0,1,.39-.94l1.92-.7a.74.74,0,0,1,.92.46l.13.36A.72.72,0,0,1,99.35,71Z"/><path class="cls-11" d="M97.53,66.54l-1.92.7a.74.74,0,0,1-.92-.46l-.13-.36a.71.71,0,0,1,.39-.94l1.92-.7a.74.74,0,0,1,.92.46l.13.36A.72.72,0,0,1,97.53,66.54Z"/><path class="cls-11" d="M97.31,78.43l-1.91.7a.73.73,0,0,1-.92-.46l-.14-.36a.72.72,0,0,1,.4-.94l1.91-.7a.73.73,0,0,1,.92.46l.14.36A.73.73,0,0,1,97.31,78.43Z"/><path class="cls-11" d="M102.43,79.26l-1.91.7a.74.74,0,0,1-.92-.46l-.14-.36a.72.72,0,0,1,.4-.94l1.92-.7a.71.71,0,0,1,.91.46l.14.36A.72.72,0,0,1,102.43,79.26Z"/><path class="cls-11" d="M98.53,83.12l-1.92.71a.74.74,0,0,1-.92-.46L95.56,83a.71.71,0,0,1,.39-.94l1.92-.71a.74.74,0,0,1,.92.46l.13.36A.71.71,0,0,1,98.53,83.12Z"/><path class="cls-11" d="M104.16,83.89l-1.91.7a.73.73,0,0,1-.92-.46l-.14-.36a.72.72,0,0,1,.4-.94l1.91-.7a.73.73,0,0,1,.92.46l.14.36A.73.73,0,0,1,104.16,83.89Z"/><path class="cls-11" d="M99.79,87.94l-1.92.7a.73.73,0,0,1-.92-.46l-.13-.36a.72.72,0,0,1,.39-.94l1.92-.7a.74.74,0,0,1,.92.46l.13.36A.71.71,0,0,1,99.79,87.94Z"/><path class="cls-11" d="M105.82,88.32,103.9,89a.74.74,0,0,1-.92-.46l-.13-.36a.71.71,0,0,1,.39-.94l1.92-.7a.73.73,0,0,1,.92.45l.13.36A.71.71,0,0,1,105.82,88.32Z"/><path class="cls-11" d="M112,88.46l-1.92.71a.74.74,0,0,1-.92-.46l-.13-.36a.71.71,0,0,1,.39-.94l1.92-.7a.73.73,0,0,1,.92.45l.13.36A.71.71,0,0,1,112,88.46Z"/><path class="cls-11" d="M113.37,93.08l-1.91.7a.74.74,0,0,1-.92-.46L110.4,93a.72.72,0,0,1,.4-.94l1.92-.7a.73.73,0,0,1,.92.46l.13.36A.72.72,0,0,1,113.37,93.08Z"/><path class="cls-11" d="M114.51,97.72l-1.91.7a.74.74,0,0,1-.92-.46l-.13-.36a.71.71,0,0,1,.39-.94l1.92-.7a.73.73,0,0,1,.92.46l.13.36A.72.72,0,0,1,114.51,97.72Z"/><path class="cls-11" d="M115.58,102.09l-1.92.7a.74.74,0,0,1-.92-.46l-.13-.36A.71.71,0,0,1,113,101l1.92-.7a.73.73,0,0,1,.92.46l.13.36A.72.72,0,0,1,115.58,102.09Z"/><path class="cls-11" d="M116.89,106.63l-1.91.7a.73.73,0,0,1-.92-.46l-.14-.36a.73.73,0,0,1,.4-.94l1.92-.7a.72.72,0,0,1,.91.46l.14.36A.72.72,0,0,1,116.89,106.63Z"/><path class="cls-11" d="M117.82,111.18l-1.62.59a.62.62,0,0,1-.78-.39l-.11-.3a.61.61,0,0,1,.34-.8l1.61-.59a.62.62,0,0,1,.78.39l.11.3A.6.6,0,0,1,117.82,111.18Z"/><path class="cls-11" d="M111.52,113.48l-1.61.59a.61.61,0,0,1-.78-.38l-.11-.31a.59.59,0,0,1,.33-.79L111,112a.63.63,0,0,1,.78.39l.11.31A.61.61,0,0,1,111.52,113.48Z"/><path class="cls-11" d="M109.25,109.43l-1.92.7a.74.74,0,0,1-.92-.46l-.13-.36a.71.71,0,0,1,.39-.94l1.92-.7a.74.74,0,0,1,.92.46l.13.36A.72.72,0,0,1,109.25,109.43Z"/><path class="cls-11" d="M106.92,105.6l-1.92.7a.73.73,0,0,1-.92-.46l-.13-.36a.72.72,0,0,1,.39-.94l1.92-.7a.74.74,0,0,1,.92.46l.13.36A.71.71,0,0,1,106.92,105.6Z"/><path class="cls-11" d="M104.77,101.28l-1.92.71a.74.74,0,0,1-.92-.46l-.13-.36a.71.71,0,0,1,.39-.94l1.92-.71a.74.74,0,0,1,.92.46l.13.36A.71.71,0,0,1,104.77,101.28Z"/><path class="cls-11" d="M102.76,97l-1.92.7a.73.73,0,0,1-.92-.46l-.13-.36a.71.71,0,0,1,.4-.94l1.91-.7a.73.73,0,0,1,.92.46l.13.36A.71.71,0,0,1,102.76,97Z"/><path class="cls-11" d="M107.55,93l-1.92.7a.74.74,0,0,1-.92-.46l-.13-.36a.71.71,0,0,1,.39-.94l1.92-.7a.74.74,0,0,1,.92.46l.13.36A.71.71,0,0,1,107.55,93Z"/><path class="cls-11" d="M109.15,97.27l-1.91.7a.74.74,0,0,1-.92-.46l-.13-.36a.71.71,0,0,1,.39-.94l1.92-.7a.73.73,0,0,1,.92.45l.13.36A.73.73,0,0,1,109.15,97.27Z"/><path class="cls-11" d="M110.85,101.81l-1.91.71a.74.74,0,0,1-.92-.46l-.14-.36a.72.72,0,0,1,.4-.94l1.92-.7a.71.71,0,0,1,.91.45l.14.36A.72.72,0,0,1,110.85,101.81Z"/><path class="cls-11" d="M112.44,106.06l-1.92.7a.73.73,0,0,1-.92-.46l-.13-.36a.72.72,0,0,1,.4-.94l1.91-.7a.73.73,0,0,1,.92.46l.13.36A.71.71,0,0,1,112.44,106.06Z"/><path class="cls-11" d="M114,110.36l-1.91.71a.74.74,0,0,1-.92-.46l-.13-.36a.71.71,0,0,1,.39-.94l1.92-.71a.74.74,0,0,1,.92.46l.13.36A.72.72,0,0,1,114,110.36Z"/><path class="cls-11" d="M115.57,114.45l-1.92.7a.74.74,0,0,1-.92-.46l-.13-.36a.72.72,0,0,1,.4-.94l1.91-.7a.73.73,0,0,1,.92.46l.14.36A.72.72,0,0,1,115.57,114.45Z"/><path class="cls-11" d="M101.29,92l-1.91.7a.73.73,0,0,1-.92-.46l-.13-.36a.72.72,0,0,1,.39-.94l1.92-.7a.74.74,0,0,1,.92.46l.13.36A.72.72,0,0,1,101.29,92Z"/><path class="cls-10" d="M102.25,89.63l-1.91.7a.73.73,0,0,1-.92-.46l-.14-.36a.73.73,0,0,1,.4-.94l1.92-.7a.72.72,0,0,1,.91.46l.14.36A.72.72,0,0,1,102.25,89.63Z"/><path class="cls-10" d="M108.29,94.94l-1.92.7a.74.74,0,0,1-.92-.46l-.13-.36a.71.71,0,0,1,.39-.94l1.92-.7a.74.74,0,0,1,.92.46l.13.36A.72.72,0,0,1,108.29,94.94Z"/><path class="cls-10" d="M110.83,91.25l-1.91.7a.73.73,0,0,1-.92-.46l-.14-.36a.72.72,0,0,1,.4-.94l1.92-.7a.73.73,0,0,1,.92.46l.13.36A.72.72,0,0,1,110.83,91.25Z"/><path class="cls-10" d="M103.82,93.82l-1.92.7a.74.74,0,0,1-.92-.46l-.13-.36a.71.71,0,0,1,.39-.94l1.92-.7a.73.73,0,0,1,.92.46l.13.36A.72.72,0,0,1,103.82,93.82Z"/><path class="cls-10" d="M110.06,99.69l-1.92.7a.71.71,0,0,1-.91-.46l-.14-.36a.72.72,0,0,1,.4-.94l1.91-.7a.74.74,0,0,1,.92.46l.14.36A.72.72,0,0,1,110.06,99.69Z"/><path class="cls-10" d="M112.61,96l-1.92.7a.73.73,0,0,1-.92-.46l-.13-.36a.71.71,0,0,1,.4-.94l1.91-.7a.73.73,0,0,1,.92.46l.13.36A.71.71,0,0,1,112.61,96Z"/><path class="cls-10" d="M105.59,98.57l-1.92.7a.72.72,0,0,1-.91-.46l-.14-.36a.72.72,0,0,1,.4-.94l1.91-.7a.73.73,0,0,1,.92.46l.14.36A.72.72,0,0,1,105.59,98.57Z"/><path class="cls-10" d="M111.62,103.88l-1.91.7a.73.73,0,0,1-.92-.46l-.14-.36a.72.72,0,0,1,.4-.94l1.92-.7a.72.72,0,0,1,.91.46l.14.36A.72.72,0,0,1,111.62,103.88Z"/><path class="cls-10" d="M114.17,100.19l-1.92.7a.72.72,0,0,1-.91-.46l-.14-.36a.72.72,0,0,1,.4-.94l1.91-.7a.73.73,0,0,1,.92.46l.14.36A.73.73,0,0,1,114.17,100.19Z"/><path class="cls-10" d="M107.15,102.76l-1.91.7a.74.74,0,0,1-.92-.46l-.14-.36a.72.72,0,0,1,.4-.94l1.92-.7a.71.71,0,0,1,.91.46l.14.36A.72.72,0,0,1,107.15,102.76Z"/><path class="cls-10" d="M113.25,108.24l-1.91.71a.74.74,0,0,1-.92-.46l-.14-.36a.72.72,0,0,1,.4-.94l1.92-.7a.71.71,0,0,1,.91.45l.14.36A.72.72,0,0,1,113.25,108.24Z"/><path class="cls-10" d="M115.8,104.55l-1.92.71a.73.73,0,0,1-.91-.46l-.14-.36a.72.72,0,0,1,.4-.94l1.91-.71a.74.74,0,0,1,.92.46l.14.36A.72.72,0,0,1,115.8,104.55Z"/><path class="cls-10" d="M108.78,107.12l-1.91.7a.72.72,0,0,1-.92-.46l-.14-.36a.73.73,0,0,1,.4-.94l1.92-.7a.73.73,0,0,1,.91.46l.14.36A.72.72,0,0,1,108.78,107.12Z"/><path class="cls-10" d="M114.82,112.43l-1.92.7a.73.73,0,0,1-.92-.46l-.13-.36a.72.72,0,0,1,.39-.94l1.92-.7a.74.74,0,0,1,.92.46l.13.36A.71.71,0,0,1,114.82,112.43Z"/><path class="cls-10" d="M116.3,116.4l-1.92.7a.73.73,0,0,1-.92-.46l-.13-.36a.71.71,0,0,1,.4-.94l1.91-.7a.74.74,0,0,1,.92.46l.13.36A.71.71,0,0,1,116.3,116.4Z"/><path class="cls-10" d="M117.36,108.74l-1.91.7a.73.73,0,0,1-.92-.46l-.14-.36a.73.73,0,0,1,.4-.94l1.92-.7a.72.72,0,0,1,.91.46l.14.36A.72.72,0,0,1,117.36,108.74Z"/><path class="cls-10" d="M110.34,111.31l-1.91.7a.73.73,0,0,1-.92-.46l-.13-.36a.71.71,0,0,1,.39-.94l1.92-.7a.74.74,0,0,1,.92.46l.13.36A.71.71,0,0,1,110.34,111.31Z"/><path class="cls-12" d="M90.53,85.76c13.08,15.29,22,16.25,25.36,32.07C110.39,121,92.05,115.21,90.53,85.76Z"/><path class="cls-8" d="M123.88,137.8c7.11,12.46,22.64-16.74,22.64-16.74S116.77,125.35,123.88,137.8Z"/><path class="cls-12" d="M123.13,144.38c-.16-5.21,3.47-8.63,7.66-12.59,4-3.81,8.6-8.12,11.15-15.13l2.09.75c-2.72,7.5-7.7,12.2-11.7,16s-7.1,6.7-7,10.92Z"/><path class="cls-8" d="M158.14,98.62c-8.47,9.12-14,9.47-16.5,19.17C145,119.91,156.43,116.77,158.14,98.62Z"/><ellipse class="cls-9" cx="149.2" cy="95.68" rx="23.57" ry="6.83" transform="matrix(0.29, -0.96, 0.96, 0.29, 14.48, 210.85)"/><path class="cls-10" d="M152.37,78.46l-1.6-.47a.58.58,0,0,1-.37-.74l.09-.3a.6.6,0,0,1,.73-.43l1.59.48a.59.59,0,0,1,.38.74l-.09.3A.6.6,0,0,1,152.37,78.46Z"/><path class="cls-10" d="M154.37,81.41l-1.6-.47a.59.59,0,0,1-.37-.75l.09-.3a.59.59,0,0,1,.72-.42l1.6.47a.59.59,0,0,1,.37.75l-.09.3A.59.59,0,0,1,154.37,81.41Z"/><path class="cls-10" d="M153.31,84.9l-1.59-.47a.59.59,0,0,1-.38-.75l.09-.3a.6.6,0,0,1,.73-.42l1.6.47a.59.59,0,0,1,.37.75l-.09.3A.6.6,0,0,1,153.31,84.9Z"/><path class="cls-10" d="M155.46,77.78l-1.6-.47a.59.59,0,0,1-.37-.75l.09-.3a.6.6,0,0,1,.73-.42l1.59.47a.59.59,0,0,1,.38.75l-.09.3A.6.6,0,0,1,155.46,77.78Z"/><path class="cls-10" d="M157.4,80.25l-1.6-.47a.59.59,0,0,1-.37-.75l.09-.3a.59.59,0,0,1,.72-.42l1.6.47a.59.59,0,0,1,.37.75l-.09.3A.59.59,0,0,1,157.4,80.25Z"/><path class="cls-10" d="M156.8,83.73l-1.59-.47a.6.6,0,0,1-.38-.75l.09-.3a.6.6,0,0,1,.73-.42l1.6.47a.6.6,0,0,1,.37.75l-.09.3A.6.6,0,0,1,156.8,83.73Z"/><path class="cls-10" d="M151,82l-1.6-.47a.59.59,0,0,1-.37-.75l.09-.3a.6.6,0,0,1,.73-.42l1.59.47a.6.6,0,0,1,.38.75l-.09.3A.6.6,0,0,1,151,82Z"/><path class="cls-10" d="M152.26,88.39l-1.6-.47a.6.6,0,0,1-.37-.75l.09-.3a.6.6,0,0,1,.73-.42l1.59.48a.58.58,0,0,1,.38.74L153,88A.6.6,0,0,1,152.26,88.39Z"/><path class="cls-10" d="M155.75,87.22l-1.6-.47a.59.59,0,0,1-.37-.75l.09-.3a.6.6,0,0,1,.73-.42l1.59.47a.6.6,0,0,1,.38.75l-.09.3A.6.6,0,0,1,155.75,87.22Z"/><path class="cls-10" d="M149.9,85.49,148.3,85a.59.59,0,0,1-.37-.75L148,84a.59.59,0,0,1,.72-.42l1.6.47a.59.59,0,0,1,.37.75l-.09.3A.59.59,0,0,1,149.9,85.49Z"/><path class="cls-10" d="M151.09,92.26l-1.59-.47a.57.57,0,0,1-.37-.74l.09-.3a.58.58,0,0,1,.72-.42l1.6.47a.58.58,0,0,1,.37.74l-.09.3A.59.59,0,0,1,151.09,92.26Z"/><path class="cls-10" d="M154.58,91.09,153,90.62a.59.59,0,0,1-.38-.75l.09-.3a.6.6,0,0,1,.73-.42l1.6.47a.59.59,0,0,1,.37.75l-.09.3A.6.6,0,0,1,154.58,91.09Z"/><path class="cls-10" d="M148.73,89.36l-1.6-.47a.6.6,0,0,1-.37-.75l.09-.3a.6.6,0,0,1,.73-.42l1.59.48a.58.58,0,0,1,.38.74l-.09.3A.6.6,0,0,1,148.73,89.36Z"/><path class="cls-10" d="M149.91,96.19l-1.6-.47a.6.6,0,0,1-.37-.75l.09-.3a.6.6,0,0,1,.73-.42l1.59.47a.6.6,0,0,1,.38.75l-.09.3A.6.6,0,0,1,149.91,96.19Z"/><path class="cls-10" d="M153.4,95l-1.6-.48a.58.58,0,0,1-.37-.74l.09-.3a.6.6,0,0,1,.73-.42l1.59.47a.59.59,0,0,1,.38.74l-.09.3A.6.6,0,0,1,153.4,95Z"/><path class="cls-11" d="M155.55,93.58,154,93.11a.59.59,0,0,1-.38-.75l.09-.3a.6.6,0,0,1,.73-.42l1.6.48a.59.59,0,0,1,.37.74l-.09.3A.6.6,0,0,1,155.55,93.58Z"/><path class="cls-11" d="M156.72,89.71l-1.6-.47a.59.59,0,0,1-.37-.75l.09-.3a.6.6,0,0,1,.73-.42l1.59.47a.58.58,0,0,1,.37.75l-.09.3A.59.59,0,0,1,156.72,89.71Z"/><path class="cls-11" d="M157.21,85.75l-1.6-.48a.58.58,0,0,1-.37-.74l.09-.3a.59.59,0,0,1,.72-.42l1.6.47A.59.59,0,0,1,158,85l-.09.3A.59.59,0,0,1,157.21,85.75Z"/><path class="cls-11" d="M153.84,83.15l-1.6-.47a.58.58,0,0,1-.37-.74l.09-.3a.59.59,0,0,1,.73-.42l1.59.47a.59.59,0,0,1,.38.74l-.1.3A.58.58,0,0,1,153.84,83.15Z"/><path class="cls-11" d="M157.43,82.06l-1.6-.47a.6.6,0,0,1-.37-.75l.09-.3a.6.6,0,0,1,.73-.42l1.59.48a.58.58,0,0,1,.38.74l-.09.3A.6.6,0,0,1,157.43,82.06Z"/><path class="cls-11" d="M151.46,80.3l-1.59-.47a.6.6,0,0,1-.38-.75l.1-.3a.59.59,0,0,1,.72-.42l1.6.47a.59.59,0,0,1,.37.75l-.09.3A.6.6,0,0,1,151.46,80.3Z"/><path class="cls-11" d="M154.88,79.71l-1.6-.47a.59.59,0,0,1-.37-.75l.09-.3a.59.59,0,0,1,.72-.42l1.6.47a.59.59,0,0,1,.37.75l-.09.3A.59.59,0,0,1,154.88,79.71Z"/><path class="cls-11" d="M155.89,75.92l-1.59-.47a.59.59,0,0,1-.38-.74l.09-.31a.6.6,0,0,1,.73-.42l1.6.48a.58.58,0,0,1,.37.74l-.09.3A.6.6,0,0,1,155.89,75.92Z"/><path class="cls-11" d="M149.87,83.58l-1.6-.47a.59.59,0,0,1-.37-.75l.09-.3a.59.59,0,0,1,.72-.42l1.6.47a.59.59,0,0,1,.37.75l-.09.3A.59.59,0,0,1,149.87,83.58Z"/><path class="cls-11" d="M152.8,86.6l-1.6-.47a.58.58,0,0,1-.37-.74l.09-.3a.6.6,0,0,1,.73-.43l1.59.48a.59.59,0,0,1,.38.74l-.1.3A.59.59,0,0,1,152.8,86.6Z"/><path class="cls-11" d="M148.34,87.23l-1.6-.47a.59.59,0,0,1-.37-.75l.09-.3a.59.59,0,0,1,.72-.42l1.6.48a.58.58,0,0,1,.37.74l-.09.3A.59.59,0,0,1,148.34,87.23Z"/><path class="cls-11" d="M151.64,90.47,150,90a.58.58,0,0,1-.37-.74l.09-.3a.59.59,0,0,1,.72-.42l1.6.47a.59.59,0,0,1,.37.75l-.09.3A.59.59,0,0,1,151.64,90.47Z"/><path class="cls-11" d="M146.78,91l-1.6-.47a.59.59,0,0,1-.37-.75l.09-.3a.59.59,0,0,1,.72-.42l1.6.47a.59.59,0,0,1,.37.75l-.09.3A.59.59,0,0,1,146.78,91Z"/><path class="cls-11" d="M150.52,94.17l-1.6-.48a.58.58,0,0,1-.37-.74l.09-.3a.6.6,0,0,1,.73-.42l1.59.47a.59.59,0,0,1,.38.74l-.09.3A.61.61,0,0,1,150.52,94.17Z"/><path class="cls-11" d="M154.45,97.23l-1.59-.47a.59.59,0,0,1-.38-.75l.09-.3a.6.6,0,0,1,.73-.42l1.6.47a.6.6,0,0,1,.37.75l-.09.3A.6.6,0,0,1,154.45,97.23Z"/><path class="cls-11" d="M153.1,100.93l-1.6-.47a.58.58,0,0,1-.37-.74l.09-.3A.6.6,0,0,1,152,99l1.59.48a.59.59,0,0,1,.38.74l-.09.3A.6.6,0,0,1,153.1,100.93Z"/><path class="cls-11" d="M151.55,104.52,150,104a.58.58,0,0,1-.37-.74l.09-.3a.59.59,0,0,1,.72-.42l1.6.47a.58.58,0,0,1,.37.74l-.09.3A.6.6,0,0,1,151.55,104.52Z"/><path class="cls-11" d="M150.08,107.88l-1.6-.47a.59.59,0,0,1-.37-.75l.09-.3a.59.59,0,0,1,.72-.42l1.6.48a.58.58,0,0,1,.37.74l-.09.3A.59.59,0,0,1,150.08,107.88Z"/><path class="cls-11" d="M148.69,111.49l-1.6-.47a.59.59,0,0,1-.37-.75l.09-.3a.59.59,0,0,1,.72-.42l1.6.47a.59.59,0,0,1,.37.75l-.09.3A.59.59,0,0,1,148.69,111.49Z"/><path class="cls-11" d="M147,114.9l-1.35-.39a.5.5,0,0,1-.31-.63l.08-.26a.49.49,0,0,1,.61-.35l1.35.39a.5.5,0,0,1,.31.63l-.07.26A.51.51,0,0,1,147,114.9Z"/><path class="cls-11" d="M141.8,113.35l-1.35-.4a.49.49,0,0,1-.32-.63l.08-.25a.51.51,0,0,1,.61-.36l1.35.4a.49.49,0,0,1,.31.63l-.07.26A.5.5,0,0,1,141.8,113.35Z"/><path class="cls-11" d="M142.32,109.6l-1.6-.47a.58.58,0,0,1-.37-.74l.09-.3a.59.59,0,0,1,.72-.43l1.6.48a.58.58,0,0,1,.37.74l-.09.3A.59.59,0,0,1,142.32,109.6Z"/><path class="cls-11" d="M142.69,106l-1.6-.47a.58.58,0,0,1-.37-.74l.09-.3a.6.6,0,0,1,.72-.43l1.6.48a.58.58,0,0,1,.37.74l-.09.3A.59.59,0,0,1,142.69,106Z"/><path class="cls-11" d="M143.42,102.11l-1.6-.47a.59.59,0,0,1-.37-.74l.09-.3a.6.6,0,0,1,.73-.43l1.59.48a.59.59,0,0,1,.38.74l-.09.3A.6.6,0,0,1,143.42,102.11Z"/><path class="cls-11" d="M144.25,98.32l-1.6-.47a.59.59,0,0,1-.37-.75l.09-.3a.6.6,0,0,1,.73-.42l1.59.47a.58.58,0,0,1,.37.75l-.09.3A.59.59,0,0,1,144.25,98.32Z"/><path class="cls-11" d="M149.36,98l-1.6-.47a.59.59,0,0,1-.37-.75l.09-.3a.59.59,0,0,1,.72-.42l1.6.47a.59.59,0,0,1,.37.75l-.09.3A.59.59,0,0,1,149.36,98Z"/><path class="cls-11" d="M148.27,101.62l-1.59-.47a.58.58,0,0,1-.37-.75l.09-.3a.59.59,0,0,1,.72-.42l1.6.47a.59.59,0,0,1,.37.75l-.09.3A.6.6,0,0,1,148.27,101.62Z"/><path class="cls-11" d="M147.13,105.41l-1.6-.47a.58.58,0,0,1-.37-.74l.09-.3a.6.6,0,0,1,.73-.43l1.59.48a.59.59,0,0,1,.38.74l-.09.3A.6.6,0,0,1,147.13,105.41Z"/><path class="cls-11" d="M146.06,109l-1.59-.47a.59.59,0,0,1-.38-.74l.09-.3a.6.6,0,0,1,.73-.42l1.6.47a.58.58,0,0,1,.37.74l-.09.3A.59.59,0,0,1,146.06,109Z"/><path class="cls-11" d="M145,112.54l-1.59-.47a.59.59,0,0,1-.38-.75l.09-.3a.6.6,0,0,1,.73-.42l1.6.47a.6.6,0,0,1,.37.75l-.09.3A.6.6,0,0,1,145,112.54Z"/><path class="cls-11" d="M144,116l-1.6-.47a.59.59,0,0,1-.37-.75l.09-.3a.59.59,0,0,1,.72-.42l1.6.47a.59.59,0,0,1,.37.75l-.09.3A.59.59,0,0,1,144,116Z"/><path class="cls-11" d="M145.76,94.36l-1.6-.48a.58.58,0,0,1-.37-.74l.09-.3a.6.6,0,0,1,.73-.42l1.59.47a.57.57,0,0,1,.37.74l-.09.3A.59.59,0,0,1,145.76,94.36Z"/><path class="cls-10" d="M147.55,93.29l-1.6-.48a.58.58,0,0,1-.37-.74l.09-.3a.59.59,0,0,1,.72-.42l1.6.47a.59.59,0,0,1,.37.75l-.09.3A.59.59,0,0,1,147.55,93.29Z"/><path class="cls-10" d="M148.86,99.68l-1.6-.47a.59.59,0,0,1-.37-.75l.09-.3a.59.59,0,0,1,.72-.42l1.6.47a.59.59,0,0,1,.37.75l-.09.3A.59.59,0,0,1,148.86,99.68Z"/><path class="cls-10" d="M152.35,98.51l-1.6-.48a.58.58,0,0,1-.37-.74l.09-.3a.59.59,0,0,1,.72-.42l1.6.47a.59.59,0,0,1,.37.75l-.09.3A.59.59,0,0,1,152.35,98.51Z"/><path class="cls-10" d="M146.5,96.78l-1.6-.47a.59.59,0,0,1-.37-.75l.09-.3a.59.59,0,0,1,.72-.42l1.6.47a.59.59,0,0,1,.37.75l-.09.3A.59.59,0,0,1,146.5,96.78Z"/><path class="cls-10" d="M147.67,103.64l-1.6-.47a.57.57,0,0,1-.37-.74l.09-.3a.59.59,0,0,1,.72-.43l1.6.48a.58.58,0,0,1,.37.74l-.09.3A.59.59,0,0,1,147.67,103.64Z"/><path class="cls-10" d="M151.15,102.47l-1.59-.47a.59.59,0,0,1-.38-.75l.1-.3a.59.59,0,0,1,.72-.42l1.6.47a.59.59,0,0,1,.37.75l-.09.3A.6.6,0,0,1,151.15,102.47Z"/><path class="cls-10" d="M145.3,100.74l-1.59-.47a.59.59,0,0,1-.38-.75l.09-.3a.6.6,0,0,1,.73-.42l1.59.47a.6.6,0,0,1,.38.75l-.09.3A.6.6,0,0,1,145.3,100.74Z"/><path class="cls-10" d="M146.61,107.13l-1.59-.47a.59.59,0,0,1-.38-.74l.09-.3a.61.61,0,0,1,.73-.43l1.6.48a.59.59,0,0,1,.37.74l-.09.3A.6.6,0,0,1,146.61,107.13Z"/><path class="cls-10" d="M150.1,106l-1.6-.47a.6.6,0,0,1-.37-.75l.09-.3A.6.6,0,0,1,149,104l1.59.47a.6.6,0,0,1,.38.75l-.09.3A.6.6,0,0,1,150.1,106Z"/><path class="cls-10" d="M144.25,104.23l-1.6-.47a.59.59,0,0,1-.37-.75l.09-.3a.6.6,0,0,1,.73-.42l1.59.47a.6.6,0,0,1,.38.75l-.1.3A.59.59,0,0,1,144.25,104.23Z"/><path class="cls-10" d="M145.52,110.77l-1.6-.47a.58.58,0,0,1-.37-.74l.09-.3a.58.58,0,0,1,.72-.42l1.6.47a.58.58,0,0,1,.37.74l-.09.3A.59.59,0,0,1,145.52,110.77Z"/><path class="cls-10" d="M149,109.6l-1.59-.47a.58.58,0,0,1-.37-.75l.09-.3a.59.59,0,0,1,.72-.42l1.6.48a.58.58,0,0,1,.37.74l-.09.3A.6.6,0,0,1,149,109.6Z"/><path class="cls-10" d="M143.15,107.87l-1.59-.47a.59.59,0,0,1-.38-.75l.09-.3a.6.6,0,0,1,.73-.42l1.6.48a.59.59,0,0,1,.37.74l-.09.3A.6.6,0,0,1,143.15,107.87Z"/><path class="cls-10" d="M144.46,114.27l-1.59-.48a.59.59,0,0,1-.38-.74l.09-.3a.6.6,0,0,1,.73-.42l1.6.47a.58.58,0,0,1,.37.74l-.09.3A.61.61,0,0,1,144.46,114.27Z"/><path class="cls-10" d="M143.47,117.58l-1.6-.48a.58.58,0,0,1-.37-.74l.09-.3a.59.59,0,0,1,.72-.42l1.6.47a.59.59,0,0,1,.37.75l-.09.3A.59.59,0,0,1,143.47,117.58Z"/><path class="cls-10" d="M148,113.09l-1.59-.47a.59.59,0,0,1-.38-.74l.09-.3a.6.6,0,0,1,.73-.43l1.59.48a.59.59,0,0,1,.38.74l-.09.3A.6.6,0,0,1,148,113.09Z"/><path class="cls-10" d="M142.1,111.36l-1.6-.47a.58.58,0,0,1-.37-.74l.09-.3a.6.6,0,0,1,.73-.43l1.59.48a.59.59,0,0,1,.38.74l-.09.3A.6.6,0,0,1,142.1,111.36Z"/><path class="cls-12" d="M141.87,85c1,16.33,6.31,21.48.64,33.41C137.33,117.79,128.28,104.91,141.87,85Z"/><path class="cls-7" d="M138.29,124.59c5.8-4.67-10.59-10-10.59-10S132.48,129.26,138.29,124.59Z"/><path class="cls-7" d="M133.1,132.65c-4.2,6.13,13,6.54,13,6.54S137.29,126.52,133.1,132.65Z"/></g></g></g></svg>