<svg xmlns="http://www.w3.org/2000/svg" viewBox="0 0 67.82 89.14"><defs><style>.cls-1{fill:#f9ac7e;}.cls-11,.cls-2{fill:#d67b57;}.cls-3{fill:#f68f63;}.cls-4{fill:#86473a;}.cls-5{fill:#fff;}.cls-6{fill:#94bdd3;opacity:0.6;}.cls-7{fill:#47271f;}.cls-8{fill:#281414;}.cls-9{fill:#18151e;}.cls-10{fill:#b26a45;}.cls-11{opacity:0.4;}.cls-12{fill:#9f5447;}.cls-13{fill:#70362c;}.cls-14{fill:none;stroke:#641c25;stroke-linecap:round;stroke-miterlimit:10;stroke-width:0.73px;}</style></defs><title>Asset 1</title><g id="Layer_2" data-name="Layer 2"><g id="Capa_1" data-name="Capa 1"><path class="cls-1" d="M7.89,52.11S5.51,45,2.08,46-.85,66.6,5.52,64.74,7.89,52.11,7.89,52.11Z"/><path class="cls-2" d="M1.3,53.49s.45-5.24,2.1-4.9,4.8,12,2.39,13.66-3.47-8-.68-6.43C5.11,55.82,3.51,45.18,1.3,53.49Z"/><path class="cls-1" d="M59.93,52.11S62.31,45,65.74,46,68.67,66.6,62.3,64.74,59.93,52.11,59.93,52.11Z"/><path class="cls-2" d="M66.52,53.49s-.45-5.24-2.1-4.9-4.8,12-2.39,13.66,3.47-8,.68-6.43C62.71,55.82,64.31,45.18,66.52,53.49Z"/><path class="cls-1" d="M60.13,59.94c0,13.51-14.82,29.2-26.39,29.2S7.35,73.45,7.35,59.94,3,14.75,33.74,14.75,60.13,46.42,60.13,59.94Z"/><path class="cls-3" d="M31.44,67.72s2.18,5.28,5.08,0A5.25,5.25,0,0,1,31.44,67.72Z"/><path class="cls-3" d="M16.83,19.77A23.73,23.73,0,0,0,9.07,32.12L7.93,45.06,9.13,58S9,37.28,19.51,32.28A237.33,237.33,0,0,0,49,36c8.34.4,10.32,12.93,11.37,14.88a68.57,68.57,0,0,0-1.58-17.57C53.16,28.77,45,23.57,45,23.57Z"/><path class="cls-3" d="M9.79,47.46a57.31,57.31,0,0,1,5.45-26.29h0c-.19.18-.37.37-.55.56L14.5,22l-.37.42-.18.2q-.25.3-.48.6l-.15.19-.34.47-.18.24-.34.5a1.63,1.63,0,0,1-.11.17l-.41.65-.14.25-.27.48-.14.25-.36.68-.09.2c-.09.18-.18.35-.26.53l-.12.28c-.09.18-.16.35-.24.53l-.09.22c-.1.24-.2.48-.29.72l-.1.27c-.07.17-.13.35-.19.52l-.1.28c-.08.25-.17.49-.24.74l-.06.2q-.11.3-.18.6l-.09.3L8.83,33c0,.09-.05.17-.07.25-.06.26-.13.51-.19.77l-.06.28c0,.18-.09.36-.13.55l-.06.3c-.05.23-.1.47-.14.71,0,.08,0,.16,0,.24s-.07.43-.11.65,0,.21,0,.31a5.62,5.62,0,0,0-.09.57c0,.09,0,.18,0,.27,0,.26-.07.53-.11.79l0,.28c0,.19-.05.38-.07.56s0,.21,0,.32,0,.44-.07.66l0,.25c0,.23,0,.47-.07.71s0,.21,0,.31,0,.38,0,.56a2.83,2.83,0,0,0,0,.29c0,.26,0,.52,0,.78,0,.09,0,.17,0,.26l0,.58c0,.1,0,.2,0,.31l0,.62v.2l0,.78v.29c0,.18,0,.37,0,.55a2.62,2.62,0,0,0,0,.28c0,.25,0,.51,0,.76v1.89c0,.24,0,.49,0,.73v.28c0,.18,0,.35,0,.52a2.26,2.26,0,0,0,0,.26c0,.24,0,.48,0,.71v.21c0,.18,0,.36,0,.54v.29c0,.16,0,.32,0,.48v.25c0,.21,0,.43,0,.64,0,.55,0,1.1,0,1.62v0c0,.22,0,.43,0,.64s0,.12,0,.17,0,.36,0,.54V58c0,.21,0,.42,0,.62a.71.71,0,0,1,0,.14v.64c0,.2,0,.4,0,.59,0,13.51,14.81,29.2,26.39,29.2a15,15,0,0,0,3.8-.52C28.59,86.91,9.42,79.5,9.79,47.46Z"/><path class="cls-4" d="M13.41,43.42a4.05,4.05,0,0,1,.36-.68,5.65,5.65,0,0,1,.52-.69,6.11,6.11,0,0,1,.81-.79,8.26,8.26,0,0,1,1.13-.77,8.56,8.56,0,0,1,1.4-.61,9.15,9.15,0,0,1,1.6-.41,12.17,12.17,0,0,1,1.71-.08,9.53,9.53,0,0,1,1.7.22,10.61,10.61,0,0,1,1.57.44c.49.2,1,.36,1.42.57l1.19.64a18.64,18.64,0,0,1,1.68,1.09l.63.43a1.16,1.16,0,0,1-1.32,1.91l0,0-.09-.06-.54-.42c-.36-.24-.82-.68-1.46-1.06l-1-.62c-.36-.22-.77-.38-1.18-.59a8.47,8.47,0,0,0-1.3-.49,10.78,10.78,0,0,0-1.39-.32A11.27,11.27,0,0,0,19.38,41a7.86,7.86,0,0,0-2.61.57c-.37.19-.75.34-1.06.54s-.61.37-.87.53-.48.33-.66.47c-.37.26-.57.43-.57.43a.13.13,0,0,1-.18,0,.13.13,0,0,1,0-.13Z"/><path class="cls-5" d="M14,52.45s-.6-5.75,6.18-5.75a7.73,7.73,0,0,1,7.67,6.91S18.61,62.38,14,52.45Z"/><path class="cls-6" d="M20.21,46.7c-6.78,0-6.18,5.75-6.18,5.75a12.68,12.68,0,0,0,.68,1.28c5.06-5.68,10.85-1.67,12.92.1l.25-.22A7.73,7.73,0,0,0,20.21,46.7Z"/><path class="cls-7" d="M25.55,51.34a3.88,3.88,0,1,1-3.87-3.88A3.87,3.87,0,0,1,25.55,51.34Z"/><path class="cls-8" d="M23.44,51.34a1.77,1.77,0,1,1-1.76-1.77A1.76,1.76,0,0,1,23.44,51.34Z"/><path class="cls-5" d="M21.75,49.78a1.12,1.12,0,1,1-1.12-1.12A1.12,1.12,0,0,1,21.75,49.78Z"/><path class="cls-9" d="M27.88,53.61l-.32-.85a6.62,6.62,0,0,0-.36-1l-.64-1.12c-.29-.37-.62-.76-1-1.16L25,49l-.32-.26-.38-.21-.75-.41-.83-.3a4.14,4.14,0,0,0-.86-.2,3.26,3.26,0,0,0-.88-.1,6,6,0,0,0-.85,0l-1,.1a10.67,10.67,0,0,0-1.55.42c-.25.09-.46.21-.69.31s-.42.24-.61.37a4.89,4.89,0,0,0-.95.92,5.64,5.64,0,0,0-.63,1,7.15,7.15,0,0,0-.39.92,8.92,8.92,0,0,0-.27.87,3.47,3.47,0,0,1-.24-.92,5,5,0,0,1,0-1.11A4.56,4.56,0,0,1,14.14,49a4.93,4.93,0,0,1,1-1.52,10.09,10.09,0,0,1,.8-.63,8.24,8.24,0,0,1,.94-.47,8.73,8.73,0,0,1,1-.3L19,45.91h1a7.59,7.59,0,0,1,1.1.11,4.6,4.6,0,0,1,1,.23,5.64,5.64,0,0,1,1,.35l.93.46c.28.18.55.39.81.58l.39.3.33.35.61.68c.33.5.63,1,.87,1.42l.47,1.31a7.14,7.14,0,0,1,.2,1C27.83,53.28,27.88,53.61,27.88,53.61Z"/><path class="cls-4" d="M54.85,43.56s-.2-.17-.57-.43c-.18-.14-.4-.3-.66-.47s-.54-.35-.87-.53-.69-.35-1.06-.54a7.93,7.93,0,0,0-1.25-.39A7.55,7.55,0,0,0,49.08,41a11.27,11.27,0,0,0-1.42.08,10.78,10.78,0,0,0-1.39.32,7.75,7.75,0,0,0-1.3.49c-.41.21-.82.37-1.18.59l-1,.62c-.64.38-1.11.82-1.46,1.06l-.55.42-.08.06a1.16,1.16,0,1,1-1.4-1.85l0,0,.63-.43a17.29,17.29,0,0,1,1.68-1.09l1.19-.64c.43-.21.92-.37,1.41-.57a10.75,10.75,0,0,1,1.58-.44,9.53,9.53,0,0,1,1.69-.22,12.1,12.1,0,0,1,1.71.08,9.88,9.88,0,0,1,3,1,7.57,7.57,0,0,1,1.12.77,5.66,5.66,0,0,1,.82.79c.21.26.39.49.52.69a4.05,4.05,0,0,1,.36.68h0a.14.14,0,0,1-.08.17A.13.13,0,0,1,54.85,43.56Z"/><path class="cls-5" d="M54.42,52.45s.6-5.75-6.17-5.75a7.72,7.72,0,0,0-7.67,6.91S49.84,62.38,54.42,52.45Z"/><path class="cls-6" d="M48.24,46.7c6.77,0,6.18,5.75,6.18,5.75-.22.47-.45.89-.68,1.28-5.07-5.68-10.86-1.67-12.92.1l-.25-.22A7.72,7.72,0,0,1,48.24,46.7Z"/><path class="cls-7" d="M42.9,51.34a3.88,3.88,0,1,0,3.88-3.88A3.88,3.88,0,0,0,42.9,51.34Z"/><path class="cls-8" d="M45,51.34a1.77,1.77,0,1,0,1.77-1.77A1.76,1.76,0,0,0,45,51.34Z"/><path class="cls-5" d="M46.71,49.78a1.12,1.12,0,1,0,1.12-1.12A1.12,1.12,0,0,0,46.71,49.78Z"/><path class="cls-9" d="M40.58,53.61s.05-.33.12-.9a8.91,8.91,0,0,1,.2-1c.14-.39.3-.83.48-1.31s.54-.92.86-1.42l.62-.68.33-.35.38-.3c.27-.19.54-.4.82-.58l.93-.46a5.82,5.82,0,0,1,1-.35,4.69,4.69,0,0,1,1-.23,7.45,7.45,0,0,1,1.1-.11h1l1.09.14a8.05,8.05,0,0,1,1,.3,6.87,6.87,0,0,1,.94.47,7.42,7.42,0,0,1,.8.63,4.8,4.8,0,0,1,1,1.52,5.16,5.16,0,0,1,.37,1.45,4.88,4.88,0,0,1,0,1.11,3,3,0,0,1-.24.92,7.13,7.13,0,0,0-.26-.87,8.93,8.93,0,0,0-.39-.92,5.72,5.72,0,0,0-.64-1,4.38,4.38,0,0,0-1-.92c-.19-.13-.39-.25-.6-.37s-.44-.22-.69-.31a10.47,10.47,0,0,0-1.56-.42l-1-.1a6,6,0,0,0-.85,0,3.26,3.26,0,0,0-.88.1,4.23,4.23,0,0,0-.87.2l-.82.3-.76.41-.37.21L43.5,49l-.64.52c-.34.4-.67.79-1,1.16l-.64,1.12a8.3,8.3,0,0,0-.37,1Z"/><path class="cls-10" d="M30.94,67.3a9.56,9.56,0,0,0,1,.37,7.59,7.59,0,0,0,1,.25A4.88,4.88,0,0,0,34,68a6.49,6.49,0,0,0,1.09-.11l.51-.13.47-.14c.3-.08.54-.19.73-.24l.3-.09s-.06.1-.18.26a2.84,2.84,0,0,1-.55.6,3.76,3.76,0,0,1-1,.64,6.18,6.18,0,0,1-.65.21,5.69,5.69,0,0,1-.71.07,3.83,3.83,0,0,1-1.37-.25,3.29,3.29,0,0,1-1-.63A2.37,2.37,0,0,1,30.94,67.3Z"/><path class="cls-11" d="M30.94,80.68a6.57,6.57,0,0,1,5.78,0s.61.91,0,1.09a19.91,19.91,0,0,1-5.78,0C30.17,81.52,30.43,80.9,30.94,80.68Z"/><path class="cls-4" d="M5.2,48.58S6,54.23,7.89,52.11,11.33,33.34,14,28.63c0,0,16.33,8.28,39.54,0,0,0,4.73,15.24,5.13,20.12s2.09,3,3.43-.91,4.4-21.26.15-28.07c0,0,3.69-17.07-11.62-19.06C34.38-1.4,26.19,1.36,19.91,6.88c-6.6,5.81-13.37,6.78-17.28,8.56S4,25.71,4,25.71,1.33,32.81,5.2,48.58Z"/><path class="cls-12" d="M9.43,13c-1.35.5-2.62.92-3.77,1.31,8,5,23.53,11.53,39.35.45,0,0,9.49-6.87,17.65.67,0-4.1-1.06-10-6.54-13C52,2.31,47.24,4.08,42.53,8.3A30.16,30.16,0,0,1,9.43,13Z"/><path class="cls-13" d="M5.2,48.58S6,54.23,7.89,52.11,11.33,33.34,14,28.63c0,0,16.33,8.28,39.54,0,0,0,4.73,15.24,5.13,20.12s2.09,3,3.43-.91a47.62,47.62,0,0,0,1.5-7c-4.28,1-2.47-7-2.47-7s7.18-20.12-10.5-13S17.85,23.76,14,23.88,9.13,34.47,9.13,34.47a60.86,60.86,0,0,1-2-8.18c-1.28-.47-4-6-5.67-9.69C.15,19.52,4,25.71,4,25.71S1.33,32.81,5.2,48.58Z"/><path class="cls-14" d="M25.89,71.91a22.43,22.43,0,0,0,17,0"/></g></g></svg>