<svg xmlns="http://www.w3.org/2000/svg" viewBox="0 0 293 123"><defs><style>.cls-1{fill:#f3931a;}.cls-2{fill:#e58115;}.cls-3{fill:#fff;}.cls-4{fill:#c61818;}.cls-5{fill:#dd2c2c;}</style></defs><title>Asset 34</title><g id="Layer_2" data-name="Layer 2"><g id="Layer_1-2" data-name="Layer 1"><path class="cls-1" d="M245.68,90.71c-1.28,0-2,.89-2,2.69s.75,2.69,2,2.69,2-.89,2-2.69S246.93,90.71,245.68,90.71Z"/><path class="cls-1" d="M230.31,90.71c-1.28,0-2,.89-2,2.69s.74,2.69,2,2.69,2-.89,2-2.69S231.57,90.71,230.31,90.71Z"/><path class="cls-1" d="M255.28,93.28a1.43,1.43,0,1,0-1.56-1.43A1.41,1.41,0,0,0,255.28,93.28Z"/><path class="cls-1" d="M215.57,92.94H213v2.94h2.6c1.26,0,1.87-.54,1.87-1.48S216.83,92.94,215.57,92.94Z"/><path class="cls-1" d="M256.68,97.92H253.8c-.54,0-.93.31-.93.77,0,.63.9,1,2.39,1,1.76,0,2.59-.48,2.59-1.07S257.56,97.92,256.68,97.92Z"/><path class="cls-1" d="M281.81,0H120.56a100.47,100.47,0,0,1,5.83,9.53c7.16,13.25,10.32,29,11.75,43.95s-1,30.54-8.11,43.8c-4.18,7.75-9.86,14.6-15.92,21a64.27,64.27,0,0,1-5,4.74H281.81A11.19,11.19,0,0,0,293,111.81V11.19A11.19,11.19,0,0,0,281.81,0Zm-66,97.65h-5.08V86.43h4.91c2.72,0,4,1.12,4,3.06A2.41,2.41,0,0,1,217.44,92v0a2.57,2.57,0,0,1,2.43,2.58C219.87,96.51,218.44,97.65,215.77,97.65Zm8.32,0h-2.33v-8.5h2.33Zm-1.16-9.72c-1,0-1.44-.41-1.44-1.24s.47-1.26,1.44-1.26,1.45.42,1.45,1.26S223.9,87.93,222.93,87.93Zm7.38,9.89a4.42,4.42,0,1,1,4.35-4.42A4.1,4.1,0,0,1,230.31,97.82Zm10.11-.36a3.44,3.44,0,0,1-1.58.36c-1.65,0-2.38-.76-2.38-2.53V85.43h2.33V95c0,.78.26,1.07.89,1.07a2.25,2.25,0,0,0,.95-.17Zm5.26.36A4.42,4.42,0,1,1,250,93.4,4.1,4.1,0,0,1,245.68,97.82Zm9.57,3.48c-2.93,0-4.22-.9-4.22-2.2,0-.77.44-1.38,1.55-1.62a1.6,1.6,0,0,1-1.14-1.6,1.78,1.78,0,0,1,1.31-1.68,2.52,2.52,0,0,1-1.34-2.33c0-1.78,1.47-2.89,3.87-2.89a5.7,5.7,0,0,1,1.84.27,2.29,2.29,0,0,1,2.51-2.12l.28,1.66c-1.08-.1-1.69.28-1.84.94a2.5,2.5,0,0,1,1.09,2.14c0,1.77-1.48,2.87-3.88,2.87a7.78,7.78,0,0,1-1.44-.13c-.5.15-.7.41-.7.73s.36.71,1.09.71h2.62c1.83,0,2.87.84,2.87,2.26C259.72,100.27,257.9,101.3,255.25,101.3Zm10.32-3.12c-.84,2.31-1.82,3.12-3.62,3.12a4,4,0,0,1-2.18-.57l.49-1.69a2.22,2.22,0,0,0,1.5.48,1.34,1.34,0,0,0,1.41-1l.29-.73-.94-2.21-2.6-6.41h2.59l1.61,5.1.44,1.7.53-1.8,1.55-5H269Z"/><path class="cls-1" d="M217.15,89.7c0-1-.61-1.45-1.85-1.45H213v2.89h2.33C216.54,91.14,217.15,90.66,217.15,89.7Z"/><path class="cls-2" d="M114.11,118.26c6.06-6.38,11.74-13.23,15.92-21,7.13-13.26,9.55-28.8,8.11-43.8s-4.59-30.7-11.75-43.95A100.47,100.47,0,0,0,120.56,0H11.19A11.19,11.19,0,0,0,0,11.19V111.81A11.19,11.19,0,0,0,11.19,123h97.88A64.27,64.27,0,0,0,114.11,118.26Zm-5.6-41.7a5.54,5.54,0,0,1-4.23-.25c-1.39-.73-2-2.24-2.78-3.51a12,12,0,0,0-4-3.46,25.92,25.92,0,0,0-2.57-1.44c-.43-.21-.88-.41-1.3-.66-.37.85-.76,1.69-1.2,2.5a27,27,0,0,1-7.12,8.39,19.94,19.94,0,0,0,3.92,3.92,17,17,0,0,0,5,2.35C97,85.34,99.54,87,99,90.28c-.47,2.93-3.33,5.24-6.3,4.21s-3-4-4.31-6.26A12.42,12.42,0,0,0,85,84.7c-1.43-1.13-2.94-2.14-4.34-3.32a.42.42,0,0,1-.13-.23,31.09,31.09,0,0,1-9.73,3,14.29,14.29,0,0,1,.12,1.48,18.55,18.55,0,0,0,.36,2.45,10.46,10.46,0,0,0,.74,2.3c.3.65.65,1.26.89,1.94a5.2,5.2,0,0,1,.19,3.52,5.14,5.14,0,0,1-2.33,2.62c-1.72,1-4.18,1.26-5.68-.29-1.83-1.9-1.17-4.92.09-6.94A10.27,10.27,0,0,0,67,88.09c.22-1.24-.34-2.37-.49-3.56H66.4A40.87,40.87,0,0,1,56.31,83.3a31.85,31.85,0,0,1-8.32-3,3.75,3.75,0,0,0-.62,3c.36,1.25,1.36,2.38,1.3,3.74-.07,1.58-1.75,2.3-3.05,2.7-2.9.9-6.83-.39-7-3.87-.14-3,3.42-4.42,5.43-5.83a7.34,7.34,0,0,0,1.5-1.44A24.65,24.65,0,0,1,39,69.81l0,0a7.17,7.17,0,0,1-2.64.8,19,19,0,0,0-3.14.8c-2.17.74-4.41,1.44-5.87,3.31-.94,1.2-2.05,2.41-3.66,2.6a4.15,4.15,0,0,1-3.54-1.49c-1.65-1.88-2.41-5.29-.68-7.36s5.14-1.32,7.58-1.28a38.47,38.47,0,0,0,6.13-.85,9.76,9.76,0,0,0,4.11-1.16,29.44,29.44,0,0,1-1.15-8.15,8.64,8.64,0,0,0-.83-.24,15,15,0,0,0-3.79-.06c-3.13.15-7-.11-7.71-3.9A5.63,5.63,0,0,1,27,46.76a4.34,4.34,0,0,1,4,.59c1.56,1.09,2.34,3.13,4.28,3.66a7.33,7.33,0,0,0,1.48.21,26.75,26.75,0,0,1,4.68-10.59A9,9,0,0,0,38.25,38c-1.27-.61-2.69-.79-4-1.45a5.19,5.19,0,0,1-3-5.59,4.88,4.88,0,0,1,5.25-3.42C38.9,27.8,40,29.83,40.3,32a5.14,5.14,0,0,0,1.52,3.11,32.26,32.26,0,0,0,2.44,2.38l.12-.13a26.93,26.93,0,0,1,11.56-6.44,9.61,9.61,0,0,0-.32-1.08,6.56,6.56,0,0,0-2.18-2.69c-1.24-1-2.59-2.05-2.58-3.79A5.08,5.08,0,0,1,53,19.39c2.35-1.76,6.22-2.15,8.33.2a4.07,4.07,0,0,1,.85,4.27c-.52,1.49-1.57,2.79-1.86,4.37a5,5,0,0,0,.06,1.84l.3,0A34.25,34.25,0,0,1,78.3,33.79c.71-.87,1.43-1.72,2.18-2.57a4.33,4.33,0,0,0,1.39-3c-.08-1.81-1.15-3.3.17-5a3.21,3.21,0,0,1,3.42-1.07,7.13,7.13,0,0,1,4.9,6c.19,3.18-2.63,3.77-4.82,5.11a8.27,8.27,0,0,0-2.73,3.33c4.37,2.4,8.92,5.93,11.52,10.34,1.32-.42,2.69-.7,4-1.23a26.84,26.84,0,0,0,4.19-2.48,6.2,6.2,0,0,1,3.57-1.24,5.23,5.23,0,0,1,3.25,1.41c1.62,1.49,2.49,4.1,1.22,6.07-1.48,2.31-4.11,1.81-6.4,1.36a10.4,10.4,0,0,0-4.23.11,37.64,37.64,0,0,1-3.77.78A22.77,22.77,0,0,1,95.83,60c-.12.59-.27,1.18-.41,1.77,3.53,2,7,4.43,11.27,4.38,1.49,0,3,0,4,1.21a5.72,5.72,0,0,1,1.36,3.39A5.59,5.59,0,0,1,108.51,76.56Z"/><path class="cls-3" d="M217.44,92v0a2.41,2.41,0,0,0,2.14-2.48c0-1.94-1.26-3.06-4-3.06h-4.91V97.65h5.08c2.67,0,4.1-1.14,4.1-3.08A2.57,2.57,0,0,0,217.44,92ZM213,88.25h2.33c1.24,0,1.85.48,1.85,1.45s-.61,1.44-1.85,1.44H213Zm2.6,7.63H213V92.94h2.6c1.26,0,1.87.53,1.87,1.46S216.83,95.88,215.57,95.88Z"/><path class="cls-3" d="M222.93,85.43c-1,0-1.44.42-1.44,1.26s.47,1.24,1.44,1.24,1.45-.41,1.45-1.24S223.9,85.43,222.93,85.43Z"/><rect class="cls-3" x="221.76" y="89.15" width="2.33" height="8.5"/><path class="cls-3" d="M230.31,89a4.42,4.42,0,1,0,4.35,4.42A4.1,4.1,0,0,0,230.31,89Zm0,7.11c-1.28,0-2-.89-2-2.69s.74-2.69,2-2.69,2,.89,2,2.69S231.57,96.09,230.31,96.09Z"/><path class="cls-3" d="M238.79,95v-9.6h-2.33v9.86c0,1.77.73,2.53,2.38,2.53a3.44,3.44,0,0,0,1.58-.36l.21-1.53a2.25,2.25,0,0,1-.95.17C239.05,96.1,238.79,95.81,238.79,95Z"/><path class="cls-3" d="M245.68,89A4.42,4.42,0,1,0,250,93.4,4.1,4.1,0,0,0,245.68,89Zm0,7.11c-1.28,0-2-.89-2-2.69s.75-2.69,2-2.69,2,.89,2,2.69S246.93,96.09,245.68,96.09Z"/><path class="cls-3" d="M256.85,96.05h-2.62c-.73,0-1.09-.24-1.09-.71s.2-.58.7-.73a7.78,7.78,0,0,0,1.44.13c2.4,0,3.88-1.1,3.88-2.87a2.5,2.5,0,0,0-1.09-2.14c.15-.66.76-1,1.84-.94l-.28-1.66a2.29,2.29,0,0,0-2.51,2.12,5.7,5.7,0,0,0-1.84-.27c-2.4,0-3.87,1.11-3.87,2.89a2.52,2.52,0,0,0,1.34,2.33,1.78,1.78,0,0,0-1.31,1.68,1.6,1.6,0,0,0,1.14,1.6c-1.11.24-1.55.85-1.55,1.62,0,1.3,1.29,2.2,4.22,2.2,2.65,0,4.47-1,4.47-3C259.72,96.89,258.68,96.05,256.85,96.05Zm-1.57-5.61a1.43,1.43,0,1,1,0,2.84,1.43,1.43,0,1,1,0-2.84Zm0,9.27c-1.49,0-2.39-.39-2.39-1,0-.46.39-.77.93-.77h2.88c.88,0,1.17.27,1.17.72S257,99.71,255.26,99.71Z"/><path class="cls-3" d="M265.09,94.15l-.53,1.8-.44-1.7-1.61-5.1h-2.59l2.6,6.41.94,2.21-.29.73a1.34,1.34,0,0,1-1.41,1,2.22,2.22,0,0,1-1.5-.48l-.49,1.69a4,4,0,0,0,2.18.57c1.8,0,2.78-.81,3.62-3.12l3.43-9h-2.36Z"/><path class="cls-4" d="M37.54,66a9.73,9.73,0,0,1-3.22.9c-2,.31-3.93,1-5.92,1.3a22.25,22.25,0,0,1-3.74.06,6.77,6.77,0,0,0-3.65.53c-2.25,1.39-1.19,5.2.49,6.6,1.34,1.12,2.88.62,4-.57a12.6,12.6,0,0,1,3.14-3,28.83,28.83,0,0,1,5.14-2c1.45-.44,3.27-.37,4.57-1.17a.44.44,0,0,1,.17-.06c-.2-.5-.4-1-.58-1.49S37.67,66.41,37.54,66ZM23.45,70.36a2.87,2.87,0,0,1-.23.51c0,.09-.07.19-.12.29a2,2,0,0,0-.1.21,2.38,2.38,0,0,0-.15.52s0,.09,0,.14a.76.76,0,0,1-.54.71.73.73,0,0,1-.82-.34,2.85,2.85,0,0,1-.31-1.59,2,2,0,0,1,.19-.77,1.78,1.78,0,0,1,.17-.27,1.37,1.37,0,0,1,.73-.63,1,1,0,0,1,.25-.06.77.77,0,0,1,.69.14.74.74,0,0,1,.31.62A3.19,3.19,0,0,1,23.45,70.36ZM25,69.9a.77.77,0,0,1,0-1.53A.77.77,0,0,1,25,69.9Z"/><path class="cls-4" d="M84.13,79a29.84,29.84,0,0,1-2.8,1.75c2.92,1.73,6.54,3.23,8.24,6.35,1,1.89,1.11,5.2,3.4,6.09,2.8,1.09,5.47-2.4,4.23-5-1.06-2.18-4.44-2.42-6.41-3.36a17.24,17.24,0,0,1-4.18-3.08A10.88,10.88,0,0,1,84.13,79Zm8.73,9.4a.76.76,0,0,1,.89-.44,4.55,4.55,0,0,1,1.07.44,2.14,2.14,0,0,1,.54.41l.17.19a1.11,1.11,0,0,1,.23.41.43.43,0,0,1,0,.11.65.65,0,0,1,0,.39.68.68,0,0,1-.18.32.76.76,0,0,1-.72.19l-.32-.12-.15-.12a4,4,0,0,1-.41-.31l-.16-.13a4.09,4.09,0,0,0-.67-.4.74.74,0,0,1-.34-.45A.69.69,0,0,1,92.86,88.4Z"/><path class="cls-4" d="M69.77,87a10.54,10.54,0,0,1-.15-2.64c-.8.08-1.6.14-2.41.16.13,1.19.75,2.28.63,3.52a7.63,7.63,0,0,1-1.3,3c-1,1.73-2.25,4.75-.41,6.36,1.38,1.2,3.62.48,4.83-.61a3.13,3.13,0,0,0,1-3.16,23.46,23.46,0,0,0-1.32-3.1A14.08,14.08,0,0,1,69.77,87Zm-1,7.51a4.83,4.83,0,0,0,0,.85.75.75,0,0,1-.65.74.8.8,0,0,1-.48-.09.74.74,0,0,1-.34-.45,5.33,5.33,0,0,1-.1-1.05,1.76,1.76,0,0,1,.14-.79,1.93,1.93,0,0,1,.22-.28,1,1,0,0,1,.25-.21.69.69,0,0,1,.47-.06.74.74,0,0,1,.37.28,1,1,0,0,1,.11.29l.06.16A1.26,1.26,0,0,1,68.8,94.49Z"/><path class="cls-4" d="M42.1,39.82c.42-.53.87-1,1.34-1.54a20.52,20.52,0,0,1-2.09-2.08,6.51,6.51,0,0,1-1.93-2.89,16,16,0,0,0-.74-3.05,2.68,2.68,0,0,0-2.2-1.6c-2.23-.22-4.51,1.46-4.17,3.85A4.12,4.12,0,0,0,34,35.19a11.13,11.13,0,0,0,3,1.27A11.27,11.27,0,0,1,42.1,39.82Zm-5.53-8.34-.15.13a.91.91,0,0,1-.38.19l-.2,0-.27,0h0a1.86,1.86,0,0,1-.33,0h0L35,32l.08,0a1,1,0,0,1-.68.08,1.1,1.1,0,0,1-.42-.24.79.79,0,0,1-.2-.31.53.53,0,0,1-.06-.24.7.7,0,0,1,0-.38l.09-.23c.09-.11.17-.23.27-.33s.22-.18.33-.27a2,2,0,0,1,.57-.28,2,2,0,0,1,.92,0,1,1,0,0,1,.33.13.9.9,0,0,1,.28.2,1.17,1.17,0,0,1,.29.52A.93.93,0,0,1,36.57,31.48Z"/><path class="cls-4" d="M95.83,50.41c1.32-.27,2.65-.56,4-.81a11.46,11.46,0,0,1,3.87-.19c1.82.27,4.69,1.39,5.65-.92.76-1.83-.64-4-2.28-4.79C104.66,42.58,102.4,45,100.4,46a16.8,16.8,0,0,1-5.66,1.79,14.44,14.44,0,0,1,.65,1.38A10.89,10.89,0,0,1,95.83,50.41Zm6.85-4.31a.76.76,0,0,1,.13-.41,3,3,0,0,1,.36-.44.52.52,0,0,1,.11-.1,4.08,4.08,0,0,1,.33-.25.57.57,0,0,1,.13-.08l.07,0a1.43,1.43,0,0,1,.57-.16,4.36,4.36,0,0,1,.52.05,1.06,1.06,0,0,1,.41.24.88.88,0,0,1,.12.21.92.92,0,0,1,.93-.72,1,1,0,0,1,0,2,.91.91,0,0,1-.84-.52.81.81,0,0,1-.21.33l-.17.18,0,0-.22.17h0l-.23.23h0a1,1,0,0,1-.33.33l-.26.11a1.14,1.14,0,0,1-.58,0l-.26-.11a.84.84,0,0,1-.31-.28.85.85,0,0,1-.19-.38A.79.79,0,0,1,102.68,46.1Z"/><path class="cls-4" d="M107.54,67.62a15.27,15.27,0,0,1-4.31-.44,26.53,26.53,0,0,1-4.4-1.75A27.14,27.14,0,0,1,95,63.27c-.28,1-.6,1.93-1,2.87a13,13,0,0,1,4,1.71,16.61,16.61,0,0,1,4.12,3c1,1.07,1.4,2.61,2.44,3.62a3.53,3.53,0,0,0,3.49.51c2.07-.7,3-3.39,2.32-5.37A2.77,2.77,0,0,0,107.54,67.62Zm1.14,2.77a.86.86,0,0,1-.29.31.78.78,0,0,1-.35.18l.19-.08-.21.09h0l-.07,0h0l-.22,0a.87.87,0,0,1-.48,0,1.88,1.88,0,0,1-.3-.12l-.1-.06-.13,0a2,2,0,0,0-.33-.09h0a.79.79,0,0,1-.68-1.18,2.05,2.05,0,0,1,.36-.42,1.61,1.61,0,0,1,.34-.24,2.78,2.78,0,0,1,.4-.16l.19,0a1.58,1.58,0,0,1,.38,0l.39,0,.11,0,0,0h0l.29.12.24.19a.64.64,0,0,1,.19.25,1.94,1.94,0,0,1,.13.3.64.64,0,0,0,0,.07A1.25,1.25,0,0,1,108.68,70.39Z"/><path class="cls-4" d="M93,48.35c-2.47-4.27-6.69-7.72-11-10.12-1,1.88-1.94,3.81-3,5.64a.51.51,0,0,1-.88-.51c1.14-2,2-4.1,2.94-6.15a12.66,12.66,0,0,1,3.18-4.64c1.53-1.19,4.52-1.71,4.52-4.08a5.08,5.08,0,0,0-1.56-3.32c-.73-.81-1.87-1.84-3.07-1.65A2,2,0,0,0,82.56,25a8,8,0,0,0,.37,2.56,4.75,4.75,0,0,1-1.26,3.88c-2.7,3.24-5.27,6.6-8.06,9.76-.3.34-.87-.11-.62-.48,1.42-2.11,3-4.1,4.6-6.07-5.34-2.32-11-3.77-16.84-3.29,0,.16.1.32.14.48.36,1.19.81,2.36,1.27,3.51.7,1.71,2.13,3.77,1.68,5.69a.46.46,0,0,1-.89,0c-.64-2-1.58-3.92-2.36-5.91s-1.93-4.45-1.67-6.72c.29-2.59,3.65-5.46,1.56-7.94s-6.41-1.36-8,1.05c-1.17,1.82-.26,3.26,1.19,4.48a8.54,8.54,0,0,1,2.92,3.5,26.93,26.93,0,0,1,1.13,6.18c.15,1.28.26,2.57.33,3.86a6.94,6.94,0,0,1-.3,3.08c-.06.13-.27.22-.35,0a11.91,11.91,0,0,1-.52-4c-.11-1.67-.28-3.33-.52-5-.07-.51-.14-1-.22-1.54a25,25,0,0,0-13.41,9,26.22,26.22,0,0,0-4.56,10h.84a25.9,25.9,0,0,1,3.51.44c2.57.47,5.11,1.12,7.68,1.56.35.05.25.59-.08.59a41.84,41.84,0,0,1-7.47-1,28.6,28.6,0,0,0-4-.48,21.91,21.91,0,0,1-3.13-.18,6.08,6.08,0,0,1-3.69-2.5c-1-1.23-2.38-2.38-4.11-2-2.36.59-3.63,3.91-2.48,6,.91,1.65,2.94,1.94,4.65,1.81a25,25,0,0,1,5.46-.24c2.1.31,4.12,1.44,6.17,2,2.24.65,4.52,1.18,6.75,1.87.89.28.51,1.68-.38,1.4-2.86-.86-5.8-1.46-8.64-2.39-.56-.19-1.11-.42-1.67-.66a27.29,27.29,0,0,0,3.24,12.28,23.85,23.85,0,0,0,5.67,7.28c.22-.39.43-.79.64-1.2a15.87,15.87,0,0,0,1.78-6.08.41.41,0,0,1,.82,0,12.55,12.55,0,0,1-1.18,5.81,12.31,12.31,0,0,1-2.82,4.47,25.85,25.85,0,0,1-3.26,2.2c-1,.66-2.39,1.55-2.68,2.84A3.71,3.71,0,0,0,42,89,5.2,5.2,0,0,0,47,88c1.2-1,.24-2.3-.29-3.43a4.22,4.22,0,0,1-.29-3.6c1.29-3.33,4.64-5.51,5.59-9a.61.61,0,0,1,1.18.32c-.59,2.14-2,3.84-3.41,5.53-.26.33-.57.69-.87,1.08a18.29,18.29,0,0,0,3.52,1.62,39.59,39.59,0,0,0,17.42,2.19c9.93-1.2,18.87-7.45,22.45-16.92C94.34,60.52,96,53.58,93,48.35Zm-8.6-23a.54.54,0,0,1,.22-.15.67.67,0,0,1,.28-.06.66.66,0,0,1,.27.06.54.54,0,0,1,.22.15l.4.33,0,.05h0a.83.83,0,0,1,.11.15l0,.1,0,.1a.37.37,0,0,1,0,.11.23.23,0,0,1,0,.14v.08a.88.88,0,0,1,0,.16.59.59,0,0,1-.06.14h0l-.08.1h0a.57.57,0,0,1-.26.15l-.16,0a.47.47,0,0,1-.17,0l-.2-.05h0L85,26.81h0l-.16-.13-.09-.07-.35-.3a.69.69,0,0,1,0-1Zm-35.31,14c-.39.35-.76.7-1.14,1.06-.7.69-1.43,1.36-2.1,2.08A16.12,16.12,0,0,0,44,44.73c-.53.82-1.13,1.6-1.66,2.43a.2.2,0,0,1-.38-.1,6.66,6.66,0,0,1,.75-3,18,18,0,0,1,1.8-2.63,20.7,20.7,0,0,1,2.16-2.33L47.89,38a2.39,2.39,0,0,1,.74-.51,1.31,1.31,0,0,1,.76,0,.46.46,0,0,1,.33.44A1.55,1.55,0,0,1,49.06,39.3ZM29.52,50.8l-.14.08a1.16,1.16,0,0,1-.53.16l-.14,0a1.54,1.54,0,0,1-.31,0h0l.15,0a.88.88,0,0,0-.23.07,1.92,1.92,0,0,1-.33.14l-.07,0,0,0-.06.06,0,0a.84.84,0,0,1-.83.4.87.87,0,0,1-.69-.59,2.26,2.26,0,0,1,0-1.18,2.46,2.46,0,0,1,.22-.61,1.59,1.59,0,0,1,.67-.69,2.16,2.16,0,0,1,1.68-.26,2.08,2.08,0,0,1,.84.45,1.51,1.51,0,0,1,.4,1A1,1,0,0,1,29.52,50.8Zm3.56,1a.61.61,0,0,0,0,.12.57.57,0,0,1-.13.21.69.69,0,0,1-.26.25l-.23.09h0l-.24,0a.62.62,0,0,1-.25,0h0l-.12-.05a.45.45,0,0,1-.21-.12.7.7,0,0,1-.24-.27l-.1-.22a.66.66,0,0,1,0-.39c0-.08,0-.09,0-.14l0-.06a.74.74,0,0,1,.16-.32.85.85,0,0,1,.26-.24l.22-.09.25,0a.62.62,0,0,1,.35.08.45.45,0,0,1,.21.12A.58.58,0,0,1,33,51l.1.22,0,.07h0l0,.25ZM47.22,56a.86.86,0,0,1-.23.39.81.81,0,0,1-.38.22.76.76,0,0,1-.47,0l-.17,0a1,1,0,0,1-.43-.25,1,1,0,0,1-.25-.44.92.92,0,0,1,0-.52,1,1,0,0,1,.25-.44,1,1,0,0,1,.43-.25,1,1,0,0,1,.53,0,1,1,0,0,1,.43.25,1,1,0,0,1,.25.44l0,.17A.9.9,0,0,1,47.22,56Zm-2.55,13a.66.66,0,0,1-.52.33c-.64.09-1.19-.55-1.52-1a7.16,7.16,0,0,1-1.13-2.77,6.51,6.51,0,0,1-.15-1.64c0-.5.08-1,.13-1.48a.61.61,0,0,1,1.2-.16c.15.53.3,1.06.48,1.59s.25,1.09.4,1.63.28.93.45,1.38l0,0,.08.17.15.29c.06.1.12.19.17.29a2.92,2.92,0,0,1,.16.37A1,1,0,0,1,44.67,68.94ZM42.62,85.88l0,.11a.53.53,0,0,1,0,.12v0a2.46,2.46,0,0,0-.16.59,1.11,1.11,0,0,1-.27.47l-.22.16a.79.79,0,0,1-.39.13.66.66,0,0,1-.28,0,.79.79,0,0,1-.4-.13l-.22-.16a.81.81,0,0,1-.21-.34.86.86,0,0,1-.1-.41c0-.1,0-.2,0-.3a5,5,0,0,1,.08-.54,1.75,1.75,0,0,1,.23-.5,1.38,1.38,0,0,1,.45-.45l.11,0a.91.91,0,0,1,.48-.13.92.92,0,0,1,.49.13.95.95,0,0,1,.47.82h0a.77.77,0,0,1,0,.15A2.08,2.08,0,0,1,42.62,85.88ZM53.23,36.77a.39.39,0,0,1-.08.1.74.74,0,0,1-.21.15l0,0-.12.06a.85.85,0,0,1-.47.13.64.64,0,0,1-.36-.08.67.67,0,0,1-.3-.19.72.72,0,0,1-.2-.3.8.8,0,0,1-.08-.37.9.9,0,0,1,.13-.47l.15-.19a1,1,0,0,1,.41-.24l.12,0a.73.73,0,0,1,.36-.07h.2l.21,0,.19.08a.54.54,0,0,1,.22.2.42.42,0,0,1,.1.17.66.66,0,0,1,.07.3l0,.21a1.41,1.41,0,0,1-.18.37Zm1,41a.75.75,0,0,1-.1.31.49.49,0,0,1-.22.23L54,78.2a.41.41,0,0,1-.14.12.39.39,0,0,1-.19.12.69.69,0,0,1-.35.07l-.24,0h0l-.11,0-.22-.08a1,1,0,0,1-.43-.25,1,1,0,0,1-.25-.43.86.86,0,0,1,0-.39.77.77,0,0,1,.12-.36,1.06,1.06,0,0,1,.35-.35l.23-.09a1,1,0,0,1,.94.25l.18.16L54,77l0,0,.14.18.09.22a.5.5,0,0,1,0,.12A.49.49,0,0,1,54.22,77.75ZM86.64,49.24a1.55,1.55,0,0,1,0,3.1A1.55,1.55,0,0,1,86.64,49.24ZM74.23,53.15a.68.68,0,0,1,0,1.35A.68.68,0,0,1,74.23,53.15ZM64.49,32.89a.67.67,0,0,1,.2-.32,1.06,1.06,0,0,1,.71-.3l.55,0h.45a.78.78,0,0,1,.37.09.43.43,0,0,1,.22.12.48.48,0,0,1,.11.09,1,1,0,0,1,.24.42l0,.25a1,1,0,0,1-.27.67.68.68,0,0,1-.21.17l-.23.1-.26,0h-1a1,1,0,0,1-.71-.29,1,1,0,0,1-.29-.71A.65.65,0,0,1,64.49,32.89Zm2.29,13.43a.36.36,0,0,1,0-.72A.36.36,0,0,1,66.78,46.32Zm-1.67,28.8c0,.06,0,.11,0,.16a1.15,1.15,0,0,1-.09.44h0a2.29,2.29,0,0,0-.09.28V76a.86.86,0,0,1-.2.56.49.49,0,0,1-.16.16.47.47,0,0,1-.2.12A.73.73,0,0,1,64,77l-.24,0a1.2,1.2,0,0,1-.41-.24,2.11,2.11,0,0,1-.31-.36,2,2,0,0,1-.12-.19,1.71,1.71,0,0,1-.15-.47s0-.24-.05-.35a.55.55,0,0,1,0-.18.88.88,0,0,1,.14-.44l0-.11a1.16,1.16,0,0,1,.53-.52,2.14,2.14,0,0,1,.42-.16,1,1,0,0,1,.77.06l.17.14a.66.66,0,0,1,.17.29l-.06-.16v0h0a.73.73,0,0,1,.11.43s0,0,0,0v0a1.43,1.43,0,0,1,0,.65ZM58.78,22.33a.05.05,0,0,1,0,.1A.05.05,0,1,1,58.78,22.33Zm-1.06-.62a1,1,0,0,1-.24,0h0a.89.89,0,0,1-.39-.12l-.19-.1.16.07-.27-.11a1.12,1.12,0,0,0-.63-.11h-.07l-.17.05a.5.5,0,0,1-.39-.91,2.09,2.09,0,0,1,1.35-.36,2.13,2.13,0,0,1,.44.07,1.56,1.56,0,0,1,.41.2,1.88,1.88,0,0,1,.23.16.9.9,0,0,1,.19.36.76.76,0,0,1,.08.36A.48.48,0,0,1,57.72,21.71Zm.94,28-.2-.16a.83.83,0,0,1-.22-.33,1,1,0,0,1,0-.78.83.83,0,0,1,.22-.33l.32-.4,0,0a.29.29,0,0,1,.12-.1l.11-.09,0,0,.09-.06.09-.06.14-.06a.59.59,0,0,1,.26-.07l.13,0h.13l.23,0s.18.07.11,0a.37.37,0,0,1,.19.11l.09.06a.62.62,0,0,1,.17.28l0,.1a1,1,0,0,1,0,.24v.06a.7.7,0,0,1,0,.2.59.59,0,0,1-.07.26l-.06.13v0l0,0-.06.09,0,.05v0a2,2,0,0,1-.18.23l-.08.07-.36.28a1.07,1.07,0,0,1-.45.26l-.27,0A1,1,0,0,1,58.66,49.72Zm11.9,27a6.57,6.57,0,0,1-3.16,2.33c-2.31.9-5.93,1.17-7.42-1.28a3.81,3.81,0,0,1,.13-4.22c1-1.28,3.17-1.45,3.28-3.38a15.72,15.72,0,0,0-.52-3.4c-.2-1.18-.32-2.37-.43-3.56a35.35,35.35,0,0,1-.31-4.1,15.84,15.84,0,0,0-.07-4.24.32.32,0,0,1,.61-.16A11,11,0,0,1,63,58.38a27.66,27.66,0,0,0,.32,4.06c.17,1.43.33,2.88.6,4.29a19.61,19.61,0,0,1,.53,3.14,3.72,3.72,0,0,1-2.05,3.37c-.6.4-1.3.76-1.57,1.47A3,3,0,0,0,61,76.86c1.18,2.41,5.2,1.43,7,.4,1.2-.69,2.59-2.18,1.73-3.62-.46-.77-1.18-1.38-1.7-2.12A6.4,6.4,0,0,1,67,69c-.4-2.22-.49-4.54-.79-6.79s-.83-4.63-.27-6.74c.18-.69,1.1-.47,1.17.16.15,1.5.05,3,.2,4.53s.36,2.84.53,4.25.2,2.85.45,4.24A7,7,0,0,0,70.14,72C71.39,73.53,71.68,75,70.56,76.72Zm3.8,2.54a.75.75,0,0,1,0-1.5A.75.75,0,0,1,74.36,79.26Zm4.69-7.14a1.19,1.19,0,0,1,0-2.38A1.19,1.19,0,0,1,79.05,72.12ZM89.53,61.48c-.23,2.3-2.25,5.11-4.77,5.1s-3.22-3-4.14-4.79a5.19,5.19,0,0,0-1-1.42,11.85,11.85,0,0,0-2.17-1.44c-1.69-1-3.43-1.91-5.17-2.81a.35.35,0,0,1,.26-.63A36.36,36.36,0,0,1,78,57.75a8.79,8.79,0,0,1,3.41,2.64,20.39,20.39,0,0,1,1.38,2.91c.34.74.8,1.91,1.7,2.08,2.16.39,4.38-3.08,3.74-5a2.32,2.32,0,0,0-1.34-1.22l.09.08.12.15.1.13.1.24,0,.27v.12a2,2,0,0,1,0,.35s0,.05,0,.08a1.14,1.14,0,0,1-.06.25,2.52,2.52,0,0,1-.12.29c0,.08-.12.16-.18.24a.61.61,0,0,1-.24.15.55.55,0,0,1-.28.06.79.79,0,0,1-.37-.1.69.69,0,0,1-.3-.35.55.55,0,0,1-.07-.28v-.05s0,0,0,0l-.16-.21,0,0-.06-.06a1.14,1.14,0,0,1-.29-.54.7.7,0,0,1,0-.35.43.43,0,0,1,.06-.22.75.75,0,0,1,.18-.28l.18-.14a1.57,1.57,0,0,1,.3-.12l.14,0h0l-.24-.08c-1-.37-2.15-.64-3.17-1.1A37,37,0,0,1,78.16,55c-.78-.49-1.57-1-2.36-1.44A4.76,4.76,0,0,1,74,52.14a.49.49,0,0,1,.41-.73c1.09.07,2,1,2.88,1.53s1.88,1.26,2.84,1.87a18.12,18.12,0,0,0,4.68,2.38C87,57.83,89.82,58.61,89.53,61.48Zm1.52-9.25a1.58,1.58,0,0,1,0-3.16A1.58,1.58,0,0,1,91.05,52.23Z"/><path class="cls-3" d="M36.52,30.05a.9.9,0,0,0-.28-.2,1,1,0,0,0-.33-.13,2,2,0,0,0-.92,0,2,2,0,0,0-.57.28c-.11.09-.23.17-.33.27s-.18.22-.27.33l-.09.23a.7.7,0,0,0,0,.38.53.53,0,0,0,.06.24.79.79,0,0,0,.2.31,1.1,1.1,0,0,0,.42.24,1,1,0,0,0,.68-.08L35,32l.21-.06h0a1.86,1.86,0,0,0,.33,0h0l.27,0,.2,0a.91.91,0,0,0,.38-.19l.15-.13a.93.93,0,0,0,.24-.91A1.17,1.17,0,0,0,36.52,30.05Z"/><path class="cls-3" d="M58.12,20.88a.9.9,0,0,0-.19-.36,1.88,1.88,0,0,0-.23-.16,1.56,1.56,0,0,0-.41-.2,2.13,2.13,0,0,0-.44-.07,2.09,2.09,0,0,0-1.35.36.5.5,0,0,0,.39.91l.17-.05h.07a1.12,1.12,0,0,1,.63.11l.27.11-.16-.07.19.1a.89.89,0,0,0,.39.12h0a1,1,0,0,0,.24,0,.48.48,0,0,0,.48-.47A.76.76,0,0,0,58.12,20.88Z"/><path class="cls-3" d="M58.78,22.33a.05.05,0,1,0,0,.1A.05.05,0,0,0,58.78,22.33Z"/><path class="cls-3" d="M84.72,26.6l.09.07.16.13h0l.16.07h0l.2.05a.47.47,0,0,0,.17,0l.16,0a.57.57,0,0,0,.26-.15h0l.08-.1h0a.59.59,0,0,0,.06-.14.88.88,0,0,0,0-.16V26.3a.23.23,0,0,0,0-.14.37.37,0,0,0,0-.11l0-.1,0-.1a.83.83,0,0,0-.11-.15h0l0-.05-.4-.33a.54.54,0,0,0-.22-.15.66.66,0,0,0-.27-.06.67.67,0,0,0-.28.06.54.54,0,0,0-.22.15.69.69,0,0,0,0,1Z"/><path class="cls-3" d="M49.39,37.51a1.31,1.31,0,0,0-.76,0,2.39,2.39,0,0,0-.74.51L46.66,39.1a20.7,20.7,0,0,0-2.16,2.33,18,18,0,0,0-1.8,2.63,6.66,6.66,0,0,0-.75,3,.2.2,0,0,0,.38.1c.53-.83,1.13-1.61,1.66-2.43a16.12,16.12,0,0,1,1.83-2.29c.67-.72,1.4-1.39,2.1-2.08.38-.36.75-.71,1.14-1.06A1.55,1.55,0,0,0,49.72,38,.46.46,0,0,0,49.39,37.51Z"/><path class="cls-3" d="M53.49,36.3l0-.21a.66.66,0,0,0-.07-.3.42.42,0,0,0-.1-.17.54.54,0,0,0-.22-.2l-.19-.08-.21,0h-.2a.73.73,0,0,0-.36.07l-.12,0a1,1,0,0,0-.41.24l-.15.19a.9.9,0,0,0-.13.47.8.8,0,0,0,.08.37.72.72,0,0,0,.2.3.67.67,0,0,0,.3.19.64.64,0,0,0,.36.08.85.85,0,0,0,.47-.13l.12-.06,0,0a.74.74,0,0,0,.21-.15.39.39,0,0,0,.08-.1l.08-.1A1.41,1.41,0,0,0,53.49,36.3Z"/><path class="cls-3" d="M65.4,34.27h1l.26,0,.23-.1a.68.68,0,0,0,.21-.17,1,1,0,0,0,.27-.67l0-.25a1,1,0,0,0-.24-.42.48.48,0,0,0-.11-.09.43.43,0,0,0-.22-.12.78.78,0,0,0-.37-.09H66l-.55,0a1.06,1.06,0,0,0-.71.3.67.67,0,0,0-.2.32.65.65,0,0,0-.09.38,1,1,0,0,0,.29.71A1,1,0,0,0,65.4,34.27Z"/><path class="cls-3" d="M102.89,46.91a.84.84,0,0,0,.31.28l.26.11a1.14,1.14,0,0,0,.58,0l.26-.11a1,1,0,0,0,.33-.33h0l.23-.23h0l.22-.17,0,0,.17-.18a.81.81,0,0,0,.21-.33.91.91,0,0,0,.84.52,1,1,0,0,0,0-2,.92.92,0,0,0-.93.72.88.88,0,0,0-.12-.21,1.06,1.06,0,0,0-.41-.24,4.36,4.36,0,0,0-.52-.05,1.43,1.43,0,0,0-.57.16l-.07,0a.57.57,0,0,0-.13.08,4.08,4.08,0,0,0-.33.25.52.52,0,0,0-.11.1,3,3,0,0,0-.36.44.76.76,0,0,0-.13.41.79.79,0,0,0,0,.43A.85.85,0,0,0,102.89,46.91Z"/><path class="cls-3" d="M85.93,58.82l-.14,0a1.57,1.57,0,0,0-.3.12l-.18.14a.75.75,0,0,0-.18.28.43.43,0,0,0-.06.22.7.7,0,0,0,0,.35,1.14,1.14,0,0,0,.29.54l.06.06,0,0,.16.21s0,0,0,0v.05a.55.55,0,0,0,.07.28.69.69,0,0,0,.3.35.79.79,0,0,0,.37.1.55.55,0,0,0,.28-.06.61.61,0,0,0,.24-.15c.06-.08.13-.16.18-.24a2.52,2.52,0,0,0,.12-.29,1.14,1.14,0,0,0,.06-.25s0,0,0-.08a2,2,0,0,0,0-.35v-.12l0-.27-.1-.24-.1-.13L87,59.28l-.09-.08a10.15,10.15,0,0,0-1-.38Z"/><path class="cls-3" d="M74.23,54.5a.68.68,0,0,0,0-1.35A.68.68,0,0,0,74.23,54.5Z"/><path class="cls-3" d="M86.64,52.34a1.55,1.55,0,0,0,0-3.1A1.55,1.55,0,0,0,86.64,52.34Z"/><path class="cls-3" d="M91.05,49.07a1.58,1.58,0,0,0,0,3.16A1.58,1.58,0,0,0,91.05,49.07Z"/><path class="cls-3" d="M79.05,69.74a1.19,1.19,0,0,0,0,2.38A1.19,1.19,0,0,0,79.05,69.74Z"/><path class="cls-3" d="M74.36,77.76a.75.75,0,0,0,0,1.5A.75.75,0,0,0,74.36,77.76Z"/><path class="cls-3" d="M65.08,74.78v0s0,0,0,0a.73.73,0,0,0-.11-.43h0v0l.06.16a.66.66,0,0,0-.17-.29L64.66,74a1,1,0,0,0-.77-.06,2.14,2.14,0,0,0-.42.16,1.16,1.16,0,0,0-.53.52l0,.11a.88.88,0,0,0-.14.44.55.55,0,0,0,0,.18c0,.11,0,.3.05.35a1.71,1.71,0,0,0,.15.47,2,2,0,0,0,.12.19,2.11,2.11,0,0,0,.31.36,1.2,1.2,0,0,0,.41.24L64,77a.73.73,0,0,0,.36-.08.47.47,0,0,0,.2-.12.49.49,0,0,0,.16-.16.86.86,0,0,0,.2-.56V76a2.29,2.29,0,0,1,.09-.28h0a1.15,1.15,0,0,0,.09-.44s0-.1,0-.16l0,.31A1.43,1.43,0,0,0,65.08,74.78Z"/><path class="cls-3" d="M28.76,48.55a2.16,2.16,0,0,0-1.68.26,1.59,1.59,0,0,0-.67.69,2.46,2.46,0,0,0-.22.61,2.26,2.26,0,0,0,0,1.18.87.87,0,0,0,.69.59.84.84,0,0,0,.83-.4l0,0,.06-.06,0,0,.07,0a1.92,1.92,0,0,0,.33-.14.88.88,0,0,1,.23-.07l-.15,0h0a1.54,1.54,0,0,0,.31,0l.14,0a1.16,1.16,0,0,0,.53-.16l.14-.08A1,1,0,0,0,30,50a1.51,1.51,0,0,0-.4-1A2.08,2.08,0,0,0,28.76,48.55Z"/><path class="cls-3" d="M33.08,51.31h0l0-.07L33,51a.58.58,0,0,0-.23-.26.45.45,0,0,0-.21-.12.62.62,0,0,0-.35-.08l-.25,0-.22.09a.85.85,0,0,0-.26.24.74.74,0,0,0-.16.32l0,.06c0,.05,0,.06,0,.14a.66.66,0,0,0,0,.39l.1.22a.7.7,0,0,0,.24.27.45.45,0,0,0,.21.12l.12.05h0a.62.62,0,0,0,.25,0l.24,0h0l.23-.09a.69.69,0,0,0,.26-.25.57.57,0,0,0,.13-.21.61.61,0,0,1,0-.12l0-.25,0-.25Z"/><path class="cls-3" d="M23.2,69.22a.77.77,0,0,0-.69-.14,1,1,0,0,0-.25.06,1.37,1.37,0,0,0-.73.63,1.78,1.78,0,0,0-.17.27,2,2,0,0,0-.19.77,2.85,2.85,0,0,0,.31,1.59.73.73,0,0,0,.82.34.76.76,0,0,0,.54-.71s0-.09,0-.14a2.38,2.38,0,0,1,.15-.52,2,2,0,0,1,.1-.21c0-.1.08-.2.12-.29a2.87,2.87,0,0,0,.23-.51,3.19,3.19,0,0,0,.06-.52A.74.74,0,0,0,23.2,69.22Z"/><path class="cls-3" d="M25,68.37a.77.77,0,0,0,0,1.53A.77.77,0,0,0,25,68.37Z"/><path class="cls-3" d="M47.18,55.35a1,1,0,0,0-.25-.44,1,1,0,0,0-.43-.25,1,1,0,0,0-.53,0,1,1,0,0,0-.43.25,1,1,0,0,0-.25.44.92.92,0,0,0,0,.52,1,1,0,0,0,.25.44,1,1,0,0,0,.43.25l.17,0a.76.76,0,0,0,.47,0,.81.81,0,0,0,.38-.22.86.86,0,0,0,.23-.39.9.9,0,0,0,0-.46Z"/><path class="cls-3" d="M44.43,67.59c0-.1-.11-.19-.17-.29L44.11,67,44,66.84l0,0c-.17-.45-.31-.92-.45-1.38s-.23-1.1-.4-1.63-.33-1.06-.48-1.59a.61.61,0,0,0-1.2.16c0,.49-.1,1-.13,1.48a6.51,6.51,0,0,0,.15,1.64,7.16,7.16,0,0,0,1.13,2.77c.33.46.88,1.1,1.52,1a.66.66,0,0,0,.52-.33,1,1,0,0,0-.08-1A2.92,2.92,0,0,0,44.43,67.59Z"/><path class="cls-3" d="M54.11,77.17,54,77l0,0-.1-.08-.18-.16a1,1,0,0,0-.94-.25l-.23.09a1.06,1.06,0,0,0-.35.35.77.77,0,0,0-.12.36.86.86,0,0,0,0,.39,1,1,0,0,0,.25.43,1,1,0,0,0,.43.25l.22.08.11,0h0l.24,0a.69.69,0,0,0,.35-.07.39.39,0,0,0,.19-.12A.41.41,0,0,0,54,78.2l-.12.09a.49.49,0,0,0,.22-.23.75.75,0,0,0,.1-.31.49.49,0,0,0,0-.24.5.5,0,0,0,0-.12Z"/><path class="cls-3" d="M42.65,85.36a.95.95,0,0,0-.47-.82.92.92,0,0,0-.49-.13.91.91,0,0,0-.48.13l-.11,0a1.38,1.38,0,0,0-.45.45,1.75,1.75,0,0,0-.23.5,5,5,0,0,0-.08.54c0,.1,0,.2,0,.3a.86.86,0,0,0,.1.41.81.81,0,0,0,.21.34l.22.16a.79.79,0,0,0,.4.13.66.66,0,0,0,.28,0,.79.79,0,0,0,.39-.13l.22-.16a1.11,1.11,0,0,0,.27-.47,2.46,2.46,0,0,1,.16-.59v0a.53.53,0,0,0,0-.12l0-.11a2.08,2.08,0,0,0,.05-.36.77.77,0,0,0,0-.15Z"/><path class="cls-3" d="M68.77,93.72a1,1,0,0,0-.11-.29.74.74,0,0,0-.37-.28.69.69,0,0,0-.47.06,1,1,0,0,0-.25.21,1.93,1.93,0,0,0-.22.28,1.76,1.76,0,0,0-.14.79,5.33,5.33,0,0,0,.1,1.05.74.74,0,0,0,.34.45.8.8,0,0,0,.48.09.75.75,0,0,0,.65-.74,4.83,4.83,0,0,1,0-.85,1.26,1.26,0,0,0,0-.61Z"/><path class="cls-3" d="M59.89,49.56l.36-.28.08-.07a2,2,0,0,0,.18-.23v0l0-.05.06-.09,0,0v0l.06-.13a.59.59,0,0,0,.07-.26.7.7,0,0,0,0-.2v-.06a1,1,0,0,0,0-.24l0-.1a.62.62,0,0,0-.17-.28l-.09-.06a.37.37,0,0,0-.19-.11c.07,0-.08,0-.11,0l-.23,0h-.13l-.13,0a.59.59,0,0,0-.26.07l-.14.06-.09.06-.09.06,0,0-.11.09a.29.29,0,0,0-.12.1l0,0-.32.4a.83.83,0,0,0-.22.33,1,1,0,0,0,0,.78.83.83,0,0,0,.22.33l.2.16a1,1,0,0,0,.51.14l.27,0A1.07,1.07,0,0,0,59.89,49.56Z"/><path class="cls-3" d="M66.78,45.6a.36.36,0,0,0,0,.72A.36.36,0,0,0,66.78,45.6Z"/><path class="cls-3" d="M108.77,69.47a1.94,1.94,0,0,0-.13-.3.64.64,0,0,0-.19-.25l-.24-.19-.29-.12h0l0,0-.11,0-.39,0a1.58,1.58,0,0,0-.38,0l-.19,0a2.78,2.78,0,0,0-.4.16,1.61,1.61,0,0,0-.34.24,2.05,2.05,0,0,0-.36.42.79.79,0,0,0,.68,1.18h0a2,2,0,0,1,.33.09l.13,0,.1.06a1.88,1.88,0,0,0,.3.12.87.87,0,0,0,.48,0l.22,0h0l.07,0h0l.21-.09-.19.08a.78.78,0,0,0,.35-.18.86.86,0,0,0,.29-.31,1.25,1.25,0,0,0,.11-.85A.64.64,0,0,1,108.77,69.47Z"/><path class="cls-3" d="M93.17,89.34a4.09,4.09,0,0,1,.67.4l.16.13a4,4,0,0,0,.41.31l.15.12.32.12a.76.76,0,0,0,.72-.19.68.68,0,0,0,.18-.32.65.65,0,0,0,0-.39.43.43,0,0,0,0-.11,1.11,1.11,0,0,0-.23-.41l-.17-.19a2.14,2.14,0,0,0-.54-.41A4.55,4.55,0,0,0,93.75,88a.76.76,0,0,0-.89.44.69.69,0,0,0,0,.49A.74.74,0,0,0,93.17,89.34Z"/><path class="cls-5" d="M84.76,57.19a18.12,18.12,0,0,1-4.68-2.38c-1-.61-1.9-1.23-2.84-1.87s-1.79-1.46-2.88-1.53a.49.49,0,0,0-.41.73A4.76,4.76,0,0,0,75.8,53.6c.79.47,1.58.95,2.36,1.44a37,37,0,0,0,4.37,2.6c1,.46,2.12.73,3.17,1.1l.24.08a.7.7,0,0,1,.38,0l.24.1.06,0a2.09,2.09,0,0,1,.29.23h0a2.32,2.32,0,0,1,1.34,1.22c.64,1.88-1.58,5.35-3.74,5-.9-.17-1.36-1.34-1.7-2.08a20.39,20.39,0,0,0-1.38-2.91A8.79,8.79,0,0,0,78,57.75a36.36,36.36,0,0,0-5.43-2.26.35.35,0,0,0-.26.63c1.74.9,3.48,1.83,5.17,2.81a11.85,11.85,0,0,1,2.17,1.44,5.19,5.19,0,0,1,1,1.42c.92,1.74,1.69,4.78,4.14,4.79s4.54-2.8,4.77-5.1C89.82,58.61,87,57.83,84.76,57.19Z"/><path class="cls-5" d="M86.62,59l-.06,0-.24-.1a.7.7,0,0,0-.38,0,10.15,10.15,0,0,1,1,.38h0A2.09,2.09,0,0,0,86.62,59Z"/><path class="cls-5" d="M68.28,68.64c-.25-1.39-.27-2.83-.45-4.24s-.38-2.83-.53-4.25,0-3-.2-4.53c-.07-.63-1-.85-1.17-.16-.56,2.11,0,4.62.27,6.74s.39,4.57.79,6.79a6.4,6.4,0,0,0,1,2.53c.52.74,1.24,1.35,1.7,2.12.86,1.44-.53,2.93-1.73,3.62-1.77,1-5.79,2-7-.4a3,3,0,0,1-.13-2.15c.27-.71,1-1.07,1.57-1.47a3.72,3.72,0,0,0,2.05-3.37A19.61,19.61,0,0,0,64,66.73c-.27-1.41-.43-2.86-.6-4.29A27.66,27.66,0,0,1,63,58.38a11,11,0,0,0-.36-3.67.32.32,0,0,0-.61.16,15.84,15.84,0,0,1,.07,4.24,35.35,35.35,0,0,0,.31,4.1c.11,1.19.23,2.38.43,3.56a15.72,15.72,0,0,1,.52,3.4c-.11,1.93-2.25,2.1-3.28,3.38A3.81,3.81,0,0,0,60,77.77c1.49,2.45,5.11,2.18,7.42,1.28a6.57,6.57,0,0,0,3.16-2.33c1.12-1.7.83-3.19-.42-4.68A7,7,0,0,1,68.28,68.64Z"/><path class="cls-5" d="M110.73,67.36c-1.08-1.19-2.55-1.23-4-1.21-4.24,0-7.74-2.36-11.27-4.38.14-.59.29-1.18.41-1.77a22.77,22.77,0,0,0,.32-8.19A37.64,37.64,0,0,0,99.92,51a10.4,10.4,0,0,1,4.23-.11c2.29.45,4.92.95,6.4-1.36,1.27-2,.4-4.58-1.22-6.07a5.23,5.23,0,0,0-3.25-1.41,6.2,6.2,0,0,0-3.57,1.24,26.84,26.84,0,0,1-4.19,2.48c-1.3.53-2.67.81-4,1.23-2.6-4.41-7.15-7.94-11.52-10.34a8.27,8.27,0,0,1,2.73-3.33c2.19-1.34,5-1.93,4.82-5.11a7.13,7.13,0,0,0-4.9-6A3.21,3.21,0,0,0,82,23.31c-1.32,1.65-.25,3.14-.17,5a4.33,4.33,0,0,1-1.39,3c-.75.85-1.47,1.7-2.18,2.57A34.25,34.25,0,0,0,60.71,30l-.3,0a5,5,0,0,1-.06-1.84c.29-1.58,1.34-2.88,1.86-4.37a4.07,4.07,0,0,0-.85-4.27c-2.11-2.35-6-2-8.33-.2a5.08,5.08,0,0,0-2.17,3.92c0,1.74,1.34,2.79,2.58,3.79a6.56,6.56,0,0,1,2.18,2.69,9.61,9.61,0,0,1,.32,1.08,26.93,26.93,0,0,0-11.56,6.44l-.12.13a32.26,32.26,0,0,1-2.44-2.38A5.14,5.14,0,0,1,40.3,32c-.32-2.12-1.4-4.15-3.73-4.38A4.88,4.88,0,0,0,31.32,31a5.19,5.19,0,0,0,3,5.59c1.26.66,2.68.84,4,1.45a9,9,0,0,1,3.19,2.6,26.75,26.75,0,0,0-4.68,10.59A7.33,7.33,0,0,1,35.28,51c-1.94-.53-2.72-2.57-4.28-3.66a4.34,4.34,0,0,0-4-.59,5.63,5.63,0,0,0-3.18,6.1c.66,3.79,4.58,4,7.71,3.9a15,15,0,0,1,3.79.06,8.64,8.64,0,0,1,.83.24,29.44,29.44,0,0,0,1.15,8.15,9.76,9.76,0,0,1-4.11,1.16,38.47,38.47,0,0,1-6.13.85c-2.44,0-5.76-.89-7.58,1.28s-1,5.48.68,7.36a4.15,4.15,0,0,0,3.54,1.49c1.61-.19,2.72-1.4,3.66-2.6,1.46-1.87,3.7-2.57,5.87-3.31a19,19,0,0,1,3.14-.8,7.17,7.17,0,0,0,2.64-.8l0,0a24.65,24.65,0,0,0,6.52,8.78A7.34,7.34,0,0,1,44.05,80c-2,1.41-5.57,2.87-5.43,5.83.17,3.48,4.1,4.77,7,3.87,1.3-.4,3-1.12,3.05-2.7.06-1.36-.94-2.49-1.3-3.74a3.75,3.75,0,0,1,.62-3,31.85,31.85,0,0,0,8.32,3A40.87,40.87,0,0,0,66.4,84.53h.07c.15,1.19.71,2.32.49,3.56a10.27,10.27,0,0,1-1.77,3.18c-1.26,2-1.92,5-.09,6.94,1.5,1.55,4,1.27,5.68.29a5.14,5.14,0,0,0,2.33-2.62,5.2,5.2,0,0,0-.19-3.52c-.24-.68-.59-1.29-.89-1.94a10.46,10.46,0,0,1-.74-2.3,18.55,18.55,0,0,1-.36-2.45,14.29,14.29,0,0,0-.12-1.48,31.09,31.09,0,0,0,9.73-3,.42.42,0,0,0,.13.23c1.4,1.18,2.91,2.19,4.34,3.32a12.42,12.42,0,0,1,3.4,3.53c1.26,2.3,1.47,5.28,4.31,6.26s5.83-1.28,6.3-4.21C99.54,87,97,85.34,94.23,84.4a17,17,0,0,1-5-2.35,19.94,19.94,0,0,1-3.92-3.92,27,27,0,0,0,7.12-8.39c.44-.81.83-1.65,1.2-2.5.42.25.87.45,1.3.66a25.92,25.92,0,0,1,2.57,1.44,12,12,0,0,1,4,3.46c.78,1.27,1.39,2.78,2.78,3.51a5.44,5.44,0,0,0,7.81-5.56A5.72,5.72,0,0,0,110.73,67.36ZM100.4,46c2-1,4.26-3.41,6.64-2.29,1.64.78,3,3,2.28,4.79-1,2.31-3.83,1.19-5.65.92a11.46,11.46,0,0,0-3.87.19c-1.32.25-2.65.54-4,.81a10.89,10.89,0,0,0-.44-1.25,14.44,14.44,0,0,0-.65-1.38A16.8,16.8,0,0,0,100.4,46ZM37,36.46a11.13,11.13,0,0,1-3-1.27,4.12,4.12,0,0,1-1.73-2.68c-.34-2.39,1.94-4.07,4.17-3.85a2.68,2.68,0,0,1,2.2,1.6,16,16,0,0,1,.74,3.05,6.51,6.51,0,0,0,1.93,2.89,20.52,20.52,0,0,0,2.09,2.08c-.47.5-.92,1-1.34,1.54A11.27,11.27,0,0,0,37,36.46Zm1.31,32.25c-1.3.8-3.12.73-4.57,1.17a28.83,28.83,0,0,0-5.14,2,12.6,12.6,0,0,0-3.14,3c-1.11,1.19-2.65,1.69-4,.57-1.68-1.4-2.74-5.21-.49-6.6a6.77,6.77,0,0,1,3.65-.53,22.25,22.25,0,0,0,3.74-.06c2-.29,3.92-1,5.92-1.3a9.73,9.73,0,0,0,3.22-.9c.13.38.25.76.39,1.13s.38,1,.58,1.49A.44.44,0,0,0,38.34,68.71ZM72,93.64a3.13,3.13,0,0,1-1,3.16c-1.21,1.09-3.45,1.81-4.83.61-1.84-1.61-.59-4.63.41-6.36a7.63,7.63,0,0,0,1.3-3c.12-1.24-.5-2.33-.63-3.52.81,0,1.61-.08,2.41-.16A10.54,10.54,0,0,0,69.77,87a14.08,14.08,0,0,0,.89,3.56A23.46,23.46,0,0,1,72,93.64ZM86.61,81.79a17.24,17.24,0,0,0,4.18,3.08c2,.94,5.35,1.18,6.41,3.36,1.24,2.56-1.43,6-4.23,5-2.29-.89-2.38-4.2-3.4-6.09-1.7-3.12-5.32-4.62-8.24-6.35A29.84,29.84,0,0,0,84.13,79,10.88,10.88,0,0,0,86.61,81.79Zm5.73-16C88.76,75.3,79.82,81.55,69.89,82.75a39.59,39.59,0,0,1-17.42-2.19A18.29,18.29,0,0,1,49,78.94c.3-.39.61-.75.87-1.08,1.36-1.69,2.82-3.39,3.41-5.53A.61.61,0,0,0,52.05,72c-.95,3.48-4.3,5.66-5.59,9a4.22,4.22,0,0,0,.29,3.6C47.28,85.73,48.24,87,47,88A5.2,5.2,0,0,1,42,89a3.71,3.71,0,0,1-2.23-3.74c.29-1.29,1.64-2.18,2.68-2.84a25.85,25.85,0,0,0,3.26-2.2,12.31,12.31,0,0,0,2.82-4.47,12.55,12.55,0,0,0,1.18-5.81.41.41,0,0,0-.82,0A15.87,15.87,0,0,1,47.14,76c-.21.41-.42.81-.64,1.2a23.85,23.85,0,0,1-5.67-7.28,27.29,27.29,0,0,1-3.24-12.28c.56.24,1.11.47,1.67.66,2.84.93,5.78,1.53,8.64,2.39.89.28,1.27-1.12.38-1.4-2.23-.69-4.51-1.22-6.75-1.87-2.05-.59-4.07-1.72-6.17-2a25,25,0,0,0-5.46.24c-1.71.13-3.74-.16-4.65-1.81-1.15-2.09.12-5.41,2.48-6,1.73-.43,3.07.72,4.11,2a6.08,6.08,0,0,0,3.69,2.5,21.91,21.91,0,0,0,3.13.18,28.6,28.6,0,0,1,4,.48,41.84,41.84,0,0,0,7.47,1c.33,0,.43-.54.08-.59-2.57-.44-5.11-1.09-7.68-1.56a25.9,25.9,0,0,0-3.51-.44h-.84a26.22,26.22,0,0,1,4.56-10,25,25,0,0,1,13.41-9c.08.51.15,1,.22,1.54.24,1.65.41,3.31.52,5a11.91,11.91,0,0,0,.52,4c.08.17.29.08.35,0a6.94,6.94,0,0,0,.3-3.08c-.07-1.29-.18-2.58-.33-3.86a26.93,26.93,0,0,0-1.13-6.18A8.54,8.54,0,0,0,53.71,26c-1.45-1.22-2.36-2.66-1.19-4.48,1.55-2.41,5.94-3.44,8-1.05s-1.27,5.35-1.56,7.94c-.26,2.27.85,4.67,1.67,6.72S62.31,39,63,41.05a.46.46,0,0,0,.89,0c.45-1.92-1-4-1.68-5.69-.46-1.15-.91-2.32-1.27-3.51,0-.16-.09-.32-.14-.48,5.81-.48,11.5,1,16.84,3.29-1.6,2-3.18,4-4.6,6.07-.25.37.32.82.62.48,2.79-3.16,5.36-6.52,8.06-9.76a4.75,4.75,0,0,0,1.26-3.88A8,8,0,0,1,82.56,25a2,2,0,0,1,1.51-1.49c1.2-.19,2.34.84,3.07,1.65a5.08,5.08,0,0,1,1.56,3.32c0,2.37-3,2.89-4.52,4.08A12.66,12.66,0,0,0,81,37.21c-1,2-1.8,4.17-2.94,6.15a.51.51,0,0,0,.88.51c1.11-1.83,2-3.76,3-5.64,4.29,2.4,8.51,5.85,11,10.12C96,53.58,94.34,60.52,92.34,65.83ZM108.07,75a3.53,3.53,0,0,1-3.49-.51c-1-1-1.45-2.55-2.44-3.62a16.61,16.61,0,0,0-4.12-3,13,13,0,0,0-4-1.71c.37-.94.69-1.9,1-2.87a27.14,27.14,0,0,0,3.82,2.16,26.53,26.53,0,0,0,4.4,1.75,15.27,15.27,0,0,0,4.31.44,2.77,2.77,0,0,1,2.85,2C111.09,71.57,110.14,74.26,108.07,75Z"/></g></g></svg>