<svg xmlns="http://www.w3.org/2000/svg" viewBox="0 0 293 123"><defs><style>.cls-1{fill:#3da0d1;}.cls-2{fill:#2591c1;}.cls-3{fill:#fff;}.cls-4{fill:#9df;}.cls-5{fill:#e65c7e;}.cls-6{fill:#45b0e6;}.cls-7{fill:#ccc;}</style></defs><title>Asset 35</title><g id="Layer_2" data-name="Layer 2"><g id="Layer_1-2" data-name="Layer 1"><path class="cls-1" d="M169.6,77.3c0,.57.48.87,1.07.87,1,0,1.89-.41,1.89-1.65V76l-1.78.35C170,76.51,169.6,76.71,169.6,77.3Z"/><path class="cls-1" d="M161.53,74.94h-2.6v2.94h2.6c1.26,0,1.87-.54,1.87-1.48S162.79,74.94,161.53,74.94Z"/><path class="cls-1" d="M166.1,93.17c-1.26,0-2,.91-2,2.63s.73,2.64,2,2.64,2-1,2-2.71S167.29,93.17,166.1,93.17Z"/><path class="cls-1" d="M190.24,93.1a1.92,1.92,0,0,0-2,1.82h3.81A1.76,1.76,0,0,0,190.24,93.1Z"/><path class="cls-1" d="M144,97.71c0,.56.47.86,1.07.86,1,0,1.89-.41,1.89-1.65V96.4l-1.79.35C144.41,96.91,144,97.11,144,97.71Z"/><path class="cls-1" d="M234.27,72.7a1.92,1.92,0,0,0-2,1.82h3.81A1.76,1.76,0,0,0,234.27,72.7Z"/><path class="cls-1" d="M263.87,72.7a1.92,1.92,0,0,0-2,1.82h3.81A1.76,1.76,0,0,0,263.87,72.7Z"/><path class="cls-1" d="M230.31,93.12c-1.28,0-2,.88-2,2.68s.74,2.69,2,2.69,2-.89,2-2.69S231.57,93.12,230.31,93.12Z"/><path class="cls-1" d="M163.11,71.7c0-1-.61-1.45-1.85-1.45h-2.33v2.89h2.33C162.5,73.14,163.11,72.66,163.11,71.7Z"/><path class="cls-1" d="M256.68,100.32H253.8c-.54,0-.93.31-.93.77,0,.63.9,1,2.39,1,1.76,0,2.59-.48,2.59-1.07S257.56,100.32,256.68,100.32Z"/><path class="cls-1" d="M255.28,95.68a1.43,1.43,0,1,0-1.56-1.43A1.41,1.41,0,0,0,255.28,95.68Z"/><path class="cls-1" d="M281.81,0H120.56a100.47,100.47,0,0,1,5.83,9.53c7.16,13.25,10.32,29,11.75,43.95s-1,30.54-8.11,43.8c-4.18,7.75-9.86,14.6-15.92,21a66.21,66.21,0,0,1-5,4.74H281.81A11.19,11.19,0,0,0,293,111.81V11.19A11.19,11.19,0,0,0,281.81,0ZM263.88,71a3.76,3.76,0,0,1,4.05,4,9.52,9.52,0,0,1-.07,1.19h-6a2,2,0,0,0,2.13,2A1.93,1.93,0,0,0,265.91,77l1.85.71A3.84,3.84,0,0,1,264,79.82a4.42,4.42,0,0,1-.12-8.84Zm-23.69.17h2.09l.08,1.6A3,3,0,0,1,245.25,71a2.84,2.84,0,0,1,3.06,3.1v5.57H246V74.74c0-1.45-.64-1.92-1.53-1.92s-1.93.63-1.93,2.33v4.5h-2.33Zm-5.9-.17a3.76,3.76,0,0,1,4,4,9.52,9.52,0,0,1-.07,1.19h-6a2,2,0,0,0,2.13,2A1.93,1.93,0,0,0,236.31,77l1.85.71a3.82,3.82,0,0,1-3.75,2.11,4.42,4.42,0,0,1-.12-8.84Zm-46.85-3.55q1.44,0,1.44,1.26c0,.83-.48,1.24-1.44,1.24S186,69.52,186,68.69,186.47,67.43,187.44,67.43Zm1.15,3.72v8.5h-2.33v-8.5Zm-7.34,5.36-1.5-.31c-2-.41-2.72-1.22-2.72-2.53S178.29,71,180.77,71a4.3,4.3,0,0,1,3.71,1.58l-1.4,1.36a2.68,2.68,0,0,0-2.24-1.22c-1,0-1.5.3-1.5.83,0,.36.28.63,1.11.8l1.73.36c1.69.34,2.35,1.17,2.35,2.31,0,1.63-1.34,2.82-3.78,2.82a5.1,5.1,0,0,1-4.08-1.75L178,76.71a3.12,3.12,0,0,0,2.7,1.39c.88,0,1.46-.25,1.46-.81C182.18,76.93,182,76.66,181.25,76.51ZM150.31,100a2.46,2.46,0,0,1-1.11.22,1.92,1.92,0,0,1-2-1.2,3.35,3.35,0,0,1-2.71,1.22c-1.73,0-2.8-.8-2.8-2.29,0-1.26.83-2.08,2.36-2.38L147,95v-.32a1.44,1.44,0,0,0-1.52-1.55,1.74,1.74,0,0,0-1.8,1.4l-2-.62c.39-1.49,1.68-2.48,3.89-2.48s3.73,1.06,3.73,3.15V98c0,.44.2.64.61.64a1.8,1.8,0,0,0,.54-.08Zm9.59.07h-2.33V95.14c0-1.45-.65-1.92-1.53-1.92s-1.94.63-1.94,2.33v4.5h-2.33v-8.5h2.09l.09,1.6a3,3,0,0,1,2.89-1.77,2.85,2.85,0,0,1,3.06,3.1Zm-3.25-20.4V68.43h4.91c2.72,0,4,1.12,4,3.06A2.41,2.41,0,0,1,163.4,74v0a2.57,2.57,0,0,1,2.43,2.58c0,1.94-1.43,3.08-4.1,3.08Zm13.73,20.4h-2.09l-.1-1.65a2.94,2.94,0,0,1-2.8,1.82c-2.11,0-3.64-1.63-3.64-4.4s1.61-4.44,3.72-4.44a2.74,2.74,0,0,1,2.59,1.6V87.83h2.32Zm5.51-20.47a2.41,2.41,0,0,1-1.1.22,1.94,1.94,0,0,1-2-1.2,3.32,3.32,0,0,1-2.7,1.22c-1.73,0-2.81-.8-2.81-2.29,0-1.26.84-2.08,2.37-2.38l2.92-.6v-.32a1.43,1.43,0,0,0-1.51-1.55,1.74,1.74,0,0,0-1.8,1.4l-2-.62c.39-1.49,1.68-2.48,3.89-2.48s3.72,1.06,3.72,3.15v3.45c0,.44.21.64.61.64a1.87,1.87,0,0,0,.55-.08Zm6.9,20.47h-2.34V90.72h-3.78V88.83h9.88v1.89h-3.76Zm11.45-3.52h-6a2,2,0,0,0,2.12,2,1.93,1.93,0,0,0,1.92-1.09l1.85.71a3.82,3.82,0,0,1-3.75,2.11,4.42,4.42,0,0,1-.12-8.84,3.76,3.76,0,0,1,4,4C194.3,95.8,194.27,96.23,194.24,96.53ZM190.46,75.4A4.09,4.09,0,0,1,194.8,71c2.27,0,3.48,1.11,3.89,2.5l-2.18.78a1.64,1.64,0,0,0-1.68-1.55c-1.31,0-2,.92-2,2.71s.78,2.67,2.06,2.67a1.67,1.67,0,0,0,1.77-1.52l2.1.68c-.37,1.52-1.75,2.57-3.86,2.57A4.09,4.09,0,0,1,190.46,75.4Zm9.62,24.82a4.42,4.42,0,0,1-.06-8.84c2.27,0,3.48,1.11,3.89,2.5l-2.18.78a1.63,1.63,0,0,0-1.68-1.54c-1.31,0-2,.91-2,2.7s.78,2.67,2.06,2.67A1.66,1.66,0,0,0,201.83,97l2.11.68C203.57,99.17,202.19,100.22,200.08,100.22Zm13.67-.17h-2.33V95.16c0-1.47-.63-1.94-1.51-1.94s-1.95.64-1.95,2.34v4.49h-2.33V87.83H208V93a3.08,3.08,0,0,1,5.79,1.48Zm-4.5-27.25,2.09.48c2.21.49,3.11,1.46,3.11,3,0,2.23-1.87,3.52-4.57,3.52a6.46,6.46,0,0,1-5.17-2.19L206,76.05a4.67,4.67,0,0,0,3.85,1.88c1.37,0,2.15-.47,2.15-1.34,0-.56-.32-1-1.39-1.24l-2.28-.51c-2-.44-3.13-1.36-3.13-3,0-2,1.72-3.54,4.59-3.54a5.6,5.6,0,0,1,4.66,2.09l-1.31,1.52a4,4,0,0,0-3.43-1.72c-1.46,0-2.07.61-2.07,1.36S208.07,72.53,209.25,72.8ZM220.18,71c2.28,0,3.48,1.11,3.89,2.5l-2.18.78a1.64,1.64,0,0,0-1.68-1.55c-1.31,0-2,.92-2,2.71s.78,2.67,2.06,2.67A1.67,1.67,0,0,0,222,76.57l2.1.68c-.37,1.52-1.75,2.57-3.85,2.57a4.42,4.42,0,0,1-.07-8.84Zm4,29.07h-2.33V95.14c0-1.45-.65-1.92-1.53-1.92s-1.94.63-1.94,2.33v4.5H216v-8.5h2.09l.09,1.6a3,3,0,0,1,2.89-1.77,2.85,2.85,0,0,1,3.06,3.1ZM227,67.43c1,0,1.45.42,1.45,1.26s-.48,1.24-1.45,1.24-1.44-.41-1.44-1.24S226,67.43,227,67.43Zm-1.17,3.72h2.33v8.5h-2.33Zm4.52,29.07a4.42,4.42,0,1,1,4.35-4.42A4.1,4.1,0,0,1,230.31,100.22Zm10.11-.36a3.44,3.44,0,0,1-1.58.36c-1.65,0-2.38-.76-2.38-2.53V87.83h2.33v9.6c0,.78.26,1.07.89,1.07a2.25,2.25,0,0,0,.95-.17Zm5.26.36A4.42,4.42,0,1,1,250,95.8,4.1,4.1,0,0,1,245.68,100.22ZM254.45,71c2.28,0,3.48,1.11,3.89,2.5l-2.17.78a1.65,1.65,0,0,0-1.69-1.55c-1.31,0-2,.92-2,2.71s.78,2.67,2.06,2.67a1.67,1.67,0,0,0,1.77-1.52l2.11.68c-.38,1.52-1.76,2.57-3.86,2.57a4.42,4.42,0,0,1-.07-8.84Zm.8,32.73c-2.93,0-4.22-.91-4.22-2.21,0-.77.44-1.38,1.55-1.62a1.6,1.6,0,0,1-1.14-1.6,1.78,1.78,0,0,1,1.31-1.68,2.52,2.52,0,0,1-1.34-2.33c0-1.78,1.47-2.89,3.87-2.89a5.7,5.7,0,0,1,1.84.27,2.29,2.29,0,0,1,2.51-2.12l.28,1.66c-1.08-.1-1.69.28-1.84.94a2.5,2.5,0,0,1,1.09,2.14c0,1.77-1.48,2.87-3.88,2.87a7.78,7.78,0,0,1-1.44-.13c-.5.15-.7.41-.7.73,0,.47.36.71,1.09.71h2.62c1.83,0,2.87.84,2.87,2.26C259.72,102.67,257.9,103.71,255.25,103.71Zm10.32-3.13c-.84,2.31-1.82,3.13-3.62,3.13a4,4,0,0,1-2.18-.58l.49-1.69a2.22,2.22,0,0,0,1.5.48,1.33,1.33,0,0,0,1.41-1l.29-.73L262.52,98l-2.6-6.41h2.59l1.61,5.1.44,1.7.53-1.8,1.55-5H269Z"/><path class="cls-1" d="M245.68,93.12c-1.28,0-2,.88-2,2.68s.75,2.69,2,2.69,2-.89,2-2.69S246.93,93.12,245.68,93.12Z"/><path class="cls-2" d="M114.11,118.26c6.06-6.38,11.74-13.23,15.92-21,7.13-13.26,9.55-28.8,8.11-43.8s-4.59-30.7-11.75-43.95A100.47,100.47,0,0,0,120.56,0H11.19A11.19,11.19,0,0,0,0,11.19V111.81A11.19,11.19,0,0,0,11.19,123h97.88A66.21,66.21,0,0,0,114.11,118.26ZM82,81.94c-1.38,1-3.11,2.2-5,3.46h0c-5.16,3.46-11.53,7.46-15.61,9.88-10.19,6-22.85,8.35-31.29-3a24,24,0,0,1-1.39-2.11,18.19,18.19,0,0,1-1.1-1.65,0,0,0,0,0,0,0c-.11-.16-.19-.31-.29-.47-.22-.37-.41-.73-.6-1.11a19.11,19.11,0,0,1-2.26-9.3c.23-7.83,5.75-14.59,12.46-19.51,3.54-2.59,9.24-6.54,14.29-9.86,2.25-1.46,4.34-2.8,6.07-3.83l.39-.23.38-.23c.68-.41,1.36-.83,2.05-1.23h0l.09.1c.48.6,1,1.18,1.5,1.75l.75.82,1.84,2,.3.33c.46.51.91,1,1.34,1.52.83,1,1.62,2,2.4,3l.71.93v0a3.59,3.59,0,0,1,.25.33q.86,1.14,1.68,2.28l.22.3h0l-.73.54c-1.56,1.14-3.7,2.56-6,4l-2.08,1.32c-3,1.89-5.92,3.72-7.78,5C51.94,68.88,42,74.76,41.94,78.82a2.16,2.16,0,0,0,.12.76,1.27,1.27,0,0,1,.06.18.3.3,0,0,1,0,.08,4.85,4.85,0,0,0,.6,1.13,4.66,4.66,0,0,0,.79,1l.19.2a2.47,2.47,0,0,0,1.29.58c4.07.68,12.59-5.53,15.21-7.22,2-1.28,4.88-3.32,7.85-5.34h0c3.17-2.19,6.41-4.36,8.63-5.57h0c.61.88,1.2,1.76,1.78,2.65.11.16.2.32.31.48.38.59.75,1.19,1.12,1.78s.76,1.22,1.13,1.83.76,1.31,1.13,2c.24.43.5.85.74,1.28l.36.68c.12.21.23.43.35.65l.19.35c.55,1,1.09,2.11,1.61,3.19-.94.7-1.9,1.38-2.85,2.07ZM87.3,71.05c-.74.53-2-.18-1.52-1.11,2.58-5.58,5.22-10.58,2.37-16.8-3.06-6.65-10.43-9.11-17.28-9-.57,0-.91-.8-.3-1A16.08,16.08,0,0,1,90,50.24C93.6,56.3,93.42,66.63,87.3,71.05Zm13.88,3.41c-.53.52-1.51-.21-1.18-.87,4.81-9.56,6.69-20.84-.27-30-3.76-4.94-9.54-7.92-15.55-9.1a25.18,25.18,0,0,0-5.62-.35c-.94,0-1.86.1-2.79.16a8.52,8.52,0,0,1-2.57,0,2.28,2.28,0,0,1-.52-.18.65.65,0,0,1-.35-.41.93.93,0,0,1,.45-.86C74.4,31.62,77,31.22,79.05,31c5.75-.63,11.49,1.28,16.29,4.37a32.51,32.51,0,0,1,2.86,2.07,24.4,24.4,0,0,1,4.63,4.89C109.39,51.77,109.55,66.15,101.18,74.46Zm8.79.88c3.8-7.24,7.18-13.53,7.51-21.83a31.49,31.49,0,0,0-6.75-21c-9.86-12.16-25-11.72-39.18-5.8a.74.74,0,0,1-.77-1.26c13.52-11.72,32.92-8.18,42.66,4.41,9.25,11.94,10.29,34.14-2.09,46.72C110.48,77.48,109.45,76.33,110,75.34Z"/><path class="cls-3" d="M165.83,76.57A2.57,2.57,0,0,0,163.4,74v0a2.41,2.41,0,0,0,2.14-2.48c0-1.94-1.26-3.06-4-3.06h-4.91V79.65h5.08C164.4,79.65,165.83,78.51,165.83,76.57Zm-6.9-6.32h2.33c1.24,0,1.85.48,1.85,1.45s-.61,1.44-1.85,1.44h-2.33Zm2.6,7.63h-2.6V74.94h2.6c1.26,0,1.87.53,1.87,1.46S162.79,77.88,161.53,77.88Z"/><path class="cls-3" d="M174.87,77.58V74.13c0-2.09-1.49-3.15-3.72-3.15s-3.5,1-3.89,2.48l2,.62a1.74,1.74,0,0,1,1.8-1.4,1.43,1.43,0,0,1,1.51,1.55v.32l-2.92.6c-1.53.3-2.37,1.12-2.37,2.38,0,1.49,1.08,2.29,2.81,2.29a3.32,3.32,0,0,0,2.7-1.22,1.94,1.94,0,0,0,2,1.2,2.41,2.41,0,0,0,1.1-.22l.14-1.44a1.87,1.87,0,0,1-.55.08C175.08,78.22,174.87,78,174.87,77.58Zm-2.31-1.06c0,1.24-.92,1.65-1.89,1.65-.59,0-1.07-.3-1.07-.87s.39-.79,1.18-1l1.78-.35Z"/><path class="cls-3" d="M180.72,78.1a3.12,3.12,0,0,1-2.7-1.39l-1.35,1.36a5.1,5.1,0,0,0,4.08,1.75c2.44,0,3.78-1.19,3.78-2.82,0-1.14-.66-2-2.35-2.31l-1.73-.36c-.83-.17-1.11-.44-1.11-.8,0-.53.53-.83,1.5-.83a2.68,2.68,0,0,1,2.24,1.22l1.4-1.36A4.3,4.3,0,0,0,180.77,71c-2.48,0-3.74,1.31-3.74,2.69s.75,2.12,2.72,2.53l1.5.31c.75.15.93.42.93.78C182.18,77.85,181.6,78.1,180.72,78.1Z"/><path class="cls-3" d="M187.44,69.93c1,0,1.44-.41,1.44-1.24s-.48-1.26-1.44-1.26-1.45.42-1.45,1.26S186.47,69.93,187.44,69.93Z"/><rect class="cls-3" x="186.26" y="71.15" width="2.33" height="8.5"/><path class="cls-3" d="M198.72,77.25l-2.1-.68a1.67,1.67,0,0,1-1.77,1.52c-1.28,0-2.06-.85-2.06-2.67s.73-2.71,2-2.71a1.64,1.64,0,0,1,1.68,1.55l2.18-.78c-.41-1.39-1.62-2.5-3.89-2.5a4.42,4.42,0,0,0,.06,8.84C197,79.82,198.35,78.77,198.72,77.25Z"/><path class="cls-3" d="M209.74,70.15a4,4,0,0,1,3.43,1.72l1.31-1.52a5.6,5.6,0,0,0-4.66-2.09c-2.87,0-4.59,1.55-4.59,3.54,0,1.68,1.14,2.6,3.13,3l2.28.51c1.07.24,1.39.68,1.39,1.24,0,.87-.78,1.34-2.15,1.34A4.67,4.67,0,0,1,206,76.05l-1.32,1.58a6.46,6.46,0,0,0,5.17,2.19c2.7,0,4.57-1.29,4.57-3.52,0-1.56-.9-2.53-3.11-3l-2.09-.48c-1.18-.27-1.58-.68-1.58-1.29S208.28,70.15,209.74,70.15Z"/><path class="cls-3" d="M220.25,79.82c2.1,0,3.48-1,3.85-2.57l-2.1-.68a1.67,1.67,0,0,1-1.77,1.52c-1.28,0-2.06-.85-2.06-2.67s.73-2.71,2-2.71a1.64,1.64,0,0,1,1.68,1.55l2.18-.78c-.41-1.39-1.61-2.5-3.89-2.5a4.42,4.42,0,0,0,.07,8.84Z"/><rect class="cls-3" x="225.79" y="71.15" width="2.33" height="8.5"/><path class="cls-3" d="M227,69.93c1,0,1.45-.41,1.45-1.24s-.48-1.26-1.45-1.26-1.44.42-1.44,1.26S226,69.93,227,69.93Z"/><path class="cls-3" d="M234.41,79.82a3.82,3.82,0,0,0,3.75-2.11L236.31,77a1.93,1.93,0,0,1-1.92,1.09,2,2,0,0,1-2.13-2h6a9.52,9.52,0,0,0,.07-1.19,3.76,3.76,0,0,0-4-4,4.42,4.42,0,0,0,.12,8.84Zm-.14-7.12a1.76,1.76,0,0,1,1.82,1.82h-3.81A1.92,1.92,0,0,1,234.27,72.7Z"/><path class="cls-3" d="M242.52,75.15c0-1.7,1-2.33,1.93-2.33s1.53.47,1.53,1.92v4.91h2.33V74.08a2.84,2.84,0,0,0-3.06-3.1,3,3,0,0,0-2.89,1.77l-.08-1.6h-2.09v8.5h2.33Z"/><path class="cls-3" d="M254.52,79.82c2.1,0,3.48-1,3.86-2.57l-2.11-.68a1.67,1.67,0,0,1-1.77,1.52c-1.28,0-2.06-.85-2.06-2.67s.73-2.71,2-2.71a1.65,1.65,0,0,1,1.69,1.55l2.17-.78c-.41-1.39-1.61-2.5-3.89-2.5a4.42,4.42,0,0,0,.07,8.84Z"/><path class="cls-3" d="M264,79.82a3.84,3.84,0,0,0,3.76-2.11L265.91,77A1.93,1.93,0,0,1,264,78.09a2,2,0,0,1-2.13-2h6a9.52,9.52,0,0,0,.07-1.19,3.76,3.76,0,0,0-4.05-4,4.42,4.42,0,0,0,.12,8.84Zm-.13-7.12a1.76,1.76,0,0,1,1.82,1.82h-3.81A1.92,1.92,0,0,1,263.87,72.7Z"/><path class="cls-3" d="M149.29,98V94.53c0-2.09-1.5-3.15-3.73-3.15s-3.5,1-3.89,2.48l2,.62a1.74,1.74,0,0,1,1.8-1.4A1.44,1.44,0,0,1,147,94.63V95l-2.93.6c-1.53.3-2.36,1.12-2.36,2.38,0,1.49,1.07,2.29,2.8,2.29A3.35,3.35,0,0,0,147.2,99a1.92,1.92,0,0,0,2,1.2,2.46,2.46,0,0,0,1.11-.22l.13-1.44a1.8,1.8,0,0,1-.54.08C149.49,98.62,149.29,98.42,149.29,98ZM147,96.92c0,1.24-.92,1.65-1.89,1.65-.6,0-1.07-.3-1.07-.86s.39-.8,1.17-1L147,96.4Z"/><path class="cls-3" d="M156.84,91.38A3,3,0,0,0,154,93.15l-.09-1.6h-2.09v8.5h2.33v-4.5c0-1.7,1-2.33,1.94-2.33s1.53.47,1.53,1.92v4.91h2.33V94.48A2.85,2.85,0,0,0,156.84,91.38Z"/><path class="cls-3" d="M168.06,93a2.74,2.74,0,0,0-2.59-1.6c-2.11,0-3.72,1.62-3.72,4.44s1.53,4.4,3.64,4.4a2.94,2.94,0,0,0,2.8-1.82l.1,1.65h2.09V87.83h-2.32Zm-2,5.46c-1.26,0-2-.92-2-2.64s.76-2.63,2-2.63,2,1,2,2.56S167.27,98.44,166.07,98.44Z"/><polygon class="cls-3" points="186.55 88.83 176.68 88.83 176.68 90.72 180.45 90.72 180.45 100.05 182.79 100.05 182.79 90.72 186.55 90.72 186.55 88.83"/><path class="cls-3" d="M190.26,91.38a4.42,4.42,0,0,0,.12,8.84,3.82,3.82,0,0,0,3.75-2.11l-1.85-.71a1.93,1.93,0,0,1-1.92,1.09,2,2,0,0,1-2.12-2h6c0-.3.06-.73.06-1.19A3.76,3.76,0,0,0,190.26,91.38Zm-2,3.54a1.92,1.92,0,0,1,2-1.82,1.76,1.76,0,0,1,1.82,1.82Z"/><path class="cls-3" d="M200.07,98.49c-1.28,0-2.06-.85-2.06-2.67s.73-2.7,2-2.7a1.63,1.63,0,0,1,1.68,1.54l2.18-.78c-.41-1.39-1.62-2.5-3.89-2.5a4.42,4.42,0,0,0,.06,8.84c2.11,0,3.49-1,3.86-2.57L201.83,97A1.66,1.66,0,0,1,200.07,98.49Z"/><path class="cls-3" d="M210.69,91.38A2.87,2.87,0,0,0,208,93V87.83h-2.33v12.22H208V95.56c0-1.7,1-2.34,1.95-2.34s1.51.47,1.51,1.94v4.89h2.33V94.48A2.84,2.84,0,0,0,210.69,91.38Z"/><path class="cls-3" d="M221.1,91.38a3,3,0,0,0-2.89,1.77l-.09-1.6H216v8.5h2.33v-4.5c0-1.7,1-2.33,1.94-2.33s1.53.47,1.53,1.92v4.91h2.33V94.48A2.85,2.85,0,0,0,221.1,91.38Z"/><path class="cls-3" d="M230.31,91.38a4.42,4.42,0,1,0,4.35,4.42A4.1,4.1,0,0,0,230.31,91.38Zm0,7.11c-1.28,0-2-.89-2-2.69s.74-2.68,2-2.68,2,.88,2,2.68S231.57,98.49,230.31,98.49Z"/><path class="cls-3" d="M238.79,97.43v-9.6h-2.33v9.86c0,1.77.73,2.53,2.38,2.53a3.44,3.44,0,0,0,1.58-.36l.21-1.53a2.25,2.25,0,0,1-.95.17C239.05,98.5,238.79,98.21,238.79,97.43Z"/><path class="cls-3" d="M245.68,91.38A4.42,4.42,0,1,0,250,95.8,4.1,4.1,0,0,0,245.68,91.38Zm0,7.11c-1.28,0-2-.89-2-2.69s.75-2.68,2-2.68,2,.88,2,2.68S246.93,98.49,245.68,98.49Z"/><path class="cls-3" d="M256.85,98.45h-2.62c-.73,0-1.09-.24-1.09-.71,0-.32.2-.58.7-.73a7.78,7.78,0,0,0,1.44.13c2.4,0,3.88-1.1,3.88-2.87a2.5,2.5,0,0,0-1.09-2.14c.15-.66.76-1,1.84-.94l-.28-1.66a2.29,2.29,0,0,0-2.51,2.12,5.7,5.7,0,0,0-1.84-.27c-2.4,0-3.87,1.11-3.87,2.89a2.52,2.52,0,0,0,1.34,2.33,1.78,1.78,0,0,0-1.31,1.68,1.6,1.6,0,0,0,1.14,1.6c-1.11.24-1.55.85-1.55,1.62,0,1.3,1.29,2.21,4.22,2.21,2.65,0,4.47-1,4.47-3C259.72,99.29,258.68,98.45,256.85,98.45Zm-1.57-5.61a1.43,1.43,0,1,1,0,2.84,1.43,1.43,0,1,1,0-2.84Zm0,9.27c-1.49,0-2.39-.39-2.39-1,0-.46.39-.77.93-.77h2.88c.88,0,1.17.27,1.17.72S257,102.11,255.26,102.11Z"/><path class="cls-3" d="M265.09,96.55l-.53,1.8-.44-1.7-1.61-5.1h-2.59l2.6,6.41.94,2.21-.29.73a1.33,1.33,0,0,1-1.41,1,2.22,2.22,0,0,1-1.5-.48l-.49,1.69a4,4,0,0,0,2.18.58c1.8,0,2.78-.82,3.62-3.13l3.43-9h-2.36Z"/><path class="cls-4" d="M82.94,74.58c-.24-.43-.5-.85-.74-1.28.37.65.74,1.3,1.1,2Z"/><path class="cls-4" d="M35.28,94.46A23.85,23.85,0,0,0,55,94.26a144.55,144.55,0,0,0,17-9.37c1.19-.72,2.34-1.54,3.49-2.4q-2.18-4-4.54-7.82c-1.34.84-2.71,1.66-4,2.5C64,79,61.19,81,58.27,82.77c-4.47,2.79-9.35,5-14.58,3.11-.79-.3-.29-1.46.47-1.34,6.28,1,11.3-2.44,16.28-5.71,3-2,6-4.29,9.15-6.3-.49-.79-1-1.58-1.5-2.36-3,2-5.87,4.06-7.85,5.34C57.62,77.2,49.1,83.41,45,82.73a2.47,2.47,0,0,1-1.29-.58l-.19-.2a4.66,4.66,0,0,1-.79-1,4.85,4.85,0,0,1-.6-1.13.3.3,0,0,0,0-.08c-4-3.74,3.35-9.33,6.1-11.48,4-3.1,8.2-5.84,12.3-8.74q-2.77-3.61-5.7-7.07c-1.33.71-2.69,1.36-3.81,2.07a105.58,105.58,0,0,0-9,6.37,52.91,52.91,0,0,0-8.7,8c-2.62,3.29-3.2,6.77-2.84,10.82a.16.16,0,0,1-.26.12c-5.56-5.88,2.21-13.7,6.46-17.5a109,109,0,0,1,11-8.66c1.72-1.17,3.48-2.3,5.27-3.37-.58-.67-1.15-1.35-1.74-2,2.24-1.47,4.33-2.81,6.06-3.84-1.73,1-3.82,2.37-6.07,3.83C46.19,51.62,40.49,55.57,37,58.16c-6.71,4.92-12.23,11.68-12.46,19.51A19.11,19.11,0,0,0,26.75,87c.19.38.38.74.6,1.11.1.16.18.31.29.47a0,0,0,0,1,0,0A24.44,24.44,0,0,0,35.28,94.46Z"/><path class="cls-4" d="M69.07,53.28v0Z"/><path class="cls-4" d="M62.47,45.45l1.84,2Z"/><path class="cls-4" d="M79.94,69.51c.38.61.76,1.22,1.13,1.83C80.7,70.73,80.32,70.12,79.94,69.51Z"/><path class="cls-4" d="M60.13,42.78c-.69.4-1.37.82-2.05,1.23l2.05-1.23Z"/><path class="cls-4" d="M68.35,52.33c-.78-1-1.57-2-2.4-3-.43-.51-.88-1-1.34-1.52.46.51.91,1,1.34,1.52C66.78,50.29,67.57,51.31,68.35,52.33Z"/><path class="cls-4" d="M78.51,67.25c-.58-.89-1.17-1.77-1.78-2.65h0c.72,1,1.41,2.09,2.09,3.13C78.71,67.57,78.62,67.41,78.51,67.25Z"/><path class="cls-4" d="M60.22,42.88c.48.6,1,1.18,1.5,1.75C61.2,44.06,60.7,43.48,60.22,42.88Z"/><path class="cls-4" d="M83.84,76.26l-.19-.35.18.36Z"/><path class="cls-5" d="M60.13,42.78h0l.09.1Z"/><path class="cls-5" d="M68.35,52.33l.71.93Z"/><path class="cls-5" d="M64.31,47.45l.3.33Z"/><path class="cls-5" d="M58.08,44l-.38.23-.39.23.38-.23Z"/><path class="cls-5" d="M62.47,45.45l-.75-.82,0,0Z"/><path class="cls-5" d="M71.22,56.19l-.22-.3.22.3Z"/><path class="cls-5" d="M70.49,56.73c-1.56,1.14-3.7,2.55-6,4C66.79,59.29,68.93,57.87,70.49,56.73Z"/><path class="cls-5" d="M53,50.32l.32-.2c1.75-1,3.41-2.33,5.52-2.39.56,0,1.16.62.8,1.14a13.52,13.52,0,0,1-4.81,3.6q2.93,3.47,5.7,7.07l.45-.31c2.67-1.9,5.25-4.25,8.1-5.95v0l-.71-.93c-.78-1-1.57-2-2.4-3-.43-.51-.88-1-1.34-1.52l-.3-.33-1.84-2-.73-.8,0,0c-.51-.57-1-1.15-1.5-1.75l-.09-.1L58.08,44l-.39.23-.38.23c-1.73,1-3.82,2.37-6.06,3.84C51.84,49,52.41,49.65,53,50.32Z"/><path class="cls-6" d="M83.3,75.26c.12.21.23.43.35.65C83.53,75.69,83.42,75.47,83.3,75.26Z"/><path class="cls-6" d="M78.82,67.73c.38.59.75,1.19,1.12,1.78C79.57,68.92,79.2,68.32,78.82,67.73Z"/><path class="cls-6" d="M81.07,71.34c.39.65.76,1.31,1.13,2C81.83,72.65,81.46,72,81.07,71.34Z"/><path class="cls-6" d="M77,85.4h0c1.87-1.26,3.6-2.44,5-3.46l.58-.42-.58.42C80.63,83,78.92,84.14,77,85.4Z"/><path class="cls-6" d="M76.73,64.6h0c-2.22,1.21-5.46,3.38-8.63,5.57h0C71.26,68,74.5,65.81,76.73,64.6Z"/><path class="cls-6" d="M75,69.51A.92.92,0,0,1,76,71a34.76,34.76,0,0,1-5.07,3.68q2.37,3.85,4.54,7.82c2.77-2.08,5.47-4.39,8.36-6.22l-.18-.36c-.12-.22-.23-.44-.35-.65-.36-.66-.73-1.31-1.1-2s-.74-1.31-1.13-2-.75-1.22-1.13-1.83-.74-1.19-1.12-1.78c-.68-1-1.37-2.09-2.09-3.13-2.23,1.21-5.47,3.38-8.64,5.57h0c.51.78,1,1.57,1.5,2.36A41.08,41.08,0,0,1,75,69.51Z"/><path class="cls-3" d="M47.72,53.69a109,109,0,0,0-11,8.66c-4.25,3.8-12,11.62-6.46,17.5a.16.16,0,0,0,.26-.12c-.36-4,.22-7.53,2.84-10.82a52.91,52.91,0,0,1,8.7-8,105.58,105.58,0,0,1,9-6.37c1.12-.71,2.48-1.36,3.81-2.07-.6-.72-1.21-1.44-1.83-2.15C51.2,51.39,49.44,52.52,47.72,53.69Z"/><path class="cls-3" d="M59.63,48.87c.36-.52-.24-1.16-.8-1.14-2.11.06-3.77,1.36-5.52,2.39l-.32.2c.62.71,1.23,1.43,1.83,2.15A13.52,13.52,0,0,0,59.63,48.87Z"/><path class="cls-3" d="M60.44,78.83c-5,3.27-10,6.76-16.28,5.71-.76-.12-1.26,1-.47,1.34,5.23,1.94,10.11-.32,14.58-3.11C61.19,81,64,79,66.92,77.17c1.3-.84,2.67-1.66,4-2.5-.44-.72-.89-1.43-1.34-2.14C66.46,74.54,63.43,76.86,60.44,78.83Z"/><path class="cls-3" d="M75,69.51a41.08,41.08,0,0,0-5.43,3c.45.71.9,1.42,1.34,2.14A34.76,34.76,0,0,0,76,71,.92.92,0,0,0,75,69.51Z"/><path class="cls-7" d="M70.57,43.13c-.61.24-.27,1,.3,1,6.85-.14,14.22,2.32,17.28,9,2.85,6.22.21,11.22-2.37,16.8-.43.93.78,1.64,1.52,1.11,6.12-4.42,6.3-14.75,2.7-20.81A16.08,16.08,0,0,0,70.57,43.13Z"/><path class="cls-7" d="M98.2,37.44a32.51,32.51,0,0,0-2.86-2.07c-4.8-3.09-10.54-5-16.29-4.37-2,.22-4.65.62-6.27,1.89a.93.93,0,0,0-.45.86.65.65,0,0,0,.35.41,2.28,2.28,0,0,0,.52.18,8.52,8.52,0,0,0,2.57,0c.93-.06,1.85-.12,2.79-.16a25.18,25.18,0,0,1,5.62.35c6,1.18,11.79,4.16,15.55,9.1,7,9.12,5.08,20.4.27,30-.33.66.65,1.39,1.18.87,8.37-8.31,8.21-22.69,1.65-32.13A24.4,24.4,0,0,0,98.2,37.44Z"/><path class="cls-7" d="M113.44,29.87C103.7,17.28,84.3,13.74,70.78,25.46a.74.74,0,0,0,.77,1.26c14.17-5.92,29.32-6.36,39.18,5.8a31.49,31.49,0,0,1,6.75,21c-.33,8.3-3.71,14.59-7.51,21.83-.52,1,.51,2.14,1.38,1.25C123.73,64,122.69,41.81,113.44,29.87Z"/><path class="cls-6" d="M83.84,76.26h0c.55,1,1.1,2.1,1.62,3.18-.94.7-1.9,1.38-2.85,2.07,1-.69,1.91-1.37,2.85-2.07C84.93,78.37,84.39,77.31,83.84,76.26Z"/><path class="cls-6" d="M72,84.89a144.55,144.55,0,0,1-17,9.37,23.85,23.85,0,0,1-19.72.2,24.44,24.44,0,0,1-7.63-5.9,18.19,18.19,0,0,0,1.1,1.65,24,24,0,0,0,1.39,2.11c8.44,11.31,21.1,9,31.29,3C65.51,92.86,71.88,88.86,77,85.4h0c-.51-1-1-2-1.57-2.91C74.32,83.35,73.17,84.17,72,84.89Z"/><path class="cls-6" d="M83.83,76.27c-2.89,1.83-5.59,4.14-8.36,6.22.53,1,1.06,1.93,1.57,2.91,1.88-1.26,3.59-2.44,5-3.46l.58-.42c1-.69,1.91-1.37,2.85-2.07C84.93,78.37,84.38,77.32,83.83,76.27Z"/><path class="cls-6" d="M71,55.89q-.82-1.14-1.68-2.28a3.59,3.59,0,0,0-.25-.33h0C69.72,54.15,70.37,55,71,55.89Z"/><path class="cls-6" d="M61.91,61.34c-.46-.61-.93-1.2-1.39-1.8-4.1,2.9-8.35,5.64-12.3,8.74-2.75,2.15-10.06,7.74-6.1,11.48a1.27,1.27,0,0,0-.06-.18,2.16,2.16,0,0,1-.12-.76c0-4.06,10-9.94,12.72-11.78,1.86-1.26,4.79-3.09,7.78-5l2.08-1.32-2.08,1.32Z"/><path class="cls-6" d="M71.22,56.19h0l-.73.54Z"/><path class="cls-6" d="M61,59.23l-.45.31c.46.6.93,1.19,1.39,1.8l.53.72,2.08-1.32c2.27-1.46,4.41-2.87,6-4l.73-.54-.22-.3c-.63-.87-1.28-1.74-1.93-2.61C66.22,55,63.64,57.33,61,59.23Z"/></g></g></svg>