<svg xmlns="http://www.w3.org/2000/svg" viewBox="0 0 293 123"><defs><style>.cls-1{fill:#e65c7e;}.cls-2{fill:#d14e79;}.cls-3{fill:#fff;}.cls-4{fill:#e1f7ff;}.cls-5{fill:#800d29;}.cls-6{fill:#ff8c66;}.cls-7{fill:#ffc34d;}</style></defs><title>Asset 33</title><g id="Layer_2" data-name="Layer 2"><g id="Layer_1-2" data-name="Layer 1"><path class="cls-1" d="M209.23,88.77a1.84,1.84,0,0,0-1.41.52,2.37,2.37,0,0,0-.63,1.4h4.07a1.94,1.94,0,0,0-.63-1.43A2.06,2.06,0,0,0,209.23,88.77Z"/><path class="cls-1" d="M281.81,0H148.71a102.65,102.65,0,0,1,5.84,9.53c7.16,13.25,10.31,29,11.75,43.95s-1,30.54-8.12,43.8c-4.17,7.75-9.85,14.6-15.91,21a64.27,64.27,0,0,1-5,4.74H281.81A11.19,11.19,0,0,0,293,111.81V11.19A11.19,11.19,0,0,0,281.81,0ZM186.14,93.22a2.62,2.62,0,0,0,2.12,1,2.38,2.38,0,0,0,2-.88,3.77,3.77,0,0,0,.64-1.42h2.54a5.53,5.53,0,0,1-1.68,3.26,4.93,4.93,0,0,1-3.47,1.25,5.21,5.21,0,0,1-4.1-1.69,8.06,8.06,0,0,1,.2-9.61,5.7,5.7,0,0,1,8.23.52,4.41,4.41,0,0,1,.84,2.28H190.9a3.51,3.51,0,0,0-.62-1.33,2.54,2.54,0,0,0-2-.8A2.48,2.48,0,0,0,186.1,87a5.45,5.45,0,0,0-.79,3.18A4.89,4.89,0,0,0,186.14,93.22Zm17.21,2.89h-2.41V90.6a2.49,2.49,0,0,0-.25-1.18,1.24,1.24,0,0,0-1.22-.63,1.66,1.66,0,0,0-1.41.63,2.87,2.87,0,0,0-.48,1.79v4.9h-2.37V83.92h2.37v4.31a2.92,2.92,0,0,1,1.18-1.1,3.3,3.3,0,0,1,1.42-.31,3.92,3.92,0,0,1,1.52.29,2.78,2.78,0,0,1,1.12.89,2.56,2.56,0,0,1,.45,1,14,14,0,0,1,.08,1.75Zm10.37-3.86h-6.59a2.17,2.17,0,0,0,.94,1.91,2.39,2.39,0,0,0,1.31.34,1.86,1.86,0,0,0,1.8-1h2.41a2.94,2.94,0,0,1-.87,1.64,4.41,4.41,0,0,1-3.41,1.32,4.93,4.93,0,0,1-3.19-1.12,4.38,4.38,0,0,1-1.38-3.62,4.88,4.88,0,0,1,1.25-3.6,4.35,4.35,0,0,1,3.24-1.26,5.18,5.18,0,0,1,2.12.42,3.69,3.69,0,0,1,1.57,1.34,4.46,4.46,0,0,1,.72,1.87A12.33,12.33,0,0,1,213.72,92.25Zm14,3.86h-2.43V90.35a1.92,1.92,0,0,0-.16-.85,1.18,1.18,0,0,0-1.16-.63,1.36,1.36,0,0,0-1.36.81,2.72,2.72,0,0,0-.19,1v5.39H220V90.72a3,3,0,0,0-.17-1.17,1.15,1.15,0,0,0-1.17-.65,1.39,1.39,0,0,0-1.36.65,2.49,2.49,0,0,0-.19,1.11v5.45h-2.4v-9h2.3V88.4a4,4,0,0,1,.83-1,2.88,2.88,0,0,1,1.79-.53,2.75,2.75,0,0,1,1.67.46,2.49,2.49,0,0,1,.78,1.09,2.9,2.9,0,0,1,1.16-1.17,3.49,3.49,0,0,1,1.62-.38,3.22,3.22,0,0,1,1.18.23,2.7,2.7,0,0,1,1.06.82,2.62,2.62,0,0,1,.51,1.16,7.6,7.6,0,0,1,.08,1.34Zm4.5,0h-2.4v-9h2.4Zm0-10.13h-2.4V83.8h2.4Zm8.88,9.59a4.73,4.73,0,0,1-3.09.85,4.68,4.68,0,0,1-3.16-.9,3,3,0,0,1-1-2.3h2.4a1.65,1.65,0,0,0,.32.9,2.25,2.25,0,0,0,1.64.47,2.44,2.44,0,0,0,1.11-.21.65.65,0,0,0,.41-.62.68.68,0,0,0-.33-.61,14.54,14.54,0,0,0-2.47-.71,5.19,5.19,0,0,1-2.18-1,2.08,2.08,0,0,1-.63-1.63,2.83,2.83,0,0,1,1-2.16,4,4,0,0,1,2.77-.9,5.12,5.12,0,0,1,2.77.68,2.92,2.92,0,0,1,1.23,2.34h-2.37a1.31,1.31,0,0,0-.26-.72,1.59,1.59,0,0,0-1.33-.49,1.9,1.9,0,0,0-1.1.24.69.69,0,0,0-.33.57.62.62,0,0,0,.35.59,14.83,14.83,0,0,0,2.47.65,4.61,4.61,0,0,1,2.12,1,2.29,2.29,0,0,1,.7,1.7A2.76,2.76,0,0,1,241.1,95.57Zm6.77-6.74H246.4v4.78a1.09,1.09,0,0,0,.14.69c.1.1.39.14.87.14h.23l.23,0v1.77l-1.12,0a3,3,0,0,1-2.29-.58,1.75,1.75,0,0,1-.4-1.25V88.83H242.8V87.14h1.26V84.62h2.34v2.52h1.47Zm6.63.46-.4,0h-.28a2,2,0,0,0-1.92.93,3.68,3.68,0,0,0-.27,1.61v4.33h-2.38v-9h2.26v1.58a4.79,4.79,0,0,1,1-1.24,2.6,2.6,0,0,1,1.73-.55h.31ZM260.72,96a12.38,12.38,0,0,1-1.42,3.19,2.71,2.71,0,0,1-2.09.62h-.51l-.57,0v-1.9l.29,0a4.85,4.85,0,0,0,.67,0,1.2,1.2,0,0,0,.53-.2,1.26,1.26,0,0,0,.39-.58,1.54,1.54,0,0,0,.15-.55l-3.33-9.45h2.64l2,6.68,1.87-6.68h2.51Z"/><path class="cls-2" d="M142.27,118.26c6.06-6.38,11.74-13.23,15.91-21,7.14-13.26,9.56-28.8,8.12-43.8s-4.59-30.7-11.75-43.95A102.65,102.65,0,0,0,148.71,0H11.19A11.19,11.19,0,0,0,0,11.19V111.81A11.19,11.19,0,0,0,11.19,123h126A64.27,64.27,0,0,0,142.27,118.26ZM109,78.13c-.86,11.49-7,19.21-15,23.21a29.59,29.59,0,0,1-24.56,1.2l-21,7c-4.43,1.47-9-.51-10.23-4.41C35.45,96,32.63,87,30.09,78.12c-1.92-6.69-2.68-16.48-10.73-19.18-.71-.24-1.85-.54-1.93-1.35s.88-1.37,1.7-1.6c3.69-1,7.4-1.9,11-3.07q5.73-1.81,11.45-3.67C49.74,46.61,57.81,43.6,66,41c3.28-1.06,5.41.2,6,2a4.11,4.11,0,0,1-2,4.52,2.93,2.93,0,0,0-.72.68,27.7,27.7,0,0,1,9.48-1.65c.12-.89.25-1.77.36-2.65.59-4.4,1.41-8.87,2.16-13.43.45-2.8.79-5.72,1.26-8.64l-1-.34c-3.62-1.32-3.84-6.85.65-6.48l1.78.18c5.35.66,10.79,2.22,16.06,3.46l1.74.4c4.9,1.09,3.17,7.69-1.72,6.64l-1.14-.23c-.66,3-1.45,6.07-2.08,9-.91,4.26-1.72,8.48-2.72,12.55-.26,1.06-.51,2.11-.78,3.15C102.92,55.14,110,65.14,109,78.13Z"/><path class="cls-3" d="M188.25,85.82a2.54,2.54,0,0,1,2,.8A3.51,3.51,0,0,1,190.9,88h2.56a4.41,4.41,0,0,0-.84-2.28,5.7,5.7,0,0,0-8.23-.52,8.06,8.06,0,0,0-.2,9.61,5.21,5.21,0,0,0,4.1,1.69,4.93,4.93,0,0,0,3.47-1.25,5.53,5.53,0,0,0,1.68-3.26H190.9a3.77,3.77,0,0,1-.64,1.42,2.38,2.38,0,0,1-2,.88,2.62,2.62,0,0,1-2.12-1,4.89,4.89,0,0,1-.83-3.09A5.45,5.45,0,0,1,186.1,87,2.48,2.48,0,0,1,188.25,85.82Z"/><path class="cls-3" d="M202.82,88a2.78,2.78,0,0,0-1.12-.89,3.92,3.92,0,0,0-1.52-.29,3.3,3.3,0,0,0-1.42.31,2.92,2.92,0,0,0-1.18,1.1V83.92h-2.37V96.11h2.37v-4.9a2.87,2.87,0,0,1,.48-1.79,1.66,1.66,0,0,1,1.41-.63,1.24,1.24,0,0,1,1.22.63,2.49,2.49,0,0,1,.25,1.18v5.51h2.41V90.79a14,14,0,0,0-.08-1.75A2.56,2.56,0,0,0,202.82,88Z"/><path class="cls-3" d="M212.92,88.58a3.69,3.69,0,0,0-1.57-1.34,5.18,5.18,0,0,0-2.12-.42A4.35,4.35,0,0,0,206,88.08a4.88,4.88,0,0,0-1.25,3.6,4.38,4.38,0,0,0,1.38,3.62,4.93,4.93,0,0,0,3.19,1.12,4.41,4.41,0,0,0,3.41-1.32,2.94,2.94,0,0,0,.87-1.64h-2.41a1.86,1.86,0,0,1-1.8,1,2.39,2.39,0,0,1-1.31-.34,2.17,2.17,0,0,1-.94-1.91h6.59a12.33,12.33,0,0,0-.08-1.8A4.46,4.46,0,0,0,212.92,88.58Zm-5.73,2.11a2.37,2.37,0,0,1,.63-1.4,1.84,1.84,0,0,1,1.41-.52,2.06,2.06,0,0,1,1.4.49,1.94,1.94,0,0,1,.63,1.43Z"/><path class="cls-3" d="M227.14,87.91a2.7,2.7,0,0,0-1.06-.82,3.22,3.22,0,0,0-1.18-.23,3.49,3.49,0,0,0-1.62.38,2.9,2.9,0,0,0-1.16,1.17,2.49,2.49,0,0,0-.78-1.09,2.75,2.75,0,0,0-1.67-.46,2.88,2.88,0,0,0-1.79.53,4,4,0,0,0-.83,1V87.08h-2.3v9h2.4V90.66a2.49,2.49,0,0,1,.19-1.11,1.39,1.39,0,0,1,1.36-.65,1.15,1.15,0,0,1,1.17.65,3,3,0,0,1,.17,1.17v5.39h2.38V90.72a2.72,2.72,0,0,1,.19-1,1.36,1.36,0,0,1,1.36-.81,1.18,1.18,0,0,1,1.16.63,1.92,1.92,0,0,1,.16.85v5.76h2.43v-5.7a7.6,7.6,0,0,0-.08-1.34A2.62,2.62,0,0,0,227.14,87.91Z"/><rect class="cls-3" x="229.82" y="87.06" width="2.4" height="9.05"/><rect class="cls-3" x="229.82" y="83.8" width="2.4" height="2.18"/><path class="cls-3" d="M239.29,90.66a14.83,14.83,0,0,1-2.47-.65.62.62,0,0,1-.35-.59.69.69,0,0,1,.33-.57,1.9,1.9,0,0,1,1.1-.24,1.59,1.59,0,0,1,1.33.49,1.31,1.31,0,0,1,.26.72h2.37a2.92,2.92,0,0,0-1.23-2.34,5.12,5.12,0,0,0-2.77-.68,4,4,0,0,0-2.77.9,2.83,2.83,0,0,0-1,2.16,2.08,2.08,0,0,0,.63,1.63,5.19,5.19,0,0,0,2.18,1,14.54,14.54,0,0,1,2.47.71.68.68,0,0,1,.33.61.65.65,0,0,1-.41.62,2.44,2.44,0,0,1-1.11.21,2.25,2.25,0,0,1-1.64-.47,1.65,1.65,0,0,1-.32-.9h-2.4a3,3,0,0,0,1,2.3,4.68,4.68,0,0,0,3.16.9,4.73,4.73,0,0,0,3.09-.85,2.76,2.76,0,0,0,1-2.2,2.29,2.29,0,0,0-.7-1.7A4.61,4.61,0,0,0,239.29,90.66Z"/><path class="cls-3" d="M246.4,84.62h-2.34v2.52H242.8v1.69h1.26V94.4a1.75,1.75,0,0,0,.4,1.25,3,3,0,0,0,2.29.58l1.12,0V94.42l-.23,0h-.23c-.48,0-.77,0-.87-.14a1.09,1.09,0,0,1-.14-.69V88.83h1.47V87.14H246.4Z"/><path class="cls-3" d="M254.19,86.85a2.6,2.6,0,0,0-1.73.55,4.79,4.79,0,0,0-1,1.24V87.06h-2.26v9h2.38V91.78a3.68,3.68,0,0,1,.27-1.61,2,2,0,0,1,1.92-.93h.28l.4,0V86.86h-.31Z"/><path class="cls-3" d="M259.44,93.74l-2-6.68h-2.64l3.33,9.45a1.54,1.54,0,0,1-.15.55,1.26,1.26,0,0,1-.39.58,1.2,1.2,0,0,1-.53.2,4.85,4.85,0,0,1-.67,0l-.29,0v1.9l.57,0h.51a2.71,2.71,0,0,0,2.09-.62A12.38,12.38,0,0,0,260.72,96l3.1-8.9h-2.51Z"/><path class="cls-4" d="M93.29,50.11c.27-1,.52-2.09.78-3.15,1-4.07,1.81-8.29,2.72-12.55.63-2.92,1.42-5.94,2.08-9l1.14.23c4.89,1.05,6.62-5.55,1.72-6.64l-1.74-.4c-5.27-1.24-10.71-2.8-16.06-3.46L82.15,15c-4.49-.37-4.27,5.16-.65,6.48l1,.34c-.47,2.92-.81,5.84-1.26,8.64-.75,4.56-1.57,9-2.16,13.43-.11.88-.24,1.76-.36,2.65a27.7,27.7,0,0,0-9.48,1.65,2.25,2.25,0,0,0-.4,2.22c.4,1.06.79,2.15,1.18,3.22a17.2,17.2,0,0,1,8-1.77c3.46.08,3.94,4.65.48,4.93A14,14,0,0,0,72,59q1.67,4.7,3.29,9.46l.43.13c.35-.06.69-.12,1-.15a12.43,12.43,0,0,1,6.14.93c.34.15.66.33,1,.5,2.47.19,5,.27,7.4.44a44.09,44.09,0,0,1,9.34,1.45c1,.3,1.83.61,4,1.44v.28a17.66,17.66,0,0,1,.08,4.36C104,86.74,99.54,93.7,92.12,97.42a25.52,25.52,0,0,1-15,2.6l-7.59,2.52a29.59,29.59,0,0,0,24.56-1.2c8-4,14.09-11.72,15-23.21C110,65.14,102.92,55.14,93.29,50.11Zm-8.71-28a.06.06,0,0,1,0-.11,42.88,42.88,0,0,1,12.9,2.62c.1,0,.06.22,0,.22A42.64,42.64,0,0,1,84.58,22.1Z"/><path class="cls-5" d="M94.18,75.85c4,.94,6.6-2.26,10.37-2.62,0,.07,0,.15,0,.22v-.28c-2.14-.83-2.93-1.14-4-1.44a44.09,44.09,0,0,0-9.34-1.45c-2.44-.17-4.93-.25-7.4-.44a39.54,39.54,0,0,1,4.53,3A16.68,16.68,0,0,0,94.18,75.85Z"/><path class="cls-5" d="M75.71,68.56l-.43-.13.07.2Z"/><path class="cls-1" d="M104.67,77.81a17.66,17.66,0,0,0-.08-4.36C104.56,75,104.75,76.71,104.67,77.81Z"/><path class="cls-1" d="M82.89,69.34a12.43,12.43,0,0,0-6.14-.93c-.35,0-.69.09-1,.15a43,43,0,0,0,8.17,1.28C83.55,69.67,83.23,69.49,82.89,69.34Z"/><path class="cls-1" d="M80.09,82.32l2.81,8c1.37,3.85-1.12,8.17-5.55,9.64l-.23.08a25.52,25.52,0,0,0,15-2.6C99.54,93.7,104,86.74,104.67,77.81c.08-1.1-.11-2.79-.08-4.36,0-.07,0-.15,0-.22-3.77.36-6.33,3.56-10.37,2.62a16.68,16.68,0,0,1-5.77-3,39.54,39.54,0,0,0-4.53-3,43,43,0,0,1-8.17-1.28l-.36.07C76.91,73.17,78.46,77.74,80.09,82.32Z"/><path class="cls-3" d="M97.5,24.61A42.88,42.88,0,0,0,84.6,22a.06.06,0,0,0,0,.11,42.64,42.64,0,0,0,12.87,2.73C97.56,24.83,97.6,24.65,97.5,24.61Z"/><path class="cls-3" d="M78.53,56.76c3.46-.28,3-4.85-.48-4.93a17.2,17.2,0,0,0-8,1.77c.66,1.79,1.33,3.57,2,5.37A14,14,0,0,1,78.53,56.76Z"/><path class="cls-4" d="M50.48,104a14.31,14.31,0,0,1-3.56.36,6.67,6.67,0,0,1-1-.13c-4-.83-4.39-5.88-5.4-9.09-1.26-4-2.51-8.1-3.67-12.18-.9-3.18-2-6.89-.36-9.52-1.38-4.46-2.6-9.07-2.55-13.51a1.06,1.06,0,0,1,1.92-.64,43.36,43.36,0,0,1,5.36,11.3,19.31,19.31,0,0,1,6.07,0l.64.09c.91-.53,1.82-1,2.72-1.6l.71-.46A31.71,31.71,0,0,1,55,60.15a30.87,30.87,0,0,1,2.08-3,1,1,0,0,1-.12-1.82c.84-.29,1.68-.61,2.52-.9a26.35,26.35,0,0,1,9.81-6.25,2.93,2.93,0,0,1,.72-.68A4.11,4.11,0,0,0,72,43c-.54-1.81-2.67-3.07-6-2-8.19,2.65-16.26,5.66-24.38,8.3q-5.71,1.86-11.45,3.67c-3.64,1.17-7.35,2.08-11,3.07-.82.23-1.78.72-1.7,1.6s1.22,1.11,1.93,1.35c8.05,2.7,8.81,12.49,10.73,19.18,2.54,8.91,5.36,17.87,8.19,27,1.22,3.9,5.8,5.88,10.23,4.41l21-7a32.1,32.1,0,0,1-4.86-2.46A94.09,94.09,0,0,1,50.48,104Z"/><path class="cls-4" d="M59.43,54.41c.7-.25,1.4-.49,2.11-.69l.12,0c.94-.33,1.89-.64,2.82-1a.94.94,0,0,1,.59,1.79c-1.53.54-3.06,1.14-4.62,1.58l-.12,0c-.94.33-1.89.64-2.82,1a.89.89,0,0,1-.48,0,30.87,30.87,0,0,0-2.08,3,31.71,31.71,0,0,0-3.59,8.5c2-1.28,3.94-2.68,6-3.76.29-.6.59-1.2.93-1.79h0c.15-.27.49-.28.91-.15a.52.52,0,0,1,.18-.1l1.84-.67a22.93,22.93,0,0,1,1.66-2.53l-1.7.59a.94.94,0,0,1-.6-1.79l4.88-1.69A18.74,18.74,0,0,1,70,53.6c-.39-1.07-.78-2.16-1.18-3.22a2.25,2.25,0,0,1,.4-2.22A26.35,26.35,0,0,0,59.43,54.41Z"/><path class="cls-4" d="M75.41,99.74A24.6,24.6,0,0,1,71,98.38c-.21-.08-.41-.18-.61-.27-1.79.65-3.51,1.17-4.68,1.61-.33.13-.67.24-1,.36a32.1,32.1,0,0,0,4.86,2.46L77.12,100C76.55,99.94,76,99.86,75.41,99.74Z"/><path class="cls-4" d="M67.24,63.63a5.2,5.2,0,0,1,.88.62l.17-.06c1-.35,1.58,1,.93,1.59l0,0c1,.54,2,1.08,3.09,1.55a25.92,25.92,0,0,0,3,1.06Q73.65,63.66,72,59A16.86,16.86,0,0,0,67.24,63.63Z"/><polygon class="cls-4" points="58.33 63.1 58.33 63.1 58.33 63.1 58.33 63.1"/><path class="cls-4" d="M69.24,65.82q.42,1,.75,2a1,1,0,0,1,.48,1.53c0,.14.08.28.11.41,1.61-.27,3.17-.77,4.77-1.08l-.07-.2a25.92,25.92,0,0,1-3-1.06C71.27,66.9,70.25,66.36,69.24,65.82Z"/><path class="cls-4" d="M59.24,63c-.42-.13-.76-.12-.91.15l.81-.09Z"/><path class="cls-4" d="M70.35,98.11c.2.09.4.19.61.27-.21-.08-.41-.18-.61-.27Z"/><path class="cls-4" d="M58.33,63.1h0c-.34.59-.64,1.19-.93,1.79l.1-.06C57.76,64.27,58,63.69,58.33,63.1Z"/><path class="cls-4" d="M57.61,64.77c.4-.2.85-.4,1.31-.6A.93.93,0,0,1,59.14,63l-.81.09h0c-.3.59-.57,1.17-.83,1.73Z"/><path class="cls-4" d="M82.9,90.3l-2.81-8c-1.63-4.58-3.18-9.15-4.74-13.69-1.6.31-3.16.81-4.77,1.08.19.66.37,1.32.54,2a1,1,0,0,1,.48,1.7c.17.56.33,1.11.52,1.65,0,.09.07.18.1.26A.94.94,0,0,1,72.8,77c.27.75.53,1.49.79,2.24a1,1,0,0,1,.58,1.66c.22.65.45,1.29.67,1.93a1,1,0,0,1,.57,1.64l.82,2.31a1,1,0,0,1,.55,1.55c.28.81.56,1.61.85,2.42a1,1,0,0,1,.49,1.46,1.66,1.66,0,0,1-.18,1.11c-1,2.14-4.43,3.67-7.59,4.81.2.09.4.19.61.27a24.6,24.6,0,0,0,4.45,1.36c.57.12,1.14.2,1.71.28l.23-.08C81.78,98.47,84.27,94.15,82.9,90.3Z"/><path class="cls-4" d="M65.79,56.66a.94.94,0,0,1,.59,1.79l-3.46,1.2a22.93,22.93,0,0,0-1.66,2.53c.92-.33,1.84-.66,2.78-.92l.12,0,2.82-1A.94.94,0,0,1,67.57,62L65,63a5.77,5.77,0,0,1,2.27.65A16.86,16.86,0,0,1,72,59c-.64-1.8-1.31-3.58-2-5.37a18.74,18.74,0,0,0-4.52,3.16Z"/><path class="cls-6" d="M51.36,68.65l-.71.46c-.9.55-1.81,1.07-2.72,1.6,1,.12,2,.25,2.94.33C51,70.25,51.16,69.45,51.36,68.65Z"/><path class="cls-6" d="M68.12,64.25h0a5.2,5.2,0,0,0-.88-.62l-.19.26A1.83,1.83,0,0,1,68.12,64.25Z"/><path class="cls-6" d="M55.39,70.84a.3.3,0,0,1,0-.1c0-.09,0-.18.05-.27a1.8,1.8,0,0,1,0-.19,26,26,0,0,1,1.89-5.39c-2.1,1.08-4,2.48-6,3.76-.2.8-.37,1.6-.49,2.39A15.56,15.56,0,0,0,55.39,70.84Z"/><path class="cls-6" d="M55.46,70.47c0,.09,0,.18-.05.27,0-.15.06-.3.1-.46A1.8,1.8,0,0,0,55.46,70.47Z"/><path class="cls-6" d="M55.41,70.74a.3.3,0,0,0,0,.1h0S55.4,70.77,55.41,70.74Z"/><path class="cls-6" d="M57.5,64.83l-.1.06a26,26,0,0,0-1.89,5.39A29.8,29.8,0,0,1,57.5,64.83Z"/><path class="cls-6" d="M55.45,70.83a12.33,12.33,0,0,0,3-1.15A25.35,25.35,0,0,1,60,64.62h0a.85.85,0,0,1-1.09-.46c-.46.2-.91.4-1.31.6l-.11.06a29.8,29.8,0,0,0-2,5.45c0,.16-.07.31-.1.46s0,.06,0,.1Z"/><path class="cls-6" d="M64.85,63.79c.35.12.69.25,1,.39a2.88,2.88,0,0,1,1.17-.29l.19-.26A5.77,5.77,0,0,0,65,63c-.45.16-.9.3-1.36.44C64.06,63.54,64.48,63.66,64.85,63.79Z"/><path class="cls-6" d="M62.83,63.66c-.5.18-1,.35-1.49.51a6.15,6.15,0,0,1,1.18,1.07,6.87,6.87,0,0,1,.45.84.75.75,0,0,1,.15-.09l.51-.18h0a9.65,9.65,0,0,1,2.25-1.63c-.34-.14-.68-.27-1-.39s-.79-.25-1.24-.37l-.66.21Z"/><path class="cls-6" d="M63,66.08a6.87,6.87,0,0,0-.45-.84,6.15,6.15,0,0,0-1.18-1.07l-1.3.45a25.35,25.35,0,0,0-1.6,5.06,22.41,22.41,0,0,0,4.07-2.88A.89.89,0,0,1,63,66.08Z"/><path class="cls-7" d="M50.15,101.47a6.76,6.76,0,0,1-.81-.4,1.29,1.29,0,0,1-.17.16,2.4,2.4,0,0,1-2.31.45,3.08,3.08,0,0,1-2.33-2l-1.53-5a48,48,0,0,1-4.24-8.38c-1.15-2.79-3.06-6.46-1.13-9.25-.38-1.19-.77-2.39-1.14-3.61-1.64,2.63-.54,6.34.36,9.52,1.16,4.08,2.41,8.14,3.67,12.18,1,3.21,1.45,8.26,5.4,9.09a6.67,6.67,0,0,0,1,.13,14.31,14.31,0,0,0,3.56-.36,94.09,94.09,0,0,0,14.19-3.93c-.41-.26-.82-.52-1.22-.8C59.21,101,54.08,103.09,50.15,101.47Z"/><path class="cls-7" d="M43.1,73.3c1.64-.81,3.24-1.69,4.83-2.59l-.64-.09a19.31,19.31,0,0,0-6.07,0c.36,1,.69,2.08,1,3.12Z"/><path class="cls-7" d="M69.24,65.82l0,0,0,0Z"/><path class="cls-7" d="M66.3,98.22c-.88.29-1.84.66-2.85,1.06.4.28.81.54,1.22.8.33-.12.67-.23,1-.36,1.17-.44,2.89-1,4.68-1.61-.52-.23-1-.47-1.53-.73Z"/><path class="cls-7" d="M70.07,69.58l-.71.26v0l.57-.05.64-.11c0-.13-.07-.27-.11-.41A.85.85,0,0,1,70.07,69.58Z"/><path class="cls-7" d="M68.88,66l-.19.07c.11.64.22,1.28.33,1.9l.46-.16a.82.82,0,0,1,.51,0q-.33-1-.75-2l0,0A.94.94,0,0,1,68.88,66Z"/><path class="cls-7" d="M68.82,97.38h0c.5.26,1,.5,1.53.73h0C69.83,97.88,69.32,97.64,68.82,97.38Z"/><path class="cls-7" d="M72.25,81.62q.33.9.69,1.77l1.54-.53a1.2,1.2,0,0,1,.36,0c-.22-.64-.45-1.28-.67-1.93a.82.82,0,0,1-.29.17Z"/><path class="cls-7" d="M73.72,85.14c.33.67.68,1.35,1,2l1-.35a.85.85,0,0,1,.44,0l-.82-2.31a.93.93,0,0,1-.34.2Z"/><path class="cls-7" d="M75.74,95.09l-6.92,2.29c.5.26,1,.5,1.53.73,3.16-1.14,6.55-2.67,7.59-4.81A3.69,3.69,0,0,1,75.74,95.09Z"/><path class="cls-7" d="M71,77.67c.19.73.4,1.45.62,2.16l1.63-.57a1.54,1.54,0,0,1,.3,0c-.26-.75-.52-1.49-.79-2.24a.73.73,0,0,1-.23.13Z"/><path class="cls-7" d="M70.16,73.94c.13.64.27,1.26.42,1.87l1.4-.48a1.09,1.09,0,0,1,.24,0c0-.08-.07-.17-.1-.26-.19-.54-.35-1.09-.52-1.65a.83.83,0,0,1-.22.14Z"/><path class="cls-7" d="M76.38,88.59l-.61.21c.41.65.86,1.29,1.34,1.94a.78.78,0,0,1,.52,0c-.29-.81-.57-1.61-.85-2.42A.85.85,0,0,1,76.38,88.59Z"/><path class="cls-7" d="M69.37,69.87c.13.76.27,1.49.41,2.21l1-.35a1,1,0,0,1,.33,0c-.17-.65-.35-1.31-.54-2l-.64.11Z"/><path class="cls-7" d="M42.25,73.72c.43,1.34.85,2.68,1.28,4l6.72,20.13a3,3,0,0,1-.91,3.25,6.76,6.76,0,0,0,.81.4c3.93,1.62,9.06-.51,13.3-2.19C54.55,93.15,49,82.47,50.87,71c-1-.08-2-.21-2.94-.33-1.59.9-3.19,1.78-4.83,2.59Z"/><path class="cls-7" d="M37.63,77.06c-1.93,2.79,0,6.46,1.13,9.25A48,48,0,0,0,43,94.69q-2.31-7.64-4.64-15.29C38.12,78.63,37.88,77.85,37.63,77.06Z"/><path class="cls-7" d="M67,64.66l1.17-.41a1.83,1.83,0,0,0-1.07-.36c-.14.21-.26.42-.39.63Z"/><path class="cls-7" d="M65.55,95.39a26.11,26.11,0,0,1-3-2.49c-.38-.36-.74-.73-1.09-1.11a28.48,28.48,0,0,1-2.15-2.64c-.18-.27-.37-.54-.54-.82a24.64,24.64,0,0,1-1.95-3.57h0c-.23-.53-.43-1.06-.62-1.6,0-.09-.07-.19-.1-.29-.17-.5-.32-1-.46-1.52a.19.19,0,0,0,0-.07,22.8,22.8,0,0,1-.52-8.93,2,2,0,0,1,0-.26c.06-.42.13-.84.22-1.25a15.56,15.56,0,0,1-4.52.2C49,82.47,54.55,93.15,63.45,99.28c1-.4,2-.77,2.85-1.06l2.52-.84L68.16,97A27.28,27.28,0,0,1,65.55,95.39Z"/><path class="cls-7" d="M58.8,88.33a24.64,24.64,0,0,1-1.95-3.57h0A24.64,24.64,0,0,0,58.8,88.33Z"/><path class="cls-7" d="M59.34,89.15a28.48,28.48,0,0,0,2.15,2.64A28.48,28.48,0,0,1,59.34,89.15Z"/><path class="cls-7" d="M56.13,82.87c0,.1.07.2.1.29C56.2,83.07,56.16,83,56.13,82.87Z"/><path class="cls-7" d="M66.66,64.52l-.19.3.48-.16Z"/><path class="cls-7" d="M62.58,92.9a26.11,26.11,0,0,0,3,2.49A26.11,26.11,0,0,1,62.58,92.9Z"/><path class="cls-7" d="M69.37,69.87v0l-.13,0Z"/><path class="cls-7" d="M55.65,81.28a.19.19,0,0,1,0,.07Z"/><path class="cls-7" d="M64.63,68.79a4.1,4.1,0,0,0,.46.31l.18.09c.43-.14.85-.28,1.27-.39l.12,0L69,68c-.11-.62-.22-1.26-.33-1.9l-3.45,1.2C65,67.76,64.81,68.27,64.63,68.79Z"/><path class="cls-7" d="M55.17,72.09a2,2,0,0,0,0,.26A2,2,0,0,1,55.17,72.09Z"/><path class="cls-7" d="M55.39,70.84h0c-.09.41-.16.83-.22,1.25C55.23,71.67,55.31,71.25,55.39,70.84Z"/><path class="cls-7" d="M55.67,81.35c.14.51.29,1,.46,1.52C56,82.37,55.81,81.86,55.67,81.35Z"/><path class="cls-7" d="M58.8,88.33c.17.28.36.55.54.82C59.16,88.88,59,88.61,58.8,88.33Z"/><path class="cls-7" d="M55.65,81.28a23.17,23.17,0,0,1-.52-8.93A22.8,22.8,0,0,0,55.65,81.28Z"/><path class="cls-7" d="M56.23,83.16c.19.54.39,1.07.62,1.6C56.62,84.23,56.42,83.7,56.23,83.16Z"/><path class="cls-7" d="M62.58,92.9c-.38-.36-.74-.73-1.09-1.11C61.84,92.17,62.2,92.54,62.58,92.9Z"/><path class="cls-7" d="M68.82,97.38h0L68.16,97Z"/><path class="cls-7" d="M77.69,92.53c-1.54.54-3.06,1.14-4.63,1.58l-.12,0-2.82,1a.91.91,0,0,1-1.2-1c-3.88-.69-6.75-5.71-8.24-8.66a24.47,24.47,0,0,1-2.43-14.79c.06-.34.12-.69.19-1a12.33,12.33,0,0,1-3,1.15h-.06c-.08.41-.16.83-.22,1.25a2,2,0,0,0,0,.26,23.17,23.17,0,0,0,.52,8.93l0,.07c.14.51.29,1,.46,1.52,0,.1.07.2.1.29.19.54.39,1.07.62,1.6h0a24.64,24.64,0,0,0,1.95,3.57c.17.28.36.55.54.82a28.48,28.48,0,0,0,2.15,2.64c.35.38.71.75,1.09,1.11a26.11,26.11,0,0,0,3,2.49A27.28,27.28,0,0,0,68.16,97l.66.34,6.92-2.29a3.69,3.69,0,0,0,2.2-1.79,1.66,1.66,0,0,0,.18-1.11A.88.88,0,0,1,77.69,92.53Z"/><path class="cls-7" d="M65.27,69.19l-.18-.09a4.1,4.1,0,0,1-.46-.31c-.08.23-.17.47-.24.7Z"/><path class="cls-7" d="M65.45,71.16l-.12,0-1.52.52c-.13.65-.25,1.3-.32,2A24.38,24.38,0,0,0,65,85.4c1.08,2.72,3.62,5.49,4.08,8.32a.91.91,0,0,1,.48-.39c1.53-.54,3.06-1.15,4.63-1.59l.12,0,2.81-1h0c-.48-.65-.93-1.29-1.34-1.94l-4.55,1.58a.94.94,0,0,1-.6-1.79l4.15-1.44c-.37-.66-.72-1.34-1-2-1.08.39-2.17.79-3.27,1.1l-.12,0c-.94.33-1.89.64-2.82,1a.94.94,0,0,1-.59-1.79c1.53-.54,3.06-1.14,4.62-1.58l.12,0,1.28-.44q-.36-.87-.69-1.77l-3.53,1.23a.94.94,0,0,1-.6-1.79l3.54-1.23c-.22-.71-.43-1.43-.62-2.16-1,.37-2.05.74-3.09,1l-.12,0L65,79.7a.94.94,0,0,1-.59-1.78c1.53-.54,3.06-1.15,4.62-1.59l.12,0,1.42-.49c-.15-.61-.29-1.23-.42-1.87l-3.94,1.37a.94.94,0,0,1-.6-1.79l4.16-1.44c-.14-.72-.28-1.45-.41-2.21h-.14C68,70.34,66.72,70.81,65.45,71.16Z"/><path class="cls-7" d="M67.05,63.89a2.88,2.88,0,0,0-1.17.29l.78.34C66.79,64.31,66.91,64.1,67.05,63.89Z"/><path class="cls-7" d="M64.63,68.79c.18-.52.38-1,.61-1.54l-1.48.51A3.52,3.52,0,0,0,64.63,68.79Z"/><path class="cls-7" d="M63.63,65.81l2.84-1,.19-.3-.78-.34a9.65,9.65,0,0,0-2.25,1.63Z"/><path class="cls-7" d="M63.49,73.67c.07-.65.19-1.3.32-2l-1.3.45a.94.94,0,0,1-.59-1.79l2.47-.89c.07-.23.16-.47.24-.7a3.52,3.52,0,0,1-.87-1h0a.91.91,0,0,1-1.21-1,22.41,22.41,0,0,1-4.07,2.88c-.07.34-.13.69-.19,1A24.47,24.47,0,0,0,60.68,85.5c1.49,3,4.36,8,8.24,8.66a.87.87,0,0,1,.13-.44c-.46-2.83-3-5.6-4.08-8.32A24.38,24.38,0,0,1,63.49,73.67Z"/><path class="cls-3" d="M39.21,71.21a9.51,9.51,0,0,1,2-.61,43.36,43.36,0,0,0-5.36-11.3,1.06,1.06,0,0,0-1.92.64c0,4.44,1.17,9,2.55,13.51A5.88,5.88,0,0,1,39.21,71.21Z"/><path class="cls-3" d="M38.12,76.45a14.27,14.27,0,0,1,4.13-2.73c-.34-1-.67-2.08-1-3.12a9.51,9.51,0,0,0-2,.61,5.88,5.88,0,0,0-2.72,2.24c.37,1.22.76,2.42,1.14,3.61A4.52,4.52,0,0,1,38.12,76.45Z"/><path class="cls-3" d="M46.38,98.79A25,25,0,0,1,43,94.69l1.53,5a3.08,3.08,0,0,0,2.33,2,2.4,2.4,0,0,0,2.31-.45,1.29,1.29,0,0,0,.17-.16l-.23-.11A14.63,14.63,0,0,1,46.38,98.79Z"/><path class="cls-3" d="M50.25,97.82,43.53,77.69c-.43-1.29-.85-2.63-1.28-4a14.27,14.27,0,0,0-4.13,2.73,4.52,4.52,0,0,0-.49.61c.25.79.49,1.57.73,2.34Q40.68,87.05,43,94.69a25,25,0,0,0,3.38,4.1A14.63,14.63,0,0,0,49.11,101l.23.11A3,3,0,0,0,50.25,97.82Z"/><path d="M56.91,55.31A1,1,0,0,0,57,57.13a27.57,27.57,0,0,1,2.4-2.72C58.59,54.7,57.75,55,56.91,55.31Z"/><path d="M57.51,57.1c.93-.33,1.88-.64,2.82-1l.12,0c1.56-.44,3.09-1,4.62-1.58a.94.94,0,0,0-.59-1.79c-.93.33-1.88.64-2.82,1l-.12,0c-.71.2-1.41.44-2.11.69A27.57,27.57,0,0,0,57,57.13.89.89,0,0,0,57.51,57.1Z"/><path d="M65.5,56.76l-4.88,1.69a.94.94,0,0,0,.6,1.79l1.7-.59A20.82,20.82,0,0,1,65.5,56.76Z"/><path d="M65.79,56.66l-.29.1a20.82,20.82,0,0,0-2.58,2.89l3.46-1.2A.94.94,0,0,0,65.79,56.66Z"/><path d="M60.82,63c.14-.27.28-.54.44-.81l-1.84.67a.52.52,0,0,0-.18.1l.12,0A11.85,11.85,0,0,1,60.82,63Z"/><path d="M60.52,63.59q.13-.3.3-.6a11.85,11.85,0,0,0-1.46,0,6.08,6.08,0,0,1,1.15.6Z"/><path d="M59.36,63l-.12,0-.1.06Z"/><path d="M59.36,63l-.22,0a.93.93,0,0,0-.22,1.16c.51-.21,1-.41,1.59-.58A6.08,6.08,0,0,0,59.36,63Z"/><path d="M62.24,63.14A10.1,10.1,0,0,1,65,63l2.6-.94A.94.94,0,0,0,67,60.26l-2.82,1-.12,0c-.94.26-1.86.59-2.78.92-.16.27-.3.54-.44.81A12.61,12.61,0,0,1,62.24,63.14Z"/><path d="M62.24,63.14A12.61,12.61,0,0,0,60.82,63q-.16.3-.3.6A14.49,14.49,0,0,1,62.24,63.14Z"/><polygon points="60.51 63.59 60.52 63.59 60.52 63.59 60.51 63.59"/><path d="M60,64.63h0c.15-.34.31-.69.48-1h0c-.55.17-1.08.37-1.59.58A.85.85,0,0,0,60,64.63Z"/><path d="M62.24,63.14c.49.08.94.17,1.37.28.46-.14.91-.28,1.36-.44A10.1,10.1,0,0,0,62.24,63.14Z"/><path d="M60.52,63.59c.28.18.56.38.82.58.5-.16,1-.33,1.49-.51l.12,0,.66-.21c-.43-.11-.88-.2-1.37-.28a14.49,14.49,0,0,0-1.72.45Z"/><path d="M60.52,63.59c-.17.34-.33.69-.48,1l1.3-.45C61.08,64,60.8,63.77,60.52,63.59Z"/><path d="M68.38,64.48l0,0h0a4,4,0,0,1,.76,1.18.2.2,0,0,1,0,.08c.65-.6.07-1.94-.93-1.59l-.17.06.07.06Z"/><path d="M68.19,64.31l-.07-.06h0Z"/><path d="M68.42,64.51l0,0s0,0,0,0Z"/><path d="M63.63,65.81l-.51.18a.75.75,0,0,0-.15.09c0,.08.07.15.1.23Z"/><path d="M62.51,66.8l.56-.49c0-.08-.07-.15-.1-.23A.89.89,0,0,0,62.51,66.8Z"/><path d="M68.19,64.31l.19.17Z"/><path d="M68.42,64.52l.17,1,.6.32,0,0a.2.2,0,0,0,0-.08A4,4,0,0,0,68.42,64.52Z"/><path d="M68.88,66a.94.94,0,0,0,.31-.18l-.6-.32c0,.19.07.38.1.57Z"/><path d="M68.59,65.48l-.17-1s0,0,0,0l-.19-.17-.07-.06L67,64.66C67.5,64.92,68.05,65.19,68.59,65.48Z"/><path d="M66.47,64.82a23.07,23.07,0,0,0-1.23,2.43l3.45-1.2c0-.19-.07-.38-.1-.57-.54-.29-1.09-.56-1.64-.82Z"/><path d="M63.76,67.76l1.48-.51a23.07,23.07,0,0,1,1.23-2.43l-2.84,1-.56.5C63.3,66.81,63.5,67.31,63.76,67.76Z"/><path d="M62.51,66.8a.91.91,0,0,0,1.21,1h0c-.26-.45-.46-1-.69-1.45Z"/><path d="M70,67.77q.26.77.48,1.53A1,1,0,0,0,70,67.77Z"/><path d="M69.48,67.79,69,68c.11.64.23,1.27.34,1.89l.71-.26a.85.85,0,0,0,.4-.28q-.23-.76-.48-1.53A.82.82,0,0,0,69.48,67.79Z"/><path d="M66.54,68.8c-.42.11-.84.25-1.27.39a7.68,7.68,0,0,0,4,.69l.13,0c-.11-.62-.23-1.25-.34-1.89l-2.36.81Z"/><path d="M63.81,71.72l1.52-.52.12,0c1.27-.35,2.53-.82,3.78-1.28a7.68,7.68,0,0,1-4-.69l-.88.3A22.87,22.87,0,0,0,63.81,71.72Z"/><path d="M61.92,70.38a.94.94,0,0,0,.59,1.79l1.3-.45a22.87,22.87,0,0,1,.58-2.23Z"/><path d="M71.12,71.68l.48,1.7A1,1,0,0,0,71.12,71.68Z"/><path d="M69.78,72.08c.13.63.25,1.25.38,1.86l1.22-.42a.83.83,0,0,0,.22-.14l-.48-1.7a1,1,0,0,0-.33,0Z"/><path d="M66.22,75.31l3.94-1.37c-.13-.61-.25-1.23-.38-1.86l-4.16,1.44A.94.94,0,0,0,66.22,75.31Z"/><path d="M72.22,75.29c.19.57.39,1.13.58,1.69A.94.94,0,0,0,72.22,75.29Z"/><path d="M70.58,75.81c.14.63.3,1.25.46,1.86l1.53-.56A.73.73,0,0,0,72.8,77c-.19-.56-.39-1.12-.58-1.69a1.09,1.09,0,0,0-.24,0Z"/><path d="M69,76.33c-1.56.44-3.09,1-4.62,1.59A.94.94,0,0,0,65,79.7l2.82-1,.12,0c1-.29,2.07-.66,3.09-1-.16-.61-.32-1.23-.46-1.86l-1.42.49Z"/><path d="M73.59,79.22c.19.56.38,1.11.58,1.66A1,1,0,0,0,73.59,79.22Z"/><path d="M71.66,79.83c.18.61.38,1.2.59,1.79l1.63-.57a.82.82,0,0,0,.29-.17c-.2-.55-.39-1.1-.58-1.66a1.54,1.54,0,0,0-.3,0Z"/><path d="M68.72,82.85l3.53-1.23c-.21-.59-.41-1.18-.59-1.79l-3.54,1.23A.94.94,0,0,0,68.72,82.85Z"/><path d="M74.84,82.81l.57,1.64A1,1,0,0,0,74.84,82.81Z"/><path d="M72.94,83.39c.25.59.51,1.17.78,1.75l1.35-.49a.93.93,0,0,0,.34-.2l-.57-1.64a1.2,1.2,0,0,0-.36,0Z"/><path d="M71.54,83.87c-1.56.44-3.09,1-4.62,1.58a.94.94,0,0,0,.59,1.79c.93-.33,1.88-.64,2.82-1l.12,0c1.1-.31,2.19-.71,3.27-1.1-.27-.58-.53-1.16-.78-1.75l-1.28.44Z"/><path d="M78.12,92.19a1,1,0,0,0-.49-1.46L78.08,92A1.29,1.29,0,0,1,78.12,92.19Z"/><path d="M77.11,90.74c.31.42.63.84,1,1.26l-.45-1.27A.78.78,0,0,0,77.11,90.74Z"/><path d="M77.11,90.74h0l-2.81,1-.12,0c-1.57.44-3.1,1.05-4.63,1.59a.91.91,0,0,0-.48.39,2.9,2.9,0,0,1,.06.41s0,.06-.07.06l-.12,0a.91.91,0,0,0,1.2,1l2.82-1,.12,0c1.57-.44,3.09-1,4.63-1.58a.88.88,0,0,0,.43-.34,1.29,1.29,0,0,0,0-.19C77.74,91.58,77.42,91.16,77.11,90.74Z"/><path d="M69,94.19s.08,0,.07-.06a2.9,2.9,0,0,0-.06-.41.87.87,0,0,0-.13.44Z"/><path d="M76.23,86.76c.18.52.36,1,.55,1.55A1,1,0,0,0,76.23,86.76Z"/><path d="M75.79,86.8l-1,.35c.32.56.65,1.11,1,1.65l.61-.21a.85.85,0,0,0,.4-.28c-.19-.52-.37-1-.55-1.55A.85.85,0,0,0,75.79,86.8Z"/><path d="M71.22,90.38l4.55-1.58c-.35-.54-.68-1.09-1-1.65l-4.15,1.44A.94.94,0,0,0,71.22,90.38Z"/></g></g></svg>