<svg xmlns="http://www.w3.org/2000/svg" viewBox="0 0 66.86 82.59"><defs><style>.cls-1{fill:#f9ac7e;}.cls-12,.cls-2{fill:#d67b57;}.cls-3{fill:#ef4764;}.cls-4{fill:#f68f63;}.cls-5{fill:#86473a;}.cls-6{fill:#fff;}.cls-7{fill:#94bdd3;opacity:0.6;}.cls-8{fill:#47271f;}.cls-9{fill:#281414;}.cls-10{fill:#18151e;}.cls-11{fill:#b26a45;}.cls-12{opacity:0.4;}.cls-13{fill:none;stroke:#641c25;stroke-linecap:round;stroke-miterlimit:10;stroke-width:0.73px;}.cls-14{fill:#73392f;}.cls-15{fill:#a36154;}</style></defs><title>Asset 2</title><g id="Layer_2" data-name="Layer 2"><g id="Capa_1" data-name="Capa 1"><path class="cls-1" d="M59.57,47.85S62,41.33,65.16,42.4s2,19.17-3.8,17.24S59.57,47.85,59.57,47.85Z"/><path class="cls-2" d="M65.64,49.34s-.25-4.87-1.79-4.6-4.84,11-2.66,12.58S64.67,50,62,51.38C62,51.38,63.86,41.57,65.64,49.34Z"/><path class="cls-1" d="M7.29,47.85S4.85,41.33,1.7,42.4s-2,19.17,3.8,17.24S7.29,47.85,7.29,47.85Z"/><path class="cls-2" d="M1.22,49.34s.25-4.87,1.79-4.6,4.84,11,2.66,12.58S2.19,50,4.83,51.38C4.83,51.38,3,41.57,1.22,49.34Z"/><path class="cls-1" d="M59.87,53.39c0,13.52-14.82,29.2-26.39,29.2S7.09,66.91,7.09,53.39,2.77,8.2,33.48,8.2,59.87,39.87,59.87,53.39Z"/><path class="cls-3" d="M27.46,67.47s1.3-.73,6.66-.81c0,0,5.43-.19,6.53,1C40.65,67.69,33.47,69.78,27.46,67.47Z"/><path class="cls-3" d="M27.17,67.65s1.38,3.83,6.95,3.65c0,0,5.88,0,6.79-3.72A24.08,24.08,0,0,1,27.17,67.65Z"/><path class="cls-4" d="M31.18,63.33s2.18,5.28,5.08,0A5.25,5.25,0,0,1,31.18,63.33Z"/><path class="cls-4" d="M16.57,15.38A23.86,23.86,0,0,0,8.81,27.73L7.67,40.67,8.88,53.58s3.3-7.07,9.41-29.06c0,0,16.44,14.1,30.41,14.78C57,39.7,59,44.56,60.07,46.51c.07-5.5-.11-11.79-1.59-17.57-5.58-4.56-13.72-9.76-13.72-9.76Z"/><path class="cls-5" d="M13.15,39a4.05,4.05,0,0,1,.36-.68c.13-.2.31-.43.52-.69a5.66,5.66,0,0,1,.82-.79A7.57,7.57,0,0,1,16,36.1a9.88,9.88,0,0,1,3-1A12.1,12.1,0,0,1,20.69,35a9.42,9.42,0,0,1,1.69.22,10.75,10.75,0,0,1,1.58.44c.49.2,1,.36,1.41.57l1.19.64A17.29,17.29,0,0,1,28.24,38l.63.43a1.16,1.16,0,0,1-1.31,1.91l0,0-.08-.06-.55-.42c-.35-.24-.82-.68-1.46-1.06l-1-.62c-.36-.22-.77-.38-1.18-.59a7.75,7.75,0,0,0-1.3-.49,10.78,10.78,0,0,0-1.39-.32,13.34,13.34,0,0,0-1.41-.09,8.53,8.53,0,0,0-1.37.19,7.93,7.93,0,0,0-1.25.39c-.37.19-.74.34-1.06.54s-.6.37-.87.53-.47.33-.66.47c-.36.26-.57.43-.57.43a.12.12,0,0,1-.17,0,.13.13,0,0,1,0-.13Z"/><path class="cls-6" d="M13.78,48.06s-.6-5.75,6.17-5.75a7.72,7.72,0,0,1,7.67,6.91S18.36,58,13.78,48.06Z"/><path class="cls-7" d="M20,42.31c-6.77,0-6.17,5.75-6.17,5.75a12.69,12.69,0,0,0,.67,1.28c5.07-5.68,10.86-1.67,12.92.1l.25-.22A7.72,7.72,0,0,0,20,42.31Z"/><path class="cls-8" d="M25.3,47a3.88,3.88,0,1,1-3.88-3.88A3.88,3.88,0,0,1,25.3,47Z"/><path class="cls-9" d="M23.19,47a1.77,1.77,0,1,1-1.77-1.77A1.76,1.76,0,0,1,23.19,47Z"/><path class="cls-6" d="M21.49,45.39a1.12,1.12,0,1,1-1.12-1.12A1.12,1.12,0,0,1,21.49,45.39Z"/><path class="cls-10" d="M27.62,49.22l-.31-.85a8.3,8.3,0,0,0-.37-1l-.64-1.12c-.29-.37-.62-.76-1-1.16l-.64-.52-.32-.26L24,44.14l-.75-.41-.83-.3a4.23,4.23,0,0,0-.87-.2,3.26,3.26,0,0,0-.88-.1,6,6,0,0,0-.85,0l-1,.1a10.47,10.47,0,0,0-1.56.42c-.24.09-.46.21-.69.31s-.41.24-.6.37a4.38,4.38,0,0,0-.95.92,5.72,5.72,0,0,0-.64,1,8.93,8.93,0,0,0-.39.92c-.18.53-.26.87-.26.87a3,3,0,0,1-.24-.92,5.54,5.54,0,0,1,0-1.11,4.88,4.88,0,0,1,.38-1.45,4.76,4.76,0,0,1,1-1.52,7.42,7.42,0,0,1,.8-.63,7.49,7.49,0,0,1,.94-.47,8.05,8.05,0,0,1,1-.3l1.09-.14h1a7.45,7.45,0,0,1,1.1.11,4.69,4.69,0,0,1,1.05.23,5.82,5.82,0,0,1,1,.35l.93.46c.28.18.56.39.82.58l.38.3.33.35.62.68c.32.5.62,1,.86,1.42s.34.92.48,1.31a7.14,7.14,0,0,1,.2,1C27.58,48.89,27.62,49.22,27.62,49.22Z"/><path class="cls-5" d="M54.59,39.17s-.2-.17-.57-.43c-.18-.14-.39-.3-.65-.47s-.55-.35-.88-.53-.69-.35-1.06-.54a7.81,7.81,0,0,0-1.24-.39,8.86,8.86,0,0,0-1.37-.19,13.53,13.53,0,0,0-1.42.09A10.64,10.64,0,0,0,46,37a8.21,8.21,0,0,0-1.31.49c-.41.21-.81.37-1.17.59l-1,.62c-.63.38-1.1.82-1.46,1.06l-.54.42-.08.06A1.16,1.16,0,0,1,39,38.42l0,0L39.7,38a18.64,18.64,0,0,1,1.68-1.09l1.19-.64c.43-.21.93-.37,1.42-.57a10.41,10.41,0,0,1,1.58-.44A9.3,9.3,0,0,1,47.26,35a12.17,12.17,0,0,1,1.71.08,10.13,10.13,0,0,1,3,1,7.57,7.57,0,0,1,1.12.77,6.11,6.11,0,0,1,.81.79,7.2,7.2,0,0,1,.53.69,3.48,3.48,0,0,1,.35.68h0a.13.13,0,0,1-.07.17A.14.14,0,0,1,54.59,39.17Z"/><path class="cls-6" d="M54.17,48.06s.6-5.75-6.18-5.75a7.73,7.73,0,0,0-7.67,6.91S49.59,58,54.17,48.06Z"/><path class="cls-7" d="M48,42.31c6.78,0,6.18,5.75,6.18,5.75-.22.47-.44.89-.67,1.28-5.07-5.68-10.86-1.67-12.93.1l-.25-.22A7.73,7.73,0,0,1,48,42.31Z"/><path class="cls-8" d="M42.65,47a3.88,3.88,0,1,0,3.87-3.88A3.87,3.87,0,0,0,42.65,47Z"/><path class="cls-9" d="M44.76,47a1.77,1.77,0,1,0,1.76-1.77A1.76,1.76,0,0,0,44.76,47Z"/><path class="cls-6" d="M46.46,45.39a1.12,1.12,0,0,0,2.24,0,1.12,1.12,0,0,0-2.24,0Z"/><path class="cls-10" d="M40.32,49.22s0-.33.13-.9a7.14,7.14,0,0,1,.2-1L41.12,46c.25-.45.54-.92.87-1.42.2-.22.4-.45.62-.68l.32-.35.39-.3c.26-.19.53-.4.81-.58l.93-.46a5.64,5.64,0,0,1,1-.35,4.6,4.6,0,0,1,1-.23,7.59,7.59,0,0,1,1.1-.11h1c.35,0,.72.08,1.08.13a8.73,8.73,0,0,1,1,.3,8.24,8.24,0,0,1,.94.47,10.09,10.09,0,0,1,.8.63,4.93,4.93,0,0,1,1,1.52A4.56,4.56,0,0,1,54.43,46a5,5,0,0,1,0,1.11,3.47,3.47,0,0,1-.24.92,8.92,8.92,0,0,0-.27-.87,7.15,7.15,0,0,0-.39-.92,5.13,5.13,0,0,0-.63-1,4.62,4.62,0,0,0-1-.92c-.19-.13-.4-.25-.61-.37s-.44-.22-.69-.31a10.67,10.67,0,0,0-1.55-.42l-1-.1a6,6,0,0,0-.85,0,3.26,3.26,0,0,0-.88.1,4.14,4.14,0,0,0-.86.2l-.83.3-.75.41-.38.21-.32.26-.63.52c-.35.4-.68.79-1,1.16L41,47.41a8,8,0,0,0-.36,1Z"/><path class="cls-11" d="M30.68,62.91a9.56,9.56,0,0,0,1,.37,8.05,8.05,0,0,0,1,.25,4.91,4.91,0,0,0,1.09.09,6.38,6.38,0,0,0,1.08-.11l.51-.13.47-.14c.3-.08.54-.19.73-.24l.3-.09-.17.26a2.84,2.84,0,0,1-.55.6,3.83,3.83,0,0,1-1,.64,4.47,4.47,0,0,1-.65.2,4.17,4.17,0,0,1-.71.08,3.83,3.83,0,0,1-1.37-.25,3.29,3.29,0,0,1-1-.63A2.51,2.51,0,0,1,30.68,62.91Z"/><path class="cls-12" d="M30.68,76.29a6.57,6.57,0,0,1,5.78,0s.61.91,0,1.09a19.91,19.91,0,0,1-5.78,0C29.91,77.13,30.18,76.51,30.68,76.29Z"/><path class="cls-13" d="M26.89,67.58a30.38,30.38,0,0,0,14.45-.11"/><path class="cls-10" d="M54.17,47.39a8,8,0,0,0,1.41-4.32A18.49,18.49,0,0,1,51,42.31S54.16,44,54.17,47.39Z"/><path class="cls-10" d="M13.59,47.39a8.1,8.1,0,0,1-1.41-4.32,18.59,18.59,0,0,0,4.63-.76S13.6,44,13.59,47.39Z"/><path class="cls-4" d="M7.09,53.39c0,13.52,14.82,29.2,26.39,29.2A14.74,14.74,0,0,0,37,82.13C26.2,80.53,9.17,74.25,9.54,43.07A57.16,57.16,0,0,1,15,16.78h0l-.54.56-.2.21-.37.42-.18.2-.48.6-.14.19c-.12.16-.24.31-.35.47l-.17.24c-.12.16-.23.33-.34.5a1.63,1.63,0,0,0-.11.17c-.14.22-.28.43-.41.65l-.15.25-.27.48-.14.25c-.12.22-.24.45-.35.68l-.1.2c-.09.18-.17.35-.25.53l-.13.28c-.08.18-.16.35-.23.53l-.1.22c-.1.24-.19.48-.28.72l-.11.27c-.06.17-.12.35-.19.52l-.09.28c-.09.25-.17.49-.25.74l-.06.2-.18.6-.09.3-.15.55a1.82,1.82,0,0,1-.07.25l-.18.77a2.86,2.86,0,0,0-.07.28l-.12.55-.06.3-.15.71c0,.08,0,.16,0,.24l-.12.65c0,.11,0,.21,0,.31l-.09.57c0,.09,0,.18,0,.27,0,.26-.08.53-.11.79,0,.09,0,.18,0,.28s0,.38-.07.56l0,.32c0,.22,0,.44-.07.66l0,.25-.06.71,0,.31c0,.19,0,.38,0,.56s0,.19,0,.29c0,.26,0,.52,0,.78a2.26,2.26,0,0,0,0,.26,5.63,5.63,0,0,0,0,.58c0,.1,0,.2,0,.31s0,.41,0,.62a1.34,1.34,0,0,0,0,.2c0,.26,0,.52,0,.78a2.71,2.71,0,0,0,0,.29c0,.18,0,.37,0,.55a2.62,2.62,0,0,1,0,.28v.61C6.92,47.25,7.09,50.68,7.09,53.39Z"/><path class="cls-5" d="M5.35,44.27s1.16,6.89,3.8,4.44S11,28.81,16,22.39A21.65,21.65,0,0,1,31.18,25.8c7.24,5,16.33,16.07,26.23,10.88,0,0,.58,12.84,2.56,12s3.21-5.63,4.14-6.4c0,0,0-6,.49-12.46s3-25.8-25.7-29.7c0,0-17-1.94-22.89,8,0,0-6.08.56-9.12,5.43S.48,34.51,5.35,44.27Z"/><path class="cls-14" d="M60,48.71c2-.81,3.21-5.63,4.14-6.4,0,0,0-6,.49-12.46A46.92,46.92,0,0,0,64.76,22c-6.07,10.45-21,1.8-30.72-1.58-11.2-3.9-18,1.94-18,1.94A21.65,21.65,0,0,1,31.18,25.8c7.24,5,16.33,16.07,26.23,10.88C57.41,36.68,58,49.52,60,48.71Z"/><path class="cls-15" d="M64.41,19.38a20.44,20.44,0,0,0-4.72-9.94c-3.15.5-7.84.34-14.93-1.24-14.93-3.32-24.39,2.64-24.39,2.64,1.43,0,8.11-2.91,23.4,5.22A31.68,31.68,0,0,0,64.41,19.38Z"/></g></g></svg>