<svg xmlns="http://www.w3.org/2000/svg" xmlns:xlink="http://www.w3.org/1999/xlink" viewBox="0 0 293 123"><defs><style>.cls-1{fill:url(#linear-gradient);}.cls-2{fill:url(#linear-gradient-3);}.cls-3{fill:#00479b;}.cls-4{fill:#fff;}.cls-5{fill:#c6c6c5;}.cls-6{fill:#9d4029;}.cls-7{fill:#ed7044;}.cls-8{fill:#d7693e;}.cls-9{fill:#0c4f63;}.cls-10{fill:#1e7e9e;}.cls-11{fill:#1a718d;}.cls-12{fill:#005c64;}.cls-13{fill:#00b0c2;}.cls-14{fill:#00a1b0;}.cls-15{fill:#7b2721;}.cls-16{fill:#e64645;}.cls-17{fill:#cf383c;}.cls-18{fill:#7e1210;}.cls-19{fill:#841312;}.cls-20{fill:#8e1315;}.cls-21{fill:#831212;}.cls-22{fill:#af161e;}</style><linearGradient id="linear-gradient" y1="93.4" x2="293" y2="93.4" gradientUnits="userSpaceOnUse"><stop offset="0" stop-color="#004bb3"/><stop offset="1" stop-color="#004bb7"/></linearGradient><linearGradient id="linear-gradient-3" x1="0" y1="61.5" x2="293" y2="61.5" xlink:href="#linear-gradient"/></defs><title>Asset 36</title><g id="Layer_2" data-name="Layer 2"><g id="Layer_1-2" data-name="Layer 1"><path class="cls-1" d="M225,90.71c-1.28,0-2,.89-2,2.69s.75,2.69,2,2.69,2-.89,2-2.69S226.3,90.71,225,90.71Z"/><path class="cls-1" d="M204.57,90.71c-1.28,0-2,.89-2,2.69s.74,2.69,2,2.69,2-.89,2-2.69S205.83,90.71,204.57,90.71Z"/><path class="cls-2" d="M281.81,0H120.56a100.47,100.47,0,0,1,5.83,9.53c7.16,13.25,10.32,29,11.75,43.95s-1,30.54-8.11,43.8c-4.18,7.75-9.86,14.6-15.92,21a66.21,66.21,0,0,1-5,4.74H281.81A11.19,11.19,0,0,0,293,111.81V11.19A11.19,11.19,0,0,0,281.81,0ZM189.68,97.65H181V86.43h8.41v1.89h-6.07v2.79h4.78v1.8h-4.78v2.85h6.31Zm5.47.17a4.42,4.42,0,0,1-.07-8.84c2.28,0,3.49,1.11,3.9,2.5l-2.18.78a1.64,1.64,0,0,0-1.68-1.55c-1.31,0-2,.92-2,2.71s.78,2.67,2,2.67a1.66,1.66,0,0,0,1.77-1.52l2.11.68C198.64,96.77,197.26,97.82,195.15,97.82Zm9.42,0a4.42,4.42,0,1,1,4.35-4.42A4.1,4.1,0,0,1,204.57,97.82Zm14.31-.17h-2.33V92.74c0-1.45-.64-1.92-1.53-1.92s-1.93.63-1.93,2.33v4.5h-2.33v-8.5h2.09l.08,1.6A3,3,0,0,1,215.82,89a2.84,2.84,0,0,1,3.06,3.09Zm6.16.17a4.42,4.42,0,1,1,4.35-4.42A4.1,4.1,0,0,1,225,97.82Zm19.84-.17h-2.32V92.53c0-1.24-.61-1.71-1.46-1.71-1,0-1.87.78-1.87,2.26v4.57H236.9V92.53c0-1.24-.61-1.71-1.48-1.71s-1.86.66-1.86,2.33v4.5h-2.33v-8.5h2.09l.08,1.53a3,3,0,0,1,2.81-1.7A2.88,2.88,0,0,1,239,90.66,3.11,3.11,0,0,1,241.87,89a2.84,2.84,0,0,1,3,3.09Zm4.62,0h-2.33v-8.5h2.33Zm-1.15-9.72c-1,0-1.45-.41-1.45-1.24s.48-1.26,1.45-1.26,1.44.42,1.44,1.26S249.31,87.93,248.35,87.93Zm7.42,9.89a4.42,4.42,0,0,1-.06-8.84c2.27,0,3.48,1.11,3.89,2.5l-2.18.78a1.64,1.64,0,0,0-1.68-1.55c-1.31,0-2,.92-2,2.71s.78,2.67,2.06,2.67a1.66,1.66,0,0,0,1.76-1.52l2.11.68C259.26,96.77,257.88,97.82,255.77,97.82Zm9,0a5.07,5.07,0,0,1-4.08-1.75L262,94.71a3.12,3.12,0,0,0,2.7,1.39c.89,0,1.46-.25,1.46-.81,0-.36-.18-.63-.93-.78l-1.5-.31c-2-.41-2.72-1.22-2.72-2.53S262.25,89,264.73,89a4.3,4.3,0,0,1,3.71,1.58L267,91.92a2.68,2.68,0,0,0-2.24-1.22c-1,0-1.5.3-1.5.83,0,.36.28.63,1.11.8l1.73.36c1.69.34,2.35,1.17,2.35,2.31C268.49,96.63,267.15,97.82,264.72,97.82Z"/><path class="cls-2" d="M114.11,118.26c6.06-6.38,11.74-13.23,15.92-21,7.13-13.26,9.55-28.8,8.11-43.8s-4.59-30.7-11.75-43.95A100.47,100.47,0,0,0,120.56,0H11.19A11.19,11.19,0,0,0,0,11.19V111.81A11.19,11.19,0,0,0,11.19,123h97.88A66.21,66.21,0,0,0,114.11,118.26ZM37,38.42l1.47-1.29,1.8,1,1.29,1.14,3,2.64,13.57-13.7.66-.67,1.81,1,.62.56,4.42,4,7.78-6.86L69.21,22.1l8.57-.75,1.8,1L79,31.07l-1.81-1-2.14-2.13-7.56,7.81-.35.36-1.81-1-.42-.33L60.55,31.4,47.4,46.93l-1.06,1.25-1.8-1-1.38-1L40.23,44,30.31,54.2l-1.81-1-3.67-4Zm3.21,65.67L26.08,98.6,33.78,97,34,70.67l9.3-2L47.91,70,48,59.62l9.3-2,4.23,1.22.09-9.46,9.3-2,4.57,1.3.13-13,9.3-2,8.54,2.45L93,87.71l7.19,1.82Z"/><path class="cls-3" d="M114.11,118.26c6.06-6.38,11.74-13.23,15.92-21,7.13-13.26,9.55-28.8,8.11-43.8s-4.59-30.7-11.75-43.95A100.47,100.47,0,0,0,120.56,0H11.19A11.19,11.19,0,0,0,0,11.19V111.81A11.19,11.19,0,0,0,11.19,123h97.88A66.21,66.21,0,0,0,114.11,118.26ZM37,38.42l1.47-1.29,1.8,1,1.29,1.14,3,2.64,13.57-13.7.66-.67,1.81,1,.62.56,4.42,4,7.78-6.86L69.21,22.1l8.57-.75,1.8,1L79,31.07l-1.81-1-2.14-2.13-7.56,7.81-.35.36-1.81-1-.42-.33L60.55,31.4,47.4,46.93l-1.06,1.25-1.8-1-1.38-1L40.23,44,30.31,54.2l-1.81-1-3.67-4Zm3.21,65.67L26.08,98.6,33.78,97,34,70.67l9.3-2L47.91,70,48,59.62l9.3-2,4.23,1.22.09-9.46,9.3-2,4.57,1.3.13-13,9.3-2,8.54,2.45L93,87.71l7.19,1.82Z"/><polygon class="cls-4" points="183.37 92.91 188.15 92.91 188.15 91.11 183.37 91.11 183.37 88.32 189.44 88.32 189.44 86.43 181.03 86.43 181.03 97.65 189.68 97.65 189.68 95.76 183.37 95.76 183.37 92.91"/><path class="cls-4" d="M195.13,96.09c-1.27,0-2-.85-2-2.67s.73-2.71,2-2.71a1.64,1.64,0,0,1,1.68,1.55l2.18-.78c-.41-1.39-1.62-2.5-3.9-2.5a4.42,4.42,0,0,0,.07,8.84c2.11,0,3.49-1,3.86-2.57l-2.11-.68A1.66,1.66,0,0,1,195.13,96.09Z"/><path class="cls-4" d="M204.57,89a4.42,4.42,0,1,0,4.35,4.42A4.1,4.1,0,0,0,204.57,89Zm0,7.11c-1.28,0-2-.89-2-2.69s.74-2.69,2-2.69,2,.89,2,2.69S205.83,96.09,204.57,96.09Z"/><path class="cls-4" d="M215.82,89a3,3,0,0,0-2.89,1.77l-.08-1.6h-2.09v8.5h2.33v-4.5c0-1.7,1-2.33,1.93-2.33s1.53.47,1.53,1.92v4.91h2.33V92.07A2.84,2.84,0,0,0,215.82,89Z"/><path class="cls-4" d="M225,89a4.42,4.42,0,1,0,4.35,4.42A4.1,4.1,0,0,0,225,89Zm0,7.11c-1.28,0-2-.89-2-2.69s.75-2.69,2-2.69,2,.89,2,2.69S226.3,96.09,225,96.09Z"/><path class="cls-4" d="M241.87,89A3.11,3.11,0,0,0,239,90.66,2.88,2.88,0,0,0,236.21,89a3,3,0,0,0-2.81,1.7l-.08-1.53h-2.09v8.5h2.33v-4.5c0-1.67,1-2.33,1.86-2.33s1.48.47,1.48,1.71v5.12h2.33V93.08c0-1.48.84-2.26,1.87-2.26.85,0,1.46.47,1.46,1.71v5.12h2.32V92.07A2.84,2.84,0,0,0,241.87,89Z"/><path class="cls-4" d="M248.35,85.43c-1,0-1.45.42-1.45,1.26s.48,1.24,1.45,1.24,1.44-.41,1.44-1.24S249.31,85.43,248.35,85.43Z"/><rect class="cls-4" x="247.17" y="89.15" width="2.33" height="8.5"/><path class="cls-4" d="M255.76,96.09c-1.28,0-2.06-.85-2.06-2.67s.73-2.71,2-2.71a1.64,1.64,0,0,1,1.68,1.55l2.18-.78c-.41-1.39-1.62-2.5-3.89-2.5a4.42,4.42,0,0,0,.06,8.84c2.11,0,3.49-1,3.86-2.57l-2.11-.68A1.66,1.66,0,0,1,255.76,96.09Z"/><path class="cls-4" d="M266.14,92.69l-1.73-.36c-.83-.17-1.11-.44-1.11-.8,0-.53.53-.83,1.5-.83A2.68,2.68,0,0,1,267,91.92l1.4-1.36A4.3,4.3,0,0,0,264.73,89c-2.48,0-3.74,1.31-3.74,2.69s.75,2.12,2.72,2.53l1.5.31c.75.15.93.42.93.78,0,.56-.57.81-1.46.81a3.12,3.12,0,0,1-2.7-1.39l-1.34,1.36a5.07,5.07,0,0,0,4.08,1.75c2.43,0,3.77-1.19,3.77-2.82C268.49,93.86,267.83,93,266.14,92.69Z"/><polygon class="cls-5" points="92.94 88.84 83.64 90.81 79.08 89.51 79.06 91.79 69.76 93.76 65.52 92.55 65.5 94.67 56.21 96.64 51.64 95.33 51.62 97.61 42.32 99.59 33.78 97.15 33.78 96.95 26.08 98.6 40.25 104.09 100.14 89.53 92.95 87.71 92.94 88.84"/><polygon class="cls-6" points="79.1 87.26 83.69 86.28 84.17 38.15 75.63 35.71 75.5 48.73 79.47 49.87 79.1 87.26"/><polygon class="cls-6" points="79.1 87.26 79.08 89.51 83.64 90.81 83.69 86.28 79.1 87.26"/><polygon class="cls-7" points="93.47 36.17 84.93 33.73 75.63 35.71 84.17 38.15 93.47 36.17"/><polygon class="cls-8" points="83.69 86.28 85.65 85.86 92.95 87.71 93.47 36.17 84.17 38.15 83.69 86.28"/><polygon class="cls-8" points="83.69 86.28 83.64 90.81 92.94 88.84 92.95 87.71 85.65 85.86 83.69 86.28"/><polygon class="cls-9" points="65.55 90.16 69.8 89.25 70.17 51.84 61.63 49.4 61.54 58.86 65.85 60.09 65.55 90.16"/><polygon class="cls-9" points="65.55 90.16 65.52 92.55 69.76 93.76 69.8 89.25 65.55 90.16"/><polygon class="cls-10" points="75.48 50.72 75.5 48.73 70.93 47.43 61.63 49.4 70.17 51.84 75.48 50.72"/><polygon class="cls-10" points="79.47 49.87 75.5 48.73 75.48 50.72 79.47 49.87"/><polygon class="cls-11" points="75.48 50.72 70.17 51.84 69.8 89.25 75.11 88.12 75.48 50.72"/><polygon class="cls-11" points="75.11 88.12 69.8 89.25 69.76 93.76 79.06 91.79 79.08 89.51 75.11 88.37 75.11 88.12"/><polygon class="cls-11" points="79.1 87.26 79.47 49.87 75.48 50.72 75.11 88.12 79.1 87.26"/><polygon class="cls-11" points="75.11 88.12 75.11 88.37 79.08 89.51 79.1 87.26 75.11 88.12"/><polygon class="cls-12" points="51.66 93.13 56.25 92.15 56.55 62.06 48.01 59.62 47.91 70 51.88 71.14 51.66 93.13"/><polygon class="cls-12" points="51.66 93.13 51.64 95.33 56.21 96.64 56.25 92.15 51.66 93.13"/><polygon class="cls-13" points="61.52 61.01 61.54 58.86 57.31 57.65 48.01 59.62 56.55 62.06 61.52 61.01"/><polygon class="cls-13" points="65.85 60.09 61.54 58.86 61.52 61.01 65.85 60.09"/><polygon class="cls-14" points="61.52 61.01 56.55 62.06 56.25 92.15 61.22 91.09 61.52 61.01"/><polygon class="cls-14" points="61.22 91.09 56.25 92.15 56.21 96.64 65.5 94.67 65.52 92.55 61.22 91.32 61.22 91.09"/><polygon class="cls-14" points="65.55 90.16 65.85 60.09 61.52 61.01 61.22 91.09 65.55 90.16"/><polygon class="cls-14" points="61.22 91.09 61.22 91.32 65.52 92.55 65.55 90.16 61.22 91.09"/><polygon class="cls-15" points="42.58 73.11 34.04 70.67 33.78 96.95 42.37 95.12 42.58 73.11"/><polygon class="cls-15" points="42.32 99.59 42.37 95.12 33.78 96.95 33.78 97.15 42.32 99.59"/><polygon class="cls-16" points="47.89 71.99 47.91 70 43.34 68.7 34.04 70.67 42.58 73.11 47.89 71.99"/><polygon class="cls-16" points="51.88 71.14 47.91 70 47.89 71.99 51.88 71.14"/><polygon class="cls-17" points="47.89 71.99 42.58 73.11 42.37 95.12 47.67 93.98 47.89 71.99"/><polygon class="cls-17" points="47.67 93.98 42.37 95.12 42.32 99.59 51.62 97.61 51.64 95.33 47.67 94.2 47.67 93.98"/><polygon class="cls-17" points="51.66 93.13 51.88 71.14 47.89 71.99 47.67 93.98 51.66 93.13"/><polygon class="cls-17" points="47.67 93.98 47.67 94.2 51.64 95.33 51.66 93.13 47.67 93.98"/><polygon class="cls-18" points="75.05 27.92 77.19 30.05 79 31.07 75.44 27.53 75.05 27.92"/><polygon class="cls-18" points="64.91 34.74 65.33 35.07 67.14 36.09 66.71 35.77 64.91 34.74"/><polygon class="cls-19" points="74.83 27.7 73.63 26.5 75.19 27.39 75.25 27.34 73.44 26.32 65.66 33.18 67.12 34.51 74.83 27.7"/><polygon class="cls-19" points="73.63 26.5 74.83 27.7 75.19 27.39 73.63 26.5"/><polygon class="cls-20" points="79.58 22.37 77.78 21.35 69.22 22.1 71.02 23.13 79.58 22.37"/><polygon class="cls-18" points="71.02 23.13 69.22 22.1 73.44 26.32 75.25 27.34 71.02 23.13"/><polygon class="cls-18" points="60.74 31.18 60.55 31.4 64.91 34.74 66.71 35.77 60.74 31.18"/><polygon class="cls-21" points="60.62 28.58 58.81 27.56 58.15 28.23 59.95 29.25 60.62 28.58"/><polygon class="cls-18" points="43.16 46.14 44.54 47.16 46.34 48.18 44.97 47.16 43.16 46.14"/><polygon class="cls-21" points="59 30.21 58.93 30.16 59.01 30.2 59.95 29.25 58.15 28.23 44.58 41.93 46.09 43.26 59 30.21"/><polygon class="cls-21" points="58.93 30.16 59 30.21 59.01 30.2 58.93 30.16"/><polygon class="cls-18" points="40.41 43.77 40.23 43.96 43.16 46.14 44.97 47.16 40.41 43.77"/><polygon class="cls-19" points="40.31 38.15 38.51 37.13 37.04 38.42 38.85 39.44 40.31 38.15"/><polygon class="cls-19" points="38.85 39.44 37.04 38.42 24.83 49.19 26.63 50.21 38.85 39.44"/><polygon class="cls-18" points="30.31 54.2 26.63 50.21 24.83 49.19 28.5 53.17 30.31 54.2"/><polygon class="cls-22" points="75.25 27.34 75.19 27.39 75.44 27.53 79 31.07 79.58 22.37 71.02 23.13 75.25 27.34"/><polygon class="cls-22" points="59.01 30.2 60.74 31.18 66.71 35.77 67.14 36.09 67.49 35.73 75.05 27.92 74.83 27.7 67.12 34.51 65.31 33.48 65.66 33.18 61.24 29.14 60.62 28.58 59.95 29.25 59.01 30.2"/><polygon class="cls-22" points="26.63 50.21 30.31 54.2 40.23 43.96 38.61 42.75 40.41 43.77 44.97 47.16 46.34 48.18 47.4 46.93 60.55 31.4 59 30.21 46.09 43.26 44.28 42.23 44.58 41.93 41.6 39.29 40.31 38.15 38.85 39.44 26.63 50.21"/><polygon class="cls-22" points="75.19 27.39 74.83 27.7 75.05 27.92 75.44 27.53 75.19 27.39"/><polygon class="cls-22" points="67.12 34.51 65.66 33.18 65.31 33.48 67.12 34.51"/><polygon class="cls-22" points="59.01 30.2 59 30.21 60.55 31.4 60.74 31.18 59.01 30.2"/><polygon class="cls-22" points="46.09 43.26 44.58 41.93 44.28 42.23 46.09 43.26"/><polygon class="cls-22" points="38.61 42.75 40.23 43.96 40.41 43.77 38.61 42.75"/></g></g></svg>