<svg xmlns="http://www.w3.org/2000/svg" viewBox="0 0 67.82 79.77"><defs><style>.cls-1{fill:#a56848;}.cls-2,.cls-9{fill:#965641;}.cls-3{fill:#18151e;}.cls-4{fill:#fff;}.cls-5{fill:#94bdd3;opacity:0.6;}.cls-6{fill:#47271f;}.cls-7{fill:#281414;}.cls-8{fill:#6f3929;}.cls-9{opacity:0.4;}.cls-10{fill:#641c25;}.cls-11{fill:#e96d89;}</style></defs><title>Asset 4</title><g id="Layer_2" data-name="Layer 2"><g id="Capa_1" data-name="Capa 1"><path class="cls-1" d="M7.89,42.75s-2.38-7.12-5.81-6.08S-.85,57.23,5.52,55.38,7.89,42.75,7.89,42.75Z"/><path class="cls-2" d="M1.3,44.12s.45-5.23,2.1-4.89,4.8,12,2.39,13.65-3.47-8-.68-6.43C5.11,46.45,3.51,35.81,1.3,44.12Z"/><path class="cls-1" d="M59.93,42.75s2.38-7.12,5.81-6.08,2.93,20.56-3.44,18.71S59.93,42.75,59.93,42.75Z"/><path class="cls-2" d="M66.52,44.12s-.45-5.23-2.1-4.89-4.8,12-2.39,13.65,3.47-8,.68-6.43C62.71,46.45,64.31,35.81,66.52,44.12Z"/><path class="cls-1" d="M60.13,50.57c0,13.52-14.82,29.2-26.39,29.2S7.35,64.09,7.35,50.57,3,5.38,33.74,5.38,60.13,37.05,60.13,50.57Z"/><path class="cls-2" d="M31.44,58.35s2.18,5.28,5.08,0A5.22,5.22,0,0,1,31.44,58.35Z"/><path class="cls-2" d="M16.83,10.41A23.69,23.69,0,0,0,9.07,22.76L7.93,35.7l1.2,12.9S9,27.91,19.51,22.92A238.33,238.33,0,0,0,49,26.65c8.34.41,10.32,12.93,11.37,14.89A68.61,68.61,0,0,0,58.74,24,13.44,13.44,0,0,0,45,14.2Z"/><path class="cls-2" d="M9.79,38.09a57.28,57.28,0,0,1,5.45-26.28h0l-.55.56-.19.21-.37.42-.18.21c-.17.2-.33.39-.48.6l-.15.19c-.12.15-.23.3-.34.46l-.18.24-.34.51-.11.16-.41.66c0,.08-.09.16-.14.24l-.27.48-.14.25-.36.68-.09.2c-.09.18-.18.36-.26.54l-.12.27c-.09.18-.16.36-.24.54l-.09.21c-.1.24-.2.48-.29.72l-.1.28c-.07.17-.13.34-.19.51s-.07.19-.1.28c-.08.25-.17.5-.24.75l-.06.19q-.11.3-.18.6l-.09.3-.15.56c0,.08-.05.16-.07.25-.06.25-.13.5-.19.76l-.06.28c0,.18-.09.37-.13.55l-.06.3c-.05.24-.1.47-.14.71,0,.08,0,.16,0,.24s-.07.44-.11.66a2.87,2.87,0,0,0,0,.31,5,5,0,0,0-.09.56c0,.09,0,.18,0,.28,0,.26-.07.52-.11.78l0,.28c0,.19-.05.38-.07.57s0,.21,0,.31,0,.44-.07.66l0,.25c0,.24,0,.48-.07.71s0,.21,0,.31,0,.38,0,.57a2.46,2.46,0,0,0,0,.28c0,.26,0,.52,0,.78,0,.09,0,.18,0,.26l0,.58c0,.11,0,.21,0,.31l0,.63V36l0,.78v.29c0,.19,0,.37,0,.56v.27c0,.26,0,.51,0,.76v1.89c0,.25,0,.49,0,.73v.29c0,.17,0,.34,0,.51v.27c0,.23,0,.47,0,.71v.2c0,.19,0,.37,0,.55v.28c0,.16,0,.32,0,.48v.25c0,.22,0,.43,0,.64,0,.56,0,1.1,0,1.63v0c0,.21,0,.42,0,.63,0,.06,0,.12,0,.18s0,.36,0,.53v.13c0,.21,0,.42,0,.62a.76.76,0,0,1,0,.15V50c0,.19,0,.39,0,.58,0,13.52,14.81,29.2,26.39,29.2a15,15,0,0,0,3.8-.52C28.59,77.54,9.42,70.13,9.79,38.09Z"/><path class="cls-3" d="M13.41,34.05a4.27,4.27,0,0,1,.36-.67,5,5,0,0,1,.52-.7,6.11,6.11,0,0,1,.81-.79,8.23,8.23,0,0,1,1.13-.76,7.79,7.79,0,0,1,1.4-.62,8.33,8.33,0,0,1,1.6-.4A10.83,10.83,0,0,1,20.94,30a9.53,9.53,0,0,1,1.7.22,9.94,9.94,0,0,1,1.58.45c.48.19,1,.35,1.41.56l1.19.64c.74.39,1.27.84,1.68,1.09l.63.43a1.17,1.17,0,0,1-1.32,1.92l0,0-.09-.07-.54-.41a15.87,15.87,0,0,0-1.46-1.06l-1-.63c-.36-.22-.77-.38-1.18-.59a9.61,9.61,0,0,0-1.3-.48,8.24,8.24,0,0,0-1.39-.32,9.67,9.67,0,0,0-1.42-.09,7.55,7.55,0,0,0-1.36.19,6.08,6.08,0,0,0-1.25.39,10.47,10.47,0,0,0-1.06.53c-.33.18-.61.37-.87.53s-.48.34-.66.47c-.37.26-.57.43-.57.43a.13.13,0,0,1-.18,0,.11.11,0,0,1,0-.12Z"/><path class="cls-4" d="M14,43.08s-.6-5.74,6.18-5.74a7.72,7.72,0,0,1,7.67,6.9S18.61,53,14,43.08Z"/><path class="cls-5" d="M20.21,37.34c-6.78,0-6.18,5.74-6.18,5.74a12.68,12.68,0,0,0,.68,1.28c5.06-5.68,10.85-1.67,12.92.11l.25-.23A7.72,7.72,0,0,0,20.21,37.34Z"/><path class="cls-6" d="M25.55,42a3.88,3.88,0,1,1-3.87-3.88A3.87,3.87,0,0,1,25.55,42Z"/><path class="cls-7" d="M23.44,42a1.77,1.77,0,1,1-1.76-1.77A1.76,1.76,0,0,1,23.44,42Z"/><path class="cls-4" d="M21.75,40.42a1.12,1.12,0,1,1-1.12-1.12A1.12,1.12,0,0,1,21.75,40.42Z"/><path class="cls-3" d="M27.88,44.24s-.12-.3-.32-.84a6.28,6.28,0,0,0-.36-1l-.64-1.12c-.29-.37-.62-.76-1-1.16L25,39.64l-.32-.27-.38-.2-.75-.42-.83-.3a4.14,4.14,0,0,0-.86-.2,3.71,3.71,0,0,0-.88-.1c-.28,0-.62,0-.85,0l-1,.1a10.67,10.67,0,0,0-1.55.42c-.25.09-.46.22-.69.31s-.42.24-.61.37a5.19,5.19,0,0,0-.95.92,5.71,5.71,0,0,0-.63,1,6.53,6.53,0,0,0-.39.91c-.19.54-.27.87-.27.87a3.47,3.47,0,0,1-.24-.92,5,5,0,0,1,0-1.11,4.62,4.62,0,0,1,.37-1.45,4.8,4.8,0,0,1,1-1.52,8.39,8.39,0,0,1,.79-.63,8.24,8.24,0,0,1,.94-.47,8.7,8.7,0,0,1,1-.29c.36-.06.73-.11,1.09-.14h1a9.31,9.31,0,0,1,1.1.11,4.62,4.62,0,0,1,1,.24,4.94,4.94,0,0,1,1,.35l.93.45c.28.19.55.39.81.59s.27.19.39.29l.33.36.61.67c.33.5.63,1,.87,1.42l.47,1.31a7.53,7.53,0,0,1,.2,1C27.83,43.92,27.88,44.24,27.88,44.24Z"/><path class="cls-3" d="M54.85,34.19s-.2-.17-.57-.43c-.19-.13-.4-.3-.66-.47s-.55-.35-.87-.53a11.63,11.63,0,0,0-1.06-.53,6.28,6.28,0,0,0-1.25-.39,7.54,7.54,0,0,0-1.37-.19,9.63,9.63,0,0,0-1.41.09,8.24,8.24,0,0,0-1.39.32,8.71,8.71,0,0,0-1.3.48c-.41.21-.82.37-1.18.59l-1,.63a14.58,14.58,0,0,0-1.46,1.06l-.55.41-.08.06a1.16,1.16,0,1,1-1.4-1.84l0,0L40,33a19.42,19.42,0,0,1,1.68-1.09l1.19-.64c.43-.21.92-.37,1.41-.56a9.65,9.65,0,0,1,1.58-.45A9.42,9.42,0,0,1,47.51,30a10.77,10.77,0,0,1,1.71.09,8.25,8.25,0,0,1,1.61.4,8.12,8.12,0,0,1,1.4.62,7.55,7.55,0,0,1,1.12.76,5.66,5.66,0,0,1,.82.79,7.33,7.33,0,0,1,.52.7,4.27,4.27,0,0,1,.36.67h0a.12.12,0,0,1-.2.13Z"/><path class="cls-4" d="M54.42,43.08s.6-5.74-6.17-5.74a7.71,7.71,0,0,0-7.67,6.9S49.84,53,54.42,43.08Z"/><path class="cls-5" d="M48.24,37.34c6.77,0,6.18,5.74,6.18,5.74-.22.47-.45.89-.68,1.28-5.07-5.68-10.86-1.67-12.92.11l-.25-.23A7.71,7.71,0,0,1,48.24,37.34Z"/><path class="cls-6" d="M42.9,42a3.88,3.88,0,1,0,3.88-3.88A3.88,3.88,0,0,0,42.9,42Z"/><path class="cls-7" d="M45,42a1.77,1.77,0,1,0,1.77-1.77A1.76,1.76,0,0,0,45,42Z"/><path class="cls-4" d="M46.71,40.42a1.12,1.12,0,1,0,1.12-1.12A1.12,1.12,0,0,0,46.71,40.42Z"/><path class="cls-3" d="M40.58,44.24s.05-.32.12-.89a9.49,9.49,0,0,1,.2-1c.14-.39.3-.83.48-1.31s.54-.92.86-1.42l.62-.67.33-.36.38-.29c.27-.2.54-.4.82-.59l.93-.45a5.07,5.07,0,0,1,1-.35,4.71,4.71,0,0,1,1-.24,9.1,9.1,0,0,1,1.1-.11h1c.35,0,.73.08,1.09.14a8,8,0,0,1,1,.29,6.87,6.87,0,0,1,.94.47,7.42,7.42,0,0,1,.8.63,4.8,4.8,0,0,1,1,1.52,5.24,5.24,0,0,1,.37,1.45,4.88,4.88,0,0,1,0,1.11,3,3,0,0,1-.24.92,7.79,7.79,0,0,0-.26-.87,8,8,0,0,0-.39-.91,5.78,5.78,0,0,0-.64-1,4.63,4.63,0,0,0-1-.92c-.19-.13-.39-.25-.6-.37s-.44-.22-.69-.31a10.47,10.47,0,0,0-1.56-.42l-1-.1c-.24,0-.57,0-.85,0a3.71,3.71,0,0,0-.88.1,4.23,4.23,0,0,0-.87.2l-.82.3-.76.42-.37.2-.32.27-.64.51c-.34.4-.67.79-1,1.16s-.45.79-.64,1.12a7.74,7.74,0,0,0-.37,1Z"/><path class="cls-8" d="M30.94,57.93s.42.19,1,.38c.29.09.62.17,1,.25a6.25,6.25,0,0,0,2.17,0,4.7,4.7,0,0,1,.51-.12l.47-.15c.3-.08.54-.19.73-.24l.3-.09s-.06.1-.18.26a3.12,3.12,0,0,1-.55.61,3.59,3.59,0,0,1-1,.63,6.18,6.18,0,0,1-.65.21c-.24,0-.47.08-.71.08a3.63,3.63,0,0,1-1.37-.26,3.29,3.29,0,0,1-1-.63A2.37,2.37,0,0,1,30.94,57.93Z"/><path class="cls-9" d="M30.94,71.31a6.57,6.57,0,0,1,5.78,0s.61.91,0,1.1a20.64,20.64,0,0,1-5.78,0C30.17,72.15,30.43,71.53,30.94,71.31Z"/><path class="cls-3" d="M13.51,7.28S1.3,16.17,7.2,43.81a20.09,20.09,0,0,0,1.93-8.16c.29-5.24,3.09-16.32,9.42-18.75,0,0,16.68,6.21,34.09.24a22.6,22.6,0,0,1,4.14,10.47c.52,5.77,1.11,16,3.54,13.93s3.48-21.6-1.63-30.24C52.28.47,30.45-5.63,13.51,7.28Z"/><path class="cls-10" d="M23.1,60.7a47.32,47.32,0,0,0,21.25,0s-2.48,7.83-10.9,7.83C26.81,68.53,23.44,63,23.1,60.7Z"/><path class="cls-4" d="M42.9,61a47.7,47.7,0,0,1-19.8-.33,4.46,4.46,0,0,0,.53,1.45c7.43,3.75,17.09,1.5,18.28,1.14C42.75,63,42.89,61.78,42.9,61Z"/><path class="cls-11" d="M33.45,68.53a11.18,11.18,0,0,0,5.22-1.21c-3.94-3-8.52-1.27-10.57-.2A10.59,10.59,0,0,0,33.45,68.53Z"/></g></g></svg>