<svg width="943" height="884" viewBox="0 0 943 884" fill="none" xmlns="http://www.w3.org/2000/svg">
<path opacity="0.31" d="M714.739 663C840.399 540.945 840.399 343.055 714.739 221C589.08 98.9451 385.346 98.9451 259.687 221C134.028 343.055 134.028 540.945 259.687 663C385.346 785.055 589.08 785.055 714.739 663Z" fill="#D2ECFC"/>
<path d="M404.34 243.788C404.34 256.085 394.107 266.051 381.478 266.051C368.849 266.051 358.615 256.085 358.615 243.788C358.615 231.491 368.849 221.525 381.478 221.525C394.107 221.525 404.34 231.491 404.34 243.788Z" fill="#FFEF69"/>
<path d="M492.741 254.813C499.355 254.813 504.717 249.592 504.717 243.152C504.717 236.711 499.355 231.49 492.741 231.49C486.127 231.49 480.766 236.711 480.766 243.152C480.766 249.592 486.127 254.813 492.741 254.813Z" fill="white"/>
<path d="M539.99 229.582C539.99 242.092 529.538 252.057 516.909 252.057C504.063 252.057 493.829 241.88 493.829 229.582C493.829 217.285 504.281 207.108 516.909 207.108C529.538 207.108 539.99 217.073 539.99 229.582Z" fill="white"/>
<path d="M514.951 251.209C514.951 257.145 509.943 262.022 503.847 262.022C497.75 262.022 492.742 257.145 492.742 251.209C492.742 245.272 497.75 240.395 503.847 240.395C509.943 240.395 514.951 245.272 514.951 251.209Z" fill="white"/>
<path d="M540.862 266.474C553.608 266.474 563.942 256.412 563.942 244C563.942 231.588 553.608 221.525 540.862 221.525C528.115 221.525 517.781 231.588 517.781 244C517.781 256.412 528.115 266.474 540.862 266.474Z" fill="white"/>
<path d="M563.071 258.205C570.166 258.205 575.918 252.605 575.918 245.696C575.918 238.787 570.166 233.187 563.071 233.187C555.976 233.187 550.225 238.787 550.225 245.696C550.225 252.605 555.976 258.205 563.071 258.205Z" fill="white"/>
<path d="M534.33 249.3C534.33 258.842 526.492 266.474 516.693 266.474C506.895 266.474 499.057 258.842 499.057 249.3C499.057 239.759 506.895 232.127 516.693 232.127C526.492 232.339 534.33 239.971 534.33 249.3Z" fill="white"/>
<path d="M321.163 313.119C321.163 315.664 318.985 317.784 316.372 317.784C313.759 317.784 311.582 315.664 311.582 313.119C311.582 310.575 313.759 308.455 316.372 308.455C318.985 308.455 321.163 310.575 321.163 313.119Z" fill="white"/>
<path d="M335.098 307.819C335.098 312.696 330.961 316.724 325.953 316.724C320.945 316.724 316.808 312.696 316.808 307.819C316.808 302.942 320.945 298.914 325.953 298.914C330.961 298.702 335.098 302.73 335.098 307.819Z" fill="white"/>
<path d="M325.299 316.3C325.299 318.632 323.34 320.541 320.945 320.541C318.549 320.541 316.59 318.632 316.59 316.3C316.59 313.968 318.549 312.06 320.945 312.06C323.34 312.06 325.299 313.968 325.299 316.3Z" fill="white"/>
<path d="M344.679 313.544C344.679 318.42 340.542 322.449 335.534 322.449C330.526 322.449 326.389 318.42 326.389 313.544C326.389 308.667 330.526 304.639 335.534 304.639C340.542 304.427 344.679 308.455 344.679 313.544Z" fill="white"/>
<path d="M349.468 314.18C349.468 316.936 347.073 319.268 344.242 319.268C341.412 319.268 339.017 316.936 339.017 314.18C339.017 311.423 341.412 309.091 344.242 309.091C347.291 309.091 349.468 311.423 349.468 314.18Z" fill="white"/>
<path d="M332.921 315.664C332.921 319.48 329.872 322.449 325.953 322.449C322.034 322.449 318.985 319.48 318.985 315.664C318.985 311.848 322.034 308.879 325.953 308.879C329.872 308.879 332.921 311.848 332.921 315.664Z" fill="white"/>
<path d="M705.035 290.857C705.035 296.158 709.39 300.186 714.616 300.186C720.059 300.186 724.196 295.946 724.196 290.857C724.196 285.769 719.841 281.528 714.616 281.528C709.39 281.528 705.035 285.769 705.035 290.857Z" fill="white"/>
<path d="M676.729 280.044C676.729 290.009 685.004 298.278 695.455 298.278C705.689 298.278 714.18 290.221 714.18 280.044C714.18 270.079 705.906 261.81 695.455 261.81C685.221 262.022 676.729 270.079 676.729 280.044Z" fill="white"/>
<path d="M696.978 297.43C696.978 302.306 700.897 306.123 705.905 306.123C710.913 306.123 714.832 302.306 714.832 297.43C714.832 292.553 710.913 288.737 705.905 288.737C700.897 288.737 696.978 292.765 696.978 297.43Z" fill="white"/>
<path d="M657.352 291.705C657.352 301.67 665.626 309.939 676.077 309.939C686.311 309.939 694.802 301.882 694.802 291.705C694.802 281.74 686.528 273.471 676.077 273.471C665.843 273.471 657.352 281.74 657.352 291.705Z" fill="white"/>
<path d="M647.771 293.189C647.771 298.702 652.343 303.367 658.222 303.367C663.883 303.367 668.673 298.914 668.673 293.189C668.673 287.677 664.101 283.012 658.222 283.012C652.343 283.012 647.771 287.465 647.771 293.189Z" fill="white"/>
<path d="M681.302 295.946C681.302 303.579 687.616 309.727 695.455 309.727C703.293 309.727 709.608 303.579 709.608 295.946C709.608 288.313 703.293 282.164 695.455 282.164C687.616 282.164 681.302 288.525 681.302 295.946Z" fill="white"/>
<path d="M707.869 673.561H773.408V406.622L707.869 377.999V673.561Z" fill="#D2ECFC"/>
<path d="M720.931 509.878H656.48V673.561H720.931V509.878Z" fill="#D2ECFC"/>
<path d="M656.482 428.885H595.733V673.561H656.482V428.885Z" fill="#D2ECFC"/>
<path d="M638.628 363.158H613.588V607.833H638.628V363.158Z" fill="#D2ECFC"/>
<path d="M628.612 278.984H623.821V523.66H628.612V278.984Z" fill="#D2ECFC"/>
<path d="M602.483 495.461H570.693V673.773H602.483V495.461Z" fill="#D2ECFC"/>
<path d="M578.096 468.109H542.604V673.773H578.096V468.109Z" fill="#D2ECFC"/>
<path d="M475.324 673.561H548.266V324.781L475.324 362.522V673.561Z" fill="#D2ECFC"/>
<path d="M481.856 435.246H404.341V673.561H481.856V435.246Z" fill="#D2ECFC"/>
<path d="M411.744 538.926H376.253V673.561H411.744V538.926Z" fill="#D2ECFC"/>
<path d="M381.915 470.866H337.061V673.773H381.915V470.866Z" fill="#D2ECFC"/>
<path d="M242.778 673.561H337.93V437.154L290.463 407.471L242.778 437.154V673.561Z" fill="#D2ECFC"/>
<path d="M252.144 507.122H153.073V673.561H252.144V507.122Z" fill="#D2ECFC"/>
<path d="M162.434 397.93H98.8545V673.561H162.434V397.93Z" fill="#D2ECFC"/>
<path d="M105.387 482.527H52.041V673.561H105.387V482.527Z" fill="#D2ECFC"/>
<path d="M847.439 485.92H762.739V673.561H847.439V485.92Z" fill="#D2ECFC"/>
<path d="M902.962 511.998H840.906V673.561H902.962V511.998Z" fill="#D2ECFC"/>
<path d="M247.133 686.07H181.812V491.644L247.133 463.021V686.07Z" fill="url(#paint0_linear)"/>
<path d="M234.069 686.07H298.52V594.9H234.069V686.07Z" fill="url(#paint1_linear)"/>
<path d="M359.269 686.07H298.521V513.906H359.269V686.07Z" fill="url(#paint2_linear)"/>
<path d="M341.416 640.061H316.376V448.179H341.416V640.061Z" fill="url(#paint3_linear)"/>
<path d="M331.398 608.681H326.607V364.005H331.398V608.681Z" fill="url(#paint4_linear)"/>
<path d="M384.527 686.07H352.737V580.482H384.527V686.07Z" fill="url(#paint5_linear)"/>
<path d="M412.615 686.07H377.124V553.131H412.615V686.07Z" fill="url(#paint6_linear)"/>
<path d="M479.679 686.07H406.954V409.803L479.679 447.543V686.07Z" fill="url(#paint7_linear)"/>
<path d="M550.879 686.07H473.146V520.479H550.879V686.07Z" fill="url(#paint8_linear)"/>
<path d="M578.749 686.07H543.258V624.159H578.749V686.07Z" fill="url(#paint9_linear)"/>
<path d="M617.942 686.07H573.088V555.887H617.942V686.07Z" fill="url(#paint10_linear)"/>
<path d="M712.44 686.07H617.071V522.175L664.756 492.492L712.44 522.175V686.07Z" fill="url(#paint11_linear)"/>
<path d="M802.15 686.07H703.079V592.143H802.15V686.07Z" fill="url(#paint12_linear)"/>
<path d="M856.147 686.07H792.785V483.163H856.147V686.07Z" fill="url(#paint13_linear)"/>
<path d="M902.961 686.07H849.615V567.761H902.961V686.07Z" fill="url(#paint14_linear)"/>
<path d="M107.781 686.07H192.481V571.153H107.781V686.07Z" fill="url(#paint15_linear)"/>
<path d="M52.041 686.07H114.314V597.232H52.041V686.07Z" fill="url(#paint16_linear)"/>
<path d="M432.649 454.964H421.979V482.739H432.649V454.964Z" fill="#D2ECFC"/>
<path d="M459.211 454.964H448.542V482.739H459.211V454.964Z" fill="#D2ECFC"/>
<path d="M432.649 507.97H421.979V535.745H432.649V507.97Z" fill="#D2ECFC"/>
<path d="M459.211 507.97H448.542V535.745H459.211V507.97Z" fill="#D2ECFC"/>
<path d="M432.649 560.976H421.979V588.751H432.649V560.976Z" fill="#D2ECFC"/>
<path d="M459.211 560.976H448.542V588.751H459.211V560.976Z" fill="#D2ECFC"/>
<path d="M432.649 613.77H421.979V641.545H432.649V613.77Z" fill="#D2ECFC"/>
<path d="M459.211 613.77H448.542V641.545H459.211V613.77Z" fill="#D2ECFC"/>
<path d="M503.847 540.622H493.178V568.397H503.847V540.622Z" fill="#D2ECFC"/>
<path d="M530.411 540.622H519.742V568.397H530.411V540.622Z" fill="#D2ECFC"/>
<path d="M503.847 593.415H493.178V621.191H503.847V593.415Z" fill="#D2ECFC"/>
<path d="M530.411 593.415H519.742V621.191H530.411V593.415Z" fill="#D2ECFC"/>
<path d="M594.427 566.912H583.758V594.688H594.427V566.912Z" fill="#D2ECFC"/>
<path d="M620.99 566.912H610.321V594.688H620.99V566.912Z" fill="#D2ECFC"/>
<path d="M594.427 619.707H583.758V647.482H594.427V619.707Z" fill="#D2ECFC"/>
<path d="M620.99 619.707H610.321V647.482H620.99V619.707Z" fill="#D2ECFC"/>
<path d="M660.618 536.593H649.949V564.368H660.618V536.593Z" fill="#D2ECFC"/>
<path d="M687.183 536.593H676.514V564.368H687.183V536.593Z" fill="#D2ECFC"/>
<path d="M660.618 589.599H649.949V617.374H660.618V589.599Z" fill="#D2ECFC"/>
<path d="M687.183 589.599H676.514V617.374H687.183V589.599Z" fill="#D2ECFC"/>
<path d="M819.351 503.093H808.682V530.869H819.351V503.093Z" fill="#D2ECFC"/>
<path d="M845.914 503.093H835.245V530.869H845.914V503.093Z" fill="#D2ECFC"/>
<path d="M819.351 556.099H808.682V583.874H819.351V556.099Z" fill="#D2ECFC"/>
<path d="M845.914 556.099H835.245V583.874H845.914V556.099Z" fill="#D2ECFC"/>
<path d="M323.124 526.204H312.455V553.979H323.124V526.204Z" fill="#D2ECFC"/>
<path d="M349.69 526.204H339.021V553.979H349.69V526.204Z" fill="#D2ECFC"/>
<path d="M323.124 579.21H312.455V606.985H323.124V579.21Z" fill="#D2ECFC"/>
<path d="M349.69 579.21H339.021V606.985H349.69V579.21Z" fill="#D2ECFC"/>
<path d="M207.943 502.457H197.273V530.232H207.943V502.457Z" fill="#D2ECFC"/>
<path d="M234.506 502.457H223.837V530.232H234.506V502.457Z" fill="#D2ECFC"/>
<path d="M207.943 555.251H197.273V583.026H207.943V555.251Z" fill="#D2ECFC"/>
<path d="M234.506 555.251H223.837V583.026H234.506V555.251Z" fill="#D2ECFC"/>
<path d="M294.868 348.952H148.113C139.185 348.952 132 341.955 132 333.262C132 324.569 139.185 317.572 148.113 317.572H294.868C303.795 317.572 310.981 324.569 310.981 333.262C310.981 341.955 303.795 348.952 294.868 348.952Z" fill="#D2ECFC"/>
<path d="M279.409 311.848H194.709C186.652 311.848 180.12 305.487 180.12 297.642V294.462C180.12 286.617 186.652 280.256 194.709 280.256H279.409C287.465 280.256 293.997 286.617 293.997 294.462V297.642C293.997 305.487 287.465 311.848 279.409 311.848Z" fill="#D2ECFC"/>
<path d="M824.358 232.551H677.603C668.676 232.551 661.49 225.554 661.49 216.861C661.49 208.168 668.676 201.171 677.603 201.171H824.358C833.285 201.171 840.471 208.168 840.471 216.861C840.471 225.342 833.285 232.551 824.358 232.551Z" fill="#D2ECFC"/>
<path d="M722.238 197.355H640.804C631.877 197.355 624.691 190.358 624.691 181.665C624.691 172.972 631.877 165.975 640.804 165.975H722.238C731.165 165.975 738.351 172.972 738.351 181.665C738.568 190.358 731.165 197.355 722.238 197.355Z" fill="#D2ECFC"/>
<path d="M421.978 592.779H420.89V597.232H421.978V592.779Z" fill="#1A80AF"/>
<path d="M436.565 592.779H435.477V597.232H436.565V592.779Z" fill="#1A80AF"/>
<path d="M414.357 592.78H443.97C444.405 592.78 444.841 592.355 444.841 591.931V569.457C444.841 569.033 444.405 568.609 443.97 568.609H414.357C413.922 568.609 413.486 569.033 413.486 569.457V591.931C413.486 592.568 413.922 592.78 414.357 592.78Z" fill="white"/>
<path d="M443.752 570.305H414.575V591.295H443.752V570.305Z" fill="#D6D6D6"/>
<path d="M419.8 570.729H415.01V580.694H419.8V570.729Z" fill="#009FE3"/>
<path d="M424.591 570.729H419.801V580.694H424.591V570.729Z" fill="#00B7ED"/>
<path d="M429.381 570.729H424.591V580.694H429.381V570.729Z" fill="#009FE3"/>
<path d="M433.953 570.729H429.163V580.694H433.953V570.729Z" fill="#00B7ED"/>
<path d="M419.8 580.694H415.01V590.659H419.8V580.694Z" fill="#00B7ED"/>
<path d="M424.591 580.694H419.801V590.659H424.591V580.694Z" fill="#009FE3"/>
<path d="M429.381 580.694H424.591V590.659H429.381V580.694Z" fill="#00B7ED"/>
<path d="M433.953 580.694H429.163V590.659H433.953V580.694Z" fill="#009FE3"/>
<path d="M438.743 570.729H433.953V580.694H438.743V570.729Z" fill="#009FE3"/>
<path d="M443.316 570.729H438.525V580.694H443.316V570.729Z" fill="#00B7ED"/>
<path d="M438.743 580.694H433.953V590.659H438.743V580.694Z" fill="#00B7ED"/>
<path d="M443.316 580.694H438.525V590.659H443.316V580.694Z" fill="#009FE3"/>
<path d="M463.346 559.492H462.475V563.096H463.346V559.492Z" fill="#1A80AF"/>
<path d="M475.321 559.492H474.45V563.096H475.321V559.492Z" fill="#1A80AF"/>
<path d="M457.25 559.704H481.201C481.637 559.704 482.072 559.28 482.072 558.856V540.622C482.072 540.198 481.637 539.774 481.201 539.774H457.25C456.814 539.774 456.379 540.198 456.379 540.622V558.856C456.379 559.28 456.814 559.704 457.25 559.704Z" fill="white"/>
<path d="M481.201 541.046H457.25V558.432H481.201V541.046Z" fill="#D6D6D6"/>
<path d="M461.603 541.47H457.684V549.739H461.603V541.47Z" fill="#009FE3"/>
<path d="M465.522 541.47H461.603V549.739H465.522V541.47Z" fill="#00B7ED"/>
<path d="M469.223 541.47H465.304V549.739H469.223V541.47Z" fill="#009FE3"/>
<path d="M473.142 541.47H469.223V549.739H473.142V541.47Z" fill="#00B7ED"/>
<path d="M461.603 549.527H457.684V557.796H461.603V549.527Z" fill="#00B7ED"/>
<path d="M465.522 549.527H461.603V557.796H465.522V549.527Z" fill="#009FE3"/>
<path d="M469.223 549.527H465.304V557.796H469.223V549.527Z" fill="#00B7ED"/>
<path d="M473.142 549.527H469.223V557.796H473.142V549.527Z" fill="#009FE3"/>
<path d="M477.062 541.47H473.143V549.739H477.062V541.47Z" fill="#009FE3"/>
<path d="M480.982 541.47H477.062V549.739H480.982V541.47Z" fill="#00B7ED"/>
<path d="M477.062 549.527H473.143V557.796H477.062V549.527Z" fill="#00B7ED"/>
<path d="M480.982 549.527H477.062V557.796H480.982V549.527Z" fill="#009FE3"/>
<path d="M161.346 550.799H160.475V554.403H161.346V550.799Z" fill="#1A80AF"/>
<path d="M173.321 550.799H172.45V554.403H173.321V550.799Z" fill="#1A80AF"/>
<path d="M155.249 551.011H179.2C179.636 551.011 180.071 550.587 180.071 550.163V531.929C180.071 531.504 179.636 531.08 179.2 531.08H155.249C154.813 531.08 154.378 531.504 154.378 531.929V550.163C154.378 550.587 154.813 551.011 155.249 551.011Z" fill="white"/>
<path d="M179.2 532.353H155.249V549.739H179.2V532.353Z" fill="#D6D6D6"/>
<path d="M159.604 532.777H155.685V541.046H159.604V532.777Z" fill="#009FE3"/>
<path d="M163.523 532.777H159.604V541.046H163.523V532.777Z" fill="#00B7ED"/>
<path d="M167.441 532.777H163.521V541.046H167.441V532.777Z" fill="#009FE3"/>
<path d="M171.142 532.777H167.223V541.046H171.142V532.777Z" fill="#00B7ED"/>
<path d="M159.603 541.045H155.684V549.314H159.603V541.045Z" fill="#00B7ED"/>
<path d="M163.523 541.045H159.604V549.314H163.523V541.045Z" fill="#009FE3"/>
<path d="M167.441 541.045H163.521V549.314H167.441V541.045Z" fill="#00B7ED"/>
<path d="M171.142 541.045H167.223V549.314H171.142V541.045Z" fill="#009FE3"/>
<path d="M175.061 532.777H171.142V541.046H175.061V532.777Z" fill="#009FE3"/>
<path d="M178.982 532.777H175.062V541.046H178.982V532.777Z" fill="#00B7ED"/>
<path d="M175.061 541.045H171.142V549.314H175.061V541.045Z" fill="#00B7ED"/>
<path d="M178.982 541.045H175.062V549.314H178.982V541.045Z" fill="#009FE3"/>
<path d="M495.356 559.492H494.485V563.096H495.356V559.492Z" fill="#1A80AF"/>
<path d="M507.549 559.492H506.678V563.096H507.549V559.492Z" fill="#1A80AF"/>
<path d="M489.477 559.704H513.429C513.864 559.704 514.3 559.28 514.3 558.856V540.622C514.3 540.198 513.864 539.774 513.429 539.774H489.477C489.042 539.774 488.606 540.198 488.606 540.622V558.856C488.606 559.28 488.824 559.704 489.477 559.704Z" fill="white"/>
<path d="M513.43 541.046H489.479V558.432H513.43V541.046Z" fill="#D6D6D6"/>
<path d="M493.832 541.47H489.913V549.739H493.832V541.47Z" fill="#009FE3"/>
<path d="M497.533 541.47H493.613V549.739H497.533V541.47Z" fill="#00B7ED"/>
<path d="M501.452 541.47H497.532V549.739H501.452V541.47Z" fill="#009FE3"/>
<path d="M505.37 541.47H501.451V549.739H505.37V541.47Z" fill="#00B7ED"/>
<path d="M493.831 549.527H489.912V557.796H493.831V549.527Z" fill="#00B7ED"/>
<path d="M497.533 549.527H493.613V557.796H497.533V549.527Z" fill="#009FE3"/>
<path d="M501.452 549.527H497.532V557.796H501.452V549.527Z" fill="#00B7ED"/>
<path d="M505.37 549.527H501.451V557.796H505.37V549.527Z" fill="#009FE3"/>
<path d="M509.289 541.47H505.37V549.739H509.289V541.47Z" fill="#009FE3"/>
<path d="M512.992 541.47H509.072V549.739H512.992V541.47Z" fill="#00B7ED"/>
<path d="M509.289 549.527H505.37V557.796H509.289V549.527Z" fill="#00B7ED"/>
<path d="M512.992 549.527H509.072V557.796H512.992V549.527Z" fill="#009FE3"/>
<path d="M536.509 585.359L571.347 555.039L606.403 585.359V660.415H536.509V585.359Z" fill="url(#paint17_linear)"/>
<path d="M571.347 555.039L536.509 585.359V590.871L571.347 560.552L606.403 590.871V585.359L571.347 555.039Z" fill="#DB8B68"/>
<path d="M571.346 555.039L531.718 589.387V585.783L571.346 551.647V555.039Z" fill="#5B3227"/>
<path d="M571.346 555.039L611.192 589.387V585.995L571.346 551.647V555.039Z" fill="#5B3227"/>
<path d="M558.717 586.843H544.347V602.957H558.717V586.843Z" fill="#C7675B"/>
<path d="M577.878 586.843H563.507V602.957H577.878V586.843Z" fill="#C7675B"/>
<path d="M558.717 621.615H544.347V637.728H558.717V621.615Z" fill="#C7675B"/>
<path d="M577.878 621.615H563.507V637.728H577.878V621.615Z" fill="#C7675B"/>
<path d="M600.96 626.067H586.589V660.415H600.96V626.067Z" fill="#C7675B"/>
<path d="M597.041 586.843H582.67V602.957H597.041V586.843Z" fill="#C7675B"/>
<path d="M557.846 587.903H545.435V602.321H557.846V587.903Z" fill="url(#paint18_linear)"/>
<path d="M558.717 601.048H544.347V603.381H558.717V601.048Z" fill="#5B3227"/>
<path d="M577.008 587.903H564.597V602.321H577.008V587.903Z" fill="url(#paint19_linear)"/>
<path d="M596.17 587.903H583.759V602.321H596.17V587.903Z" fill="url(#paint20_linear)"/>
<path d="M599.869 626.915H587.458V660.627H599.869V626.915Z" fill="#5B3227"/>
<path d="M577.878 601.048H563.507V603.381H577.878V601.048Z" fill="#5B3227"/>
<path d="M557.846 622.887H545.435V637.305H557.846V622.887Z" fill="url(#paint21_linear)"/>
<path d="M558.717 635.82H544.347V638.153H558.717V635.82Z" fill="#5B3227"/>
<path d="M577.008 622.887H564.597V637.305H577.008V622.887Z" fill="url(#paint22_linear)"/>
<path d="M577.878 635.82H563.507V638.153H577.878V635.82Z" fill="#5B3227"/>
<path d="M597.041 601.048H582.67V603.381H597.041V601.048Z" fill="#5B3227"/>
<path d="M524.096 598.928C510.814 611.862 509.072 626.491 510.596 633.7C512.12 641.333 521.265 646.634 530.628 646.21C538.902 645.786 548.482 641.545 547.612 628.4C546.741 615.254 539.773 603.381 534.983 598.928C530.628 594.688 528.233 594.9 524.096 598.928Z" fill="url(#paint23_linear)"/>
<path opacity="0.6" d="M520.611 602.745C510.595 614.618 509.289 627.339 510.595 633.7C512.12 641.333 521.265 646.634 530.627 646.21C538.248 645.786 546.958 642.181 547.611 631.368C530.41 648.542 511.466 629.672 520.611 602.745Z" fill="#51A631"/>
<path d="M529.105 624.583L527.799 661.264H529.976L529.105 624.583Z" fill="#A35E1A"/>
<path d="M521.919 634.972L528.669 644.513L529.104 642.181L521.919 634.972Z" fill="#A35E1A"/>
<path d="M529.104 637.305V638.789L536.071 633.488L529.104 637.305Z" fill="#A35E1A"/>
<path d="M456.597 596.172H409.565V669.108H456.597V596.172Z" fill="url(#paint24_linear)"/>
<path d="M456.597 596.172H409.565V600.836H456.597V596.172Z" fill="#F0B605"/>
<path d="M456.597 630.732H409.565V635.396H456.597V630.732Z" fill="#F0B605"/>
<path d="M428.728 605.501H417.405V625.643H428.728V605.501Z" fill="#F0B605"/>
<path d="M449.193 605.501H437.871V625.643H449.193V605.501Z" fill="#F0B605"/>
<path d="M428.728 636.456H417.405V656.599H428.728V636.456Z" fill="#F0B605"/>
<path d="M449.193 636.456H437.871V656.599H449.193V636.456Z" fill="#F0B605"/>
<path d="M428.291 606.137H418.058V625.219H428.291V606.137Z" fill="url(#paint25_linear)"/>
<path d="M448.76 606.137H438.526V625.219H448.76V606.137Z" fill="url(#paint26_linear)"/>
<path d="M428.291 637.093H418.058V656.175H428.291V637.093Z" fill="url(#paint27_linear)"/>
<path d="M448.76 637.093H438.526V656.175H448.76V637.093Z" fill="url(#paint28_linear)"/>
<path d="M457.904 596.172H408.26V598.504H457.904V596.172Z" fill="#C66E00"/>
<path d="M457.904 629.46H408.26V631.792H457.904V629.46Z" fill="#C66E00"/>
<path d="M519.959 562.672H453.984V665.08H519.959V562.672Z" fill="url(#paint29_linear)"/>
<path d="M519.959 562.672H453.984V569.033H519.959V562.672Z" fill="#F0B605"/>
<path d="M519.959 611.437H453.984V617.798H519.959V611.437Z" fill="#F0B605"/>
<path d="M480.767 575.817H464.872V604.229H480.767V575.817Z" fill="#F0B605"/>
<path d="M509.726 575.817H493.831V604.229H509.726V575.817Z" fill="#F0B605"/>
<path d="M480.767 619.494H464.872V647.906H480.767V619.494Z" fill="#F0B605"/>
<path d="M509.726 619.494H493.831V647.906H509.726V619.494Z" fill="#F0B605"/>
<path d="M479.895 576.666H465.742V603.381H479.895V576.666Z" fill="url(#paint30_linear)"/>
<path d="M508.854 576.666H494.701V603.381H508.854V576.666Z" fill="url(#paint31_linear)"/>
<path d="M479.895 620.342H465.742V647.057H479.895V620.342Z" fill="url(#paint32_linear)"/>
<path d="M508.854 620.342H494.701V647.057H508.854V620.342Z" fill="url(#paint33_linear)"/>
<path d="M521.918 562.672H452.024V566.064H521.918V562.672Z" fill="#C66E00"/>
<path d="M521.918 609.529H452.024V612.922H521.918V609.529Z" fill="#C66E00"/>
<path d="M860.066 558.22H794.092V660.627H860.066V558.22Z" fill="url(#paint34_linear)"/>
<path d="M860.066 558.22H794.092V564.58H860.066V558.22Z" fill="#F0B605"/>
<path d="M860.066 606.773H794.092V613.134H860.066V606.773Z" fill="#F0B605"/>
<path d="M821.09 571.153H805.195V599.565H821.09V571.153Z" fill="#F0B605"/>
<path d="M849.832 571.153H833.938V599.565H849.832V571.153Z" fill="#F0B605"/>
<path d="M821.09 614.83H805.195V643.241H821.09V614.83Z" fill="#F0B605"/>
<path d="M849.832 614.83H833.938V643.241H849.832V614.83Z" fill="#F0B605"/>
<path d="M820.22 572.001H806.067V598.716H820.22V572.001Z" fill="url(#paint35_linear)"/>
<path d="M848.961 572.001H834.809V598.716H848.961V572.001Z" fill="url(#paint36_linear)"/>
<path d="M820.22 615.678H806.067V642.393H820.22V615.678Z" fill="url(#paint37_linear)"/>
<path d="M848.961 615.678H834.809V642.393H848.961V615.678Z" fill="url(#paint38_linear)"/>
<path d="M862.025 558.22H792.131V561.612H862.025V558.22Z" fill="#C66E00"/>
<path d="M862.025 604.865H792.131V608.257H862.025V604.865Z" fill="#C66E00"/>
<path d="M186.603 553.131H120.628V655.538H186.603V553.131Z" fill="url(#paint39_linear)"/>
<path d="M186.603 553.131H120.628V559.491H186.603V553.131Z" fill="#F0B605"/>
<path d="M186.603 601.684H120.628V608.045H186.603V601.684Z" fill="#F0B605"/>
<path d="M147.627 566.276H131.732V594.688H147.627V566.276Z" fill="#F0B605"/>
<path d="M176.37 566.276H160.475V594.688H176.37V566.276Z" fill="#F0B605"/>
<path d="M147.627 609.741H131.732V638.152H147.627V609.741Z" fill="#F0B605"/>
<path d="M176.37 609.741H160.475V638.152H176.37V609.741Z" fill="#F0B605"/>
<path d="M146.756 566.912H132.604V593.627H146.756V566.912Z" fill="url(#paint40_linear)"/>
<path d="M175.498 566.912H161.345V593.627H175.498V566.912Z" fill="url(#paint41_linear)"/>
<path d="M146.756 610.801H132.604V637.516H146.756V610.801Z" fill="url(#paint42_linear)"/>
<path d="M175.498 610.801H161.345V637.516H175.498V610.801Z" fill="url(#paint43_linear)"/>
<path d="M188.562 553.131H118.668V556.523H188.562V553.131Z" fill="#C66E00"/>
<path d="M188.562 599.988H118.668V603.381H188.562V599.988Z" fill="#C66E00"/>
<path d="M931.048 698.791H7.18535C3.26607 698.791 0 695.611 0 691.795C0 687.978 3.26607 684.798 7.18535 684.798H931.048C934.967 684.798 938.233 687.978 938.233 691.795C938.233 695.823 934.967 698.791 931.048 698.791Z" fill="url(#paint44_linear)"/>
<path d="M467.919 685.01C438.96 685.01 46.3786 685.01 8.70996 685.01C43.1126 667.624 120.627 643.241 238.206 643.241C355.784 643.241 437.872 665.079 467.919 685.01Z" fill="#528620"/>
<path d="M926.474 685.01C897.515 685.01 504.933 685.01 467.265 685.01C501.667 667.624 579.182 643.241 696.761 643.241C814.339 643.241 896.426 665.079 926.474 685.01Z" fill="#528620"/>
<path d="M662.142 685.01C643.852 685.01 394.542 685.01 370.591 685.01C392.365 673.985 441.573 658.507 516.258 658.507C591.159 658.507 643.199 672.5 662.142 685.01Z" fill="url(#paint45_linear)"/>
<path d="M134.332 456.024C114.518 507.758 111.905 565.852 114.082 594.476C116.478 624.795 129.977 645.997 144.13 644.089C156.541 642.393 170.694 625.855 169.388 573.273C168.299 520.691 157.63 474.258 150.662 456.024C143.913 438.85 140.429 439.91 134.332 456.024Z" fill="url(#paint46_linear)"/>
<path opacity="0.6" d="M129.107 471.078C114.084 518.571 112.124 568.609 114.084 594.476C116.479 624.795 129.978 645.997 144.131 644.089C155.672 642.393 168.3 628.399 169.389 585.146C143.478 653.206 115.39 577.726 129.107 471.078Z" fill="#51A631"/>
<path d="M142.172 584.722L138.471 685.01H144.567L142.172 584.722Z" fill="#A35E1A"/>
<path d="M131.503 624.371L141.083 638.788L141.737 633.064L131.503 624.371Z" fill="#A35E1A"/>
<path d="M141.736 619.282V623.735L152.841 610.165L141.736 619.282Z" fill="#A35E1A"/>
<path d="M867.674 456.024C847.86 507.758 845.247 565.852 847.424 594.476C849.819 624.795 863.319 645.997 877.472 644.089C889.883 642.393 904.036 625.855 902.73 573.273C901.641 520.691 890.972 474.258 884.004 456.024C877.254 438.85 873.77 439.91 867.674 456.024Z" fill="url(#paint47_linear)"/>
<path opacity="0.6" d="M862.449 471.078C847.425 518.571 845.466 568.609 847.425 594.476C849.82 624.795 863.32 645.997 877.473 644.089C889.013 642.393 901.642 628.399 902.731 585.146C876.82 653.206 848.732 577.726 862.449 471.078Z" fill="#51A631"/>
<path d="M875.512 584.722L871.811 685.01H877.907L875.512 584.722Z" fill="#A35E1A"/>
<path d="M864.843 624.371L874.423 638.788L875.076 633.064L864.843 624.371Z" fill="#A35E1A"/>
<path d="M875.076 619.282V623.735L886.181 610.165L875.076 619.282Z" fill="#A35E1A"/>
<path d="M354.03 579.846C345.32 602.532 344.231 627.975 345.102 640.485C346.191 653.842 352.07 662.959 358.167 662.111C363.61 661.263 369.707 654.054 369.271 631.156C368.836 608.045 364.263 587.691 360.997 579.846C358.384 572.213 356.86 572.849 354.03 579.846Z" fill="url(#paint48_linear)"/>
<path opacity="0.6" d="M351.853 586.419C345.321 607.197 344.45 629.035 345.321 640.485C346.41 653.842 352.289 662.959 358.386 662.111C363.394 661.475 369.055 655.326 369.49 636.244C358.168 666.14 345.757 633.064 351.853 586.419Z" fill="#51A631"/>
<path d="M357.516 636.244L355.992 680.133H358.605L357.516 636.244Z" fill="#A35E1A"/>
<path d="M352.943 653.63L357.08 659.991L357.516 657.235L352.943 653.63Z" fill="#A35E1A"/>
<path d="M357.515 651.298V653.206L362.305 647.269L357.515 651.298Z" fill="#A35E1A"/>
<path d="M320.063 514.966C306.345 550.374 304.603 590.447 306.127 609.953C307.652 630.731 317.014 645.361 326.595 643.877C335.087 642.605 344.667 631.367 344.014 595.323C343.143 559.279 335.957 527.264 331.167 514.754C326.812 503.093 324.417 503.941 320.063 514.966Z" fill="url(#paint49_linear)"/>
<path opacity="0.6" d="M316.362 525.355C305.91 558.007 304.822 592.355 306.128 609.953C307.652 630.731 317.015 645.361 326.596 643.877C334.434 642.817 343.144 633.064 344.015 603.38C326.378 650.238 306.999 598.504 316.362 525.355Z" fill="#51A631"/>
<path d="M325.504 603.38L322.892 672.288H327.029L325.504 603.38Z" fill="#A35E1A"/>
<path d="M318.102 630.52L324.851 640.485L325.287 636.456L318.102 630.52Z" fill="#A35E1A"/>
<path d="M325.286 627.127V630.307L332.689 620.766L325.286 627.127Z" fill="#A35E1A"/>
<path d="M55.7283 514.967C19.366 550.375 14.5758 590.447 18.7128 610.165C23.0676 630.944 47.8897 645.573 73.5828 644.089C96.4453 642.817 122.138 631.58 119.961 595.536C117.784 559.492 98.6227 527.476 85.7761 514.967C73.5828 503.093 67.2684 503.941 55.7283 514.967Z" fill="url(#paint50_linear)"/>
<path opacity="0.6" d="M46.1476 525.356C18.4949 558.008 15.0111 592.356 18.7126 610.166C23.0674 630.944 47.8895 645.574 73.5826 644.089C94.4855 643.029 118.001 633.276 119.961 603.593C72.7117 650.238 21.1078 598.504 46.1476 525.356Z" fill="#51A631"/>
<path d="M69.6644 584.723L65.9629 685.01H71.8418L69.6644 584.723Z" fill="#A35E1A"/>
<path d="M49.6328 612.922L68.576 638.789L69.2292 633.064L49.6328 612.922Z" fill="#A35E1A"/>
<path d="M69.2295 619.283V623.735L88.3904 609.105L69.2295 619.283Z" fill="#A35E1A"/>
<path d="M665.612 514.967C629.25 550.375 624.46 590.447 628.597 610.166C632.951 630.944 657.774 645.574 683.467 644.089C706.329 642.817 732.022 631.58 729.845 595.536C727.667 559.492 708.506 527.476 695.66 514.967C683.467 503.093 677.152 503.941 665.612 514.967Z" fill="url(#paint51_linear)"/>
<path opacity="0.6" d="M656.032 525.356C628.38 558.008 624.896 592.356 628.597 610.166C632.952 630.944 657.774 645.574 683.467 644.09C704.37 643.029 727.886 633.276 729.846 603.593C682.814 650.238 630.993 598.504 656.032 525.356Z" fill="#51A631"/>
<path d="M679.548 584.723L675.847 685.01H681.943L679.548 584.723Z" fill="#A35E1A"/>
<path d="M659.733 612.922L678.459 638.789L679.112 633.064L659.733 612.922Z" fill="#A35E1A"/>
<path d="M679.112 619.283V623.735L698.273 609.106L679.112 619.283Z" fill="#A35E1A"/>
<path d="M99.0575 597.02C76.6305 618.858 73.7999 643.453 76.195 655.326C78.8079 668.048 94.0495 677.165 109.944 676.317C123.88 675.469 139.775 668.684 138.468 646.421C137.162 624.159 125.404 604.653 117.347 597.02C109.944 589.811 106.025 590.235 99.0575 597.02Z" fill="url(#paint52_linear)"/>
<path opacity="0.6" d="M93.1806 603.38C76.197 623.523 74.0196 644.513 76.4147 655.538C79.0276 668.26 94.2693 677.377 110.164 676.529C123.011 675.893 137.381 669.956 138.688 651.722C109.511 680.345 77.7212 648.33 93.1806 603.38Z" fill="#81B424"/>
<path d="M107.549 640.061L105.154 685.01H108.856L107.549 640.061Z" fill="#A35E1A"/>
<path d="M95.3564 657.235L106.897 673.137L107.332 669.532L95.3564 657.235Z" fill="#A35E1A"/>
<path d="M107.333 661.263V664.02L119.091 654.902L107.333 661.263Z" fill="#A35E1A"/>
<path d="M721.572 597.02C699.145 618.858 696.315 643.453 698.71 655.326C701.323 668.048 716.564 677.165 732.459 676.317C746.394 675.469 762.289 668.684 760.983 646.421C759.676 624.159 747.918 604.653 739.862 597.02C732.677 589.811 728.758 590.235 721.572 597.02Z" fill="url(#paint53_linear)"/>
<path opacity="0.6" d="M715.694 603.38C698.711 623.523 696.533 644.513 698.928 655.538C701.541 668.26 716.783 677.377 732.678 676.529C745.524 675.893 759.895 669.956 761.201 651.722C732.025 680.345 700.453 648.33 715.694 603.38Z" fill="#81B424"/>
<path d="M730.062 640.061L727.885 685.01H731.586L730.062 640.061Z" fill="#A35E1A"/>
<path d="M717.869 657.235L729.409 673.137L729.845 669.532L717.869 657.235Z" fill="#A35E1A"/>
<path d="M729.846 661.263V664.019L741.604 654.902L729.846 661.263Z" fill="#A35E1A"/>
<path d="M332.692 630.944C318.975 644.301 317.233 659.567 318.757 666.988C320.281 674.833 329.862 680.345 339.442 679.921C348.152 679.497 357.732 675.257 356.861 661.475C355.99 647.906 348.805 635.82 344.015 630.944C339.225 626.491 336.829 626.703 332.692 630.944Z" fill="url(#paint54_linear)"/>
<path opacity="0.6" d="M328.99 634.76C318.538 647.057 317.232 660.203 318.538 666.776C320.062 674.621 329.643 680.133 339.223 679.709C347.062 679.285 355.989 675.681 356.642 664.443C339.006 682.041 319.409 662.535 328.99 634.76Z" fill="#81B424"/>
<path d="M337.916 657.235L336.392 685.01H338.787L337.916 657.235Z" fill="#A35E1A"/>
<path d="M330.295 668.048L337.48 677.801L337.698 675.469L330.295 668.048Z" fill="#A35E1A"/>
<path d="M337.698 670.38V672.077L344.884 666.564L337.698 670.38Z" fill="#A35E1A"/>
<defs>
<linearGradient id="paint0_linear" x1="181.774" y1="574.601" x2="247.166" y2="574.601" gradientUnits="userSpaceOnUse">
<stop stop-color="#A3CCE3"/>
<stop offset="1" stop-color="#A3CCE3"/>
</linearGradient>
<linearGradient id="paint1_linear" x1="234.088" y1="640.551" x2="298.546" y2="640.551" gradientUnits="userSpaceOnUse">
<stop stop-color="#A3CCE3"/>
<stop offset="1" stop-color="#A3CCE3"/>
</linearGradient>
<linearGradient id="paint2_linear" x1="298.547" y1="600.071" x2="359.268" y2="600.071" gradientUnits="userSpaceOnUse">
<stop stop-color="#A3CCE3"/>
<stop offset="1" stop-color="#A3CCE3"/>
</linearGradient>
<linearGradient id="paint3_linear" x1="316.403" y1="544.118" x2="341.413" y2="544.118" gradientUnits="userSpaceOnUse">
<stop stop-color="#A3CCE3"/>
<stop offset="1" stop-color="#A3CCE3"/>
</linearGradient>
<linearGradient id="paint4_linear" x1="326.5" y1="486.362" x2="331.312" y2="486.362" gradientUnits="userSpaceOnUse">
<stop stop-color="#A3CCE3"/>
<stop offset="1" stop-color="#A3CCE3"/>
</linearGradient>
<linearGradient id="paint5_linear" x1="352.729" y1="633.274" x2="384.491" y2="633.274" gradientUnits="userSpaceOnUse">
<stop stop-color="#A3CCE3"/>
<stop offset="1" stop-color="#A3CCE3"/>
</linearGradient>
<linearGradient id="paint6_linear" x1="377.017" y1="619.629" x2="412.516" y2="619.629" gradientUnits="userSpaceOnUse">
<stop stop-color="#A3CCE3"/>
<stop offset="1" stop-color="#A3CCE3"/>
</linearGradient>
<linearGradient id="paint7_linear" x1="406.911" y1="547.932" x2="479.776" y2="547.932" gradientUnits="userSpaceOnUse">
<stop stop-color="#A3CCE3"/>
<stop offset="1" stop-color="#A3CCE3"/>
</linearGradient>
<linearGradient id="paint8_linear" x1="473.237" y1="603.255" x2="550.773" y2="603.255" gradientUnits="userSpaceOnUse">
<stop stop-color="#A3CCE3"/>
<stop offset="1" stop-color="#A3CCE3"/>
</linearGradient>
<linearGradient id="paint9_linear" x1="543.299" y1="655.106" x2="578.798" y2="655.106" gradientUnits="userSpaceOnUse">
<stop stop-color="#A3CCE3"/>
<stop offset="1" stop-color="#A3CCE3"/>
</linearGradient>
<linearGradient id="paint10_linear" x1="573.193" y1="620.993" x2="618.033" y2="620.993" gradientUnits="userSpaceOnUse">
<stop stop-color="#A3CCE3"/>
<stop offset="1" stop-color="#A3CCE3"/>
</linearGradient>
<linearGradient id="paint11_linear" x1="617.099" y1="589.319" x2="712.385" y2="589.319" gradientUnits="userSpaceOnUse">
<stop stop-color="#A3CCE3"/>
<stop offset="1" stop-color="#A3CCE3"/>
</linearGradient>
<linearGradient id="paint12_linear" x1="703.044" y1="639.187" x2="802.067" y2="639.187" gradientUnits="userSpaceOnUse">
<stop stop-color="#A3CCE3"/>
<stop offset="1" stop-color="#A3CCE3"/>
</linearGradient>
<linearGradient id="paint13_linear" x1="792.723" y1="584.607" x2="856.246" y2="584.607" gradientUnits="userSpaceOnUse">
<stop stop-color="#A3CCE3"/>
<stop offset="1" stop-color="#A3CCE3"/>
</linearGradient>
<linearGradient id="paint14_linear" x1="849.708" y1="626.907" x2="902.955" y2="626.907" gradientUnits="userSpaceOnUse">
<stop stop-color="#A3CCE3"/>
<stop offset="1" stop-color="#A3CCE3"/>
</linearGradient>
<linearGradient id="paint15_linear" x1="107.842" y1="628.598" x2="192.462" y2="628.598" gradientUnits="userSpaceOnUse">
<stop stop-color="#A3CCE3"/>
<stop offset="1" stop-color="#A3CCE3"/>
</linearGradient>
<linearGradient id="paint16_linear" x1="52.1431" y1="641.637" x2="114.269" y2="641.637" gradientUnits="userSpaceOnUse">
<stop stop-color="#A3CCE3"/>
<stop offset="1" stop-color="#A3CCE3"/>
</linearGradient>
<linearGradient id="paint17_linear" x1="540.157" y1="639.423" x2="603.681" y2="595.933" gradientUnits="userSpaceOnUse">
<stop stop-color="#F49D79"/>
<stop offset="1" stop-color="#F8B883"/>
</linearGradient>
<linearGradient id="paint18_linear" x1="551.59" y1="602.427" x2="551.59" y2="592.783" gradientUnits="userSpaceOnUse">
<stop stop-color="#3AA7CF"/>
<stop offset="1" stop-color="#93D5F6"/>
</linearGradient>
<linearGradient id="paint19_linear" x1="570.78" y1="602.427" x2="570.78" y2="592.783" gradientUnits="userSpaceOnUse">
<stop stop-color="#3AA7CF"/>
<stop offset="1" stop-color="#93D5F6"/>
</linearGradient>
<linearGradient id="paint20_linear" x1="589.97" y1="602.427" x2="589.97" y2="592.783" gradientUnits="userSpaceOnUse">
<stop stop-color="#3AA7CF"/>
<stop offset="1" stop-color="#93D5F6"/>
</linearGradient>
<linearGradient id="paint21_linear" x1="551.59" y1="637.223" x2="551.59" y2="627.58" gradientUnits="userSpaceOnUse">
<stop stop-color="#3AA7CF"/>
<stop offset="1" stop-color="#93D5F6"/>
</linearGradient>
<linearGradient id="paint22_linear" x1="570.78" y1="637.223" x2="570.78" y2="627.58" gradientUnits="userSpaceOnUse">
<stop stop-color="#3AA7CF"/>
<stop offset="1" stop-color="#93D5F6"/>
</linearGradient>
<linearGradient id="paint23_linear" x1="524.301" y1="629.034" x2="549.931" y2="603.771" gradientUnits="userSpaceOnUse">
<stop stop-color="#70B62C"/>
<stop offset="1" stop-color="#B4CC0E"/>
</linearGradient>
<linearGradient id="paint24_linear" x1="414.913" y1="657.412" x2="441.129" y2="619.587" gradientUnits="userSpaceOnUse">
<stop stop-color="#FCBE00"/>
<stop offset="1" stop-color="#FFDD5A"/>
</linearGradient>
<linearGradient id="paint25_linear" x1="423.078" y1="624.509" x2="423.078" y2="615.811" gradientUnits="userSpaceOnUse">
<stop stop-color="#3AA7CF"/>
<stop offset="1" stop-color="#93D5F6"/>
</linearGradient>
<linearGradient id="paint26_linear" x1="443.545" y1="624.509" x2="443.545" y2="615.811" gradientUnits="userSpaceOnUse">
<stop stop-color="#3AA7CF"/>
<stop offset="1" stop-color="#93D5F6"/>
</linearGradient>
<linearGradient id="paint27_linear" x1="423.078" y1="653.967" x2="423.078" y2="644.219" gradientUnits="userSpaceOnUse">
<stop stop-color="#3AA7CF"/>
<stop offset="1" stop-color="#93D5F6"/>
</linearGradient>
<linearGradient id="paint28_linear" x1="443.545" y1="653.967" x2="443.545" y2="644.219" gradientUnits="userSpaceOnUse">
<stop stop-color="#3AA7CF"/>
<stop offset="1" stop-color="#93D5F6"/>
</linearGradient>
<linearGradient id="paint29_linear" x1="461.488" y1="648.848" x2="498.35" y2="595.661" gradientUnits="userSpaceOnUse">
<stop stop-color="#FCBE00"/>
<stop offset="1" stop-color="#FFDD5A"/>
</linearGradient>
<linearGradient id="paint30_linear" x1="472.969" y1="602.581" x2="472.969" y2="590.352" gradientUnits="userSpaceOnUse">
<stop stop-color="#3AA7CF"/>
<stop offset="1" stop-color="#93D5F6"/>
</linearGradient>
<linearGradient id="paint31_linear" x1="501.745" y1="602.581" x2="501.745" y2="590.352" gradientUnits="userSpaceOnUse">
<stop stop-color="#3AA7CF"/>
<stop offset="1" stop-color="#93D5F6"/>
</linearGradient>
<linearGradient id="paint32_linear" x1="472.969" y1="644.002" x2="472.969" y2="630.296" gradientUnits="userSpaceOnUse">
<stop stop-color="#3AA7CF"/>
<stop offset="1" stop-color="#93D5F6"/>
</linearGradient>
<linearGradient id="paint33_linear" x1="501.745" y1="644.002" x2="501.745" y2="630.296" gradientUnits="userSpaceOnUse">
<stop stop-color="#3AA7CF"/>
<stop offset="1" stop-color="#93D5F6"/>
</linearGradient>
<linearGradient id="paint34_linear" x1="801.661" y1="644.247" x2="838.524" y2="591.061" gradientUnits="userSpaceOnUse">
<stop stop-color="#FCBE00"/>
<stop offset="1" stop-color="#FFDD5A"/>
</linearGradient>
<linearGradient id="paint35_linear" x1="813.142" y1="597.981" x2="813.142" y2="585.751" gradientUnits="userSpaceOnUse">
<stop stop-color="#3AA7CF"/>
<stop offset="1" stop-color="#93D5F6"/>
</linearGradient>
<linearGradient id="paint36_linear" x1="841.918" y1="597.981" x2="841.918" y2="585.751" gradientUnits="userSpaceOnUse">
<stop stop-color="#3AA7CF"/>
<stop offset="1" stop-color="#93D5F6"/>
</linearGradient>
<linearGradient id="paint37_linear" x1="813.142" y1="639.402" x2="813.142" y2="625.696" gradientUnits="userSpaceOnUse">
<stop stop-color="#3AA7CF"/>
<stop offset="1" stop-color="#93D5F6"/>
</linearGradient>
<linearGradient id="paint38_linear" x1="841.918" y1="639.402" x2="841.918" y2="625.696" gradientUnits="userSpaceOnUse">
<stop stop-color="#3AA7CF"/>
<stop offset="1" stop-color="#93D5F6"/>
</linearGradient>
<linearGradient id="paint39_linear" x1="128.153" y1="639.241" x2="165.015" y2="586.054" gradientUnits="userSpaceOnUse">
<stop stop-color="#FCBE00"/>
<stop offset="1" stop-color="#FFDD5A"/>
</linearGradient>
<linearGradient id="paint40_linear" x1="139.634" y1="592.974" x2="139.634" y2="580.744" gradientUnits="userSpaceOnUse">
<stop stop-color="#3AA7CF"/>
<stop offset="1" stop-color="#93D5F6"/>
</linearGradient>
<linearGradient id="paint41_linear" x1="168.41" y1="592.974" x2="168.41" y2="580.744" gradientUnits="userSpaceOnUse">
<stop stop-color="#3AA7CF"/>
<stop offset="1" stop-color="#93D5F6"/>
</linearGradient>
<linearGradient id="paint42_linear" x1="139.634" y1="634.396" x2="139.634" y2="620.689" gradientUnits="userSpaceOnUse">
<stop stop-color="#3AA7CF"/>
<stop offset="1" stop-color="#93D5F6"/>
</linearGradient>
<linearGradient id="paint43_linear" x1="168.41" y1="634.396" x2="168.41" y2="620.689" gradientUnits="userSpaceOnUse">
<stop stop-color="#3AA7CF"/>
<stop offset="1" stop-color="#93D5F6"/>
</linearGradient>
<linearGradient id="paint44_linear" x1="0.115183" y1="691.936" x2="938.216" y2="691.936" gradientUnits="userSpaceOnUse">
<stop stop-color="#70B62C"/>
<stop offset="1" stop-color="#B4CC0E"/>
</linearGradient>
<linearGradient id="paint45_linear" x1="370.711" y1="671.838" x2="662.193" y2="671.838" gradientUnits="userSpaceOnUse">
<stop stop-color="#70B62C"/>
<stop offset="1" stop-color="#B4CC0E"/>
</linearGradient>
<linearGradient id="paint46_linear" x1="125.736" y1="561.816" x2="211.083" y2="477.691" gradientUnits="userSpaceOnUse">
<stop stop-color="#70B62C"/>
<stop offset="1" stop-color="#B4CC0E"/>
</linearGradient>
<linearGradient id="paint47_linear" x1="859.1" y1="561.816" x2="944.448" y2="477.692" gradientUnits="userSpaceOnUse">
<stop stop-color="#70B62C"/>
<stop offset="1" stop-color="#B4CC0E"/>
</linearGradient>
<linearGradient id="paint48_linear" x1="350.382" y1="626.136" x2="387.764" y2="589.29" gradientUnits="userSpaceOnUse">
<stop stop-color="#70B62C"/>
<stop offset="1" stop-color="#B4CC0E"/>
</linearGradient>
<linearGradient id="paint49_linear" x1="314.206" y1="587.646" x2="372.797" y2="529.895" gradientUnits="userSpaceOnUse">
<stop stop-color="#70B62C"/>
<stop offset="1" stop-color="#B4CC0E"/>
</linearGradient>
<linearGradient id="paint50_linear" x1="56.3745" y1="596.931" x2="126.314" y2="527.994" gradientUnits="userSpaceOnUse">
<stop stop-color="#70B62C"/>
<stop offset="1" stop-color="#B4CC0E"/>
</linearGradient>
<linearGradient id="paint51_linear" x1="666.301" y1="596.931" x2="736.24" y2="527.994" gradientUnits="userSpaceOnUse">
<stop stop-color="#70B62C"/>
<stop offset="1" stop-color="#B4CC0E"/>
</linearGradient>
<linearGradient id="paint52_linear" x1="99.3625" y1="647.449" x2="142.321" y2="605.106" gradientUnits="userSpaceOnUse">
<stop stop-color="#B4CC0E"/>
<stop offset="1" stop-color="#E2DE00"/>
</linearGradient>
<linearGradient id="paint53_linear" x1="722.035" y1="647.449" x2="764.993" y2="605.107" gradientUnits="userSpaceOnUse">
<stop stop-color="#B4CC0E"/>
<stop offset="1" stop-color="#E2DE00"/>
</linearGradient>
<linearGradient id="paint54_linear" x1="332.825" y1="661.911" x2="359.278" y2="635.837" gradientUnits="userSpaceOnUse">
<stop stop-color="#B4CC0E"/>
<stop offset="1" stop-color="#E2DE00"/>
</linearGradient>
</defs>
</svg>
