<svg xmlns="http://www.w3.org/2000/svg" xmlns:xlink="http://www.w3.org/1999/xlink" viewBox="0 0 356.87 187.26"><defs><style>.cls-1{fill:url(#linear-gradient);}.cls-2{fill:none;}.cls-3{isolation:isolate;}.cls-11,.cls-14,.cls-16,.cls-20,.cls-21,.cls-22,.cls-23,.cls-25,.cls-28,.cls-29,.cls-30,.cls-39,.cls-4,.cls-45,.cls-46,.cls-47,.cls-49,.cls-50,.cls-8,.cls-9{mix-blend-mode:screen;}.cls-5{clip-path:url(#clip-path);}.cls-6{opacity:0.27;}.cls-24,.cls-6{mix-blend-mode:multiply;}.cls-7{fill:url(#linear-gradient-4);}.cls-8{fill:url(#radial-gradient);}.cls-10{fill:#33322f;}.cls-11{fill:url(#linear-gradient-5);}.cls-12{fill:url(#linear-gradient-6);}.cls-13{fill:#7b7d87;}.cls-14{fill:url(#linear-gradient-7);}.cls-15{fill:#7f8487;}.cls-16{fill:url(#linear-gradient-8);}.cls-17{fill:#ffc163;}.cls-17,.cls-26{mix-blend-mode:hard-light;}.cls-18{fill:#7a7971;}.cls-19,.cls-31,.cls-41,.cls-43{mix-blend-mode:color-dodge;}.cls-19{fill:url(#linear-gradient-9);}.cls-20{fill:url(#linear-gradient-10);}.cls-21{fill:url(#linear-gradient-11);}.cls-22{fill:url(#linear-gradient-12);}.cls-23{fill:url(#linear-gradient-13);}.cls-24{fill:url(#linear-gradient-14);}.cls-25{fill:#574916;}.cls-26{fill:url(#linear-gradient-15);}.cls-27{fill:#b0ada2;}.cls-28{fill:url(#linear-gradient-16);}.cls-29{fill:url(#linear-gradient-17);}.cls-30{fill:url(#linear-gradient-18);}.cls-31{fill:url(#radial-gradient-2);}.cls-32{fill:#fff;}.cls-33{fill:url(#linear-gradient-19);}.cls-34{fill:url(#linear-gradient-20);}.cls-35{fill:url(#linear-gradient-21);}.cls-36{fill:url(#linear-gradient-22);}.cls-37{fill:#930606;}.cls-38{fill:#e92121;}.cls-39{fill:url(#linear-gradient-23);}.cls-40{clip-path:url(#clip-path-2);}.cls-41{fill:url(#radial-gradient-3);}.cls-42{clip-path:url(#clip-path-3);}.cls-43{fill:url(#radial-gradient-4);}.cls-44{clip-path:url(#clip-path-4);}.cls-45{fill:url(#radial-gradient-5);}.cls-46{fill:url(#radial-gradient-6);}.cls-47{fill:url(#radial-gradient-7);}.cls-48{clip-path:url(#clip-path-5);}.cls-49{fill:url(#radial-gradient-8);}.cls-50{fill:url(#radial-gradient-9);}</style><linearGradient id="linear-gradient" x1="63.87" y1="104.01" x2="356.87" y2="104.01" gradientUnits="userSpaceOnUse"><stop offset="0" stop-color="#91578c"/><stop offset="1"/></linearGradient><clipPath id="clip-path"><rect class="cls-1" x="63.87" y="42.51" width="293" height="123" rx="11.19"/></clipPath><linearGradient id="linear-gradient-4" x1="0" y1="93.63" x2="202.41" y2="93.63" xlink:href="#linear-gradient"/><radialGradient id="radial-gradient" cx="163.88" cy="135.45" r="69.76" gradientTransform="translate(5.59 -78) rotate(14.1)" gradientUnits="userSpaceOnUse"><stop offset="0.01" stop-color="#fff"/><stop offset="0.04" stop-color="#ffc552"/><stop offset="0.1" stop-color="#fa0"/><stop offset="0.19" stop-color="#a46e00"/><stop offset="0.25" stop-color="#845900"/><stop offset="0.33" stop-color="#634300"/><stop offset="0.4" stop-color="#452f00"/><stop offset="0.55" stop-color="#231800"/><stop offset="0.7" stop-color="#0a0700"/><stop offset="1"/></radialGradient><linearGradient id="linear-gradient-5" x1="39.13" y1="65.86" x2="54.46" y2="46.38" gradientTransform="translate(72.34 89.55) rotate(0.17)" gradientUnits="userSpaceOnUse"><stop offset="0.11" stop-color="#fff"/><stop offset="1"/></linearGradient><linearGradient id="linear-gradient-6" x1="42.54" y1="38.86" x2="69.68" y2="38.86" gradientTransform="translate(72.34 89.55) rotate(0.17)" gradientUnits="userSpaceOnUse"><stop offset="0" stop-color="#545454"/><stop offset="0.12" stop-color="#b5b5b5"/><stop offset="0.19" stop-color="#dbdbdb"/><stop offset="0.29" stop-color="#fff"/><stop offset="0.5" stop-color="#d3d2d1"/><stop offset="0.58" stop-color="#9f9fa0"/><stop offset="0.66" stop-color="#abaaab"/><stop offset="0.72" stop-color="#a3a1a1"/><stop offset="0.88" stop-color="#545454"/><stop offset="1" stop-color="#707070"/></linearGradient><linearGradient id="linear-gradient-7" x1="55.96" y1="36.19" x2="55.79" y2="27.14" xlink:href="#linear-gradient-5"/><linearGradient id="linear-gradient-8" x1="55.86" y1="25.13" x2="55.86" y2="36.86" xlink:href="#linear-gradient-5"/><linearGradient id="linear-gradient-9" x1="68.55" y1="20.78" x2="52.59" y2="20.07" gradientTransform="translate(72.34 89.55) rotate(0.17)" gradientUnits="userSpaceOnUse"><stop offset="0.11" stop-color="#b7d1ee"/><stop offset="1" stop-color="gray"/></linearGradient><linearGradient id="linear-gradient-10" x1="51.53" y1="14.7" x2="57.05" y2="17.43" xlink:href="#linear-gradient-5"/><linearGradient id="linear-gradient-11" x1="50.96" y1="20.06" x2="55.07" y2="22.78" xlink:href="#linear-gradient-5"/><linearGradient id="linear-gradient-12" x1="48.4" y1="24.83" x2="54.93" y2="27.96" xlink:href="#linear-gradient-5"/><linearGradient id="linear-gradient-13" x1="43.96" y1="10.15" x2="47.25" y2="19.35" gradientTransform="translate(83.74 81.74) rotate(3.92)" xlink:href="#linear-gradient-5"/><linearGradient id="linear-gradient-14" x1="55.9" y1="35.04" x2="55.9" y2="-3.1" gradientTransform="translate(72.34 89.55) rotate(0.17)" gradientUnits="userSpaceOnUse"><stop offset="0.2" stop-color="#a6b6bf"/><stop offset="0.38" stop-color="#ced6dc"/><stop offset="0.5" stop-color="#e2e7eb"/><stop offset="0.65" stop-color="#eef1f3"/><stop offset="0.84" stop-color="#f9fafb"/><stop offset="1" stop-color="#fff"/></linearGradient><linearGradient id="linear-gradient-15" x1="55.6" y1="44.72" x2="56.1" y2="16.32" gradientTransform="translate(72.34 89.55) rotate(0.17)" gradientUnits="userSpaceOnUse"><stop offset="0.11" stop-color="#93a3ad"/><stop offset="1" stop-color="gray"/></linearGradient><linearGradient id="linear-gradient-16" x1="41.68" y1="34.74" x2="69.98" y2="34.74" xlink:href="#linear-gradient-5"/><linearGradient id="linear-gradient-17" x1="41.68" y1="39.11" x2="70.16" y2="39.11" xlink:href="#linear-gradient-5"/><linearGradient id="linear-gradient-18" x1="45.05" y1="43.65" x2="69.48" y2="43.65" xlink:href="#linear-gradient-5"/><radialGradient id="radial-gradient-2" cx="122.99" cy="61.5" r="38.25" gradientTransform="matrix(1, -0.01, 0.02, 1.19, 4.35, 39.73)" xlink:href="#radial-gradient"/><linearGradient id="linear-gradient-19" x1="128.91" y1="115.11" x2="141.53" y2="173.35" gradientTransform="matrix(1, 0, 0, 1, 0, 0)" xlink:href="#linear-gradient-6"/><linearGradient id="linear-gradient-20" x1="111.8" y1="97.93" x2="128.47" y2="139.67" gradientTransform="matrix(1, 0, 0, 1, 0, 0)" xlink:href="#linear-gradient-6"/><linearGradient id="linear-gradient-21" x1="125.25" y1="103.34" x2="127.51" y2="126.97" gradientTransform="matrix(1, 0, 0, 1, 0, 0)" xlink:href="#linear-gradient-6"/><linearGradient id="linear-gradient-22" x1="108.35" y1="85.62" x2="110.13" y2="104.55" gradientTransform="matrix(1, 0, 0, 1, 0, 0)" xlink:href="#linear-gradient-6"/><linearGradient id="linear-gradient-23" x1="65.99" y1="68.36" x2="113.07" y2="128.39" gradientUnits="userSpaceOnUse"><stop offset="0.11" stop-color="#f66"/><stop offset="1"/></linearGradient><clipPath id="clip-path-2"><path class="cls-2" d="M108.74,87.49l6.58,7.27s-2.67,1.63-6,3.67l-6.59-7.31Z"/></clipPath><radialGradient id="radial-gradient-3" cx="0.36" cy="719.31" r="11.66" gradientTransform="matrix(2.52, -1.55, 0.16, 0.26, -6.15, -91.75)" gradientUnits="userSpaceOnUse"><stop offset="0" stop-color="#d1d6ff"/><stop offset="0.04" stop-color="#75798f"/><stop offset="0.07" stop-color="#515463"/><stop offset="0.17" stop-color="#272930"/><stop offset="0.35" stop-color="#17181c"/><stop offset="0.52" stop-color="#101114"/><stop offset="0.75" stop-color="#070809"/><stop offset="1"/></radialGradient><clipPath id="clip-path-3"><path class="cls-2" d="M125.28,105.79l7.17,7.91-5.6,4.11-7.18-8c3.18-2.28,5.61-4.08,5.61-4.08Z"/></clipPath><radialGradient id="radial-gradient-4" cx="0.15" cy="836.99" r="11.66" gradientTransform="matrix(2.47, -1.63, 0.15, 0.23, 1.54, -76.82)" xlink:href="#radial-gradient-3"/><clipPath id="clip-path-4"><path class="cls-2" d="M119.67,109.86l7.18,8-12.29,9c-6.52,4.78-19.39,5.54-27.43-3.42a15,15,0,0,1-3.79-10.13A18.7,18.7,0,0,1,92,97.65c2.25-1.36,6.91-4.19,10.74-6.53l6.59,7.31-1,.59c-3.72,2.31-8,5-10,6.38-3.9,2.66-4.74,6.46-3.65,9.51,1.46,4.09,6.41,6.84,12.12,3.64C109.65,117,115.34,113,119.67,109.86Z"/></clipPath><radialGradient id="radial-gradient-5" cx="-9.99" cy="164.89" r="5.93" gradientTransform="matrix(4.33, -2.58, 0.83, 1.4, 21.12, -157.41)" gradientUnits="userSpaceOnUse"><stop offset="0.11" stop-color="#d1d6ff"/><stop offset="0.2" stop-color="#a3a6c6"/><stop offset="0.32" stop-color="#6f7187"/><stop offset="0.47" stop-color="#444653"/><stop offset="0.67" stop-color="#1d1e24"/><stop offset="0.82" stop-color="#08080a"/><stop offset="1"/></radialGradient><radialGradient id="radial-gradient-6" cx="15.17" cy="158.24" r="11.66" gradientTransform="matrix(5.04, -0.05, 0.02, 1.83, 24.11, -150.44)" xlink:href="#radial-gradient-5"/><radialGradient id="radial-gradient-7" cx="-0.64" cy="152.01" r="8.1" gradientTransform="matrix(4.13, -2.88, 1.04, 1.5, -27.88, -105.28)" xlink:href="#radial-gradient-5"/><clipPath id="clip-path-5"><path class="cls-2" d="M126.85,117.81v5.48l-12.29,9c-6.52,4.77-19.39,5.53-27.43-3.42a14.9,14.9,0,0,1-3.78-9.71h0v-5.91a15,15,0,0,0,3.79,10.13c8,9,20.91,8.2,27.43,3.42Z"/></clipPath><radialGradient id="radial-gradient-8" cx="-2.98" cy="215.14" r="8.1" gradientTransform="matrix(4.13, -2.88, 0.59, 0.85, 4.79, -59.7)" xlink:href="#radial-gradient-5"/><radialGradient id="radial-gradient-9" cx="-34.09" cy="56.93" r="8.1" gradientTransform="matrix(0.18, -5.03, 1.44, 0.05, 16.71, -60.68)" gradientUnits="userSpaceOnUse"><stop offset="0.11" stop-color="#ff4747"/><stop offset="1"/></radialGradient></defs><title>Asset 5</title><g class="cls-3"><g id="Layer_2" data-name="Layer 2"><g id="Layer_1-2" data-name="Layer 1"><g class="cls-4"><rect class="cls-1" x="63.87" y="42.51" width="293" height="123" rx="11.19"/><g class="cls-5"><rect class="cls-1" x="63.87" y="42.51" width="293" height="123" rx="11.19"/><g class="cls-6"><path class="cls-7" d="M68.53,2.8C50.1,7,28.18,20.26,17.1,35.57,7.37,49,1.13,63.44.28,80c-1.37,26.56,1.82,55.58,20.06,74.93a103.78,103.78,0,0,0,47.45,28.36c13.12,3.44,53.24,6.87,72.13,0,14.06-5.11,27.76-11.67,38.06-22.52,6.06-6.38,11.74-13.23,15.92-21C201,126.53,203.45,111,202,96S197.42,65.29,190.26,52a93.43,93.43,0,0,0-28-32.14C149.26,10.51,110.93-6.77,68.53,2.8Z"/></g><path class="cls-8" d="M199.2,110.3a69.76,69.76,0,1,1-50.65-84.66A69.75,69.75,0,0,1,199.2,110.3Z"/><path class="cls-9" d="M128.33,58.33c-27.5.14-35.41,27.36-23.92,39.25a39.32,39.32,0,0,1,10.77,21.5c.92-1.64,8.28,3.41,13.25,3.42s11.85-4.89,12.71-3.33c1.08-3.89.6-10.93,10.89-21.45C163.59,85.9,155.84,58.62,128.33,58.33Z"/><path class="cls-10" d="M136.76,135.5h.62c-.81,3.74-4,5.64-9,5.63s-8.18-1.94-9-5.68a25.51,25.51,0,0,0,17.35,0Z"/><path class="cls-11" d="M123.33,136.3a16.35,16.35,0,0,1-2.71-.83c.7,3.3,3.47,5,7.92,5,.43,0,.83,0,1.23-.06C126.41,140.15,124.2,138.76,123.33,136.3Z"/><path class="cls-12" d="M141.36,120.18c.13,6,.45,12.33-2.08,13.83h0a9.63,9.63,0,0,1-2.52,1.48,25.51,25.51,0,0,1-17.35,0,9.3,9.3,0,0,1-2.55-1.52h0c-2.52-1.52-2.17-7.89-2-13.84,0,2.74,5.92,5,13.24,5S141.36,122.92,141.36,120.18Z"/><path class="cls-13" d="M133.58,116.64c3.76.68,6.32,2,6.31,3.53,0,.89-.86,1.7-2.32,2.36a24.63,24.63,0,0,1-9.47,1.58,24.41,24.41,0,0,1-9.46-1.64c-1.46-.66-2.32-1.48-2.31-2.37,0-1.61,2.86-3,7-3.59A82.26,82.26,0,0,1,133.58,116.64Z"/><path class="cls-14" d="M133.58,116.64c3.76.68,6.32,2,6.31,3.53,0,.89-.86,1.7-2.32,2.36a24.63,24.63,0,0,1-9.47,1.58,24.41,24.41,0,0,1-9.46-1.64c-1.46-.66-2.32-1.48-2.31-2.37,0-1.61,2.86-3,7-3.59A82.26,82.26,0,0,1,133.58,116.64Z"/><path class="cls-15" d="M141.09,119.17c-.86-1.56-3.65-2.85-7.41-3.52a51.54,51.54,0,0,0-10.46-.13c-4.08.59-7.17,1.92-8.09,3.56a2.12,2.12,0,0,0-.28,1c0,2.74,5.92,5,13.24,5s13.27-2.18,13.27-4.92A2,2,0,0,0,141.09,119.17Zm-3.52,3.36a24.63,24.63,0,0,1-9.47,1.58,24.41,24.41,0,0,1-9.46-1.64c-1.46-.66-2.32-1.48-2.31-2.37,0-1.61,2.86-3,7-3.59a46.93,46.93,0,0,1,10.28.13h0c3.76.68,6.32,2,6.31,3.53C139.89,121.06,139,121.87,137.57,122.53Z"/><path class="cls-16" d="M141.09,119.17c-.86-1.56-3.65-2.85-7.41-3.52a51.54,51.54,0,0,0-10.46-.13c-4.08.59-7.17,1.92-8.09,3.56a2.12,2.12,0,0,0-.28,1c0,2.74,5.92,5,13.24,5s13.27-2.18,13.27-4.92A2,2,0,0,0,141.09,119.17Zm-3.52,3.36a24.63,24.63,0,0,1-9.47,1.58,24.41,24.41,0,0,1-9.46-1.64c-1.46-.66-2.32-1.48-2.31-2.37,0-1.61,2.86-3,7-3.59a46.93,46.93,0,0,1,10.28.13h0c3.76.68,6.32,2,6.31,3.53C139.89,121.06,139,121.87,137.57,122.53Z"/><path class="cls-17" d="M132.15,101.58c-.07.34-2.34.21-2.4.6a44.49,44.49,0,0,0,0,7.83s3.91,2.57,3.87,2.91c-.09,1-.21,5.87-.32,7,0,0,.13,1.25-4.84,1.24s-4.81-1.27-4.81-1.27c-.12-1.18-.21-6-.3-7.12,0-.34,3.69-2.57,3.69-2.57a42.55,42.55,0,0,0,0-7.82c-.06-.39-2.11-.67-2.17-1-.84-4.71-1-1.45,3.64-1.43S133,96.66,132.15,101.58Z"/><path class="cls-18" d="M138.49,92.84l-.16,0a.6.6,0,0,1-.42-.74c.31-1.17.65-2.37,1-3.58a.6.6,0,0,1,1.16.34c-.35,1.2-.68,2.39-1,3.55A.6.6,0,0,1,138.49,92.84Z"/><path class="cls-18" d="M132.64,120.43l-1,.35a80.08,80.08,0,0,1,.65-8.76A197.91,197.91,0,0,1,138,92.08l1,.32a194.38,194.38,0,0,0-5.72,19.84A73.73,73.73,0,0,0,132.64,120.43Z"/><path class="cls-18" d="M118.31,93.79a.61.61,0,0,1-.59-.47c-.29-1.33-.58-2.65-.88-4a.6.6,0,0,1,.46-.72.61.61,0,0,1,.72.46c.29,1.32.59,2.64.88,4a.61.61,0,0,1-.46.72Z"/><path class="cls-18" d="M124.46,120.43s0-3-.64-8.45a184.11,184.11,0,0,0-6-18.62l.94-.35a185.06,185.06,0,0,1,6,18.8c.62,5.62.62,9,.62,9Z"/><path class="cls-18" d="M131.76,100.27l-.48-.14c1.94-6.64,2.1-10.49,1.88-12.19a1.23,1.23,0,0,1-1-.08.56.56,0,0,1-.1-.69c.32-.83.71-.83.92-.76s.43.38.57.89a4.12,4.12,0,0,0,.52-.24,1.43,1.43,0,0,0,.5-.57l.44.25a2,2,0,0,1-.69.75,3.53,3.53,0,0,1-.66.3C134,89.81,133.6,94,131.76,100.27Zm1-13.39s-.15.11-.29.47c0,.09,0,.13,0,.14a1,1,0,0,0,.59,0C133,87.1,132.89,86.91,132.8,86.88Z"/><path class="cls-18" d="M125.33,100.27c-.23-.63-.49-1.31-.76-2-1.35-3.52-3-7.71-2.63-10.3a5.66,5.66,0,0,1-.6-2.35l.5,0a7.48,7.48,0,0,0,.29,1.59,2.55,2.55,0,0,1,.51-.86.66.66,0,0,1,.65-.19,1.33,1.33,0,0,1,.82.92.84.84,0,0,1-.14.84c-.54.55-1,.76-1.46.61l-.12-.06c-.12,2.44,1.39,6.37,2.65,9.68l.77,2Zm-2.88-12.46a.49.49,0,0,0,.23.17c.28.11.66-.2.92-.48.07-.06.07-.19,0-.35a.86.86,0,0,0-.46-.57.14.14,0,0,0-.16,0A2.25,2.25,0,0,0,122.45,87.81Z"/><path class="cls-18" d="M117.44,89.6l0-.75A10.29,10.29,0,0,0,122.5,87l.14-.09.16,0c3,.65,7.42.8,10.21-.41l.26-.11.18.22c1.06,1.27,4.32,1.49,6.07,1.61l-.05.75c-1.9-.13-5-.34-6.41-1.67-2.9,1.14-7.28,1-10.27.38A11.2,11.2,0,0,1,117.44,89.6Z"/><path class="cls-19" d="M132.15,101.58c-.07.34-2.34.21-2.4.6a44.49,44.49,0,0,0,0,7.83s3.91,2.57,3.87,2.91c-.09,1-.21,5.87-.32,7,0,0,.13,1.25-4.84,1.24s-4.81-1.27-4.81-1.27c-.12-1.18-.21-6-.3-7.12,0-.34,3.69-2.57,3.69-2.57a42.55,42.55,0,0,0,0-7.82c-.06-.39-2.11-.67-2.17-1-.84-4.71-1-1.45,3.64-1.43S133,96.66,132.15,101.58Z"/><path class="cls-20" d="M127.91,110c.07-1.72.12-5,0-7.44l-.53.06a52.83,52.83,0,0,1,0,7.38Z"/><path class="cls-21" d="M127.76,110.34l-.65,0s-3.23,1.93-3.21,2.23l2.1,0C126.41,112,127.43,110.75,127.76,110.34Z"/><path class="cls-22" d="M123.7,112.79c.07,1.08.13,5.94.22,7.12,0,0-.07.92,2.25,1.19-.13-2.76-.15-5.52-.15-8.27Z"/><path class="cls-23" d="M129.54,100.86a6.13,6.13,0,0,0,2.21-.54c.48-1.76,0-.08-3-.19-4.48-.16-4.64-2.22-3.7,1.18,0,.13,0,.13.38.27-.22-.86,0-1.31.14-1.4S126.92,101,129.54,100.86Z"/><path class="cls-24" d="M128.1,124.1c-7.59,0-12.24-2.34-12.24-4a1.09,1.09,0,0,1,.12-.47l.27-.44-.11-.41c-.06-.23-.12-.56-.2-1a39.58,39.58,0,0,0-10.81-20.92c-5.06-5.23-6.25-14-2.95-21.84,4.11-9.77,13.9-15.65,26.16-15.71,12.25.13,22,6.06,26,15.86,3.26,7.85,2,16.62-3.08,21.83-8.71,8.91-9.9,15.37-10.67,19.65-.16.86-.3,1.6-.47,2.23,0,0,.19,1.11.19,1.27C140.35,121.83,135.69,124.12,128.1,124.1Z"/><path class="cls-25" d="M128.33,58.33c-27.5.14-35.41,27.36-23.92,39.25a39.32,39.32,0,0,1,10.77,21.5c.15-.27.5-.34,1-.3-.06-.23-.12-.56-.2-1a39.58,39.58,0,0,0-10.81-20.92c-5.06-5.23-6.25-14-2.95-21.84,4.11-9.77,13.9-15.65,26.16-15.71,12.25.13,22,6.06,26,15.86,3.26,7.85,2,16.62-3.08,21.83-8.71,8.91-9.9,15.37-10.67,19.65-.16.85-.29,1.59-.47,2.22.48-.06.82,0,1,.28,1.08-3.89.6-10.93,10.89-21.45C163.59,85.9,155.84,58.62,128.33,58.33Z"/><path class="cls-26" d="M114.9,117.7c.11.58.19,1,.27,1.33l0,0a2.12,2.12,0,0,0-.28,1c0,2.74,5.92,5,13.24,5s13.27-2.18,13.27-4.92a2,2,0,0,0-.27-1L141,119a.71.71,0,0,1,.15.15c0-.14.07-.28.11-.43C137.47,103.69,121.29,103.27,114.9,117.7Z"/><path class="cls-27" d="M123.23,128.16a44.6,44.6,0,0,1-8.67-.81,1.32,1.32,0,1,1,.55-2.59c5.08,1.07,18,1.67,25.62-3.33a1.32,1.32,0,0,1,1.45,2.21C137,127.07,129.55,128.18,123.23,128.16Z"/><path class="cls-27" d="M123.22,132.49a44.6,44.6,0,0,1-8.67-.81,1.32,1.32,0,0,1,.54-2.59c5.08,1.07,18,1.67,25.63-3.33a1.32,1.32,0,1,1,1.45,2.21C137,131.4,129.54,132.51,123.22,132.49Z"/><path class="cls-27" d="M124,136.63a41.7,41.7,0,0,1-5.94-.42,1.32,1.32,0,0,1,.38-2.62c6.38.94,15.89.36,21.72-3.16a1.32,1.32,0,0,1,1.82.45,1.34,1.34,0,0,1-.45,1.82C136.81,135.54,130,136.65,124,136.63Z"/><path class="cls-28" d="M114.68,126.7a1.17,1.17,0,0,1,1.39-.91c4.51.95,16,1.61,25.16-3.25a1.23,1.23,0,0,1,1-.12,1,1,0,0,0-.12-.29,1.17,1.17,0,0,0-1.62-.34c-7.45,4.88-20.65,4.21-25.16,3.26a1.16,1.16,0,0,0-.6,2.24A1.17,1.17,0,0,1,114.68,126.7Z"/><path class="cls-29" d="M114.74,131a1.07,1.07,0,0,1,1.42-.8c4.94,1,17.76,1.72,25.14-3.13a1.27,1.27,0,0,1,1.1-.14,1.37,1.37,0,0,0-.13-.31,1.28,1.28,0,0,0-1.78-.37c-7.38,4.86-20.2,4.18-25.14,3.13a1.08,1.08,0,0,0-1.42.8,1.27,1.27,0,0,0,.86,1.47A1.29,1.29,0,0,1,114.74,131Z"/><path class="cls-30" d="M118,135.61a1.18,1.18,0,0,1,1.36-1c6.37,1.18,15.74,0,21-3.22a2,2,0,0,1,1.31.05,1,1,0,0,0-.08-.25,1.2,1.2,0,0,0-1.64-.41c-5.27,3.18-15.1,4.15-21.35,3.07a1.19,1.19,0,0,0-1.35,1,1.17,1.17,0,0,0,.8,1.28A1.28,1.28,0,0,1,118,135.61Z"/><path class="cls-31" d="M166.53,110.92c.33,25.18-16.51,45.81-37.64,46.09S90.37,137.11,90,111.93s16.53-45.83,37.65-46.11S166.2,85.73,166.53,110.92Z"/></g></g><path class="cls-32" d="M220.52,110.94h4.91c2.72,0,4,1.12,4,3.06a2.41,2.41,0,0,1-2.14,2.48v0a2.57,2.57,0,0,1,2.43,2.58c0,1.94-1.43,3.08-4.1,3.08h-5.08Zm4.61,4.71c1.24,0,1.85-.48,1.85-1.44s-.61-1.45-1.85-1.45H222.8v2.89Zm.27,4.74c1.26,0,1.87-.54,1.87-1.48s-.61-1.46-1.87-1.46h-2.6v2.94Z"/><path class="cls-32" d="M239.9,120.65l-.14,1.44a2.41,2.41,0,0,1-1.1.22,1.94,1.94,0,0,1-2-1.2,3.32,3.32,0,0,1-2.7,1.22c-1.73,0-2.8-.8-2.8-2.29,0-1.26.83-2.08,2.36-2.38l2.92-.6v-.32a1.43,1.43,0,0,0-1.51-1.55,1.74,1.74,0,0,0-1.8,1.39l-2-.61c.39-1.49,1.68-2.48,3.89-2.48s3.72,1.05,3.72,3.15v3.45c0,.44.21.64.62.64A1.85,1.85,0,0,0,239.9,120.65ZM236.43,119v-.52l-1.78.35c-.78.16-1.17.36-1.17,1s.47.87,1.07.87C235.51,120.68,236.43,120.27,236.43,119Z"/><path class="cls-32" d="M240.55,120.58l1.34-1.36a3.12,3.12,0,0,0,2.7,1.39c.89,0,1.46-.25,1.46-.81,0-.36-.18-.63-.93-.78l-1.5-.31c-2-.41-2.72-1.22-2.72-2.53s1.26-2.69,3.74-2.69a4.3,4.3,0,0,1,3.71,1.58l-1.4,1.36a2.65,2.65,0,0,0-2.24-1.22c-1,0-1.49.3-1.49.83,0,.36.27.63,1.1.8l1.73.36c1.69.34,2.35,1.17,2.35,2.31,0,1.63-1.34,2.82-3.77,2.82A5.07,5.07,0,0,1,240.55,120.58Z"/><path class="cls-32" d="M249.86,111.2c0-.84.48-1.26,1.45-1.26s1.44.42,1.44,1.26-.47,1.24-1.44,1.24S249.86,112,249.86,111.2Zm2.6,11h-2.33v-8.5h2.33Z"/><path class="cls-32" d="M262.56,116l-2.18.78a1.64,1.64,0,0,0-1.68-1.55c-1.31,0-2,.92-2,2.71s.78,2.67,2.06,2.67a1.67,1.67,0,0,0,1.77-1.52l2.1.68c-.37,1.52-1.75,2.57-3.85,2.57a4.42,4.42,0,0,1-.07-8.84C261,113.49,262.15,114.6,262.56,116Z"/><path class="cls-32" d="M278.35,112.86,277,114.37a4,4,0,0,0-3.43-1.71c-1.46,0-2.07.61-2.07,1.36s.41,1,1.58,1.29l2.09.48c2.21.49,3.11,1.46,3.11,3,0,2.23-1.87,3.52-4.57,3.52a6.46,6.46,0,0,1-5.17-2.19l1.33-1.58a4.64,4.64,0,0,0,3.84,1.88c1.37,0,2.16-.47,2.16-1.34,0-.56-.33-1-1.4-1.24l-2.28-.51c-2-.44-3.12-1.36-3.12-3,0-2,1.71-3.54,4.59-3.54A5.57,5.57,0,0,1,278.35,112.86Z"/><path class="cls-32" d="M287.94,116l-2.17.78a1.65,1.65,0,0,0-1.69-1.55c-1.31,0-2,.92-2,2.71s.79,2.67,2.06,2.67a1.67,1.67,0,0,0,1.77-1.52l2.11.68c-.38,1.52-1.76,2.57-3.86,2.57a4.42,4.42,0,0,1-.07-8.84C286.33,113.49,287.53,114.6,287.94,116Z"/><path class="cls-32" d="M289.39,111.2c0-.84.47-1.26,1.44-1.26s1.45.42,1.45,1.26-.48,1.24-1.45,1.24S289.39,112,289.39,111.2Zm2.6,11h-2.33v-8.5H292Z"/><path class="cls-32" d="M302.14,118.64h-6a2,2,0,0,0,2.12,2,1.93,1.93,0,0,0,1.92-1.09l1.86.71a3.85,3.85,0,0,1-3.76,2.11,4.42,4.42,0,0,1-.12-8.84,3.75,3.75,0,0,1,4,4C302.2,117.91,302.17,118.34,302.14,118.64Zm-6-1.61H300c-.12-1.18-.76-1.82-1.82-1.82A1.92,1.92,0,0,0,296.15,117Z"/><path class="cls-32" d="M312.18,116.58v5.58h-2.32v-4.91c0-1.45-.65-1.92-1.53-1.92s-1.94.63-1.94,2.33v4.5h-2.33v-8.5h2.09l.08,1.6a3,3,0,0,1,2.89-1.77A2.84,2.84,0,0,1,312.18,116.58Z"/><path class="cls-32" d="M322.21,116l-2.17.78c-.21-1-.77-1.55-1.68-1.55-1.31,0-2,.92-2,2.71s.78,2.67,2.05,2.67a1.67,1.67,0,0,0,1.77-1.52l2.11.68c-.38,1.52-1.75,2.57-3.86,2.57a4.42,4.42,0,0,1-.07-8.84C320.6,113.49,321.81,114.6,322.21,116Z"/><path class="cls-32" d="M331.73,118.64h-6a2,2,0,0,0,2.13,2,1.93,1.93,0,0,0,1.92-1.09l1.85.71a3.83,3.83,0,0,1-3.76,2.11,4.42,4.42,0,0,1-.11-8.84,3.76,3.76,0,0,1,4,4A9.52,9.52,0,0,1,331.73,118.64Zm-6-1.61h3.81a1.76,1.76,0,0,0-1.82-1.82A1.92,1.92,0,0,0,325.75,117Z"/><path class="cls-32" d="M214.32,141.05l-.14,1.44a2.46,2.46,0,0,1-1.11.22,1.93,1.93,0,0,1-2-1.2,3.33,3.33,0,0,1-2.7,1.22c-1.74,0-2.81-.8-2.81-2.29,0-1.26.83-2.08,2.36-2.38l2.93-.6v-.32a1.43,1.43,0,0,0-1.52-1.55,1.74,1.74,0,0,0-1.8,1.4l-2-.62c.39-1.49,1.69-2.48,3.9-2.48s3.72,1.06,3.72,3.15v3.45c0,.44.2.64.61.64A1.92,1.92,0,0,0,214.32,141.05Zm-3.47-1.62v-.52l-1.79.35c-.78.16-1.17.36-1.17,1s.48.87,1.07.87C209.93,141.08,210.85,140.67,210.85,139.43Z"/><path class="cls-32" d="M223.77,137v5.57h-2.33v-4.91c0-1.45-.65-1.92-1.53-1.92s-1.94.63-1.94,2.33v4.5h-2.33v-8.5h2.09l.09,1.6a3,3,0,0,1,2.89-1.77A2.84,2.84,0,0,1,223.77,137Z"/><path class="cls-32" d="M234.26,130.34v12.22h-2.1l-.1-1.65a2.93,2.93,0,0,1-2.8,1.82c-2.11,0-3.64-1.63-3.64-4.4s1.62-4.44,3.72-4.44a2.74,2.74,0,0,1,2.59,1.6v-5.15Zm-2.33,7.9c0-1.61-.77-2.56-2-2.56s-2,.91-2,2.63.73,2.64,2,2.64S231.93,140,231.93,138.24Z"/><path class="cls-32" d="M250.42,133.23h-3.75v9.33h-2.35v-9.33h-3.77v-1.89h9.87Z"/><path class="cls-32" d="M258.11,139h-6a2,2,0,0,0,2.12,2,1.93,1.93,0,0,0,1.92-1.09l1.86.71a3.85,3.85,0,0,1-3.76,2.11,4.42,4.42,0,0,1-.12-8.84,3.76,3.76,0,0,1,4.05,4C258.18,138.31,258.14,138.74,258.11,139Zm-6-1.61h3.81c-.12-1.18-.76-1.82-1.82-1.82A1.92,1.92,0,0,0,252.12,137.43Z"/><path class="cls-32" d="M267.78,136.39l-2.18.78a1.64,1.64,0,0,0-1.68-1.55c-1.31,0-2,.92-2,2.71s.78,2.67,2.06,2.67a1.67,1.67,0,0,0,1.77-1.52l2.1.68c-.37,1.52-1.75,2.57-3.86,2.57a4.42,4.42,0,0,1-.06-8.84C266.16,133.89,267.37,135,267.78,136.39Z"/><path class="cls-32" d="M269.5,130.34h2.33v5.17a2.88,2.88,0,0,1,2.73-1.62,2.84,2.84,0,0,1,3.06,3.1v5.57h-2.33v-4.9c0-1.46-.63-1.93-1.51-1.93s-1.95.64-1.95,2.34v4.49H269.5Z"/><path class="cls-32" d="M288,137v5.57H285.7v-4.91c0-1.45-.65-1.92-1.53-1.92s-1.94.63-1.94,2.33v4.5H279.9v-8.5H282l.09,1.6a3,3,0,0,1,2.89-1.77A2.84,2.84,0,0,1,288,137Z"/><path class="cls-32" d="M298.53,138.31a4.35,4.35,0,1,1-4.35-4.42A4.1,4.1,0,0,1,298.53,138.31Zm-6.37,0c0,1.8.75,2.69,2,2.69s2-.89,2-2.69-.75-2.69-2-2.69S292.16,136.51,292.16,138.31Z"/><path class="cls-32" d="M302.66,139.94c0,.78.26,1.07.89,1.07a2.22,2.22,0,0,0,.95-.17l-.2,1.53a3.48,3.48,0,0,1-1.58.36c-1.65,0-2.38-.76-2.38-2.53v-9.86h2.32Z"/><path class="cls-32" d="M313.9,138.31a4.35,4.35,0,1,1-4.35-4.42A4.1,4.1,0,0,1,313.9,138.31Zm-6.37,0c0,1.8.74,2.69,2,2.69s2-.89,2-2.69-.74-2.69-2-2.69S307.53,136.51,307.53,138.31Z"/><path class="cls-32" d="M323.59,143.22c0,2-1.82,3-4.47,3-2.92,0-4.22-.9-4.22-2.2,0-.77.45-1.38,1.55-1.62a1.6,1.6,0,0,1-1.14-1.6,1.78,1.78,0,0,1,1.31-1.68,2.52,2.52,0,0,1-1.34-2.33c0-1.78,1.48-2.89,3.87-2.89a5.7,5.7,0,0,1,1.84.27A2.3,2.3,0,0,1,323.5,132l.28,1.66c-1.07-.1-1.69.28-1.84.94a2.5,2.5,0,0,1,1.09,2.14c0,1.77-1.48,2.87-3.88,2.87a7.86,7.86,0,0,1-1.44-.13c-.49.15-.7.41-.7.73,0,.47.36.71,1.09.71h2.62C322.55,141,323.59,141.8,323.59,143.22Zm-1.87.33c0-.45-.29-.72-1.17-.72h-2.88c-.54,0-.93.31-.93.77,0,.63.9,1,2.4,1C320.89,144.62,321.72,144.14,321.72,143.55Zm-4.13-6.79a1.56,1.56,0,0,0,3.11,0,1.56,1.56,0,0,0-3.11,0Z"/><path class="cls-32" d="M329.44,143.09c-.83,2.31-1.82,3.12-3.62,3.12a4,4,0,0,1-2.18-.57l.5-1.69a2.17,2.17,0,0,0,1.49.48,1.33,1.33,0,0,0,1.41-1l.29-.73-.93-2.21-2.61-6.41h2.59l1.61,5.1.45,1.7.52-1.8,1.55-5h2.36Z"/><path class="cls-33" d="M132.45,119.18h0l-5.6,4.1v-5.48l5.6-4.11Z"/><path class="cls-34" d="M115.32,94.76v5.48s-2.65,1.61-5.92,3.64V98.47l-.05,0C112.65,96.39,115.32,94.76,115.32,94.76Z"/><path class="cls-35" d="M125.28,105.79l7.17,7.91-5.6,4.11-7.18-8c3.18-2.28,5.61-4.08,5.61-4.08Z"/><path class="cls-36" d="M108.74,87.49l6.58,7.27s-2.67,1.63-6,3.67l-6.59-7.31Z"/><path class="cls-37" d="M109.4,98.47v5.41c-3.93,2.43-8.78,5.47-11,7a9.34,9.34,0,0,0-3.46,4l-.19,0c-1.09-3-.25-6.85,3.65-9.51,2.07-1.41,6.31-4.07,10-6.38l1-.59Z"/><path class="cls-37" d="M126.85,117.81v5.48l-12.29,9c-6.52,4.77-19.39,5.53-27.43-3.42a14.9,14.9,0,0,1-3.78-9.71h0v-5.91a15,15,0,0,0,3.79,10.13c8,9,20.91,8.2,27.43,3.42Z"/><path class="cls-38" d="M119.67,109.86l7.18,8-12.29,9c-6.52,4.78-19.39,5.54-27.43-3.42a15,15,0,0,1-3.79-10.13A18.7,18.7,0,0,1,92,97.65c2.25-1.36,6.91-4.19,10.74-6.53l6.59,7.31-1,.59c-3.72,2.31-8,5-10,6.38-3.9,2.66-4.74,6.46-3.65,9.51,1.46,4.09,6.41,6.84,12.12,3.64C109.65,117,115.34,113,119.67,109.86Z"/><path class="cls-39" d="M119.67,109.86l7.18,8-12.29,9c-6.52,4.78-19.39,5.54-27.43-3.42a15,15,0,0,1-3.79-10.13A18.7,18.7,0,0,1,92,97.65c2.25-1.36,6.91-4.19,10.74-6.53l6.59,7.31-1,.59c-3.72,2.31-8,5-10,6.38-3.9,2.66-4.74,6.46-3.65,9.51,1.46,4.09,6.41,6.84,12.12,3.64C109.65,117,115.34,113,119.67,109.86Z"/><g class="cls-40"><path class="cls-41" d="M140.2,79c1,1.7-11.28,11.14-27.53,21.09s-30.25,16.65-31.29,15,11.29-11.14,27.53-21.09S139.16,77.3,140.2,79Z"/></g><g class="cls-42"><path class="cls-43" d="M157.85,96.7c1,1.48-11.12,11.19-27,21.67s-29.59,17.79-30.57,16.31,11.12-11.19,27-21.68S156.87,95.22,157.85,96.7Z"/></g><g class="cls-44"><path class="cls-45" d="M140.72,83.13c2.72,4.57-6.56,15.13-20.74,23.58s-27.88,11.59-30.6,7,6.55-15.13,20.73-23.57S138,78.55,140.72,83.13Z"/><path class="cls-46" d="M162.18,137.4c.12,11.77-26.07,21.59-58.5,21.92s-58.8-8.94-58.92-20.71S70.82,117,103.25,116.69,162.06,125.63,162.18,137.4Z"/><path class="cls-47" d="M161.78,101.21c4.68,6.71-6.51,22.59-25,35.47s-37.26,17.89-41.94,11.18,6.52-22.6,25-35.48S157.11,94.5,161.78,101.21Z"/></g><g class="cls-48"><path class="cls-49" d="M153.54,108.61c2.66,3.8-10.18,17.33-28.66,30.21S89.26,159.06,86.6,155.25,96.78,137.92,115.27,125,150.89,104.8,153.54,108.61Z"/><path class="cls-50" d="M94,72.93c6.43.22,11,18.66,10.23,41.18s-6.64,40.59-13.07,40.36-11-18.66-10.23-41.17S87.56,72.71,94,72.93Z"/></g></g></g></g></svg>