<svg id="Component_101_1" data-name="Component 101 – 1" xmlns="http://www.w3.org/2000/svg" xmlns:xlink="http://www.w3.org/1999/xlink" width="341" height="165" viewBox="0 0 341 165">
  <defs>
    <clipPath id="clip-path">
      <rect id="Rectangle_1605" data-name="Rectangle 1605" width="341" height="165" rx="16" transform="translate(744 1040)" fill="#9c0ee4"/>
    </clipPath>
  </defs>
  <g id="Group_1812" data-name="Group 1812" transform="translate(-744 -1040)" clip-path="url(#clip-path)">
    <g id="Rectangle_1604" data-name="Rectangle 1604" transform="translate(732 1019)" fill="#9c0ee4" stroke="#000" stroke-width="1">
      <rect width="361" height="191" stroke="none"/>
      <rect x="0.5" y="0.5" width="360" height="190" fill="none"/>
    </g>
    <ellipse id="Ellipse_239" data-name="Ellipse 239" cx="181" cy="174.5" rx="181" ry="174.5" transform="translate(590 932)" fill="#005488" opacity="0.36"/>
  </g>
  <text id="Chemistry" transform="translate(211 140)" fill="#fff" font-size="19" font-family="WorkSans-Bold, Work Sans" font-weight="700" letter-spacing="-0.009em"><tspan x="0" y="0">BST</tspan></text>
  <g id="test" transform="translate(-18.165 26)">
    <g id="Group_1801" data-name="Group 1801" transform="translate(77.252 28.094)">
      <g id="Group_1800" data-name="Group 1800">
        <path id="Path_4558" data-name="Path 4558" d="M287.211,232a1.211,1.211,0,1,0,1.211,1.211A1.211,1.211,0,0,0,287.211,232Z" transform="translate(-286 -232)" fill="#fff"/>
      </g>
    </g>
    <g id="Group_1803" data-name="Group 1803" transform="translate(72.408 20.828)">
      <g id="Group_1802" data-name="Group 1802">
        <path id="Path_4559" data-name="Path 4559" d="M247.211,172a1.211,1.211,0,1,0,1.211,1.211A1.211,1.211,0,0,0,247.211,172Z" transform="translate(-246 -172)" fill="#fff"/>
      </g>
    </g>
    <g id="Group_1805" data-name="Group 1805" transform="translate(57.877 52.313)">
      <g id="Group_1804" data-name="Group 1804">
        <path id="Path_4560" data-name="Path 4560" d="M127.211,432a1.211,1.211,0,1,0,1.211,1.211A1.211,1.211,0,0,0,127.211,432Z" transform="translate(-126 -432)" fill="#fff"/>
      </g>
    </g>
    <g id="Group_1807" data-name="Group 1807" transform="translate(48.491)">
      <g id="Group_1806" data-name="Group 1806">
        <path id="Path_4561" data-name="Path 4561" d="M97.646,49.367,82.1,21.722V7.058A3.633,3.633,0,0,0,80.884,0H66.353a3.633,3.633,0,0,0-1.211,7.058V21.722L49.592,49.367A8.477,8.477,0,0,0,56.979,62H90.258a8.476,8.476,0,0,0,7.387-12.633ZM67.409,22.633a1.21,1.21,0,0,0,.155-.594V7.266h1.211a1.211,1.211,0,0,0,0-2.422H66.353a1.211,1.211,0,0,1,0-2.422H80.884a1.211,1.211,0,0,1,0,2.422H78.463a1.211,1.211,0,0,0,0,2.422h1.211V22.039a1.21,1.21,0,0,0,.155.594l7.137,12.689a23.349,23.349,0,0,0-12.693,2.6,20.809,20.809,0,0,1-16.227,1.36ZM95.484,56.58a6,6,0,0,1-5.226,3H56.979A6.055,6.055,0,0,1,51.7,50.554l5.135-9.13a23.206,23.206,0,0,0,7.682,1.309q.581,0,1.164-.029a23.511,23.511,0,0,0,9.7-2.638,20.906,20.906,0,0,1,13.052-2.129l7.1,12.616A6,6,0,0,1,95.484,56.58Z" transform="translate(-48.491)" fill="#fff"/>
      </g>
    </g>
    <g id="Group_1809" data-name="Group 1809" transform="translate(65.142 28.094)">
      <g id="Group_1808" data-name="Group 1808">
        <path id="Path_4562" data-name="Path 4562" d="M189.633,232a3.633,3.633,0,1,0,3.633,3.633A3.637,3.637,0,0,0,189.633,232Zm0,4.844a1.211,1.211,0,1,1,1.211-1.211A1.212,1.212,0,0,1,189.633,236.844Z" transform="translate(-186 -232)" fill="#fff"/>
      </g>
    </g>
    <g id="Group_1811" data-name="Group 1811" transform="translate(62.72 52.313)">
      <g id="Group_1810" data-name="Group 1810">
        <path id="Path_4563" data-name="Path 4563" d="M191.43,432H167.211a1.211,1.211,0,0,0,0,2.422H191.43a1.211,1.211,0,0,0,0-2.422Z" transform="translate(-166 -432)" fill="#fff"/>
      </g>
    </g>
  </g>
</svg>
