<?xml version="1.0" encoding="utf-8"?>
<!-- Generator: Adobe Illustrator 23.0.1, SVG Export Plug-In . SVG Version: 6.00 Build 0)  -->
<svg version="1.1" id="Layer_1" xmlns="http://www.w3.org/2000/svg" xmlns:xlink="http://www.w3.org/1999/xlink" x="0px" y="0px"
	 viewBox="0 0 293 123" style="enable-background:new 0 0 293 123;" xml:space="preserve">
<style type="text/css">
	.st0{clip-path:url(#SVGID_3_);fill:url(#SVGID_4_);}
	.st1{opacity:0.27;clip-path:url(#SVGID_3_);}
	.st2{fill:url(#SVGID_5_);}
	.st3{clip-path:url(#SVGID_3_);fill:url(#SVGID_6_);}
	.st4{clip-path:url(#SVGID_3_);}
	.st5{fill:#33322F;}
	.st6{fill:url(#SVGID_7_);}
	.st7{fill:url(#SVGID_8_);}
	.st8{fill:#7B7D87;}
	.st9{fill:url(#SVGID_9_);}
	.st10{fill:#7F8487;}
	.st11{fill:url(#SVGID_10_);}
	.st12{fill:#FFC163;}
	.st13{fill:#7A7971;}
	.st14{fill:url(#SVGID_11_);}
	.st15{fill:url(#SVGID_12_);}
	.st16{fill:url(#SVGID_13_);}
	.st17{fill:url(#SVGID_14_);}
	.st18{fill:url(#SVGID_15_);}
	.st19{fill:url(#SVGID_16_);}
	.st20{fill:#574916;}
	.st21{fill:url(#SVGID_17_);}
	.st22{fill:#B0ADA2;}
	.st23{fill:url(#SVGID_18_);}
	.st24{fill:url(#SVGID_19_);}
	.st25{fill:url(#SVGID_20_);}
	.st26{clip-path:url(#SVGID_3_);fill:url(#SVGID_21_);}
	.st27{fill:#FFFFFF;}
	.st28{fill:url(#SVGID_22_);}
	.st29{fill:url(#SVGID_23_);}
	.st30{fill:url(#SVGID_24_);}
	.st31{fill:url(#SVGID_25_);}
	.st32{fill:#930606;}
	.st33{fill:#E92121;}
	.st34{fill:url(#SVGID_26_);}
	.st35{clip-path:url(#SVGID_28_);fill:url(#SVGID_29_);}
	.st36{clip-path:url(#SVGID_31_);fill:url(#SVGID_32_);}
	.st37{clip-path:url(#SVGID_34_);fill:url(#SVGID_35_);}
	.st38{clip-path:url(#SVGID_34_);fill:url(#SVGID_36_);}
	.st39{clip-path:url(#SVGID_34_);fill:url(#SVGID_37_);}
	.st40{clip-path:url(#SVGID_39_);fill:url(#SVGID_40_);}
	.st41{clip-path:url(#SVGID_39_);fill:url(#SVGID_41_);}
</style>
<g>
	<g>
		<defs>
			<path id="SVGID_1_" d="M281.8,123H11.2C5,123,0,118,0,111.8V11.2C0,5,5,0,11.2,0h270.6C288,0,293,5,293,11.2v100.6
				C293,118,288,123,281.8,123z"/>
		</defs>
		<linearGradient id="SVGID_2_" gradientUnits="userSpaceOnUse" x1="0" y1="61.5" x2="293" y2="61.5">
			<stop  offset="0" style="stop-color:#91578C"/>
			<stop  offset="1" style="stop-color:#000000"/>
		</linearGradient>
		<use xlink:href="#SVGID_1_"  style="overflow:visible;fill:url(#SVGID_2_);"/>
		<clipPath id="SVGID_3_">
			<use xlink:href="#SVGID_1_"  style="overflow:visible;"/>
		</clipPath>
		<linearGradient id="SVGID_4_" gradientUnits="userSpaceOnUse" x1="0" y1="61.5" x2="293" y2="61.5">
			<stop  offset="0" style="stop-color:#91578C"/>
			<stop  offset="1" style="stop-color:#000000"/>
		</linearGradient>
		<path class="st0" d="M281.8,123H11.2C5,123,0,118,0,111.8V11.2C0,5,5,0,11.2,0h270.6C288,0,293,5,293,11.2v100.6
			C293,118,288,123,281.8,123z"/>
		<g class="st1">
			<linearGradient id="SVGID_5_" gradientUnits="userSpaceOnUse" x1="-63.8719" y1="51.1187" x2="138.5388" y2="51.1187">
				<stop  offset="0" style="stop-color:#91578C"/>
				<stop  offset="1" style="stop-color:#000000"/>
			</linearGradient>
			<path class="st2" d="M4.7-39.7c-18.4,4.2-40.4,17.5-51.4,32.8c-9.7,13.4-16,27.9-16.8,44.4C-65,64-61.8,93.1-43.5,112.4
				c12.4,13.2,29.9,23.7,47.5,28.4c13.1,3.4,53.2,6.9,72.1,0c14.1-5.1,27.8-11.7,38.1-22.5c6.1-6.4,11.7-13.2,15.9-21
				c7.1-13.3,9.6-28.8,8.1-43.8c-1.4-15-4.6-30.7-11.8-44c-7-13-16.1-23.5-28-32.1C85.4-32,47.1-49.3,4.7-39.7z"/>
		</g>
		
			<radialGradient id="SVGID_6_" cx="100.0038" cy="92.9437" r="69.7593" gradientTransform="matrix(0.9699 0.2436 -0.2436 0.9699 -6.6848 -63.7214)" gradientUnits="userSpaceOnUse">
			<stop  offset="5.571030e-03" style="stop-color:#FFFFFF"/>
			<stop  offset="4.178270e-02" style="stop-color:#FFC552"/>
			<stop  offset="0.1003" style="stop-color:#FFAA00"/>
			<stop  offset="0.1866" style="stop-color:#A46E00"/>
			<stop  offset="0.2535" style="stop-color:#845900"/>
			<stop  offset="0.3287" style="stop-color:#634300"/>
			<stop  offset="0.4011" style="stop-color:#452F00"/>
			<stop  offset="0.5549" style="stop-color:#231800"/>
			<stop  offset="0.7033" style="stop-color:#0A0700"/>
			<stop  offset="1" style="stop-color:#000000"/>
		</radialGradient>
		<path class="st3" d="M135.3,67.8c-9.4,37.4-47.3,60-84.6,50.7C13.3,109.1-9.4,71.2,0,33.8C9.4-3.6,47.3-26.3,84.7-16.9
			C122-7.5,144.7,30.4,135.3,67.8z"/>
		<g class="st4">
			<g>
				<path d="M64.5,15.8C37,16,29,43.2,40.5,55.1c9.4,9.7,10.2,19.5,10.8,21.5c0.9-1.6,8.3,3.4,13.2,3.4c5,0,11.9-4.9,12.7-3.3
					c1.1-3.9,0.6-10.9,10.9-21.4C99.7,43.4,92,16.1,64.5,15.8z"/>
				<path class="st5" d="M72.9,93l0.6,0c-0.8,3.7-4,5.6-9,5.6c-5,0-8.2-1.9-9-5.7c2.2,0.9,5.3,1.5,8.7,1.5
					C67.6,94.5,70.6,93.9,72.9,93z"/>
				<g>
					
						<linearGradient id="SVGID_7_" gradientUnits="userSpaceOnUse" x1="-24.7445" y1="23.3484" x2="-9.4125" y2="3.8692" gradientTransform="matrix(1 2.900000e-03 -2.900000e-03 1 72.2192 89.7332)">
						<stop  offset="0.1057" style="stop-color:#FFFFFF"/>
						<stop  offset="1" style="stop-color:#000000"/>
					</linearGradient>
					<path class="st6" d="M59.5,93.8c-1-0.2-1.9-0.5-2.7-0.8c0.7,3.3,3.5,5,7.9,5c0.4,0,0.8,0,1.2-0.1
						C62.5,97.6,60.3,96.2,59.5,93.8z"/>
				</g>
				
					<linearGradient id="SVGID_8_" gradientUnits="userSpaceOnUse" x1="-21.3348" y1="-3.6523" x2="5.806" y2="-3.6523" gradientTransform="matrix(1 2.900000e-03 -2.900000e-03 1 72.2192 89.7332)">
					<stop  offset="0" style="stop-color:#545454"/>
					<stop  offset="0.1244" style="stop-color:#B5B5B5"/>
					<stop  offset="0.1912" style="stop-color:#DBDBDB"/>
					<stop  offset="0.2949" style="stop-color:#FFFFFF"/>
					<stop  offset="0.4977" style="stop-color:#D3D2D1"/>
					<stop  offset="0.5771" style="stop-color:#9F9FA0"/>
					<stop  offset="0.6617" style="stop-color:#ABAAAB"/>
					<stop  offset="0.7198" style="stop-color:#A3A1A1"/>
					<stop  offset="0.8791" style="stop-color:#545454"/>
					<stop  offset="1" style="stop-color:#707070"/>
				</linearGradient>
				<path class="st7" d="M77.5,77.7c0.1,6,0.4,12.3-2.1,13.8l0,0c-0.6,0.6-1.5,1.1-2.5,1.5c-2.3,0.9-5.3,1.5-8.7,1.5
					c-3.4,0-6.4-0.6-8.7-1.5c-1-0.4-1.9-0.9-2.5-1.5l0,0c-2.5-1.5-2.2-7.9-2-13.8c0,2.7,5.9,5,13.2,5C71.5,82.6,77.5,80.4,77.5,77.7
					z"/>
				<path class="st8" d="M69.7,74.1c3.8,0.7,6.3,2,6.3,3.5c0,0.9-0.9,1.7-2.3,2.4c-2.1,1-5.6,1.6-9.5,1.6c-3.9,0-7.3-0.7-9.5-1.6
					c-1.5-0.7-2.3-1.5-2.3-2.4c0-1.6,2.9-3,7-3.6C61.4,73.8,67.6,73.9,69.7,74.1z"/>
				
					<linearGradient id="SVGID_9_" gradientUnits="userSpaceOnUse" x1="-7.9104" y1="-6.323" x2="-8.0778" y2="-15.3683" gradientTransform="matrix(1 2.900000e-03 -2.900000e-03 1 72.2192 89.7332)">
					<stop  offset="0.1057" style="stop-color:#FFFFFF"/>
					<stop  offset="1" style="stop-color:#000000"/>
				</linearGradient>
				<path class="st9" d="M69.7,74.1c3.8,0.7,6.3,2,6.3,3.5c0,0.9-0.9,1.7-2.3,2.4c-2.1,1-5.6,1.6-9.5,1.6c-3.9,0-7.3-0.7-9.5-1.6
					c-1.5-0.7-2.3-1.5-2.3-2.4c0-1.6,2.9-3,7-3.6C61.4,73.8,67.6,73.9,69.7,74.1z"/>
				<path class="st10" d="M77.2,76.7c-0.9-1.6-3.7-2.9-7.4-3.5C63.7,72.5,59.4,73,59.4,73c-4.1,0.6-7.2,1.9-8.1,3.6
					c-0.2,0.3-0.3,0.7-0.3,1c0,2.7,5.9,5,13.2,5c7.3,0,13.3-2.2,13.3-4.9C77.5,77.3,77.4,77,77.2,76.7z M73.7,80
					c-2.1,1-5.6,1.6-9.5,1.6c-3.9,0-7.3-0.7-9.5-1.6c-1.5-0.7-2.3-1.5-2.3-2.4c0-1.6,2.9-3,7-3.6c6.6-0.4,9.8,0,10.3,0.1l0,0
					c3.8,0.7,6.3,2,6.3,3.5C76,78.6,75.2,79.4,73.7,80z"/>
				
					<linearGradient id="SVGID_10_" gradientUnits="userSpaceOnUse" x1="-8.0165" y1="-17.3759" x2="-8.0165" y2="-5.6494" gradientTransform="matrix(1 2.900000e-03 -2.900000e-03 1 72.2192 89.7332)">
					<stop  offset="0.1057" style="stop-color:#FFFFFF"/>
					<stop  offset="1" style="stop-color:#000000"/>
				</linearGradient>
				<path class="st11" d="M77.2,76.7c-0.9-1.6-3.7-2.9-7.4-3.5C63.7,72.5,59.4,73,59.4,73c-4.1,0.6-7.2,1.9-8.1,3.6
					c-0.2,0.3-0.3,0.7-0.3,1c0,2.7,5.9,5,13.2,5c7.3,0,13.3-2.2,13.3-4.9C77.5,77.3,77.4,77,77.2,76.7z M73.7,80
					c-2.1,1-5.6,1.6-9.5,1.6c-3.9,0-7.3-0.7-9.5-1.6c-1.5-0.7-2.3-1.5-2.3-2.4c0-1.6,2.9-3,7-3.6c6.6-0.4,9.8,0,10.3,0.1l0,0
					c3.8,0.7,6.3,2,6.3,3.5C76,78.6,75.2,79.4,73.7,80z"/>
			</g>
			<path class="st12" d="M68.3,59.1c-0.1,0.3-2.3,0.2-2.4,0.6c-0.4,2.7,0,7.8,0,7.8s3.9,2.6,3.9,2.9c-0.1,1.1-0.2,5.9-0.3,7
				c0,0,0.1,1.3-4.8,1.2c-5,0-4.8-1.3-4.8-1.3c-0.1-1.2-0.2-6-0.3-7.1c0-0.3,3.7-2.6,3.7-2.6s0.5-5.1,0-7.8c-0.1-0.4-2.1-0.7-2.2-1
				c-0.8-4.7-1-1.4,3.6-1.4C69.3,57.5,69.1,54.2,68.3,59.1z"/>
			<g>
				<g>
					<path class="st13" d="M74.6,50.3c0,0-0.1,0-0.2,0c-0.3-0.1-0.5-0.4-0.4-0.7c0.3-1.2,0.7-2.4,1-3.6c0.1-0.3,0.4-0.5,0.7-0.4
						c0.3,0.1,0.5,0.4,0.4,0.7c-0.4,1.2-0.7,2.4-1,3.6C75.1,50.2,74.9,50.3,74.6,50.3z"/>
				</g>
				<g>
					<path class="st13" d="M68.8,77.9l-1,0.4c0-0.3,0.2-6.7,0.6-8.8c0.8-3.6,2.4-10.1,5.7-19.9l1,0.3c-3.3,9.8-4.9,16.2-5.7,19.8
						C68.9,71.7,68.8,77.9,68.8,77.9z"/>
				</g>
				<g>
					<path class="st13" d="M54.4,51.3c-0.3,0-0.5-0.2-0.6-0.5c-0.3-1.3-0.6-2.6-0.9-4c-0.1-0.3,0.1-0.6,0.5-0.7
						c0.3-0.1,0.6,0.1,0.7,0.5c0.3,1.3,0.6,2.6,0.9,4c0.1,0.3-0.1,0.6-0.5,0.7C54.5,51.3,54.5,51.3,54.4,51.3z"/>
				</g>
				<g>
					<path class="st13" d="M60.6,77.9c0,0,0-3-0.6-8.4c-1.2-4.7-3.1-10.6-6-18.6l0.9-0.3c2.9,8,4.9,14,6,18.8c0.6,5.6,0.6,9,0.6,9
						L60.6,77.9z"/>
				</g>
				<g>
					<path class="st13" d="M67.9,57.8l-0.5-0.1c1.9-6.6,2.1-10.5,1.9-12.2c-0.4,0.1-0.8,0.1-1-0.1c-0.1-0.1-0.3-0.3-0.1-0.7
						c0.3-0.8,0.7-0.8,0.9-0.8c0.2,0.1,0.4,0.4,0.6,0.9c0.2-0.1,0.4-0.2,0.5-0.2c0.2-0.1,0.4-0.3,0.5-0.6l0.4,0.2
						c-0.2,0.4-0.4,0.6-0.7,0.8c-0.1,0.1-0.4,0.2-0.7,0.3C70.1,47.3,69.7,51.5,67.9,57.8z M68.9,44.4c0,0-0.2,0.1-0.3,0.5
						c0,0.1,0,0.1,0,0.1c0.1,0.1,0.3,0,0.6,0C69.1,44.6,69,44.4,68.9,44.4z"/>
				</g>
				<g>
					<path class="st13" d="M61.5,57.8c-0.2-0.6-0.5-1.3-0.8-2c-1.4-3.5-3-7.7-2.6-10.3c-0.3-0.5-0.5-1.3-0.6-2.4l0.5,0
						c0.1,0.7,0.2,1.2,0.3,1.6c0.1-0.3,0.3-0.6,0.5-0.9c0.2-0.2,0.4-0.2,0.6-0.2c0.4,0.1,0.7,0.5,0.8,0.9c0.1,0.3,0,0.6-0.1,0.8
						c-0.5,0.6-1,0.8-1.5,0.6c0,0-0.1,0-0.1-0.1c-0.1,2.4,1.4,6.4,2.7,9.7c0.3,0.7,0.5,1.4,0.8,2L61.5,57.8z M58.6,45.3
						c0.1,0.1,0.2,0.2,0.2,0.2c0.3,0.1,0.7-0.2,0.9-0.5c0.1-0.1,0.1-0.2,0-0.4c-0.1-0.3-0.3-0.5-0.5-0.6c0,0-0.1,0-0.2,0.1
						C58.8,44.4,58.7,44.8,58.6,45.3z"/>
				</g>
				<g>
					<path class="st13" d="M53.6,47.1l0-0.8c1.6-0.1,3.6-0.8,5.1-1.8l0.1-0.1l0.2,0c3,0.7,7.4,0.8,10.2-0.4l0.3-0.1l0.2,0.2
						c1.1,1.3,4.3,1.5,6.1,1.6l-0.1,0.8c-1.9-0.1-5-0.3-6.4-1.7c-2.9,1.1-7.3,1-10.3,0.4C57.3,46.3,55.2,47,53.6,47.1z"/>
				</g>
			</g>
			
				<linearGradient id="SVGID_11_" gradientUnits="userSpaceOnUse" x1="4.6774" y1="-21.7255" x2="-11.2797" y2="-22.4372" gradientTransform="matrix(1 2.900000e-03 -2.900000e-03 1 72.2192 89.7332)">
				<stop  offset="0.1057" style="stop-color:#B7D1EE"/>
				<stop  offset="1" style="stop-color:#808080"/>
			</linearGradient>
			<path class="st14" d="M68.3,59.1c-0.1,0.3-2.3,0.2-2.4,0.6c-0.4,2.7,0,7.8,0,7.8s3.9,2.6,3.9,2.9c-0.1,1.1-0.2,5.9-0.3,7
				c0,0,0.1,1.3-4.8,1.2c-5,0-4.8-1.3-4.8-1.3c-0.1-1.2-0.2-6-0.3-7.1c0-0.3,3.7-2.6,3.7-2.6s0.5-5.1,0-7.8c-0.1-0.4-2.1-0.7-2.2-1
				c-0.8-4.7-1-1.4,3.6-1.4C69.3,57.5,69.1,54.2,68.3,59.1z"/>
			
				<linearGradient id="SVGID_12_" gradientUnits="userSpaceOnUse" x1="-12.3372" y1="-27.8143" x2="-6.8236" y2="-25.0758" gradientTransform="matrix(1 2.900000e-03 -2.900000e-03 1 72.2192 89.7332)">
				<stop  offset="0.1057" style="stop-color:#FFFFFF"/>
				<stop  offset="1" style="stop-color:#000000"/>
			</linearGradient>
			<path class="st15" d="M64,67.5c0.1-1.7,0.1-5,0-7.4l-0.5,0.1c0.3,2.6,0,7.4,0,7.4L64,67.5z"/>
			
				<linearGradient id="SVGID_13_" gradientUnits="userSpaceOnUse" x1="-12.912" y1="-22.4547" x2="-8.8052" y2="-19.729" gradientTransform="matrix(1 2.900000e-03 -2.900000e-03 1 72.2192 89.7332)">
				<stop  offset="0.1057" style="stop-color:#FFFFFF"/>
				<stop  offset="1" style="stop-color:#000000"/>
			</linearGradient>
			<path class="st16" d="M63.9,67.8l-0.7,0.1c0,0-3.2,1.9-3.2,2.2l2.1,0C62.5,69.5,63.6,68.2,63.9,67.8z"/>
			
				<linearGradient id="SVGID_14_" gradientUnits="userSpaceOnUse" x1="-15.4684" y1="-17.6801" x2="-8.9441" y2="-14.5485" gradientTransform="matrix(1 2.900000e-03 -2.900000e-03 1 72.2192 89.7332)">
				<stop  offset="0.1057" style="stop-color:#FFFFFF"/>
				<stop  offset="1" style="stop-color:#000000"/>
			</linearGradient>
			<path class="st17" d="M59.8,70.3c0.1,1.1,0.1,5.9,0.2,7.1c0,0-0.1,0.9,2.3,1.2c-0.1-2.8-0.2-5.5-0.2-8.3L59.8,70.3z"/>
			
				<linearGradient id="SVGID_15_" gradientUnits="userSpaceOnUse" x1="-19.9131" y1="-32.3646" x2="-16.6233" y2="-23.1627" gradientTransform="matrix(0.9977 6.830000e-02 -6.830000e-02 0.9977 80.6909 86)">
				<stop  offset="0.1057" style="stop-color:#FFFFFF"/>
				<stop  offset="1" style="stop-color:#000000"/>
			</linearGradient>
			<path class="st18" d="M65.7,58.3c1-0.1,1.7-0.3,2.2-0.5c0.5-1.8,0-0.1-3-0.2c-4.5-0.2-4.6-2.2-3.7,1.2c0,0.1,0,0.1,0.4,0.3
				c-0.2-0.9,0-1.3,0.1-1.4C61.9,57.5,63,58.5,65.7,58.3z"/>
			
				<linearGradient id="SVGID_16_" gradientUnits="userSpaceOnUse" x1="-7.9705" y1="-7.4699" x2="-7.9705" y2="-45.6123" gradientTransform="matrix(1 2.900000e-03 -2.900000e-03 1 72.2192 89.7332)">
				<stop  offset="0.1982" style="stop-color:#A6B6BF"/>
				<stop  offset="0.3767" style="stop-color:#CED6DC"/>
				<stop  offset="0.5022" style="stop-color:#E2E7EB"/>
				<stop  offset="0.6476" style="stop-color:#EEF1F3"/>
				<stop  offset="0.8414" style="stop-color:#F9FAFB"/>
				<stop  offset="1" style="stop-color:#FFFFFF"/>
			</linearGradient>
			<path class="st19" d="M64.2,81.6c-7.6,0-12.2-2.3-12.2-4c0-0.2,0-0.3,0.1-0.5l0.3-0.4l-0.1-0.4c-0.1-0.2-0.1-0.6-0.2-1
				c-0.6-3.3-2.4-12.2-10.8-20.9c-5.1-5.2-6.3-14-3-21.8c4.1-9.8,13.9-15.6,26.2-15.7c12.2,0.1,22,6.1,26.1,15.9
				c3.3,7.8,2,16.6-3.1,21.8c-8.7,8.9-9.9,15.4-10.7,19.7c-0.2,0.9-0.3,1.6-0.5,2.2c0,0,0.2,1.1,0.2,1.3
				C76.5,79.3,71.8,81.6,64.2,81.6z"/>
			<path class="st20" d="M64.5,15.8C37,16,29,43.2,40.5,55.1c9.4,9.7,10.2,19.5,10.8,21.5c0.2-0.3,0.5-0.3,1-0.3
				c-0.1-0.2-0.1-0.6-0.2-1c-0.6-3.3-2.4-12.2-10.8-20.9c-5.1-5.2-6.3-14-3-21.8c4.1-9.8,13.9-15.6,26.2-15.7
				c12.2,0.1,22,6.1,26.1,15.9c3.3,7.8,2,16.6-3.1,21.8c-8.7,8.9-9.9,15.4-10.7,19.7c-0.2,0.9-0.3,1.6-0.5,2.2c0.5-0.1,0.8,0,1,0.3
				c1.1-3.9,0.6-10.9,10.9-21.4C99.7,43.4,92,16.1,64.5,15.8z"/>
			
				<linearGradient id="SVGID_17_" gradientUnits="userSpaceOnUse" x1="-8.2736" y1="2.2084" x2="-7.771" y2="-26.1848" gradientTransform="matrix(1 2.900000e-03 -2.900000e-03 1 72.2192 89.7332)">
				<stop  offset="0.1057" style="stop-color:#93A3AD"/>
				<stop  offset="1" style="stop-color:#808080"/>
			</linearGradient>
			<path class="st21" d="M51,75.2c0.1,0.6,0.2,1,0.3,1.3c0,0,0,0,0,0c-0.2,0.3-0.3,0.7-0.3,1c0,2.7,5.9,5,13.2,5
				c7.3,0,13.3-2.2,13.3-4.9c0-0.3-0.1-0.7-0.3-1c0,0-0.1-0.1-0.1-0.1c0.1,0,0.1,0.1,0.2,0.1c0-0.1,0.1-0.3,0.1-0.4
				C73.6,61.2,57.4,60.8,51,75.2z"/>
			<g>
				<path class="st22" d="M59.4,85.7c-3.4,0-6.4-0.3-8.7-0.8c-0.7-0.2-1.2-0.9-1-1.6c0.2-0.7,0.8-1.2,1.6-1c5.1,1.1,18,1.7,25.6-3.3
					c0.6-0.4,1.4-0.2,1.8,0.4c0.4,0.6,0.2,1.4-0.4,1.8C73.1,84.6,65.7,85.7,59.4,85.7z"/>
			</g>
			<g>
				<path class="st22" d="M59.3,90c-3.4,0-6.4-0.3-8.7-0.8c-0.7-0.2-1.2-0.9-1-1.6c0.1-0.7,0.8-1.2,1.6-1c5.1,1.1,18,1.7,25.6-3.3
					c0.6-0.4,1.4-0.2,1.8,0.4c0.4,0.6,0.2,1.4-0.4,1.8C73.1,88.9,65.7,90,59.3,90z"/>
			</g>
			<g>
				<path class="st22" d="M60.1,94.1c-2.1,0-4.2-0.2-5.9-0.4c-0.7-0.1-1.2-0.8-1.1-1.5c0.1-0.7,0.8-1.2,1.5-1.1
					c6.4,0.9,15.9,0.4,21.7-3.2c0.6-0.4,1.4-0.2,1.8,0.4c0.4,0.6,0.2,1.4-0.4,1.8C72.9,93,66.1,94.1,60.1,94.1z"/>
			</g>
			
				<linearGradient id="SVGID_18_" gradientUnits="userSpaceOnUse" x1="-22.1933" y1="-7.772" x2="6.1105" y2="-7.772" gradientTransform="matrix(1 2.900000e-03 -2.900000e-03 1 72.2192 89.7332)">
				<stop  offset="0.1057" style="stop-color:#FFFFFF"/>
				<stop  offset="1" style="stop-color:#000000"/>
			</linearGradient>
			<path class="st23" d="M50.8,84.2c0.1-0.6,0.7-1,1.4-0.9c4.5,1,16,1.6,25.2-3.3c0.3-0.2,0.7-0.2,1-0.1c0-0.1-0.1-0.2-0.1-0.3
				c-0.4-0.5-1.1-0.7-1.6-0.3c-7.5,4.9-20.6,4.2-25.2,3.3c-0.6-0.1-1.3,0.3-1.4,0.9c-0.1,0.6,0.2,1.2,0.8,1.3
				C50.8,84.6,50.8,84.4,50.8,84.2z"/>
			
				<linearGradient id="SVGID_19_" gradientUnits="userSpaceOnUse" x1="-22.194" y1="-3.404" x2="6.2922" y2="-3.404" gradientTransform="matrix(1 2.900000e-03 -2.900000e-03 1 72.2192 89.7332)">
				<stop  offset="0.1057" style="stop-color:#FFFFFF"/>
				<stop  offset="1" style="stop-color:#000000"/>
			</linearGradient>
			<path class="st24" d="M50.9,88.5c0.1-0.7,0.7-0.9,1.4-0.8c4.9,1,17.8,1.7,25.1-3.1c0.3-0.2,0.7-0.2,1.1-0.1
				c0-0.1-0.1-0.2-0.1-0.3c-0.4-0.6-1.2-0.8-1.8-0.4c-7.4,4.9-20.2,4.2-25.1,3.1c-0.7-0.1-1.3,0.1-1.4,0.8c-0.1,0.6,0.3,1.3,0.9,1.5
				C50.9,88.9,50.8,88.7,50.9,88.5z"/>
			
				<linearGradient id="SVGID_20_" gradientUnits="userSpaceOnUse" x1="-18.817" y1="1.1424" x2="5.6108" y2="1.1424" gradientTransform="matrix(1 2.900000e-03 -2.900000e-03 1 72.2192 89.7332)">
				<stop  offset="0.1057" style="stop-color:#FFFFFF"/>
				<stop  offset="1" style="stop-color:#000000"/>
			</linearGradient>
			<path class="st25" d="M54.2,93.1c0.1-0.7,0.7-1.1,1.4-1c6.4,1.2,15.7,0,21-3.2c0.3-0.2,1-0.1,1.3,0c0-0.1,0-0.2-0.1-0.2
				c-0.3-0.6-1.1-0.7-1.6-0.4c-5.3,3.2-15.1,4.1-21.3,3.1c-0.6-0.1-1.3,0.4-1.4,1c-0.1,0.6,0.3,1.1,0.8,1.3
				C54.2,93.5,54.1,93.3,54.2,93.1z"/>
		</g>
		
			<radialGradient id="SVGID_21_" cx="59.1132" cy="18.9941" r="38.2488" gradientTransform="matrix(0.9999 -1.320000e-02 1.570000e-02 1.192 5.0064 47.0471)" gradientUnits="userSpaceOnUse">
			<stop  offset="5.571030e-03" style="stop-color:#FFFFFF"/>
			<stop  offset="4.178270e-02" style="stop-color:#FFC552"/>
			<stop  offset="0.1003" style="stop-color:#FFAA00"/>
			<stop  offset="0.1866" style="stop-color:#A46E00"/>
			<stop  offset="0.2535" style="stop-color:#845900"/>
			<stop  offset="0.3287" style="stop-color:#634300"/>
			<stop  offset="0.4011" style="stop-color:#452F00"/>
			<stop  offset="0.5549" style="stop-color:#231800"/>
			<stop  offset="0.7033" style="stop-color:#0A0700"/>
			<stop  offset="1" style="stop-color:#000000"/>
		</radialGradient>
		<path class="st26" d="M102.7,68.4c0.3,25.2-16.5,45.8-37.6,46.1c-21.1,0.3-38.5-19.9-38.9-45.1c-0.3-25.2,16.5-45.8,37.7-46.1
			C84.9,23,102.3,43.2,102.7,68.4z"/>
	</g>
	<g>
		<g>
			<path class="st27" d="M156.6,68.4h4.9c2.7,0,4,1.1,4,3.1c0,1.2-0.7,2.2-2.1,2.5v0c1.6,0.2,2.4,1.3,2.4,2.6c0,1.9-1.4,3.1-4.1,3.1
				h-5.1V68.4z M161.3,73.1c1.2,0,1.9-0.5,1.9-1.4s-0.6-1.4-1.9-1.4h-2.3v2.9H161.3z M161.5,77.9c1.3,0,1.9-0.5,1.9-1.5
				c0-0.9-0.6-1.5-1.9-1.5h-2.6v2.9H161.5z"/>
			<path class="st27" d="M176,78.1l-0.1,1.4c-0.3,0.1-0.6,0.2-1.1,0.2c-1,0-1.8-0.4-2-1.2c-0.5,0.8-1.6,1.2-2.7,1.2
				c-1.7,0-2.8-0.8-2.8-2.3c0-1.3,0.8-2.1,2.4-2.4l2.9-0.6v-0.3c0-1-0.6-1.5-1.5-1.5c-0.8,0-1.5,0.4-1.8,1.4l-2-0.6
				c0.4-1.5,1.7-2.5,3.9-2.5c2.2,0,3.7,1.1,3.7,3.1v3.5c0,0.4,0.2,0.6,0.6,0.6C175.7,78.2,175.9,78.2,176,78.1z M172.6,76.5V76
				l-1.8,0.4c-0.8,0.2-1.2,0.4-1.2,1c0,0.6,0.5,0.9,1.1,0.9C171.6,78.2,172.6,77.8,172.6,76.5z"/>
			<path class="st27" d="M176.7,78.1l1.3-1.4c0.5,0.8,1.5,1.4,2.7,1.4c0.9,0,1.5-0.3,1.5-0.8c0-0.4-0.2-0.6-0.9-0.8l-1.5-0.3
				c-2-0.4-2.7-1.2-2.7-2.5c0-1.4,1.3-2.7,3.7-2.7c1.7,0,3,0.5,3.7,1.6l-1.4,1.4c-0.5-0.8-1.4-1.2-2.2-1.2c-1,0-1.5,0.3-1.5,0.8
				c0,0.4,0.3,0.6,1.1,0.8l1.7,0.4c1.7,0.3,2.3,1.2,2.3,2.3c0,1.6-1.3,2.8-3.8,2.8C179,79.8,177.6,79.2,176.7,78.1z"/>
			<path class="st27" d="M186,68.7c0-0.8,0.5-1.3,1.4-1.3s1.4,0.4,1.4,1.3s-0.5,1.2-1.4,1.2S186,69.5,186,68.7z M188.6,79.7h-2.3
				v-8.5h2.3V79.7z"/>
			<path class="st27" d="M198.7,73.5l-2.2,0.8c-0.2-1-0.8-1.5-1.7-1.5c-1.3,0-2,0.9-2,2.7c0,1.8,0.8,2.7,2.1,2.7
				c1,0,1.6-0.5,1.8-1.5l2.1,0.7c-0.4,1.5-1.8,2.6-3.9,2.6c-2.7,0-4.4-1.6-4.4-4.4c0-2.8,1.8-4.4,4.3-4.4
				C197.1,71,198.3,72.1,198.7,73.5z"/>
			<path class="st27" d="M214.5,70.4l-1.3,1.5c-0.9-1.2-2-1.7-3.4-1.7c-1.5,0-2.1,0.6-2.1,1.4c0,0.6,0.4,1,1.6,1.3l2.1,0.5
				c2.2,0.5,3.1,1.5,3.1,3c0,2.2-1.9,3.5-4.6,3.5c-2.3,0-4.1-0.9-5.2-2.2L206,76c0.8,1.1,2.2,1.9,3.8,1.9c1.4,0,2.2-0.5,2.2-1.3
				c0-0.6-0.3-1-1.4-1.2l-2.3-0.5c-2-0.4-3.1-1.4-3.1-3c0-2,1.7-3.5,4.6-3.5C211.9,68.3,213.4,69,214.5,70.4z"/>
			<path class="st27" d="M224.1,73.5l-2.2,0.8c-0.2-1-0.8-1.5-1.7-1.5c-1.3,0-2,0.9-2,2.7c0,1.8,0.8,2.7,2.1,2.7
				c1,0,1.6-0.5,1.8-1.5l2.1,0.7c-0.4,1.5-1.8,2.6-3.9,2.6c-2.7,0-4.4-1.6-4.4-4.4c0-2.8,1.8-4.4,4.3-4.4
				C222.5,71,223.7,72.1,224.1,73.5z"/>
			<path class="st27" d="M225.5,68.7c0-0.8,0.5-1.3,1.4-1.3c1,0,1.4,0.4,1.4,1.3s-0.5,1.2-1.4,1.2C226,69.9,225.5,69.5,225.5,68.7z
				 M228.1,79.7h-2.3v-8.5h2.3V79.7z"/>
			<path class="st27" d="M238.3,76.1h-6c0.2,1.3,1,2,2.1,2c1,0,1.6-0.4,1.9-1.1l1.9,0.7c-0.5,1.3-2,2.1-3.8,2.1
				c-2.7,0-4.4-1.6-4.4-4.4c0-2.8,1.8-4.4,4.3-4.4c2.6,0,4,1.7,4,4C238.3,75.4,238.3,75.8,238.3,76.1z M232.3,74.5h3.8
				c-0.1-1.2-0.8-1.8-1.8-1.8C233.2,72.7,232.5,73.3,232.3,74.5z"/>
			<path class="st27" d="M248.3,74.1v5.6H246v-4.9c0-1.4-0.6-1.9-1.5-1.9c-1,0-1.9,0.6-1.9,2.3v4.5h-2.3v-8.5h2.1l0.1,1.6
				c0.5-1.2,1.6-1.8,2.9-1.8C247,71,248.3,72,248.3,74.1z"/>
			<path class="st27" d="M258.3,73.5l-2.2,0.8c-0.2-1-0.8-1.5-1.7-1.5c-1.3,0-2,0.9-2,2.7c0,1.8,0.8,2.7,2.1,2.7
				c1,0,1.6-0.5,1.8-1.5l2.1,0.7c-0.4,1.5-1.8,2.6-3.9,2.6c-2.7,0-4.4-1.6-4.4-4.4c0-2.8,1.8-4.4,4.3-4.4
				C256.7,71,257.9,72.1,258.3,73.5z"/>
			<path class="st27" d="M267.9,76.1h-6c0.2,1.3,1,2,2.1,2c1,0,1.6-0.4,1.9-1.1l1.9,0.7c-0.5,1.3-2,2.1-3.8,2.1
				c-2.7,0-4.4-1.6-4.4-4.4c0-2.8,1.8-4.4,4.3-4.4c2.6,0,4,1.7,4,4C267.9,75.4,267.9,75.8,267.9,76.1z M261.9,74.5h3.8
				c-0.1-1.2-0.8-1.8-1.8-1.8C262.8,72.7,262.1,73.3,261.9,74.5z"/>
			<path class="st27" d="M150.4,98.5l-0.1,1.4c-0.3,0.1-0.6,0.2-1.1,0.2c-1,0-1.8-0.4-2-1.2c-0.5,0.8-1.6,1.2-2.7,1.2
				c-1.7,0-2.8-0.8-2.8-2.3c0-1.3,0.8-2.1,2.4-2.4L147,95v-0.3c0-1-0.6-1.5-1.5-1.5c-0.8,0-1.5,0.4-1.8,1.4l-2-0.6
				c0.4-1.5,1.7-2.5,3.9-2.5c2.2,0,3.7,1.1,3.7,3.1V98c0,0.4,0.2,0.6,0.6,0.6C150.1,98.6,150.3,98.6,150.4,98.5z M147,96.9v-0.5
				l-1.8,0.4c-0.8,0.2-1.2,0.4-1.2,1c0,0.6,0.5,0.9,1.1,0.9C146.1,98.6,147,98.2,147,96.9z"/>
			<path class="st27" d="M159.9,94.5v5.6h-2.3v-4.9c0-1.4-0.6-1.9-1.5-1.9c-1,0-1.9,0.6-1.9,2.3v4.5h-2.3v-8.5h2.1l0.1,1.6
				c0.5-1.2,1.6-1.8,2.9-1.8C158.6,91.4,159.9,92.4,159.9,94.5z"/>
			<path class="st27" d="M170.4,87.8v12.2h-2.1l-0.1-1.6c-0.5,1.1-1.5,1.8-2.8,1.8c-2.1,0-3.6-1.6-3.6-4.4c0-2.8,1.6-4.4,3.7-4.4
				c1.2,0,2.1,0.6,2.6,1.6v-5.2H170.4z M168.1,95.7c0-1.6-0.8-2.6-2-2.6c-1.3,0-2,0.9-2,2.6s0.7,2.6,2,2.6
				C167.3,98.4,168.1,97.5,168.1,95.7z"/>
			<path class="st27" d="M186.6,90.7h-3.8v9.3h-2.3v-9.3h-3.8v-1.9h9.9V90.7z"/>
			<path class="st27" d="M194.2,96.5h-6c0.2,1.3,1,2,2.1,2c1,0,1.6-0.4,1.9-1.1l1.9,0.7c-0.5,1.3-2,2.1-3.8,2.1
				c-2.7,0-4.4-1.6-4.4-4.4c0-2.8,1.8-4.4,4.3-4.4c2.6,0,4,1.7,4,4C194.3,95.8,194.3,96.2,194.2,96.5z M188.3,94.9h3.8
				c-0.1-1.2-0.8-1.8-1.8-1.8C189.2,93.1,188.5,93.7,188.3,94.9z"/>
			<path class="st27" d="M203.9,93.9l-2.2,0.8c-0.2-1-0.8-1.5-1.7-1.5c-1.3,0-2,0.9-2,2.7c0,1.8,0.8,2.7,2.1,2.7
				c1,0,1.6-0.5,1.8-1.5l2.1,0.7c-0.4,1.5-1.8,2.6-3.9,2.6c-2.7,0-4.4-1.6-4.4-4.4c0-2.8,1.8-4.4,4.3-4.4
				C202.3,91.4,203.5,92.5,203.9,93.9z"/>
			<path class="st27" d="M205.6,87.8h2.3V93c0.5-1.1,1.5-1.6,2.7-1.6c1.8,0,3.1,1,3.1,3.1v5.6h-2.3v-4.9c0-1.5-0.6-1.9-1.5-1.9
				c-1,0-2,0.6-2,2.3v4.5h-2.3V87.8z"/>
			<path class="st27" d="M224.2,94.5v5.6h-2.3v-4.9c0-1.4-0.6-1.9-1.5-1.9c-1,0-1.9,0.6-1.9,2.3v4.5H216v-8.5h2.1l0.1,1.6
				c0.5-1.2,1.6-1.8,2.9-1.8C222.9,91.4,224.2,92.4,224.2,94.5z"/>
			<path class="st27" d="M234.7,95.8c0,2.8-1.8,4.4-4.4,4.4c-2.6,0-4.4-1.6-4.4-4.4c0-2.8,1.8-4.4,4.4-4.4
				C232.9,91.4,234.7,93,234.7,95.8z M228.3,95.8c0,1.8,0.7,2.7,2,2.7c1.3,0,2-0.9,2-2.7c0-1.8-0.7-2.7-2-2.7
				C229,93.1,228.3,94,228.3,95.8z"/>
			<path class="st27" d="M238.8,97.4c0,0.8,0.3,1.1,0.9,1.1c0.4,0,0.6,0,1-0.2l-0.2,1.5c-0.4,0.2-1,0.4-1.6,0.4
				c-1.6,0-2.4-0.8-2.4-2.5v-9.9h2.3V97.4z"/>
			<path class="st27" d="M250,95.8c0,2.8-1.8,4.4-4.4,4.4s-4.4-1.6-4.4-4.4c0-2.8,1.8-4.4,4.4-4.4S250,93,250,95.8z M243.7,95.8
				c0,1.8,0.7,2.7,2,2.7c1.3,0,2-0.9,2-2.7c0-1.8-0.7-2.7-2-2.7C244.4,93.1,243.7,94,243.7,95.8z"/>
			<path class="st27" d="M259.7,100.7c0,2-1.8,3-4.5,3c-2.9,0-4.2-0.9-4.2-2.2c0-0.8,0.4-1.4,1.5-1.6c-0.7-0.3-1.1-0.8-1.1-1.6
				c0-0.8,0.5-1.4,1.3-1.7c-0.9-0.5-1.3-1.3-1.3-2.3c0-1.8,1.5-2.9,3.9-2.9c0.7,0,1.3,0.1,1.8,0.3c0.2-1.2,1-2.2,2.5-2.1l0.3,1.7
				c-1.1-0.1-1.7,0.3-1.8,0.9c0.7,0.5,1.1,1.2,1.1,2.1c0,1.8-1.5,2.9-3.9,2.9c-0.5,0-1-0.1-1.4-0.1c-0.5,0.2-0.7,0.4-0.7,0.7
				c0,0.5,0.4,0.7,1.1,0.7h2.6C258.7,98.5,259.7,99.3,259.7,100.7z M257.8,101c0-0.4-0.3-0.7-1.2-0.7h-2.9c-0.5,0-0.9,0.3-0.9,0.8
				c0,0.6,0.9,1,2.4,1C257,102.1,257.8,101.6,257.8,101z M253.7,94.3c0,0.9,0.7,1.4,1.6,1.4c0.9,0,1.5-0.5,1.5-1.4
				c0-0.9-0.6-1.4-1.5-1.4C254.4,92.8,253.7,93.4,253.7,94.3z"/>
			<path class="st27" d="M265.6,100.6c-0.8,2.3-1.8,3.1-3.6,3.1c-0.9,0-1.6-0.2-2.2-0.6l0.5-1.7c0.4,0.3,0.9,0.5,1.5,0.5
				c0.6,0,1.1-0.2,1.4-1l0.3-0.7l-0.9-2.2l-2.6-6.4h2.6l1.6,5.1l0.4,1.7l0.5-1.8l1.5-5h2.4L265.6,100.6z"/>
		</g>
	</g>
	<g>
		<g>
			<g>
				<linearGradient id="SVGID_22_" gradientUnits="userSpaceOnUse" x1="65.0396" y1="72.5961" x2="77.6596" y2="130.8425">
					<stop  offset="0" style="stop-color:#545454"/>
					<stop  offset="0.1244" style="stop-color:#B5B5B5"/>
					<stop  offset="0.1912" style="stop-color:#DBDBDB"/>
					<stop  offset="0.2949" style="stop-color:#FFFFFF"/>
					<stop  offset="0.4977" style="stop-color:#D3D2D1"/>
					<stop  offset="0.5771" style="stop-color:#9F9FA0"/>
					<stop  offset="0.6617" style="stop-color:#ABAAAB"/>
					<stop  offset="0.7198" style="stop-color:#A3A1A1"/>
					<stop  offset="0.8791" style="stop-color:#545454"/>
					<stop  offset="1" style="stop-color:#707070"/>
				</linearGradient>
				<path class="st28" d="M68.6,76.7L68.6,76.7c0,0-2.4,1.8-5.6,4.1v-5.5c3.2-2.3,5.6-4.1,5.6-4.1V76.7z"/>
				<linearGradient id="SVGID_23_" gradientUnits="userSpaceOnUse" x1="47.9272" y1="55.4168" x2="64.5936" y2="97.1635">
					<stop  offset="0" style="stop-color:#545454"/>
					<stop  offset="0.1244" style="stop-color:#B5B5B5"/>
					<stop  offset="0.1912" style="stop-color:#DBDBDB"/>
					<stop  offset="0.2949" style="stop-color:#FFFFFF"/>
					<stop  offset="0.4977" style="stop-color:#D3D2D1"/>
					<stop  offset="0.5771" style="stop-color:#9F9FA0"/>
					<stop  offset="0.6617" style="stop-color:#ABAAAB"/>
					<stop  offset="0.7198" style="stop-color:#A3A1A1"/>
					<stop  offset="0.8791" style="stop-color:#545454"/>
					<stop  offset="1" style="stop-color:#707070"/>
				</linearGradient>
				<path class="st29" d="M51.4,52.3v5.5c0,0-2.6,1.6-5.9,3.6V56l0,0C48.8,53.9,51.4,52.3,51.4,52.3z"/>
				<linearGradient id="SVGID_24_" gradientUnits="userSpaceOnUse" x1="61.3759" y1="60.8327" x2="63.6413" y2="84.4555">
					<stop  offset="0" style="stop-color:#545454"/>
					<stop  offset="0.1244" style="stop-color:#B5B5B5"/>
					<stop  offset="0.1912" style="stop-color:#DBDBDB"/>
					<stop  offset="0.2949" style="stop-color:#FFFFFF"/>
					<stop  offset="0.4977" style="stop-color:#D3D2D1"/>
					<stop  offset="0.5771" style="stop-color:#9F9FA0"/>
					<stop  offset="0.6617" style="stop-color:#ABAAAB"/>
					<stop  offset="0.7198" style="stop-color:#A3A1A1"/>
					<stop  offset="0.8791" style="stop-color:#545454"/>
					<stop  offset="1" style="stop-color:#707070"/>
				</linearGradient>
				<path class="st30" d="M61.4,63.3l7.2,7.9c0,0-2.4,1.8-5.6,4.1l-7.2-7.9C59,65.1,61.4,63.3,61.4,63.3L61.4,63.3z"/>
				<linearGradient id="SVGID_25_" gradientUnits="userSpaceOnUse" x1="44.4761" y1="43.1109" x2="46.2559" y2="62.0426">
					<stop  offset="0" style="stop-color:#545454"/>
					<stop  offset="0.1244" style="stop-color:#B5B5B5"/>
					<stop  offset="0.1912" style="stop-color:#DBDBDB"/>
					<stop  offset="0.2949" style="stop-color:#FFFFFF"/>
					<stop  offset="0.4977" style="stop-color:#D3D2D1"/>
					<stop  offset="0.5771" style="stop-color:#9F9FA0"/>
					<stop  offset="0.6617" style="stop-color:#ABAAAB"/>
					<stop  offset="0.7198" style="stop-color:#A3A1A1"/>
					<stop  offset="0.8791" style="stop-color:#545454"/>
					<stop  offset="1" style="stop-color:#707070"/>
				</linearGradient>
				<path class="st31" d="M44.9,45l6.6,7.3c0,0-2.7,1.6-6,3.7l-6.6-7.3C42.2,46.6,44.9,45,44.9,45z"/>
				<path class="st32" d="M45.5,56v5.4c-3.9,2.4-8.8,5.5-11,7c-1.7,1.2-2.8,2.6-3.5,4l-0.2,0c-1.1-3-0.2-6.8,3.7-9.5
					c2.1-1.4,6.3-4.1,10-6.4C44.8,56.3,45.2,56.1,45.5,56L45.5,56z"/>
				<path class="st32" d="M63,75.3v5.5c-4.2,3.1-9.7,7.1-12.3,9c-6.5,4.8-19.4,5.5-27.4-3.4c-2.5-2.8-3.7-6.2-3.8-9.7h0v-5.9
					c0,3.6,1.2,7.2,3.8,10.1c8,9,20.9,8.2,27.4,3.4C53.2,82.4,58.7,78.4,63,75.3z"/>
				<path class="st33" d="M55.8,67.4l7.2,7.9c-4.2,3.1-9.7,7.1-12.3,9c-6.5,4.8-19.4,5.5-27.4-3.4c-2.6-2.9-3.8-6.5-3.8-10.1
					c0-6.1,3.4-12.4,8.7-15.6c2.2-1.4,6.9-4.2,10.7-6.5l6.6,7.3c-0.3,0.2-0.6,0.4-1,0.6c-3.7,2.3-8,5-10,6.4
					c-3.9,2.7-4.7,6.5-3.7,9.5c1.5,4.1,6.4,6.8,12.1,3.6C45.8,74.5,51.5,70.5,55.8,67.4z"/>
				<linearGradient id="SVGID_26_" gradientUnits="userSpaceOnUse" x1="2.1174" y1="25.8494" x2="49.2017" y2="85.8778">
					<stop  offset="0.1057" style="stop-color:#FF6666"/>
					<stop  offset="1" style="stop-color:#000000"/>
				</linearGradient>
				<path class="st34" d="M55.8,67.4l7.2,7.9c-4.2,3.1-9.7,7.1-12.3,9c-6.5,4.8-19.4,5.5-27.4-3.4c-2.6-2.9-3.8-6.5-3.8-10.1
					c0-6.1,3.4-12.4,8.7-15.6c2.2-1.4,6.9-4.2,10.7-6.5l6.6,7.3c-0.3,0.2-0.6,0.4-1,0.6c-3.7,2.3-8,5-10,6.4
					c-3.9,2.7-4.7,6.5-3.7,9.5c1.5,4.1,6.4,6.8,12.1,3.6C45.8,74.5,51.5,70.5,55.8,67.4z"/>
			</g>
			<g>
				<defs>
					<path id="SVGID_27_" d="M44.9,45l6.6,7.3c0,0-2.7,1.6-6,3.7l-6.6-7.3C42.2,46.6,44.9,45,44.9,45z"/>
				</defs>
				<clipPath id="SVGID_28_">
					<use xlink:href="#SVGID_27_"  style="overflow:visible;"/>
				</clipPath>
				
					<radialGradient id="SVGID_29_" cx="-63.5078" cy="676.8029" r="11.6601" gradientTransform="matrix(2.5222 -1.5455 0.1613 0.2632 97.9319 -221.7842)" gradientUnits="userSpaceOnUse">
					<stop  offset="0" style="stop-color:#D1D6FF"/>
					<stop  offset="3.744490e-02" style="stop-color:#75798F"/>
					<stop  offset="7.048460e-02" style="stop-color:#515463"/>
					<stop  offset="0.1696" style="stop-color:#272930"/>
					<stop  offset="0.3524" style="stop-color:#17181C"/>
					<stop  offset="0.5176" style="stop-color:#101114"/>
					<stop  offset="0.7533" style="stop-color:#070809"/>
					<stop  offset="1" style="stop-color:#000000"/>
				</radialGradient>
				<path class="st35" d="M76.3,36.5c1,1.7-11.3,11.1-27.5,21.1c-16.2,10-30.3,16.6-31.3,15c-1-1.7,11.3-11.1,27.5-21.1
					C61.3,41.5,75.3,34.8,76.3,36.5z"/>
			</g>
			<g>
				<defs>
					<path id="SVGID_30_" d="M61.4,63.3l7.2,7.9c0,0-2.4,1.8-5.6,4.1l-7.2-7.9C59,65.1,61.4,63.3,61.4,63.3L61.4,63.3z"/>
				</defs>
				<clipPath id="SVGID_31_">
					<use xlink:href="#SVGID_30_"  style="overflow:visible;"/>
				</clipPath>
				
					<radialGradient id="SVGID_32_" cx="-63.7174" cy="794.4839" r="11.6617" gradientTransform="matrix(2.4694 -1.6285 0.1519 0.2303 101.8471 -213.5548)" gradientUnits="userSpaceOnUse">
					<stop  offset="0" style="stop-color:#D1D6FF"/>
					<stop  offset="3.744490e-02" style="stop-color:#75798F"/>
					<stop  offset="7.048460e-02" style="stop-color:#515463"/>
					<stop  offset="0.1696" style="stop-color:#272930"/>
					<stop  offset="0.3524" style="stop-color:#17181C"/>
					<stop  offset="0.5176" style="stop-color:#101114"/>
					<stop  offset="0.7533" style="stop-color:#070809"/>
					<stop  offset="1" style="stop-color:#000000"/>
				</radialGradient>
				<path class="st36" d="M94,54.2c1,1.5-11.1,11.2-27,21.7C51.1,86.4,37.4,93.7,36.4,92.2c-1-1.5,11.1-11.2,27-21.7
					C79.3,60,93,52.7,94,54.2z"/>
			</g>
			<g>
				<defs>
					<path id="SVGID_33_" d="M55.8,67.4l7.2,7.9c-4.2,3.1-9.7,7.1-12.3,9c-6.5,4.8-19.4,5.5-27.4-3.4c-2.6-2.9-3.8-6.5-3.8-10.1
						c0-6.1,3.4-12.4,8.7-15.6c2.2-1.4,6.9-4.2,10.7-6.5l6.6,7.3c-0.3,0.2-0.6,0.4-1,0.6c-3.7,2.3-8,5-10,6.4
						c-3.9,2.7-4.7,6.5-3.7,9.5c1.5,4.1,6.4,6.8,12.1,3.6C45.8,74.5,51.5,70.5,55.8,67.4z"/>
				</defs>
				<clipPath id="SVGID_34_">
					<use xlink:href="#SVGID_33_"  style="overflow:visible;"/>
				</clipPath>
				
					<radialGradient id="SVGID_35_" cx="-73.8626" cy="122.3767" r="5.9345" gradientTransform="matrix(4.3253 -2.5779 0.8317 1.3954 268.8728 -305.2578)" gradientUnits="userSpaceOnUse">
					<stop  offset="0.1057" style="stop-color:#D1D6FF"/>
					<stop  offset="0.2004" style="stop-color:#A3A6C6"/>
					<stop  offset="0.3238" style="stop-color:#6F7187"/>
					<stop  offset="0.4736" style="stop-color:#444653"/>
					<stop  offset="0.674" style="stop-color:#1D1E24"/>
					<stop  offset="0.8172" style="stop-color:#08080A"/>
					<stop  offset="1" style="stop-color:#000000"/>
				</radialGradient>
				<path class="st37" d="M76.8,40.6c2.7,4.6-6.6,15.1-20.7,23.6c-14.2,8.4-27.9,11.6-30.6,7c-2.7-4.6,6.6-15.1,20.7-23.6
					C60.4,39.2,74.1,36,76.8,40.6z"/>
				
					<radialGradient id="SVGID_36_" cx="-48.705" cy="115.7351" r="11.6604" gradientTransform="matrix(5.035 -5.200000e-02 1.890000e-02 1.8278 282.6363 -118.5755)" gradientUnits="userSpaceOnUse">
					<stop  offset="0.1057" style="stop-color:#D1D6FF"/>
					<stop  offset="0.2004" style="stop-color:#A3A6C6"/>
					<stop  offset="0.3238" style="stop-color:#6F7187"/>
					<stop  offset="0.4736" style="stop-color:#444653"/>
					<stop  offset="0.674" style="stop-color:#1D1E24"/>
					<stop  offset="0.8172" style="stop-color:#08080A"/>
					<stop  offset="1" style="stop-color:#000000"/>
				</radialGradient>
				<path class="st38" d="M98.3,94.9c0.1,11.8-26.1,21.6-58.5,21.9c-32.4,0.3-58.8-8.9-58.9-20.7c-0.1-11.8,26.1-21.6,58.5-21.9
					C71.8,73.9,98.2,83.1,98.3,94.9z"/>
				
					<radialGradient id="SVGID_37_" cx="-64.5142" cy="109.4995" r="8.102" gradientTransform="matrix(4.1311 -2.8788 1.045 1.4997 216.53 -267.9162)" gradientUnits="userSpaceOnUse">
					<stop  offset="0.1057" style="stop-color:#D1D6FF"/>
					<stop  offset="0.2004" style="stop-color:#A3A6C6"/>
					<stop  offset="0.3238" style="stop-color:#6F7187"/>
					<stop  offset="0.4736" style="stop-color:#444653"/>
					<stop  offset="0.674" style="stop-color:#1D1E24"/>
					<stop  offset="0.8172" style="stop-color:#08080A"/>
					<stop  offset="1" style="stop-color:#000000"/>
				</radialGradient>
				<path class="st39" d="M97.9,58.7c4.7,6.7-6.5,22.6-25,35.5c-18.5,12.9-37.3,17.9-41.9,11.2c-4.7-6.7,6.5-22.6,25-35.5
					C74.5,57,93.2,52,97.9,58.7z"/>
			</g>
			<g>
				<defs>
					<path id="SVGID_38_" d="M63,75.3v5.5c-4.2,3.1-9.7,7.1-12.3,9c-6.5,4.8-19.4,5.5-27.4-3.4c-2.5-2.8-3.7-6.2-3.8-9.7h0v-5.9
						c0,3.6,1.2,7.2,3.8,10.1c8,9,20.9,8.2,27.4,3.4C53.2,82.4,58.7,78.4,63,75.3z"/>
				</defs>
				<clipPath id="SVGID_39_">
					<use xlink:href="#SVGID_38_"  style="overflow:visible;"/>
				</clipPath>
				
					<radialGradient id="SVGID_40_" cx="-66.8482" cy="172.6338" r="8.1019" gradientTransform="matrix(4.1311 -2.8788 0.593 0.8509 229.9848 -249.9161)" gradientUnits="userSpaceOnUse">
					<stop  offset="0.1057" style="stop-color:#D1D6FF"/>
					<stop  offset="0.2004" style="stop-color:#A3A6C6"/>
					<stop  offset="0.3238" style="stop-color:#6F7187"/>
					<stop  offset="0.4736" style="stop-color:#444653"/>
					<stop  offset="0.674" style="stop-color:#1D1E24"/>
					<stop  offset="0.8172" style="stop-color:#08080A"/>
					<stop  offset="1" style="stop-color:#000000"/>
				</radialGradient>
				<path class="st40" d="M89.7,66.1c2.7,3.8-10.2,17.3-28.7,30.2c-18.5,12.9-35.6,20.2-38.3,16.4c-2.7-3.8,10.2-17.3,28.7-30.2
					C69.9,69.6,87,62.3,89.7,66.1z"/>
				
					<radialGradient id="SVGID_41_" cx="-97.9592" cy="14.421" r="8.102" gradientTransform="matrix(0.175 -5.0322 1.4374 5.000000e-02 25.1216 -422.4787)" gradientUnits="userSpaceOnUse">
					<stop  offset="0.1057" style="stop-color:#FF4747"/>
					<stop  offset="1" style="stop-color:#000000"/>
				</radialGradient>
				<path class="st41" d="M30.1,30.4c6.4,0.2,11,18.7,10.2,41.2c-0.8,22.5-6.6,40.6-13.1,40.4c-6.4-0.2-11-18.7-10.2-41.2
					C17.8,48.3,23.7,30.2,30.1,30.4z"/>
			</g>
		</g>
	</g>
</g>
</svg>
