<svg xmlns="http://www.w3.org/2000/svg" xmlns:xlink="http://www.w3.org/1999/xlink" viewBox="0 0 356.87 187.26"><defs><style>.cls-1{fill:url(#linear-gradient);}.cls-2{fill:none;}.cls-3{isolation:isolate;}.cls-4{clip-path:url(#clip-path);}.cls-5{opacity:0.27;}.cls-10,.cls-21,.cls-25,.cls-26,.cls-36,.cls-37,.cls-38,.cls-39,.cls-40,.cls-41,.cls-43,.cls-5,.cls-50,.cls-52,.cls-53,.cls-54,.cls-55,.cls-56,.cls-8{mix-blend-mode:multiply;}.cls-6{fill:url(#linear-gradient-4);}.cls-7{fill:#fff;}.cls-9{fill:#d0ff12;}.cls-10{fill:url(#linear-gradient-5);}.cls-11,.cls-12,.cls-13,.cls-14,.cls-15,.cls-16,.cls-17,.cls-18,.cls-20,.cls-24,.cls-27,.cls-28,.cls-44,.cls-45,.cls-46,.cls-47,.cls-48,.cls-49,.cls-51,.cls-62{mix-blend-mode:screen;}.cls-11{fill:url(#linear-gradient-6);}.cls-12{fill:url(#linear-gradient-7);}.cls-13{fill:url(#linear-gradient-8);}.cls-14{fill:url(#linear-gradient-9);}.cls-15{fill:url(#linear-gradient-10);}.cls-16{fill:url(#linear-gradient-11);}.cls-17{fill:url(#linear-gradient-12);}.cls-18{fill:url(#linear-gradient-13);}.cls-19,.cls-21,.cls-27{fill:#72c900;}.cls-20{fill:url(#linear-gradient-14);}.cls-22{clip-path:url(#clip-path-2);}.cls-23,.cls-30,.cls-31,.cls-33,.cls-34,.cls-58,.cls-59,.cls-60,.cls-61{mix-blend-mode:color-dodge;}.cls-23{fill:url(#radial-gradient);}.cls-24{fill:url(#linear-gradient-15);}.cls-25{fill:url(#radial-gradient-2);}.cls-26{fill:url(#radial-gradient-3);}.cls-28{fill:url(#linear-gradient-16);}.cls-29{clip-path:url(#clip-path-3);}.cls-30{fill:url(#radial-gradient-4);}.cls-31{fill:url(#radial-gradient-5);}.cls-32{clip-path:url(#clip-path-4);}.cls-33{fill:url(#radial-gradient-6);}.cls-34{fill:url(#radial-gradient-7);}.cls-35{clip-path:url(#clip-path-5);}.cls-36{fill:url(#radial-gradient-8);}.cls-37{fill:url(#radial-gradient-9);}.cls-38{fill:url(#radial-gradient-10);}.cls-39{fill:url(#radial-gradient-11);}.cls-40{fill:url(#radial-gradient-12);}.cls-41{fill:url(#radial-gradient-13);}.cls-42{fill:#f02e86;}.cls-43{fill:url(#linear-gradient-17);}.cls-44{fill:url(#linear-gradient-18);}.cls-45{fill:url(#linear-gradient-19);}.cls-46{fill:url(#linear-gradient-20);}.cls-47{fill:url(#linear-gradient-21);}.cls-48{fill:url(#linear-gradient-22);}.cls-49{fill:url(#linear-gradient-23);}.cls-50{fill:url(#linear-gradient-24);}.cls-51{fill:url(#linear-gradient-25);}.cls-52{fill:url(#linear-gradient-26);}.cls-53{fill:url(#linear-gradient-27);}.cls-54{fill:url(#linear-gradient-28);}.cls-55{fill:url(#linear-gradient-29);}.cls-56{fill:url(#linear-gradient-30);}.cls-57{clip-path:url(#clip-path-6);}.cls-58{fill:url(#radial-gradient-14);}.cls-59{fill:url(#radial-gradient-15);}.cls-60{fill:url(#radial-gradient-16);}.cls-61{fill:url(#radial-gradient-17);}.cls-63{fill:#731531;}.cls-64{opacity:0.15;}</style><linearGradient id="linear-gradient" x1="63.87" y1="104.01" x2="356.87" y2="104.01" gradientUnits="userSpaceOnUse"><stop offset="0.37" stop-color="#febc10"/><stop offset="1" stop-color="#c73c00"/></linearGradient><clipPath id="clip-path"><rect class="cls-1" x="63.87" y="42.51" width="293" height="123" rx="11.19"/></clipPath><linearGradient id="linear-gradient-4" x1="0" y1="93.63" x2="202.41" y2="93.63" xlink:href="#linear-gradient"/><linearGradient id="linear-gradient-5" x1="-271.3" y1="-391.48" x2="-301.92" y2="-430.92" gradientTransform="translate(-225.78 418.03) rotate(84.57)" gradientUnits="userSpaceOnUse"><stop offset="0.1" stop-color="#316b15"/><stop offset="0.23" stop-color="#729a5f"/><stop offset="0.37" stop-color="#a1bc95"/><stop offset="0.49" stop-color="#bccfb4"/><stop offset="0.66" stop-color="#dae5d6"/><stop offset="0.81" stop-color="#f5f8f4"/><stop offset="1" stop-color="#fff"/></linearGradient><linearGradient id="linear-gradient-6" x1="-275.56" y1="-443.79" x2="-270.85" y2="-433.29" gradientTransform="translate(-225.78 418.03) rotate(84.57)" gradientUnits="userSpaceOnUse"><stop offset="0.11" stop-color="#fff"/><stop offset="1"/></linearGradient><linearGradient id="linear-gradient-7" x1="-286.97" y1="-445.27" x2="-283.5" y2="-432.04" xlink:href="#linear-gradient-6"/><linearGradient id="linear-gradient-8" x1="-476.42" y1="-393.46" x2="-473.9" y2="-383.87" gradientTransform="translate(-367.65 -172.72) rotate(168.48)" xlink:href="#linear-gradient-6"/><linearGradient id="linear-gradient-9" x1="-300.77" y1="-445.56" x2="-291.99" y2="-427.37" xlink:href="#linear-gradient-6"/><linearGradient id="linear-gradient-10" x1="-299.9" y1="-386.86" x2="-290.71" y2="-393.45" xlink:href="#linear-gradient-6"/><linearGradient id="linear-gradient-11" x1="-312.22" y1="-388.75" x2="-297.64" y2="-396.79" xlink:href="#linear-gradient-6"/><linearGradient id="linear-gradient-12" x1="-332.89" y1="-417.65" x2="-300.3" y2="-406.48" xlink:href="#linear-gradient-6"/><linearGradient id="linear-gradient-13" x1="-307.37" y1="-435.3" x2="-298.58" y2="-422.11" xlink:href="#linear-gradient-6"/><linearGradient id="linear-gradient-14" x1="-313.63" y1="-439.38" x2="-282.89" y2="-408.64" xlink:href="#linear-gradient-6"/><clipPath id="clip-path-2"><path class="cls-2" d="M161,98.18c2.56,4.06,11,5.79,11-1.05.06-4.45-5.51-5.4-8.86-4.48A3.72,3.72,0,0,0,161,98.18Z"/></clipPath><radialGradient id="radial-gradient" cx="-435.2" cy="217.31" r="0.01" gradientTransform="matrix(203.63, -229.63, 470.22, 427.91, -13399.1, -192826.01)" gradientUnits="userSpaceOnUse"><stop offset="0.06" stop-color="#5e552a"/><stop offset="0.22" stop-color="#373219"/><stop offset="0.37" stop-color="#201d0f"/><stop offset="0.54" stop-color="#131109"/><stop offset="0.78" stop-color="#080704"/><stop offset="1"/></radialGradient><linearGradient id="linear-gradient-15" x1="-283.81" y1="-444.36" x2="-282.37" y2="-419.48" xlink:href="#linear-gradient-6"/><radialGradient id="radial-gradient-2" cx="-295.79" cy="-356.66" r="8.52" gradientTransform="matrix(-0.09, 0.61, -1.66, -0.26, -461.36, 176.87)" xlink:href="#linear-gradient-5"/><radialGradient id="radial-gradient-3" cx="-341.13" cy="-385.99" r="8.53" gradientTransform="matrix(-0.2, 0.59, -1.22, -0.42, -384.71, 125.62)" xlink:href="#linear-gradient-5"/><linearGradient id="linear-gradient-16" x1="-318.5" y1="-411.39" x2="-283.71" y2="-413.04" xlink:href="#linear-gradient-6"/><clipPath id="clip-path-3"><path class="cls-2" d="M168.39,89.66c.88-4.82-5.77-8.75-10.14-10.89-3.28-1.6-7.75-3-10.86-.29-3.33,3-1.79,7.76,2,9.43,3.43,1.53,7.25,0,10.63,1.59S167.74,93.2,168.39,89.66Z"/></clipPath><radialGradient id="radial-gradient-4" cx="-435.55" cy="217.58" r="0.03" gradientTransform="matrix(31.19, -120.88, 269.86, 71.44, -44980.47, -68105.96)" gradientUnits="userSpaceOnUse"><stop offset="0" stop-color="#ffe873"/><stop offset="0.06" stop-color="#8c7f3f"/><stop offset="0.11" stop-color="#5e552a"/><stop offset="0.22" stop-color="#373219"/><stop offset="0.37" stop-color="#201d0f"/><stop offset="0.54" stop-color="#131109"/><stop offset="0.78" stop-color="#080704"/><stop offset="1"/></radialGradient><radialGradient id="radial-gradient-5" cx="-435.32" cy="217.48" r="0.01" gradientTransform="matrix(48.73, -114.77, 366.17, 159.54, -58254.89, -84568.79)" xlink:href="#radial-gradient-4"/><clipPath id="clip-path-4"><path class="cls-2" d="M174.5,106.81c-7.48,4.13-13.21-2.12-18-7.25A24.07,24.07,0,0,0,147,93.17c-3.52-1.35-6.6-3.53-7.41-7.51-1.29-6.35,3.57-10.94,9.32-12,11.68-2.12,22.19,7.57,25.48,11.93C179.26,92.09,181.39,103,174.5,106.81Z"/></clipPath><radialGradient id="radial-gradient-6" cx="-435.15" cy="217.3" r="0.03" gradientTransform="matrix(67.87, -104.32, 385.34, 257.26, -54056.07, -101207.45)" xlink:href="#radial-gradient-4"/><radialGradient id="radial-gradient-7" cx="-434.94" cy="217.26" r="0.03" gradientTransform="matrix(84.1, -91.38, 429.16, 405.32, -56498.54, -127701.69)" xlink:href="#radial-gradient-4"/><clipPath id="clip-path-5"><path class="cls-2" d="M175.15,115.41c-1.54,1.14-4-.79-5.26-1.58-1.77-1.1-3.77-2.6-6-2.45-1.16.08-2.43,1.12-3.59.77-1.47-.44-2.3-2.83-3-4-.88-1.48-1.9-3.15-3.66-3.6-1.1-.28-2.4.19-3.41-.41s-1.36-2.26-1.9-3.35c-1.68-3.38-5.75-.49-8.44-2s1.13-5.2-.71-7.55c-.6-.76-6.72.65-7.05-2.87-.23-2.4,4.05-3.39,3.83-4.59s-2.36-3.43-1.51-4.62,2.84-1.38,3.47-3c.73-1.87-2.74-4.71-1.24-6.84,1.08-1.54,5.62,1.38,8.05,1.23,3.83-.25-.73-8.81,3.46-8,2.3.44,4.19,3.77,5.39,5.52.84,1.21,1.4,2.73,2.53,1.27.78-1,1.25-3.32,2.92-3.19s2.36,3.09,2.83,4.35.81,2.71,2.4,2.11c.81-.3,2.14-2.09,3.12-1.6s.46,2.67.7,3.51c.48,1.63,1.67,1.5,3.13,1.24,1.07-.18,3.08-1,3.53.44s-1.41,3.19-1.37,4.68c.08,3.57,7.58-.49,8.12,3.21.26,1.79-1.84,3.11-2,4.77-.21,1.89,2.33,2.17,3.68,2.64,1.6.54,4.53,1.46,4.07,3.7s-3.17,3.11-4.58,4.37c-3.53,3.2,4.93,5.4,3.85,8.84s-8-1-9.78,2.53C176.07,112.19,176.46,114.44,175.15,115.41ZM156.5,99.56c4.79,5.13,10.52,11.38,18,7.25,6.89-3.79,4.76-14.72-.13-21.2-3.29-4.36-13.8-14-25.48-11.93-5.75,1-10.61,5.63-9.32,12,.81,4,3.89,6.16,7.41,7.51A24.07,24.07,0,0,1,156.5,99.56Z"/></clipPath><radialGradient id="radial-gradient-8" cx="-405.85" cy="-364.11" r="8.52" gradientTransform="matrix(-0.64, 0.7, -1.13, -1.06, -515.86, -3.43)" xlink:href="#linear-gradient-5"/><radialGradient id="radial-gradient-9" cx="-404.7" cy="-332.38" r="8.52" gradientTransform="matrix(-0.64, 0.7, -1.59, -1.49, -641.57, -121.03)" xlink:href="#linear-gradient-5"/><radialGradient id="radial-gradient-10" cx="-404.64" cy="-353.44" r="8.52" gradientTransform="matrix(-0.64, 0.7, -1.25, -1.17, -557.6, -41.99)" xlink:href="#linear-gradient-5"/><radialGradient id="radial-gradient-11" cx="-406.29" cy="-368.42" r="8.52" gradientTransform="matrix(-0.64, 0.7, -1.13, -1.06, -515.86, -3.43)" xlink:href="#linear-gradient-5"/><radialGradient id="radial-gradient-12" cx="-366.4" cy="-376.56" r="8.52" gradientTransform="matrix(-0.46, 0.84, -1.34, -0.75, -508.19, 129.54)" xlink:href="#linear-gradient-5"/><radialGradient id="radial-gradient-13" cx="-285.64" cy="-368.13" r="8.52" gradientTransform="matrix(0.01, 0.96, -1.53, 0.02, -392.21, 382.85)" xlink:href="#linear-gradient-5"/><linearGradient id="linear-gradient-17" x1="-96.64" y1="590.86" x2="-139.19" y2="507.6" gradientTransform="matrix(0.55, -0.84, 0.84, 0.55, -271.48, -288.62)" gradientUnits="userSpaceOnUse"><stop offset="0.1" stop-color="#96006c"/><stop offset="1" stop-color="#fff"/></linearGradient><linearGradient id="linear-gradient-18" x1="-109.93" y1="500.26" x2="-98.34" y2="525.6" gradientTransform="matrix(0.55, -0.84, 0.84, 0.55, -271.48, -288.62)" xlink:href="#linear-gradient-6"/><linearGradient id="linear-gradient-19" x1="492.15" y1="-61.46" x2="500.05" y2="-44.18" gradientTransform="matrix(1, 0.08, -0.08, 1, -369.12, 85.65)" xlink:href="#linear-gradient-6"/><linearGradient id="linear-gradient-20" x1="-150.04" y1="460.7" x2="-83.15" y2="538.7" gradientTransform="matrix(0.55, -0.84, 0.84, 0.55, -271.48, -288.62)" xlink:href="#linear-gradient-6"/><linearGradient id="linear-gradient-21" x1="-168.32" y1="559.01" x2="-141.48" y2="563.02" gradientTransform="matrix(0.55, -0.84, 0.84, 0.55, -271.48, -288.62)" xlink:href="#linear-gradient-6"/><linearGradient id="linear-gradient-22" x1="-157.49" y1="502.68" x2="-140.34" y2="539.15" gradientTransform="matrix(0.55, -0.84, 0.84, 0.55, -271.48, -288.62)" xlink:href="#linear-gradient-6"/><linearGradient id="linear-gradient-23" x1="-145.98" y1="594.7" x2="-119.81" y2="577.62" gradientTransform="matrix(0.55, -0.84, 0.84, 0.55, -271.48, -288.62)" xlink:href="#linear-gradient-6"/><linearGradient id="linear-gradient-24" x1="-116.45" y1="559.57" x2="-132.31" y2="538.77" xlink:href="#linear-gradient-17"/><linearGradient id="linear-gradient-25" x1="-128.3" y1="510.74" x2="-124.43" y2="549.81" gradientTransform="matrix(0.55, -0.84, 0.84, 0.55, -271.48, -288.62)" xlink:href="#linear-gradient-6"/><linearGradient id="linear-gradient-26" x1="-126.57" y1="544.45" x2="-121.33" y2="556.17" xlink:href="#linear-gradient-17"/><linearGradient id="linear-gradient-27" x1="-128.71" y1="531.7" x2="-123.42" y2="531.7" xlink:href="#linear-gradient-17"/><linearGradient id="linear-gradient-28" x1="-112.68" y1="537.74" x2="-105.53" y2="548.01" xlink:href="#linear-gradient-17"/><linearGradient id="linear-gradient-29" x1="343.33" y1="195.98" x2="349.22" y2="202.98" gradientTransform="translate(-274.88 14.13) rotate(-13.91)" xlink:href="#linear-gradient-17"/><linearGradient id="linear-gradient-30" x1="-1119.89" y1="-309.05" x2="-1113.8" y2="-296.39" gradientTransform="translate(-872.29 -496.19) rotate(-164.08)" xlink:href="#linear-gradient-17"/><clipPath id="clip-path-6"><path class="cls-2" d="M91.75,116.86c7.33,4.85-.94,13-1.44,20.89-.27,4.22,1.94,8.74,6.52,9.11,4.75.4,7.91-3.65,10.72-6.87,3-3.43,4.48-.37,6.79,2.36,2.7,3.19,7.48,7.94,11.69,4.36,3.09-2.63,3.14-9,7.21-10.35,2.49-.8,5.69.4,8.12.92,3.83.83,7.83,1.65,11.76,1.13,3-.4,6.32-1.77,7-5.13.73-3.84-2.13-7.76-4.46-10.45-3.23-3.74-7.2-6.7-11.09-9.68-1.92-1.48-5.67-3.66-5.9-6.44-.21-2.47,2.55-4.51,4.15-5.94,2.41-2.15,5.07-4.17,7-6.77,3.28-4.32.15-5.47-3.95-5.51-4.48,0-5.55-1.56-6.37-5.91C139,79.64,138,73.46,133.72,75c-3.22,1.11-4.94,6-8.81,4.88-2.53-.7-4.78-3.06-6.79-4.64-2.65-2.09-5.52-4.43-8.77-5.47-7.91-2.51-5.17,8.07-3.84,12.15,1.27,3.89,6.64,13.07,0,14.42s-14.43-.94-20.23,3.58C80.67,103.45,81.3,110,91.75,116.86Z"/></clipPath><radialGradient id="radial-gradient-14" cx="-437.47" cy="216.05" r="0.08" gradientTransform="matrix(-147.72, 151.27, -505.51, -506.55, 44746.73, 175741.02)" xlink:href="#radial-gradient-4"/><radialGradient id="radial-gradient-15" cx="-439.26" cy="217.48" r="0.05" gradientTransform="matrix(-150.5, -148.43, 521.3, -542.69, -179340.55, 52924.16)" xlink:href="#radial-gradient-4"/><radialGradient id="radial-gradient-16" cx="-438.86" cy="216.48" r="0.04" gradientTransform="matrix(-201.97, 58.41, -205.26, -728.15, -44064.77, 183339.85)" xlink:href="#radial-gradient-4"/><radialGradient id="radial-gradient-17" cx="-437.03" cy="216.02" r="0.07" gradientTransform="matrix(-109.21, 151, -548.99, -407.42, 70981.95, 154076.29)" xlink:href="#radial-gradient-4"/></defs><title>Asset 8</title><g class="cls-3"><g id="Layer_2" data-name="Layer 2"><g id="Layer_1-2" data-name="Layer 1"><rect class="cls-1" x="63.87" y="42.51" width="293" height="123" rx="11.19"/><g class="cls-4"><rect class="cls-1" x="63.87" y="42.51" width="293" height="123" rx="11.19"/><g class="cls-5"><path class="cls-6" d="M68.53,2.8C50.1,7,28.18,20.26,17.1,35.57,7.37,49,1.13,63.44.28,80c-1.37,26.56,1.82,55.58,20.06,74.93a103.78,103.78,0,0,0,47.45,28.36c13.12,3.44,53.24,6.87,72.13,0,14.06-5.11,27.76-11.67,38.06-22.52,6.06-6.38,11.74-13.23,15.92-21C201,126.53,203.45,111,202,96S197.42,65.29,190.26,52a93.43,93.43,0,0,0-28-32.14C149.26,10.51,110.93-6.77,68.53,2.8Z"/></g></g><path class="cls-7" d="M274.56,128.94h4.92c2.72,0,4,1.12,4,3.06a2.41,2.41,0,0,1-2.14,2.48v0a2.57,2.57,0,0,1,2.43,2.58c0,1.94-1.43,3.08-4.09,3.08h-5.09Zm4.61,4.71c1.24,0,1.85-.48,1.85-1.44s-.61-1.45-1.85-1.45h-2.33v2.89Zm.27,4.74c1.26,0,1.87-.54,1.87-1.48s-.61-1.46-1.87-1.46h-2.6v2.94Z"/><path class="cls-7" d="M285.36,129.2c0-.84.47-1.26,1.44-1.26s1.45.42,1.45,1.26-.48,1.24-1.45,1.24S285.36,130,285.36,129.2Zm2.6,11h-2.33v-8.5H288Z"/><path class="cls-7" d="M298.53,135.91a4.35,4.35,0,1,1-4.35-4.42A4.1,4.1,0,0,1,298.53,135.91Zm-6.37,0c0,1.8.75,2.69,2,2.69s2-.89,2-2.69-.75-2.69-2-2.69S292.16,134.11,292.16,135.91Z"/><path class="cls-7" d="M302.66,137.54c0,.78.26,1.07.89,1.07a2.22,2.22,0,0,0,.95-.17l-.2,1.53a3.49,3.49,0,0,1-1.59.36c-1.64,0-2.38-.76-2.38-2.53v-9.86h2.33Z"/><path class="cls-7" d="M313.9,135.91a4.35,4.35,0,1,1-4.35-4.42A4.11,4.11,0,0,1,313.9,135.91Zm-6.37,0c0,1.8.74,2.69,2,2.69s2-.89,2-2.69-.74-2.69-2-2.69S307.53,134.11,307.53,135.91Z"/><path class="cls-7" d="M323.59,140.82c0,2-1.82,3-4.47,3-2.92,0-4.22-.9-4.22-2.2,0-.77.45-1.38,1.55-1.62a1.6,1.6,0,0,1-1.14-1.6,1.78,1.78,0,0,1,1.31-1.68,2.52,2.52,0,0,1-1.34-2.33c0-1.78,1.48-2.89,3.87-2.89a5.7,5.7,0,0,1,1.84.27,2.3,2.3,0,0,1,2.51-2.12l.28,1.66c-1.07-.1-1.69.28-1.84.94a2.5,2.5,0,0,1,1.09,2.14c0,1.77-1.48,2.87-3.88,2.87a7.86,7.86,0,0,1-1.44-.13c-.49.15-.7.41-.7.73,0,.47.36.71,1.09.71h2.62C322.55,138.56,323.59,139.4,323.59,140.82Zm-1.87.33c0-.45-.29-.72-1.17-.72h-2.88c-.54,0-.93.31-.93.77,0,.63.9,1,2.4,1C320.89,142.22,321.72,141.74,321.72,141.15Zm-4.13-6.79a1.56,1.56,0,0,0,3.11,0,1.56,1.56,0,0,0-3.11,0Z"/><path class="cls-7" d="M329.44,140.69c-.83,2.31-1.82,3.12-3.62,3.12a4,4,0,0,1-2.18-.57l.49-1.69a2.22,2.22,0,0,0,1.5.48,1.33,1.33,0,0,0,1.41-1l.29-.73-.93-2.21-2.61-6.41h2.59l1.61,5.1.45,1.7.52-1.8,1.55-5h2.36Z"/><g class="cls-8"><path class="cls-9" d="M175.15,115.41c-1.54,1.14-4-.79-5.26-1.58-1.77-1.1-3.77-2.6-6-2.45-1.16.08-2.43,1.12-3.59.77-1.47-.44-2.3-2.83-3-4-.88-1.48-1.9-3.15-3.66-3.6-1.1-.28-2.4.19-3.41-.41s-1.36-2.26-1.9-3.35c-1.68-3.38-5.75-.49-8.44-2s1.13-5.2-.71-7.55c-.6-.76-6.72.65-7.05-2.87-.23-2.4,4.05-3.39,3.83-4.59s-2.36-3.43-1.51-4.62,2.84-1.38,3.47-3c.73-1.87-2.74-4.71-1.24-6.84,1.08-1.54,5.62,1.38,8.05,1.23,3.83-.25-.73-8.81,3.46-8,2.3.44,4.19,3.77,5.39,5.52.84,1.21,1.4,2.73,2.53,1.27.78-1,1.25-3.32,2.92-3.19s2.36,3.09,2.83,4.35.81,2.71,2.4,2.11c.81-.3,2.14-2.09,3.12-1.6s.46,2.67.7,3.51c.48,1.63,1.67,1.5,3.13,1.24,1.07-.18,3.08-1,3.53.44s-1.41,3.19-1.37,4.68c.08,3.57,7.58-.49,8.12,3.21.26,1.79-1.84,3.11-2,4.77-.21,1.89,2.33,2.17,3.68,2.64,1.6.54,4.53,1.46,4.07,3.7s-3.17,3.11-4.58,4.37c-3.53,3.2,4.93,5.4,3.85,8.84s-8-1-9.78,2.53C176.07,112.19,176.46,114.44,175.15,115.41ZM156.5,99.56c4.79,5.13,10.52,11.38,18,7.25,6.89-3.79,4.76-14.72-.13-21.2-3.29-4.36-13.8-14-25.48-11.93-5.75,1-10.61,5.63-9.32,12,.81,4,3.89,6.16,7.41,7.51A24.07,24.07,0,0,1,156.5,99.56Z"/><path class="cls-10" d="M175.15,115.41c-1.54,1.14-4-.79-5.26-1.58-1.77-1.1-3.77-2.6-6-2.45-1.16.08-2.43,1.12-3.59.77-1.47-.44-2.3-2.83-3-4-.88-1.48-1.9-3.15-3.66-3.6-1.1-.28-2.4.19-3.41-.41s-1.36-2.26-1.9-3.35c-1.68-3.38-5.75-.49-8.44-2s1.13-5.2-.71-7.55c-.6-.76-6.72.65-7.05-2.87-.23-2.4,4.05-3.39,3.83-4.59s-2.36-3.43-1.51-4.62,2.84-1.38,3.47-3c.73-1.87-2.74-4.71-1.24-6.84,1.08-1.54,5.62,1.38,8.05,1.23,3.83-.25-.73-8.81,3.46-8,2.3.44,4.19,3.77,5.39,5.52.84,1.21,1.4,2.73,2.53,1.27.78-1,1.25-3.32,2.92-3.19s2.36,3.09,2.83,4.35.81,2.71,2.4,2.11c.81-.3,2.14-2.09,3.12-1.6s.46,2.67.7,3.51c.48,1.63,1.67,1.5,3.13,1.24,1.07-.18,3.08-1,3.53.44s-1.41,3.19-1.37,4.68c.08,3.57,7.58-.49,8.12,3.21.26,1.79-1.84,3.11-2,4.77-.21,1.89,2.33,2.17,3.68,2.64,1.6.54,4.53,1.46,4.07,3.7s-3.17,3.11-4.58,4.37c-3.53,3.2,4.93,5.4,3.85,8.84s-8-1-9.78,2.53C176.07,112.19,176.46,114.44,175.15,115.41ZM156.5,99.56c4.79,5.13,10.52,11.38,18,7.25,6.89-3.79,4.76-14.72-.13-21.2-3.29-4.36-13.8-14-25.48-11.93-5.75,1-10.61,5.63-9.32,12,.81,4,3.89,6.16,7.41,7.51A24.07,24.07,0,0,1,156.5,99.56Z"/><path class="cls-11" d="M185.77,108.13c.35-2.16-3.05-3.84-4.26-5.63C181,104.46,184.55,106.12,185.77,108.13Z"/><path class="cls-12" d="M179.2,90.84c-.21,1.86,2.27,2.13,3.6,2.59,1.1.37,2.85.93,3.63,2,.38-2.15-2.45-3-4-3.57-.94-.32-2.45-.55-3.19-1.31C179.23,90.64,179.21,90.74,179.2,90.84Z"/><path class="cls-13" d="M176.38,109.68c-1.32,0-1.32,1.79-1.53,2.78a5.59,5.59,0,0,1-1.13,2.76c1.54.11,1.95-2,2.2-3.14a6.15,6.15,0,0,1,.68-2.39Z"/><path class="cls-14" d="M173.24,83c.07,3.13,6,.27,7.58,2.24a2.15,2.15,0,0,0,0-.67c-.45-3.12-6-.62-7.53-2.08A2.22,2.22,0,0,0,173.24,83Z"/><path class="cls-15" d="M136.93,85.85a4.33,4.33,0,0,0-.49-1.13c-.68,1-3.82,2-3.63,4a2.32,2.32,0,0,0,.38,1.1C133.52,87.86,137.12,86.94,136.93,85.85Z"/><path class="cls-16" d="M135.56,80.56c.88-1.25,2.79-1.35,3.41-2.93a2.72,2.72,0,0,0-.28-2,1.79,1.79,0,0,1-.09.4c-.62,1.59-2.53,1.68-3.4,2.93-.37.52-.16,1.24.2,2A1.16,1.16,0,0,1,135.56,80.56Z"/><path class="cls-17" d="M138,71.65c1-1.49,5.37,1.37,7.7,1.22,3.66-.22-.72-8.62,3.28-7.83,2.2.43,4,3.69,5.17,5.41.8,1.19,1.34,2.68,2.42,1.25.74-1,1.18-3.24,2.78-3.12s2.26,3,2.71,4.27.78,2.65,2.3,2.07c.78-.29,2-2,3-1.56a.64.64,0,0,1,.23.2c0-.77-.09-1.52-.59-1.78-.94-.48-2.2,1.27-3,1.56-1.52.59-1.83-.75-2.3-2.06S160.66,67.14,159,67s-2,2.12-2.78,3.11c-1.08,1.43-1.62-.05-2.42-1.24-1.16-1.72-3-5-5.17-5.42-4-.79.38,7.61-3.28,7.84-2.33.14-6.67-2.72-7.7-1.22a2.77,2.77,0,0,0,0,2.73A2,2,0,0,1,138,71.65Z"/><path class="cls-18" d="M168,75.86a3.61,3.61,0,0,0,.08.94c.47,1.6,1.64,1.47,3.07,1.22.86-.15,2.34-.72,3.08-.13a1.77,1.77,0,0,0,0-1c-.44-1.42-2.41-.61-3.45-.43S168.56,76.76,168,75.86Z"/><path class="cls-19" d="M174.5,106.81c-7.48,4.13-13.21-2.12-18-7.25A24.07,24.07,0,0,0,147,93.17c-3.52-1.35-6.6-3.53-7.41-7.51-1.29-6.35,3.57-10.94,9.32-12,11.68-2.12,22.19,7.57,25.48,11.93C179.26,92.09,181.39,103,174.5,106.81Z"/><path class="cls-20" d="M146.46,80.51c10.88-2,20.66,7,23.73,11.11s4.88,9.73,4,14.21c5.36-3.94,3.36-13.44-1-19.19-3.06-4.06-12.85-13.08-23.73-11.11-4.21.76-7.89,3.57-8.69,7.61A12.16,12.16,0,0,1,146.46,80.51Z"/></g><path class="cls-21" d="M161,98.18c2.56,4.06,11,5.79,11-1.05.06-4.45-5.51-5.4-8.86-4.48A3.72,3.72,0,0,0,161,98.18Z"/><path class="cls-21" d="M165.14,95.75c-.75,1.25,2,4.28,2.85,2.09C168.63,96.14,165.9,94.49,165.14,95.75Z"/><g class="cls-22"><path class="cls-23" d="M166.35,94.87c3.77,3.44,5.48,7.68,3.87,9.52s-6,.53-9.72-2.86S155,93.86,156.59,92,162.61,91.48,166.35,94.87Z"/></g><path class="cls-24" d="M169.18,97.64a3.69,3.69,0,0,1-1.63,3.38c1.94,0,3.57-1.14,3.6-3.9,0-3.75-4.65-4.56-7.49-3.78a2.62,2.62,0,0,0-.67.29C165.77,93.37,169.22,94.41,169.18,97.64Z"/><path class="cls-21" d="M155.15,92.78c-.07-1.27-3.55-2.07-3.07-.07C152.45,94.26,155.22,94.08,155.15,92.78Z"/><path class="cls-25" d="M158.68,94c-7.83-1.23-13.82-4.56-13.38-7.45s7.15-4.22,15-3S174.1,88.12,173.66,91,166.51,95.23,158.68,94Z"/><path class="cls-26" d="M149.61,91.06c-5.72-2-9.61-5.79-8.69-8.56s6.31-3.42,12-1.45,9.62,5.79,8.69,8.55S155.33,93,149.61,91.06Z"/><path class="cls-27" d="M168.39,89.66c.88-4.82-5.77-8.75-10.14-10.89-3.28-1.6-7.75-3-10.86-.29-3.33,3-1.79,7.76,2,9.43,3.43,1.53,7.25,0,10.63,1.59S167.74,93.2,168.39,89.66Z"/><path class="cls-28" d="M148.83,83.88c2.78-2.47,6.79-1.17,9.73.26,2.79,1.36,6.61,3.55,8.29,6.25a2.46,2.46,0,0,0,.37-1c.79-4.31-5.17-7.84-9.08-9.75-2.94-1.44-6.95-2.74-9.73-.27a4.71,4.71,0,0,0-.85,6.19A4.92,4.92,0,0,1,148.83,83.88Z"/><g class="cls-29"><path class="cls-30" d="M152.31,81.85c4.46,1.18,7.63,3.75,7.14,5.74s-4.55,2.63-9,1.47-7.64-3.74-7.17-5.74S147.88,80.68,152.31,81.85Z"/><path class="cls-31" d="M164.07,87.83c2.87,1.25,4.87,3,4.5,3.87s-3,.61-5.85-.63-4.86-3-4.51-3.88S161.23,86.59,164.07,87.83Z"/></g><g class="cls-32"><path class="cls-33" d="M147.49,86.4c6.38,4.26,10.6,9.08,9.51,10.81s-7.19-.35-13.5-4.56-10.6-9.07-9.56-10.83C135.14,80.16,141.17,82.18,147.49,86.4Z"/><path class="cls-34" d="M163.7,99c7.1,6.71,11.69,13.32,10.34,14.86s-8.26-2.73-15.29-9.36-11.69-13.32-10.39-14.89C149.84,88.2,156.66,92.36,163.7,99Z"/></g><g class="cls-35"><path class="cls-36" d="M148.88,101.71c-5.3-5-7.15-11.68-4.12-15s9.76-2,15.06,3,7.15,11.68,4.12,15S154.18,106.68,148.88,101.71Z"/><path class="cls-37" d="M142.05,97.08c-7.5-7-11.13-15.41-8.11-18.72s11.55-.29,19.05,6.75,11.12,15.41,8.1,18.71S149.55,104.11,142.05,97.08Z"/><path class="cls-38" d="M139.19,94.75c-5.89-5.52-8.22-12.68-5.2-16s10.25-1.51,16.14,4,8.23,12.69,5.21,16S145.09,100.28,139.19,94.75Z"/><path class="cls-39" d="M154,106c-5.3-5-7.14-11.68-4.12-15s9.77-2,15.07,3,7.14,11.68,4.12,15S159.31,110.93,154,106Z"/><path class="cls-40" d="M160.67,111c-6.32-3.52-9.71-9.58-7.57-13.53s9-4.3,15.33-.78,9.72,9.58,7.58,13.53S167,114.56,160.67,111Z"/><path class="cls-41" d="M169.6,111.81c-7.22.08-13.11-3.52-13.15-8s5.77-8.22,13-8.3,13.11,3.52,13.16,8S176.82,111.74,169.6,111.81Z"/></g><path class="cls-42" d="M91.75,116.86c7.33,4.85-.94,13-1.44,20.89-.27,4.22,1.94,8.74,6.52,9.11,4.75.4,7.91-3.65,10.72-6.87,3-3.43,4.48-.37,6.79,2.36,2.7,3.19,7.48,7.94,11.69,4.36,3.09-2.63,3.14-9,7.21-10.35,2.49-.8,5.69.4,8.12.92,3.83.83,7.83,1.65,11.76,1.13,3-.4,6.32-1.77,7-5.13.73-3.84-2.13-7.76-4.46-10.45-3.23-3.74-7.2-6.7-11.09-9.68-1.92-1.48-5.67-3.66-5.9-6.44-.21-2.47,2.55-4.51,4.15-5.94,2.41-2.15,5.07-4.17,7-6.77,3.28-4.32.15-5.47-3.95-5.51-4.48,0-5.55-1.56-6.37-5.91C139,79.64,138,73.46,133.72,75c-3.22,1.11-4.94,6-8.81,4.88-2.53-.7-4.78-3.06-6.79-4.64-2.65-2.09-5.52-4.43-8.77-5.47-7.91-2.51-5.17,8.07-3.84,12.15,1.27,3.89,6.64,13.07,0,14.42s-14.43-.94-20.23,3.58C80.67,103.45,81.3,110,91.75,116.86Z"/><path class="cls-43" d="M91.75,116.86c7.33,4.85-.94,13-1.44,20.89-.27,4.22,1.94,8.74,6.52,9.11,4.75.4,7.91-3.65,10.72-6.87,3-3.43,4.48-.37,6.79,2.36,2.7,3.19,7.48,7.94,11.69,4.36,3.09-2.63,3.14-9,7.21-10.35,2.49-.8,5.69.4,8.12.92,3.83.83,7.83,1.65,11.76,1.13,3-.4,6.32-1.77,7-5.13.73-3.84-2.13-7.76-4.46-10.45-3.23-3.74-7.2-6.7-11.09-9.68-1.92-1.48-5.67-3.66-5.9-6.44-.21-2.47,2.55-4.51,4.15-5.94,2.41-2.15,5.07-4.17,7-6.77,3.28-4.32.15-5.47-3.95-5.51-4.48,0-5.55-1.56-6.37-5.91C139,79.64,138,73.46,133.72,75c-3.22,1.11-4.94,6-8.81,4.88-2.53-.7-4.78-3.06-6.79-4.64-2.65-2.09-5.52-4.43-8.77-5.47-7.91-2.51-5.17,8.07-3.84,12.15,1.27,3.89,6.64,13.07,0,14.42s-14.43-.94-20.23,3.58C80.67,103.45,81.3,110,91.75,116.86Z"/><path class="cls-44" d="M110.4,89.4c5.21-1.05,1-8.24,0-11.29a19.65,19.65,0,0,1-1.18-7.1c-5.36-1.17-3.34,6.61-2.34,9.68.69,2.11,2.92,6.21,2.49,8.88C109.73,89.53,110.07,89.47,110.4,89.4Z"/><path class="cls-45" d="M126.61,83.94c2.27,2.79,5.14-2,6.6-3.59a13.09,13.09,0,0,1,3.78-3c-1-3.59-4.93.1-6.41,1.68-1,1.09-2.7,3.73-4.4,4.32C126.32,83.58,126.46,83.76,126.61,83.94Z"/><path class="cls-46" d="M134.12,74.85a3.34,3.34,0,0,0-.4.1,7.3,7.3,0,0,0-2.49,1.66A6.33,6.33,0,0,0,134.12,74.85Z"/><path class="cls-47" d="M119.13,139c-1.95-2.3-3.22-4.89-5.74-2L112,138.59c1.14.28,2.09,1.81,3.29,3.23,2.29,2.7,6.33,6.72,9.89,3.69a6.12,6.12,0,0,0,1.34-1.73C123.73,144,120.91,141.13,119.13,139Z"/><path class="cls-48" d="M101.69,142.65c-4-.34-6-4.33-5.76-8.06.44-7,7.74-17.51,1.27-21.8-8-5.28-9.48-10.28-7.12-13.59a10.91,10.91,0,0,0-2.59,1.49c-4.06,3.16-3.5,8.9,5.73,15C99.7,120,92.4,130.55,92,137.5c-.24,3.73,1.71,7.72,5.76,8.05,2.92.24,5.16-1.41,7.08-3.4A6.65,6.65,0,0,1,101.69,142.65Z"/><path class="cls-49" d="M156.06,133.92c-3.52.45-7.11-.27-10.54-1-2.18-.47-5.05-1.54-7.28-.82a5.17,5.17,0,0,0-2.87,2.74c2-.16,4.3.64,6.13,1,3.42.73,7,1.47,10.53,1,2.29-.29,4.74-1.22,5.8-3.31A12.39,12.39,0,0,1,156.06,133.92Z"/><path class="cls-50" d="M110.4,112.78c.5,9,12.52,19.54,18.83,8.52,4.1-7.16-4.06-13.85-10.33-15.47C115.41,104.93,110.1,107.29,110.4,112.78Z"/><path class="cls-51" d="M115.09,114.37c-.25-4.61,4-6.68,7.07-6.1a15.6,15.6,0,0,0-3.32-1.32c-3-.79-7.65,1.27-7.39,6,.29,5.17,5,11,9.72,11.46A13.91,13.91,0,0,1,115.09,114.37Z"/><path class="cls-52" d="M119.29,112.67c-2.34,1.34-.58,8.81,2.73,6C124.59,116.53,121.66,111.33,119.29,112.67Z"/><path class="cls-53" d="M102.73,109.5c1.7,1.39,6.74-2.22,3.66-3.9C104,104.28,101,108.1,102.73,109.5Z"/><path class="cls-54" d="M126.62,101c.94-3.3-5.91-7.58-6.45-2.12C119.75,103.12,125.66,104.31,126.62,101Z"/><path class="cls-55" d="M110.73,126.31c1.44-.88.62-3.79-1.41-2C107.73,125.74,109.26,127.19,110.73,126.31Z"/><path class="cls-56" d="M118.6,98.41c-1.17,0-2,3.25-.18,2.88C119.85,101,119.78,98.39,118.6,98.41Z"/><g class="cls-57"><path class="cls-58" d="M138.68,132.41c-22.27-22.35-34.94-45.67-28.56-52.4,6.55-6.54,29.77,6.13,51.83,28.19,22.24,22.29,35,45.67,28.74,52.53C183.92,167.09,160.78,154.53,138.68,132.41Z"/><path class="cls-59" d="M139.44,90.16c13.25-13.77,27-21.82,30.83-18.13s-3.87,18-17,31.59-27,21.83-30.91,18.24C118.77,117.93,126.32,103.83,139.44,90.16Z"/><path class="cls-60" d="M130.76,80.49c-4.1-14.58-4.14-27.25-.14-28.47s10.6,9.72,14.68,24.14,4.15,27.25.18,28.57C141.4,105.71,134.84,95,130.76,80.49Z"/><path class="cls-61" d="M111,85.69C90.12,70.14,76.65,53,80.7,47.24c4.21-5.67,24.45,2.24,45.16,17.59,20.88,15.5,34.39,32.66,30.5,38.54C152,108.91,131.79,101.08,111,85.69Z"/></g><g class="cls-62"><path class="cls-63" d="M93.86,104.53c-1.28-.56-2.79,1.4-.62,1.91C94.93,106.82,95.15,105.09,93.86,104.53Z"/><path class="cls-63" d="M109.65,102.36c-.55-.46-1.57.27-.58.84C109.83,103.64,110.19,102.83,109.65,102.36Z"/><path class="cls-63" d="M108.12,118.64c.49,1.36,3,1.13,1.84-.87C109.06,116.21,107.62,117.26,108.12,118.64Z"/><path class="cls-63" d="M104.38,107.62c.35-.61-.51-1.48-.89-.43C103.2,108,104,108.23,104.38,107.62Z"/><path class="cls-63" d="M96.29,104.93c.33-.72-.74-1.62-1.05-.39C95,105.5,96,105.66,96.29,104.93Z"/><path class="cls-63" d="M109.16,97.44c-1.17.62-.64,2.93,1,1.6C111.48,98,110.35,96.8,109.16,97.44Z"/><path class="cls-63" d="M111.37,83.19c-1.12.83-.23,3.16,1.31,1.52C113.87,83.43,112.52,82.35,111.37,83.19Z"/><path class="cls-63" d="M111.41,80.78c1.12.46,2.4-1.28.5-1.67C110.42,78.81,110.27,80.32,111.41,80.78Z"/><path class="cls-63" d="M133.52,81.75c-1.54.34-1.66,3.17.68,2.17C136,83.14,135.09,81.4,133.52,81.75Z"/><path class="cls-63" d="M138.39,93c-.47.75.58,1.9,1.11.58C139.91,92.55,138.86,92.24,138.39,93Z"/><path class="cls-63" d="M124.41,107.32c.5,1.26,2.86,1,1.72-.88C125.23,105,123.91,106,124.41,107.32Z"/><path class="cls-63" d="M128.53,108.8c0-.86-1.49-1.19-1.19.15C127.57,110,128.56,109.66,128.53,108.8Z"/><path class="cls-63" d="M128.17,102.33c-.82-.31-1.71,1-.34,1.21C128.9,103.74,129,102.65,128.17,102.33Z"/><path class="cls-63" d="M143,120.19c-.85.86.23,2.73,1.32,1.12C145.21,120,143.9,119.31,143,120.19Z"/><path class="cls-63" d="M152.78,129.18c.95-.07,1.25-1.74-.21-1.35C151.42,128.13,151.83,129.25,152.78,129.18Z"/><path class="cls-63" d="M138.59,128.7c.57-1.1-1-2.58-1.61-.68C136.53,129.51,138,129.81,138.59,128.7Z"/><path class="cls-63" d="M134,123.85c.11-.94-1.42-1.54-1.32,0C132.71,125,133.85,124.79,134,123.85Z"/><path class="cls-63" d="M124.11,140.2c.43.77,1.92.38,1-.71C124.44,138.64,123.68,139.42,124.11,140.2Z"/><path class="cls-63" d="M124,128.6c-.69-.66-2.13.22-.85,1.08C124.09,130.34,124.64,129.28,124,128.6Z"/><path class="cls-63" d="M136.61,99.47c-.87-.57-2.21.7-.67,1.32C137.14,101.28,137.5,100,136.61,99.47Z"/><path class="cls-63" d="M133.4,114.67c-1.46.07-2,2.63.28,2.09C135.46,116.34,134.88,114.59,133.4,114.67Z"/><path class="cls-63" d="M126.14,125.44c-.67,1.08.86,2.74,1.61.83C128.33,124.78,126.83,124.34,126.14,125.44Z"/><path class="cls-63" d="M125.43,132.82c.1,1,1.9,1.34,1.45-.27C126.53,131.3,125.34,131.76,125.43,132.82Z"/><path class="cls-63" d="M111.93,134.37c-.4-.57-1.53-.13-.74.64C111.8,135.61,112.33,134.94,111.93,134.37Z"/><path class="cls-63" d="M106.45,133.77c-1.61.18-2,3.06.47,2.29C108.86,135.46,108.09,133.58,106.45,133.77Z"/><path class="cls-63" d="M99.89,130.19c1.59.25,2.73-2.39.15-2.31C98,127.94,98.27,129.94,99.89,130.19Z"/><path class="cls-63" d="M103.54,126.63c1.41-.81.67-3.61-1.31-1.92C100.69,126,102.12,127.45,103.54,126.63Z"/><path class="cls-63" d="M117.32,130.7c-1.35-.1-2.13,2.18,0,2C119,132.47,118.68,130.81,117.32,130.7Z"/><path class="cls-63" d="M109.73,133c-.53.74.47,2,1.09.67C111.3,132.68,110.26,132.29,109.73,133Z"/><path class="cls-63" d="M98,136.88c-.19,1.29,1.89,2.2,1.82.11C99.77,135.36,98.19,135.57,98,136.88Z"/><path class="cls-63" d="M108.58,136.57c.18-.77-1-1.43-1.1-.16C107.43,137.4,108.4,137.35,108.58,136.57Z"/><path class="cls-63" d="M96.09,141.91c.44.88,2.12.53,1.18-.73C96.54,140.2,95.66,141,96.09,141.91Z"/></g><g class="cls-64"><path class="cls-7" d="M114.53,49.32a3.3,3.3,0,0,0-3.51.6c-.83.94-.79,2.51-.79,3.68a.45.45,0,0,0,.33.45,7.4,7.4,0,0,0,.92,2.18c1.71,2.56,5.38,1,6.72-1.07C120.05,52.27,117,50.05,114.53,49.32Zm3.13,4.58a3.64,3.64,0,0,1-4.7,2.42c-.9-.41-1.32-1.8-1.57-2.66s-.09-2.81,1-2.86a.5.5,0,0,0,.45-.67,3.57,3.57,0,0,1,1.07,0C115.69,50.52,118.08,51.73,117.66,53.9Z"/><path class="cls-7" d="M103.12,65.72a3.26,3.26,0,0,0-3.5.6c-.84.94-.8,2.51-.8,3.68a.45.45,0,0,0,.33.45,7.59,7.59,0,0,0,.92,2.19c1.71,2.55,5.39,1,6.72-1.07C108.64,68.67,105.58,66.45,103.12,65.72Zm3.13,4.58a3.63,3.63,0,0,1-4.69,2.42c-.91-.41-1.32-1.8-1.57-2.66s-.09-2.81,1-2.86a.51.51,0,0,0,.46-.67,3.51,3.51,0,0,1,1.06,0C104.29,66.92,106.68,68.13,106.25,70.3Z"/><path class="cls-7" d="M125.13,65.72a3.26,3.26,0,0,0-3.5.6c-.83.94-.79,2.51-.79,3.68a.44.44,0,0,0,.33.45,7.32,7.32,0,0,0,.92,2.19c1.71,2.55,5.38,1,6.72-1.07C130.66,68.67,127.6,66.45,125.13,65.72Zm3.14,4.58a3.64,3.64,0,0,1-4.7,2.42c-.9-.41-1.32-1.8-1.57-2.66s-.09-2.81,1-2.86a.51.51,0,0,0,.45-.67,3.57,3.57,0,0,1,1.07,0C126.3,66.92,128.69,68.13,128.27,70.3Z"/><path class="cls-7" d="M118.8,83.84a3.28,3.28,0,0,0-3.51.61c-.83.94-.79,2.51-.79,3.67a.44.44,0,0,0,.33.45,7.59,7.59,0,0,0,.92,2.19c1.71,2.56,5.38,1,6.72-1.07C124.32,86.8,121.26,84.58,118.8,83.84Zm3.13,4.59a3.65,3.65,0,0,1-4.7,2.42c-.9-.41-1.32-1.8-1.57-2.67s-.09-2.81,1-2.86a.5.5,0,0,0,.45-.67,4,4,0,0,1,1.07.06C120,85,122.35,86.25,121.93,88.43Z"/><path class="cls-7" d="M138.09,83.84a3.28,3.28,0,0,0-3.51.61c-.83.94-.79,2.51-.79,3.67a.44.44,0,0,0,.33.45,7.59,7.59,0,0,0,.92,2.19c1.71,2.56,5.38,1,6.72-1.07C143.61,86.8,140.55,84.58,138.09,83.84Zm3.13,4.59a3.65,3.65,0,0,1-4.7,2.42c-.9-.41-1.32-1.8-1.57-2.67s-.09-2.81,1-2.86a.51.51,0,0,0,.45-.67,4,4,0,0,1,1.07.06C139.25,85,141.64,86.25,141.22,88.43Z"/><path class="cls-7" d="M109.15,101.67a3.24,3.24,0,0,0-3.5.6c-.84.94-.79,2.51-.8,3.67a.44.44,0,0,0,.33.45,7.88,7.88,0,0,0,.92,2.19c1.71,2.56,5.39,1,6.72-1.07C114.67,104.62,111.61,102.4,109.15,101.67Zm3.13,4.58a3.64,3.64,0,0,1-4.69,2.42c-.91-.41-1.32-1.8-1.57-2.67s-.09-2.81,1-2.86a.51.51,0,0,0,.45-.67,3.89,3.89,0,0,1,1.06.06C110.32,102.86,112.71,104.07,112.28,106.25Z"/><path class="cls-7" d="M128.44,101.67a3.24,3.24,0,0,0-3.5.6c-.84.94-.79,2.51-.8,3.67a.44.44,0,0,0,.33.45,7.59,7.59,0,0,0,.93,2.19c1.7,2.56,5.38,1,6.72-1.07C134,104.62,130.9,102.4,128.44,101.67Zm3.13,4.58a3.64,3.64,0,0,1-4.69,2.42c-.91-.41-1.32-1.8-1.57-2.67s-.09-2.81,1-2.86a.51.51,0,0,0,.45-.67,3.89,3.89,0,0,1,1.06.06C129.61,102.86,132,104.07,131.57,106.25Z"/><path class="cls-7" d="M119.76,119.19a3.26,3.26,0,0,0-3.5.61c-.84.93-.8,2.5-.8,3.67a.44.44,0,0,0,.33.45,7.59,7.59,0,0,0,.92,2.19c1.71,2.56,5.39,1,6.72-1.07C125.28,122.14,122.22,119.92,119.76,119.19Zm3.13,4.59a3.66,3.66,0,0,1-4.7,2.42c-.9-.42-1.31-1.81-1.57-2.67s-.09-2.81,1-2.86a.51.51,0,0,0,.45-.67,3.57,3.57,0,0,1,1.07,0C120.92,120.39,123.31,121.6,122.89,123.78Z"/><path class="cls-7" d="M139.05,119.19a3.28,3.28,0,0,0-3.51.61c-.83.93-.79,2.5-.79,3.67a.44.44,0,0,0,.33.45,7.59,7.59,0,0,0,.92,2.19c1.71,2.56,5.38,1,6.72-1.07C144.57,122.14,141.51,119.92,139.05,119.19Zm3.13,4.59a3.66,3.66,0,0,1-4.7,2.42c-.9-.42-1.31-1.81-1.57-2.67s-.09-2.81,1-2.86a.51.51,0,0,0,.45-.67,3.57,3.57,0,0,1,1.07,0C140.21,120.39,142.6,121.6,142.18,123.78Z"/><path class="cls-7" d="M87.36,83.84a3.26,3.26,0,0,0-3.5.61c-.84.94-.79,2.51-.8,3.67a.44.44,0,0,0,.33.45,7.59,7.59,0,0,0,.93,2.19c1.7,2.56,5.38,1,6.72-1.07C92.88,86.8,89.82,84.58,87.36,83.84Zm3.13,4.59a3.64,3.64,0,0,1-4.69,2.42c-.91-.41-1.32-1.8-1.57-2.67s-.09-2.81,1-2.86a.51.51,0,0,0,.45-.67,3.86,3.86,0,0,1,1.06.06C88.53,85,90.92,86.25,90.49,88.43Z"/><path class="cls-7" d="M106.65,83.84a3.26,3.26,0,0,0-3.5.61c-.83.94-.79,2.51-.79,3.67a.42.42,0,0,0,.33.45,7.32,7.32,0,0,0,.92,2.19c1.7,2.56,5.38,1,6.72-1.07C112.17,86.8,109.11,84.58,106.65,83.84Zm3.13,4.59a3.64,3.64,0,0,1-4.69,2.42c-.91-.41-1.32-1.8-1.57-2.67s-.09-2.81,1-2.86a.51.51,0,0,0,.45-.67,3.86,3.86,0,0,1,1.06.06C107.82,85,110.21,86.25,109.78,88.43Z"/><path class="cls-7" d="M111.2,57.2c-1.35,1.58-2.77,3.1-4.15,4.66-.58.66-1.17,1.33-1.7,2-.35.47-.93,1.72-1.47,2s-.07,1.12.5.86.56-.58.85-1c.68-.92,1.36-1.83,2.1-2.71,1.48-1.74,3.08-3.39,4.57-5.13C112.31,57.42,111.61,56.72,111.2,57.2Z"/><path class="cls-7" d="M122,66a32.61,32.61,0,0,0-2.72-5c-.58-.83-1.11-1.69-1.65-2.54-.29-.47-1.16-1.36-1.17-1.89a.5.5,0,0,0-1,0c0,1.27,1.49,2.69,2.13,3.69a50.3,50.3,0,0,1,3.54,6.28C121.44,67.12,122.29,66.62,122,66Z"/><path class="cls-7" d="M100.16,70.88c-4,4.48-8.28,8.86-11.45,14-.34.54.52,1,.85.5,3.13-5,7.4-9.33,11.29-13.75C101.28,71.11,100.58,70.4,100.16,70.88Z"/><path class="cls-7" d="M105,72.55c-.07-.63-1.06-.63-1,0,.48,4.29.83,8.72,1.5,13,.1.62,1,.36,1-.27C105.77,81.1,105.42,76.75,105,72.55Z"/><path class="cls-7" d="M123.1,73.24c-.77,2-1.66,4-2.5,6-.23.56-1.82,4.66-1.31,4.66a.5.5,0,0,0,0,1h.17a.48.48,0,0,0,.47-.36c.54-3.84,2.76-7.45,4.12-11C124.28,72.91,123.33,72.65,123.1,73.24Z"/><path class="cls-7" d="M135.79,82.91A45.15,45.15,0,0,1,131,76.35a38.52,38.52,0,0,1-3-4.76.5.5,0,0,0-1,.14v.16a.45.45,0,0,0,.22.4c.75,1.56,2,3.1,2.92,4.56a44.67,44.67,0,0,0,4.91,6.76C135.52,84.09,136.22,83.38,135.79,82.91Z"/><path class="cls-7" d="M116.47,91.48a44.35,44.35,0,0,0-4.9,6.65c-.66,1.07-1.06,2.28-1.62,3.4-.25.49-.54.5-.54,1a.5.5,0,0,0,1,0s.51-.72.6-.91c.49-1,.89-2,1.42-3a33,33,0,0,1,4.75-6.45C117.6,91.71,116.9,91,116.47,91.48Z"/><path class="cls-7" d="M126.48,101.64a55.7,55.7,0,0,1-2.81-6.14c-.75-1.8-1.76-3.36-2.63-5.07-.29-.57-1.14-.07-.86.5,1,1.88,2,3.57,2.83,5.54a52.72,52.72,0,0,0,2.61,5.66A.5.5,0,0,0,126.48,101.64Z"/><path class="cls-7" d="M125.79,109.05c-1.16,2.09-2,4.28-3.1,6.39-.75,1.45-1.94,2.79-2.56,4.27-.24.59.72.85,1,.27a44.35,44.35,0,0,1,2.45-4c1.16-2.06,1.95-4.31,3.1-6.39C127,109,126.1,108.49,125.79,109.05Z"/><path class="cls-7" d="M138.59,118.51c-1.61-2-3.24-3.94-4.73-6-1.1-1.53-2-3.29-3.18-4.7-.41-.49-1.11.22-.7.7,1.3,1.48,2.23,3.39,3.39,5,1.41,2,3,3.83,4.52,5.71C138.3,119.7,139,119,138.59,118.51Z"/></g></g></g></g></svg>