<svg id="Component_100_1" data-name="Component 100 – 1" xmlns="http://www.w3.org/2000/svg" xmlns:xlink="http://www.w3.org/1999/xlink" width="341" height="165" viewBox="0 0 341 165">
  <defs>
    <clipPath id="clip-path">
      <rect id="Rectangle_1603" data-name="Rectangle 1603" width="341" height="165" rx="16" transform="translate(744 1040)" fill="#13a317"/>
    </clipPath>
  </defs>
  <g id="Group_1799" data-name="Group 1799" transform="translate(-744 -1040)" clip-path="url(#clip-path)">
    <g id="Rectangle_1602" data-name="Rectangle 1602" transform="translate(732 1019)" fill="#13a317" stroke="#707070" stroke-width="1">
      <rect width="361" height="191" stroke="none"/>
      <rect x="0.5" y="0.5" width="360" height="190" fill="none"/>
    </g>
    <ellipse id="Ellipse_238" data-name="Ellipse 238" cx="181" cy="174.5" rx="181" ry="174.5" transform="translate(606 932)" fill="#066a09" opacity="0.213"/>
  </g>
  <text id="Biology" transform="translate(238 140)" fill="#fff" font-size="19" font-family="WorkSans-Bold, Work Sans" font-weight="700" letter-spacing="-0.009em"><tspan x="0" y="0">Biology</tspan></text>
  <path id="dna" d="M66.245,19.025a10.823,10.823,0,0,1-2.164,1.7L51.8,8.443a10.834,10.834,0,0,1,1.7-2.164,3.386,3.386,0,0,0-4.789-4.789c-5.5,5.5-5.575,12.138-4.614,18.135-6.982-1.439-14.7-2.051-20.861,4.109a16.662,16.662,0,0,0-4.9,10,1.056,1.056,0,1,0,2.1.27,14.622,14.622,0,0,1,4.294-8.778c5.677-5.677,12.848-4.859,19.773-3.358.207,1.035.39,1.846.591,2.738-6.881-1.565-13.546-2.671-18.572,2.427-11.234,11.25,7.855,30.443-4.7,43a1.273,1.273,0,0,1-1.8-1.8c7.963-7.964.848-19.4.29-30.356a1.057,1.057,0,0,0-2.111.108,44.241,44.241,0,0,0,.926,6.606c-6-.961-12.64-.881-18.135,4.614A3.386,3.386,0,0,0,5.78,54a10.832,10.832,0,0,1,2.163-1.7L20.222,64.581a10.843,10.843,0,0,1-1.7,2.164,3.386,3.386,0,1,0,4.789,4.789c5.5-5.5,5.575-12.138,4.614-18.135,7.969,1.643,15.09,1.661,20.861-4.109,6.161-6.161,5.548-13.88,4.109-20.862a32.045,32.045,0,0,0,6.045.448,1.057,1.057,0,0,0-.066-2.112,31.352,31.352,0,0,1-6.464-.559c-.2-.892-.4-1.732-.624-2.7,5.861,1.18,11.439,1.527,15.95-2.985a1.273,1.273,0,0,1,1.8,1.8,14.446,14.446,0,0,1-6.825,3.924,1.056,1.056,0,1,0,.519,2.048,16.5,16.5,0,0,0,7.8-4.478,3.386,3.386,0,1,0-4.789-4.789ZM4.286,52.5a1.273,1.273,0,0,1-1.8-1.8,15.37,15.37,0,0,1,11.423-4.451,32.886,32.886,0,0,1,5.7.568c.2.887.407,1.759.624,2.7C14.376,48.34,8.8,47.993,4.286,52.5Zm5.733-1.114c2.867-.881,6.3-.544,10.722.393.938,4.426,1.275,7.855.393,10.722ZM26.4,46.124a42.791,42.791,0,0,1-1.487-9.659L36.059,47.61A42.779,42.779,0,0,1,26.4,46.124ZM38.77,47.333,25.192,33.755a10.087,10.087,0,0,1,2.121-4.449L43.218,45.212A10.074,10.074,0,0,1,38.77,47.333Zm5.943-3.615L28.807,27.812a10.083,10.083,0,0,1,4.448-2.121L46.833,39.269A10.086,10.086,0,0,1,44.713,43.718ZM45.624,26.9a42.822,42.822,0,0,1,1.487,9.659L35.966,25.414A42.784,42.784,0,0,1,45.624,26.9Zm1.671,20.894c-5.677,5.677-12.847,4.859-19.773,3.358-.149-.743-.311-1.508-.591-2.738,6.97,1.585,13.5,2.648,18.564-2.42,11.16-11.159-7.776-30.523,4.71-43.009a1.273,1.273,0,0,1,1.8,1.8C40.782,16.008,59.849,35.241,47.295,47.794Zm3.99-26.554c-.938-4.426-1.275-7.855-.393-10.722L62.006,21.634C59.139,22.515,55.71,22.178,51.284,21.24Zm0,0" transform="translate(29.976 20.5)" fill="#fff"/>
</svg>
