<?xml version="1.0" encoding="utf-8"?>
<!-- Generator: Adobe Illustrator 23.0.1, SVG Export Plug-In . SVG Version: 6.00 Build 0)  -->
<svg version="1.1" id="Layer_1" xmlns="http://www.w3.org/2000/svg" xmlns:xlink="http://www.w3.org/1999/xlink" x="0px" y="0px"
	 viewBox="0 0 293 123" style="enable-background:new 0 0 293 123;" xml:space="preserve">
<style type="text/css">
	.st0{clip-path:url(#SVGID_3_);fill:url(#SVGID_4_);}
	.st1{opacity:0.27;clip-path:url(#SVGID_3_);}
	.st2{fill:url(#SVGID_5_);}
	.st3{clip-path:url(#SVGID_3_);}
	.st4{fill:url(#SVGID_6_);}
	.st5{fill:url(#SVGID_7_);}
	.st6{fill:url(#SVGID_8_);}
	.st7{fill:#96B8BC;}
	.st8{fill:url(#SVGID_9_);}
	.st9{fill:url(#SVGID_10_);}
	.st10{fill:#3A7070;}
	.st11{fill:url(#SVGID_11_);}
	.st12{fill:url(#SVGID_12_);}
	.st13{fill:url(#SVGID_13_);}
	.st14{fill:url(#SVGID_14_);}
	.st15{fill:#A55579;}
	.st16{fill:url(#SVGID_15_);}
	.st17{fill:url(#SVGID_16_);}
	.st18{fill:url(#SVGID_17_);}
	.st19{fill:url(#SVGID_18_);}
	.st20{fill:url(#SVGID_19_);}
	.st21{fill:url(#SVGID_20_);}
	.st22{fill:#F7A6D2;}
	.st23{fill:url(#SVGID_21_);}
	.st24{fill:#F72828;}
	.st25{fill:#594A36;}
	.st26{fill:url(#SVGID_22_);}
	.st27{fill:#7C7160;}
	.st28{fill:#261C0D;}
	.st29{fill:#601D3B;}
	.st30{fill:url(#SVGID_23_);}
	.st31{fill:url(#SVGID_24_);}
	.st32{fill:#609496;}
	.st33{fill:url(#SVGID_25_);}
	.st34{fill:#366F75;}
	.st35{fill:url(#SVGID_26_);}
	.st36{fill:url(#SVGID_27_);}
	.st37{fill:url(#SVGID_28_);}
	.st38{fill:url(#SVGID_29_);}
	.st39{fill:url(#SVGID_30_);}
	.st40{fill:url(#SVGID_31_);}
	.st41{fill:url(#SVGID_32_);}
	.st42{fill:url(#SVGID_33_);}
	.st43{fill:url(#SVGID_34_);}
	.st44{fill:url(#SVGID_35_);}
	.st45{fill:#8C3156;}
	.st46{fill:url(#SVGID_36_);}
	.st47{fill:url(#SVGID_37_);}
	.st48{fill:url(#SVGID_38_);}
	.st49{fill:url(#SVGID_39_);}
	.st50{fill:url(#SVGID_40_);}
	.st51{fill:url(#SVGID_41_);}
	.st52{fill:url(#SVGID_42_);}
	.st53{fill:#D680AB;}
	.st54{fill:url(#SVGID_43_);}
	.st55{fill:url(#SVGID_44_);}
	.st56{fill:url(#SVGID_45_);}
	.st57{fill:url(#SVGID_46_);}
	.st58{fill:url(#SVGID_47_);}
	.st59{fill:url(#SVGID_48_);}
	.st60{fill:url(#SVGID_49_);}
	.st61{fill:url(#SVGID_50_);}
	.st62{fill:url(#SVGID_51_);}
	.st63{fill:url(#SVGID_52_);}
	.st64{fill:url(#SVGID_53_);}
	.st65{fill:url(#SVGID_54_);}
	.st66{fill:url(#SVGID_55_);}
	.st67{fill:url(#SVGID_56_);}
	.st68{fill:url(#SVGID_57_);}
	.st69{fill:url(#SVGID_58_);}
	.st70{fill:url(#SVGID_59_);}
	.st71{fill:url(#SVGID_60_);}
	.st72{fill:url(#SVGID_61_);}
	.st73{fill:#868971;}
	.st74{fill:url(#SVGID_62_);}
	.st75{fill:url(#SVGID_63_);}
	.st76{fill:url(#SVGID_64_);}
	.st77{fill:url(#SVGID_65_);}
	.st78{fill:#EF2800;}
	.st79{fill:#F7A705;}
	.st80{fill:url(#SVGID_66_);}
	.st81{fill:url(#SVGID_67_);}
	.st82{fill:url(#SVGID_68_);}
	.st83{fill:url(#SVGID_69_);}
	.st84{fill:url(#SVGID_70_);}
	.st85{fill:url(#SVGID_71_);}
	.st86{fill:url(#SVGID_72_);}
	.st87{fill:url(#SVGID_73_);}
	.st88{fill:url(#SVGID_74_);}
	.st89{fill:url(#SVGID_75_);}
	.st90{fill:url(#SVGID_76_);}
	.st91{fill:url(#SVGID_77_);}
	.st92{fill:url(#SVGID_78_);}
	.st93{fill:url(#SVGID_79_);}
	.st94{fill:url(#SVGID_80_);}
	.st95{fill:#FFFFFF;}
	.st96{opacity:0.15;}
</style>
<g>
	<g>
		<defs>
			<path id="SVGID_1_" d="M281.8,123H11.2C5,123,0,118,0,111.8V11.2C0,5,5,0,11.2,0h270.6C288,0,293,5,293,11.2v100.6
				C293,118,288,123,281.8,123z"/>
		</defs>
		<linearGradient id="SVGID_2_" gradientUnits="userSpaceOnUse" x1="0" y1="61.5" x2="293" y2="61.5">
			<stop  offset="0.368" style="stop-color:#FEBC10"/>
			<stop  offset="1" style="stop-color:#C73C00"/>
		</linearGradient>
		<use xlink:href="#SVGID_1_"  style="overflow:visible;fill:url(#SVGID_2_);"/>
		<clipPath id="SVGID_3_">
			<use xlink:href="#SVGID_1_"  style="overflow:visible;"/>
		</clipPath>
		<linearGradient id="SVGID_4_" gradientUnits="userSpaceOnUse" x1="0" y1="61.5" x2="293" y2="61.5">
			<stop  offset="0.368" style="stop-color:#FEBC10"/>
			<stop  offset="1" style="stop-color:#C73C00"/>
		</linearGradient>
		<path class="st0" d="M281.8,123H11.2C5,123,0,118,0,111.8V11.2C0,5,5,0,11.2,0h270.6C288,0,293,5,293,11.2v100.6
			C293,118,288,123,281.8,123z"/>
		<g class="st1">
			<linearGradient id="SVGID_5_" gradientUnits="userSpaceOnUse" x1="-63.8719" y1="51.1187" x2="138.5388" y2="51.1187">
				<stop  offset="0.368" style="stop-color:#FEBC10"/>
				<stop  offset="1" style="stop-color:#C73C00"/>
			</linearGradient>
			<path class="st2" d="M4.7-39.7c-18.4,4.2-40.4,17.5-51.4,32.8c-9.7,13.4-16,27.9-16.8,44.4C-65,64-61.8,93.1-43.5,112.4
				c12.4,13.2,29.9,23.7,47.5,28.4c13.1,3.4,53.2,6.9,72.1,0c14.1-5.1,27.8-11.7,38.1-22.5c6.1-6.4,11.7-13.2,15.9-21
				c7.1-13.3,9.6-28.8,8.1-43.8c-1.4-15-4.6-30.7-11.8-44c-7-13-16.1-23.5-28-32.1C85.4-32,47.1-49.3,4.7-39.7z"/>
		</g>
		<g class="st3">
			
				<radialGradient id="SVGID_6_" cx="-60.9927" cy="13.3216" r="12.9835" gradientTransform="matrix(2.2124 -0.5777 0.1755 0.6725 214.6912 59.5756)" gradientUnits="userSpaceOnUse">
				<stop  offset="0" style="stop-color:#735C17"/>
				<stop  offset="0.2637" style="stop-color:#AFA27A"/>
				<stop  offset="0.5385" style="stop-color:#D8D1BE"/>
				<stop  offset="0.7857" style="stop-color:#EFECE4"/>
				<stop  offset="1" style="stop-color:#FFFFFF"/>
			</radialGradient>
			<path class="st4" d="M110.8,96.3c1.3,4.8-10.6,12.1-26.4,16.2c-15.9,4.1-29.7,3.6-31-1.2c-1.2-4.8,10.6-12.1,26.4-16.2
				C95.7,90.9,109.6,91.4,110.8,96.3z"/>
			
				<radialGradient id="SVGID_7_" cx="-64.7616" cy="6.4251" r="12.9831" gradientTransform="matrix(2.0401 -0.176 5.960000e-02 0.6925 197.8996 91.6262)" gradientUnits="userSpaceOnUse">
				<stop  offset="0" style="stop-color:#735C17"/>
				<stop  offset="0.2637" style="stop-color:#AFA27A"/>
				<stop  offset="0.5385" style="stop-color:#D8D1BE"/>
				<stop  offset="0.7857" style="stop-color:#EFECE4"/>
				<stop  offset="1" style="stop-color:#FFFFFF"/>
			</radialGradient>
			<path class="st5" d="M92.6,105.2c0.4,5-11.1,10-25.7,11.3c-14.6,1.3-26.8-1.7-27.3-6.7c-0.4-5,11.1-10,25.7-11.3
				C80,97.2,92.2,100.2,92.6,105.2z"/>
			
				<radialGradient id="SVGID_8_" cx="-77.3712" cy="-1.9668" r="12.9835" gradientTransform="matrix(2.2774 0.2045 -6.230000e-02 0.6922 222.2914 124.084)" gradientUnits="userSpaceOnUse">
				<stop  offset="0" style="stop-color:#735C17"/>
				<stop  offset="0.2637" style="stop-color:#AFA27A"/>
				<stop  offset="0.5385" style="stop-color:#D8D1BE"/>
				<stop  offset="0.7857" style="stop-color:#EFECE4"/>
				<stop  offset="1" style="stop-color:#FFFFFF"/>
			</radialGradient>
			<path class="st6" d="M75.8,109.5c-0.4,5-14,7.8-30.4,6.3c-16.3-1.5-29.2-6.7-28.8-11.6c0.5-5,14-7.8,30.4-6.3
				C63.4,99.4,76.2,104.6,75.8,109.5z"/>
			<g>
				<path class="st7" d="M81.5,71.6c-0.4,0.8-1.2,2-2.6,2.5c-1.6,0.5-4.9,0.3-6.7,0.1c0.2-0.1,2.7-2.4,3.9-2.6
					C77.3,71.3,81.3,71.5,81.5,71.6z"/>
				<linearGradient id="SVGID_9_" gradientUnits="userSpaceOnUse" x1="72.0113" y1="66.6752" x2="77.0486" y2="73.0775">
					<stop  offset="0" style="stop-color:#FFFFFF"/>
					<stop  offset="1" style="stop-color:#000000"/>
				</linearGradient>
				<path class="st8" d="M81.3,72c0.1-0.1,0.2-0.3,0.2-0.4c-0.2,0-4.2-0.2-5.4,0c-1.2,0.2-3.8,2.5-3.9,2.6c0.2,0,0.4,0,0.6,0
					C75.4,72.3,78.3,71.9,81.3,72z"/>
				<linearGradient id="SVGID_10_" gradientUnits="userSpaceOnUse" x1="80.4634" y1="76.819" x2="74.9194" y2="70.7792">
					<stop  offset="0" style="stop-color:#899DA3"/>
					<stop  offset="1" style="stop-color:#FFFFFF"/>
				</linearGradient>
				<path class="st9" d="M72.8,74.2c1.9,0.2,4.7,0.3,6.2-0.2c1.2-0.4,1.9-1.3,2.4-2.1C78.3,71.9,75.4,72.3,72.8,74.2z"/>
				<path class="st10" d="M63.4,76.2c0.9-0.2,1.9-1.2,2-1.3c0,0.1-0.4,1.2-0.2,2.3c0,0-0.8,0.8-1.5,1C62.9,78.3,61,78,61,78
					c-0.3-1.1-1-1.9-1.1-2C60,76,62.4,76.4,63.4,76.2z"/>
				<linearGradient id="SVGID_11_" gradientUnits="userSpaceOnUse" x1="59.9124" y1="75.9062" x2="65.362" y2="75.9062">
					<stop  offset="0" style="stop-color:#CCABC5"/>
					<stop  offset="1" style="stop-color:#FFFFFF"/>
				</linearGradient>
				<path class="st11" d="M65.4,74.9c-0.1,0.1-1.1,1.1-2,1.3C62.4,76.4,60,76,59.9,76c0,0,0.3,0.3,0.5,0.6c1.4,0,3.1,0.2,4.7,0.3
					C65.1,75.9,65.3,75,65.4,74.9z"/>
				<path class="st10" d="M61,78c0,0,1.9,0.3,2.6,0.1c0.7-0.2,1.5-1,1.5-1c0-0.1,0-0.2,0-0.3c-1.6-0.1-3.3-0.3-4.7-0.3
					C60.6,76.9,60.9,77.4,61,78z"/>
				<path class="st10" d="M64.3,70.3c0.8-0.2,1.6-1.1,1.7-1.2c0,0.1-0.1,0.6-0.2,1.1c-0.1,0.3-0.1,0.7-0.2,1c0,0-0.5,0.6-1,0.7
					c-0.5,0.1-1.9,0-1.9,0c-0.2-0.4-0.4-0.7-0.6-0.9c-0.4-0.5-0.8-0.7-0.8-0.7S63.5,70.5,64.3,70.3z"/>
				<linearGradient id="SVGID_12_" gradientUnits="userSpaceOnUse" x1="61.2498" y1="70.0441" x2="65.9557" y2="70.0441">
					<stop  offset="0" style="stop-color:#CCABC5"/>
					<stop  offset="1" style="stop-color:#FFFFFF"/>
				</linearGradient>
				<path class="st12" d="M65.6,71c0-0.3,0.1-0.5,0.1-0.8c0.1-0.5,0.2-1,0.2-1.1c-0.1,0.1-0.9,1-1.7,1.2c-0.8,0.2-3,0-3,0
					s0.2,0.1,0.5,0.4C63.1,71,64.4,71.1,65.6,71z"/>
				<path class="st10" d="M61.8,70.7c0.1,0.1,0.2,0.2,0.3,0.3c0.2,0.2,0.4,0.6,0.6,0.9c0,0,1.4,0.1,1.9,0c0.5-0.2,1-0.7,1-0.7
					c0-0.1,0-0.1,0-0.2C64.4,71.1,63.1,71,61.8,70.7z"/>
				<path class="st7" d="M65.4,74.9c-0.1,0.1-1.1,1.1-2,1.3C62.4,76.4,60,76,59.9,76c0,0,0,0,0,0s1.8-1,2.7-1.2
					C63.5,74.6,65.4,74.9,65.4,74.9C65.4,74.9,65.4,74.9,65.4,74.9z"/>
				<path class="st7" d="M63.5,69.1c0.8-0.2,2.4-0.1,2.4-0.1s0,0,0,0c-0.1,0.1-0.9,1-1.7,1.2c-0.8,0.2-3,0-3,0S62.7,69.4,63.5,69.1z
					"/>
				<linearGradient id="SVGID_13_" gradientUnits="userSpaceOnUse" x1="59.9057" y1="75.4821" x2="65.3691" y2="75.4821">
					<stop  offset="0" style="stop-color:#2DA698"/>
					<stop  offset="1" style="stop-color:#000000"/>
				</linearGradient>
				<path class="st13" d="M65.4,74.9c-0.1,0.1-1.1,1.1-2,1.3C62.4,76.4,60,76,59.9,76c0,0,0,0,0,0s1.8-1,2.7-1.2
					C63.5,74.6,65.4,74.9,65.4,74.9C65.4,74.9,65.4,74.9,65.4,74.9z"/>
				<linearGradient id="SVGID_14_" gradientUnits="userSpaceOnUse" x1="61.2498" y1="69.6902" x2="65.9628" y2="69.6902">
					<stop  offset="0" style="stop-color:#2DA698"/>
					<stop  offset="1" style="stop-color:#000000"/>
				</linearGradient>
				<path class="st14" d="M63.5,69.1c0.8-0.2,2.4-0.1,2.4-0.1s0,0,0,0c-0.1,0.1-0.9,1-1.7,1.2c-0.8,0.2-3,0-3,0S62.7,69.4,63.5,69.1
					z"/>
				<path class="st15" d="M52,86.5c1.1-0.5,10-0.1,9.8,1.2c-0.2,1-1.2,6.3-1.7,8.8c-0.2,0.8-0.3,1.4-0.3,1.4s-8,0.9-9.4,0.9
					S44,97.9,44,97.9s0.6-0.9,1.4-2.2C47.5,92.5,51.3,86.8,52,86.5z"/>
				<linearGradient id="SVGID_15_" gradientUnits="userSpaceOnUse" x1="58.2426" y1="85.6269" x2="45.5442" y2="110.2411">
					<stop  offset="0" style="stop-color:#FFFFFF"/>
					<stop  offset="1" style="stop-color:#A80070"/>
				</linearGradient>
				<path class="st16" d="M52,86.5c1.1-0.5,10-0.1,9.8,1.2c-0.2,1-1.2,6.3-1.7,8.8c-0.2,0.8-0.3,1.4-0.3,1.4s-8,0.9-9.4,0.9
					S44,97.9,44,97.9s0.6-0.9,1.4-2.2C47.5,92.5,51.3,86.8,52,86.5z"/>
				<linearGradient id="SVGID_16_" gradientUnits="userSpaceOnUse" x1="37.7808" y1="92.6833" x2="62.3512" y2="92.2365">
					<stop  offset="0" style="stop-color:#C7367C"/>
					<stop  offset="1" style="stop-color:#000000"/>
				</linearGradient>
				<path class="st17" d="M61.8,88.1c0-0.1,0-0.3,0.1-0.4c0.2-1.4-8.7-1.7-9.8-1.2c-0.8,0.3-4.6,6-6.7,9.2C44.5,97,44,97.9,44,97.9
					s2.3,0.4,4.3,0.7c1.8-3.5,3.8-7.1,6.2-10.4C55.7,87,59,86.8,61.8,88.1z"/>
				<linearGradient id="SVGID_17_" gradientUnits="userSpaceOnUse" x1="55.3269" y1="91.8099" x2="61.6578" y2="93.4138">
					<stop  offset="0" style="stop-color:#CCABC5"/>
					<stop  offset="1" style="stop-color:#FFFFFF"/>
				</linearGradient>
				<path class="st18" d="M60.2,87.5c0,3.7-0.8,7.2-1.9,10.5c0.9-0.1,1.5-0.2,1.5-0.2s0.1-0.5,0.3-1.4c0.5-2.3,1.4-6.9,1.6-8.4
					C61.3,87.9,60.7,87.7,60.2,87.5z"/>
				<path class="st15" d="M94.6,96.2l2.5,4.4c0,0-18.1,9.3-35.2,9.3S27.6,102,27.6,102l1.6-4.6c0,0,19,7.1,30.7,7.1
					C71.7,104.6,94.6,96.2,94.6,96.2z"/>
				<linearGradient id="SVGID_18_" gradientUnits="userSpaceOnUse" x1="27.6022" y1="103.0421" x2="97.0293" y2="103.0421">
					<stop  offset="0" style="stop-color:#C7367C"/>
					<stop  offset="1" style="stop-color:#000000"/>
				</linearGradient>
				<path class="st19" d="M94.6,96.2l2.5,4.4c0,0-18.1,9.3-35.2,9.3S27.6,102,27.6,102l1.6-4.6c0,0,19,7.1,30.7,7.1
					C71.7,104.6,94.6,96.2,94.6,96.2z"/>
				<linearGradient id="SVGID_19_" gradientUnits="userSpaceOnUse" x1="98.5026" y1="102.4599" x2="87.697" y2="101.7198">
					<stop  offset="0" style="stop-color:#AD2A2A"/>
					<stop  offset="1" style="stop-color:#000000"/>
				</linearGradient>
				<path class="st20" d="M94.6,96.2c0,0-7.9,2.9-16.7,5.2c0.6,1.9,1.3,3.8,1.9,5.7c9.9-2.7,17.3-6.6,17.3-6.6L94.6,96.2z"/>
				<linearGradient id="SVGID_20_" gradientUnits="userSpaceOnUse" x1="25.0461" y1="94.2734" x2="47.6916" y2="107.896">
					<stop  offset="0" style="stop-color:#FFFFFF"/>
					<stop  offset="1" style="stop-color:#000000"/>
				</linearGradient>
				<path class="st21" d="M49.4,104.2c0,0-4.4-0.5-10.3-2.4c-3.7-1.2-9.4-3-9.4-3l-0.9,2.3c0,0,4.2,1.7,9.1,3.2
					c5.2,1.7,11.1,2.8,11.1,2.8L49.4,104.2z"/>
				<path class="st22" d="M60.1,96.5l9.1-0.8c0,0-0.7-2.6-1.7-6c13.1,1.4,27.1,6.5,27.1,6.5s-22.9,8.3-34.6,8.3
					c-11.7,0-30.7-7.1-30.7-7.1s6-2.6,13.8-4.9c0.7,1,1.5,2.1,2.3,3.2C44.5,97,44,97.9,44,97.9s5,0.9,6.4,0.9s9.4-0.9,9.4-0.9
					S60,97.4,60.1,96.5z"/>
				<linearGradient id="SVGID_21_" gradientUnits="userSpaceOnUse" x1="58.819" y1="92.8376" x2="87.0042" y2="103.6643">
					<stop  offset="0" style="stop-color:#A3758B"/>
					<stop  offset="1" style="stop-color:#FFFFFF"/>
				</linearGradient>
				<path class="st23" d="M69.2,95.7l-9.1,0.8c-0.2,0.8-0.3,1.4-0.3,1.4s-7.7,0.8-9.4,0.8c5.2,0.7,10.4,1.2,15.4,1.6
					c0-0.7,0-2,0-2.7c5.7,0.7,11.5,1.5,17.2,2.3c4.3-1.3,7.8-2.5,9.8-3.2c-8.2-2.2-16.6-3.6-24.9-5.3C68.7,94,69.2,95.7,69.2,95.7z"
					/>
				<path class="st22" d="M67.5,89.7c0.2,0.6,0.3,1.2,0.5,1.8c8.3,1.7,16.7,3.2,24.9,5.3c1.1-0.4,1.7-0.6,1.7-0.6
					S80.6,91.1,67.5,89.7z"/>
				<path class="st22" d="M44,97.9c0,0,0-0.1,0.1-0.2c-0.1,0-0.2,0-0.4-0.1c0.1,0,0.2,0,0.4,0.1c0-0.1,0.1-0.2,0.2-0.3
					c-2.6-0.9-5.3-1.8-7.9-2.8c-4.3,1.5-7.1,2.7-7.1,2.7s19,7.1,30.7,7.1c1.7,0,3.6-0.2,5.6-0.5c-6.2-1.9-12.4-3.7-18.6-5.7
					C45.5,98.2,44,97.9,44,97.9z"/>
				<path class="st24" d="M45.4,95.7c-0.8-1.1-1.6-2.2-2.3-3.2c-2.4,0.7-4.7,1.5-6.7,2.2c2.6,1,5.2,1.9,7.9,2.8
					C44.5,97.1,44.9,96.5,45.4,95.7z"/>
				<path class="st24" d="M65.9,97.7c0,0.7,0,2,0,2.7c-4.9-0.5-10.2-0.9-15.4-1.6c0,0-0.1,0-0.1,0c-0.7,0-2-0.2-3.4-0.4
					c6.2,2,12.4,3.8,18.6,5.7c5.5-0.8,12-2.5,17.4-4.1C77.3,99.2,71.6,98.4,65.9,97.7z"/>
				<path class="st25" d="M74.2,71.1c2.5-1.4,7.7-0.3,7.7-0.3s-0.1,0.3-0.3,0.7c-0.2,0-4.2-0.2-5.4,0c-1.2,0.2-3.8,2.5-3.9,2.6
					c-0.7-0.1-1.2-0.1-1.2-0.1S72.6,72,74.2,71.1z"/>
				<path class="st25" d="M101,72.6c0,0.3-0.1,2.7-1.3,3.1c-1.2,0.4-10.5,2.3-22.3,4.8c-4.9,1-8.9,1.7-12.1,2.3
					c-4.4,0.7-7,1.1-7.4,1.1c-0.7,0.1-1.9-1.9-2.2-2.3c1.7,0.8,40.5-7.7,43.1-8.1C100.1,73.2,100.8,73,101,72.6z"/>
				<linearGradient id="SVGID_22_" gradientUnits="userSpaceOnUse" x1="74.6455" y1="71.5011" x2="81.767" y2="81.9964">
					<stop  offset="0" style="stop-color:#899DA3"/>
					<stop  offset="1" style="stop-color:#FFFFFF"/>
				</linearGradient>
				<path class="st26" d="M101,72.6c0,0.3-0.1,2.7-1.3,3.1c-1.2,0.4-10.5,2.3-22.3,4.8c-4.9,1-8.9,1.7-12.1,2.3
					c-4.4,0.7-7,1.1-7.4,1.1c-0.7,0.1-1.9-1.9-2.2-2.3c1.7,0.8,40.5-7.7,43.1-8.1C100.1,73.2,100.8,73,101,72.6z"/>
				<path class="st27" d="M81.5,71.6c0.2-0.4,0.3-0.7,0.3-0.7s-5.2-1.1-7.7,0.3c-1.6,0.9-3.1,2.9-3.1,2.9s0.5,0.1,1.2,0.1
					c1.8,0.2,5.1,0.4,6.7-0.1C80.4,73.6,81.2,72.4,81.5,71.6z M56.9,78.2c0.5-1.3,1.1-2.6,1.6-3.9c0.9-2.3,0.8-2.7,3.2-3.3
					c0.1,0,0.2-0.1,0.4-0.1c0.2,0.2,0.4,0.6,0.6,0.9c0,0,1.4,0.1,1.9,0c0.5-0.2,1-0.7,1-0.7c0-0.3,0.1-0.6,0.2-1
					c8.4-1.9,26.3-5.7,27-5c0.9,0.8,4.1,3.2,6.7,5.2c1.4,1.1,1.9,1.8,1.7,2.3c-0.2,0.4-1,0.7-2.2,0.9c-2.6,0.4-41.4,8.9-43.1,8.1
					l0,0c0-0.1-0.1-0.1-0.1-0.1C56,80.4,56.4,79.3,56.9,78.2z M59.9,76c0.1,0.1,0.9,0.9,1.1,2c0,0,1.9,0.3,2.6,0.1
					c0.7-0.2,1.5-1,1.5-1c-0.1-1.1,0.2-2.2,0.2-2.3c0,0,0,0,0,0s-1.8-0.3-2.8-0.1C61.7,75,59.9,76,59.9,76C59.9,76,59.9,76,59.9,76z
					"/>
				<path class="st28" d="M59.9,76C59.9,76,59.9,76,59.9,76c0,0,1.8-1,2.7-1.2c0.9-0.2,2.8,0.1,2.8,0.1s0,0,0,0
					c0,0.1-0.4,1.2-0.2,2.3c0,0-0.5,0.5-1.1,0.8c1.9,0.4,3.8,0.9,5.6,1.4c5.1-1,10.9-2.2,15.9-3.2c-3.7-0.6-7.3-1.1-11-1.8
					c-0.9,0-1.8-0.1-2.4-0.2c-0.7-0.1-1.2-0.1-1.2-0.1s0.1-0.1,0.2-0.3c-3.6-0.7-7.3-1.5-10.9-2.3c-1.2,0.5-1.3,1.1-2,2.9
					c-0.3,0.7-0.6,1.5-0.9,2.2c1.1,0.2,2.1,0.4,3.2,0.7C60.4,76.5,60,76.1,59.9,76z"/>
				<path class="st28" d="M74.2,71.1c2.5-1.4,7.7-0.3,7.7-0.3s-0.1,0.3-0.3,0.7c-0.2,0.3-0.4,0.8-0.7,1.2c4.3,0.6,8.7,1.1,13.1,1.7
					c2.7-0.6,4.5-0.9,5-1c1.2-0.2,2-0.4,2.2-0.9c0.3-0.5-0.3-1.2-1.7-2.3c-0.9-0.7-1.9-1.4-2.8-2.2c-4.3-0.6-8.6-1.2-13-1.7
					c-5.9,1.1-13.3,2.7-17.9,3.7c0,0.2-0.1,0.4-0.1,0.6c2.5,0.3,5.1,0.7,7.7,1C73.5,71.5,73.9,71.3,74.2,71.1z"/>
				<path class="st29" d="M96.4,56.6l1,1.1c0,0-2.5,3.1-3.7,3.5c-1.2,0.4-5.1,0-5.1,0L88,59.6v0c1.9-0.1,3.8-0.3,4.3-0.4
					C92.9,59,94.9,57.7,96.4,56.6z"/>
				<linearGradient id="SVGID_23_" gradientUnits="userSpaceOnUse" x1="88.0394" y1="58.4294" x2="97.3723" y2="58.4294">
					<stop  offset="0" style="stop-color:#899DA3"/>
					<stop  offset="1" style="stop-color:#FFFFFF"/>
				</linearGradient>
				<path class="st30" d="M97.1,57.9c0.1-0.2,0.2-0.3,0.2-0.3l-1-1.1c-1.5,1.1-3.5,2.5-4.1,2.6c-0.5,0.1-2.4,0.3-4.3,0.4v0l0.3,0.7
					C91.6,60.4,94.5,59.4,97.1,57.9z"/>
				<path class="st10" d="M96.4,56.6c-1.5,1.1-3.5,2.5-4.1,2.6c-0.5,0.1-2.4,0.3-4.3,0.4v0c-2.2,0.2-4.5,0.3-4.5,0.3v-1.3
					c2.2-0.1,4.5-0.2,6.1-0.5c2.2-0.5,5.3-2.2,8.1-4l0.8,0.9C98.5,55,97.5,55.7,96.4,56.6z"/>
				<linearGradient id="SVGID_24_" gradientUnits="userSpaceOnUse" x1="83.5413" y1="56.5409" x2="98.4665" y2="56.5409">
					<stop  offset="0" style="stop-color:#899DA3"/>
					<stop  offset="1" style="stop-color:#FFFFFF"/>
				</linearGradient>
				<path class="st31" d="M96.8,56.3c1-0.7,1.7-1.3,1.7-1.3l-0.8-0.9c-2.8,1.8-5.9,3.5-8.1,4c-1.6,0.3-3.9,0.5-6.1,0.5v0.3
					C88.2,59.1,92.5,57.9,96.8,56.3z"/>
				<path class="st32" d="M89,56.8c4.4-1.1,14.5-7.3,13.6-8.4c0.8,0.7,0.5,1.7,0.5,1.7c-0.9,0.9-3,2.5-5.3,4c-2.8,1.8-5.9,3.5-8.1,4
					c-1.6,0.3-3.9,0.5-6.1,0.5c-3.4,0.1-6.6-0.1-6.6-0.1v0c0.3-0.3,0.5-0.4,0.5-0.4l-0.9-0.5C76.9,57.6,84.7,57.9,89,56.8z"/>
				<linearGradient id="SVGID_25_" gradientUnits="userSpaceOnUse" x1="76.6111" y1="58.1185" x2="80.1393" y2="58.1185">
					<stop  offset="0" style="stop-color:#899DA3"/>
					<stop  offset="1" style="stop-color:#FFFFFF"/>
				</linearGradient>
				<path class="st33" d="M76.6,57.6l0.9,0.5c0,0-0.2,0.2-0.5,0.4v0c0,0,1.3,0.1,3.2,0.1c-0.3-0.3-0.6-0.7-0.9-1
					C77.8,57.6,76.7,57.6,76.6,57.6z"/>
				<path class="st7" d="M89,56.8c-4.3,1.1-12.1,0.8-12.4,0.8c0,0,0,0,0,0l-0.7-0.4c1.1-0.9,2.1-1.8,2.1-1.8l-0.2-0.8
					c0,0,3.8-4.3,9.7-6.2c1.1-0.3,14.2-1.1,15.1,0C103.5,49.5,93.4,55.7,89,56.8z"/>
				<path class="st34" d="M97.7,52.7c2.1-1.3,3.9-2.6,4.6-3.5c-5.8-0.5-11.5-0.4-17.3,0.1c-2.2,1-4,2.3-5.3,3.3
					C85.7,52.5,91.7,52.5,97.7,52.7z"/>
				<path class="st34" d="M91.9,55.7c1.4-0.6,2.9-1.4,4.3-2.2c-5.7-0.4-11.5-0.5-17.3-0.2c-0.8,0.7-1.2,1.2-1.2,1.2l0.2,0.7
					C82.6,55.2,87.3,55.4,91.9,55.7z"/>
				<path class="st22" d="M53.8,52.3c-0.6,0.2-9.2-0.3-10.1-1.2c-0.8-0.9-2.1-8.3-1.4-9.2c2.1-2.7,5.8-4.1,9.1-4.7
					c3.1-0.6,5.8-0.5,6.2-0.3c0.8,0.6,5,7.1,4,8.8c-0.4,0.7-1.8,1.9-3.2,3.1C56.4,50.6,54.2,52.2,53.8,52.3z M45.9,49.5
					c0.8,0.7,5.7,1.2,7.3,0.5c1.6-0.7,6-4.2,6.1-5.6c0-1.4-2-4.7-3.2-5.2c-1.2-0.5-8.3,0.5-10.7,2.7C44.1,43.1,45.1,48.7,45.9,49.5z
					"/>
				<linearGradient id="SVGID_26_" gradientUnits="userSpaceOnUse" x1="41.1109" y1="39.6778" x2="62.567" y2="49.5601">
					<stop  offset="0" style="stop-color:#FFFFFF"/>
					<stop  offset="1" style="stop-color:#C9819F"/>
				</linearGradient>
				<path class="st35" d="M53.8,52.3c-0.6,0.2-9.2-0.3-10.1-1.2c-0.8-0.9-2.1-8.3-1.4-9.2c2.1-2.7,5.8-4.1,9.1-4.7
					c3.1-0.6,5.8-0.5,6.2-0.3c0.8,0.6,5,7.1,4,8.8c-0.4,0.7-1.8,1.9-3.2,3.1C56.4,50.6,54.2,52.2,53.8,52.3z M45.9,49.5
					c0.8,0.7,5.7,1.2,7.3,0.5c1.6-0.7,6-4.2,6.1-5.6c0-1.4-2-4.7-3.2-5.2c-1.2-0.5-8.3,0.5-10.7,2.7C44.1,43.1,45.1,48.7,45.9,49.5z
					"/>
				<path class="st15" d="M53.5,43.5c0.2,0.7,0.3,2.4-1,2.9c-1.3,0.5-4.2-1-3.2-2.2C50.4,42.8,53.3,42.7,53.5,43.5z"/>
				<path class="st29" d="M56.1,39.1c1.2,0.5,3.2,3.8,3.2,5.2c0,1.4-4.5,4.9-6.1,5.6c-1.6,0.7-6.5,0.3-7.3-0.5
					c-0.8-0.7-1.8-6.4-0.5-7.6C47.8,39.6,54.9,38.6,56.1,39.1z M52.5,46.3c1.3-0.5,1.2-2.2,1-2.9c-0.2-0.7-3.2-0.7-4.3,0.7
					C48.3,45.3,51.2,46.8,52.5,46.3z"/>
				<linearGradient id="SVGID_27_" gradientUnits="userSpaceOnUse" x1="54.7795" y1="45.1813" x2="29.0641" y2="39.6453">
					<stop  offset="0" style="stop-color:#FFFFFF"/>
					<stop  offset="1" style="stop-color:#A80070"/>
				</linearGradient>
				<path class="st36" d="M56.1,39.1c1.2,0.5,3.2,3.8,3.2,5.2c0,1.4-4.5,4.9-6.1,5.6c-1.6,0.7-6.5,0.3-7.3-0.5
					c-0.8-0.7-1.8-6.4-0.5-7.6C47.8,39.6,54.9,38.6,56.1,39.1z M52.5,46.3c1.3-0.5,1.2-2.2,1-2.9c-0.2-0.7-3.2-0.7-4.3,0.7
					C48.3,45.3,51.2,46.8,52.5,46.3z"/>
				<linearGradient id="SVGID_28_" gradientUnits="userSpaceOnUse" x1="63.5599" y1="48.8763" x2="52.1712" y2="44.5256">
					<stop  offset="0" style="stop-color:#702A2A"/>
					<stop  offset="1" style="stop-color:#000000"/>
				</linearGradient>
				<path class="st37" d="M57.7,40.7c-1.1,4-3.3,7.2-6.1,9.6c0.7,0,1.3-0.2,1.7-0.3c1.6-0.7,6-4.2,6.1-5.6
					C59.3,43.4,58.5,41.9,57.7,40.7z"/>
				<linearGradient id="SVGID_29_" gradientUnits="userSpaceOnUse" x1="66.5543" y1="47.9354" x2="40.291" y2="41.3919">
					<stop  offset="0" style="stop-color:#899DA3"/>
					<stop  offset="1" style="stop-color:#FFFFFF"/>
				</linearGradient>
				<path class="st38" d="M56.1,39.1c-1.2-0.5-8.3,0.5-10.7,2.7c-1.2,1.1-0.6,5.5,0.2,7.1c0.3-1.2,0.7-2.4,1-3.7
					c1.4-2,4.3-4.1,7.2-4.8c1.2-0.2,2.4-0.2,3.7-0.2C56.9,39.7,56.5,39.3,56.1,39.1z"/>
				<path class="st15" d="M58.3,9.4c0,0-4,0.3-5.5,1c-1.5,0.7-3.5,3-3.5,3c-0.8,0-1.4,0.1-1.4,0.1s2.4-3.2,4.2-4
					c1.9-0.8,7.2-1.1,7.2-1.1S58.9,8.8,58.3,9.4z"/>
				<path class="st7" d="M58.3,9.4c-0.9,0.9-2.2,2.2-3.2,2.8c-1.1,0.7-4.1,1-5.8,1.1c0,0,1.9-2.3,3.5-3C54.3,9.7,58.3,9.4,58.3,9.4z
					"/>
				<linearGradient id="SVGID_30_" gradientUnits="userSpaceOnUse" x1="52.5828" y1="9.6285" x2="54.2552" y2="12.0877">
					<stop  offset="0" style="stop-color:#FFFFFF"/>
					<stop  offset="1" style="stop-color:#000000"/>
				</linearGradient>
				<path class="st39" d="M52.8,10.4c-1.5,0.7-3.5,3-3.5,3c0.4,0,0.8-0.1,1.3-0.1c1.9-2,4.3-2.7,6.8-2.9c0.3-0.3,0.7-0.6,0.9-0.9
					C58.3,9.4,54.3,9.7,52.8,10.4z"/>
				<linearGradient id="SVGID_31_" gradientUnits="userSpaceOnUse" x1="57.1832" y1="14.9271" x2="53.2938" y2="11.2064">
					<stop  offset="0" style="stop-color:#899DA3"/>
					<stop  offset="1" style="stop-color:#FFFFFF"/>
				</linearGradient>
				<path class="st40" d="M50.5,13.3c1.7-0.1,3.7-0.4,4.6-1c0.7-0.4,1.5-1.2,2.2-1.9C54.8,10.6,52.4,11.3,50.5,13.3z"/>
				<path class="st7" d="M75.9,59.4l1.1,3c0,0-1,1-1.6,1.3c-0.7,0.3-2.9-0.6-2.9-0.6l-1-2c0.7,0,1.3-0.1,1.8-0.3
					C74,60.6,75,60,75.9,59.4z"/>
				<linearGradient id="SVGID_32_" gradientUnits="userSpaceOnUse" x1="69.5755" y1="61.5832" x2="74.1345" y2="62.5127">
					<stop  offset="0" style="stop-color:#FFFFFF"/>
					<stop  offset="1" style="stop-color:#000000"/>
				</linearGradient>
				<path class="st41" d="M72.3,61c-0.3,0-0.6,0.1-0.9,0.1l1,2c0,0,0.5,0.2,1.1,0.4C73.1,62.7,72.7,61.8,72.3,61z"/>
				<linearGradient id="SVGID_33_" gradientUnits="userSpaceOnUse" x1="77.8214" y1="62.2247" x2="73.1297" y2="59.7692">
					<stop  offset="0" style="stop-color:#2A4B70"/>
					<stop  offset="1" style="stop-color:#000000"/>
				</linearGradient>
				<path class="st42" d="M77,62.4l-1.1-3c-0.3,0.2-0.6,0.4-0.9,0.6c0.4,1,0.9,2.1,1.3,3.1C76.6,62.8,77,62.4,77,62.4z"/>
				<path class="st7" d="M74.9,60c-0.6,0.4-1.2,0.7-1.7,0.8c-0.3,0.1-0.6,0.1-0.9,0.2c0.4,0.8,0.8,1.6,1.2,2.5
					c0.7,0.2,1.5,0.4,1.9,0.2c0.3-0.1,0.6-0.3,0.9-0.6C75.8,62.1,75.4,61.1,74.9,60z"/>
				<linearGradient id="SVGID_34_" gradientUnits="userSpaceOnUse" x1="71.362" y1="60.6636" x2="76.4239" y2="60.6636">
					<stop  offset="0" style="stop-color:#899DA3"/>
					<stop  offset="1" style="stop-color:#FFFFFF"/>
				</linearGradient>
				<path class="st43" d="M73.2,60.9c-0.5,0.1-1.2,0.2-1.8,0.3l0.4,0.8c1.5-0.6,3.1-0.9,4.7-1l-0.6-1.5C75,60,74,60.6,73.2,60.9z"/>
				<path class="st29" d="M76.6,57.6C76.6,57.6,76.6,57.6,76.6,57.6l0.9,0.5c0,0-0.2,0.2-0.5,0.4c-0.3,0.2-0.7,0.5-1.1,0.8
					C75,60,74,60.6,73.2,60.9c-0.5,0.1-1.2,0.2-1.8,0.3c-1.5,0.1-3.1,0-3.1,0v-1.5c1.6,0.1,3.7,0.1,4.4-0.1c0.6-0.2,2-1.3,3.2-2.3
					L76.6,57.6z"/>
				<linearGradient id="SVGID_35_" gradientUnits="userSpaceOnUse" x1="68.2731" y1="58.8211" x2="77.5125" y2="58.8211">
					<stop  offset="0" style="stop-color:#899DA3"/>
					<stop  offset="1" style="stop-color:#FFFFFF"/>
				</linearGradient>
				<path class="st44" d="M75.9,59.4c0.4-0.3,0.8-0.6,1.1-0.8c0.3-0.3,0.5-0.4,0.5-0.4l-0.9-0.5c0,0,0,0,0,0l-0.7-0.4
					c-1.2,1-2.6,2.1-3.2,2.3c-0.7,0.2-2.8,0.2-4.4,0.1v0.7C71,60.8,73.5,60.2,75.9,59.4z"/>
				<path class="st29" d="M68.3,60.3v0.8c0,0,1.6,0.1,3.1,0c0.7,0,1.3-0.1,1.8-0.3c0.8-0.2,1.8-0.8,2.7-1.4c0,0,0,0,0,0
					C73.5,60.2,71,60.8,68.3,60.3z"/>
				<path class="st45" d="M63.1,54.4c2.4,0.2,7,0.4,8.4-0.1c1.2-0.4,3.5-2.4,5.1-3.8l1.1,4.2l0.2,0.8c0,0-1,0.9-2.1,1.8
					c-1.2,1-2.6,2.1-3.2,2.3c-0.7,0.2-2.8,0.2-4.4,0.1c-1.2,0-2.1-0.1-2.1-0.1l-1.9-3.1L63.1,54.4z"/>
				<linearGradient id="SVGID_36_" gradientUnits="userSpaceOnUse" x1="47.828" y1="51.994" x2="68.7933" y2="57.744">
					<stop  offset="0" style="stop-color:#FFFFFF"/>
					<stop  offset="1" style="stop-color:#000000"/>
				</linearGradient>
				<path class="st46" d="M63.1,54.4l1.2,2l1.9,3.1c0,0,0.9,0.1,2.1,0.1c0.1,0,0.2,0,0.3,0c-0.7-1.7-1.6-3.4-2.5-5
					C64.9,54.5,63.9,54.4,63.1,54.4z"/>
				<linearGradient id="SVGID_37_" gradientUnits="userSpaceOnUse" x1="72.5396" y1="60.234" x2="67.4987" y2="45.5801">
					<stop  offset="0" style="stop-color:#FFFFFF"/>
					<stop  offset="1" style="stop-color:#A80070"/>
				</linearGradient>
				<path class="st47" d="M63.1,54.4c2.4,0.2,7,0.4,8.4-0.1c1.2-0.4,3.5-2.4,5.1-3.8l1.1,4.2l0.2,0.8c0,0-1,0.9-2.1,1.8
					c-1.2,1-2.6,2.1-3.2,2.3c-0.7,0.2-2.8,0.2-4.4,0.1c-1.2,0-2.1-0.1-2.1-0.1l-1.9-3.1L63.1,54.4z"/>
				<linearGradient id="SVGID_38_" gradientUnits="userSpaceOnUse" x1="81.5199" y1="55.9294" x2="71.2442" y2="52.2088">
					<stop  offset="0" style="stop-color:#702A2A"/>
					<stop  offset="1" style="stop-color:#000000"/>
				</linearGradient>
				<path class="st48" d="M75.9,57.2c1.1-0.9,2.1-1.8,2.1-1.8l-0.2-0.8l-1.1-4.2c-0.9,0.8-1.9,1.7-2.9,2.4c0.7,1.5,1.3,3.1,1.8,4.6
					C75.7,57.4,75.8,57.3,75.9,57.2z"/>
				<linearGradient id="SVGID_39_" gradientUnits="userSpaceOnUse" x1="61.7441" y1="51.5922" x2="77.8321" y2="54.3629">
					<stop  offset="0" style="stop-color:#899DA3"/>
					<stop  offset="1" style="stop-color:#FFFFFF"/>
				</linearGradient>
				<path class="st49" d="M77.8,54.7l0-0.1l-1.1-4.2c-1.6,1.5-4,3.4-5.1,3.8c-1.4,0.5-6,0.3-8.4,0.1l0.8,1.3
					C68.5,56.5,73.2,56.1,77.8,54.7z"/>
				<path class="st22" d="M61.9,29.8c-1.9,0.7-7.8,0.3-10.5,0.1c-0.8-0.1-1.3-0.1-1.3-0.1c-1.4-0.7-0.8-1.9-0.8-1.9s10,1.1,12.3,0
					c2.3-1.1,6.7-7.2,6.7-7.2c1.5,0.1,1,1.5,1,1.5s-0.3,0.4-0.7,1C67.1,25,63.8,29.1,61.9,29.8z"/>
				<path class="st22" d="M62.6,10.5c-1.5,2.1-3.9,5-5.8,5.8c-2.2,1-7.1,1-9.6,1c-0.9,0-1.5,0-1.5,0c-1.3-0.3-1.6-1.9-1.6-1.9
					s9.6,0.1,11.9-0.9c2.3-1,7-7.6,7-7.6c1.3,0,1.1,1.4,1.1,1.4S63.5,9.3,62.6,10.5z"/>
				<path class="st15" d="M51.4,29.9c2.7,0.2,8.6,0.6,10.5-0.1c1.9-0.7,5.2-4.8,6.7-6.7c0.2,1,0.4,2,0.6,2.8
					c0.2,0.8,0.3,1.3,0.3,1.3s-4.4,4.9-6.5,5.9c-2.1,1-8.9,0.7-8.9,0.7l-1.2-1.8L51.4,29.9z"/>
				<linearGradient id="SVGID_40_" gradientUnits="userSpaceOnUse" x1="62.8477" y1="34.0456" x2="58.0758" y2="21.4213">
					<stop  offset="0" style="stop-color:#FFFFFF"/>
					<stop  offset="1" style="stop-color:#A80070"/>
				</linearGradient>
				<path class="st50" d="M51.4,29.9c2.7,0.2,8.6,0.6,10.5-0.1c1.9-0.7,5.2-4.8,6.7-6.7c0.2,1,0.4,2,0.6,2.8
					c0.2,0.8,0.3,1.3,0.3,1.3s-4.4,4.9-6.5,5.9c-2.1,1-8.9,0.7-8.9,0.7l-1.2-1.8L51.4,29.9z"/>
				<linearGradient id="SVGID_41_" gradientUnits="userSpaceOnUse" x1="34.7608" y1="27.3058" x2="58.2232" y2="32.6381">
					<stop  offset="0" style="stop-color:#FFFFFF"/>
					<stop  offset="1" style="stop-color:#000000"/>
				</linearGradient>
				<path class="st51" d="M51.4,29.9l1.4,2.1l1.2,1.8c0,0,2,0.1,4.2,0c-0.5-1.3-1.1-2.5-2-3.6C54.4,30.1,52.6,30,51.4,29.9z"/>
				<linearGradient id="SVGID_42_" gradientUnits="userSpaceOnUse" x1="51.4097" y1="27.491" x2="69.3812" y2="27.491">
					<stop  offset="0" style="stop-color:#899DA3"/>
					<stop  offset="1" style="stop-color:#FFFFFF"/>
				</linearGradient>
				<path class="st52" d="M69.1,25.9c-0.2-0.8-0.3-1.8-0.6-2.8c-1.5,1.9-4.8,6-6.7,6.7c-1.9,0.7-7.8,0.3-10.5,0.1l1,1.5
					c5.4,0.6,9.4,1.7,15.4-2.5c0.9-0.9,1.6-1.7,1.6-1.7S69.3,26.6,69.1,25.9z"/>
				<path class="st53" d="M59.3,8.4c0,0-5.3,0.3-7.2,1.1c-1.8,0.8-4.2,4-4.2,4s0.6,0,1.4-0.1c1.8-0.1,4.7-0.4,5.8-1.1
					c1-0.6,2.3-1.9,3.2-2.8C58.9,8.8,59.3,8.4,59.3,8.4z M51.4,7.7c3.1-1.2,11.5-0.8,11.5-0.8s-4.7,6.5-7,7.6
					c-2.3,1-11.9,0.9-11.9,0.9S48.3,8.9,51.4,7.7z"/>
				<linearGradient id="SVGID_43_" gradientUnits="userSpaceOnUse" x1="44.036" y1="11.1264" x2="62.9303" y2="11.1264">
					<stop  offset="0" style="stop-color:#C75136"/>
					<stop  offset="1" style="stop-color:#000000"/>
				</linearGradient>
				<path class="st54" d="M59.3,8.4c0,0-5.3,0.3-7.2,1.1c-1.8,0.8-4.2,4-4.2,4s0.6,0,1.4-0.1c1.8-0.1,4.7-0.4,5.8-1.1
					c1-0.6,2.3-1.9,3.2-2.8C58.9,8.8,59.3,8.4,59.3,8.4z M51.4,7.7c3.1-1.2,11.5-0.8,11.5-0.8s-4.7,6.5-7,7.6
					c-2.3,1-11.9,0.9-11.9,0.9S48.3,8.9,51.4,7.7z"/>
				<path class="st15" d="M47.2,17.3c2.5,0,7.4,0,9.6-1c1.9-0.8,4.3-3.8,5.8-5.8c0.5,3.6,2.2,8.3,2.8,10.1c0.2,0.5,0.3,0.7,0.3,0.7
					s-3.7,4.3-5.2,5.1c-1.5,0.8-7.6,0.5-7.6,0.5c-0.2-0.6-0.5-1.2-0.8-1.8C50.1,20.7,47.2,17.3,47.2,17.3L47.2,17.3z"/>
				<linearGradient id="SVGID_44_" gradientUnits="userSpaceOnUse" x1="60.9962" y1="26.0802" x2="52.6504" y2="9.3884">
					<stop  offset="0" style="stop-color:#FFFFFF"/>
					<stop  offset="1" style="stop-color:#A80070"/>
				</linearGradient>
				<path class="st55" d="M47.2,17.3c2.5,0,7.4,0,9.6-1c1.9-0.8,4.3-3.8,5.8-5.8c0.5,3.6,2.2,8.3,2.8,10.1c0.2,0.5,0.3,0.7,0.3,0.7
					s-3.7,4.3-5.2,5.1c-1.5,0.8-7.6,0.5-7.6,0.5c-0.2-0.6-0.5-1.2-0.8-1.8C50.1,20.7,47.2,17.3,47.2,17.3L47.2,17.3z"/>
				<linearGradient id="SVGID_45_" gradientUnits="userSpaceOnUse" x1="33.3248" y1="19.4055" x2="56.6472" y2="23.662">
					<stop  offset="0" style="stop-color:#FFFFFF"/>
					<stop  offset="1" style="stop-color:#000000"/>
				</linearGradient>
				<path class="st56" d="M48.2,18.6c1,1.4,2.6,3.7,3.8,6.4c0.3,0.6,0.5,1.2,0.8,1.8c0,0,1.6,0.1,3.4,0c-0.9-2.9-2.3-5.6-4.6-7.9
					C50.6,18.9,49.4,18.8,48.2,18.6z"/>
				<linearGradient id="SVGID_46_" gradientUnits="userSpaceOnUse" x1="70.7345" y1="22.8852" x2="55.4851" y2="15.8335">
					<stop  offset="0" style="stop-color:#702A2A"/>
					<stop  offset="1" style="stop-color:#000000"/>
				</linearGradient>
				<path class="st57" d="M65.7,21.2c0,0-0.1-0.3-0.3-0.7c-0.4-0.9-1-2.7-1.6-4.7c-1,0.5-2,1-3,1.4c1.2,2,2.2,4.1,2.8,6.3
					C64.8,22.3,65.7,21.2,65.7,21.2z"/>
				<linearGradient id="SVGID_47_" gradientUnits="userSpaceOnUse" x1="44.8173" y1="14.3308" x2="65.6494" y2="14.9567">
					<stop  offset="0" style="stop-color:#899DA3"/>
					<stop  offset="1" style="stop-color:#FFFFFF"/>
				</linearGradient>
				<path class="st58" d="M56.8,16.3c-2.2,1-7.1,1-9.6,1v0c0,0,0.4,0.5,1,1.3c5.3,0.9,10.8-0.3,15.6-2.8c-0.5-1.8-1-3.7-1.2-5.4
					C61.1,12.5,58.6,15.5,56.8,16.3z"/>
				<path class="st53" d="M61.6,27.9c-2.3,1.1-12.3,0-12.3,0s1.1-1.4,2.8-2.9h0c0.3,0.6,0.5,1.2,0.8,1.8c0,0,6.1,0.3,7.6-0.5
					c1.5-0.8,5.2-5.1,5.2-5.1s-0.1-0.3-0.3-0.7c1.7,0,2.8,0.1,2.8,0.1S63.9,26.8,61.6,27.9z"/>
				<linearGradient id="SVGID_48_" gradientUnits="userSpaceOnUse" x1="49.285" y1="24.4492" x2="68.2731" y2="24.4492">
					<stop  offset="0" style="stop-color:#C7367C"/>
					<stop  offset="1" style="stop-color:#000000"/>
				</linearGradient>
				<path class="st59" d="M61.6,27.9c-2.3,1.1-12.3,0-12.3,0s1.1-1.4,2.8-2.9h0c0.3,0.6,0.5,1.2,0.8,1.8c0,0,6.1,0.3,7.6-0.5
					c1.5-0.8,5.2-5.1,5.2-5.1s-0.1-0.3-0.3-0.7c1.7,0,2.8,0.1,2.8,0.1S63.9,26.8,61.6,27.9z"/>
				<path class="st53" d="M54.1,33.8c0,0,6.8,0.3,8.9-0.7c2.1-1,6.5-5.9,6.5-5.9s-0.1-0.5-0.3-1.3c1.8-0.1,4.1,0,4.1,0
					s-5.8,7.4-9.1,8.9c-3.4,1.4-13.9,0.3-13.9,0.3l2.7-3.1L54.1,33.8z"/>
				<linearGradient id="SVGID_49_" gradientUnits="userSpaceOnUse" x1="50.1294" y1="30.6417" x2="73.2001" y2="30.6417">
					<stop  offset="0" style="stop-color:#C7367C"/>
					<stop  offset="1" style="stop-color:#000000"/>
				</linearGradient>
				<path class="st60" d="M54.1,33.8c0,0,6.8,0.3,8.9-0.7c2.1-1,6.5-5.9,6.5-5.9s-0.1-0.5-0.3-1.3c1.8-0.1,4.1,0,4.1,0
					s-5.8,7.4-9.1,8.9c-3.4,1.4-13.9,0.3-13.9,0.3l2.7-3.1L54.1,33.8z"/>
				<path class="st15" d="M50.1,35.1c0,0,10.6,1.1,13.9-0.3c3.4-1.4,9.1-8.9,9.1-8.9l5.3,22.9c0,0-0.8,0.7-1.9,1.7
					c-1.6,1.5-4,3.4-5.1,3.8c-1.4,0.5-6,0.3-8.4,0.1c-0.9-0.1-1.4-0.1-1.4-0.1l-3.2-5.3c1.5-1.2,2.8-2.4,3.2-3.1
					c1-1.7-3.2-8.2-4-8.8c-0.4-0.3-3.1-0.4-6.2,0.3L50.1,35.1z"/>
				<linearGradient id="SVGID_50_" gradientUnits="userSpaceOnUse" x1="70.5816" y1="55.3395" x2="59.2832" y2="23.8229">
					<stop  offset="0" style="stop-color:#FFFFFF"/>
					<stop  offset="1" style="stop-color:#A80070"/>
				</linearGradient>
				<path class="st61" d="M50.1,35.1c0,0,10.6,1.1,13.9-0.3c3.4-1.4,9.1-8.9,9.1-8.9l5.3,22.9c0,0-0.8,0.7-1.9,1.7
					c-1.6,1.5-4,3.4-5.1,3.8c-1.4,0.5-6,0.3-8.4,0.1c-0.9-0.1-1.4-0.1-1.4-0.1l-3.2-5.3c1.5-1.2,2.8-2.4,3.2-3.1
					c1-1.7-3.2-8.2-4-8.8c-0.4-0.3-3.1-0.4-6.2,0.3L50.1,35.1z"/>
				<linearGradient id="SVGID_51_" gradientUnits="userSpaceOnUse" x1="67.0009" y1="48.0181" x2="36.9296" y2="35.2804">
					<stop  offset="0" style="stop-color:#CCABC5"/>
					<stop  offset="1" style="stop-color:#FFFFFF"/>
				</linearGradient>
				<path class="st62" d="M65.2,44.6c0.6-2.9-3.5-4.3-6.5-6.4c1.5,2.1,3.8,6.3,3,7.6c-0.4,0.7-1.8,1.9-3.2,3.1l1.4,2.3
					C62.2,49.4,64.1,47.3,65.2,44.6z"/>
				<linearGradient id="SVGID_52_" gradientUnits="userSpaceOnUse" x1="40.1744" y1="40.4872" x2="72.1837" y2="54.4968">
					<stop  offset="0" style="stop-color:#C7367C"/>
					<stop  offset="1" style="stop-color:#000000"/>
				</linearGradient>
				<path class="st63" d="M59.9,51.3l1.8,3c0,0,0.6,0.1,1.4,0.1c1.1,0.1,2.8,0.2,4.3,0.2c-1.1-2.6-2.1-5.3-3.3-8
					C63.1,48.4,61.6,49.9,59.9,51.3z"/>
				<linearGradient id="SVGID_53_" gradientUnits="userSpaceOnUse" x1="84.3885" y1="43.4679" x2="58.2644" y2="32.5464">
					<stop  offset="0" style="stop-color:#702A2A"/>
					<stop  offset="1" style="stop-color:#000000"/>
				</linearGradient>
				<path class="st64" d="M78.5,48.7l-5.3-22.9c0,0-1.8,2.3-4,4.6c2.3,7.1,4,14.4,5.3,21.8c0.7-0.6,1.5-1.2,2.1-1.8
					C77.7,49.5,78.5,48.7,78.5,48.7z"/>
				<linearGradient id="SVGID_54_" gradientUnits="userSpaceOnUse" x1="41.6214" y1="31.9835" x2="68.59" y2="40.7499">
					<stop  offset="0" style="stop-color:#C7367C"/>
					<stop  offset="1" style="stop-color:#000000"/>
				</linearGradient>
				<path class="st65" d="M50.1,35.1l1.3,2.2c3.1-0.6,5.8-0.5,6.2-0.3c0.2,0.1,0.5,0.6,1,1.2c0.8,0.5,1.6,1,2.4,1.5
					c-0.7-1.4-1.5-2.8-2.3-4.2C54.7,35.5,50.1,35.1,50.1,35.1z"/>
				<path class="st45" d="M43.8,51.1c0.8,0.8,9.4,1.4,10.1,1.2c0.4-0.1,2.6-1.7,4.6-3.4l3.2,5.3c0,0,0.6,0.1,1.4,0.1l1.2,2
					c-0.2,0-3,0.2-3.9,0c0,0-2-3.6-2.3-4c-0.3-0.4-8.4,3.5-9.3,4.8c-0.9,1.3-4.1,14.2-4.1,15.8c0,1.6,6.6,9.8,6.6,9.8l5.5-4.5
					c-0.5,1.1-0.9,2.2-1.1,3.2c0,0,0,0.1,0.1,0.1l0,0c0.3,0.4,1.5,2.4,2.2,2.3c0.5,0,3.1-0.4,7.4-1.1c0.7,2.4,1.4,4.8,2.1,7
					c1,3.4,1.7,6,1.7,6l-9.1,0.8c0.5-2.5,1.6-7.8,1.7-8.8c0.2-1.4-8.7-1.7-9.8-1.2c-0.8,0.3-4.6,6-6.7,9.2c-0.8-1.1-1.6-2.2-2.3-3.2
					c-6.4-8.8-10-14.3-10-16.5c0-2.4,4.9-18.2,5.3-18.9C38.7,56.4,43.8,51.1,43.8,51.1z"/>
				<linearGradient id="SVGID_55_" gradientUnits="userSpaceOnUse" x1="54.3121" y1="84.341" x2="74.357" y2="96.8691">
					<stop  offset="0" style="stop-color:#CCABC5"/>
					<stop  offset="1" style="stop-color:#FFFFFF"/>
				</linearGradient>
				<path class="st66" d="M63.1,87.1c1.2,0.1,2.5,0.2,3.7,0.3c-0.4-1.5-0.9-3.1-1.4-4.6c-4.4,0.7-7,1.1-7.4,1.1
					c-0.7,0.1-1.9-1.9-2.2-2.3l0,0c0,0-0.1,0-0.1-0.1c0.3-1,0.7-2.1,1.1-3.2l-3.3,2.7c-0.4,2.2,0.6,3.8,2.3,4.8c0,0,0,0,0,0
					c-0.8,0.2-1.6,0.4-2.4,0.7c2.9-0.1,8.4,0.3,8.3,1.4c-0.2,1-1.2,6.3-1.7,8.8l5.3-0.5c-0.3-3.3-1.1-6.5-2.4-9.3
					C63.1,86.9,63.1,87,63.1,87.1z"/>
				<path class="st45" d="M65.4,96.1l3.8-0.3c0,0-0.7-2.6-1.7-6c-0.2-0.7-0.4-1.5-0.7-2.4c-1.2-0.1-2.5-0.2-3.7-0.3
					C64.4,89.8,65.1,92.8,65.4,96.1z"/>
				<linearGradient id="SVGID_56_" gradientUnits="userSpaceOnUse" x1="54.8325" y1="70.234" x2="37.1649" y2="69.4309">
					<stop  offset="0" style="stop-color:#702A2A"/>
					<stop  offset="1" style="stop-color:#000000"/>
				</linearGradient>
				<path class="st67" d="M42.8,74.9c0,0,5.1,7,8.8,11.9c0.2-0.2,0.3-0.3,0.4-0.3c0.2-0.1,0.8-0.2,1.5-0.2c0.7-0.2,1.5-0.5,2.4-0.7
					c-1.7-1-2.7-2.5-2.3-4.8l-2.2,1.8c0,0-6.6-8.2-6.6-9.8c0-1.6,3.2-14.5,4.1-15.8c0.5-0.8,3.7-2.5,6.2-3.6
					c-3.2,0.2-7.9,3.5-7.9,3.5L42.8,74.9z"/>
				<linearGradient id="SVGID_57_" gradientUnits="userSpaceOnUse" x1="50.0966" y1="50.6667" x2="62.9227" y2="56.5454">
					<stop  offset="0" style="stop-color:#CCABC5"/>
					<stop  offset="1" style="stop-color:#FFFFFF"/>
				</linearGradient>
				<path class="st68" d="M52.8,54.6c2.5-1.3,5.2-2.5,5.4-2.3c0.3,0.4,2.3,4,2.3,4c0.9,0.2,3.7,0,3.9,0l-1.2-2
					c-0.9-0.1-1.4-0.1-1.4-0.1l-3.2-5.3c-2,1.7-4.3,3.3-4.6,3.4c-0.6,0.2-9.2-0.3-10.1-1.2c0,0-0.6,0.6-1.4,1.5
					C45.6,54,49.2,54.8,52.8,54.6z"/>
				<linearGradient id="SVGID_58_" gradientUnits="userSpaceOnUse" x1="34.5432" y1="46.9016" x2="47.3391" y2="98.6872">
					<stop  offset="0" style="stop-color:#C7367C"/>
					<stop  offset="1" style="stop-color:#000000"/>
				</linearGradient>
				<path class="st69" d="M35.5,74.2c2.2-8.3,4.8-16.7,4.8-16.7s4.5-3.8,4.7-4c-0.9-0.3-1.8-0.6-2.7-0.9c-1.5,1.6-3.8,4-4,4.5
					c-0.3,0.5-2.9,8.7-4.3,14.2l0,0c0,0,0,0,0,0c-0.2,0.8-0.4,1.6-0.6,2.2c0,0,0,0.1,0,0.1c0,0.2-0.1,0.3-0.1,0.5c0,0.1,0,0.1,0,0.2
					c0,0.1-0.1,0.3-0.1,0.4c0,0.1,0,0.1,0,0.2c0,0.1,0,0.2-0.1,0.3c0,0.1,0,0.1,0,0.1c0,0.1,0,0.2,0,0.3c0,0,0,0.1,0,0.1
					c0,0.1,0,0.2,0,0.3c0,0.2,0,0.4,0.1,0.6c0,0,0,0.1,0,0.2c0,0.2,0.1,0.4,0.2,0.6c0,0,0,0.1,0,0.1c1,2.7,4.4,7.8,9.7,15.1
					c0.7,1,1.5,2.1,2.3,3.2c0.6-0.9,1.4-2.1,2.1-3.2C43,86.8,38.9,80.7,35.5,74.2z"/>
			</g>
			
				<radialGradient id="SVGID_59_" cx="15.2074" cy="-120.8914" r="13.1747" gradientTransform="matrix(-9.030000e-02 -1.0003 0.5222 -4.720000e-02 110.7124 110.786)" gradientUnits="userSpaceOnUse">
				<stop  offset="0" style="stop-color:#A18B7A"/>
				<stop  offset="0.4066" style="stop-color:#D8CFC8"/>
				<stop  offset="0.7198" style="stop-color:#F3F0EE"/>
				<stop  offset="1" style="stop-color:#FFFFFF"/>
			</radialGradient>
			<path class="st70" d="M45,88.1c3.8-0.3,7.4,5.3,8.1,12.6c0.7,7.3-1.9,13.5-5.7,13.8c-3.8,0.3-7.4-5.3-8.1-12.6
				C38.7,94.6,41.2,88.4,45,88.1z"/>
			
				<radialGradient id="SVGID_60_" cx="14.534" cy="-124.8134" r="13.1751" gradientTransform="matrix(-0.3299 -0.9486 0.4952 -0.1723 111.6219 87.0402)" gradientUnits="userSpaceOnUse">
				<stop  offset="0" style="stop-color:#A18B7A"/>
				<stop  offset="0.4066" style="stop-color:#D8CFC8"/>
				<stop  offset="0.7198" style="stop-color:#F3F0EE"/>
				<stop  offset="1" style="stop-color:#FFFFFF"/>
			</radialGradient>
			<path class="st71" d="M40.7,82.3c3.6-1.3,8.5,3.3,10.9,10.2c2.4,6.9,1.4,13.5-2.2,14.8c-3.6,1.3-8.5-3.3-10.9-10.2
				C36.1,90.1,37.1,83.5,40.7,82.3z"/>
			
				<radialGradient id="SVGID_61_" cx="15.4079" cy="-135.6894" r="13.1754" gradientTransform="matrix(-0.707 -0.9509 0.4207 -0.3129 107.4526 58.3747)" gradientUnits="userSpaceOnUse">
				<stop  offset="0" style="stop-color:#A18B7A"/>
				<stop  offset="0.4066" style="stop-color:#D8CFC8"/>
				<stop  offset="0.7198" style="stop-color:#F3F0EE"/>
				<stop  offset="1" style="stop-color:#FFFFFF"/>
			</radialGradient>
			<path class="st72" d="M30.2,73.7c3.1-2.3,9.7,1.5,14.9,8.4c5.1,6.9,6.8,14.4,3.8,16.6c-3.1,2.3-9.7-1.5-14.9-8.4
				C28.8,83.4,27.1,75.9,30.2,73.7z"/>
			<g>
				<path class="st73" d="M123,78.3c0,0,0.3,0.4,0.3,0.6c0,0.2-0.3,0.5-0.3,0.5l-3.6,0c0.2-0.4,0.3-0.8,0.4-1.1L123,78.3z"/>
				<path class="st73" d="M115.3,82.1l1,1.8l2.2,4c-0.3,0.2-0.6,0.4-0.9,0.7l-2.2-4l-1.1-1.9c0,0,0.1-0.6,0.3-0.6
					C114.7,81.9,115.3,82.1,115.3,82.1z"/>
				<path class="st73" d="M108.8,82.5l-2.4,2c-0.2-0.2-0.3-0.4-0.5-0.5c-0.1-0.1-0.2-0.1-0.4-0.2l2.6-2.1l1.5-1.2
					c0,0,0.5,0.1,0.6,0.2c0.1,0.1,0.1,0.7,0.1,0.7L108.8,82.5z"/>
				<path class="st73" d="M112.7,69.1c0.4,0,0.7,0,1-0.2c0,0,0.1,0,0.1-0.1l0.5,4.6c-0.4,0-0.8-0.1-1.1-0.1l0,0L112.7,69.1
					L112.7,69.1z"/>
				
					<linearGradient id="SVGID_62_" gradientUnits="userSpaceOnUse" x1="120.2838" y1="79.8538" x2="122.6229" y2="79.8538" gradientTransform="matrix(0.9937 -0.1118 0.1118 0.9937 -7.4975 13.0443)">
					<stop  offset="0" style="stop-color:#FFFFFF"/>
					<stop  offset="1" style="stop-color:#A39F7A"/>
				</linearGradient>
				<path class="st74" d="M123,78.3l-2.1,0c0.1,0.4,0.1,0.8,0.1,1.1l2,0c0,0,0.3-0.4,0.3-0.5C123.3,78.7,123,78.3,123,78.3z"/>
				
					<linearGradient id="SVGID_63_" gradientUnits="userSpaceOnUse" x1="115.8452" y1="87.5224" x2="116.3653" y2="88.7706" gradientTransform="matrix(0.9937 -0.1118 0.1118 0.9937 -7.4975 13.0443)">
					<stop  offset="0" style="stop-color:#FFFFFF"/>
					<stop  offset="1" style="stop-color:#A39F7A"/>
				</linearGradient>
				<path class="st75" d="M117.6,88.6c0.3-0.2,0.6-0.5,0.9-0.7l-0.6-1.1c-0.3,0.2-0.7,0.4-1,0.5L117.6,88.6z"/>
				
					<linearGradient id="SVGID_64_" gradientUnits="userSpaceOnUse" x1="106.5768" y1="82.0718" x2="104.6336" y2="83.4097" gradientTransform="matrix(0.9937 -0.1118 0.1118 0.9937 -7.4975 13.0443)">
					<stop  offset="0" style="stop-color:#FFFFFF"/>
					<stop  offset="1" style="stop-color:#A39F7A"/>
				</linearGradient>
				<path class="st76" d="M105.4,83.8c0.2,0.1,0.3,0.1,0.4,0.2c0.1,0.1,0.3,0.3,0.5,0.5l1.6-1.3c-0.4-0.2-0.8-0.3-1.2-0.5
					L105.4,83.8z"/>
				
					<linearGradient id="SVGID_65_" gradientUnits="userSpaceOnUse" x1="113.7388" y1="70.4785" x2="113.8399" y2="68.9365" gradientTransform="matrix(0.9937 -0.1118 0.1118 0.9937 -7.4975 13.0443)">
					<stop  offset="0" style="stop-color:#FFFFFF"/>
					<stop  offset="1" style="stop-color:#A39F7A"/>
				</linearGradient>
				<path class="st77" d="M113.7,68.9c-0.2,0.1-0.6,0.2-1,0.2l0,0l0.2,1.3c0.4-0.2,0.7-0.3,1.1-0.4l-0.1-1.1
					C113.8,68.8,113.8,68.9,113.7,68.9z"/>
				<path class="st78" d="M119.9,76c0.2,0.6,0.1,1.4-0.1,2.2c-0.1,0.4-0.3,0.7-0.4,1.1l0,0c-0.4,0.9-1,1.8-1.5,2.6
					c-0.5,0.7-1,1.4-1.5,1.8l-1-1.8c0,0-0.6-0.2-0.7-0.1c-0.1,0.1-0.3,0.6-0.3,0.6l1.1,1.9c-1.2,0.4-4.9-0.8-6.6-2l1.4-1.2
					c0,0,0-0.5-0.1-0.7c-0.1-0.1-0.6-0.2-0.6-0.2l-1.5,1.2c0-0.1-0.1-0.1-0.1-0.2c-0.9-2.7,1.2-6.7,2.8-7.8c0.5-0.3,1.4-0.5,2.6-0.4
					c0.4,0,0.7,0,1.1,0.1c1.7,0.2,3.5,0.8,4.6,1.6C119.4,75.3,119.7,75.7,119.9,76z"/>
				<path class="st79" d="M126.9,89.1c0.8,1.3-0.5,5.7-1.4,7.3c-1,1.6-7.8,1.9-8.5,1.7c-0.7-0.1-2.7-4.9-2.4-6.2
					c0.2-0.8,1.6-2.3,3-3.4c0.3-0.2,0.6-0.5,0.9-0.7c0.7-0.5,1.4-0.9,1.8-1C121.8,86.4,126,87.8,126.9,89.1z"/>
				<path class="st79" d="M126.6,73.8c0.7,0.3,2.7,2.2,2.5,3.7c-0.2,1.6-1.4,5.5-2.8,6c-1.4,0.5-5.9,0.8-6.4,0.7
					c-0.4-0.1-1.6-1-2.2-2.3c0.6-0.8,1.1-1.7,1.5-2.6l0,0l3.6,0c0,0,0.3-0.4,0.3-0.5c0-0.2-0.3-0.6-0.3-0.6l-3.2,0
					c0.3-0.9,0.4-1.7,0.1-2.2c-0.1-0.4-0.5-0.7-0.9-1C119.5,73.1,126,73.5,126.6,73.8z"/>
				<path class="st79" d="M106.3,84.5c0.7,1,1.5,3.1,1.3,4.2c-0.2,1.4-3,4.9-4.8,5.3c-1.7,0.3-6.6-2.4-6.9-4.2
					c-0.3-1.8,2.8-6.6,3.9-6.9c1.4-0.3,4.3,0.4,5.6,0.9c0.2,0.1,0.3,0.1,0.4,0.2C106,84.1,106.1,84.2,106.3,84.5z"/>
				<path class="st79" d="M113.7,68.9c-0.2,0.1-0.6,0.2-1,0.2c-1.6,0-4.2-1-5.2-2.3c-1.2-1.6,1.4-7.4,1.8-8c0.5-0.7,4.4-2.8,6.4-1.8
					c1.6,0.8,4.4,5.1,3.8,7.1c-0.6,1.9-4.5,4.1-5.8,4.8C113.8,68.8,113.8,68.9,113.7,68.9z"/>
				
					<linearGradient id="SVGID_66_" gradientUnits="userSpaceOnUse" x1="107.6607" y1="73.8904" x2="114.9187" y2="80.9111" gradientTransform="matrix(0.9937 -0.1118 0.1118 0.9937 -7.498 13.0444)">
					<stop  offset="0" style="stop-color:#FFFFFF"/>
					<stop  offset="1" style="stop-color:#000000"/>
				</linearGradient>
				<path class="st80" d="M112,82c1.7-1.4,3.2-4,4.2-6c0.2-0.8,0.2-1.6-0.1-2.2c-0.6-0.1-1.2-0.3-1.8-0.3c-0.4,0-0.8-0.1-1.1-0.1
					c-1.1,0-2.1,0.1-2.6,0.4c-1.6,1.1-3.7,5.1-2.8,7.8c0,0.1,0,0.1,0.1,0.2l1.5-1.2c0,0,0.5,0.1,0.6,0.2c0.1,0.1,0.1,0.7,0.1,0.7
					l-1.3,1.1C109.9,82.5,111.1,82.3,112,82z"/>
				
					<linearGradient id="SVGID_67_" gradientUnits="userSpaceOnUse" x1="118.1943" y1="82.5333" x2="113.8452" y2="79.2963" gradientTransform="matrix(0.9937 -0.1118 0.1118 0.9937 -7.498 13.0444)">
					<stop  offset="0" style="stop-color:#E66F00"/>
					<stop  offset="1" style="stop-color:#000000"/>
				</linearGradient>
				<path class="st81" d="M119.9,76c-0.1-0.4-0.5-0.7-0.9-1c-0.7-0.5-1.8-0.9-2.9-1.2c0.3,0.6,0.3,1.4,0.1,2.2c-1,1.9-2.5,4.6-4.2,6
					c-0.9,0.3-2.1,0.5-3.1,0.5l-0.1,0.1c1.7,1.2,5.5,2.5,6.6,2l-1.1-1.9c0,0,0.1-0.6,0.3-0.6c0.2-0.1,0.7,0.1,0.7,0.1l1,1.8
					c0.5-0.5,1-1.1,1.5-1.8c0.6-0.8,1.1-1.7,1.5-2.6l0,0c0.2-0.4,0.3-0.8,0.4-1.1C120,77.4,120.1,76.6,119.9,76z"/>
				
					<linearGradient id="SVGID_68_" gradientUnits="userSpaceOnUse" x1="113.2229" y1="89.6984" x2="119.7977" y2="94.6546" gradientTransform="matrix(0.9937 -0.1118 0.1118 0.9937 -7.498 13.0444)">
					<stop  offset="0" style="stop-color:#FFFFFF"/>
					<stop  offset="1" style="stop-color:#000000"/>
				</linearGradient>
				<path class="st82" d="M122,86.9c-0.7-0.1-1.3-0.1-1.6,0c-0.4,0.1-1.1,0.5-1.8,1c-0.3,0.2-0.6,0.4-0.9,0.7
					c-1.4,1.1-2.8,2.6-3,3.4c-0.2,0.8,0.6,3.3,1.4,4.8C119.3,95.7,123,91.3,122,86.9z"/>
				
					<linearGradient id="SVGID_69_" gradientUnits="userSpaceOnUse" x1="124.2903" y1="98.9358" x2="118.2218" y2="93.1708" gradientTransform="matrix(0.9937 -0.1118 0.1118 0.9937 -7.4975 13.0443)">
					<stop  offset="0" style="stop-color:#F0FF4F"/>
					<stop  offset="1" style="stop-color:#000000"/>
				</linearGradient>
				<path class="st83" d="M126.9,89.1c-0.6-0.9-3.1-1.9-4.9-2.2c1.1,4.4-2.7,8.8-6,9.9c0.4,0.7,0.7,1.3,1,1.3
					c0.7,0.1,7.5-0.1,8.5-1.7C126.4,94.8,127.7,90.4,126.9,89.1z"/>
				
					<linearGradient id="SVGID_70_" gradientUnits="userSpaceOnUse" x1="116.5368" y1="75.6614" x2="124.4269" y2="81.6293" gradientTransform="matrix(0.9937 -0.1118 0.1118 0.9937 -7.498 13.0444)">
					<stop  offset="0" style="stop-color:#FFFFFF"/>
					<stop  offset="1" style="stop-color:#000000"/>
				</linearGradient>
				<path class="st84" d="M123,81.9c1.7-1.4,2.1-3.3,3.1-5.2c0.2-0.9,0.1-2.1-0.3-3.1c-2-0.2-6.3-0.2-6.8,1.3c0.4,0.3,0.7,0.7,0.9,1
					c0.2,0.6,0.1,1.4-0.1,2.2l3.2,0c0,0,0.3,0.4,0.3,0.6c0,0.2-0.3,0.5-0.3,0.5l-3.6,0l0,0c-0.4,0.9-1,1.8-1.5,2.6
					c0.2,0.4,0.5,0.8,0.8,1.2C120,83.3,121.6,82.9,123,81.9z"/>
				
					<linearGradient id="SVGID_71_" gradientUnits="userSpaceOnUse" x1="127.0677" y1="84.0814" x2="123.5654" y2="81.046" gradientTransform="matrix(0.9937 -0.1118 0.1118 0.9937 -7.4975 13.0443)">
					<stop  offset="0" style="stop-color:#F0FF4F"/>
					<stop  offset="1" style="stop-color:#000000"/>
				</linearGradient>
				<path class="st85" d="M126.6,73.8c-0.1-0.1-0.4-0.1-0.9-0.2c0.4,1,0.5,2.2,0.3,3.1c-1,1.9-1.4,3.8-3.1,5.2
					c-1.4,0.9-3,1.3-4.4,1.2c0.6,0.6,1.2,1,1.4,1.1c0.4,0.1,4.9-0.2,6.4-0.7c1.4-0.5,2.6-4.5,2.8-6C129.3,76,127.3,74.1,126.6,73.8z
					"/>
				
					<linearGradient id="SVGID_72_" gradientUnits="userSpaceOnUse" x1="94.6495" y1="83.33" x2="101.325" y2="87.7801" gradientTransform="matrix(0.9937 -0.1118 0.1118 0.9937 -7.498 13.0444)">
					<stop  offset="0" style="stop-color:#FFFFFF"/>
					<stop  offset="1" style="stop-color:#000000"/>
				</linearGradient>
				<path class="st86" d="M103.2,83.2c-1.2-0.3-2.5-0.4-3.3-0.3c-1.1,0.2-4.2,5.1-3.9,6.9c0.2,0.9,1.6,2.1,3.1,3
					C101.5,90.5,103.7,86.7,103.2,83.2z"/>
				
					<linearGradient id="SVGID_73_" gradientUnits="userSpaceOnUse" x1="106.0755" y1="90.1904" x2="100.2079" y2="86.8519" gradientTransform="matrix(0.9937 -0.1118 0.1118 0.9937 -7.4975 13.0443)">
					<stop  offset="0" style="stop-color:#F0FF4F"/>
					<stop  offset="1" style="stop-color:#000000"/>
				</linearGradient>
				<path class="st87" d="M106.3,84.5c-0.2-0.2-0.3-0.4-0.5-0.5c-0.1-0.1-0.2-0.1-0.4-0.2c-0.5-0.2-1.3-0.4-2.2-0.6
					c0.6,3.6-1.6,7.3-4.1,9.6c1.4,0.8,3,1.4,3.8,1.2c1.7-0.3,4.6-3.8,4.8-5.3C107.8,87.6,107,85.5,106.3,84.5z"/>
				
					<linearGradient id="SVGID_74_" gradientUnits="userSpaceOnUse" x1="106.8551" y1="58.004" x2="115.8566" y2="64.3757" gradientTransform="matrix(0.9937 -0.1118 0.1118 0.9937 -7.498 13.0444)">
					<stop  offset="0" style="stop-color:#FFFFFF"/>
					<stop  offset="1" style="stop-color:#000000"/>
				</linearGradient>
				<path class="st88" d="M114.3,56.7c-2,0.1-4.5,1.5-4.9,2.1c-0.5,0.7-3.1,6.4-1.8,8c0.3,0.3,0.6,0.7,1.1,0.9
					C113.2,67.2,115.2,61.1,114.3,56.7z"/>
				
					<linearGradient id="SVGID_75_" gradientUnits="userSpaceOnUse" x1="122.4946" y1="66.6704" x2="114.4018" y2="62.9273" gradientTransform="matrix(0.9937 -0.1118 0.1118 0.9937 -7.4975 13.0443)">
					<stop  offset="0" style="stop-color:#F0FF4F"/>
					<stop  offset="1" style="stop-color:#000000"/>
				</linearGradient>
				<path class="st89" d="M115.8,56.9c-0.5-0.2-1-0.3-1.6-0.3c1,4.5-1,10.5-5.6,11c1.2,0.8,3,1.3,4.1,1.4c0.4,0,0.7,0,1-0.2
					c0,0,0.1,0,0.1-0.1c1.3-0.7,5.2-2.9,5.8-4.8C120.3,62,117.4,57.8,115.8,56.9z"/>
				
					<linearGradient id="SVGID_76_" gradientUnits="userSpaceOnUse" x1="108.5521" y1="-31.0626" x2="112.8787" y2="-29.0435" gradientTransform="matrix(0.8719 0.501 -0.6632 1.1542 -5.2477 55.6661)">
					<stop  offset="0" style="stop-color:#FFFFFF"/>
					<stop  offset="1" style="stop-color:#000000"/>
				</linearGradient>
				<path class="st90" d="M109.1,77.5c0.2,1.5,3.4,0.8,3.7,0.2c0.4-0.5,0.5-2.9-0.1-3.6c-0.5-0.7-2.6,0.5-2.9,1.1
					C109.6,75.8,109,76.7,109.1,77.5z"/>
				
					<linearGradient id="SVGID_77_" gradientUnits="userSpaceOnUse" x1="100.4351" y1="-41.4007" x2="104.0998" y2="-39.6905" gradientTransform="matrix(0.8719 0.501 -0.6632 1.1542 -5.2477 55.6661)">
					<stop  offset="0" style="stop-color:#FFFFFF"/>
					<stop  offset="1" style="stop-color:#000000"/>
				</linearGradient>
				<path class="st91" d="M109,61c0.1,1.3,2.9,0.7,3.2,0.2c0.3-0.4,0.4-2.5-0.1-3.1c-0.4-0.6-2.2,0.4-2.4,0.9
					C109.4,59.6,108.9,60.3,109,61z"/>
				
					<linearGradient id="SVGID_78_" gradientUnits="userSpaceOnUse" x1="103.4302" y1="-20.7141" x2="106.8952" y2="-19.0971" gradientTransform="matrix(0.8719 0.501 -0.6632 1.1542 -5.2477 55.6661)">
					<stop  offset="0" style="stop-color:#FFFFFF"/>
					<stop  offset="1" style="stop-color:#000000"/>
				</linearGradient>
				<path class="st92" d="M97.9,86.2c0.1,1.2,2.7,0.6,3,0.2c0.3-0.4,0.4-2.3-0.1-2.9c-0.4-0.6-2.1,0.4-2.3,0.9
					C98.3,84.9,97.9,85.6,97.9,86.2z"/>
				
					<linearGradient id="SVGID_79_" gradientUnits="userSpaceOnUse" x1="121.6682" y1="-23.2367" x2="125.1321" y2="-21.6202" gradientTransform="matrix(0.8719 0.501 -0.6632 1.1542 -5.2477 55.6661)">
					<stop  offset="0" style="stop-color:#FFFFFF"/>
					<stop  offset="1" style="stop-color:#000000"/>
				</linearGradient>
				<path class="st93" d="M115.5,92.5c0.1,1.2,2.7,0.6,3,0.2c0.3-0.4,0.4-2.3-0.1-2.9c-0.4-0.6-2.1,0.4-2.3,0.9
					C115.9,91.1,115.4,91.8,115.5,92.5z"/>
				
					<linearGradient id="SVGID_80_" gradientUnits="userSpaceOnUse" x1="96.0537" y1="-44.4539" x2="99.1561" y2="-43.0061" gradientTransform="matrix(0.3653 0.9368 -1.2402 0.4837 32.0965 4.9567)">
					<stop  offset="0" style="stop-color:#FFFFFF"/>
					<stop  offset="1" style="stop-color:#000000"/>
				</linearGradient>
				<path class="st94" d="M120.3,74.9c-0.6,0.9,1.5,1.9,2,1.8c0.4-0.1,1.6-1.4,1.6-2c0-0.6-1.7-0.9-2.1-0.7
					C121.4,74.2,120.6,74.4,120.3,74.9z"/>
				<g>
					<path class="st95" d="M106.1,83.6c0.5-0.5,1.1-1,1.6-1.4c0.6-0.4,1.1-0.9,1.8-1.3c-0.5,0.5-1.1,1-1.6,1.4
						C107.3,82.8,106.7,83.2,106.1,83.6z"/>
				</g>
				<g>
					<path class="st95" d="M113.6,73c-0.1-0.6-0.2-1.2-0.3-1.8c-0.1-0.6-0.1-1.2-0.1-1.8c0.1,0.6,0.2,1.2,0.3,1.8
						C113.6,71.8,113.6,72.4,113.6,73z"/>
				</g>
				<g>
					<path class="st95" d="M114.7,82.7c0.6,0.8,1.1,1.7,1.6,2.6c0.5,0.9,1,1.7,1.4,2.7c-0.6-0.8-1.1-1.7-1.6-2.6
						C115.7,84.4,115.2,83.6,114.7,82.7z"/>
				</g>
				<g>
					<path class="st95" d="M119.9,78.5c0.5-0.1,1-0.1,1.4-0.1c0.5,0,1,0,1.4,0.1c-0.5,0.1-1,0.1-1.4,0.1
						C120.8,78.6,120.4,78.6,119.9,78.5z"/>
				</g>
			</g>
		</g>
	</g>
	<g>
		<g>
			<path class="st95" d="M210.7,86.4h4.9c2.7,0,4,1.1,4,3.1c0,1.2-0.7,2.2-2.1,2.5v0c1.6,0.2,2.4,1.3,2.4,2.6c0,1.9-1.4,3.1-4.1,3.1
				h-5.1V86.4z M215.3,91.1c1.2,0,1.9-0.5,1.9-1.4s-0.6-1.4-1.9-1.4H213v2.9H215.3z M215.6,95.9c1.3,0,1.9-0.5,1.9-1.5
				c0-0.9-0.6-1.5-1.9-1.5H213v2.9H215.6z"/>
			<path class="st95" d="M221.5,86.7c0-0.8,0.5-1.3,1.4-1.3c1,0,1.4,0.4,1.4,1.3s-0.5,1.2-1.4,1.2C222,87.9,221.5,87.5,221.5,86.7z
				 M224.1,97.7h-2.3v-8.5h2.3V97.7z"/>
			<path class="st95" d="M234.7,93.4c0,2.8-1.8,4.4-4.4,4.4s-4.4-1.6-4.4-4.4c0-2.8,1.8-4.4,4.4-4.4S234.7,90.6,234.7,93.4z
				 M228.3,93.4c0,1.8,0.7,2.7,2,2.7c1.3,0,2-0.9,2-2.7c0-1.8-0.7-2.7-2-2.7C229,90.7,228.3,91.6,228.3,93.4z"/>
			<path class="st95" d="M238.8,95c0,0.8,0.3,1.1,0.9,1.1c0.4,0,0.6,0,1-0.2l-0.2,1.5c-0.4,0.2-1,0.4-1.6,0.4
				c-1.6,0-2.4-0.8-2.4-2.5v-9.9h2.3V95z"/>
			<path class="st95" d="M250,93.4c0,2.8-1.8,4.4-4.4,4.4c-2.6,0-4.4-1.6-4.4-4.4c0-2.8,1.8-4.4,4.4-4.4C248.2,89,250,90.6,250,93.4
				z M243.7,93.4c0,1.8,0.7,2.7,2,2.7c1.3,0,2-0.9,2-2.7c0-1.8-0.7-2.7-2-2.7C244.4,90.7,243.7,91.6,243.7,93.4z"/>
			<path class="st95" d="M259.7,98.3c0,2-1.8,3-4.5,3c-2.9,0-4.2-0.9-4.2-2.2c0-0.8,0.4-1.4,1.5-1.6c-0.7-0.3-1.1-0.8-1.1-1.6
				c0-0.8,0.5-1.4,1.3-1.7c-0.9-0.5-1.3-1.3-1.3-2.3c0-1.8,1.5-2.9,3.9-2.9c0.7,0,1.3,0.1,1.8,0.3c0.2-1.2,1-2.2,2.5-2.1l0.3,1.7
				c-1.1-0.1-1.7,0.3-1.8,0.9c0.7,0.5,1.1,1.2,1.1,2.1c0,1.8-1.5,2.9-3.9,2.9c-0.5,0-1-0.1-1.4-0.1c-0.5,0.2-0.7,0.4-0.7,0.7
				c0,0.5,0.4,0.7,1.1,0.7h2.6C258.7,96.1,259.7,96.9,259.7,98.3z M257.8,98.6c0-0.4-0.3-0.7-1.2-0.7h-2.9c-0.5,0-0.9,0.3-0.9,0.8
				c0,0.6,0.9,1,2.4,1C257,99.7,257.8,99.2,257.8,98.6z M253.7,91.9c0,0.9,0.7,1.4,1.6,1.4c0.9,0,1.5-0.5,1.5-1.4
				c0-0.9-0.6-1.4-1.5-1.4C254.4,90.4,253.7,91,253.7,91.9z"/>
			<path class="st95" d="M265.6,98.2c-0.8,2.3-1.8,3.1-3.6,3.1c-0.9,0-1.6-0.2-2.2-0.6l0.5-1.7c0.4,0.3,0.9,0.5,1.5,0.5
				c0.6,0,1.1-0.2,1.4-1l0.3-0.7l-0.9-2.2l-2.6-6.4h2.6l1.6,5.1l0.4,1.7l0.5-1.8l1.5-5h2.4L265.6,98.2z"/>
		</g>
	</g>
	<g class="st96">
		<path class="st95" d="M50.7,6.8c-1.2-0.4-2.6-0.4-3.5,0.6c-0.8,0.9-0.8,2.5-0.8,3.7c0,0.2,0.1,0.4,0.3,0.5
			c0.2,0.9,0.6,1.7,0.9,2.2c1.7,2.6,5.4,1,6.7-1.1C56.2,9.8,53.1,7.5,50.7,6.8z M53.8,11.4c-0.4,1.9-3,3.2-4.7,2.4
			c-0.9-0.4-1.3-1.8-1.6-2.7c-0.2-0.9-0.1-2.8,1-2.9c0.4,0,0.5-0.4,0.5-0.7c0.3,0,0.7,0,1.1,0.1C51.8,8,54.2,9.2,53.8,11.4z"/>
		<path class="st95" d="M39.2,23.2c-1.2-0.4-2.6-0.4-3.5,0.6c-0.8,0.9-0.8,2.5-0.8,3.7c0,0.2,0.1,0.4,0.3,0.5
			c0.2,0.9,0.6,1.7,0.9,2.2c1.7,2.6,5.4,1,6.7-1.1C44.8,26.2,41.7,23.9,39.2,23.2z M42.4,27.8c-0.4,1.9-3,3.2-4.7,2.4
			c-0.9-0.4-1.3-1.8-1.6-2.7c-0.2-0.9-0.1-2.8,1-2.9c0.4,0,0.5-0.4,0.5-0.7c0.3,0,0.7,0,1.1,0.1C40.4,24.4,42.8,25.6,42.4,27.8z"/>
		<path class="st95" d="M61.3,23.2c-1.2-0.4-2.6-0.4-3.5,0.6c-0.8,0.9-0.8,2.5-0.8,3.7c0,0.2,0.1,0.4,0.3,0.5
			c0.2,0.9,0.6,1.7,0.9,2.2c1.7,2.6,5.4,1,6.7-1.1C66.8,26.2,63.7,23.9,61.3,23.2z M64.4,27.8c-0.4,1.9-3,3.2-4.7,2.4
			c-0.9-0.4-1.3-1.8-1.6-2.7c-0.2-0.9-0.1-2.8,1-2.9c0.4,0,0.5-0.4,0.5-0.7c0.3,0,0.7,0,1.1,0.1C62.4,24.4,64.8,25.6,64.4,27.8z"/>
		<path class="st95" d="M54.9,41.3c-1.2-0.4-2.6-0.4-3.5,0.6c-0.8,0.9-0.8,2.5-0.8,3.7c0,0.2,0.1,0.4,0.3,0.5
			c0.2,0.9,0.6,1.7,0.9,2.2c1.7,2.6,5.4,1,6.7-1.1C60.4,44.3,57.4,42.1,54.9,41.3z M58.1,45.9c-0.4,1.9-3,3.2-4.7,2.4
			c-0.9-0.4-1.3-1.8-1.6-2.7c-0.2-0.9-0.1-2.8,1-2.9c0.4,0,0.5-0.4,0.5-0.7c0.3,0,0.7,0,1.1,0.1C56.1,42.5,58.5,43.7,58.1,45.9z"/>
		<path class="st95" d="M74.2,41.3c-1.2-0.4-2.6-0.4-3.5,0.6c-0.8,0.9-0.8,2.5-0.8,3.7c0,0.2,0.2,0.4,0.3,0.5
			c0.2,0.9,0.6,1.7,0.9,2.2c1.7,2.6,5.4,1,6.7-1.1C79.7,44.3,76.7,42.1,74.2,41.3z M77.3,45.9c-0.4,1.9-3,3.2-4.7,2.4
			c-0.9-0.4-1.3-1.8-1.6-2.7c-0.2-0.9-0.1-2.8,1-2.9c0.4,0,0.5-0.4,0.5-0.7c0.3,0,0.7,0,1.1,0.1C75.4,42.5,77.8,43.7,77.3,45.9z"/>
		<path class="st95" d="M45.3,59.2c-1.2-0.4-2.6-0.4-3.5,0.6c-0.8,0.9-0.8,2.5-0.8,3.7c0,0.2,0.2,0.4,0.3,0.5
			c0.2,0.9,0.6,1.7,0.9,2.2c1.7,2.6,5.4,1,6.7-1.1C50.8,62.1,47.7,59.9,45.3,59.2z M48.4,63.7c-0.4,1.9-3,3.2-4.7,2.4
			c-0.9-0.4-1.3-1.8-1.6-2.7c-0.2-0.9-0.1-2.8,1-2.9c0.4,0,0.5-0.4,0.5-0.7c0.3,0,0.7,0,1.1,0.1C46.4,60.4,48.8,61.6,48.4,63.7z"/>
		<path class="st95" d="M64.6,59.2c-1.2-0.4-2.6-0.4-3.5,0.6c-0.8,0.9-0.8,2.5-0.8,3.7c0,0.2,0.1,0.4,0.3,0.5
			c0.2,0.9,0.6,1.7,0.9,2.2c1.7,2.6,5.4,1,6.7-1.1C70.1,62.1,67,59.9,64.6,59.2z M67.7,63.7c-0.4,1.9-3,3.2-4.7,2.4
			c-0.9-0.4-1.3-1.8-1.6-2.7c-0.2-0.9-0.1-2.8,1-2.9c0.4,0,0.5-0.4,0.5-0.7c0.3,0,0.7,0,1.1,0.1C65.7,60.4,68.1,61.6,67.7,63.7z"/>
		<path class="st95" d="M55.9,76.7c-1.2-0.4-2.6-0.4-3.5,0.6c-0.8,0.9-0.8,2.5-0.8,3.7c0,0.2,0.1,0.4,0.3,0.5
			c0.2,0.9,0.6,1.7,0.9,2.2c1.7,2.6,5.4,1,6.7-1.1C61.4,79.6,58.3,77.4,55.9,76.7z M59,81.3c-0.4,1.9-3,3.2-4.7,2.4
			c-0.9-0.4-1.3-1.8-1.6-2.7c-0.2-0.9-0.1-2.8,1-2.9c0.4,0,0.5-0.4,0.5-0.7c0.3,0,0.7,0,1.1,0.1C57.1,77.9,59.4,79.1,59,81.3z"/>
		<path class="st95" d="M75.2,76.7c-1.2-0.4-2.6-0.4-3.5,0.6c-0.8,0.9-0.8,2.5-0.8,3.7c0,0.2,0.1,0.4,0.3,0.5
			c0.2,0.9,0.6,1.7,0.9,2.2c1.7,2.6,5.4,1,6.7-1.1C80.7,79.6,77.6,77.4,75.2,76.7z M78.3,81.3c-0.4,1.9-3,3.2-4.7,2.4
			c-0.9-0.4-1.3-1.8-1.6-2.7c-0.2-0.9-0.1-2.8,1-2.9c0.4,0,0.5-0.4,0.5-0.7c0.3,0,0.7,0,1.1,0.1C76.3,77.9,78.7,79.1,78.3,81.3z"/>
		<path class="st95" d="M23.5,41.3c-1.2-0.4-2.6-0.4-3.5,0.6c-0.8,0.9-0.8,2.5-0.8,3.7c0,0.2,0.1,0.4,0.3,0.5
			c0.2,0.9,0.6,1.7,0.9,2.2c1.7,2.6,5.4,1,6.7-1.1C29,44.3,26,42.1,23.5,41.3z M26.6,45.9c-0.4,1.9-3,3.2-4.7,2.4
			c-0.9-0.4-1.3-1.8-1.6-2.7c-0.2-0.9-0.1-2.8,1-2.9c0.4,0,0.5-0.4,0.5-0.7c0.3,0,0.7,0,1.1,0.1C24.7,42.5,27,43.7,26.6,45.9z"/>
		<path class="st95" d="M42.8,41.3c-1.2-0.4-2.6-0.4-3.5,0.6c-0.8,0.9-0.8,2.5-0.8,3.7c0,0.2,0.1,0.4,0.3,0.5
			c0.2,0.9,0.6,1.7,0.9,2.2c1.7,2.6,5.4,1,6.7-1.1C48.3,44.3,45.2,42.1,42.8,41.3z M45.9,45.9c-0.4,1.9-3,3.2-4.7,2.4
			c-0.9-0.4-1.3-1.8-1.6-2.7c-0.2-0.9-0.1-2.8,1-2.9c0.4,0,0.5-0.4,0.5-0.7c0.3,0,0.7,0,1.1,0.1C43.9,42.5,46.3,43.7,45.9,45.9z"/>
		<path class="st95" d="M47.3,14.7c-1.4,1.6-2.8,3.1-4.1,4.7c-0.6,0.7-1.2,1.3-1.7,2c-0.3,0.5-0.9,1.7-1.5,2
			c-0.6,0.3-0.1,1.1,0.5,0.9c0.5-0.2,0.6-0.6,0.9-1c0.7-0.9,1.4-1.8,2.1-2.7c1.5-1.7,3.1-3.4,4.6-5.1C48.4,14.9,47.7,14.2,47.3,14.7
			z"/>
		<path class="st95" d="M58.2,23.5c-0.8-1.7-1.6-3.5-2.7-5c-0.6-0.8-1.1-1.7-1.6-2.5c-0.3-0.5-1.2-1.4-1.2-1.9c0-0.6-1-0.6-1,0
			c0,1.3,1.5,2.7,2.1,3.7c1.3,2,2.5,4.1,3.5,6.3C57.6,24.6,58.4,24.1,58.2,23.5z"/>
		<path class="st95" d="M36.3,28.4c-3.9,4.5-8.3,8.9-11.4,13.9c-0.3,0.5,0.5,1,0.9,0.5c3.1-5,7.4-9.3,11.3-13.7
			C37.4,28.6,36.7,27.9,36.3,28.4z"/>
		<path class="st95" d="M41.1,30c-0.1-0.6-1.1-0.6-1,0c0.5,4.3,0.8,8.7,1.5,13c0.1,0.6,1,0.4,1-0.3C41.9,38.6,41.6,34.2,41.1,30z"/>
		<path class="st95" d="M59.2,30.7c-0.8,2-1.7,4-2.5,6c-0.2,0.6-1.8,4.7-1.3,4.7c-0.6,0-0.6,1,0,1h0.2c0.2,0,0.4-0.2,0.5-0.4
			c0.5-3.8,2.8-7.4,4.1-11C60.4,30.4,59.5,30.1,59.2,30.7z"/>
		<path class="st95" d="M71.9,40.4c-1.8-2-3.3-4.2-4.8-6.6c-0.9-1.5-2.4-3.2-3-4.8c-0.2-0.5-1-0.5-1,0.1v0.2c0,0.2,0.1,0.3,0.2,0.4
			c0.8,1.6,2,3.1,2.9,4.6c1.5,2.4,3,4.7,4.9,6.8C71.7,41.6,72.3,40.9,71.9,40.4z"/>
		<path class="st95" d="M52.6,49c-1.9,2.1-3.4,4.3-4.9,6.6c-0.7,1.1-1.1,2.3-1.6,3.4c-0.2,0.5-0.5,0.5-0.5,1c0,0.6,1,0.6,1,0
			c0,0,0.5-0.7,0.6-0.9c0.5-1,0.9-2,1.4-3c1.3-2.4,3-4.5,4.7-6.4C53.7,49.2,53,48.5,52.6,49z"/>
		<path class="st95" d="M62.6,59.1c-1.1-2-1.9-4.1-2.8-6.1c-0.7-1.8-1.8-3.4-2.6-5.1c-0.3-0.6-1.1-0.1-0.9,0.5c1,1.9,2,3.6,2.8,5.5
			c0.8,1.9,1.6,3.8,2.6,5.7C62.1,60.2,62.9,59.7,62.6,59.1z"/>
		<path class="st95" d="M61.9,66.5c-1.2,2.1-2,4.3-3.1,6.4c-0.7,1.5-1.9,2.8-2.6,4.3c-0.2,0.6,0.7,0.8,1,0.3c0.6-1.4,1.7-2.7,2.5-4
			c1.2-2.1,1.9-4.3,3.1-6.4C63.1,66.5,62.2,66,61.9,66.5z"/>
		<path class="st95" d="M74.7,76c-1.6-2-3.2-3.9-4.7-6c-1.1-1.5-1.9-3.3-3.2-4.7c-0.4-0.5-1.1,0.2-0.7,0.7c1.3,1.5,2.2,3.4,3.4,5
			c1.4,2,3,3.8,4.5,5.7C74.4,77.2,75.1,76.5,74.7,76z"/>
	</g>
</g>
</svg>
