<svg xmlns="http://www.w3.org/2000/svg" xmlns:xlink="http://www.w3.org/1999/xlink" viewBox="0 0 356.87 262.07"><defs><style>.cls-1{fill:#fff;}.cls-2{isolation:isolate;}.cls-3{clip-path:url(#clip-path);}.cls-4{opacity:0.03;mix-blend-mode:multiply;}.cls-5{fill:#383838;}.cls-6{fill:#ff069b;}.cls-7{fill:#00aac7;}.cls-8{fill:#fecd44;}.cls-9{fill:#8e61bc;}.cls-10{fill:#84e19a;}.cls-11{fill:#6f469e;}</style><clipPath id="clip-path"><rect class="cls-1" x="63.87" y="93.06" width="293" height="123" rx="11.19"/></clipPath></defs><title>Asset 11</title><g class="cls-2"><g id="Layer_2" data-name="Layer 2"><g id="Layer_1-2" data-name="Layer 1"><rect class="cls-1" x="63.87" y="93.06" width="293" height="123" rx="11.19"/><g class="cls-3"><rect class="cls-1" x="63.87" y="93.06" width="293" height="123" rx="11.19"/><g class="cls-4"><path class="cls-5" d="M68.53,53.36C50.1,57.52,28.18,70.82,17.1,86.12,7.37,99.55,1.13,114,.28,130.55c-1.37,26.56,1.82,55.58,20.06,74.94a103.77,103.77,0,0,0,47.45,28.35c13.12,3.45,53.24,6.87,72.13,0,14.06-5.11,27.76-11.66,38.06-22.51,6.06-6.39,11.74-13.23,15.92-21,7.14-13.27,9.55-28.8,8.11-43.8s-4.59-30.7-11.75-44a93.61,93.61,0,0,0-28-32.14C149.26,61.07,110.93,43.78,68.53,53.36Z"/></g><path class="cls-6" d="M118.9,151.16a7.27,7.27,0,0,1,6.89,5.65c1.51,5.71,10,27.84,12.31,26.25s4.81-3.47,6.82-14.87c0,0,2.32-6,6.23-3.89,0,0,1,0-.7,8.23s1.71,26.42-8.52,30.7c0,0-1.49-.27-2,1.64s-2.69,7.24-9.66,3.89a45,45,0,0,1-17.8-15.12s-16.09-5.32-16.7-11.38c0,0-.24-2.94,4.27-.43s16.06,11.69,12.43,2.79-15-11.42-14.3-15,2.34-6.13,10,2.47,8.23,10.92,10.7,8.78a83.61,83.61,0,0,1,6.75-5s.71-2.61-3.35-11.9S115.59,152.33,118.9,151.16Z"/><path class="cls-6" d="M103.13,157.3s2.56-4,7.28,2,13.5,18.11,10.29,18.5-6.57-5.69-9.79-9.6S101.06,161.42,103.13,157.3Z"/><path class="cls-7" d="M83.65,51.64S92,53.46,97.82,50.11s8.51-2.2,7.67-7.11S98.83,22.82,92.93,24.39s-5.48-1.69-8.13.52-4.69-.56-9.48,6.45c0,0-.55.34-2-1.29s-5.14-2.58-5.14-2.58a18.74,18.74,0,0,0-3.88-3.07c-1.93-1-2-5-6.08-3.84s3.21,6.07,4.6,6.85,2.59,3.14,4.32,3.67,1.41,3.55,6.1,4.12c0,0,2.75,4.55,5.44,5.9,0,0-1,4.38,0,5.63s-4.21-.69-8.74-.41-9,5.11-5.72,5.83,7.14-.92,11-.69S83.17,51.55,83.65,51.64Z"/><path class="cls-7" d="M71.22,18.67c.18.27,3.22,8.72,6.34,7.52s-1-6-4.08-9.33S68.34,6.43,65.19,8.7s-1.52,4.51,2,5.92S71.22,18.67,71.22,18.67Z"/><path class="cls-7" d="M82.57,10.67S79.63,2.5,77,4.5s-1,4.24,1.42,6.27,3.46,5.76,4.16,8.11,2.76,6.53,4,6.06,1.31-5.14-.53-8.08S82.57,10.67,82.57,10.67Z"/><path class="cls-7" d="M95.81,6.1S93.07,6.82,94.5,10s1.41,2.23.9,4.77.33,3,.33,3-1.75,2.35-.27,3,1.73-2.32,1.73-2.32,2.21-2.25,1.2-4.78c0,0,1.78-3.55.27-6S95.81,6.1,95.81,6.1Z"/><path class="cls-8" d="M148.11,212.64s3.68,7.56,10,10,7,5.24,10.42,1.57,12-17.62,7.11-21.23-2-5.29-5.43-6-2.44-4-11-3.38c0,0-.61-.21-.18-2.31s-1.1-5.58-1.1-5.58a18.47,18.47,0,0,0,.05-4.91c-.38-2.12,2.75-4.64-.68-7.08s-2.87,6.23-2.63,7.79-.91,4-.27,5.61-2,3.29.48,7.28c0,0-1.94,4.94-1.37,7.86,0,0-4.09,2-4.46,3.51s-2-3.68-5.06-7-9.63-3.82-8.18-.84,5.13,5,7.33,8.1S147.89,212.2,148.11,212.64Z"/><path class="cls-8" d="M166.78,182.66c-.11.3-5,7.87-2.1,9.55s4.12-4.46,4.94-8.92,5.16-10.42,1.4-11.47-4.54,1.61-3.52,5.18A6.3,6.3,0,0,1,166.78,182.66Z"/><path class="cls-8" d="M180.17,186.52s4.71-7.32,1.46-8.16-4,1.86-4.12,5-2.47,6.24-3.91,8.23-3.52,6.17-2.37,6.84,4.91-2.15,6.11-5.39S180.17,186.52,180.17,186.52Z"/><path class="cls-8" d="M192,194s-2.27-1.68-3.89,1.36-.91,2.47-3.25,3.64-2.21,2.12-2.21,2.12-3,.09-2.59,1.66,2.92-.09,2.92-.09,3.16.32,4.56-2c0,0,3.93-.81,5-3.5S192,194,192,194Z"/><path class="cls-9" d="M122.39,222.44s4.13-.9,6-3.62,3.37-2.76,1.94-4.8-7.3-7.71-9.63-5.78-2.83.38-3.55,1.92-2.23.72-2.9,4.87c0,0-.17.27-1.15-.17a6.4,6.4,0,0,0-2.87-.1,9.36,9.36,0,0,0-2.4-.58c-1.09-.05-2-1.83-3.56-.47s2.74,2.07,3.53,2.13,1.84.88,2.73.76,1.4,1.31,3.63.59a9.75,9.75,0,0,0,3.71,1.54s.5,2.17,1.22,2.52-2,.56-4,1.63-3,4.16-1.33,3.81,3-1.89,4.8-2.59S122.15,222.5,122.39,222.44Z"/><path class="cls-9" d="M109.75,210.17c.14.08,3.31,3.26,4.46,2.07s-1.73-2.47-3.83-3.36-4.54-3.63-5.47-2,.27,2.35,2.14,2.26A3.22,3.22,0,0,1,109.75,210.17Z"/><path class="cls-9" d="M113.16,204.21s-3.07-3.07-3.85-1.62.47,2.12,2,2.53,2.79,1.88,3.6,2.79,2.64,2.38,3.1,1.9-.5-2.58-2-3.52S113.16,204.21,113.16,204.21Z"/><path class="cls-9" d="M118.15,199.4s-1.08.9.23,2,1.11.71,1.42,2,.79,1.29.79,1.29-.28,1.43.53,1.43.28-1.41.28-1.41a2.4,2.4,0,0,0-.48-2.4s0-2-1.16-2.77S118.15,199.4,118.15,199.4Z"/><path class="cls-10" d="M82.06,175.82s8.32,1.81,14.18-1.54,8.53-2.21,7.69-7.12S97.26,147,91.35,148.53s-5.48-1.7-8.13.52-4.71-.56-9.51,6.45c0,0-.54.35-1.95-1.28s-5.14-2.59-5.14-2.59a18.82,18.82,0,0,0-3.9-3.07c-1.92-1-2-5-6.08-3.85s3.21,6.08,4.6,6.86,2.6,3.14,4.33,3.67,1.41,3.56,6.11,4.13c0,0,2.76,4.56,5.44,5.91,0,0-1,4.39,0,5.64s-4.21-.69-8.74-.42-9,5.12-5.73,5.84,7.14-.92,11-.69S81.58,175.72,82.06,175.82Z"/><path class="cls-10" d="M69.62,142.8c.17.27,3.22,8.73,6.35,7.53s-1-6-4.09-9.34-5.15-10.44-8.3-8.18-1.53,4.53,2,5.93A6.42,6.42,0,0,1,69.62,142.8Z"/><path class="cls-10" d="M81,134.79s-2.94-8.18-5.62-6.18-1,4.25,1.42,6.28S80.25,140.65,81,143s2.76,6.54,4,6.06,1.31-5.14-.54-8.08S81,134.79,81,134.79Z"/><path class="cls-10" d="M94.24,130.21s-2.75.73-1.31,3.86,1.4,2.23.89,4.77.34,3,.34,3-1.76,2.36-.27,3,1.72-2.32,1.72-2.32,2.22-2.26,1.21-4.79c0,0,1.78-3.55.27-6S94.24,130.21,94.24,130.21Z"/><path class="cls-7" d="M137.12,159.42s-1.32,3-3.72,4-2.64,2.12-4,.75-4.89-6.66-3-8.12.71-2.08,2-2.39.89-1.58,4.21-1.46c0,0,.23-.09,0-.9a4.7,4.7,0,0,1,.35-2.17,7.27,7.27,0,0,1-.09-1.9c.12-.83-1.13-1.76.16-2.75s1.2,2.37,1.13,3,.41,1.52.18,2.17.81,1.24-.08,2.82a7.31,7.31,0,0,1,.64,3s1.61.71,1.78,1.3.74-1.45,1.86-2.79,3.67-1.6,3.15-.43-1.92,2-2.72,3.23S137.2,159.25,137.12,159.42Z"/><path class="cls-7" d="M129.47,148.07c.05.11,2,3,.95,3.67s-1.66-1.68-2-3.39-2.14-4-.7-4.42,1.78.56,1.43,2A2.44,2.44,0,0,0,129.47,148.07Z"/><path class="cls-7" d="M124.34,149.74s-1.92-2.77-.68-3.13,1.57.66,1.67,1.86A6.57,6.57,0,0,0,127,151.6c.59.75,1.45,2.35,1,2.62s-1.93-.76-2.44-2S124.34,149.74,124.34,149.74Z"/><path class="cls-7" d="M119.87,152.79s.86-.68,1.53.47.38.94,1.31,1.36.88.8.88.8,1.15,0,1,.6-1.14,0-1.14,0a1.94,1.94,0,0,1-1.79-.72s-1.53-.26-2-1.29S119.87,152.79,119.87,152.79Z"/><path class="cls-7" d="M108.39,244.49s3.08,1.16,4.25,3.48,2.28,2.5.94,3.91-6.52,5.12-8.09,3.37-2.13-.6-2.51-1.87-1.64-.81-1.67-4.08c0,0-.1-.23-.91,0a5,5,0,0,1-2.22-.24,7.25,7.25,0,0,1-1.92.17c-.85-.07-1.73,1.2-2.8,0s2.35-1.29,3-1.25,1.52-.47,2.19-.28,1.22-.85,2.86,0a7.57,7.57,0,0,1,3-.76s.64-1.62,1.23-1.81-1.5-.66-2.91-1.71-1.8-3.54-.59-3.08,2.11,1.79,3.41,2.53S108.22,244.42,108.39,244.49Z"/><path class="cls-7" d="M97.24,252.54c.11,0,2.92-2.14,3.68-1.1s-1.62,1.71-3.34,2.16-3.92,2.29-4.45.9.48-1.78,1.91-1.5A2.55,2.55,0,0,0,97.24,252.54Z"/><path class="cls-7" d="M99.17,257.51s-2.71,2-3.15.82.61-1.58,1.82-1.73a6.66,6.66,0,0,0,3.1-1.75c.73-.61,2.31-1.53,2.61-1.11s-.69,1.93-1.92,2.49S99.17,257.51,99.17,257.51Z"/><path class="cls-7" d="M102.47,261.77s-.73-.81.41-1.52.93-.42,1.32-1.35.76-.91.76-.91-.06-1.12.57-1,0,1.11,0,1.11a1.89,1.89,0,0,1-.64,1.8,2.78,2.78,0,0,1-1.22,2C102.7,262.36,102.47,261.77,102.47,261.77Z"/><path class="cls-8" d="M102.6,37.07A10,10,0,0,0,95,46.75c-.3,8.18-5.06,40.65-8.65,39.17s-7.57-3.27-13.77-18.1c0,0-5-7.39-9.61-3.42,0,0-1.35.31,3.46,10.93s5.74,36.25,20.89,39c0,0,1.93-.81,3.18,1.63s5.85,9,14.25,2.41a61.73,61.73,0,0,0,19.47-25.73s20.15-12,19.13-20.35c0,0-.58-4-5.91.69s-18.17,20.57-16,7.46,16.83-19.9,14.76-24.55-5-7.61-12.85,6.31-7.8,17.21-11.8,15.05A116,116,0,0,0,101,72.55s-1.76-3.32.9-17.1S107.43,37.68,102.6,37.07Z"/><path class="cls-8" d="M125.8,40.72s-4.68-4.69-9.24,4.85-12.75,28.5-8.27,28.09,7.15-9.66,10.31-15.9S129.86,45.67,125.8,40.72Z"/><path class="cls-6" d="M78.08,103.33a33.9,33.9,0,0,1,3.6-4c1.36-1.13.64-3.9-.88-3.49s-3.26,3.44-3.26,5.64S78.08,103.33,78.08,103.33Z"/><path class="cls-6" d="M69.33,93a48,48,0,0,1,0-6.44c.29-1.9,1.34-7.31-1.53-7.08s-.36,8.67-.19,10.93S68.05,93.34,69.33,93Z"/><path class="cls-6" d="M64.92,93.48s.13-4.78-.81-7.29S63.6,77.94,61,78.8,60.42,85,62.11,89,64,93.46,64.92,93.48Z"/><path class="cls-6" d="M61.19,94.57a15.51,15.51,0,0,0-1.66-4.95c-1.34-2.46-1.45-8.64-4-8.37s0,4.72,1.63,7.24S58.73,96.65,61.19,94.57Z"/><path class="cls-6" d="M56.63,95.41s-3.69-8.66-6.26-7.93.59,3.06,2.78,5S55.65,95.54,56.63,95.41Z"/><path class="cls-6" d="M69,95s-3.86,1-5.89,2.74-4.39,1-3.78,4,2.72,8.71,6.77,9.49,6.87.65,6.43-4.68S74.12,95.21,69,95Zm-2,11.78c-2.34.18-3.86-5.28-2.4-5.56a13.45,13.45,0,0,0,3.39-1.47C68.72,98.64,69.27,106.56,66.94,106.73Z"/><path class="cls-10" d="M177.77,214.52s-4.15-6.15-5.41-9.46-7.09-3.81-7.32-.68,4.47,8.4,8.71,9.88S177.77,214.52,177.77,214.52Z"/><path class="cls-10" d="M151.89,224s-8.91-2.56-12.4-4.36-13.21-7.4-14.68-1.87,16.48,6.47,21,7.67S151.77,226.63,151.89,224Z"/><path class="cls-10" d="M150,232.58s-9.14-3.44-14.6-3.36-16.26-4.58-16.37.92,11.52,5.17,20.47,4.72S149.3,234.27,150,232.58Z"/><path class="cls-10" d="M149.56,240.3a32.56,32.56,0,0,0-10.67-.21c-5.65.88-17.64-3.05-18.8,1.87s9.12,3.11,15,1.79S151.91,246.3,149.56,240.3Z"/><path class="cls-10" d="M148.13,249.42s-19.18,1.11-19.51,6.4,6.32,1,11.42-1.89S147.72,251.34,148.13,249.42Z"/><path class="cls-10" d="M155.5,226s-.74,7.87,1.34,12.88-1.06,8.86,5.27,9.79,18.62.73,22.84-6.34,5.84-12.44-4.73-15.19S159.44,216.5,155.5,226Zm21.37,11.71c-1.23,4.49-12.77,3.67-12.34.76a25.9,25.9,0,0,0-.56-7.34C162.45,228.92,178.1,233.19,176.87,237.69Z"/><path class="cls-9" d="M95.49,150.3a54.48,54.48,0,0,0-7.06-5.11c-2.53-1.3-2.38-5.88.15-5.77s6.31,4.28,7.09,7.72S95.49,150.3,95.49,150.3Z"/><path class="cls-10" d="M105.54,131.06s-1.2-7.18-2.31-10.06-4.67-11-.11-11.61,3.62,13.45,4.15,17S107.67,131.22,105.54,131.06Z"/><path class="cls-7" d="M112.61,130.37s-1.88-7.44-1.3-11.68-2.12-13.09,2.3-12.65,3,9.46,1.83,16.38S114,130,112.61,130.37Z"/><path class="cls-6" d="M118.83,130.8a24.93,24.93,0,0,1,.85-8.32c1.24-4.31-.76-14,3.3-14.45s1.61,7.39,0,11.88S123.42,133.21,118.83,130.8Z"/><path class="cls-8" d="M126.28,130.56s2.72-14.82,7-14.57.16,5-2.61,8.7S127.85,130.43,126.28,130.56Z"/><path class="cls-9" d="M117,136.33c-3.81-2.09-10.19-2.27-10.19-2.27-8,2.17-2.63,10.86-1.44,19.35s5.65,7.74,11.71,5.13,7.39-12.16,7.26-17.18S120.8,138.42,117,136.33Zm-2.85,15.47c-3.72.54-5.65-12.05-4-10.66a21.1,21.1,0,0,0,5.83,1.13C118.3,142.22,117.86,151.27,114.14,151.8Z"/><path class="cls-8" d="M99.34,192.67a31.06,31.06,0,0,1,3.25-3.66c1.23-1,.58-3.52-.8-3.15S98.85,189,98.85,191,99.34,192.67,99.34,192.67Z"/><path class="cls-9" d="M91.42,183.3a42.8,42.8,0,0,1,0-5.82c.26-1.72,1.21-6.61-1.39-6.4s-.32,7.84-.16,9.88S90.27,183.65,91.42,183.3Z"/><path class="cls-7" d="M87.44,183.77s.12-4.32-.73-6.58-.46-7.46-2.83-6.69-.5,5.57,1,9.24S86.62,183.75,87.44,183.77Z"/><path class="cls-6" d="M84.07,184.76a14.08,14.08,0,0,0-1.5-4.48c-1.21-2.22-1.31-7.8-3.6-7.56s0,4.27,1.47,6.54S81.85,186.63,84.07,184.76Z"/><path class="cls-8" d="M80,185.52s-3.34-7.83-5.66-7.17.54,2.77,2.52,4.47S79.06,185.64,80,185.52Z"/><path class="cls-8" d="M82.36,191.23c.55,2.78,2.46,7.87,6.12,8.58s6.21.58,5.82-4.23,1.46-10.25-3.2-10.48a15.4,15.4,0,0,0-5.32,2.48C83.94,189.19,81.82,188.46,82.36,191.23Zm4.74-.51a12.14,12.14,0,0,0,3.06-1.32c.72-1,1.22,6.2-.9,6.35S85.78,191,87.1,190.72Z"/><path class="cls-8" d="M84.53,251.64a29.51,29.51,0,0,0-1.94,4.48c-.39,1.53-3,2-3.23.65s1.57-4,3.39-4.82S84.53,251.64,84.53,251.64Z"/><path class="cls-9" d="M72.52,248.68a45.44,45.44,0,0,0-5.31,2.55c-1.46,1-5.51,4-6.45,1.56s7-3.7,9-4.45S72.33,247.51,72.52,248.68Z"/><path class="cls-7" d="M71.22,245s-3.9,2-6.34,2.21-7,2.83-7.34.39,4.88-2.87,8.89-3.1S70.85,244.22,71.22,245Z"/><path class="cls-6" d="M70.66,241.53a14.51,14.51,0,0,1-4.74.61c-2.57-.11-7.71,2.22-8.48.08s3.91-1.82,6.62-1.53S71.4,238.74,70.66,241.53Z"/><path class="cls-8" d="M69.56,237.53s-8.6.44-9-1.9,2.76-.73,5.18.29S69.28,236.7,69.56,237.53Z"/><path class="cls-8" d="M74,241.81a15,15,0,0,0,0,5.81c2.24,4,6.39,0,11-1.72s3.59-4.06,1.35-7-7.73-2.43-10.5-1.71S74.65,239.48,74,241.81Zm9-.45c.77,1.94-6,4.61-5.42,3.55a11.32,11.32,0,0,0-.12-3.29C77.08,240.34,82.18,239.41,83,241.36Z"/><path class="cls-9" d="M160.11,157.64s-9.47-30.61.53-44.63S127.9,108.1,160.11,157.64Z"/><path class="cls-8" d="M108.93,238.45s-19.45-32.09-37.36-16.18S88.67,219,108.93,238.45Z"/><path class="cls-7" d="M58.5,126.44s-6.4-20.7-15.12-17S51.46,114.14,58.5,126.44Z"/><path class="cls-6" d="M146.7,102.4s3.2-13.22,13-15.76S145,73.94,146.7,102.4Z"/><path class="cls-10" d="M47,94.7S28.79,81.3,36.25,69.49,37.58,76.56,47,94.7Z"/><path class="cls-10" d="M65.09,218s-8.05-6.24-11.87.49S59.31,218.56,65.09,218Z"/><path class="cls-7" d="M79.66,208.46s-12.79-15.64-22.72-4.6S71.14,201.48,79.66,208.46Z"/><path class="cls-8" d="M37,98.87S25.25,83.4,16.73,93.47,29.14,91.25,37,98.87Z"/><path class="cls-9" d="M66.9,187.72S50.05,196.06,46,183.56,53.78,191.9,66.9,187.72Z"/><path class="cls-6" d="M54.29,160.05s-13.69-13.78-11-27.43S17.16,136.81,54.29,160.05Z"/><path class="cls-9" d="M57,42S46.91,19,39.47,27,49.19,28.61,57,42Z"/><path class="cls-10" d="M114.51,32s2.6-11,10.45-14.23S110.42,6.16,114.51,32Z"/><path class="cls-8" d="M108.19,12.1s-.1-10,5.78-11.83S108.6,6.46,108.19,12.1Z"/></g><path class="cls-11" d="M235.59,166.39a5.71,5.71,0,0,1,8.23.51,4.44,4.44,0,0,1,.84,2.28H242.1a3.59,3.59,0,0,0-.62-1.33,2.53,2.53,0,0,0-2-.79,2.48,2.48,0,0,0-2.15,1.12,5.47,5.47,0,0,0-.79,3.19,4.84,4.84,0,0,0,.83,3.08,2.63,2.63,0,0,0,2.12,1,2.39,2.39,0,0,0,2-.89,3.72,3.72,0,0,0,.64-1.41h2.54a5.53,5.53,0,0,1-1.68,3.25,4.88,4.88,0,0,1-3.47,1.25,5.18,5.18,0,0,1-4.1-1.69,8,8,0,0,1,.2-9.6Z"/><path class="cls-11" d="M248.75,168.3v5.45a2.9,2.9,0,0,0,.18,1.16,1.27,1.27,0,0,0,1.27.69,1.66,1.66,0,0,0,1.65-1,3.61,3.61,0,0,0,.23-1.4V168.3h2.4v9h-2.3v-1.28l-.17.25a1.85,1.85,0,0,1-.31.37,3.33,3.33,0,0,1-1.07.68,3.73,3.73,0,0,1-1.22.18,2.69,2.69,0,0,1-2.69-1.44,5.54,5.54,0,0,1-.39-2.35V168.3Z"/><path class="cls-11" d="M259.07,177.34h-2.36V165.11h2.36Z"/><path class="cls-11" d="M260.33,170.06v-1.68h1.26v-2.53h2.35v2.53h1.46v1.68h-1.46v4.78c0,.37,0,.61.14.7a1.57,1.57,0,0,0,.86.13h.46v1.77l-1.12,0a3,3,0,0,1-2.29-.58,1.76,1.76,0,0,1-.4-1.26v-5.57Z"/><path class="cls-11" d="M269.16,168.3v5.45a2.9,2.9,0,0,0,.18,1.16,1.27,1.27,0,0,0,1.27.69,1.66,1.66,0,0,0,1.65-1,3.61,3.61,0,0,0,.23-1.4V168.3h2.4v9h-2.3v-1.28l-.17.25a1.56,1.56,0,0,1-.31.37,3.33,3.33,0,0,1-1.07.68,3.73,3.73,0,0,1-1.22.18,2.69,2.69,0,0,1-2.69-1.44,5.54,5.54,0,0,1-.39-2.35V168.3Z"/><path class="cls-11" d="M282.1,168.08l.2,0v2.42l-.4,0h-.28a2,2,0,0,0-1.92.93,3.65,3.65,0,0,0-.27,1.61v4.32H277v-9h2.26v1.57a5.11,5.11,0,0,1,1-1.23,2.54,2.54,0,0,1,1.72-.56Z"/><path class="cls-11" d="M287.15,171.84a3.92,3.92,0,0,0,.94-.21.71.71,0,0,0,.52-.67.81.81,0,0,0-.4-.77,2.46,2.46,0,0,0-1.14-.21,1.51,1.51,0,0,0-1.21.42,1.61,1.61,0,0,0-.33.83h-2.29a3.51,3.51,0,0,1,.67-2,3.91,3.91,0,0,1,3.23-1.19,5.85,5.85,0,0,1,2.66.59,2.25,2.25,0,0,1,1.15,2.22V175c0,.29,0,.64,0,1.05a1.32,1.32,0,0,0,.14.63.89.89,0,0,0,.35.27v.35h-2.57a2.88,2.88,0,0,1-.15-.51c0-.16-.05-.34-.07-.55a4.92,4.92,0,0,1-1.13.9,3.39,3.39,0,0,1-1.74.45,3,3,0,0,1-2-.71,2.47,2.47,0,0,1-.81-2,2.57,2.57,0,0,1,1.3-2.42,5.86,5.86,0,0,1,2.09-.58Zm1.45,1.1a2.47,2.47,0,0,1-.46.23,3.94,3.94,0,0,1-.64.16l-.54.1a3.46,3.46,0,0,0-1.08.33,1.06,1.06,0,0,0-.56,1,1,1,0,0,0,.34.88,1.29,1.29,0,0,0,.83.27,2.47,2.47,0,0,0,1.43-.45,1.94,1.94,0,0,0,.68-1.64Z"/><path class="cls-11" d="M295.32,177.34H293V165.11h2.37Z"/><path class="cls-11" d="M305.69,171.84a4.16,4.16,0,0,0,.95-.21.71.71,0,0,0,.51-.67.8.8,0,0,0-.39-.77,2.51,2.51,0,0,0-1.15-.21,1.48,1.48,0,0,0-1.2.42,1.71,1.71,0,0,0-.34.83h-2.28a3.5,3.5,0,0,1,.66-2,3.92,3.92,0,0,1,3.24-1.19,5.81,5.81,0,0,1,2.65.59,2.26,2.26,0,0,1,1.16,2.22V175c0,.29,0,.64,0,1.05a1.3,1.3,0,0,0,.15.63.79.79,0,0,0,.34.27v.35h-2.57a2.88,2.88,0,0,1-.15-.51,4,4,0,0,1-.06-.55,4.77,4.77,0,0,1-1.14.9,3.37,3.37,0,0,1-1.74.45,3,3,0,0,1-2-.71,2.46,2.46,0,0,1-.8-2,2.58,2.58,0,0,1,1.29-2.42,5.93,5.93,0,0,1,2.09-.58Zm1.45,1.1a2.2,2.2,0,0,1-.46.23,3.54,3.54,0,0,1-.63.16l-.54.1a3.45,3.45,0,0,0-1.09.33,1.23,1.23,0,0,0-.22,1.88,1.31,1.31,0,0,0,.83.27,2.45,2.45,0,0,0,1.43-.45,1.91,1.91,0,0,0,.68-1.64Z"/><path class="cls-11" d="M318.74,168.81a3,3,0,0,1,.89,2.44v6.09h-2.42v-5.5a2.65,2.65,0,0,0-.19-1.1,1.33,1.33,0,0,0-1.32-.69,1.63,1.63,0,0,0-1.64,1,3.61,3.61,0,0,0-.23,1.38v4.89h-2.37v-9h2.29v1.32a4.13,4.13,0,0,1,.86-1,3,3,0,0,1,1.85-.55A3.45,3.45,0,0,1,318.74,168.81Z"/><path class="cls-11" d="M326.51,168.44a2.85,2.85,0,0,1,1,1v-4.32h2.39v12.22h-2.29v-1.25a3.33,3.33,0,0,1-1.16,1.17,3.28,3.28,0,0,1-1.61.37,3.36,3.36,0,0,1-2.67-1.29,4.92,4.92,0,0,1-1.08-3.29,5.66,5.66,0,0,1,1.07-3.64,3.45,3.45,0,0,1,2.85-1.33A2.93,2.93,0,0,1,326.51,168.44Zm.58,6.45a3.32,3.32,0,0,0,.52-1.94,2.94,2.94,0,0,0-.84-2.37,1.78,1.78,0,0,0-1.19-.43,1.66,1.66,0,0,0-1.52.78,3.57,3.57,0,0,0-.49,1.95,3.68,3.68,0,0,0,.49,2,1.68,1.68,0,0,0,1.5.75A1.77,1.77,0,0,0,327.09,174.89Z"/><path class="cls-11" d="M241.21,186.79a5.71,5.71,0,0,1,8.23.51,4.44,4.44,0,0,1,.84,2.28h-2.56a3.46,3.46,0,0,0-.62-1.32,2.5,2.5,0,0,0-2-.8,2.48,2.48,0,0,0-2.15,1.12,5.47,5.47,0,0,0-.79,3.19,4.84,4.84,0,0,0,.83,3.08,2.63,2.63,0,0,0,2.12,1,2.41,2.41,0,0,0,2-.88,3.85,3.85,0,0,0,.64-1.42h2.54a5.53,5.53,0,0,1-1.68,3.25,4.87,4.87,0,0,1-3.46,1.25,5.17,5.17,0,0,1-4.11-1.69,8,8,0,0,1,.2-9.6Z"/><path class="cls-11" d="M257,188.48l.2,0v2.42l-.4,0h-.28a2,2,0,0,0-1.92.93,3.65,3.65,0,0,0-.27,1.61v4.32H252v-9h2.25v1.57a5.11,5.11,0,0,1,1-1.23,2.61,2.61,0,0,1,1.73-.56Z"/><path class="cls-11" d="M264.41,188.88a3.65,3.65,0,0,1,1.56,1.34,4.46,4.46,0,0,1,.72,1.87,12.1,12.1,0,0,1,.08,1.79h-6.59a2.15,2.15,0,0,0,.94,1.91,2.41,2.41,0,0,0,1.31.34,2,2,0,0,0,1.31-.41,1.89,1.89,0,0,0,.49-.63h2.41a2.91,2.91,0,0,1-.87,1.64,4.41,4.41,0,0,1-3.41,1.32,4.93,4.93,0,0,1-3.18-1.11,4.39,4.39,0,0,1-1.38-3.63,4.9,4.9,0,0,1,1.24-3.6,4.35,4.35,0,0,1,3.24-1.26A5.23,5.23,0,0,1,264.41,188.88Zm-3.54,2a2.4,2.4,0,0,0-.63,1.4h4.07a2,2,0,0,0-.63-1.43,2.09,2.09,0,0,0-1.4-.48A1.87,1.87,0,0,0,260.87,190.92Z"/><path class="cls-11" d="M271.43,192.24a3.58,3.58,0,0,0,.94-.21.71.71,0,0,0,.51-.67.8.8,0,0,0-.39-.77,2.48,2.48,0,0,0-1.15-.21,1.51,1.51,0,0,0-1.2.42,1.71,1.71,0,0,0-.34.83h-2.28a3.43,3.43,0,0,1,.67-2,3.9,3.9,0,0,1,3.23-1.19,5.78,5.78,0,0,1,2.65.59,2.24,2.24,0,0,1,1.16,2.22v4.15c0,.29,0,.64,0,1.05a1.32,1.32,0,0,0,.14.63.82.82,0,0,0,.35.27v.35h-2.57a1.82,1.82,0,0,1-.15-.51c0-.16,0-.34-.07-.55a4.81,4.81,0,0,1-1.14.91,3.45,3.45,0,0,1-1.73.44,3,3,0,0,1-2-.71,2.47,2.47,0,0,1-.81-2,2.57,2.57,0,0,1,1.3-2.42,5.86,5.86,0,0,1,2.09-.58Zm1.44,1.1a2.4,2.4,0,0,1-.45.23,3.94,3.94,0,0,1-.64.16l-.54.1a3.37,3.37,0,0,0-1.08.33,1.06,1.06,0,0,0-.56,1,1,1,0,0,0,.34.88,1.27,1.27,0,0,0,.83.27,2.5,2.5,0,0,0,1.43-.45,1.9,1.9,0,0,0,.67-1.64Z"/><path class="cls-11" d="M276.25,190.46v-1.68h1.26v-2.52h2.34v2.52h1.47v1.68h-1.47v4.79a1.09,1.09,0,0,0,.14.69,1.6,1.6,0,0,0,.87.14h.46v1.77l-1.12,0a3,3,0,0,1-2.29-.58,1.76,1.76,0,0,1-.4-1.26v-5.57Z"/><path class="cls-11" d="M285.15,187.62h-2.39v-2.19h2.39Zm-2.39,1.08h2.39v9h-2.39Z"/><path class="cls-11" d="M292.9,188.7h2.54l-3.27,9h-2.49l-3.25-9h2.66l1.88,6.67Z"/><path class="cls-11" d="M302.56,188.88a3.65,3.65,0,0,1,1.56,1.34,4.46,4.46,0,0,1,.72,1.87,10.86,10.86,0,0,1,.08,1.79h-6.59a2.16,2.16,0,0,0,.95,1.91,2.35,2.35,0,0,0,1.3.34,2,2,0,0,0,1.31-.41,1.89,1.89,0,0,0,.49-.63h2.42a3,3,0,0,1-.88,1.64,4.4,4.4,0,0,1-3.4,1.32,4.94,4.94,0,0,1-3.19-1.11,4.39,4.39,0,0,1-1.38-3.63,4.87,4.87,0,0,1,1.25-3.6,4.33,4.33,0,0,1,3.23-1.26A5.19,5.19,0,0,1,302.56,188.88Zm-3.54,2a2.4,2.4,0,0,0-.63,1.4h4.07a2,2,0,0,0-.63-1.43,2.07,2.07,0,0,0-1.4-.48A1.87,1.87,0,0,0,299,190.92Z"/><path class="cls-11" d="M314.19,192.24a3.58,3.58,0,0,0,.94-.21.71.71,0,0,0,.51-.67.8.8,0,0,0-.39-.77,2.48,2.48,0,0,0-1.15-.21,1.48,1.48,0,0,0-1.2.42,1.71,1.71,0,0,0-.34.83h-2.28a3.43,3.43,0,0,1,.67-2,3.88,3.88,0,0,1,3.23-1.19,5.81,5.81,0,0,1,2.65.59,2.26,2.26,0,0,1,1.16,2.22v4.15c0,.29,0,.64,0,1.05a1.21,1.21,0,0,0,.14.63.82.82,0,0,0,.35.27v.35h-2.58a2.88,2.88,0,0,1-.15-.51c0-.16,0-.34-.06-.55a4.81,4.81,0,0,1-1.14.91,3.46,3.46,0,0,1-1.74.44,3,3,0,0,1-2-.71,2.5,2.5,0,0,1-.8-2,2.58,2.58,0,0,1,1.29-2.42,5.93,5.93,0,0,1,2.09-.58Zm1.44,1.1a2.2,2.2,0,0,1-.46.23,3.54,3.54,0,0,1-.63.16l-.54.1a3.45,3.45,0,0,0-1.09.33,1.08,1.08,0,0,0-.56,1,1,1,0,0,0,.35.88,1.27,1.27,0,0,0,.83.27,2.44,2.44,0,0,0,1.42-.45,1.88,1.88,0,0,0,.68-1.64Z"/><path class="cls-11" d="M325,188.48l.21,0v2.42l-.4,0h-.28a2,2,0,0,0-1.92.93,3.63,3.63,0,0,0-.28,1.61v4.32h-2.38v-9h2.26v1.57a5.13,5.13,0,0,1,.95-1.23,2.62,2.62,0,0,1,1.73-.56Z"/><path class="cls-11" d="M325.5,190.46v-1.68h1.27v-2.52h2.34v2.52h1.47v1.68h-1.47v4.79c0,.37,0,.6.14.69a1.54,1.54,0,0,0,.86.14h.47v1.77l-1.13,0a3,3,0,0,1-2.29-.58,1.76,1.76,0,0,1-.39-1.26v-5.57Z"/></g></g></g></svg>