<?xml version="1.0" encoding="utf-8"?>
<!-- Generator: Adobe Illustrator 23.0.1, SVG Export Plug-In . SVG Version: 6.00 Build 0)  -->
<svg version="1.1" id="Layer_1" xmlns="http://www.w3.org/2000/svg" xmlns:xlink="http://www.w3.org/1999/xlink" x="0px" y="0px"
	 viewBox="0 0 293 123" style="enable-background:new 0 0 293 123;" xml:space="preserve">
<style type="text/css">
	.st0{clip-path:url(#SVGID_2_);fill:#583D7F;}
	.st1{clip-path:url(#SVGID_2_);}
	.st2{fill:#422D63;}
	.st3{fill:#FF069B;}
	.st4{fill:#00AAC7;}
	.st5{fill:#FECD44;}
	.st6{fill:#8E61BC;}
	.st7{fill:#84E19A;}
	.st8{fill:#FFFFFF;}
</style>
<g>
	<g>
		<defs>
			<path id="SVGID_1_" d="M281.8,123H11.2C5,123,0,118,0,111.8V11.2C0,5,5,0,11.2,0h270.6C288,0,293,5,293,11.2v100.6
				C293,118,288,123,281.8,123z"/>
		</defs>
		<use xlink:href="#SVGID_1_"  style="overflow:visible;fill:#FFFFFF;"/>
		<clipPath id="SVGID_2_">
			<use xlink:href="#SVGID_1_"  style="overflow:visible;"/>
		</clipPath>
		<path class="st0" d="M281.8,123H11.2C5,123,0,118,0,111.8V11.2C0,5,5,0,11.2,0h270.6C288,0,293,5,293,11.2v100.6
			C293,118,288,123,281.8,123z"/>
		<g class="st1">
			<path class="st2" d="M4.7-39.7c-18.4,4.2-40.4,17.5-51.4,32.8c-9.7,13.4-16,27.9-16.8,44.4C-65,64-61.8,93.1-43.5,112.4
				c12.4,13.2,29.9,23.7,47.5,28.4c13.1,3.4,53.2,6.9,72.1,0c14.1-5.1,27.8-11.7,38.1-22.5c6.1-6.4,11.7-13.2,15.9-21
				c7.1-13.3,9.6-28.8,8.1-43.8c-1.4-15-4.6-30.7-11.8-44c-7-13-16.1-23.5-28-32.1C85.4-32,47.1-49.3,4.7-39.7z"/>
		</g>
		<g class="st1">
			<g>
				<path class="st3" d="M55,58.1c0,0,5.4-0.1,6.9,5.6c1.5,5.7,10,27.8,12.3,26.3c2.3-1.6,4.8-3.5,6.8-14.9c0,0,2.3-6,6.2-3.9
					c0,0,1,0-0.7,8.2c-1.7,8.2,1.7,26.4-8.5,30.7c0,0-1.5-0.3-2,1.6c-0.5,1.9-2.7,7.2-9.7,3.9c-7-3.3-12.7-8-17.8-15.1
					c0,0-16.1-5.3-16.7-11.4c0,0-0.2-2.9,4.3-0.4c4.5,2.5,16.1,11.7,12.4,2.8c-3.6-8.9-15-11.4-14.3-15c0.7-3.6,2.3-6.1,10.1,2.5
					c7.7,8.6,8.2,10.9,10.7,8.8c2.5-2.1,6.7-5,6.7-5s0.7-2.6-3.4-11.9C54.4,61.6,51.7,59.3,55,58.1z"/>
				<path class="st3" d="M39.3,64.2c0,0,2.6-4,7.3,2c4.7,6,13.5,18.1,10.3,18.5c-3.2,0.4-6.6-5.7-9.8-9.6
					C43.8,71.2,37.2,68.4,39.3,64.2z"/>
			</g>
			<g>
				<path class="st4" d="M19.8-41.4c0,0,8.3,1.8,14.2-1.5c5.9-3.3,8.5-2.2,7.7-7.1C40.8-55,35-70.2,29.1-68.7
					c-5.9,1.6-5.5-1.7-8.1,0.5c-2.6,2.2-4.7-0.6-9.5,6.4c0,0-0.5,0.3-2-1.3c-1.4-1.6-5.1-2.6-5.1-2.6s-2-2-3.9-3.1
					c-1.9-1-2-5-6.1-3.8c-4.1,1.2,3.2,6.1,4.6,6.9c1.4,0.8,2.6,3.1,4.3,3.7c1.7,0.5,1.4,3.6,6.1,4.1c0,0,2.8,4.6,5.4,5.9
					c0,0-1,4.4,0,5.6c1,1.2-4.2-0.7-8.7-0.4c-4.5,0.3-9,5.1-5.7,5.8c3.3,0.7,7.1-0.9,11-0.7C15.3-41.4,19.3-41.5,19.8-41.4z"/>
				<path class="st4" d="M7.4-74.4c0.2,0.3,3.2,8.7,6.3,7.5c3.1-1.2-1-6-4.1-9.3c-3.1-3.4-5.1-10.4-8.3-8.2c-3.1,2.3-1.5,4.5,2,5.9
					C6.8-77,7.4-74.4,7.4-74.4z"/>
				<path class="st4" d="M18.7-82.4c0,0-2.9-8.2-5.6-6.2c-2.7,2-1,4.2,1.4,6.3c2.4,2,3.5,5.8,4.2,8.1c0.7,2.4,2.8,6.5,4,6.1
					c1.2-0.5,1.3-5.1-0.5-8.1C20.3-79.1,18.7-82.4,18.7-82.4z"/>
				<path class="st4" d="M31.9-87c0,0-2.7,0.7-1.3,3.9c1.4,3.1,1.4,2.2,0.9,4.8c-0.5,2.5,0.3,3,0.3,3s-1.8,2.3-0.3,3
					c1.5,0.7,1.7-2.3,1.7-2.3s2.2-2.2,1.2-4.8c0,0,1.8-3.5,0.3-6C33.3-87.9,31.9-87,31.9-87z"/>
			</g>
			<g>
				<path class="st5" d="M84.2,119.6c0,0,3.7,7.6,10,10c6.3,2.5,7,5.2,10.4,1.6c3.4-3.7,12-17.6,7.1-21.2c-4.9-3.6-2-5.3-5.4-6
					c-3.4-0.7-2.4-4-11-3.4c0,0-0.6-0.2-0.2-2.3c0.4-2.1-1.1-5.6-1.1-5.6s0.4-2.8,0-4.9c-0.4-2.1,2.8-4.6-0.7-7.1
					c-3.4-2.4-2.9,6.2-2.6,7.8c0.2,1.6-0.9,4-0.3,5.6c0.6,1.7-2,3.3,0.5,7.3c0,0-1.9,4.9-1.4,7.9c0,0-4.1,2-4.5,3.5
					c-0.4,1.6-2-3.7-5.1-7c-3-3.3-9.6-3.8-8.2-0.8c1.4,3,5.1,5,7.3,8.1C81.4,116.1,84,119.1,84.2,119.6z"/>
				<path class="st5" d="M102.9,89.6c-0.1,0.3-5,7.9-2.1,9.6c2.9,1.7,4.1-4.5,4.9-8.9c0.8-4.5,5.2-10.4,1.4-11.5
					c-3.8-1-4.5,1.6-3.5,5.2C104.7,87.5,102.9,89.6,102.9,89.6z"/>
				<path class="st5" d="M116.3,93.5c0,0,4.7-7.3,1.5-8.2c-3.2-0.8-4,1.9-4.1,5c-0.1,3.1-2.5,6.2-3.9,8.2c-1.4,2-3.5,6.2-2.4,6.8
					c1.2,0.7,4.9-2.2,6.1-5.4C114.7,96.7,116.3,93.5,116.3,93.5z"/>
				<path class="st5" d="M128.1,100.9c0,0-2.3-1.7-3.9,1.4c-1.6,3-0.9,2.5-3.3,3.6c-2.3,1.2-2.2,2.1-2.2,2.1s-3,0.1-2.6,1.7
					c0.4,1.6,2.9-0.1,2.9-0.1s3.2,0.3,4.6-2c0,0,3.9-0.8,5-3.5C129.7,101.4,128.1,100.9,128.1,100.9z"/>
			</g>
			<g>
				<path class="st6" d="M58.5,129.4c0,0,4.1-0.9,6.1-3.6c1.9-2.7,3.4-2.8,1.9-4.8c-1.4-2-7.3-7.7-9.6-5.8c-2.3,1.9-2.8,0.4-3.5,1.9
					c-0.7,1.5-2.2,0.7-2.9,4.9c0,0-0.2,0.3-1.2-0.2c-1-0.4-2.9-0.1-2.9-0.1s-1.3-0.5-2.4-0.6c-1.1-0.1-2-1.8-3.6-0.5
					c-1.6,1.4,2.7,2.1,3.5,2.1c0.8,0.1,1.8,0.9,2.7,0.8c0.9-0.1,1.4,1.3,3.6,0.6c0,0,2.2,1.5,3.7,1.5c0,0,0.5,2.2,1.2,2.5
					c0.7,0.4-2,0.6-4,1.6c-2,1.1-3,4.2-1.3,3.8c1.6-0.4,3-1.9,4.8-2.6C56.5,130.3,58.3,129.4,58.5,129.4z"/>
				<path class="st6" d="M45.9,117.1c0.1,0.1,3.3,3.3,4.5,2.1c1.2-1.2-1.7-2.5-3.8-3.4c-2.1-0.9-4.5-3.6-5.5-2
					c-0.9,1.7,0.3,2.4,2.1,2.3C45.1,116,45.9,117.1,45.9,117.1z"/>
				<path class="st6" d="M49.3,111.1c0,0-3.1-3.1-3.8-1.6c-0.8,1.5,0.5,2.1,2,2.5c1.5,0.4,2.8,1.9,3.6,2.8c0.8,0.9,2.6,2.4,3.1,1.9
					c0.5-0.5-0.5-2.6-2-3.5C50.7,112.3,49.3,111.1,49.3,111.1z"/>
				<path class="st6" d="M54.3,106.3c0,0-1.1,0.9,0.2,2c1.3,1.1,1.1,0.7,1.4,2c0.3,1.3,0.8,1.3,0.8,1.3s-0.3,1.4,0.5,1.4
					c0.8,0,0.3-1.4,0.3-1.4s0.5-1.5-0.5-2.4c0,0,0-2-1.2-2.8C54.7,105.6,54.3,106.3,54.3,106.3z"/>
			</g>
			<g>
				<path class="st7" d="M18.2,82.8c0,0,8.3,1.8,14.2-1.5c5.9-3.3,8.5-2.2,7.7-7.1c-0.8-4.9-6.7-20.2-12.6-18.6
					C21.6,57,22,53.8,19.3,56c-2.7,2.2-4.7-0.6-9.5,6.5c0,0-0.5,0.3-2-1.3c-1.4-1.6-5.1-2.6-5.1-2.6s-2-2-3.9-3.1
					c-1.9-1-2-5-6.1-3.9c-4.1,1.2,3.2,6.1,4.6,6.9c1.4,0.8,2.6,3.1,4.3,3.7c1.7,0.5,1.4,3.6,6.1,4.1c0,0,2.8,4.6,5.4,5.9
					c0,0-1,4.4,0,5.6c1,1.2-4.2-0.7-8.7-0.4c-4.5,0.3-9,5.1-5.7,5.8c3.3,0.7,7.1-0.9,11-0.7C13.7,82.8,17.7,82.7,18.2,82.8z"/>
				<path class="st7" d="M5.7,49.7c0.2,0.3,3.2,8.7,6.3,7.5c3.1-1.2-1-6-4.1-9.3C5,44.5,2.9,37.5-0.3,39.8c-3.2,2.3-1.5,4.5,2,5.9
					C5.2,47.1,5.7,49.7,5.7,49.7z"/>
				<path class="st7" d="M17.1,41.7c0,0-2.9-8.2-5.6-6.2c-2.7,2-1,4.2,1.4,6.3c2.4,2,3.5,5.8,4.2,8.1c0.7,2.4,2.8,6.5,4,6.1
					c1.2-0.5,1.3-5.1-0.5-8.1C18.7,45,17.1,41.7,17.1,41.7z"/>
				<path class="st7" d="M30.4,37.1c0,0-2.7,0.7-1.3,3.9c1.4,3.1,1.4,2.2,0.9,4.8c-0.5,2.5,0.3,3,0.3,3s-1.8,2.4-0.3,3
					c1.5,0.7,1.7-2.3,1.7-2.3s2.2-2.3,1.2-4.8c0,0,1.8-3.5,0.3-6C31.7,36.2,30.4,37.1,30.4,37.1z"/>
			</g>
			<g>
				<path class="st4" d="M73.2,66.4c0,0-1.3,3-3.7,4c-2.4,1-2.6,2.1-4,0.7c-1.4-1.4-4.9-6.7-3.1-8.1c1.8-1.5,0.7-2.1,2-2.4
					c1.3-0.3,0.9-1.6,4.2-1.5c0,0,0.2-0.1,0-0.9c-0.2-0.8,0.4-2.2,0.4-2.2S68.9,55,69,54.2c0.1-0.8-1.1-1.8,0.2-2.8
					c1.3-1,1.2,2.4,1.1,3c-0.1,0.6,0.4,1.5,0.2,2.2c-0.2,0.7,0.8,1.2-0.1,2.8c0,0,0.8,1.9,0.6,3c0,0,1.6,0.7,1.8,1.3
					c0.2,0.6,0.7-1.5,1.9-2.8c1.1-1.3,3.7-1.6,3.2-0.4c-0.5,1.2-1.9,2-2.7,3.2C74.3,65,73.3,66.2,73.2,66.4z"/>
				<path class="st4" d="M65.6,55c0,0.1,2,3,0.9,3.7c-1.1,0.7-1.7-1.7-2-3.4c-0.4-1.7-2.1-4-0.7-4.4c1.4-0.5,1.8,0.6,1.4,2
					C64.9,54.2,65.6,55,65.6,55z"/>
				<path class="st4" d="M60.5,56.7c0,0-1.9-2.8-0.7-3.1c1.2-0.4,1.6,0.7,1.7,1.9c0.1,1.2,1,2.4,1.6,3.1c0.6,0.8,1.4,2.3,1,2.6
					c-0.4,0.3-1.9-0.8-2.4-2C61.1,57.9,60.5,56.7,60.5,56.7z"/>
				<path class="st4" d="M56,59.7c0,0,0.9-0.7,1.5,0.5c0.7,1.2,0.4,0.9,1.3,1.4c0.9,0.4,0.9,0.8,0.9,0.8s1.1,0,1,0.6
					c-0.1,0.6-1.1,0-1.1,0s-1.2,0.2-1.8-0.7c0,0-1.5-0.3-2-1.3C55.4,59.9,56,59.7,56,59.7z"/>
			</g>
			<g>
				<path class="st4" d="M44.5,151.4c0,0,3.1,1.2,4.2,3.5c1.2,2.3,2.3,2.5,0.9,3.9c-1.3,1.4-6.5,5.1-8.1,3.4
					c-1.6-1.7-2.1-0.6-2.5-1.9c-0.4-1.3-1.6-0.8-1.7-4.1c0,0-0.1-0.2-0.9,0c-0.8,0.2-2.2-0.2-2.2-0.2s-1.1,0.2-1.9,0.2
					c-0.8-0.1-1.7,1.2-2.8,0c-1.1-1.2,2.4-1.3,3-1.2c0.6,0,1.5-0.5,2.2-0.3c0.7,0.2,1.2-0.9,2.9,0c0,0,1.9-0.9,3-0.8
					c0,0,0.6-1.6,1.2-1.8c0.6-0.2-1.5-0.7-2.9-1.7c-1.4-1-1.8-3.5-0.6-3.1c1.2,0.5,2.1,1.8,3.4,2.5
					C43.1,150.5,44.3,151.4,44.5,151.4z"/>
				<path class="st4" d="M33.4,159.5c0.1,0,2.9-2.1,3.7-1.1c0.8,1-1.6,1.7-3.3,2.2c-1.7,0.5-3.9,2.3-4.4,0.9
					c-0.5-1.4,0.5-1.8,1.9-1.5C32.6,160.2,33.4,159.5,33.4,159.5z"/>
				<path class="st4" d="M35.3,164.4c0,0-2.7,2-3.1,0.8c-0.4-1.2,0.6-1.6,1.8-1.7c1.2-0.1,2.4-1.1,3.1-1.7c0.7-0.6,2.3-1.5,2.6-1.1
					c0.3,0.4-0.7,1.9-1.9,2.5C36.5,163.7,35.3,164.4,35.3,164.4z"/>
				<path class="st4" d="M38.6,168.7c0,0-0.7-0.8,0.4-1.5c1.1-0.7,0.9-0.4,1.3-1.4c0.4-0.9,0.8-0.9,0.8-0.9s-0.1-1.1,0.6-1
					c0.6,0.1,0.1,1.1,0.1,1.1s0.2,1.2-0.6,1.8c0,0-0.2,1.5-1.2,2C38.8,169.3,38.6,168.7,38.6,168.7z"/>
			</g>
			<g>
				<path class="st5" d="M38.7-56c0,0-7.3,1.5-7.6,9.7c-0.3,8.2-5.1,40.6-8.7,39.2c-3.6-1.5-7.6-3.3-13.8-18.1c0,0-4.9-7.4-9.6-3.4
					c0,0-1.4,0.3,3.5,10.9c4.8,10.6,5.7,36.3,20.9,39c0,0,1.9-0.8,3.2,1.6c1.3,2.4,5.9,9,14.2,2.4c8.4-6.6,14.7-14.5,19.5-25.7
					c0,0,20.1-12,19.1-20.3c0,0-0.6-4-5.9,0.7c-5.3,4.7-18.2,20.6-16,7.5c2.2-13.1,16.8-19.9,14.8-24.6c-2.1-4.7-5-7.6-12.8,6.3
					c-7.8,13.9-7.8,17.2-11.8,15c-4-2.2-10.6-4.7-10.6-4.7s-1.8-3.3,0.9-17.1C40.6-51.4,43.6-55.4,38.7-56z"/>
				<path class="st5" d="M61.9-52.3c0,0-4.7-4.7-9.2,4.9c-4.6,9.5-12.7,28.5-8.3,28.1c4.5-0.4,7.2-9.7,10.3-15.9
					C57.9-41.5,66-47.4,61.9-52.3z"/>
			</g>
			<g>
				<path class="st3" d="M14.2,10.3c0,0,2.2-2.9,3.6-4.1c1.4-1.1,0.6-3.9-0.9-3.5c-1.5,0.4-3.3,3.4-3.3,5.6
					C13.7,10.6,14.2,10.3,14.2,10.3z"/>
				<path class="st3" d="M5.5-0.1c0,0-0.3-4.5,0-6.4c0.3-1.9,1.3-7.3-1.5-7.1C1.1-13.4,3.6-5,3.8-2.7C3.9-0.4,4.2,0.3,5.5-0.1z"/>
				<path class="st3" d="M1,0.4c0,0,0.1-4.8-0.8-7.3c-0.9-2.5-0.5-8.3-3.1-7.4C-5.5-13.4-3.5-8.1-1.8-4C-0.1,0,0.1,0.4,1,0.4z"/>
				<path class="st3" d="M-2.7,1.5c0,0-0.3-2.5-1.7-5c-1.3-2.5-1.5-8.6-4-8.4c-2.5,0.3,0,4.7,1.6,7.2C-5.1-2.1-5.1,3.6-2.7,1.5z"/>
				<path class="st3" d="M-7.2,2.4c0,0-3.7-8.7-6.3-7.9c-2.6,0.7,0.6,3.1,2.8,4.9C-8.5,1.2-8.2,2.5-7.2,2.4z"/>
				<path class="st3" d="M5.1,1.9c0,0-3.9,1-5.9,2.7c-2,1.8-4.4,1-3.8,4c0.6,3.1,2.7,8.7,6.8,9.5c4.1,0.8,6.9,0.6,6.4-4.7
					C8.2,8.1,10.2,2.1,5.1,1.9z M3.1,13.7c-2.3,0.2-3.9-5.3-2.4-5.6c1.5-0.3,3.4-1.5,3.4-1.5C4.8,5.6,5.4,13.5,3.1,13.7z"/>
			</g>
			<g>
				<path class="st7" d="M113.9,121.5c0,0-4.2-6.2-5.4-9.5c-1.3-3.3-7.1-3.8-7.3-0.7c-0.2,3.1,4.5,8.4,8.7,9.9
					C114.1,122.7,113.9,121.5,113.9,121.5z"/>
				<path class="st7" d="M88,130.9c0,0-8.9-2.6-12.4-4.4c-3.5-1.8-13.2-7.4-14.7-1.9c-1.5,5.5,16.5,6.5,21,7.7
					C86.4,133.6,87.9,133.6,88,130.9z"/>
				<path class="st7" d="M86.1,139.5c0,0-9.1-3.4-14.6-3.4c-5.5,0.1-16.3-4.6-16.4,0.9c-0.1,5.5,11.5,5.2,20.5,4.7
					C84.5,141.3,85.4,141.2,86.1,139.5z"/>
				<path class="st7" d="M85.7,147.2c0,0-5-1.1-10.7-0.2c-5.6,0.9-17.6-3.1-18.8,1.9c-1.2,4.9,9.1,3.1,15,1.8
					C77.2,149.4,88,153.2,85.7,147.2z"/>
				<path class="st7" d="M84.3,156.4c0,0-19.2,1.1-19.5,6.4c-0.3,5.3,6.3,1,11.4-1.9C81.3,158,83.9,158.3,84.3,156.4z"/>
				<path class="st7" d="M91.6,132.9c0,0-0.7,7.9,1.3,12.9c2.1,5-1.1,8.9,5.3,9.8c6.3,0.9,18.6,0.7,22.8-6.3
					c4.2-7.1,5.8-12.4-4.7-15.2C105.8,131.3,95.6,123.4,91.6,132.9z M113,144.6c-1.2,4.5-12.8,3.7-12.3,0.8c0.4-2.9-0.6-7.3-0.6-7.3
					C98.6,135.9,114.2,140.1,113,144.6z"/>
			</g>
			<g>
				<path class="st6" d="M31.6,57.2c0,0-4.5-3.8-7.1-5.1c-2.5-1.3-2.4-5.9,0.2-5.8c2.5,0.1,6.3,4.3,7.1,7.7
					C32.6,57.5,31.6,57.2,31.6,57.2z"/>
				<path class="st7" d="M41.7,38c0,0-1.2-7.2-2.3-10.1c-1.1-2.9-4.7-11-0.1-11.6c4.6-0.6,3.6,13.4,4.1,17
					C43.9,37,43.8,38.2,41.7,38z"/>
				<path class="st4" d="M48.7,37.3c0,0-1.9-7.4-1.3-11.7c0.6-4.2-2.1-13.1,2.3-12.7c4.4,0.4,3,9.5,1.8,16.4
					C50.3,36.3,50.2,37,48.7,37.3z"/>
				<path class="st3" d="M55,37.7c0,0-0.4-4,0.8-8.3c1.2-4.3-0.8-14,3.3-14.5c4.1-0.4,1.6,7.4,0,11.9C57.5,31.3,59.5,40.1,55,37.7z"
					/>
				<path class="st5" d="M62.4,37.5c0,0,2.7-14.8,7-14.6c4.3,0.3,0.2,5-2.6,8.7C64,35.3,64,37.4,62.4,37.5z"/>
				<path class="st6" d="M53.1,43.3C49.3,41.2,42.9,41,42.9,41c-8,2.2-2.6,10.9-1.4,19.3c1.2,8.5,5.6,7.7,11.7,5.1
					c6.1-2.6,7.4-12.2,7.3-17.2C60.3,43.3,56.9,45.4,53.1,43.3z M50.3,58.7c-3.7,0.5-5.6-12.1-4-10.7c0,0,3.4,1.2,5.8,1.1
					C54.4,49.2,54,58.2,50.3,58.7z"/>
			</g>
			<g>
				<path class="st5" d="M35.5,99.6c0,0,2-2.6,3.3-3.7c1.2-1,0.6-3.5-0.8-3.2c-1.4,0.4-2.9,3.1-2.9,5.1C35,99.9,35.5,99.6,35.5,99.6
					z"/>
				<path class="st6" d="M27.6,90.2c0,0-0.2-4.1,0-5.8c0.3-1.7,1.2-6.6-1.4-6.4c-2.6,0.2-0.3,7.8-0.2,9.9
					C26.2,89.9,26.4,90.6,27.6,90.2z"/>
				<path class="st4" d="M23.6,90.7c0,0,0.1-4.3-0.7-6.6c-0.8-2.3-0.5-7.5-2.8-6.7c-2.4,0.8-0.5,5.6,1,9.2
					C22.6,90.3,22.7,90.7,23.6,90.7z"/>
				<path class="st3" d="M20.2,91.7c0,0-0.3-2.3-1.5-4.5c-1.2-2.2-1.3-7.8-3.6-7.6c-2.3,0.2,0,4.3,1.5,6.5
					C18,88.5,18,93.6,20.2,91.7z"/>
				<path class="st5" d="M16.1,92.5c0,0-3.3-7.8-5.7-7.2c-2.3,0.7,0.5,2.8,2.5,4.5C14.9,91.5,15.2,92.6,16.1,92.5z"/>
				<path class="st5" d="M18.5,98.2c0.5,2.8,2.5,7.9,6.1,8.6c3.7,0.7,6.2,0.6,5.8-4.2C30,97.7,31.9,92.3,27.2,92
					c0,0-3.5,0.9-5.3,2.5C20.1,96.1,17.9,95.4,18.5,98.2z M23.2,97.7c1.3-0.3,3.1-1.3,3.1-1.3c0.7-1,1.2,6.2-0.9,6.4
					C23.3,102.8,21.9,97.9,23.2,97.7z"/>
			</g>
			<g>
				<path class="st5" d="M20.7,158.6c0,0-1.5,2.9-1.9,4.5c-0.4,1.5-3,2-3.2,0.7c-0.3-1.4,1.6-4,3.4-4.8
					C20.7,158,20.7,158.6,20.7,158.6z"/>
				<path class="st6" d="M8.6,155.6c0,0-3.8,1.6-5.3,2.5c-1.5,1-5.5,3.9-6.5,1.6c-0.9-2.4,7-3.7,9-4.4
					C7.8,154.5,8.5,154.4,8.6,155.6z"/>
				<path class="st4" d="M7.3,151.9c0,0-3.9,2-6.3,2.2c-2.4,0.2-7,2.8-7.3,0.4c-0.3-2.4,4.9-2.9,8.9-3.1
					C6.6,151.1,7,151.2,7.3,151.9z"/>
				<path class="st3" d="M6.8,148.5c0,0-2.2,0.7-4.7,0.6c-2.6-0.1-7.7,2.2-8.5,0.1c-0.8-2.1,3.9-1.8,6.6-1.5
					C2.9,147.9,7.5,145.7,6.8,148.5z"/>
				<path class="st5" d="M5.7,144.5c0,0-8.6,0.4-9-1.9c-0.4-2.3,2.8-0.7,5.2,0.3C4.3,143.9,5.4,143.6,5.7,144.5z"/>
				<path class="st5" d="M10.1,148.7c-0.7,2.3,0.1,5.8,0.1,5.8c2.2,4,6.4,0,11-1.7c4.6-1.7,3.6-4.1,1.3-7c-2.2-2.9-7.7-2.4-10.5-1.7
					C9.2,144.9,10.8,146.4,10.1,148.7z M19.1,148.3c0.8,1.9-6,4.6-5.4,3.6c0,0,0.2-2-0.1-3.3C13.2,147.3,18.3,146.4,19.1,148.3z"/>
			</g>
			<path class="st6" d="M96.2,64.6c0,0-9.5-30.6,0.5-44.6C106.8,5.9,64,15,96.2,64.6z"/>
			<path class="st5" d="M45.1,145.4c0,0-19.5-32.1-37.4-16.2C-10.2,145.1,24.8,125.9,45.1,145.4z"/>
			<path class="st4" d="M-5.4,33.4c0,0-6.4-20.7-15.1-17C-29.2,20.1-12.4,21.1-5.4,33.4z"/>
			<path class="st3" d="M82.8,9.3c0,0,3.2-13.2,13-15.8C105.6-9,81.1-19.1,82.8,9.3z"/>
			<path class="st7" d="M-16.9,1.6c0,0-18.2-13.4-10.8-25.2C-20.2-35.4-26.3-16.5-16.9,1.6z"/>
			<path class="st7" d="M1.2,124.9c0,0-8-6.2-11.9,0.5C-14.5,132.1-4.6,125.5,1.2,124.9z"/>
			<path class="st4" d="M15.8,115.4c0,0-12.8-15.6-22.7-4.6C-16.9,121.8,7.3,108.4,15.8,115.4z"/>
			<path class="st5" d="M-26.9,5.8c0,0-11.7-15.5-20.2-5.4C-55.7,10.5-34.7-1.8-26.9,5.8z"/>
			<path class="st6" d="M3,94.7c0,0-16.9,8.3-20.9-4.2C-21.8,78-10.1,98.8,3,94.7z"/>
			<path class="st3" d="M-9.6,67c0,0-13.7-13.8-11-27.4C-17.9,25.9-46.7,43.7-9.6,67z"/>
			<path class="st6" d="M-6.9-51.1c0,0-10.1-23-17.5-15C-31.8-58.1-14.7-64.4-6.9-51.1z"/>
			<path class="st7" d="M50.6-61.1c0,0,2.6-11,10.4-14.2C68.9-78.5,46.6-86.9,50.6-61.1z"/>
			<path class="st5" d="M44.3-81c0,0-0.1-10,5.8-11.8C56-94.6,44.7-86.6,44.3-81z"/>
		</g>
	</g>
	<g>
		<path class="st8" d="M171.7,73.3c1-1,2.2-1.5,3.8-1.5c2,0,3.5,0.7,4.5,2c0.5,0.8,0.8,1.5,0.8,2.3h-2.6c-0.2-0.6-0.4-1-0.6-1.3
			c-0.5-0.5-1.1-0.8-2-0.8c-0.9,0-1.6,0.4-2.2,1.1c-0.5,0.8-0.8,1.8-0.8,3.2s0.3,2.4,0.8,3.1s1.3,1,2.1,1c0.9,0,1.5-0.3,2-0.9
			c0.3-0.3,0.5-0.8,0.6-1.4h2.5c-0.2,1.3-0.8,2.4-1.7,3.3c-0.9,0.8-2.1,1.3-3.5,1.3c-1.7,0-3.1-0.6-4.1-1.7c-1-1.1-1.5-2.7-1.5-4.7
			C170,76.1,170.6,74.5,171.7,73.3z"/>
		<path class="st8" d="M184.9,75.2v5.5c0,0.5,0.1,0.9,0.2,1.2c0.2,0.5,0.6,0.7,1.3,0.7c0.8,0,1.4-0.3,1.7-1c0.2-0.4,0.2-0.8,0.2-1.4
			v-4.9h2.4v9h-2.3V83c0,0-0.1,0.1-0.2,0.2c-0.1,0.1-0.2,0.3-0.3,0.4c-0.4,0.3-0.7,0.6-1.1,0.7c-0.3,0.1-0.8,0.2-1.2,0.2
			c-1.3,0-2.2-0.5-2.7-1.4c-0.3-0.5-0.4-1.3-0.4-2.3v-5.5H184.9z"/>
		<path class="st8" d="M195.2,84.3h-2.4V72h2.4V84.3z"/>
		<path class="st8" d="M196.5,77v-1.7h1.3v-2.5h2.3v2.5h1.5V77h-1.5v4.8c0,0.4,0,0.6,0.1,0.7c0.1,0.1,0.4,0.1,0.9,0.1
			c0.1,0,0.1,0,0.2,0s0.2,0,0.2,0v1.8l-1.1,0c-1.1,0-1.9-0.2-2.3-0.6c-0.3-0.3-0.4-0.7-0.4-1.3V77H196.5z"/>
		<path class="st8" d="M205.3,75.2v5.5c0,0.5,0.1,0.9,0.2,1.2c0.2,0.5,0.6,0.7,1.3,0.7c0.8,0,1.4-0.3,1.7-1c0.2-0.4,0.2-0.8,0.2-1.4
			v-4.9h2.4v9h-2.3V83c0,0-0.1,0.1-0.2,0.2c-0.1,0.1-0.2,0.3-0.3,0.4c-0.4,0.3-0.7,0.6-1.1,0.7s-0.7,0.2-1.2,0.2
			c-1.3,0-2.2-0.5-2.7-1.4c-0.3-0.5-0.4-1.3-0.4-2.3v-5.5H205.3z"/>
		<path class="st8" d="M218.2,75c0,0,0.1,0,0.2,0v2.4c-0.1,0-0.3,0-0.4,0s-0.2,0-0.3,0c-1,0-1.6,0.3-1.9,0.9
			c-0.2,0.3-0.3,0.9-0.3,1.6v4.3h-2.4v-9h2.3v1.6c0.4-0.6,0.7-1,1-1.2c0.4-0.4,1-0.6,1.7-0.6C218.2,75,218.2,75,218.2,75z"/>
		<path class="st8" d="M223.3,78.8c0.4-0.1,0.8-0.1,0.9-0.2c0.3-0.1,0.5-0.4,0.5-0.7c0-0.4-0.1-0.6-0.4-0.8
			c-0.3-0.1-0.6-0.2-1.1-0.2c-0.6,0-1,0.1-1.2,0.4c-0.2,0.2-0.3,0.5-0.3,0.8h-2.3c0-0.8,0.3-1.4,0.7-2c0.6-0.8,1.7-1.2,3.2-1.2
			c1,0,1.9,0.2,2.7,0.6c0.8,0.4,1.2,1.1,1.2,2.2V82c0,0.3,0,0.6,0,1c0,0.3,0.1,0.5,0.1,0.6c0.1,0.1,0.2,0.2,0.3,0.3v0.3H225
			c-0.1-0.2-0.1-0.4-0.1-0.5c0-0.2,0-0.3-0.1-0.5c-0.3,0.4-0.7,0.7-1.1,0.9c-0.5,0.3-1.1,0.4-1.7,0.4c-0.8,0-1.5-0.2-2-0.7
			s-0.8-1.1-0.8-2c0-1.1,0.4-1.9,1.3-2.4c0.5-0.3,1.2-0.5,2.1-0.6L223.3,78.8z M224.7,79.9c-0.2,0.1-0.3,0.2-0.5,0.2
			c-0.2,0.1-0.4,0.1-0.6,0.2l-0.5,0.1c-0.5,0.1-0.9,0.2-1.1,0.3c-0.4,0.2-0.6,0.6-0.6,1c0,0.4,0.1,0.7,0.3,0.9s0.5,0.3,0.8,0.3
			c0.5,0,1-0.2,1.4-0.4s0.7-0.8,0.7-1.6V79.9z"/>
		<path class="st8" d="M231.4,84.3h-2.4V72h2.4V84.3z"/>
		<path class="st8" d="M241.8,78.8c0.4-0.1,0.8-0.1,0.9-0.2c0.3-0.1,0.5-0.4,0.5-0.7c0-0.4-0.1-0.6-0.4-0.8
			c-0.3-0.1-0.6-0.2-1.1-0.2c-0.6,0-1,0.1-1.2,0.4c-0.2,0.2-0.3,0.5-0.3,0.8h-2.3c0-0.8,0.3-1.4,0.7-2c0.6-0.8,1.7-1.2,3.2-1.2
			c1,0,1.9,0.2,2.7,0.6c0.8,0.4,1.2,1.1,1.2,2.2V82c0,0.3,0,0.6,0,1c0,0.3,0.1,0.5,0.1,0.6c0.1,0.1,0.2,0.2,0.3,0.3v0.3h-2.6
			c-0.1-0.2-0.1-0.4-0.1-0.5c0-0.2,0-0.3-0.1-0.5c-0.3,0.4-0.7,0.7-1.1,0.9c-0.5,0.3-1.1,0.4-1.7,0.4c-0.8,0-1.5-0.2-2-0.7
			s-0.8-1.1-0.8-2c0-1.1,0.4-1.9,1.3-2.4c0.5-0.3,1.2-0.5,2.1-0.6L241.8,78.8z M243.3,79.9c-0.2,0.1-0.3,0.2-0.5,0.2
			c-0.2,0.1-0.4,0.1-0.6,0.2l-0.5,0.1c-0.5,0.1-0.9,0.2-1.1,0.3c-0.4,0.2-0.6,0.6-0.6,1c0,0.4,0.1,0.7,0.3,0.9s0.5,0.3,0.8,0.3
			c0.5,0,1-0.2,1.4-0.4s0.7-0.8,0.7-1.6V79.9z"/>
		<path class="st8" d="M254.9,75.7c0.6,0.5,0.9,1.3,0.9,2.4v6.1h-2.4v-5.5c0-0.5-0.1-0.8-0.2-1.1c-0.2-0.5-0.7-0.7-1.3-0.7
			c-0.8,0-1.3,0.3-1.6,1c-0.2,0.4-0.2,0.8-0.2,1.4v4.9h-2.4v-9h2.3v1.3c0.3-0.5,0.6-0.8,0.9-1c0.5-0.4,1.1-0.5,1.8-0.5
			C253.5,75,254.3,75.3,254.9,75.7z"/>
		<path class="st8" d="M262.6,75.4c0.4,0.2,0.8,0.6,1,1v-4.3h2.4v12.2h-2.3V83c-0.3,0.5-0.7,0.9-1.2,1.2s-1,0.4-1.6,0.4
			c-1.1,0-1.9-0.4-2.7-1.3c-0.7-0.9-1.1-2-1.1-3.3c0-1.5,0.4-2.8,1.1-3.6c0.7-0.9,1.7-1.3,2.9-1.3C261.7,75,262.2,75.1,262.6,75.4z
			 M263.2,81.8c0.3-0.5,0.5-1.1,0.5-1.9c0-1.1-0.3-1.9-0.8-2.4c-0.3-0.3-0.7-0.4-1.2-0.4c-0.7,0-1.2,0.3-1.5,0.8
			c-0.3,0.5-0.5,1.2-0.5,1.9c0,0.8,0.2,1.5,0.5,2s0.8,0.8,1.5,0.8C262.4,82.6,262.9,82.3,263.2,81.8z"/>
		<path class="st8" d="M177.3,93.7c1-1,2.2-1.5,3.8-1.5c2,0,3.5,0.7,4.5,2c0.5,0.8,0.8,1.5,0.8,2.3h-2.6c-0.2-0.6-0.4-1-0.6-1.3
			c-0.5-0.5-1.1-0.8-2-0.8c-0.9,0-1.6,0.4-2.2,1.1c-0.5,0.8-0.8,1.8-0.8,3.2s0.3,2.4,0.8,3.1c0.6,0.7,1.3,1,2.1,1
			c0.9,0,1.5-0.3,2-0.9c0.3-0.3,0.5-0.8,0.6-1.4h2.5c-0.2,1.3-0.8,2.4-1.7,3.3s-2.1,1.3-3.5,1.3c-1.7,0-3.1-0.6-4.1-1.7
			c-1-1.1-1.5-2.7-1.5-4.7C175.6,96.5,176.2,94.9,177.3,93.7z"/>
		<path class="st8" d="M193.2,95.4c0,0,0.1,0,0.2,0v2.4c-0.1,0-0.3,0-0.4,0s-0.2,0-0.3,0c-1,0-1.6,0.3-1.9,0.9
			c-0.2,0.3-0.3,0.9-0.3,1.6v4.3h-2.4v-9h2.3v1.6c0.4-0.6,0.7-1,1-1.2c0.4-0.4,1-0.6,1.7-0.6C193.1,95.4,193.1,95.4,193.2,95.4z"/>
		<path class="st8" d="M200.5,95.8c0.6,0.3,1.2,0.7,1.6,1.3c0.4,0.5,0.6,1.2,0.7,1.9c0.1,0.4,0.1,1,0.1,1.8h-6.6
			c0,0.9,0.4,1.5,0.9,1.9c0.4,0.2,0.8,0.3,1.3,0.3c0.5,0,1-0.1,1.3-0.4c0.2-0.1,0.3-0.4,0.5-0.6h2.4c-0.1,0.5-0.4,1.1-0.9,1.6
			c-0.8,0.9-1.9,1.3-3.4,1.3c-1.2,0-2.3-0.4-3.2-1.1c-0.9-0.7-1.4-2-1.4-3.6c0-1.6,0.4-2.8,1.2-3.6c0.8-0.8,1.9-1.3,3.2-1.3
			C199.2,95.4,199.9,95.5,200.5,95.8z M197,97.9c-0.3,0.3-0.5,0.8-0.6,1.4h4.1c0-0.6-0.3-1.1-0.6-1.4c-0.4-0.3-0.8-0.5-1.4-0.5
			C197.8,97.3,197.3,97.5,197,97.9z"/>
		<path class="st8" d="M207.6,99.2c0.4-0.1,0.8-0.1,0.9-0.2c0.3-0.1,0.5-0.4,0.5-0.7c0-0.4-0.1-0.6-0.4-0.8
			c-0.3-0.1-0.6-0.2-1.1-0.2c-0.6,0-1,0.1-1.2,0.4c-0.2,0.2-0.3,0.5-0.3,0.8h-2.3c0-0.8,0.3-1.4,0.7-2c0.6-0.8,1.7-1.2,3.2-1.2
			c1,0,1.9,0.2,2.7,0.6c0.8,0.4,1.2,1.1,1.2,2.2v4.2c0,0.3,0,0.6,0,1c0,0.3,0.1,0.5,0.1,0.6c0.1,0.1,0.2,0.2,0.3,0.3v0.3h-2.6
			c-0.1-0.2-0.1-0.4-0.1-0.5c0-0.2,0-0.3-0.1-0.5c-0.3,0.4-0.7,0.7-1.1,0.9c-0.5,0.3-1.1,0.4-1.7,0.4c-0.8,0-1.5-0.2-2-0.7
			s-0.8-1.1-0.8-2c0-1.1,0.4-1.9,1.3-2.4c0.5-0.3,1.2-0.5,2.1-0.6L207.6,99.2z M209,100.3c-0.2,0.1-0.3,0.2-0.5,0.2
			c-0.2,0.1-0.4,0.1-0.6,0.2l-0.5,0.1c-0.5,0.1-0.9,0.2-1.1,0.3c-0.4,0.2-0.6,0.6-0.6,1c0,0.4,0.1,0.7,0.3,0.9s0.5,0.3,0.8,0.3
			c0.5,0,1-0.2,1.4-0.4s0.7-0.8,0.7-1.6V100.3z"/>
		<path class="st8" d="M212.4,97.4v-1.7h1.3v-2.5h2.3v2.5h1.5v1.7H216v4.8c0,0.4,0,0.6,0.1,0.7c0.1,0.1,0.4,0.1,0.9,0.1
			c0.1,0,0.1,0,0.2,0s0.2,0,0.2,0v1.8l-1.1,0c-1.1,0-1.9-0.2-2.3-0.6c-0.3-0.3-0.4-0.7-0.4-1.3v-5.6H212.4z"/>
		<path class="st8" d="M221.3,94.6h-2.4v-2.2h2.4V94.6z M218.9,95.6h2.4v9h-2.4V95.6z"/>
		<path class="st8" d="M229,95.6h2.5l-3.3,9h-2.5l-3.2-9h2.7l1.9,6.7L229,95.6z"/>
		<path class="st8" d="M238.7,95.8c0.6,0.3,1.2,0.7,1.6,1.3c0.4,0.5,0.6,1.2,0.7,1.9c0.1,0.4,0.1,1,0.1,1.8h-6.6
			c0,0.9,0.4,1.5,0.9,1.9c0.4,0.2,0.8,0.3,1.3,0.3c0.5,0,1-0.1,1.3-0.4c0.2-0.1,0.3-0.4,0.5-0.6h2.4c-0.1,0.5-0.4,1.1-0.9,1.6
			c-0.8,0.9-1.9,1.3-3.4,1.3c-1.2,0-2.3-0.4-3.2-1.1s-1.4-2-1.4-3.6c0-1.6,0.4-2.8,1.2-3.6c0.8-0.8,1.9-1.3,3.2-1.3
			C237.3,95.4,238.1,95.5,238.7,95.8z M235.1,97.9c-0.3,0.3-0.5,0.8-0.6,1.4h4.1c0-0.6-0.3-1.1-0.6-1.4c-0.4-0.3-0.8-0.5-1.4-0.5
			C236,97.3,235.5,97.5,235.1,97.9z"/>
		<path class="st8" d="M250.3,99.2c0.4-0.1,0.8-0.1,0.9-0.2c0.3-0.1,0.5-0.4,0.5-0.7c0-0.4-0.1-0.6-0.4-0.8
			c-0.3-0.1-0.6-0.2-1.1-0.2c-0.6,0-1,0.1-1.2,0.4c-0.2,0.2-0.3,0.5-0.3,0.8h-2.3c0-0.8,0.3-1.4,0.7-2c0.6-0.8,1.7-1.2,3.2-1.2
			c1,0,1.9,0.2,2.7,0.6c0.8,0.4,1.2,1.1,1.2,2.2v4.2c0,0.3,0,0.6,0,1c0,0.3,0.1,0.5,0.1,0.6c0.1,0.1,0.2,0.2,0.3,0.3v0.3h-2.6
			c-0.1-0.2-0.1-0.4-0.1-0.5c0-0.2,0-0.3-0.1-0.5c-0.3,0.4-0.7,0.7-1.1,0.9c-0.5,0.3-1.1,0.4-1.7,0.4c-0.8,0-1.5-0.2-2-0.7
			s-0.8-1.1-0.8-2c0-1.1,0.4-1.9,1.3-2.4c0.5-0.3,1.2-0.5,2.1-0.6L250.3,99.2z M251.8,100.3c-0.2,0.1-0.3,0.2-0.5,0.2
			c-0.2,0.1-0.4,0.1-0.6,0.2l-0.5,0.1c-0.5,0.1-0.9,0.2-1.1,0.3c-0.4,0.2-0.6,0.6-0.6,1c0,0.4,0.1,0.7,0.3,0.9s0.5,0.3,0.8,0.3
			c0.5,0,1-0.2,1.4-0.4s0.7-0.8,0.7-1.6V100.3z"/>
		<path class="st8" d="M261.1,95.4c0,0,0.1,0,0.2,0v2.4c-0.1,0-0.3,0-0.4,0s-0.2,0-0.3,0c-1,0-1.6,0.3-1.9,0.9
			c-0.2,0.3-0.3,0.9-0.3,1.6v4.3H256v-9h2.3v1.6c0.4-0.6,0.7-1,1-1.2c0.4-0.4,1-0.6,1.7-0.6C261,95.4,261.1,95.4,261.1,95.4z"/>
		<path class="st8" d="M261.6,97.4v-1.7h1.3v-2.5h2.3v2.5h1.5v1.7h-1.5v4.8c0,0.4,0,0.6,0.1,0.7c0.1,0.1,0.4,0.1,0.9,0.1
			c0.1,0,0.1,0,0.2,0s0.2,0,0.2,0v1.8l-1.1,0c-1.1,0-1.9-0.2-2.3-0.6c-0.3-0.3-0.4-0.7-0.4-1.3v-5.6H261.6z"/>
	</g>
</g>
</svg>
