<svg xmlns="http://www.w3.org/2000/svg" xmlns:xlink="http://www.w3.org/1999/xlink" viewBox="0 0 328.72 187.26"><defs><style>.cls-1{fill:url(#linear-gradient);}.cls-2{fill:none;}.cls-3{isolation:isolate;}.cls-4{mix-blend-mode:overlay;}.cls-5{clip-path:url(#clip-path);}.cls-6{opacity:0.27;}.cls-12,.cls-22,.cls-24,.cls-31,.cls-34,.cls-6,.cls-64,.cls-68,.cls-70,.cls-71,.cls-72,.cls-74{mix-blend-mode:multiply;}.cls-7{fill:url(#linear-gradient-4);}.cls-13,.cls-8{fill:#fff;}.cls-9{fill:#ace6f4;}.cls-10{fill:#ffd518;}.cls-11{fill:#f7c200;}.cls-12{fill:#bbe3ed;}.cls-13{mix-blend-mode:soft-light;}.cls-14{fill:#936037;}.cls-15{fill:#3ae647;}.cls-16{fill:#47ff56;}.cls-17{fill:#db4aff;}.cls-18{fill:#de59ff;}.cls-19{fill:#7d4e24;}.cls-20{fill:#b17f4a;}.cls-21{fill:#a3b7b6;}.cls-22{fill:url(#linear-gradient-5);}.cls-23{fill:#94c3c4;}.cls-24{fill:url(#linear-gradient-6);}.cls-25{fill:#c6e5e5;}.cls-26{fill:#cc1285;}.cls-27,.cls-33,.cls-35,.cls-36,.cls-37,.cls-38,.cls-39,.cls-40,.cls-41,.cls-42,.cls-43,.cls-44,.cls-45,.cls-46,.cls-47,.cls-48,.cls-49,.cls-50,.cls-51,.cls-53,.cls-57,.cls-59,.cls-62,.cls-66,.cls-69,.cls-73,.cls-75,.cls-76,.cls-77,.cls-78,.cls-79,.cls-80,.cls-81,.cls-82,.cls-83,.cls-84,.cls-85,.cls-86,.cls-87,.cls-88,.cls-89,.cls-90,.cls-91,.cls-92,.cls-94,.cls-96{mix-blend-mode:screen;}.cls-27{fill:url(#linear-gradient-7);}.cls-28{fill:#d60975;}.cls-29{fill:#a30759;}.cls-30{fill:#c1d3d3;}.cls-31{fill:url(#linear-gradient-8);}.cls-32{fill:#6ca9ad;}.cls-33{fill:url(#linear-gradient-9);}.cls-34{fill:url(#linear-gradient-10);}.cls-35{fill:url(#linear-gradient-11);}.cls-36{fill:url(#radial-gradient);}.cls-37{fill:url(#radial-gradient-2);}.cls-38{fill:url(#radial-gradient-3);}.cls-39{fill:url(#radial-gradient-4);}.cls-40{fill:url(#radial-gradient-5);}.cls-41{fill:url(#radial-gradient-6);}.cls-42{fill:url(#radial-gradient-7);}.cls-43{fill:url(#radial-gradient-8);}.cls-44{fill:url(#radial-gradient-9);}.cls-45{fill:url(#radial-gradient-10);}.cls-46{fill:url(#radial-gradient-11);}.cls-47{fill:url(#radial-gradient-12);}.cls-48{fill:url(#radial-gradient-13);}.cls-49{fill:url(#radial-gradient-14);}.cls-50{fill:url(#linear-gradient-12);}.cls-51{fill:url(#linear-gradient-13);}.cls-52{clip-path:url(#clip-path-2);}.cls-53{fill:url(#radial-gradient-15);}.cls-54{clip-path:url(#clip-path-3);}.cls-100,.cls-102,.cls-55,.cls-61,.cls-98{mix-blend-mode:color-dodge;}.cls-55{fill:url(#radial-gradient-16);}.cls-56{clip-path:url(#clip-path-4);}.cls-57{fill:url(#radial-gradient-17);}.cls-58{clip-path:url(#clip-path-5);}.cls-59{fill:url(#radial-gradient-18);}.cls-60{clip-path:url(#clip-path-6);}.cls-61{fill:url(#radial-gradient-19);}.cls-62{fill:url(#linear-gradient-14);}.cls-63{fill:#fa0;}.cls-64{fill:url(#linear-gradient-15);}.cls-65{fill:#ff8c08;}.cls-66{fill:url(#linear-gradient-16);}.cls-67{fill:#ea8003;}.cls-68{fill:url(#linear-gradient-17);}.cls-69{fill:url(#linear-gradient-18);}.cls-70{fill:url(#linear-gradient-19);}.cls-71{fill:url(#linear-gradient-20);}.cls-72{fill:url(#linear-gradient-21);}.cls-73{fill:url(#linear-gradient-22);}.cls-74{fill:url(#linear-gradient-23);}.cls-75{fill:url(#linear-gradient-24);}.cls-76{fill:url(#linear-gradient-25);}.cls-77{fill:url(#radial-gradient-20);}.cls-78{fill:url(#radial-gradient-21);}.cls-79{fill:url(#radial-gradient-22);}.cls-80{fill:url(#radial-gradient-23);}.cls-81{fill:url(#radial-gradient-24);}.cls-82{fill:url(#radial-gradient-25);}.cls-83{fill:url(#radial-gradient-26);}.cls-84{fill:url(#radial-gradient-27);}.cls-85{fill:url(#radial-gradient-28);}.cls-86{fill:url(#radial-gradient-29);}.cls-87{fill:url(#radial-gradient-30);}.cls-88{fill:url(#radial-gradient-31);}.cls-89{fill:url(#radial-gradient-32);}.cls-90{fill:url(#radial-gradient-33);}.cls-91{fill:url(#radial-gradient-34);}.cls-92{fill:url(#radial-gradient-35);}.cls-93{clip-path:url(#clip-path-7);}.cls-94{fill:url(#radial-gradient-36);}.cls-95{clip-path:url(#clip-path-8);}.cls-96{fill:url(#radial-gradient-37);}.cls-97{clip-path:url(#clip-path-9);}.cls-98{fill:url(#radial-gradient-38);}.cls-99{clip-path:url(#clip-path-10);}.cls-100{fill:url(#radial-gradient-39);}.cls-101{clip-path:url(#clip-path-11);}.cls-102{fill:url(#radial-gradient-40);}.cls-103{fill:#d46600;}</style><linearGradient id="linear-gradient" x1="35.72" y1="104.01" x2="328.72" y2="104.01" gradientUnits="userSpaceOnUse"><stop offset="0" stop-color="#014bb6"/><stop offset="1" stop-color="#0071bc"/></linearGradient><clipPath id="clip-path"><rect class="cls-1" x="35.72" y="42.51" width="293" height="123" rx="11.19"/></clipPath><linearGradient id="linear-gradient-4" x1="0" y1="93.63" x2="202.41" y2="93.63" xlink:href="#linear-gradient"/><linearGradient id="linear-gradient-5" x1="72.96" y1="63.39" x2="83.03" y2="75.27" gradientUnits="userSpaceOnUse"><stop offset="0.2" stop-color="#a6b6bf"/><stop offset="0.38" stop-color="#ced6dc"/><stop offset="0.5" stop-color="#e2e7eb"/><stop offset="0.65" stop-color="#eef1f3"/><stop offset="0.84" stop-color="#f9fafb"/><stop offset="1" stop-color="#fff"/></linearGradient><linearGradient id="linear-gradient-6" x1="77.39" y1="66.09" x2="77.39" y2="76.09" xlink:href="#linear-gradient-5"/><linearGradient id="linear-gradient-7" x1="73.75" y1="127.82" x2="78.16" y2="110.81" gradientUnits="userSpaceOnUse"><stop offset="0" stop-color="#ff82e4"/><stop offset="1" stop-color="#a14297"/></linearGradient><linearGradient id="linear-gradient-8" x1="58.55" y1="99.65" x2="93.91" y2="103.73" xlink:href="#linear-gradient-5"/><linearGradient id="linear-gradient-9" x1="61.62" y1="198.06" x2="89.89" y2="72.15" gradientUnits="userSpaceOnUse"><stop offset="0.11" stop-color="#fff"/><stop offset="1"/></linearGradient><linearGradient id="linear-gradient-10" x1="77.39" y1="68.71" x2="77.39" y2="92.11" xlink:href="#linear-gradient-5"/><linearGradient id="linear-gradient-11" x1="68.57" y1="72.31" x2="80.99" y2="88.57" gradientUnits="userSpaceOnUse"><stop offset="0" stop-color="#fff"/><stop offset="1"/></linearGradient><radialGradient id="radial-gradient" cx="64.5" cy="120.6" r="1.04" gradientTransform="translate(-3.62) scale(1.06 1)" gradientUnits="userSpaceOnUse"><stop offset="0" stop-color="#b8b5ab"/><stop offset="0.26" stop-color="#454440"/><stop offset="0.52" stop-color="#111110"/><stop offset="0.8"/><stop offset="0.99" stop-color="#100f0e"/></radialGradient><radialGradient id="radial-gradient-2" cx="86.97" cy="123.17" r="1.04" xlink:href="#radial-gradient"/><radialGradient id="radial-gradient-3" cx="76.01" cy="118.84" r="1.04" xlink:href="#radial-gradient"/><radialGradient id="radial-gradient-4" cx="76.89" cy="130.23" r="1.04" xlink:href="#radial-gradient"/><radialGradient id="radial-gradient-5" cx="73.01" cy="123.38" r="2.53" xlink:href="#radial-gradient"/><radialGradient id="radial-gradient-6" cx="89.05" cy="124.66" r="2.53" xlink:href="#radial-gradient"/><radialGradient id="radial-gradient-7" cx="66.27" cy="125.45" r="2.53" xlink:href="#radial-gradient"/><radialGradient id="radial-gradient-8" cx="75.05" cy="128.38" r="1.38" xlink:href="#radial-gradient"/><radialGradient id="radial-gradient-9" cx="79.61" cy="124.79" r="1.38" xlink:href="#radial-gradient"/><radialGradient id="radial-gradient-10" cx="71.91" cy="121.24" r="1.86" xlink:href="#radial-gradient"/><radialGradient id="radial-gradient-11" cx="82.12" cy="120.24" r="1.86" xlink:href="#radial-gradient"/><radialGradient id="radial-gradient-12" cx="87.97" cy="118.49" r="1.86" xlink:href="#radial-gradient"/><radialGradient id="radial-gradient-13" cx="69.09" cy="128.31" r="1.86" xlink:href="#radial-gradient"/><radialGradient id="radial-gradient-14" cx="81.68" cy="129.88" r="1.86" xlink:href="#radial-gradient"/><linearGradient id="linear-gradient-12" x1="77.39" y1="136.74" x2="77.39" y2="111.13" gradientUnits="userSpaceOnUse"><stop offset="0.04" stop-color="#f799ff"/><stop offset="0.11" stop-color="#f369ff"/><stop offset="0.21" stop-color="#9940a1"/><stop offset="0.3" stop-color="#5f2e62"/><stop offset="0.45" stop-color="#2b152c"/><stop offset="0.63" stop-color="#120912"/><stop offset="0.82" stop-color="#080408"/><stop offset="1"/></linearGradient><linearGradient id="linear-gradient-13" x1="57.48" y1="98.67" x2="80.58" y2="122.62" xlink:href="#linear-gradient-11"/><clipPath id="clip-path-2"><path class="cls-2" d="M84.63,72.16c-.51.1-1.06.18-1.64.25a46.37,46.37,0,0,1-11.21,0c-.58-.07-1.12-.15-1.63-.25a10.18,10.18,0,0,1-3.85-1.3,1.77,1.77,0,0,1,0-3,1,1,0,0,0-.52.72C65.78,69.88,71,71,77.4,71S89,69.88,89,68.54c0-.24-.19-.49-.53-.72a1.77,1.77,0,0,1,0,3h0A10.18,10.18,0,0,1,84.63,72.16Z"/></clipPath><radialGradient id="radial-gradient-15" cx="-775.21" cy="-426.31" r="0.02" gradientTransform="matrix(16.23, -68.52, 273.92, 57.47, 129424.82, -28542.18)" gradientUnits="userSpaceOnUse"><stop offset="0.11" stop-color="#d1d6ff"/><stop offset="0.2" stop-color="#a3a6c6"/><stop offset="0.32" stop-color="#6f7187"/><stop offset="0.47" stop-color="#444653"/><stop offset="0.67" stop-color="#1d1e24"/><stop offset="0.82" stop-color="#08080a"/><stop offset="1"/></radialGradient><clipPath id="clip-path-3"><path class="cls-2" d="M94.79,125.82a91.59,91.59,0,0,0-3.5-12.17.28.28,0,0,1,0,.09c0,2.58-6.24,4.67-13.92,4.67s-13.91-2.09-13.93-4.67A87.75,87.75,0,0,0,60,125.86a8.79,8.79,0,0,0-.14,1.39c0,9.65,35.09,9.65,35.09,0A8.24,8.24,0,0,0,94.79,125.82Z"/></clipPath><radialGradient id="radial-gradient-16" cx="-1019.44" cy="-134.64" r="6.39" gradientTransform="matrix(-2.32, -6.96, 2.47, -0.73, -1940.56, -7074.56)" gradientUnits="userSpaceOnUse"><stop offset="0" stop-color="#d1d6ff"/><stop offset="0.05" stop-color="#75798f"/><stop offset="0.09" stop-color="#515463"/><stop offset="0.17" stop-color="#272930"/><stop offset="0.35" stop-color="#17181c"/><stop offset="0.52" stop-color="#101114"/><stop offset="0.75" stop-color="#070809"/><stop offset="1"/></radialGradient><clipPath id="clip-path-4"><path class="cls-2" d="M94.79,125.82a91.59,91.59,0,0,0-3.5-12.17l-.3-.9c-3.49-10.14-8-21.67-8-22.68h0c0,.85-2.52,1.53-5.59,1.53s-5.57-.68-5.6-1.53c0,1-4.49,12.47-8,22.59l-.38,1.08h0A87.75,87.75,0,0,0,60,125.86a8.79,8.79,0,0,0-.14,1.39c0,9.65,35.09,9.65,35.09,0A8.24,8.24,0,0,0,94.79,125.82Z"/></clipPath><radialGradient id="radial-gradient-17" cx="-792.03" cy="-432.57" r="0.1" gradientTransform="matrix(-65.8, 18.52, -126.34, -397.62, -106683.44, -157215.38)" xlink:href="#radial-gradient-15"/><clipPath id="clip-path-5"><path class="cls-2" d="M77.4,72.75a43.51,43.51,0,0,1-5.62-.34V90.06h0c0,.85,2.52,1.53,5.6,1.53S83,90.92,83,90.07h0V72.41A43.25,43.25,0,0,1,77.4,72.75Z"/></clipPath><radialGradient id="radial-gradient-18" cx="-798.43" cy="-432.12" r="0.05" gradientTransform="matrix(-51.17, 0.83, -7.69, -414.97, -44097.66, -178571.15)" xlink:href="#radial-gradient-15"/><clipPath id="clip-path-6"><path class="cls-2" d="M77.38,67.37c4.36,0,7.9.55,7.9,1.23s-3.54,1.24-7.9,1.24-7.91-.55-7.91-1.24S73,67.37,77.38,67.37Z"/></clipPath><radialGradient id="radial-gradient-19" cx="-771.45" cy="-428.37" r="0.02" gradientTransform="matrix(27.28, -276, 638.83, 55.92, 294781.39, -188898.12)" gradientUnits="userSpaceOnUse"><stop offset="0" stop-color="#d1d6ff"/><stop offset="0.04" stop-color="#75798f"/><stop offset="0.07" stop-color="#515463"/><stop offset="0.17" stop-color="#272930"/><stop offset="0.35" stop-color="#17181c"/><stop offset="0.52" stop-color="#101114"/><stop offset="0.75" stop-color="#070809"/><stop offset="1"/></radialGradient><linearGradient id="linear-gradient-14" x1="101.09" y1="169.11" x2="101.09" y2="96.23" xlink:href="#linear-gradient-9"/><linearGradient id="linear-gradient-15" x1="99.79" y1="131.53" x2="103.22" y2="100.12" xlink:href="#linear-gradient-5"/><linearGradient id="linear-gradient-16" x1="101.09" y1="133.13" x2="101.09" y2="115.96" gradientUnits="userSpaceOnUse"><stop offset="0" stop-color="#fff9db"/><stop offset="1" stop-color="#59522c"/></linearGradient><linearGradient id="linear-gradient-17" x1="101.09" y1="88.19" x2="101.09" y2="96.04" xlink:href="#linear-gradient-5"/><linearGradient id="linear-gradient-18" x1="86.55" y1="93.89" x2="107.42" y2="86.15" xlink:href="#linear-gradient-9"/><linearGradient id="linear-gradient-19" x1="101.04" y1="91.26" x2="101.04" y2="103.36" xlink:href="#linear-gradient-5"/><linearGradient id="linear-gradient-20" x1="101.09" y1="91.26" x2="101.09" y2="103.36" xlink:href="#linear-gradient-5"/><linearGradient id="linear-gradient-21" x1="96.48" y1="84.59" x2="107.51" y2="94.12" xlink:href="#linear-gradient-5"/><linearGradient id="linear-gradient-22" x1="90.48" y1="93.57" x2="102.12" y2="102.9" xlink:href="#linear-gradient-11"/><linearGradient id="linear-gradient-23" x1="101.09" y1="122" x2="101.09" y2="144.63" gradientUnits="userSpaceOnUse"><stop offset="0.16" stop-color="#eb9f07"/><stop offset="0.42" stop-color="#f7d99d"/><stop offset="0.57" stop-color="#fbeccd"/><stop offset="0.8" stop-color="#fef9ef"/><stop offset="1" stop-color="#fff"/></linearGradient><linearGradient id="linear-gradient-24" x1="101.09" y1="146.33" x2="101.09" y2="130.47" gradientUnits="userSpaceOnUse"><stop offset="0" stop-color="#fff2b0"/><stop offset="1"/></linearGradient><linearGradient id="linear-gradient-25" x1="82.05" y1="110.85" x2="97.05" y2="124.81" xlink:href="#linear-gradient-9"/><radialGradient id="radial-gradient-20" cx="102.33" cy="127.46" r="0.55" xlink:href="#radial-gradient"/><radialGradient id="radial-gradient-21" cx="92.26" cy="136.57" r="0.55" xlink:href="#radial-gradient"/><radialGradient id="radial-gradient-22" cx="106.69" cy="128.14" r="0.55" xlink:href="#radial-gradient"/><radialGradient id="radial-gradient-23" cx="109.48" cy="131.59" r="0.55" xlink:href="#radial-gradient"/><radialGradient id="radial-gradient-24" cx="88.26" cy="127.93" r="0.55" xlink:href="#radial-gradient"/><radialGradient id="radial-gradient-25" cx="96.13" cy="136.11" r="0.55" xlink:href="#radial-gradient"/><radialGradient id="radial-gradient-26" cx="99.31" cy="128.25" r="1.34" xlink:href="#radial-gradient"/><radialGradient id="radial-gradient-27" cx="107.79" cy="128.93" r="1.34" xlink:href="#radial-gradient"/><radialGradient id="radial-gradient-28" cx="96.69" cy="137.36" r="1.34" xlink:href="#radial-gradient"/><radialGradient id="radial-gradient-29" cx="100.39" cy="130.9" r="0.73" xlink:href="#radial-gradient"/><radialGradient id="radial-gradient-30" cx="98.33" cy="136.49" r="0.73" xlink:href="#radial-gradient"/><radialGradient id="radial-gradient-31" cx="96.41" cy="128.12" r="0.98" xlink:href="#radial-gradient"/><radialGradient id="radial-gradient-32" cx="102.69" cy="135.46" r="0.98" xlink:href="#radial-gradient"/><radialGradient id="radial-gradient-33" cx="111.36" cy="126.81" r="0.98" xlink:href="#radial-gradient"/><radialGradient id="radial-gradient-34" cx="97.24" cy="133.42" r="0.99" xlink:href="#radial-gradient"/><radialGradient id="radial-gradient-35" cx="99.43" cy="139.19" r="0.98" xlink:href="#radial-gradient"/><clipPath id="clip-path-7"><path class="cls-2" d="M109.34,91.85a7.51,7.51,0,0,1-.93.37,27.53,27.53,0,0,1-14.74,0c-.3-.11-.57-.22-.83-.34a4.08,4.08,0,0,1-1.17-.76h0a2.33,2.33,0,0,1,0-3.4h0a1.09,1.09,0,0,0-.45.81c0,1.5,4.42,2.72,9.87,2.72S111,90,111,88.5a1.08,1.08,0,0,0-.44-.81,2.34,2.34,0,0,1,0,3.4A4.15,4.15,0,0,1,109.34,91.85Z"/></clipPath><radialGradient id="radial-gradient-36" cx="-775.42" cy="-426.21" r="0.02" xlink:href="#radial-gradient-15"/><clipPath id="clip-path-8"><path class="cls-2" d="M108.42,104a.41.41,0,0,1,0-.11V92.22a27.53,27.53,0,0,1-14.74,0v11.73s0,.07,0,.1l.15,0a1.09,1.09,0,0,0,0,.26c0,1.46,3.27,2.63,7.31,2.63s7.32-1.17,7.32-2.63a.75.75,0,0,0,0-.26Z"/></clipPath><radialGradient id="radial-gradient-37" cx="-818.28" cy="-436.83" r="0.09" gradientTransform="matrix(-22.14, 0.16, -0.88, -104.7, -18397.52, -45502.61)" xlink:href="#radial-gradient-15"/><clipPath id="clip-path-9"><path class="cls-2" d="M121.08,119.62H121a2.19,2.19,0,0,1,0,.36c0,3.9-8.93,7-20,7s-19.94-3.15-19.94-7c0-.12,0-.24,0-.36H81.1a18.08,18.08,0,0,0-.1,1.84c0,7.71,3.64,13.67,9.42,16.89A22.2,22.2,0,0,0,101.31,141a21.42,21.42,0,0,0,10.35-2.52c5.81-3.18,9.53-9.2,9.53-17A15.55,15.55,0,0,0,121.08,119.62Z"/></clipPath><radialGradient id="radial-gradient-38" cx="-779.11" cy="-430.97" r="0.07" gradientTransform="matrix(-252.1, -130.68, 268.2, -458.74, -80706.58, -299392.24)" xlink:href="#radial-gradient-19"/><clipPath id="clip-path-10"><path class="cls-2" d="M110.52,87.69a1.08,1.08,0,0,1,.44.81c0,1.5-4.41,2.72-9.87,2.72S91.22,90,91.22,88.5a1.09,1.09,0,0,1,.45-.81c1.25-1.11,5-1.91,9.42-1.91S109.27,86.58,110.52,87.69Zm-2.72.87c0-.76-3-1.38-6.72-1.38s-6.72.62-6.72,1.38,3,1.39,6.72,1.39S107.8,89.33,107.8,88.56Z"/></clipPath><radialGradient id="radial-gradient-39" cx="-772.5" cy="-426.88" r="0.02" gradientTransform="matrix(38.15, -161.12, 320.08, 67.15, 166198.67, -95710.61)" xlink:href="#radial-gradient-19"/><clipPath id="clip-path-11"><path class="cls-2" d="M101.08,87.18c3.71,0,6.72.62,6.72,1.38s-3,1.39-6.72,1.39-6.72-.62-6.72-1.39S97.36,87.18,101.08,87.18Z"/></clipPath><radialGradient id="radial-gradient-40" cx="-771.22" cy="-428.25" r="0.02" gradientTransform="matrix(57.88, -271.78, 629.07, 118.71, 314142.91, -158678.61)" xlink:href="#radial-gradient-19"/></defs><title>Asset 4</title><g class="cls-3"><g id="Layer_2" data-name="Layer 2"><g id="Layer_1-2" data-name="Layer 1"><g class="cls-4"><rect class="cls-1" x="35.72" y="42.51" width="293" height="123" rx="11.19"/><g class="cls-5"><rect class="cls-1" x="35.72" y="42.51" width="293" height="123" rx="11.19"/><g class="cls-6"><path class="cls-7" d="M68.53,2.8C50.1,7,28.18,20.26,17.1,35.57,7.37,49,1.13,63.44.28,80c-1.37,26.56,1.82,55.58,20.06,74.93a103.78,103.78,0,0,0,47.45,28.36c13.12,3.44,53.24,6.87,72.13,0,14.06-5.11,27.76-11.67,38.06-22.52,6.06-6.38,11.74-13.23,15.92-21C201,126.53,203.45,111,202,96S197.42,65.29,190.26,52a93.43,93.43,0,0,0-28-32.14C149.26,10.51,110.93-6.77,68.53,2.8Z"/></g></g></g><path class="cls-8" d="M220.11,127.66a5.7,5.7,0,0,1,8.23.52,4.41,4.41,0,0,1,.84,2.28h-2.56a3.36,3.36,0,0,0-.63-1.33,2.77,2.77,0,0,0-4.18.33,5.53,5.53,0,0,0-.79,3.18,4.83,4.83,0,0,0,.84,3.09,2.6,2.6,0,0,0,2.11,1,2.39,2.39,0,0,0,2-.88,3.94,3.94,0,0,0,.63-1.42h2.54a5.53,5.53,0,0,1-1.68,3.26A4.9,4.9,0,0,1,224,139a5.24,5.24,0,0,1-4.11-1.69,6.87,6.87,0,0,1-1.49-4.67A6.78,6.78,0,0,1,220.11,127.66Z"/><path class="cls-8" d="M237.41,129.62a2.65,2.65,0,0,1,1.12.89,2.31,2.31,0,0,1,.45,1,11.89,11.89,0,0,1,.09,1.75v5.32h-2.42v-5.51a2.38,2.38,0,0,0-.25-1.18,1.23,1.23,0,0,0-1.21-.63,1.67,1.67,0,0,0-1.42.63,2.87,2.87,0,0,0-.48,1.79v4.9h-2.37V126.43h2.37v4.31a2.94,2.94,0,0,1,1.19-1.1,3.29,3.29,0,0,1,1.41-.31A3.89,3.89,0,0,1,237.41,129.62Z"/><path class="cls-8" d="M247.07,129.75a3.72,3.72,0,0,1,1.56,1.34,4.46,4.46,0,0,1,.72,1.87,11.05,11.05,0,0,1,.08,1.8h-6.59a2.17,2.17,0,0,0,.95,1.91,2.35,2.35,0,0,0,1.3.34,2,2,0,0,0,1.32-.42,2,2,0,0,0,.48-.62h2.42a3,3,0,0,1-.88,1.64,4.39,4.39,0,0,1-3.4,1.32,4.89,4.89,0,0,1-3.19-1.12,4.38,4.38,0,0,1-1.38-3.62,4.92,4.92,0,0,1,1.25-3.61,4.38,4.38,0,0,1,3.23-1.25A5.19,5.19,0,0,1,247.07,129.75Zm-3.54,2.05a2.49,2.49,0,0,0-.63,1.4H247a2,2,0,0,0-.63-1.43,2.07,2.07,0,0,0-1.41-.49A1.86,1.86,0,0,0,243.53,131.8Z"/><path class="cls-8" d="M261.8,129.6a2.6,2.6,0,0,1,1.05.82,2.53,2.53,0,0,1,.52,1.16,8.72,8.72,0,0,1,.08,1.34l0,5.7H261v-5.76a1.92,1.92,0,0,0-.17-.85,1.17,1.17,0,0,0-1.16-.63,1.36,1.36,0,0,0-1.35.81,2.54,2.54,0,0,0-.19,1v5.39h-2.38v-5.39a3,3,0,0,0-.17-1.17,1.15,1.15,0,0,0-1.17-.65,1.38,1.38,0,0,0-1.36.65,2.49,2.49,0,0,0-.19,1.11v5.45h-2.4v-9h2.3v1.32a3.81,3.81,0,0,1,.83-1,2.85,2.85,0,0,1,1.78-.53,2.81,2.81,0,0,1,1.68.46,2.66,2.66,0,0,1,.78,1.09,2.88,2.88,0,0,1,1.15-1.17,3.53,3.53,0,0,1,1.63-.38A3.26,3.26,0,0,1,261.8,129.6Z"/><path class="cls-8" d="M267.94,128.49h-2.4v-2.18h2.4Zm-2.4,1.08h2.4v9.05h-2.4Z"/><path class="cls-8" d="M271.94,135.73a1.57,1.57,0,0,0,.33.9,2.22,2.22,0,0,0,1.63.47,2.51,2.51,0,0,0,1.12-.21.67.67,0,0,0,.41-.62.68.68,0,0,0-.33-.61,14.81,14.81,0,0,0-2.48-.71,5.14,5.14,0,0,1-2.17-.95,2.08,2.08,0,0,1-.63-1.63,2.83,2.83,0,0,1,1-2.16,4,4,0,0,1,2.77-.9,5.14,5.14,0,0,1,2.77.68,2.88,2.88,0,0,1,1.22,2.34h-2.36a1.39,1.39,0,0,0-.26-.72,1.6,1.6,0,0,0-1.33-.49,1.94,1.94,0,0,0-1.11.24.69.69,0,0,0-.33.57.62.62,0,0,0,.35.59,15.51,15.51,0,0,0,2.47.65,4.56,4.56,0,0,1,2.12,1,2.26,2.26,0,0,1,.7,1.7,2.71,2.71,0,0,1-1,2.19,6,6,0,0,1-6.26,0,3,3,0,0,1-1-2.3Z"/><path class="cls-8" d="M278.52,131.34v-1.69h1.26v-2.52h2.34v2.52h1.47v1.69h-1.47v4.78a1.09,1.09,0,0,0,.14.69c.09.1.38.14.86.14h.23l.24,0v1.77l-1.12,0a3,3,0,0,1-2.29-.58,1.71,1.71,0,0,1-.4-1.25v-5.57Z"/><path class="cls-8" d="M290,129.36h.21v2.43l-.4,0h-.28a2,2,0,0,0-1.92.93,3.68,3.68,0,0,0-.27,1.61v4.33H285v-9.05h2.26v1.58a4.78,4.78,0,0,1,1-1.24,2.57,2.57,0,0,1,1.72-.55Z"/><path class="cls-8" d="M291.84,140.35l.3,0a4.75,4.75,0,0,0,.66,0,1.29,1.29,0,0,0,.54-.2,1.34,1.34,0,0,0,.38-.58,1.68,1.68,0,0,0,.16-.55l-3.33-9.45h2.63l2,6.67,1.86-6.67h2.52l-3.1,8.9a12.75,12.75,0,0,1-1.42,3.19,2.72,2.72,0,0,1-2.1.62h-.51l-.57,0Z"/><path class="cls-9" d="M136.58,77.5v34.26a3.94,3.94,0,0,1-7.87,0V77.5Z"/><path class="cls-10" d="M136.06,83.22v28.49a3.41,3.41,0,1,1-6.82,0V83.22Z"/><path class="cls-11" d="M134.89,106.7a1.71,1.71,0,1,1-1.7-1.61A1.67,1.67,0,0,1,134.89,106.7Z"/><path class="cls-11" d="M133.44,103.49a1.22,1.22,0,0,1-2.43,0,1.22,1.22,0,0,1,2.43,0Z"/><path class="cls-11" d="M133.27,100.28a.6.6,0,0,1-.61.58.58.58,0,1,1,.61-.58Z"/><path class="cls-11" d="M134.8,102a.79.79,0,0,1-.82.75.76.76,0,1,1,0-1.52A.79.79,0,0,1,134.8,102Z"/><path class="cls-11" d="M133,109.53a.8.8,0,0,1-1.6,0,.8.8,0,0,1,1.6,0Z"/><path class="cls-12" d="M131,78.12V95l5.62.61-5.62.7v13.26a3.55,3.55,0,0,0,3.51,3.59,3.59,3.59,0,0,0,1.53-.36,3.51,3.51,0,0,1-6.69-1.56V78.12Z"/><path class="cls-13" d="M133.5,96.48c0,8.16.45,14.75,1,14.75s1-6.59,1-14.75-.45-14.75-1-14.75S133.5,88.33,133.5,96.48Z"/><rect class="cls-14" x="88.38" y="116.32" width="57.07" height="3.48"/><path class="cls-9" d="M127,77.77A1.47,1.47,0,0,0,128.64,79h8a1.47,1.47,0,0,0,1.62-1.26h0a1.49,1.49,0,0,0-1.62-1.28h-8A1.49,1.49,0,0,0,127,77.77Z"/><path class="cls-12" d="M128.74,76.74a.92.92,0,0,0-.39.71c0,.57.68,1,1.53,1h7.61a1.9,1.9,0,0,1-1.13.35h-7.52c-.83,0-1.51-.46-1.51-1S128,76.78,128.74,76.74Z"/><path class="cls-13" d="M137.36,77.32c0,.48-1.07.45-2.38.45s-2.36-.21-2.36-.45,1-.46,2.36-.46S137.36,76.86,137.36,77.32Z"/><path class="cls-9" d="M120.85,77.5v34.26a3.95,3.95,0,0,1-7.88,0V77.5Z"/><path class="cls-15" d="M120.32,87.86v24.36a3.44,3.44,0,0,1-6.82,0V87.86h6.82Z"/><path class="cls-16" d="M115.62,108.15a1.4,1.4,0,1,1,1.4,1.31A1.36,1.36,0,0,1,115.62,108.15Z"/><path class="cls-16" d="M116.81,110.77a1,1,0,1,1,1,.93A1,1,0,0,1,116.81,110.77Z"/><path class="cls-16" d="M117,113.39a.48.48,0,0,1,.51-.46.47.47,0,1,1,0,.93A.48.48,0,0,1,117,113.39Z"/><path class="cls-16" d="M115.71,112a.66.66,0,1,1,.66.62A.64.64,0,0,1,115.71,112Z"/><path class="cls-16" d="M117.15,105.82a.66.66,0,1,1,.65.62A.64.64,0,0,1,117.15,105.82Z"/><path class="cls-12" d="M115.21,78.12V95l5.64.61-5.64.7v13.26a3.56,3.56,0,0,0,3.52,3.59,3.51,3.51,0,0,0,1.52-.36,3.51,3.51,0,0,1-3.16,2,3.56,3.56,0,0,1-3.52-3.6V78.12Z"/><path class="cls-13" d="M117.74,96.48c0,8.16.46,14.75,1,14.75s1-6.59,1-14.75-.44-14.75-1-14.75S117.74,88.33,117.74,96.48Z"/><path class="cls-9" d="M111.27,77.77A1.49,1.49,0,0,0,112.9,79h8a1.48,1.48,0,0,0,1.63-1.26h0a1.49,1.49,0,0,0-1.63-1.28h-8a1.51,1.51,0,0,0-1.63,1.28Z"/><path class="cls-12" d="M113,76.74a.94.94,0,0,0-.38.71c0,.57.68,1,1.52,1h7.61a1.88,1.88,0,0,1-1.13.35h-7.51c-.84,0-1.52-.46-1.52-1S112.21,76.78,113,76.74Z"/><path class="cls-13" d="M121.62,77.32c0,.48-1.07.45-2.37.45s-2.38-.21-2.38-.45,1.07-.46,2.38-.46S121.62,76.86,121.62,77.32Z"/><path class="cls-9" d="M105.11,77.5v34.26a3.94,3.94,0,0,1-7.87,0V77.5Z"/><path class="cls-17" d="M104.58,84.2v27.61a3.41,3.41,0,1,1-6.81,0V84.2Z"/><path class="cls-18" d="M103,95a1.86,1.86,0,1,1-1.85-1.74A1.8,1.8,0,0,1,103,95Z"/><path class="cls-18" d="M101.44,91.5a1.33,1.33,0,1,1-1.32-1.24A1.28,1.28,0,0,1,101.44,91.5Z"/><path class="cls-18" d="M101.24,88a.66.66,0,0,1-1.32,0,.66.66,0,0,1,1.32,0Z"/><path class="cls-18" d="M102.9,89.84a.86.86,0,0,1-.88.82.83.83,0,1,1,.88-.82Z"/><path class="cls-18" d="M101,98.05a.87.87,0,0,1-1.74,0,.87.87,0,0,1,1.74,0Z"/><path class="cls-12" d="M99.47,78.12V95l5.64.61-5.64.7v13.26a3.5,3.5,0,0,0,5,3.23,3.51,3.51,0,0,1-6.7-1.56V78.12Z"/><ellipse class="cls-13" cx="103.05" cy="96.17" rx="1.01" ry="14.75"/><path class="cls-9" d="M95.54,77.77A1.47,1.47,0,0,0,97.16,79h8a1.47,1.47,0,0,0,1.63-1.26h0a1.49,1.49,0,0,0-1.63-1.28h-8a1.49,1.49,0,0,0-1.62,1.28Z"/><path class="cls-12" d="M97.27,76.74a.94.94,0,0,0-.4.71c0,.57.69,1,1.55,1H106a1.9,1.9,0,0,1-1.13.35H97.37c-.84,0-1.53-.46-1.53-1S96.47,76.78,97.27,76.74Z"/><rect class="cls-14" x="88.38" y="92.15" width="57.07" height="3.47"/><path class="cls-19" d="M92.16,92.15s-.53,2.23.83,2.33c6.48.53,47.44,1.69,48.54-.31a9,9,0,0,0,.57-2h3.35v3.47H88.38V92.15Z"/><path class="cls-19" d="M92.16,116.32s-.53,2.23.83,2.34c6.48.52,47.44,1.69,48.54-.31a9.17,9.17,0,0,0,.57-2h3.35v3.48H88.38v-3.48Z"/><path class="cls-13" d="M105.88,77.32c0,.48-1,.45-2.37.45s-2.37-.21-2.37-.45,1.06-.46,2.37-.46S105.88,76.86,105.88,77.32Z"/><path class="cls-14" d="M144.56,122h1.77a1.72,1.72,0,0,0,1.76-1.67V75.94a1.71,1.71,0,0,0-1.76-1.66h-1.77a1.71,1.71,0,0,0-1.76,1.66v44.34A1.72,1.72,0,0,0,144.56,122Z"/><path class="cls-14" d="M87.49,122h1.77A1.72,1.72,0,0,0,91,120.28V75.94a1.71,1.71,0,0,0-1.76-1.66H87.49a1.71,1.71,0,0,0-1.76,1.66v44.34A1.71,1.71,0,0,0,87.49,122Z"/><path class="cls-20" d="M93,92.83a.41.41,0,0,0,.42.41h46.89a.41.41,0,0,0,.42-.41h0a.41.41,0,0,0-.42-.39H93.43a.4.4,0,0,0-.42.39Z"/><path class="cls-20" d="M93,117.12a.4.4,0,0,0,.42.39h46.89a.41.41,0,0,0,.42-.39h0a.41.41,0,0,0-.42-.4H93.43a.4.4,0,0,0-.42.4Z"/><path class="cls-19" d="M85.73,120.28V75.94a1.59,1.59,0,0,1,.63-1.26c.09,6,.76,33.63,2,42.06.36,2.46,1.35,3.77,2.64,3.15v.39A1.72,1.72,0,0,1,89.26,122H87.49A1.71,1.71,0,0,1,85.73,120.28Z"/><path class="cls-19" d="M142.8,120.28V75.94a1.62,1.62,0,0,1,.63-1.26c.11,6,.76,33.63,2,42.06.37,2.46,1.35,3.77,2.64,3.15v.39a1.72,1.72,0,0,1-1.76,1.67h-1.77A1.72,1.72,0,0,1,142.8,120.28Z"/><path class="cls-20" d="M144.34,75h.22c2.53,0,2.76.88,2.76,3.11,0,1.75.12,22.53,0,24.27-1,.37-.53-22.51-.53-24,0-.84.28-2-.55-2.5C145.78,75.63,143.82,76,144.34,75Z"/><path class="cls-20" d="M87.38,75h.23c2.51,0,2.74.88,2.74,3.11,0,1.75.12,22.53,0,24.27-1,.37-.53-22.51-.53-24,0-.84.28-2-.55-2.5C88.82,75.63,86.86,76,87.38,75Z"/><path class="cls-21" d="M77.38,67.37c4.36,0,7.9.55,7.9,1.23s-3.54,1.24-7.9,1.24-7.91-.55-7.91-1.24S73,67.37,77.38,67.37Z"/><path class="cls-22" d="M77.38,67.37c4.36,0,7.9.55,7.9,1.23s-3.54,1.24-7.9,1.24-7.91-.55-7.91-1.24S73,67.37,77.38,67.37Z"/><path class="cls-23" d="M84.63,72.16c-.51.1-1.06.18-1.64.25a46.37,46.37,0,0,1-11.21,0c-.58-.07-1.12-.15-1.63-.25a10.18,10.18,0,0,1-3.85-1.3,1.77,1.77,0,0,1,0-3,1,1,0,0,0-.52.72C65.78,69.88,71,71,77.4,71S89,69.88,89,68.54c0-.24-.19-.49-.53-.72a1.77,1.77,0,0,1,0,3h0A10.18,10.18,0,0,1,84.63,72.16Z"/><path class="cls-24" d="M84.63,72.16c-.51.1-1.06.18-1.64.25a46.37,46.37,0,0,1-11.21,0c-.58-.07-1.12-.15-1.63-.25a10.18,10.18,0,0,1-3.85-1.3,1.77,1.77,0,0,1,0-3,1,1,0,0,0-.52.72C65.78,69.88,71,71,77.4,71S89,69.88,89,68.54c0-.24-.19-.49-.53-.72a1.77,1.77,0,0,1,0,3h0A10.18,10.18,0,0,1,84.63,72.16Z"/><path class="cls-25" d="M88.48,67.82c.34.23.53.48.53.72C89,69.88,83.8,71,77.4,71s-11.62-1.09-11.62-2.43a1,1,0,0,1,.52-.72c1.47-1,5.89-1.7,11.1-1.7S87,66.83,88.48,67.82Zm-3.2.78c0-.68-3.54-1.23-7.9-1.23s-7.91.55-7.91,1.23,3.54,1.24,7.91,1.24S85.28,69.29,85.28,68.6Z"/><path class="cls-26" d="M91.29,113.65a.28.28,0,0,1,0,.09c0,2.58-6.24,4.67-13.92,4.67s-13.91-2.09-13.93-4.67h0l.38-1.08c1.44-2.07,7-3.6,13.55-3.6s12.26,1.58,13.61,3.69Z"/><path class="cls-27" d="M91.29,113.65a.28.28,0,0,1,0,.09c0,2.58-6.24,4.67-13.92,4.67s-13.91-2.09-13.93-4.67h0l.38-1.08c1.44-2.07,7-3.6,13.55-3.6s12.26,1.58,13.61,3.69Z"/><path class="cls-28" d="M91.29,113.65a91.59,91.59,0,0,1,3.5,12.17c-1.84-3.13-8.93-5.46-17.39-5.46s-15.63,2.36-17.42,5.5a87.75,87.75,0,0,1,3.47-12.12c0,2.58,6.25,4.67,13.93,4.67s13.92-2.09,13.92-4.67A.28.28,0,0,0,91.29,113.65Z"/><path class="cls-29" d="M94.79,125.82a8.24,8.24,0,0,1,.14,1.43c0,9.65-35.09,9.65-35.09,0a8.79,8.79,0,0,1,.14-1.39c1.79-3.14,8.92-5.5,17.42-5.5S93,122.69,94.79,125.82Z"/><path class="cls-21" d="M83,90.06h0c0,.85-2.52,1.53-5.59,1.53s-5.57-.68-5.6-1.53h0c0-.85,2.51-1.54,5.6-1.54S83,89.21,83,90.06Z"/><path class="cls-30" d="M83,90.07c0,1,4.51,12.54,8,22.68-1.35-2.11-6.94-3.69-13.61-3.69s-12.11,1.53-13.55,3.6c3.46-10.12,8-21.59,8-22.59,0,.85,2.52,1.53,5.6,1.53S83,90.92,83,90.07Z"/><path class="cls-31" d="M83,90.07c0,1,4.51,12.54,8,22.68-1.35-2.11-6.94-3.69-13.61-3.69s-12.11,1.53-13.55,3.6c3.46-10.12,8-21.59,8-22.59,0,.85,2.52,1.53,5.6,1.53S83,90.92,83,90.07Z"/><path class="cls-30" d="M83,72.41V90.07h0c0-.85-2.51-1.54-5.59-1.54s-5.6.69-5.6,1.54V72.41a46.37,46.37,0,0,0,11.21,0Z"/><path class="cls-32" d="M94.79,125.82a91.59,91.59,0,0,0-3.5-12.17,1.76,1.76,0,0,0-.3-.9c-3.49-10.14-8-21.67-8-22.68V72.41c.58-.07,1.13-.15,1.64-.25V89c0,1.69,12.44,32.36,12.86,38.6s-11.16,9.25-20.09,9.26h0c-8.93,0-20.51-3-20.09-9.26S70.15,90.73,70.15,89V72.16c.51.1,1,.18,1.63.25V90.06h0c0,1-4.49,12.47-8,22.59a1.82,1.82,0,0,0-.38,1.08h0A87.75,87.75,0,0,0,60,125.86a8.79,8.79,0,0,0-.14,1.39c0,9.65,35.09,9.65,35.09,0A8.24,8.24,0,0,0,94.79,125.82Z"/><path class="cls-33" d="M94.79,125.82a91.59,91.59,0,0,0-3.5-12.17,1.76,1.76,0,0,0-.3-.9c-3.49-10.14-8-21.67-8-22.68V72.41c.58-.07,1.13-.15,1.64-.25V89c0,1.69,12.44,32.36,12.86,38.6s-11.16,9.25-20.09,9.26h0c-8.93,0-20.51-3-20.09-9.26S70.15,90.73,70.15,89V72.16c.51.1,1,.18,1.63.25V90.06h0c0,1-4.49,12.47-8,22.59a1.82,1.82,0,0,0-.38,1.08h0A87.75,87.75,0,0,0,60,125.86a8.79,8.79,0,0,0-.14,1.39c0,9.65,35.09,9.65,35.09,0A8.24,8.24,0,0,0,94.79,125.82Z"/><path class="cls-34" d="M77.4,72.75a43.51,43.51,0,0,1-5.62-.34V90.06h0c0,.85,2.52,1.53,5.6,1.53S83,90.92,83,90.07h0V72.41A43.25,43.25,0,0,1,77.4,72.75Z"/><path class="cls-35" d="M72.66,72.78V88.35h0c0,.7,2,1.28,4.46,1.35.08-5.54.27-11.06.31-16.63A40.07,40.07,0,0,1,72.66,72.78Z"/><path class="cls-36" d="M66.09,121.05a.93.93,0,1,1-.93-.88A.91.91,0,0,1,66.09,121.05Z"/><path class="cls-37" d="M90,123.62a.94.94,0,1,1-.94-.88A.91.91,0,0,1,90,123.62Z"/><path class="cls-38" d="M78.32,119.3a.94.94,0,1,1-.93-.88A.9.9,0,0,1,78.32,119.3Z"/><path class="cls-39" d="M79.25,130.68a.93.93,0,1,1-.93-.87A.91.91,0,0,1,79.25,130.68Z"/><path class="cls-40" d="M76.86,124.47a2.27,2.27,0,1,1-2.27-2.13A2.21,2.21,0,0,1,76.86,124.47Z"/><path class="cls-41" d="M93.89,125.75a2.27,2.27,0,1,1-2.26-2.13A2.2,2.2,0,0,1,93.89,125.75Z"/><path class="cls-42" d="M69.69,126.55a2.27,2.27,0,1,1-2.26-2.14A2.2,2.2,0,0,1,69.69,126.55Z"/><path class="cls-43" d="M77.69,129a1.24,1.24,0,1,1-1.24-1.16A1.2,1.2,0,0,1,77.69,129Z"/><path class="cls-44" d="M82.53,125.39a1.24,1.24,0,1,1-1.24-1.17A1.2,1.2,0,0,1,82.53,125.39Z"/><path class="cls-45" d="M74.92,122.05a1.67,1.67,0,1,1-1.67-1.57A1.62,1.62,0,0,1,74.92,122.05Z"/><path class="cls-46" d="M85.76,121.05a1.67,1.67,0,1,1-1.67-1.57A1.62,1.62,0,0,1,85.76,121.05Z"/><path class="cls-47" d="M92,119.29a1.67,1.67,0,1,1-1.67-1.57A1.63,1.63,0,0,1,92,119.29Z"/><path class="cls-48" d="M71.92,129.12a1.67,1.67,0,1,1-1.67-1.58A1.63,1.63,0,0,1,71.92,129.12Z"/><path class="cls-49" d="M85.3,130.68a1.67,1.67,0,1,1-1.67-1.57A1.63,1.63,0,0,1,85.3,130.68Z"/><path class="cls-50" d="M94.79,125.82a91.59,91.59,0,0,0-3.5-12.17.28.28,0,0,1,0,.09c0,2.58-6.24,4.67-13.92,4.67s-13.91-2.09-13.93-4.67A87.75,87.75,0,0,0,60,125.86a8.79,8.79,0,0,0-.14,1.39c0,9.65,35.09,9.65,35.09,0A8.24,8.24,0,0,0,94.79,125.82Z"/><path class="cls-51" d="M76.16,92.66c-2.4,0-4.34-.53-4.36-1.19,0,.78-5,15.74-7.67,23.63-.1.28-.2.56-.29.84h0a68.72,68.72,0,0,0-2.71,9.44,6.91,6.91,0,0,0-.11,1.08c0,3.35,5.42,5.2,11.43,5.57C72.74,120.92,76.17,92.66,76.16,92.66Z"/><g class="cls-52"><path class="cls-53" d="M70.41,69.41c3.43.73,6,2,5.84,2.86s-3.15,1-6.55.25-6-2-5.87-2.86S67,68.7,70.41,69.41Z"/></g><g class="cls-54"><path class="cls-55" d="M76.18,75.91c8.7-2.57,22.39,15.24,30.56,39.8s7.76,46.54-.95,49.11S83.41,149.57,75.23,125,67.47,78.47,76.18,75.91Z"/></g><g class="cls-56"><path class="cls-57" d="M80.44,111.13c-7-21.9-9.62-40.32-6-41.43,3.63-.92,12.15,15.93,19,37.57,6.93,21.85,9.62,40.32,6.1,41.57C95.85,149.58,87.34,132.82,80.44,111.13Z"/></g><g class="cls-58"><path class="cls-59" d="M78.91,83.84c-.21-11.6.77-20.94,2.19-21s2.74,9.36,3,20.84-.77,20.94-2.18,21.09C80.45,104.63,79.13,95.33,78.91,83.84Z"/></g><g class="cls-60"><path class="cls-61" d="M83.5,62.62c6.67.6,11.81,3.39,11.56,6.26S89.13,73.59,82.53,73s-11.82-3.38-11.61-6.25C71.29,63.9,76.88,62.05,83.5,62.62Z"/></g><path class="cls-32" d="M111.66,138.5c5.81-3.18,9.53-9.2,9.53-17a15.55,15.55,0,0,0-.11-1.84c-1.17-10.48-12.26-13.45-12.66-15.59a.41.41,0,0,1,0-.11V92.22a7.51,7.51,0,0,0,.93-.37v11.61c0,2.37,12.79,5.19,12.79,18,0,12.41-8.9,20.48-20.81,20.48-12.26,0-21.27-8.07-21.27-20.48,0-12.77,12.79-15.59,12.79-18V91.85c.26.12.53.23.83.34v11.73s0,.07,0,.1c-.37,2.14-11.39,5.1-12.56,15.6a18.08,18.08,0,0,0-.1,1.84c0,7.71,3.64,13.67,9.42,16.89A22.2,22.2,0,0,0,101.31,141,21.42,21.42,0,0,0,111.66,138.5Z"/><path class="cls-62" d="M111.66,138.5c5.81-3.18,9.53-9.2,9.53-17a15.55,15.55,0,0,0-.11-1.84c-1.17-10.48-12.26-13.45-12.66-15.59a.41.41,0,0,1,0-.11V92.22a7.51,7.51,0,0,0,.93-.37v11.61c0,2.37,12.79,5.19,12.79,18,0,12.41-8.9,20.48-20.81,20.48-12.26,0-21.27-8.07-21.27-20.48,0-12.77,12.79-15.59,12.79-18V91.85c.26.12.53.23.83.34v11.73s0,.07,0,.1c-.37,2.14-11.39,5.1-12.56,15.6a18.08,18.08,0,0,0-.1,1.84c0,7.71,3.64,13.67,9.42,16.89A22.2,22.2,0,0,0,101.31,141,21.42,21.42,0,0,0,111.66,138.5Z"/><path class="cls-63" d="M121.08,119.62a15.55,15.55,0,0,1,.11,1.84c0,7.84-3.72,13.86-9.53,17a2.59,2.59,0,0,0,.55-1.54c0-2.74-5-5-11.12-5S90,134.22,90,137a2.52,2.52,0,0,0,.45,1.39c-5.78-3.22-9.42-9.18-9.42-16.89a18.08,18.08,0,0,1,.1-1.84h.07c0,.12,0,.24,0,.36,0,3.9,8.93,7,19.94,7s20-3.15,20-7a2.19,2.19,0,0,0,0-.36Z"/><path class="cls-30" d="M121.08,119.62H121c-.53-3.73-9.25-6.69-19.92-6.69s-19.38,3-19.92,6.69H81.1c1.17-10.5,12.19-13.46,12.56-15.6l.15,0a1.09,1.09,0,0,0,0,.26c0,1.46,3.27,2.63,7.31,2.63s7.32-1.17,7.32-2.63a.75.75,0,0,0,0-.26l0,0C108.82,106.17,119.91,109.14,121.08,119.62Z"/><path class="cls-64" d="M121.08,119.62H121c-.53-3.73-9.25-6.69-19.92-6.69s-19.38,3-19.92,6.69H81.1c1.17-10.5,12.19-13.46,12.56-15.6l.15,0a1.09,1.09,0,0,0,0,.26c0,1.46,3.27,2.63,7.31,2.63s7.32-1.17,7.32-2.63a.75.75,0,0,0,0-.26l0,0C108.82,106.17,119.91,109.14,121.08,119.62Z"/><path class="cls-65" d="M121,119.62a2.19,2.19,0,0,1,0,.36c0,3.9-8.93,7-20,7s-19.94-3.15-19.94-7c0-.12,0-.24,0-.36.54-3.73,9.25-6.69,19.92-6.69S120.48,115.89,121,119.62Z"/><path class="cls-66" d="M121,119.62a2.19,2.19,0,0,1,0,.36c0,3.9-8.93,7-20,7s-19.94-3.15-19.94-7c0-.12,0-.24,0-.36.54-3.73,9.25-6.69,19.92-6.69S120.48,115.89,121,119.62Z"/><path class="cls-67" d="M112.21,137a2.59,2.59,0,0,1-.55,1.54A21.42,21.42,0,0,1,101.31,141a22.2,22.2,0,0,1-10.89-2.67A2.52,2.52,0,0,1,90,137c0-2.74,5-5,11.12-5S112.21,134.22,112.21,137Z"/><path class="cls-23" d="M109.34,91.85a7.51,7.51,0,0,1-.93.37,27.53,27.53,0,0,1-14.74,0c-.3-.11-.57-.22-.83-.34a4.08,4.08,0,0,1-1.17-.76h0a2.33,2.33,0,0,1,0-3.4h0a1.09,1.09,0,0,0-.45.81c0,1.5,4.42,2.72,9.87,2.72S111,90,111,88.5a1.08,1.08,0,0,0-.44-.81,2.34,2.34,0,0,1,0,3.4A4.15,4.15,0,0,1,109.34,91.85Z"/><path class="cls-68" d="M109.34,91.85a7.51,7.51,0,0,1-.93.37,27.53,27.53,0,0,1-14.74,0c-.3-.11-.57-.22-.83-.34a4.08,4.08,0,0,1-1.17-.76h0a2.33,2.33,0,0,1,0-3.4h0a1.09,1.09,0,0,0-.45.81c0,1.5,4.42,2.72,9.87,2.72S111,90,111,88.5a1.08,1.08,0,0,0-.44-.81,2.34,2.34,0,0,1,0,3.4A4.15,4.15,0,0,1,109.34,91.85Z"/><path class="cls-25" d="M110.52,87.69a1.08,1.08,0,0,1,.44.81c0,1.5-4.41,2.72-9.87,2.72S91.22,90,91.22,88.5a1.09,1.09,0,0,1,.45-.81c1.25-1.11,5-1.91,9.42-1.91S109.27,86.58,110.52,87.69Zm-2.72.87c0-.76-3-1.38-6.72-1.38s-6.72.62-6.72,1.38,3,1.39,6.72,1.39S107.8,89.33,107.8,88.56Z"/><path class="cls-69" d="M110.52,87.69a1.08,1.08,0,0,1,.44.81c0,1.5-4.41,2.72-9.87,2.72S91.22,90,91.22,88.5a1.09,1.09,0,0,1,.45-.81c1.25-1.11,5-1.91,9.42-1.91S109.27,86.58,110.52,87.69Zm-2.72.87c0-.76-3-1.38-6.72-1.38s-6.72.62-6.72,1.38,3,1.39,6.72,1.39S107.8,89.33,107.8,88.56Z"/><path class="cls-30" d="M108.41,103.92a.41.41,0,0,0,0,.11l0,0c-.38-1.33-3.49-2.38-7.28-2.38s-6.9,1-7.28,2.38l-.15,0s0-.07,0-.1V92.19a27.53,27.53,0,0,0,14.74,0Z"/><path class="cls-21" d="M108.37,104.05a.75.75,0,0,1,0,.26c0,1.46-3.28,2.63-7.32,2.63s-7.31-1.17-7.31-2.63a1.09,1.09,0,0,1,0-.26c.38-1.33,3.49-2.38,7.28-2.38S108,102.72,108.37,104.05Z"/><path class="cls-70" d="M108.41,103.92a.41.41,0,0,0,0,.11l0,0c-.38-1.33-3.49-2.38-7.28-2.38s-6.9,1-7.28,2.38l-.15,0s0-.07,0-.1V92.19a27.53,27.53,0,0,0,14.74,0Z"/><path class="cls-71" d="M108.37,104.05a.75.75,0,0,1,0,.26c0,1.46-3.28,2.63-7.32,2.63s-7.31-1.17-7.31-2.63a1.09,1.09,0,0,1,0-.26c.38-1.33,3.49-2.38,7.28-2.38S108,102.72,108.37,104.05Z"/><path class="cls-21" d="M101.08,87.18c3.71,0,6.72.62,6.72,1.38s-3,1.39-6.72,1.39-6.72-.62-6.72-1.39S97.36,87.18,101.08,87.18Z"/><path class="cls-72" d="M101.08,87.18c3.71,0,6.72.62,6.72,1.38s-3,1.39-6.72,1.39-6.72-.62-6.72-1.39S97.36,87.18,101.08,87.18Z"/><path class="cls-73" d="M100.57,94.13a20.55,20.55,0,0,1-6-.92v10.53s0,.07,0,.1l.14,0a.91.91,0,0,0,0,.23c0,1.21,3.22,1.79,5.77,1.79C100.57,101.78,100.66,98.23,100.57,94.13Z"/><path class="cls-74" d="M121.08,119.62H121a2.19,2.19,0,0,1,0,.36c0,3.9-8.93,7-20,7s-19.94-3.15-19.94-7c0-.12,0-.24,0-.36H81.1a18.08,18.08,0,0,0-.1,1.84c0,7.71,3.64,13.67,9.42,16.89A22.2,22.2,0,0,0,101.31,141a21.42,21.42,0,0,0,10.35-2.52c5.81-3.18,9.53-9.2,9.53-17A15.55,15.55,0,0,0,121.08,119.62Z"/><path class="cls-75" d="M121.08,119.62H121a2.19,2.19,0,0,1,0,.36c0,3.9-8.93,7-20,7s-19.94-3.15-19.94-7c0-.12,0-.24,0-.36H81.1a18.08,18.08,0,0,0-.1,1.84c0,7.71,3.64,13.67,9.42,16.89A22.2,22.2,0,0,0,101.31,141a21.42,21.42,0,0,0,10.35-2.52c5.81-3.18,9.53-9.2,9.53-17A15.55,15.55,0,0,0,121.08,119.62Z"/><path class="cls-76" d="M92.56,128.38c-2.36-6.67.28-15.3,6.44-20-3.08-.19-5.43-1.15-5.43-2.31a.88.88,0,0,1,0-.24l-.13,0c-.33,1.9-10.15,4.54-11.2,13.9,0,.52-.09,1.07-.09,1.64,0,6.88,3.25,12.19,8.4,15.06a19.8,19.8,0,0,0,9.71,2.38c.45,0,.9,0,1.33-.05A21.93,21.93,0,0,1,92.56,128.38Z"/><path class="cls-77" d="M105.71,127.7a.49.49,0,0,1-.5.47.47.47,0,1,1,0-.93A.49.49,0,0,1,105.71,127.7Z"/><path class="cls-78" d="M95,136.81a.49.49,0,0,1-.5.47.48.48,0,0,1-.49-.47.47.47,0,0,1,.49-.46A.48.48,0,0,1,95,136.81Z"/><path class="cls-79" d="M110.33,128.38a.49.49,0,1,1-.49-.46A.47.47,0,0,1,110.33,128.38Z"/><path class="cls-80" d="M113.29,131.83a.49.49,0,1,1-.49-.46A.47.47,0,0,1,113.29,131.83Z"/><path class="cls-81" d="M90.76,128.17a.5.5,0,1,1-.49-.47A.48.48,0,0,1,90.76,128.17Z"/><path class="cls-82" d="M99.11,136.35a.49.49,0,1,1-.49-.47A.48.48,0,0,1,99.11,136.35Z"/><path class="cls-83" d="M103.41,128.83a1.2,1.2,0,1,1-1.2-1.13A1.17,1.17,0,0,1,103.41,128.83Z"/><path class="cls-84" d="M112.41,129.51a1.2,1.2,0,1,1-1.2-1.13A1.16,1.16,0,0,1,112.41,129.51Z"/><path class="cls-85" d="M100.62,137.94a1.2,1.2,0,1,1-1.2-1.13A1.16,1.16,0,0,1,100.62,137.94Z"/><path class="cls-86" d="M103.85,131.21a.65.65,0,0,1-.66.62.64.64,0,0,1-.65-.62.63.63,0,0,1,.65-.61A.64.64,0,0,1,103.85,131.21Z"/><path class="cls-87" d="M101.66,136.81a.65.65,0,1,1-.65-.62A.64.64,0,0,1,101.66,136.81Z"/><path class="cls-88" d="M99.91,128.55a.88.88,0,1,1-.88-.83A.85.85,0,0,1,99.91,128.55Z"/><path class="cls-89" d="M106.59,135.88a.89.89,0,1,1-.88-.83A.86.86,0,0,1,106.59,135.88Z"/><path class="cls-90" d="M115.8,127.24a.88.88,0,1,1-.88-.83A.85.85,0,0,1,115.8,127.24Z"/><path class="cls-91" d="M100.8,133.84a.89.89,0,0,1-1.77,0,.89.89,0,0,1,1.77,0Z"/><path class="cls-92" d="M103.13,139.61a.89.89,0,1,1-.89-.83A.86.86,0,0,1,103.13,139.61Z"/><g class="cls-93"><path class="cls-94" d="M94.68,89.85c3,.64,5.33,1.76,5.17,2.52s-2.79.85-5.79.22-5.34-1.76-5.19-2.52S91.67,89.22,94.68,89.85Z"/></g><g class="cls-95"><path class="cls-96" d="M104.54,100.43c0-5.1.79-9.2,1.86-9.23s2,4.12,2,9.15-.79,9.2-1.86,9.26S104.58,105.47,104.54,100.43Z"/></g><g class="cls-97"><path class="cls-98" d="M98.79,121.55c10-17.14,25.7-27,35.11-22.21S142.7,122,132.82,139s-25.68,27-35.15,22.34C88.4,156.26,88.87,138.56,98.79,121.55Z"/></g><g class="cls-99"><path class="cls-100" d="M95.33,87c3.54.75,6.06,2.78,5.65,4.56s-3.64,2.61-7.15,1.88-6.06-2.78-5.68-4.57S91.81,86.24,95.33,87Z"/></g><g class="cls-101"><path class="cls-102" d="M107,80.54c8.52,1.62,14.74,5.88,14,9.55s-8.33,5.32-16.76,3.74S89.51,88,90.2,84.28C91.08,80.63,98.56,79,107,80.54Z"/></g><path class="cls-103" d="M121,120a3.42,3.42,0,0,1-1.1,2.42,9.2,9.2,0,0,1-2.25,1.65,23.88,23.88,0,0,1-5.31,2,49.67,49.67,0,0,1-22.58,0,24.08,24.08,0,0,1-5.3-2,9.76,9.76,0,0,1-2.26-1.66A3.37,3.37,0,0,1,81.15,120a3.47,3.47,0,0,0,1.21,2.32,9.51,9.51,0,0,0,2.28,1.51,24.16,24.16,0,0,0,5.28,1.79,49.85,49.85,0,0,0,11.17,1.15,49.88,49.88,0,0,0,11.18-1.15,23.9,23.9,0,0,0,5.27-1.79,9.57,9.57,0,0,0,2.29-1.51A3.47,3.47,0,0,0,121,120Z"/></g></g></g></svg>