<svg xmlns="http://www.w3.org/2000/svg" xmlns:xlink="http://www.w3.org/1999/xlink" viewBox="0 0 356.87 187.26"><defs><style>.cls-1{fill:url(#linear-gradient);}.cls-2{isolation:isolate;}.cls-3{clip-path:url(#clip-path);}.cls-4{opacity:0.27;}.cls-12,.cls-14,.cls-4{mix-blend-mode:multiply;}.cls-5{fill:url(#linear-gradient-4);}.cls-6{fill:#fff;}.cls-7{fill:#c11b00;}.cls-8{fill:#ffba00;}.cls-9{fill:#e83d38;}.cls-10{fill:#f94025;}.cls-11{fill:#ffce45;}.cls-12{fill:url(#linear-gradient-5);}.cls-13{fill:#ffefab;}.cls-15{fill:#efd9a5;}.cls-16{fill:#edb721;}.cls-17{fill:#d6925b;}.cls-18{fill:#fb7a01;}.cls-19{mix-blend-mode:overlay;}.cls-20{fill:#ccc;}</style><linearGradient id="linear-gradient" x1="63.87" y1="104.01" x2="356.87" y2="104.01" gradientUnits="userSpaceOnUse"><stop offset="0" stop-color="#731531"/><stop offset="1" stop-color="#731531"/></linearGradient><clipPath id="clip-path"><rect class="cls-1" x="63.87" y="42.51" width="293" height="123" rx="11.19"/></clipPath><linearGradient id="linear-gradient-4" x1="0" y1="93.63" x2="202.41" y2="93.63" xlink:href="#linear-gradient"/><linearGradient id="linear-gradient-5" x1="122.51" y1="123.39" x2="143.05" y2="123.39" gradientUnits="userSpaceOnUse"><stop offset="0" stop-color="#f6db9e"/><stop offset="1" stop-color="#fef9ef"/></linearGradient></defs><title>Asset 9</title><g class="cls-2"><g id="Layer_2" data-name="Layer 2"><g id="Layer_1-2" data-name="Layer 1"><rect class="cls-1" x="63.87" y="42.51" width="293" height="123" rx="11.19"/><g class="cls-3"><rect class="cls-1" x="63.87" y="42.51" width="293" height="123" rx="11.19"/><g class="cls-4"><path class="cls-5" d="M68.53,2.8C50.1,7,28.18,20.26,17.1,35.57,7.37,49,1.13,63.44.28,80c-1.37,26.56,1.82,55.58,20.06,74.93a103.78,103.78,0,0,0,47.45,28.36c13.12,3.44,53.24,6.87,72.13,0,14.06-5.11,27.76-11.67,38.06-22.52,6.06-6.38,11.74-13.23,15.92-21C201,126.53,203.45,111,202,96S197.42,65.29,190.26,52a93.43,93.43,0,0,0-28-32.14C149.26,10.51,110.93-6.77,68.53,2.8Z"/></g></g><path class="cls-6" d="M212.16,140.33c-3.34,0-5.41-2.18-5.41-5.78s2.09-5.78,5.37-5.78c2.3,0,4,.95,4.64,2.91l-2.12.9a2.25,2.25,0,0,0-2.42-1.89c-1.87,0-3,1.36-3,3.86s1.07,3.86,3,3.86a2.47,2.47,0,0,0,2.54-2l2.15.65A4.6,4.6,0,0,1,212.16,140.33Z"/><path class="cls-6" d="M218.29,129.2c0-.84.48-1.26,1.45-1.26s1.44.42,1.44,1.26-.47,1.24-1.44,1.24S218.29,130,218.29,129.2Zm2.6,11h-2.32v-8.5h2.32Z"/><path class="cls-6" d="M231.23,131.66l-3.23,8.5h-2.69l-3.23-8.5h2.5l2.09,6.71,2.15-6.71Z"/><path class="cls-6" d="M232.13,129.2q0-1.26,1.44-1.26c1,0,1.45.42,1.45,1.26s-.48,1.24-1.45,1.24S232.13,130,232.13,129.2Zm2.6,11H232.4v-8.5h2.33Z"/><path class="cls-6" d="M244.83,134l-2.18.78a1.64,1.64,0,0,0-1.68-1.55c-1.31,0-2,.92-2,2.71s.78,2.67,2.06,2.67a1.66,1.66,0,0,0,1.76-1.52l2.11.68c-.37,1.52-1.75,2.57-3.86,2.57a4.42,4.42,0,0,1-.06-8.84C243.21,131.49,244.42,132.6,244.83,134Z"/><path class="cls-6" d="M251.87,128.94h8.41v1.89h-6.07v2.79H259v1.8h-4.78v2.85h6.31v1.89h-8.65Z"/><path class="cls-6" d="M270.28,127.94v12.22h-2.09l-.11-1.65a2.93,2.93,0,0,1-2.8,1.82c-2.11,0-3.64-1.63-3.64-4.4s1.62-4.44,3.73-4.44a2.74,2.74,0,0,1,2.58,1.6v-5.15Zm-2.33,7.9c0-1.61-.77-2.56-2-2.56s-2,.91-2,2.63.73,2.63,2,2.63S268,137.56,268,135.84Z"/><path class="cls-6" d="M272.56,137.3v-5.64h2.32v5.08c0,1.33.57,1.75,1.59,1.75s1.87-.68,1.87-2.26v-4.57h2.32v8.5h-2.07l-.08-1.48a3,3,0,0,1-2.94,1.65A2.74,2.74,0,0,1,272.56,137.3Z"/><path class="cls-6" d="M290.74,134l-2.17.78a1.64,1.64,0,0,0-1.68-1.55c-1.31,0-2,.92-2,2.71s.78,2.67,2,2.67a1.67,1.67,0,0,0,1.77-1.52l2.11.68c-.37,1.52-1.75,2.57-3.86,2.57a4.42,4.42,0,0,1-.07-8.84C289.13,131.49,290.34,132.6,290.74,134Z"/><path class="cls-6" d="M300.78,138.65l-.14,1.44a2.46,2.46,0,0,1-1.11.22,1.94,1.94,0,0,1-2-1.2,3.32,3.32,0,0,1-2.7,1.22c-1.74,0-2.81-.8-2.81-2.3,0-1.25.83-2.07,2.36-2.38l2.93-.59v-.32a1.43,1.43,0,0,0-1.52-1.55,1.74,1.74,0,0,0-1.8,1.39l-2-.61c.4-1.49,1.69-2.48,3.9-2.48s3.72,1,3.72,3.15v3.45c0,.44.2.64.61.64A1.92,1.92,0,0,0,300.78,138.65ZM297.31,137v-.52l-1.79.35c-.78.16-1.17.36-1.17.95s.48.87,1.07.87C296.39,138.68,297.31,138.27,297.31,137Z"/><path class="cls-6" d="M307.64,139.63a3.82,3.82,0,0,1-2.31.7c-1.71,0-2.89-.7-2.89-2.57v-4.37h-1.56v-1.73h1.56v-1.95l2.33-.65v2.6h2.72v1.73h-2.72v4a1,1,0,0,0,1.17,1.17,1.92,1.92,0,0,0,1.33-.47Z"/><path class="cls-6" d="M308.68,129.2c0-.84.48-1.26,1.45-1.26s1.44.42,1.44,1.26-.48,1.24-1.44,1.24S308.68,130,308.68,129.2Zm2.6,11H309v-8.5h2.33Z"/><path class="cls-6" d="M321.86,135.91a4.36,4.36,0,1,1-4.36-4.42A4.11,4.11,0,0,1,321.86,135.91Zm-6.38,0c0,1.8.75,2.69,2,2.69s2-.89,2-2.69-.75-2.69-2-2.69S315.48,134.11,315.48,135.91Z"/><path class="cls-6" d="M331.82,134.58v5.58h-2.33v-4.91c0-1.45-.65-1.92-1.53-1.92S326,134,326,135.65v4.51h-2.33v-8.5h2.09l.09,1.6a3,3,0,0,1,2.89-1.77A2.84,2.84,0,0,1,331.82,134.58Z"/><polygon class="cls-7" points="130.5 101.46 114.79 101.46 136.31 64.09 152.02 64.09 130.5 101.46"/><path class="cls-8" d="M131.17,102.34H113.9v-1.27h17.27m.08-1.71H113.81a1.64,1.64,0,0,0-1.63,1.63v1.44a1.64,1.64,0,0,0,1.63,1.63h17.44a1.64,1.64,0,0,0,1.63-1.63V101a1.63,1.63,0,0,0-1.63-1.63Z"/><polygon class="cls-9" points="114.79 101.46 130.5 101.46 108.98 64.09 93.27 64.09 114.79 101.46"/><polygon class="cls-10" points="117.6 101.46 127.57 101.46 106.05 64.09 96.08 64.09 117.6 101.46"/><circle class="cls-8" cx="122.51" cy="123.39" r="20.54" transform="translate(-51.37 122.76) rotate(-45)"/><circle class="cls-11" cx="122.51" cy="123.39" r="17.91" transform="translate(-14.93 229.9) rotate(-82.98)"/><path class="cls-12" d="M122.51,143.93a20.54,20.54,0,0,0,0-41.08Z"/><path class="cls-13" d="M122.51,107.68a15.71,15.71,0,1,1-11.11,4.6,15.63,15.63,0,0,1,11.11-4.6m0-2.2a17.91,17.91,0,1,0,17.9,17.91,17.91,17.91,0,0,0-17.9-17.91Z"/><g class="cls-14"><path class="cls-15" d="M122.51,103.54c-.52,0-1.05,0-1.56.06l.09,1.22.66,0h.81v-1.22Zm-3.12.24c-.51.08-1,.18-1.53.3l.28,1.19.48-.1h.17l.79-.14-.19-1.21Zm-3,.73c-.49.16-1,.34-1.46.54l.47,1.13c.45-.19.91-.36,1.37-.51l-.38-1.16Zm-2.88,1.2c-.46.24-.92.49-1.36.77l.64,1H113c.32-.19.66-.38,1-.55l-.56-1.09Zm-2.66,1.64c-.42.3-.83.63-1.23,1l.8.93.71-.59h0v0h.19l.22-.16-.72-1Zm-2.37,2c-.37.37-.72.76-1.06,1.15l.93.79h0v0h.22l0,0h0c.23-.26.47-.52.72-.76l-.87-.87Zm-2,2.38c-.31.42-.6.86-.87,1.3l1,.64a1.74,1.74,0,0,0,.11-.18h0v0h.37v0h0v0h0v0h0l.28-.39-1-.72Zm-1.63,2.67c-.24.46-.45.94-.65,1.42l1.13.46,0-.07h0v0h0v0h.1c.14-.33.3-.66.46-1l-1.09-.55Zm-1.19,2.89c-.16.49-.3,1-.42,1.51l1.19.28c0-.13.06-.25.1-.38h0v0h0v0h.29l-1.17-.37Zm-.71,3c-.08.51-.14,1-.18,1.55l1.22.09c0-.49.09-1,.16-1.45l-1.2-.19Zm1,3.11h-1.22c0,.52,0,1,.06,1.57l1.22-.1h0v0h0v0h0v0h0c0-.14,0-.28,0-.42h0v0h0v0h0v0h0v0h0v0h0v0h0v0h0v0h0v-.1Zm.24,2.92-1.21.2c.09.51.19,1,.31,1.53l1.19-.29v0h0v0h-.06v0h0v0h0c-.08-.34-.14-.69-.2-1Zm.7,2.85-1.16.38a15.26,15.26,0,0,0,.55,1.47l1.12-.48-.06-.15h0v0h0v0H105v0h0v0h0v0h0l-.15-.45Zm1.13,2.7-1.08.56c.24.46.5.92.77,1.36l1-.64-.05-.08h0v0h-.15l0,0h0v0h0c-.17-.28-.33-.57-.49-.87Zm1.55,2.49-1,.72c.31.42.63.83,1,1.23l.93-.81-.28-.32H108l0,0h0l-.51-.66Zm1.92,2.22-.86.87c.37.36.76.71,1.16,1l.79-.94-.24-.2h-.09l-.51-.46h-.08l-.17-.15Zm2.24,1.88-.71,1c.42.3.86.59,1.31.86l.63-1c-.34-.2-.67-.42-1-.64h-.15l-.09-.07Zm2.51,1.52-.55,1.09c.47.24.95.45,1.43.65l.46-1.13c-.32-.13-.64-.27-1-.42h-.18l-.21-.1Zm2.72,1.1-.37,1.17c.5.15,1,.29,1.51.41l.27-1.19-.13,0H118l0,0h0l-.36-.09h-.34l-.32-.1Zm2.86.66-.18,1.21c.51.08,1,.13,1.55.17l.08-1.22-.31,0h-.15q-.49,0-1-.12Zm4.39.13-.22,0h-.3c-.31,0-.63,0-1,0v1.23c.52,0,1,0,1.56-.08l-.1-1.22Zm2.89-.48-.12,0h-.14l-.59.13h-.59l.2,1.21c.51-.09,1-.2,1.53-.32l-.29-1.19Zm2.78-.93-.32.13h-.22q-.42.17-.84.3l.39,1.16a15.33,15.33,0,0,0,1.47-.56l-.48-1.12Zm2.59-1.36-.23.15H132c-.29.17-.58.34-.88.49l.57,1.08c.46-.24.91-.5,1.35-.77l-.65-1Zm2.36-1.75h0l0,0h0v0h0l0,0h0c-.33.29-.68.57-1,.83l.73,1c.42-.31.83-.64,1.22-1l-.8-.92Zm2.05-2.09c-.23.26-.45.52-.69.77H136l0,0h0l0,0h0a1.59,1.59,0,0,1-.13.13l.88.86c.36-.37.71-.76,1-1.16l-.93-.78Zm1.69-2.39c-.21.36-.44.71-.68,1.05h-.12l1,.71c.3-.42.59-.86.85-1.31l-1.05-.62Zm1.3-2.63a1.34,1.34,0,0,1-.07.18h0v0h0v0h0v0h0v0h0v0h0v0h0v0h0v0h0v0h0v0h0l0,.09h0l-.15.33h0v0h0l0,0h0v0h-.06l-.06.14,1.09.54c.23-.46.45-.94.64-1.43l-1.14-.45Zm.88-2.8c0,.07,0,.13-.05.2h0v0h0v0h0v0h0l-.27,1,1.16.36c.16-.5.29-1,.41-1.51l-1.19-.27Zm.41-2.9v.1h0v0h0v0h0v0h0c0,.15,0,.31,0,.47h0v0h0v0h0v0h0v0h0v0h0v0h0v0h0v0h0v0h0v0h0v0h0v0h0l0,.2,1.21.17c.08-.51.13-1,.16-1.55l-1.22-.08Zm1.18-3-1.21.11c0,.07,0,.14,0,.21h0v0h0v0h0v0h0c0,.26,0,.51,0,.77h0v0h0v0h0v.14h1.22c0-.52,0-1-.08-1.56Zm-.52-3.08-1.19.3c.12.47.22.95.31,1.43l1.2-.2c-.09-.52-.2-1-.32-1.53Zm-1-3-1.12.48h0v0h.16v0h.34v0h0v0h0l1.16-.39c-.17-.49-.36-1-.56-1.46Zm-1.46-2.76-1,.65c.26.41.5.84.73,1.27l1.08-.57c-.24-.46-.5-.92-.78-1.35Zm-1.88-2.5-.91.81.41.48h0l0,0h0l0,0h.21v0h0v0h0l0,0h0l.17.21,1-.73c-.31-.41-.64-.82-1-1.21Zm-2.24-2.18-.78,1c.24.2.48.4.71.61h0l0,0h0l0,0h0v0h0v0h.25l.85-.88c-.37-.36-.76-.71-1.16-1Zm-2.55-1.79-.63,1a14.56,14.56,0,0,1,1.24.8l.7-1c-.43-.3-.87-.59-1.31-.85Zm-2.81-1.38-.45,1.14.65.27h.26l.43.2.54-1.1c-.47-.23-.95-.44-1.43-.63Zm-3-.91-.26,1.19.69.17h.23l.5.14.35-1.17c-.49-.15-1-.28-1.51-.39Zm-3.09-.44-.07,1.22.19,0h.49c.26,0,.52.05.77.09l.17-1.21c-.51-.07-1-.12-1.55-.16Z"/></g><g class="cls-14"><path class="cls-16" d="M125.43,113.57v19.64h-4.91V122.68a19.5,19.5,0,0,0-.1-2.74,1.06,1.06,0,0,0-.6-.7,6.19,6.19,0,0,0-2.2-.24h-.48v-2.29a8.94,8.94,0,0,0,5.4-3.14Z"/></g><g class="cls-14"><path class="cls-17" d="M125.43,133.33h-4.91a.12.12,0,0,1-.12-.12V122.68a19.23,19.23,0,0,0-.1-2.72.9.9,0,0,0-.54-.61,6.15,6.15,0,0,0-2.14-.23h-.48v-.24h.48a6.18,6.18,0,0,1,2.25.25,1.12,1.12,0,0,1,.66.78,17.16,17.16,0,0,1,.12,2.77v10.41h4.78Z"/></g><path class="cls-18" d="M98.76,69.89l.36.61a.29.29,0,0,0,.25.14.29.29,0,0,0,.26-.43l-.27-.46h-.63A.2.2,0,0,0,98.76,69.89Z"/><path class="cls-18" d="M115.17,99.89a.31.31,0,0,1-.26-.15l-.72-1.25a.32.32,0,0,1,.11-.42.31.31,0,0,1,.42.12l.72,1.24a.32.32,0,0,1-.11.42A.29.29,0,0,1,115.17,99.89Zm-1.43-2.49a.33.33,0,0,1-.27-.15L112.76,96a.3.3,0,0,1,.11-.42.31.31,0,0,1,.42.12l.71,1.24a.3.3,0,0,1-.11.42A.28.28,0,0,1,113.74,97.4Zm-1.43-2.49a.33.33,0,0,1-.27-.15l-.72-1.25a.31.31,0,0,1,.12-.42.3.3,0,0,1,.41.12l.72,1.24a.32.32,0,0,1-.11.42A.28.28,0,0,1,112.31,94.91Zm-1.44-2.49a.31.31,0,0,1-.26-.15L109.89,91a.32.32,0,0,1,.11-.42.31.31,0,0,1,.42.12l.72,1.24a.31.31,0,0,1-.12.42A.26.26,0,0,1,110.87,92.42Zm-1.43-2.49a.31.31,0,0,1-.27-.15l-.71-1.25a.3.3,0,0,1,.11-.42.31.31,0,0,1,.42.12l.71,1.24a.3.3,0,0,1-.11.42A.28.28,0,0,1,109.44,89.93ZM108,87.44a.31.31,0,0,1-.27-.15L107,86a.31.31,0,0,1,.12-.42.3.3,0,0,1,.41.12l.72,1.24a.32.32,0,0,1-.11.42A.28.28,0,0,1,108,87.44ZM106.57,85a.29.29,0,0,1-.26-.15l-.72-1.25a.32.32,0,0,1,.11-.42.31.31,0,0,1,.42.12l.72,1.24a.31.31,0,0,1-.12.42A.26.26,0,0,1,106.57,85Zm-1.43-2.49a.31.31,0,0,1-.27-.15l-.71-1.25a.29.29,0,0,1,.11-.41.3.3,0,0,1,.42.11L105.4,82a.3.3,0,0,1-.11.42A.28.28,0,0,1,105.14,82.46ZM103.7,80a.3.3,0,0,1-.26-.15l-.72-1.25a.3.3,0,0,1,.12-.41.29.29,0,0,1,.41.11l.72,1.24a.32.32,0,0,1-.11.42A.29.29,0,0,1,103.7,80Zm-1.43-2.49a.29.29,0,0,1-.26-.15l-.72-1.25a.29.29,0,0,1,.11-.41.3.3,0,0,1,.42.11l.72,1.24a.31.31,0,0,1-.12.42A.26.26,0,0,1,102.27,77.48ZM100.84,75a.31.31,0,0,1-.27-.15l-.71-1.25a.29.29,0,0,1,.11-.41.3.3,0,0,1,.42.11l.71,1.24A.3.3,0,0,1,101,75,.28.28,0,0,1,100.84,75ZM99.4,72.5a.3.3,0,0,1-.26-.15l-.72-1.25a.31.31,0,0,1,.11-.41.3.3,0,0,1,.42.11L99.67,72a.32.32,0,0,1-.11.42A.29.29,0,0,1,99.4,72.5ZM98,70a.28.28,0,0,1-.26-.15L97,68.61a.29.29,0,0,1,.11-.41.3.3,0,0,1,.42.11l.71,1.24a.3.3,0,0,1-.11.42A.28.28,0,0,1,98,70Zm-1.43-2.49a.31.31,0,0,1-.27-.15l-.72-1.25a.3.3,0,0,1,.12-.41.29.29,0,0,1,.41.11l.72,1.24a.3.3,0,0,1-.11.42A.28.28,0,0,1,96.54,67.52Z"/><path class="cls-18" d="M111.06,69.89l.35.61a.29.29,0,0,0,.26.14.23.23,0,0,0,.14,0,.28.28,0,0,0,.11-.39l-.27-.46H111C111,69.86,111,69.84,111.06,69.89Z"/><path class="cls-18" d="M127.89,99.89a.33.33,0,0,1-.27-.15l-.71-1.25a.3.3,0,0,1,.11-.42.31.31,0,0,1,.42.12l.71,1.24a.3.3,0,0,1-.11.42A.28.28,0,0,1,127.89,99.89Zm-1.43-2.49a.33.33,0,0,1-.27-.15L125.47,96a.31.31,0,0,1,.12-.42.3.3,0,0,1,.41.12l.72,1.24a.32.32,0,0,1-.11.42A.28.28,0,0,1,126.46,97.4ZM125,94.91a.31.31,0,0,1-.26-.15L124,93.51a.32.32,0,0,1,.11-.42.31.31,0,0,1,.42.12l.72,1.24a.31.31,0,0,1-.12.42A.26.26,0,0,1,125,94.91Zm-1.43-2.49a.33.33,0,0,1-.27-.15L122.61,91a.3.3,0,0,1,.11-.42.31.31,0,0,1,.42.12l.71,1.24a.3.3,0,0,1-.11.42A.28.28,0,0,1,123.59,92.42Zm-1.44-2.49a.3.3,0,0,1-.26-.15l-.72-1.25a.31.31,0,0,1,.12-.42.3.3,0,0,1,.41.12l.72,1.24a.32.32,0,0,1-.11.42A.29.29,0,0,1,122.15,89.93Zm-1.43-2.49a.29.29,0,0,1-.26-.15L119.74,86a.32.32,0,0,1,.11-.42.31.31,0,0,1,.42.12L121,87a.31.31,0,0,1-.12.42A.26.26,0,0,1,120.72,87.44ZM119.29,85a.31.31,0,0,1-.27-.15l-.71-1.25a.3.3,0,0,1,.11-.42.31.31,0,0,1,.42.12l.71,1.24a.3.3,0,0,1-.11.42A.28.28,0,0,1,119.29,85Zm-1.44-2.49a.3.3,0,0,1-.26-.15l-.72-1.25a.31.31,0,0,1,.11-.41.3.3,0,0,1,.42.11l.72,1.24a.32.32,0,0,1-.11.42A.29.29,0,0,1,117.85,82.46ZM116.42,80a.28.28,0,0,1-.26-.15l-.72-1.25a.29.29,0,0,1,.11-.41.3.3,0,0,1,.42.11l.72,1.24a.31.31,0,0,1-.12.42A.28.28,0,0,1,116.42,80ZM115,77.48a.31.31,0,0,1-.27-.15L114,76.08a.3.3,0,0,1,.12-.41.29.29,0,0,1,.41.11l.72,1.24a.3.3,0,0,1-.11.42A.28.28,0,0,1,115,77.48ZM113.55,75a.29.29,0,0,1-.26-.15l-.72-1.25a.31.31,0,0,1,.11-.41.3.3,0,0,1,.42.11l.72,1.24a.32.32,0,0,1-.11.42A.29.29,0,0,1,113.55,75Zm-1.43-2.49a.31.31,0,0,1-.27-.15l-.71-1.25a.29.29,0,0,1,.11-.41.3.3,0,0,1,.42.11l.71,1.24a.3.3,0,0,1-.11.42A.28.28,0,0,1,112.12,72.5ZM110.69,70a.31.31,0,0,1-.27-.15l-.72-1.25a.3.3,0,0,1,.12-.41.29.29,0,0,1,.41.11l.72,1.24a.31.31,0,0,1-.11.42A.28.28,0,0,1,110.69,70Zm-1.44-2.49a.29.29,0,0,1-.26-.15l-.72-1.25a.31.31,0,0,1,.11-.41.3.3,0,0,1,.42.11l.72,1.24a.31.31,0,0,1-.12.42A.26.26,0,0,1,109.25,67.52Z"/><path class="cls-18" d="M129.24,101.32l-.37-.64a.31.31,0,0,0-.42-.12.33.33,0,0,0-.11.43l.28.49h.66A1.17,1.17,0,0,0,129.24,101.32Z"/><path class="cls-18" d="M116.52,101.32l-.37-.64a.3.3,0,0,0-.41-.12.32.32,0,0,0-.12.43l.28.49h.66A.5.5,0,0,0,116.52,101.32Z"/><g class="cls-19"><path class="cls-20" d="M117.26,119H117v-2.29a.12.12,0,0,1,.09-.12,8.79,8.79,0,0,0,5.33-3.1.14.14,0,0,1,.1,0h2.89v.25H122.6a9.11,9.11,0,0,1-5.34,3.12Z"/></g><path class="cls-6" d="M106.06,113.9a1.9,1.9,0,0,1-1.57-1.57l-.79-5.66-.79,5.66a1.92,1.92,0,0,1-1.57,1.57l-5.66.79,5.66.79a1.91,1.91,0,0,1,1.57,1.57l.79,5.66.79-5.66a1.89,1.89,0,0,1,1.57-1.57l5.57-.79Z"/><path class="cls-6" d="M107.75,109.92a.85.85,0,0,1-.7-.7l-.35-2.52-.35,2.52a.85.85,0,0,1-.7.7l-2.52.35,2.52.35a.85.85,0,0,1,.7.7l.35,2.52.35-2.52a.85.85,0,0,1,.7-.7l2.48-.35Z"/></g></g></g></svg>