<svg id="Component_108_1" data-name="Component 108 – 1" xmlns="http://www.w3.org/2000/svg" xmlns:xlink="http://www.w3.org/1999/xlink" width="341" height="165" viewBox="0 0 341 165">
  <defs>
    <clipPath id="clip-path">
      <rect id="Rectangle_1618" data-name="Rectangle 1618" width="341" height="165" rx="16" transform="translate(744 1040)" fill="#7e0095"/>
    </clipPath>
  </defs>
  <g id="Group_1821" data-name="Group 1821" transform="translate(-744 -1040)" clip-path="url(#clip-path)">
    <g id="Rectangle_1617" data-name="Rectangle 1617" transform="translate(732 1019)" fill="#7e0095" stroke="#707070" stroke-width="1">
      <rect width="361" height="191" stroke="none"/>
      <rect x="0.5" y="0.5" width="360" height="190" fill="none"/>
    </g>
    <ellipse id="Ellipse_245" data-name="Ellipse 245" cx="181" cy="174.5" rx="181" ry="174.5" transform="translate(590 932)" fill="#5d006e" opacity="0.36"/>
  </g>
  <text id="Commerce" transform="translate(209 140)" fill="#fff" font-size="19" font-family="WorkSans-Bold, Work Sans" font-weight="700" letter-spacing="-0.009em"><tspan x="0" y="0">Commerce</tspan></text>
  <g id="index" transform="translate(32 27.863)">
    <path id="Path_4574" data-name="Path 4574" d="M15.417,47.334A1.084,1.084,0,0,1,16.5,48.417h2.167a3.254,3.254,0,0,0-3.25-3.25V43H13.25v2.167H10v3.25a3.254,3.254,0,0,0,3.25,3.25h2.167A1.084,1.084,0,0,1,16.5,52.75v1.083H13.25a1.084,1.084,0,0,1-1.083-1.083H10A3.254,3.254,0,0,0,13.25,56v2.167h2.167V56h3.25V52.75a3.254,3.254,0,0,0-3.25-3.25H13.25a1.084,1.084,0,0,1-1.083-1.083V47.334Z" transform="translate(0.75 -1.648)" fill="#fff"/>
    <path id="Path_4575" data-name="Path 4575" d="M62.444,14V1H49.561V3h9.5L41.632,20.592l-6.937-7L22.822,25.575a3.885,3.885,0,0,0-2-.567,3.144,3.144,0,0,0-2.482,1.341c-.432.5-.6.659-.99.659s-.558-.161-.991-.659a3.144,3.144,0,0,0-2.481-1.341A3.144,3.144,0,0,0,11.4,26.35c-.43.5-.6.658-.987.658s-.556-.161-.986-.658a3.14,3.14,0,0,0-2.479-1.342,3.987,3.987,0,0,0-3.964,4,4.055,4.055,0,0,0,.793,2.4l4.8,6.46L5.3,40.766A12.723,12.723,0,0,0,13.579,63.02h.608a12.412,12.412,0,0,0,6.805-2.035,2.972,2.972,0,0,0,2.8,2.035H59.471a2.991,2.991,0,0,0,2.973-3v-2a3,3,0,0,0-.773-2,2.992,2.992,0,0,0,.773-2v-2a3,3,0,0,0-.773-2,2.992,2.992,0,0,0,.773-2v-2a3,3,0,0,0-.773-2,2.992,2.992,0,0,0,.773-2v-2a2.991,2.991,0,0,0-2.973-3H58.48V17.005H50.552V37.012H48.57v-10H40.641v10H39.65a2.915,2.915,0,0,0-.991.184V23.007H30.731V43.014H24.459a12.631,12.631,0,0,0-1.988-2.248l-3.279-2.9,4.8-6.46a4.061,4.061,0,0,0,.792-2.4,3.976,3.976,0,0,0-.562-2.02L34.7,16.419l6.937,7L60.462,4.415V14ZM23.794,61.019a1,1,0,0,1-.991-1V59.55a12.712,12.712,0,0,0,1.982-2.414v1.883h1.982v-2h1.982v2h1.982v-2h1.982v2H34.7v-2h1.982v2h1.982v-2h1.982v2h1.982v-2h.991a1,1,0,0,1,.991,1v2a1,1,0,0,1-.991,1Zm2.938-10h2.017v2h1.982v-2h1.982v2H34.7v-2h1.982v2h1.982v-2h1.982v2h1.982v-2h.991a1,1,0,0,1,.991,1v2a1,1,0,0,1-.991,1H25.865A12.723,12.723,0,0,0,26.732,51.016Zm23.819-4v-2h1.982v2h1.982v-2H56.5v2H58.48v-2h.991a1,1,0,0,1,.991,1v2a1,1,0,0,1-.991,1H46.405a2.992,2.992,0,0,0,.182-1v-2a2.992,2.992,0,0,0-.182-1H48.57v2Zm9.91,5v2a1,1,0,0,1-.991,1H46.405a2.992,2.992,0,0,0,.182-1v-2a2.992,2.992,0,0,0-.182-1H48.57v2h1.982v-2h1.982v2h1.982v-2H56.5v2H58.48v-2h.991A1,1,0,0,1,60.462,52.016Zm0,8a1,1,0,0,1-.991,1H46.405a2.992,2.992,0,0,0,.182-1v-2a2.992,2.992,0,0,0-.182-1H48.57v2h1.982v-2h1.982v2h1.982v-2H56.5v2H58.48v-2h.991a1,1,0,0,1,.991,1ZM52.534,19.006H56.5V37.012H52.534Zm-9.91,10h3.964v8H42.623Zm-2.973,10h.991v2h1.982v-2h1.982v2h1.982v-2H48.57v2h1.982v-2h1.982v2h1.982v-2H56.5v2H58.48v-2h.991a1,1,0,0,1,.991,1v2a1,1,0,0,1-.991,1H39.65a1,1,0,0,1-.991-1v-2A1,1,0,0,1,39.65,39.012Zm-6.937-14h3.964V43.014H32.713ZM28.749,45.014v2h1.982v-2h1.982v2H34.7v-2h1.982v2h1.982v-2h1.982v2h1.982v-2h.991a1,1,0,0,1,.991,1v2a1,1,0,0,1-.991,1H26.7a12.77,12.77,0,0,0-1.086-4Zm-3.964,5.309a10.659,10.659,0,0,1-10.6,10.7H13.58A10.718,10.718,0,0,1,6.6,42.272l3.692-3.26h7.183l3.692,3.26A10.744,10.744,0,0,1,24.785,50.323ZM22.407,30.209l-5.055,6.8H10.415l-5.054-6.8a2.025,2.025,0,0,1-.4-1.2,1.993,1.993,0,0,1,1.982-2c.385,0,.556.161.986.658a3.14,3.14,0,0,0,2.479,1.342,3.144,3.144,0,0,0,2.48-1.342c.431-.5.6-.658.987-.658s.558.161.99.659a3.144,3.144,0,0,0,2.482,1.341,3.144,3.144,0,0,0,2.481-1.341c.433-.5.6-.659.991-.659a1.993,1.993,0,0,1,1.982,2A2.031,2.031,0,0,1,22.407,30.209Z" transform="translate(0)" fill="#fff"/>
  </g>
</svg>
