<svg xmlns="http://www.w3.org/2000/svg" xmlns:xlink="http://www.w3.org/1999/xlink" viewBox="0 0 356.87 187.26"><defs><style>.cls-1{fill:url(#linear-gradient);}.cls-2{isolation:isolate;}.cls-3{clip-path:url(#clip-path);}.cls-4{opacity:0.27;mix-blend-mode:multiply;}.cls-5{fill:url(#linear-gradient-4);}.cls-6{fill:#fff;}.cls-7{fill:url(#_ÂÁ_Ï_ÌÌ_È_ËÂÌÚ_32);}.cls-8{fill:url(#_ÂÁ_Ï_ÌÌ_È_ËÂÌÚ_32-2);}.cls-9{fill:#333242;}.cls-10{fill:url(#_ÂÁ_Ï_ÌÌ_È_ËÂÌÚ_32-3);}.cls-11{fill:url(#_ÂÁ_Ï_ÌÌ_È_ËÂÌÚ_32-4);}.cls-12{fill:url(#_ÂÁ_Ï_ÌÌ_È_ËÂÌÚ_32-5);}.cls-13{fill:url(#_ÂÁ_Ï_ÌÌ_È_ËÂÌÚ_32-6);}.cls-14{fill:#0d5bd9;}.cls-15{fill:#0a429f;}.cls-16{fill:#ffb725;}.cls-17{fill:url(#_ÂÁ_Ï_ÌÌ_È_ËÂÌÚ_3);}.cls-18{fill:url(#_ÂÁ_Ï_ÌÌ_È_ËÂÌÚ_3-2);}.cls-19{fill:url(#_ÂÁ_Ï_ÌÌ_È_ËÂÌÚ_3-3);}.cls-20{fill:url(#_ÂÁ_Ï_ÌÌ_È_ËÂÌÚ_3-4);}.cls-21{fill:url(#_ÂÁ_Ï_ÌÌ_È_ËÂÌÚ_3-5);}.cls-22{fill:url(#_ÂÁ_Ï_ÌÌ_È_ËÂÌÚ_32-7);}.cls-23{fill:url(#_ÂÁ_Ï_ÌÌ_È_ËÂÌÚ_32-8);}.cls-24{fill:url(#_ÂÁ_Ï_ÌÌ_È_ËÂÌÚ_40);}.cls-25{fill:url(#_ÂÁ_Ï_ÌÌ_È_ËÂÌÚ_32-9);}.cls-26{fill:url(#_ÂÁ_Ï_ÌÌ_È_ËÂÌÚ_32-10);}.cls-27{fill:url(#_ÂÁ_Ï_ÌÌ_È_ËÂÌÚ_40-2);}.cls-28{fill:#ffcab8;}.cls-29{fill:#fd4b1b;}.cls-30{fill:#c3391c;}.cls-31{fill:url(#_ÂÁ_Ï_ÌÌ_È_ËÂÌÚ_2);}.cls-32{fill:url(#_ÂÁ_Ï_ÌÌ_È_ËÂÌÚ_2-2);}.cls-33{fill:url(#_ÂÁ_Ï_ÌÌ_È_ËÂÌÚ_32-11);}.cls-34{fill:url(#_ÂÁ_Ï_ÌÌ_È_ËÂÌÚ_32-12);}.cls-35{fill:#ffc3ab;}.cls-36{fill:#42445d;}.cls-37{fill:url(#_ÂÁ_Ï_ÌÌ_È_ËÂÌÚ_2-3);}.cls-38{fill:url(#_ÂÁ_Ï_ÌÌ_È_ËÂÌÚ_2-4);}.cls-39{fill:url(#_ÂÁ_Ï_ÌÌ_È_ËÂÌÚ_2-5);}.cls-40{fill:url(#_ÂÁ_Ï_ÌÌ_È_ËÂÌÚ_2-6);}.cls-41{fill:url(#_ÂÁ_Ï_ÌÌ_È_ËÂÌÚ_2-7);}</style><linearGradient id="linear-gradient" x1="63.87" y1="104.01" x2="356.87" y2="104.01" gradientUnits="userSpaceOnUse"><stop offset="0" stop-color="#adc200"/><stop offset="0.14" stop-color="#aac000"/><stop offset="0.23" stop-color="#a1b900"/><stop offset="0.31" stop-color="#93af00"/><stop offset="0.41" stop-color="#8dab00"/><stop offset="0.53" stop-color="#7c9f00"/><stop offset="0.6" stop-color="#6f9600"/><stop offset="0.92" stop-color="#598700"/></linearGradient><clipPath id="clip-path"><rect class="cls-1" x="63.87" y="42.51" width="293" height="123" rx="11.19"/></clipPath><linearGradient id="linear-gradient-4" x1="0" y1="93.63" x2="202.41" y2="93.63" xlink:href="#linear-gradient"/><linearGradient id="_ÂÁ_Ï_ÌÌ_È_ËÂÌÚ_32" x1="101.35" y1="133.79" x2="197.18" y2="133.79" gradientUnits="userSpaceOnUse"><stop offset="0" stop-color="#eff6ff"/><stop offset="1" stop-color="#c4d8fb"/></linearGradient><linearGradient id="_ÂÁ_Ï_ÌÌ_È_ËÂÌÚ_32-2" x1="87.85" y1="106.53" x2="114.53" y2="106.53" gradientTransform="translate(199.28 -2.86) rotate(85.41)" xlink:href="#_ÂÁ_Ï_ÌÌ_È_ËÂÌÚ_32"/><linearGradient id="_ÂÁ_Ï_ÌÌ_È_ËÂÌÚ_32-3" x1="105.31" y1="103.18" x2="113.45" y2="103.18" xlink:href="#_ÂÁ_Ï_ÌÌ_È_ËÂÌÚ_32"/><linearGradient id="_ÂÁ_Ï_ÌÌ_È_ËÂÌÚ_32-4" x1="87.63" y1="94" x2="113.62" y2="94" gradientTransform="translate(186.29 -13.82) rotate(85.42)" xlink:href="#_ÂÁ_Ï_ÌÌ_È_ËÂÌÚ_32"/><linearGradient id="_ÂÁ_Ï_ÌÌ_È_ËÂÌÚ_32-5" x1="105.22" y1="90.13" x2="113.36" y2="90.13" xlink:href="#_ÂÁ_Ï_ÌÌ_È_ËÂÌÚ_32"/><linearGradient id="_ÂÁ_Ï_ÌÌ_È_ËÂÌÚ_32-6" x1="84.86" y1="80.32" x2="111.75" y2="80.32" gradientTransform="translate(170.51 -24.1) rotate(85.41)" xlink:href="#_ÂÁ_Ï_ÌÌ_È_ËÂÌÚ_32"/><linearGradient id="_ÂÁ_Ï_ÌÌ_È_ËÂÌÚ_3" x1="99.01" y1="101.09" x2="99.01" y2="99.86" gradientTransform="translate(190.6 -6.81) rotate(85.07)" gradientUnits="userSpaceOnUse"><stop offset="0" stop-color="#fdb522"/><stop offset="1" stop-color="#fb6b14"/></linearGradient><linearGradient id="_ÂÁ_Ï_ÌÌ_È_ËÂÌÚ_3-2" x1="99.93" y1="90.47" x2="99.93" y2="89.23" gradientTransform="translate(180.86 -17.43) rotate(85.07)" xlink:href="#_ÂÁ_Ï_ÌÌ_È_ËÂÌÚ_3"/><linearGradient id="_ÂÁ_Ï_ÌÌ_È_ËÂÌÚ_3-3" x1="100.38" y1="82.02" x2="100.38" y2="79.33" gradientTransform="translate(172.09 -26.29) rotate(85.05)" xlink:href="#_ÂÁ_Ï_ÌÌ_È_ËÂÌÚ_3"/><linearGradient id="_ÂÁ_Ï_ÌÌ_È_ËÂÌÚ_3-4" x1="99.48" y1="92.52" x2="99.48" y2="89.83" gradientTransform="translate(181.78 -15.75) rotate(85.08)" xlink:href="#_ÂÁ_Ï_ÌÌ_È_ËÂÌÚ_3"/><linearGradient id="_ÂÁ_Ï_ÌÌ_È_ËÂÌÚ_3-5" x1="98.54" y1="103.32" x2="98.54" y2="100.47" gradientTransform="translate(191.61 -5.02) rotate(85.08)" xlink:href="#_ÂÁ_Ï_ÌÌ_È_ËÂÌÚ_3"/><linearGradient id="_ÂÁ_Ï_ÌÌ_È_ËÂÌÚ_32-7" x1="82.66" y1="96.23" x2="97.88" y2="96.23" gradientTransform="translate(42.89 -26.91) rotate(22.12)" xlink:href="#_ÂÁ_Ï_ÌÌ_È_ËÂÌÚ_32"/><linearGradient id="_ÂÁ_Ï_ÌÌ_È_ËÂÌÚ_32-8" x1="93.17" y1="92.92" x2="103.65" y2="92.92" gradientTransform="translate(42.25 -30.22) rotate(22.13)" xlink:href="#_ÂÁ_Ï_ÌÌ_È_ËÂÌÚ_32"/><linearGradient id="_ÂÁ_Ï_ÌÌ_È_ËÂÌÚ_40" x1="82.66" y1="93.22" x2="93.7" y2="93.22" gradientUnits="userSpaceOnUse"><stop offset="0" stop-color="#eff6ff"/><stop offset="1" stop-color="#8aa8da"/></linearGradient><linearGradient id="_ÂÁ_Ï_ÌÌ_È_ËÂÌÚ_32-9" x1="82.13" y1="92.68" x2="93.19" y2="92.68" xlink:href="#_ÂÁ_Ï_ÌÌ_È_ËÂÌÚ_32"/><linearGradient id="_ÂÁ_Ï_ÌÌ_È_ËÂÌÚ_32-10" x1="93.22" y1="89" x2="102.33" y2="89" xlink:href="#_ÂÁ_Ï_ÌÌ_È_ËÂÌÚ_32"/><linearGradient id="_ÂÁ_Ï_ÌÌ_È_ËÂÌÚ_40-2" x1="146.78" y1="100.44" x2="147.98" y2="100.44" xlink:href="#_ÂÁ_Ï_ÌÌ_È_ËÂÌÚ_40"/><linearGradient id="_ÂÁ_Ï_ÌÌ_È_ËÂÌÚ_2" x1="138.27" y1="84.79" x2="149.81" y2="84.79" gradientUnits="userSpaceOnUse"><stop offset="0" stop-color="#fb6b14"/><stop offset="1" stop-color="#fdb522"/></linearGradient><linearGradient id="_ÂÁ_Ï_ÌÌ_È_ËÂÌÚ_2-2" x1="137.77" y1="86.58" x2="140.59" y2="86.58" xlink:href="#_ÂÁ_Ï_ÌÌ_È_ËÂÌÚ_2"/><linearGradient id="_ÂÁ_Ï_ÌÌ_È_ËÂÌÚ_32-11" x1="146.39" y1="91.5" x2="160.97" y2="91.5" xlink:href="#_ÂÁ_Ï_ÌÌ_È_ËÂÌÚ_32"/><linearGradient id="_ÂÁ_Ï_ÌÌ_È_ËÂÌÚ_32-12" x1="148.25" y1="92.71" x2="160.97" y2="92.71" xlink:href="#_ÂÁ_Ï_ÌÌ_È_ËÂÌÚ_32"/><linearGradient id="_ÂÁ_Ï_ÌÌ_È_ËÂÌÚ_2-3" x1="153.21" y1="95.75" x2="168.72" y2="95.75" xlink:href="#_ÂÁ_Ï_ÌÌ_È_ËÂÌÚ_2"/><linearGradient id="_ÂÁ_Ï_ÌÌ_È_ËÂÌÚ_2-4" x1="82.81" y1="102.18" x2="122.42" y2="102.18" xlink:href="#_ÂÁ_Ï_ÌÌ_È_ËÂÌÚ_2"/><linearGradient id="_ÂÁ_Ï_ÌÌ_È_ËÂÌÚ_2-5" x1="143.58" y1="86.26" x2="153.72" y2="86.26" xlink:href="#_ÂÁ_Ï_ÌÌ_È_ËÂÌÚ_2"/><linearGradient id="_ÂÁ_Ï_ÌÌ_È_ËÂÌÚ_2-6" x1="142.16" y1="88.86" x2="145.42" y2="88.86" xlink:href="#_ÂÁ_Ï_ÌÌ_È_ËÂÌÚ_2"/><linearGradient id="_ÂÁ_Ï_ÌÌ_È_ËÂÌÚ_2-7" x1="145.22" y1="88.09" x2="145.83" y2="88.09" xlink:href="#_ÂÁ_Ï_ÌÌ_È_ËÂÌÚ_2"/></defs><title>Asset 20</title><g class="cls-2"><g id="Layer_2" data-name="Layer 2"><g id="Layer_1-2" data-name="Layer 1"><rect class="cls-1" x="63.87" y="42.51" width="293" height="123" rx="11.19"/><g class="cls-3"><rect class="cls-1" x="63.87" y="42.51" width="293" height="123" rx="11.19"/><g class="cls-4"><path class="cls-5" d="M68.53,2.8C50.1,7,28.18,20.26,17.1,35.57,7.37,49,1.13,63.44.28,80c-1.37,26.56,1.82,55.58,20.06,74.93a103.78,103.78,0,0,0,47.45,28.36c13.12,3.44,53.24,6.87,72.13,0,14.06-5.11,27.76-11.67,38.06-22.52,6.06-6.38,11.74-13.23,15.92-21C201,126.53,203.45,111,202,96S197.42,65.29,190.26,52a93.43,93.43,0,0,0-28-32.14C149.26,10.51,110.93-6.77,68.53,2.8Z"/></g></g><path class="cls-6" d="M243.4,127.74a5.7,5.7,0,0,1,8.23.52,4.44,4.44,0,0,1,.84,2.28h-2.56a3.36,3.36,0,0,0-.63-1.33,2.79,2.79,0,0,0-4.18.33,5.53,5.53,0,0,0-.79,3.18,4.81,4.81,0,0,0,.84,3.09,2.6,2.6,0,0,0,2.11,1,2.39,2.39,0,0,0,2-.88,3.94,3.94,0,0,0,.63-1.42h2.54a5.53,5.53,0,0,1-1.68,3.26A4.9,4.9,0,0,1,247.3,139a5.2,5.2,0,0,1-4.11-1.69,6.87,6.87,0,0,1-1.49-4.67A6.79,6.79,0,0,1,243.4,127.74Z"/><path class="cls-6" d="M261.74,137.59a5,5,0,0,1-7,0,5.59,5.59,0,0,1,0-6.79,4.91,4.91,0,0,1,7,0,5.59,5.59,0,0,1,0,6.79Zm-1.89-1.3a3.45,3.45,0,0,0,.56-2.1,3.4,3.4,0,0,0-.56-2.09,1.88,1.88,0,0,0-1.59-.74,1.9,1.9,0,0,0-1.6.74,3.33,3.33,0,0,0-.56,2.09,3.39,3.39,0,0,0,.56,2.1,1.89,1.89,0,0,0,1.6.73A1.87,1.87,0,0,0,259.85,136.29Z"/><path class="cls-6" d="M275.75,129.69a2.58,2.58,0,0,1,1.06.81,2.67,2.67,0,0,1,.51,1.16,7.67,7.67,0,0,1,.08,1.34v5.7H275v-5.76a2,2,0,0,0-.16-.85,1.18,1.18,0,0,0-1.16-.63,1.36,1.36,0,0,0-1.36.82,2.46,2.46,0,0,0-.19,1v5.39h-2.38v-5.39a3.07,3.07,0,0,0-.17-1.17,1.17,1.17,0,0,0-1.17-.65,1.41,1.41,0,0,0-1.36.65,2.51,2.51,0,0,0-.19,1.12v5.44h-2.4v-9h2.3V131a3.58,3.58,0,0,1,.83-1,3.25,3.25,0,0,1,3.46-.08,2.54,2.54,0,0,1,.78,1.09,3,3,0,0,1,1.16-1.17,3.49,3.49,0,0,1,1.62-.38A3.07,3.07,0,0,1,275.75,129.69Z"/><path class="cls-6" d="M290.75,129.69a2.49,2.49,0,0,1,1.05.81,2.57,2.57,0,0,1,.52,1.16,8.82,8.82,0,0,1,.08,1.34l0,5.7H290v-5.76a2,2,0,0,0-.17-.85,1.17,1.17,0,0,0-1.16-.63,1.35,1.35,0,0,0-1.35.82,2.46,2.46,0,0,0-.19,1v5.39h-2.38v-5.39a3.07,3.07,0,0,0-.17-1.17,1.17,1.17,0,0,0-1.17-.65,1.4,1.4,0,0,0-1.36.65,2.51,2.51,0,0,0-.19,1.12v5.44h-2.4v-9h2.3V131a3.58,3.58,0,0,1,.83-1,2.8,2.8,0,0,1,1.78-.54,2.88,2.88,0,0,1,1.68.46,2.72,2.72,0,0,1,.78,1.09,3,3,0,0,1,1.15-1.17,3.53,3.53,0,0,1,1.63-.38A3.07,3.07,0,0,1,290.75,129.69Z"/><path class="cls-6" d="M300.35,129.84a3.78,3.78,0,0,1,1.57,1.33,4.5,4.5,0,0,1,.72,1.88,11.08,11.08,0,0,1,.07,1.79h-6.59a2.19,2.19,0,0,0,.95,1.91,2.39,2.39,0,0,0,1.31.34,2.05,2.05,0,0,0,1.31-.41,2.19,2.19,0,0,0,.49-.63h2.41a2.9,2.9,0,0,1-.88,1.64,4.39,4.39,0,0,1-3.4,1.32,5,5,0,0,1-3.19-1.11,4.42,4.42,0,0,1-1.38-3.63,4.88,4.88,0,0,1,1.25-3.6,4.35,4.35,0,0,1,3.23-1.26A5,5,0,0,1,300.35,129.84Zm-3.54,2a2.49,2.49,0,0,0-.63,1.4h4.08a2,2,0,0,0-.63-1.43,2.11,2.11,0,0,0-1.4-.49A1.92,1.92,0,0,0,296.81,131.88Z"/><path class="cls-6" d="M308.82,129.44h.2v2.43l-.4,0h-.28a2,2,0,0,0-1.92.93,3.62,3.62,0,0,0-.27,1.61v4.32h-2.38v-9H306v1.58a5.21,5.21,0,0,1,1-1.24,2.6,2.6,0,0,1,1.73-.55Z"/><path class="cls-6" d="M315.7,132.9a2,2,0,0,0-.34-.91,1.43,1.43,0,0,0-1.24-.55,1.62,1.62,0,0,0-1.64,1.18,4.85,4.85,0,0,0-.23,1.68,4.48,4.48,0,0,0,.23,1.6,1.58,1.58,0,0,0,1.6,1.12,1.43,1.43,0,0,0,1.18-.44,2.27,2.27,0,0,0,.42-1.17h2.42a4.09,4.09,0,0,1-.78,2.05A3.8,3.8,0,0,1,314,139a3.85,3.85,0,0,1-3.22-1.3,5.25,5.25,0,0,1-1-3.35,5.32,5.32,0,0,1,1.14-3.63,4,4,0,0,1,3.14-1.29,4.72,4.72,0,0,1,2.79.76,3.55,3.55,0,0,1,1.28,2.7Z"/><path class="cls-6" d="M325.52,129.84a3.7,3.7,0,0,1,1.56,1.33,4.65,4.65,0,0,1,.73,1.88,11.08,11.08,0,0,1,.07,1.79h-6.59a2.19,2.19,0,0,0,.95,1.91,2.35,2.35,0,0,0,1.3.34,2.06,2.06,0,0,0,1.32-.41,2,2,0,0,0,.48-.63h2.42a3,3,0,0,1-.88,1.64,4.39,4.39,0,0,1-3.4,1.32,4.94,4.94,0,0,1-3.19-1.11,4.42,4.42,0,0,1-1.38-3.63,4.88,4.88,0,0,1,1.25-3.6,4.35,4.35,0,0,1,3.23-1.26A5,5,0,0,1,325.52,129.84Zm-3.54,2a2.49,2.49,0,0,0-.63,1.4h4.08a2,2,0,0,0-.63-1.43,2.12,2.12,0,0,0-1.41-.49A1.91,1.91,0,0,0,322,131.88Z"/><ellipse class="cls-7" cx="147.38" cy="133.79" rx="44.46" ry="5.54"/><rect class="cls-8" x="95.39" y="93.61" width="11.6" height="25.83" transform="translate(-13.09 198.87) rotate(-85.41)"/><rect class="cls-9" x="103.22" y="99.73" width="11.6" height="14.84" transform="translate(-6.5 207.26) rotate(-85.41)"/><rect class="cls-6" x="98.88" y="108.76" width="2.61" height="1.79" transform="translate(-17.09 200.81) rotate(-85.44)"/><path class="cls-10" d="M109.07,105.31c1.72.14,3.36-1.32,4.38-3.62l-8.14-.65C106,103.47,107.34,105.17,109.07,105.31Z"/><rect class="cls-9" x="93.89" y="102.73" width="1.35" height="5.5" transform="matrix(0.08, -1, 1, 0.08, -18.13, 191.32)"/><rect class="cls-11" x="93.99" y="81.5" width="13.28" height="25.01" transform="translate(-1.12 186.79) rotate(-85.42)"/><rect class="cls-9" x="102.23" y="87.24" width="13.28" height="14.84" transform="translate(5.8 195.61) rotate(-85.41)"/><rect class="cls-6" x="98.5" y="96.74" width="2.99" height="1.79" transform="matrix(0.08, -1, 1, 0.08, -5.28, 189.54)"/><path class="cls-12" d="M108.93,92.55c1.73.14,3.38-1.55,4.43-4.19l-8.14-.65C105.84,90.48,107.21,92.41,108.93,92.55Z"/><rect class="cls-9" x="93.65" y="90.17" width="1.55" height="5.5" transform="translate(-5.74 179.62) rotate(-85.42)"/><rect class="cls-13" x="91.47" y="67.38" width="13.68" height="25.88" transform="translate(10.38 171.89) rotate(-85.41)"/><rect class="cls-14" x="99.28" y="73.52" width="13.68" height="14.84" transform="translate(16.95 180.25) rotate(-85.41)"/><rect class="cls-6" x="95.12" y="83.08" width="3.08" height="1.79" transform="translate(5.2 173.59) rotate(-85.4)"/><path class="cls-15" d="M105.61,78.73c1.73.13,3.39-1.61,4.44-4.33l-8.13-.65C102.53,76.6,103.89,78.59,105.61,78.73Z"/><rect class="cls-9" x="90.3" y="76.38" width="1.59" height="5.5" transform="translate(4.92 163.6) rotate(-85.41)"/><rect class="cls-14" x="94.54" y="89.42" width="33.25" height="14.16" transform="translate(5.47 198.96) rotate(-85.07)"/><rect class="cls-16" x="82.84" y="90.82" width="33.25" height="9.34" transform="translate(-4.22 186.37) rotate(-85.07)"/><rect class="cls-16" x="110.52" y="94.4" width="0.44" height="14.16" transform="translate(0.1 203.09) rotate(-85.07)"/><rect class="cls-17" x="98.79" y="95.83" width="0.44" height="9.3" transform="translate(-9.6 190.48) rotate(-85.07)"/><rect class="cls-16" x="111.43" y="83.78" width="0.44" height="14.16" transform="translate(11.53 194.29) rotate(-85.07)"/><rect class="cls-18" x="99.71" y="85.2" width="0.44" height="9.3" transform="translate(1.82 181.69) rotate(-85.07)"/><rect class="cls-6" x="115.95" y="88.1" width="2.06" height="2.38" transform="translate(17.96 198.15) rotate(-85.07)"/><rect class="cls-6" x="105.14" y="97.76" width="2.06" height="2.38" transform="matrix(0.09, -1, 1, 0.09, -1.55, 196.2)"/><polygon class="cls-6" points="104.66 110.19 106.73 111.67 107.48 109.84 105.42 108.35 104.66 110.19"/><rect class="cls-19" x="99.11" y="79.74" width="2.54" height="1.86" transform="translate(11.35 173.72) rotate(-85.05)"/><rect class="cls-20" x="98.21" y="90.24" width="2.53" height="1.86" transform="translate(0.11 182.46) rotate(-85.08)"/><rect class="cls-21" x="97.2" y="100.91" width="2.69" height="1.97" transform="translate(-11.43 191.34) rotate(-85.08)"/><rect class="cls-22" x="84.59" y="89.98" width="11.35" height="12.5" transform="translate(-29.59 41.08) rotate(-22.12)"/><rect class="cls-23" x="95.3" y="86.67" width="6.23" height="12.5" transform="translate(-27.75 43.91) rotate(-22.13)"/><polygon class="cls-24" points="82.66 92.57 84.93 98.15 93.7 94.58 93.18 88.3 82.66 92.57"/><polygon class="cls-9" points="93.17 88.3 93.32 88.53 97.97 95.1 102 93.46 98.94 85.95 93.17 88.3"/><polygon class="cls-25" points="82.14 97.08 92.93 92.69 93.19 88.28 82.72 92.53 82.14 97.08"/><polygon class="cls-26" points="93.22 88.26 96.61 92.07 102.33 89.74 98.94 85.94 93.22 88.26"/><path class="cls-27" d="M149.43,99.42c-1.08-.17-3.07.43-2.57,1.26a4.11,4.11,0,0,0,2.46.79A1,1,0,0,0,149.43,99.42Z"/><path class="cls-28" d="M149.54,119.74c-.75-1.74-1.44-3.65-2.26-4.19s-4.82.38-3.44,2.7c0,0,6.37,9.5,6.62,9.9s1.29.82,1.7.25.37-1-.07-2S150.29,121.47,149.54,119.74Z"/><path class="cls-29" d="M149,99.56c-4,5-7.43,13.06-7.43,14.45,0,.83,6.14,12.16,6.84,12.84a6.29,6.29,0,0,0,4-1.7s-4.46-9.51-4.37-10a2.84,2.84,0,0,1,.08-.66c.2-.39-.31-.5-.17-.7s4.7-4.92,6.77-8.58S152.61,95.12,149,99.56Z"/><path class="cls-30" d="M149,99.56c-.23.29-.47.59-.69.91,1.07.52,3.26,2.56,1.75,3-.56.17-1.66.2-1.19.59a12.15,12.15,0,0,1,1.8,2.28c.07.83-1.69,1.57-2.2,2.21-.67.84-1.82,1.91-1.77,2.31.38,3.17-1.79,2.66-1.93,3.51-.1.63,1.21,1.3,1.58,1.77,1.43,1.82.6,4,1.8,5.77a23.93,23.93,0,0,1,2.21,4.52,5.89,5.89,0,0,0,2.06-1.3s-4.46-9.51-4.37-10a2.84,2.84,0,0,1,.08-.66c.2-.39-.31-.5-.17-.7s4.7-4.92,6.77-8.58S152.61,95.12,149,99.56Z"/><path class="cls-28" d="M169.68,121.06c-1.36-1.31-2.75-2.8-3.72-3s-4.28,2.22-2.11,3.82c0,0,4.68,2.72,7.1,4.39a24.44,24.44,0,0,1,2.84,2.16c.38.27,1.51.25,1.67-.43s0-1-.84-1.81S171,122.37,169.68,121.06Z"/><path class="cls-29" d="M163.48,115.2c-.3-.2-.64.13-.7-.23s-.18-16.35-3.72-18.23a8.94,8.94,0,0,0-7.08-.06c-1.33.58-2.62,2.69-2.08,3.74s8,17.27,8.73,18,11.76,8.38,11.76,8.38,2.38-1.57,2.75-3.51c0,0-7.71-7.2-9.19-7.51C163.56,115.75,163.79,115.4,163.48,115.2Z"/><path class="cls-30" d="M163.48,115.2c-.3-.2-.64.13-.7-.23s-.18-16.35-3.72-18.23a8.94,8.94,0,0,0-7.08-.06c-1.33.58-2.62,2.69-2.08,3.74.08.15.2.37.35.63a1.84,1.84,0,0,1,2-.06c1.38.77,2.68,1.67,4.06,2.44A5.81,5.81,0,0,1,159,106c.85,1.69.15,3.59.24,5.44,0,.94.9,1.64,1.2,2.54.73,2.12.71,4.56,2.75,5.92a55.79,55.79,0,0,0,5.23,3.06,1.81,1.81,0,0,1,.45,2.92l1.5,1s2.38-1.57,2.75-3.51c0,0-7.71-7.2-9.19-7.51C163.56,115.75,163.79,115.4,163.48,115.2Z"/><path class="cls-28" d="M138.27,85.07c-1.39,0-9.44,1.05-10.08.86s-1.41-1.14-1.54-1.19-.34-.17-.45-.22-.29,0-.62.15a5.57,5.57,0,0,0-1.13.76c-.07.08-.21.54-.34.73s-.17.28-.07.29a.82.82,0,0,0,.58-.29c.15-.19.17-.42.3-.47a1.79,1.79,0,0,1,.76,0,8.25,8.25,0,0,1,.84,1,2,2,0,0,0,1.85.55c1.94.31,5.66.82,7.33.91s2.78.26,3.24-.16a2,2,0,0,0,.65-1.62C139.51,85.79,139.66,85.1,138.27,85.07Z"/><path class="cls-31" d="M145.76,81l-7.49,4.12.69,4a12.92,12.92,0,0,0,2.31-.37c.17-.16.24-.39.41-.46a64.51,64.51,0,0,0,6.3-2.7c2-1.2,2.34-3.11,1.17-4.39A2.73,2.73,0,0,0,145.76,81Z"/><path class="cls-32" d="M139.83,84.21c-.57-.35-2.41.56-2,.88a3.84,3.84,0,0,1,.41,1.93c-.05.66-.33,1.83,0,1.84s1.62.19,1.81.15.26-.19.32-.47S141.12,85,139.83,84.21Z"/><path class="cls-16" d="M146.28,81.61c-.27,1,.13,2.11-.3,3.82s-.77,2.48-.34,3.84,1.56,1.12,1.39,3-.55,5.88,3.07,7.18l-1.55-19.29A1.81,1.81,0,0,0,146.28,81.61Z"/><path class="cls-33" d="M147.88,81.17s-.48,3.66-.66,5.18-1.57,2.94-.3,4.28c2.15,2.3,1.1,7.66.37,8.49s-.77,1.24-.43,1.56c0,0-.42-.6,1.34-.31s4.64,1.86,8,1.36S160.8,100,161,99.5c0,0-4.29-8.19-5.05-13.9C155.6,83.15,147.88,81.17,147.88,81.17Z"/><path class="cls-34" d="M149.2,84.18a3.6,3.6,0,0,0,1.36,3c.6.62-2.48,1.92-2.3,2.8.41,2,3.45,1.79,2.41,3.32-.17.25-2,1.94,2.44,3,1.56.37,1.79,1.09,3.21,1.78,2.33,1.12.94,2.43,1.21,3.41,2.36-.59,3.29-1.54,3.44-2,0,0-4.29-8.19-5.05-13.9C155.69,83.81,149.19,83.73,149.2,84.18Z"/><path class="cls-28" d="M149.5,76l-3.38,3s1.48.74,1.67,1.49a12.57,12.57,0,0,1,0,2.81c0,.49,1.53-.21,2.13-1.21a25.93,25.93,0,0,0,1.4-3.17A5.46,5.46,0,0,1,149.5,76Z"/><path class="cls-35" d="M149.5,76l-3.38,3a9.72,9.72,0,0,0,1.38.27c1.47.06,2.57-1.15,2.57.58,0,.78,0,1.75.51.78.35-.66.75-1.71.75-1.71A5.46,5.46,0,0,1,149.5,76Z"/><path class="cls-36" d="M163.22,66.3a3.31,3.31,0,0,0-3.93,0c-1.17.7-1.86,1.72-3.12,1.8-.77,0-2.58-1.4-4.41-.48-1.6.8-1.38,1.83-1.38,1.83a8.86,8.86,0,0,1,.64.76,1,1,0,0,0,1.23.17c.53-.28.65-.84,1.61-.36s2,2.71,4.06,2.21,2.54-2.06,4.07-2.92a2,2,0,0,1,2.56.71C164.57,68.33,164.63,67.32,163.22,66.3Z"/><path class="cls-36" d="M144.39,70.11a2.87,2.87,0,0,0-1.62,2.49c.14,1.05,1.1,2.25,3.26,1.63s2.31-3.14,1.55-3.81A2.81,2.81,0,0,0,144.39,70.11Z"/><path class="cls-28" d="M146.85,69.68c-2.89.6-3.17,2.53-3.33,4.31a2.67,2.67,0,0,1-.39,1.38c-.26.43-.59.73-.59,1.06s.64.36.7.49.57,2.15.69,2.25c.3.26.49.27,1.19.17A5.86,5.86,0,0,0,149,76.8c2.1-.88,2.92-1.79,3-3.72S149.74,69.07,146.85,69.68Z"/><path class="cls-35" d="M143.09,76.39c-.1,0-.15.14-.15.14s.4.16.4.14A.76.76,0,0,0,143.09,76.39Z"/><path class="cls-36" d="M152.06,71.14a4.39,4.39,0,0,0-3.48-2.34,3.18,3.18,0,0,0-2.93.77c-.3.07-1.82-.2-2.39.46-2.13,2.46,5.77,2.73,5.77,4.52a5.65,5.65,0,0,0,.59,2.24c.47.59,2.85.68,2.59-1.38C152.06,74.13,153,73.06,152.06,71.14Z"/><path class="cls-28" d="M149.46,74.72c-.63.15-.63.52-.77.87s-.31,1.29.24,1.4.66-.38,1.07-.73C150.59,75.76,150.37,74.5,149.46,74.72Z"/><path class="cls-9" d="M149.17,76.36a.2.2,0,0,0-.23.16.19.19,0,0,0,.13.25.2.2,0,0,0,.23-.16A.19.19,0,0,0,149.17,76.36Z"/><path class="cls-9" d="M150.56,68.69s-.47.13-.53.53L151.94,71a.57.57,0,0,0,.39-.6A3.18,3.18,0,0,0,150.56,68.69Z"/><path class="cls-36" d="M165.15,65.89,165,66l-.2.16-.12.07-.13.08-.15,0-.07,0h-.08a.76.76,0,0,1-.15,0H164l-.16,0-.16-.06a3.11,3.11,0,0,1-.33-.15L163,66c-.12-.05-.23-.11-.35-.15l-.34-.1c-.1,0-.23,0-.33-.06h-.41l.09,1,.17,0,.09,0H162a1,1,0,0,1,.19,0h.27l.32,0,.36.07.4.07.21,0h.22l.22,0a.8.8,0,0,0,.2-.07l.09,0,.09,0a.78.78,0,0,0,.15-.1l.13-.12a.38.38,0,0,0,.1-.12,2.62,2.62,0,0,0,.17-.21l.11-.18a1.56,1.56,0,0,0,.09-.15h0Z"/><path class="cls-36" d="M162.87,71.49a2.22,2.22,0,0,0-.09-.28,1.42,1.42,0,0,0-.08-.18,1.74,1.74,0,0,0-.11-.18,1.34,1.34,0,0,0-.36-.35,1.37,1.37,0,0,0-.54-.22,3.71,3.71,0,0,0-1.2,0l-1.09.22-.92.17-.35,0-.26,0h-.25l.27,1.48.25-.08.31-.11.38-.15c.28-.11.58-.26.9-.42l1-.47a2.8,2.8,0,0,1,1-.27,1,1,0,0,1,.42,0,.9.9,0,0,1,.34.2.86.86,0,0,1,.14.13l.11.13.15.24a1.52,1.52,0,0,1,.09.17l0,.06a.28.28,0,0,0,0-.06A1.08,1.08,0,0,0,162.87,71.49Z"/><path class="cls-36" d="M147.76,74.24c-1.1.33-2.91-1.9-3.14-2.75l-.69.26a5.32,5.32,0,0,0,2.73,2.77A2,2,0,0,0,149,73.37,2.31,2.31,0,0,1,147.76,74.24Z"/><path class="cls-16" d="M159.69,95.2c-1.82-.37,0-1.7-.82-2.75-.33-.45-1.69-1.8-1.7-3.16a35.64,35.64,0,0,0-1-5.06,8,8,0,0,0-2.48-4.41A12.48,12.48,0,0,0,150.52,78a24.93,24.93,0,0,0-2.19,8.83,9.88,9.88,0,0,0,7,9.42c4.05,1.15,6,.28,7.41,1A5.67,5.67,0,0,0,159.69,95.2Z"/><path class="cls-37" d="M160.2,94.79c-2.48,1.37-6,1.21-7,.44,3.35,3,9.58,4.1,11.3,1.7a6.72,6.72,0,0,1,4.21-2.74C165.32,92.51,162.68,93.42,160.2,94.79Z"/><path class="cls-9" d="M177.91,128.4l-3.5,4.93-5.66-.08v.3c0,.09,0,.27.34.27h5.19a.89.89,0,0,0,.83-.34c.26-.27,3-4.42,3-4.51a.31.31,0,0,0,0-.32A1.39,1.39,0,0,0,177.91,128.4Z"/><path class="cls-28" d="M175,126.57c-.13-.14-.63.07-.91.32a5.47,5.47,0,0,0-.9,2.23,6.27,6.27,0,0,1-.59,1.95c-.16.13-2.71,1.12-2.8,1.33s-.14.88.39.92a21.71,21.71,0,0,0,4.19-.22,24.31,24.31,0,0,0,2.35-3.19c.48-.83.72-1.58.43-1.89S175.1,126.71,175,126.57Z"/><path class="cls-36" d="M176.32,127.2c-.2-.07-.26.07-.26.07s-1.26,4.29-1.35,4.46a.83.83,0,0,1-.5.38h-.5a15.51,15.51,0,0,0,.91,1.37s3.24-4.69,3.34-4.87a.35.35,0,0,0-.11-.4A12.68,12.68,0,0,0,176.32,127.2Z"/><path class="cls-16" d="M172.05,131a20.11,20.11,0,0,0-2.84,1.36,1,1,0,0,0-.46.89c0,.23.09.23.37.23h5.5a4,4,0,0,0-1-1.79A2.34,2.34,0,0,0,172.05,131Z"/><path class="cls-9" d="M154.73,128.64l-3.35,4.71-5.41-.08v.29c0,.09,0,.26.32.26h5a.85.85,0,0,0,.79-.33c.25-.25,2.86-4.22,2.91-4.3a.27.27,0,0,0,0-.31A1.34,1.34,0,0,0,154.73,128.64Z"/><path class="cls-28" d="M151.92,126.89c-.13-.13-.6.07-.88.31a5.18,5.18,0,0,0-.85,2.13,6.51,6.51,0,0,1-.57,1.87,27.35,27.35,0,0,0-2.68,1.26c-.08.21-.13.84.38.88a19.78,19.78,0,0,0,4-.21,22.61,22.61,0,0,0,2.25-3c.46-.79.68-1.51.41-1.8S152,127,151.92,126.89Z"/><path class="cls-36" d="M153.21,127.49a.21.21,0,0,0-.26.07s-1.19,4.1-1.28,4.26a.77.77,0,0,1-.48.36h-.48a12.78,12.78,0,0,0,.87,1.31s3.09-4.47,3.19-4.64a.33.33,0,0,0-.11-.39A12.17,12.17,0,0,0,153.21,127.49Z"/><path class="cls-16" d="M149.12,131.13a19.89,19.89,0,0,0-2.71,1.29,1,1,0,0,0-.44.85c0,.22.08.22.36.22h5.25a3.83,3.83,0,0,0-.91-1.7A2.18,2.18,0,0,0,149.12,131.13Z"/><path class="cls-9" d="M94.82,129.5A2.16,2.16,0,1,0,97,131.66,2.16,2.16,0,0,0,94.82,129.5Z"/><path class="cls-36" d="M94.82,130.11a1.55,1.55,0,1,0,1.55,1.55A1.55,1.55,0,0,0,94.82,130.11Z"/><rect class="cls-36" x="92.73" y="127.83" width="1.38" height="1.68"/><path class="cls-16" d="M94.62,129.36a.67.67,0,0,0-.59-.44H92.77a.46.46,0,0,0-.45.46v1a1.07,1.07,0,0,0,.36.74l1,.75a1.61,1.61,0,0,0,.82.28H95a.32.32,0,0,0,.33-.44Z"/><path class="cls-36" d="M94.82,131.46a.2.2,0,0,0-.2.2.21.21,0,1,0,.41,0A.2.2,0,0,0,94.82,131.46Z"/><path class="cls-36" d="M94.17,131.46a.2.2,0,0,0-.21.2.21.21,0,1,0,.41,0A.2.2,0,0,0,94.17,131.46Z"/><path class="cls-9" d="M131.05,129.5a2.16,2.16,0,1,0,2.16,2.16A2.16,2.16,0,0,0,131.05,129.5Z"/><path class="cls-36" d="M131.05,130.11a1.55,1.55,0,1,0,1.55,1.55A1.55,1.55,0,0,0,131.05,130.11Z"/><path class="cls-36" d="M129,125.55c-.4-.21-1.54-.73-1.59-.75l-.57,1.24,1.55.73c.26.13.55.43.55.64v2h1.37v-2A2.25,2.25,0,0,0,129,125.55Z"/><path class="cls-16" d="M130.85,129.36a.66.66,0,0,0-.59-.44H129a.46.46,0,0,0-.46.46v1a1.07,1.07,0,0,0,.36.74l1,.75a1.61,1.61,0,0,0,.82.28h.53a.32.32,0,0,0,.32-.44Z"/><path class="cls-36" d="M131.05,131.46a.2.2,0,0,0-.2.2.21.21,0,1,0,.41,0A.2.2,0,0,0,131.05,131.46Z"/><path class="cls-36" d="M130.4,131.46a.21.21,0,0,0-.21.2.21.21,0,0,0,.42,0A.21.21,0,0,0,130.4,131.46Z"/><path class="cls-36" d="M85,96.19c1-.16,25.19-2.08,37.82-3.07l-.08-.76c-1.49.12-36.58,2.87-37.9,3.08a1.83,1.83,0,0,0-1.71,2v12A2.26,2.26,0,0,0,85,111.86c.68.1,30.9,2.61,32.19,2.71l.08-.76c-10.86-.9-31.55-2.62-32.13-2.71S84,110.55,84,109.47v-12C84,96.77,84.16,96.33,85,96.19Z"/><path class="cls-36" d="M84.86,110.39c.67.09,28.9,2.34,33,2.67,0-.17,0-.34.07-.5-11.43-.91-32.45-2.6-33-2.68Z"/><path class="cls-36" d="M84.88,108.75c.87.07,28.46,1.71,33.38,2,0-.16.06-.33.1-.5l-33.43-2Z"/><path class="cls-36" d="M84.89,107.12c1.09,0,28.59,1.13,33.9,1.34,0-.17.09-.34.14-.5-5-.2-32.92-1.32-34-1.35Z"/><path class="cls-36" d="M84.9,105.48c1.32,0,29.23.59,34.57.7,0-.17.11-.34.17-.51-4.91-.1-33.4-.69-34.74-.7Z"/><path class="cls-36" d="M84.9,103.34v.51c1.55,0,30.24,0,35.33,0,.06-.17.12-.34.17-.51C115.82,103.37,86.48,103.32,84.9,103.34Z"/><path class="cls-36" d="M84.91,102.21l36-.61c0-.17.09-.34.14-.51l-36.2.61Z"/><path class="cls-36" d="M84.91,100.57l36.69-1.26.15-.51-36.86,1.26Z"/><path class="cls-36" d="M84.92,98.94c2.25-.1,32.3-1.66,37.38-1.92.06-.17.11-.34.17-.52-4.41.23-35.29,1.83-37.58,1.93Z"/><path class="cls-36" d="M84.92,97.3c2.52-.13,33.69-2.27,38.23-2.58.07-.18.14-.35.22-.53-3.4.24-35.91,2.47-38.48,2.6Z"/><polygon class="cls-36" points="113.89 113.88 114.46 113.99 119.3 93.83 118.73 93.73 113.89 113.88"/><polygon class="cls-36" points="111.43 113.67 112 113.76 116.36 94.06 115.79 93.97 111.43 113.67"/><polygon class="cls-36" points="108.98 113.45 109.55 113.54 113.42 94.3 112.85 94.21 108.98 113.45"/><polygon class="cls-36" points="106.52 113.23 107.09 113.31 110.48 94.53 109.91 94.45 106.52 113.23"/><polygon class="cls-36" points="104.06 113.02 104.64 113.09 107.54 94.77 106.96 94.7 104.06 113.02"/><polygon class="cls-36" points="101.6 112.8 102.18 112.86 104.6 95 104.02 94.94 101.6 112.8"/><polygon class="cls-36" points="99.15 112.58 99.73 112.63 101.66 95.23 101.08 95.18 99.15 112.58"/><polygon class="cls-36" points="96.69 112.37 97.27 112.41 98.72 95.46 98.14 95.43 96.69 112.37"/><polygon class="cls-36" points="94.23 112.15 94.81 112.18 95.78 95.7 95.2 95.67 94.23 112.15"/><polygon class="cls-36" points="91.78 111.94 92.36 111.95 92.84 95.93 92.26 95.92 91.78 111.94"/><rect class="cls-36" x="89.32" y="96.16" width="0.58" height="15.57"/><path class="cls-38" d="M82.81,97.2v12a2.69,2.69,0,0,0,2,2.79c.69.1,2.49.29,2.76.29s.78-.12.78-.56V99.17c0-1.66.2-2,2.2-2.14s31.09-2.11,31.09-2.11l.74-2.83c-1.49.11-36.59,2.87-37.9,3.08A1.82,1.82,0,0,0,82.81,97.2Z"/><path class="cls-16" d="M82.81,97.2v12a2.69,2.69,0,0,0,2,2.79l.94.11a2.84,2.84,0,0,1-1.54-2.63v-12a1.83,1.83,0,0,1,1.72-2c1.17-.19,29.29-2.4,36.35-3l.1-.39c-1.49.11-36.59,2.87-37.9,3.08A1.82,1.82,0,0,0,82.81,97.2Z"/><path class="cls-9" d="M126.44,120.68c-.59-.41-4.91-2.46-6.08-3.12a3,3,0,0,1-1.5-3.72c.28-1.08,5.93-25.26,6.12-26.09l-1.56-.36c0,.21-5.83,25-6.11,26a4.57,4.57,0,0,0,2.26,5.52c1.22.69,5.47,2.7,6,3a2.64,2.64,0,0,1,.94,3.12c-.49,1.18-1.6,1.5-5.19,1.5H91.81a.8.8,0,0,0,0,1.6h29.47c3.4,0,5.71-.17,6.67-2.49A4.24,4.24,0,0,0,126.44,120.68Z"/><path class="cls-16" d="M129.72,86l-5.6.71a.88.88,0,1,0,.22,1.74l5.6-.71a.89.89,0,0,0,.76-1A.86.86,0,0,0,129.72,86Z"/><path class="cls-28" d="M144.18,88.23c-.79-.35-.75-.74-2.32-1s-9.12,0-9.81-.35-1.43-1.48-1.57-1.56a5,5,0,0,1-.48-.31c-.12-.07-.34,0-.73.09a6.67,6.67,0,0,0-1.38.7c-.08.08-.3.58-.48.78s-.23.28-.11.31a.87.87,0,0,0,.69-.24c.19-.2.25-.45.4-.5s-.1,1.23.56,1.54c.14.06.79-.78,1.12-.26a2.31,2.31,0,0,0,2,.87c2.15.62,6.28,1.7,8.15,2s3.1.67,3.68.26,1.22-.87,1.21-1.45S144.54,88.38,144.18,88.23Z"/><path class="cls-35" d="M144.18,88.23c-.6-.27-.72-.55-1.42-.77a1.18,1.18,0,0,1-.89,1.47c-2.3.6-4.29-.56-6.54-.84-1.23-.16-2.65.37-3.83,0-1-.33-1.58-1.25-2.33-1.89a1.25,1.25,0,0,1-.44-.81,7.79,7.79,0,0,0-.84.48c-.08.08-.3.58-.48.78s-.23.28-.11.31a.87.87,0,0,0,.69-.24c.19-.2.25-.45.4-.5s-.1,1.23.56,1.54c.14.06.79-.78,1.12-.26a2.31,2.31,0,0,0,2,.87c2.15.62,6.28,1.7,8.15,2s3.1.67,3.68.26,1.22-.87,1.21-1.45S144.54,88.38,144.18,88.23Z"/><path class="cls-16" d="M152.4,79.66c-.85-.51-1.85-.35-3,1.29a40.45,40.45,0,0,1-3.68,3.9,35.39,35.39,0,0,1-2.94,2.79l1.1,2.79a4.19,4.19,0,0,1,1.41,0c.45.16.82.35,1,.12s.14-.51.3-.65a71.91,71.91,0,0,0,6-5.06C154.34,82.91,154.12,80.68,152.4,79.66Z"/><path class="cls-39" d="M153.57,81.84c.09.48-.92,1.44-2.15,2.16-.93.55-1.65.5-2.22,1.41-.44.69-.34,1.8-1,1.52,0,0-1.24-.61-1.32.34s-.83,2.3-1.67,1.76c-.5-.32-1.08.49-1.66.64l.3.76a4.19,4.19,0,0,1,1.41,0c.45.16.82.35,1,.12s.14-.51.3-.65a71.91,71.91,0,0,0,6-5.06C154.34,82.91,153.54,81.68,153.57,81.84Z"/><path class="cls-40" d="M143.74,86.64a.49.49,0,0,0-.47,0,10.77,10.77,0,0,0-1.08.59c0,.08-.07.13.05.38a8.17,8.17,0,0,1,.68,1.81,7.1,7.1,0,0,1,.13,1.25c0,.09.06.51.48.42a13.32,13.32,0,0,0,1.69-.35c.19-.11.22-.29.19-.62A5.67,5.67,0,0,0,143.74,86.64Z"/><path class="cls-16" d="M145.62,87.28a.22.22,0,0,0-.3,0,5.78,5.78,0,0,1-2.6,1.51s-.07,0-.06.15.19.66.21.77a.18.18,0,0,0,.12.14,3.17,3.17,0,0,0,1.54-.39,5.77,5.77,0,0,0,1.49-1,.33.33,0,0,0,.07-.34C146,88,145.67,87.35,145.62,87.28Z"/><path class="cls-41" d="M145.64,87.81a.3.3,0,0,0-.23.56.3.3,0,1,0,.23-.56Z"/><path class="cls-29" d="M145.53,87.77a.29.29,0,0,0-.4.16.3.3,0,1,0,.56.24A.3.3,0,0,0,145.53,87.77Z"/></g></g></g></svg>