<?xml version="1.0" encoding="utf-8"?>
<!-- Generator: Adobe Illustrator 23.0.1, SVG Export Plug-In . SVG Version: 6.00 Build 0)  -->
<svg version="1.1" id="Layer_1" xmlns="http://www.w3.org/2000/svg" xmlns:xlink="http://www.w3.org/1999/xlink" x="0px" y="0px"
	 viewBox="0 0 293 123" style="enable-background:new 0 0 293 123;" xml:space="preserve">
<style type="text/css">
	.st0{clip-path:url(#SVGID_3_);fill:url(#SVGID_4_);}
	.st1{opacity:0.27;clip-path:url(#SVGID_3_);}
	.st2{fill:url(#SVGID_5_);}
	.st3{fill:#FFFFFF;}
	.st4{opacity:0.3;}
	.st5{fill:url(#SVGID_6_);}
	.st6{fill:url(#SVGID_7_);}
	.st7{fill:#333242;}
	.st8{fill:url(#SVGID_8_);}
	.st9{fill:url(#SVGID_9_);}
	.st10{fill:url(#SVGID_10_);}
	.st11{fill:url(#SVGID_11_);}
	.st12{fill:#0D5BD9;}
	.st13{fill:#0A429F;}
	.st14{fill:#FFB725;}
	.st15{fill:url(#SVGID_12_);}
	.st16{fill:url(#SVGID_13_);}
	.st17{fill:url(#SVGID_14_);}
	.st18{fill:url(#SVGID_15_);}
	.st19{fill:url(#SVGID_16_);}
	.st20{fill:url(#SVGID_17_);}
	.st21{fill:url(#SVGID_18_);}
	.st22{fill:url(#SVGID_19_);}
	.st23{fill:url(#SVGID_20_);}
	.st24{fill:url(#SVGID_21_);}
	.st25{fill:url(#SVGID_22_);}
	.st26{fill:#FFCAB8;}
	.st27{fill:#FD4B1B;}
	.st28{fill:#C3391C;}
	.st29{fill:url(#SVGID_23_);}
	.st30{fill:url(#SVGID_24_);}
	.st31{fill:url(#SVGID_25_);}
	.st32{fill:url(#SVGID_26_);}
	.st33{fill:#FFC3AB;}
	.st34{fill:#42445D;}
	.st35{fill:url(#SVGID_27_);}
	.st36{fill:url(#SVGID_28_);}
	.st37{fill:url(#SVGID_29_);}
	.st38{fill:url(#SVGID_30_);}
	.st39{fill:url(#SVGID_31_);}
</style>
<g>
	<g>
		<defs>
			<path id="SVGID_1_" d="M281.8,123H11.2C5,123,0,118,0,111.8V11.2C0,5,5,0,11.2,0h270.6C288,0,293,5,293,11.2v100.6
				C293,118,288,123,281.8,123z"/>
		</defs>
		<linearGradient id="SVGID_2_" gradientUnits="userSpaceOnUse" x1="2.728484e-12" y1="61.5" x2="293" y2="61.5">
			<stop  offset="0" style="stop-color:#ADC200"/>
			<stop  offset="0.1359" style="stop-color:#AAC000"/>
			<stop  offset="0.2339" style="stop-color:#A1B900"/>
			<stop  offset="0.3114" style="stop-color:#93AF00"/>
			<stop  offset="0.4055" style="stop-color:#8DAB00"/>
			<stop  offset="0.5308" style="stop-color:#7C9F00"/>
			<stop  offset="0.604" style="stop-color:#6F9600"/>
			<stop  offset="0.9157" style="stop-color:#598700"/>
		</linearGradient>
		<use xlink:href="#SVGID_1_"  style="overflow:visible;fill:url(#SVGID_2_);"/>
		<clipPath id="SVGID_3_">
			<use xlink:href="#SVGID_1_"  style="overflow:visible;"/>
		</clipPath>
		<linearGradient id="SVGID_4_" gradientUnits="userSpaceOnUse" x1="2.728484e-12" y1="61.5" x2="293" y2="61.5">
			<stop  offset="0" style="stop-color:#ADC200"/>
			<stop  offset="0.1359" style="stop-color:#AAC000"/>
			<stop  offset="0.2339" style="stop-color:#A1B900"/>
			<stop  offset="0.3114" style="stop-color:#93AF00"/>
			<stop  offset="0.4055" style="stop-color:#8DAB00"/>
			<stop  offset="0.5308" style="stop-color:#7C9F00"/>
			<stop  offset="0.604" style="stop-color:#6F9600"/>
			<stop  offset="0.9157" style="stop-color:#598700"/>
		</linearGradient>
		<path class="st0" d="M281.8,123H11.2C5,123,0,118,0,111.8V11.2C0,5,5,0,11.2,0h270.6C288,0,293,5,293,11.2v100.6
			C293,118,288,123,281.8,123z"/>
		<g class="st1">
			<linearGradient id="SVGID_5_" gradientUnits="userSpaceOnUse" x1="-63.8719" y1="51.1187" x2="138.5388" y2="51.1187">
				<stop  offset="0" style="stop-color:#ADC200"/>
				<stop  offset="0.1359" style="stop-color:#AAC000"/>
				<stop  offset="0.2339" style="stop-color:#A1B900"/>
				<stop  offset="0.3114" style="stop-color:#93AF00"/>
				<stop  offset="0.4055" style="stop-color:#8DAB00"/>
				<stop  offset="0.5308" style="stop-color:#7C9F00"/>
				<stop  offset="0.604" style="stop-color:#6F9600"/>
				<stop  offset="0.9157" style="stop-color:#598700"/>
			</linearGradient>
			<path class="st2" d="M4.7-39.7c-18.4,4.2-40.4,17.5-51.4,32.8c-9.7,13.4-16,27.9-16.8,44.4C-65,64-61.8,93.1-43.5,112.4
				c12.4,13.2,29.9,23.7,47.5,28.4c13.1,3.4,53.2,6.9,72.1,0c14.1-5.1,27.8-11.7,38.1-22.5c6.1-6.4,11.7-13.2,15.9-21
				c7.1-13.3,9.6-28.8,8.1-43.8c-1.4-15-4.6-30.7-11.8-44c-7-13-16.1-23.5-28-32.1C85.4-32,47.1-49.3,4.7-39.7z"/>
		</g>
	</g>
	<g>
		<g>
			<path class="st3" d="M179.5,85.2c1-1,2.2-1.5,3.8-1.5c2,0,3.5,0.7,4.5,2c0.5,0.8,0.8,1.5,0.8,2.3H186c-0.2-0.6-0.4-1-0.6-1.3
				c-0.5-0.5-1.1-0.8-2-0.8c-0.9,0-1.6,0.4-2.2,1.1c-0.5,0.8-0.8,1.8-0.8,3.2s0.3,2.4,0.8,3.1c0.6,0.7,1.3,1,2.1,1
				c0.9,0,1.5-0.3,2-0.9c0.3-0.3,0.5-0.8,0.6-1.4h2.5c-0.2,1.3-0.8,2.4-1.7,3.3c-0.9,0.8-2.1,1.3-3.5,1.3c-1.7,0-3.1-0.6-4.1-1.7
				c-1-1.1-1.5-2.7-1.5-4.7C177.8,88,178.4,86.4,179.5,85.2z"/>
			<path class="st3" d="M197.9,95.1c-0.8,0.9-1.9,1.4-3.5,1.4c-1.6,0-2.7-0.5-3.5-1.4c-0.8-0.9-1.1-2.1-1.1-3.4
				c0-1.3,0.4-2.4,1.1-3.4c0.8-1,1.9-1.4,3.5-1.4c1.6,0,2.7,0.5,3.5,1.4c0.8,1,1.1,2.1,1.1,3.4C199,93,198.6,94.1,197.9,95.1z
				 M196,93.8c0.4-0.5,0.6-1.2,0.6-2.1s-0.2-1.6-0.6-2.1s-0.9-0.7-1.6-0.7s-1.2,0.2-1.6,0.7c-0.4,0.5-0.6,1.2-0.6,2.1
				s0.2,1.6,0.6,2.1c0.4,0.5,0.9,0.7,1.6,0.7S195.6,94.3,196,93.8z"/>
			<path class="st3" d="M211.9,87.2c0.4,0.2,0.7,0.4,1.1,0.8c0.3,0.3,0.4,0.7,0.5,1.2c0.1,0.3,0.1,0.8,0.1,1.3l0,5.7h-2.4v-5.8
				c0-0.3-0.1-0.6-0.2-0.8c-0.2-0.4-0.6-0.6-1.2-0.6c-0.7,0-1.1,0.3-1.4,0.8c-0.1,0.3-0.2,0.6-0.2,1v5.4h-2.4v-5.4
				c0-0.5-0.1-0.9-0.2-1.2c-0.2-0.4-0.6-0.7-1.2-0.7c-0.7,0-1.1,0.2-1.4,0.7c-0.1,0.2-0.2,0.6-0.2,1.1v5.4h-2.4v-9h2.3v1.3
				c0.3-0.5,0.6-0.8,0.8-1c0.5-0.4,1.1-0.5,1.8-0.5c0.7,0,1.3,0.2,1.7,0.5c0.3,0.3,0.6,0.6,0.8,1.1c0.3-0.5,0.7-0.9,1.2-1.2
				c0.5-0.2,1-0.4,1.6-0.4C211.1,86.9,211.5,87,211.9,87.2z"/>
			<path class="st3" d="M226.9,87.2c0.4,0.2,0.7,0.4,1.1,0.8c0.3,0.3,0.4,0.7,0.5,1.2c0.1,0.3,0.1,0.8,0.1,1.3l0,5.7h-2.4v-5.8
				c0-0.3-0.1-0.6-0.2-0.8c-0.2-0.4-0.6-0.6-1.2-0.6c-0.7,0-1.1,0.3-1.4,0.8c-0.1,0.3-0.2,0.6-0.2,1v5.4h-2.4v-5.4
				c0-0.5-0.1-0.9-0.2-1.2c-0.2-0.4-0.6-0.7-1.2-0.7c-0.7,0-1.1,0.2-1.4,0.7c-0.1,0.2-0.2,0.6-0.2,1.1v5.4h-2.4v-9h2.3v1.3
				c0.3-0.5,0.6-0.8,0.8-1c0.5-0.4,1.1-0.5,1.8-0.5c0.7,0,1.2,0.2,1.7,0.5c0.3,0.3,0.6,0.6,0.8,1.1c0.3-0.5,0.7-0.9,1.2-1.2
				c0.5-0.2,1-0.4,1.6-0.4C226.1,86.9,226.5,87,226.9,87.2z"/>
			<path class="st3" d="M236.5,87.3c0.6,0.3,1.2,0.7,1.6,1.3c0.4,0.5,0.6,1.2,0.7,1.9c0.1,0.4,0.1,1,0.1,1.8h-6.6
				c0,0.9,0.4,1.5,0.9,1.9c0.4,0.2,0.8,0.3,1.3,0.3c0.5,0,1-0.1,1.3-0.4c0.2-0.1,0.3-0.4,0.5-0.6h2.4c-0.1,0.5-0.4,1.1-0.9,1.6
				c-0.8,0.9-1.9,1.3-3.4,1.3c-1.2,0-2.3-0.4-3.2-1.1c-0.9-0.7-1.4-2-1.4-3.6c0-1.6,0.4-2.8,1.2-3.6c0.8-0.8,1.9-1.3,3.2-1.3
				C235.1,86.9,235.8,87,236.5,87.3z M232.9,89.4c-0.3,0.3-0.5,0.8-0.6,1.4h4.1c0-0.6-0.3-1.1-0.6-1.4c-0.4-0.3-0.8-0.5-1.4-0.5
				C233.7,88.9,233.3,89,232.9,89.4z"/>
			<path class="st3" d="M244.9,86.9c0,0,0.1,0,0.2,0v2.4c-0.1,0-0.3,0-0.4,0s-0.2,0-0.3,0c-1,0-1.6,0.3-1.9,0.9
				c-0.2,0.3-0.3,0.9-0.3,1.6v4.3h-2.4v-9h2.3v1.6c0.4-0.6,0.7-1,1-1.2c0.4-0.4,1-0.6,1.7-0.6C244.9,86.9,244.9,86.9,244.9,86.9z"/>
			<path class="st3" d="M251.8,90.4c0-0.3-0.2-0.6-0.3-0.9c-0.3-0.4-0.7-0.5-1.2-0.5c-0.8,0-1.3,0.4-1.6,1.2c-0.2,0.4-0.2,1-0.2,1.7
				c0,0.7,0.1,1.2,0.2,1.6c0.3,0.8,0.8,1.1,1.6,1.1c0.6,0,0.9-0.1,1.2-0.4c0.2-0.3,0.4-0.7,0.4-1.2h2.4c-0.1,0.7-0.3,1.4-0.8,2
				c-0.7,1-1.8,1.6-3.3,1.6s-2.5-0.4-3.2-1.3s-1-2-1-3.4c0-1.6,0.4-2.8,1.1-3.6c0.8-0.9,1.8-1.3,3.1-1.3c1.1,0,2.1,0.3,2.8,0.8
				s1.2,1.4,1.3,2.7H251.8z"/>
			<path class="st3" d="M261.6,87.3c0.6,0.3,1.2,0.7,1.6,1.3c0.4,0.5,0.6,1.2,0.7,1.9c0.1,0.4,0.1,1,0.1,1.8h-6.6
				c0,0.9,0.4,1.5,0.9,1.9c0.4,0.2,0.8,0.3,1.3,0.3c0.5,0,1-0.1,1.3-0.4c0.2-0.1,0.3-0.4,0.5-0.6h2.4c-0.1,0.5-0.4,1.1-0.9,1.6
				c-0.8,0.9-1.9,1.3-3.4,1.3c-1.2,0-2.3-0.4-3.2-1.1c-0.9-0.7-1.4-2-1.4-3.6c0-1.6,0.4-2.8,1.2-3.6c0.8-0.8,1.9-1.3,3.2-1.3
				C260.3,86.9,261,87,261.6,87.3z M258.1,89.4c-0.3,0.3-0.5,0.8-0.6,1.4h4.1c0-0.6-0.3-1.1-0.6-1.4c-0.4-0.3-0.8-0.5-1.4-0.5
				C258.9,88.9,258.4,89,258.1,89.4z"/>
		</g>
	</g>
	<g>
		<g class="st4">
			<g>
				<linearGradient id="SVGID_6_" gradientUnits="userSpaceOnUse" x1="40.2299" y1="98.756" x2="149.8118" y2="98.756">
					<stop  offset="0" style="stop-color:#ADC200"/>
					<stop  offset="0.1359" style="stop-color:#AAC000"/>
					<stop  offset="0.2339" style="stop-color:#A1B900"/>
					<stop  offset="0.3114" style="stop-color:#93AF00"/>
					<stop  offset="0.4055" style="stop-color:#8DAB00"/>
					<stop  offset="0.5308" style="stop-color:#7C9F00"/>
					<stop  offset="0.604" style="stop-color:#6F9600"/>
					<stop  offset="0.9157" style="stop-color:#598700"/>
				</linearGradient>
				<ellipse class="st5" cx="92.9" cy="98.8" rx="50.8" ry="6.3"/>
			</g>
		</g>
		<g>
			<g>
				<g>
					<linearGradient id="SVGID_7_" gradientUnits="userSpaceOnUse" x1="24.801" y1="67.5805" x2="55.3" y2="67.5805">
						<stop  offset="1.500000e-07" style="stop-color:#EFF6FF"/>
						<stop  offset="1" style="stop-color:#C4D8FB"/>
					</linearGradient>
					<polygon class="st6" points="24.8,73 54.2,75.4 55.3,62.2 25.9,59.8 					"/>
					
						<rect x="42.4" y="59.8" transform="matrix(7.994360e-02 -0.9968 0.9968 7.994360e-02 -22.9898 111.6898)" class="st7" width="13.3" height="17"/>
					
						<rect x="37.4" y="70.1" transform="matrix(7.948586e-02 -0.9968 0.9968 7.948586e-02 -35.1276 104.283)" class="st3" width="3" height="2"/>
					<linearGradient id="SVGID_8_" gradientUnits="userSpaceOnUse" x1="44.7653" y1="63.7537" x2="54.0727" y2="63.7537">
						<stop  offset="1.500000e-07" style="stop-color:#EFF6FF"/>
						<stop  offset="1" style="stop-color:#C4D8FB"/>
					</linearGradient>
					<path class="st8" d="M49.1,66.2c2,0.2,3.8-1.5,5-4.1l-9.3-0.7C45.5,64.1,47.1,66,49.1,66.2z"/>
					
						<rect x="31.7" y="63.2" transform="matrix(7.986964e-02 -0.9968 0.9968 7.986964e-02 -36.2871 93.4622)" class="st7" width="1.5" height="6.3"/>
				</g>
				<g>
					<linearGradient id="SVGID_9_" gradientUnits="userSpaceOnUse" x1="24.5461" y1="53.2603" x2="54.2693" y2="53.2603">
						<stop  offset="1.500000e-07" style="stop-color:#EFF6FF"/>
						<stop  offset="1" style="stop-color:#C4D8FB"/>
					</linearGradient>
					<polygon class="st9" points="24.5,59.7 53.1,62 54.3,46.8 25.8,44.5 					"/>
					
						<rect x="41.2" y="45.5" transform="matrix(7.995164e-02 -0.9968 0.9968 7.995164e-02 -8.9165 98.3721)" class="st7" width="15.2" height="17"/>
					
						<rect x="37" y="56.4" transform="matrix(7.948586e-02 -0.9968 0.9968 7.948586e-02 -21.6209 91.4035)" class="st3" width="3.4" height="2"/>
					<linearGradient id="SVGID_10_" gradientUnits="userSpaceOnUse" x1="44.6648" y1="48.838" x2="53.9716" y2="48.838">
						<stop  offset="1.500000e-07" style="stop-color:#EFF6FF"/>
						<stop  offset="1" style="stop-color:#C4D8FB"/>
					</linearGradient>
					<path class="st10" d="M48.9,51.6c2,0.2,3.9-1.8,5.1-4.8l-9.3-0.7C45.4,49.2,46.9,51.4,48.9,51.6z"/>
					
						<rect x="31.4" y="48.9" transform="matrix(7.986160e-02 -0.9968 0.9968 7.986160e-02 -22.1226 80.0733)" class="st7" width="1.8" height="6.3"/>
				</g>
				<g>
					<linearGradient id="SVGID_11_" gradientUnits="userSpaceOnUse" x1="21.3839" y1="37.6136" x2="52.1284" y2="37.6136">
						<stop  offset="1.500000e-07" style="stop-color:#EFF6FF"/>
						<stop  offset="1" style="stop-color:#C4D8FB"/>
					</linearGradient>
					<polygon class="st11" points="21.4,44.2 50.9,46.6 52.1,31 22.6,28.6 					"/>
					
						<rect x="37.9" y="29.8" transform="matrix(7.995164e-02 -0.9968 0.9968 7.995164e-02 3.8262 80.8051)" class="st12" width="15.6" height="17"/>
					
						<rect x="33.1" y="40.8" transform="matrix(8.018994e-02 -0.9968 0.9968 8.018994e-02 -9.5875 73.2002)" class="st3" width="3.5" height="2"/>
					<path class="st13" d="M45.1,35.8c2,0.2,3.9-1.8,5.1-4.9l-9.3-0.7C41.6,33.4,43.1,35.6,45.1,35.8z"/>
					
						<rect x="27.6" y="33.1" transform="matrix(8.006223e-02 -0.9968 0.9968 8.006223e-02 -9.9152 61.7765)" class="st7" width="1.8" height="6.3"/>
				</g>
			</g>
			<g>
				
					<rect x="32.5" y="48" transform="matrix(8.600658e-02 -0.9963 0.9963 8.600658e-02 -8.8697 102.5595)" class="st12" width="38" height="16.2"/>
				
					<rect x="19.1" y="49.6" transform="matrix(8.598832e-02 -0.9963 0.9963 8.598832e-02 -19.9525 88.169)" class="st14" width="38" height="10.7"/>
				<g>
					<g>
						<g>
							
								<rect x="50.7" y="53.7" transform="matrix(8.600658e-02 -0.9963 0.9963 8.600658e-02 -15.0023 107.282)" class="st14" width="0.5" height="16.2"/>
						</g>
					</g>
					<g>
						<linearGradient id="SVGID_12_" gradientUnits="userSpaceOnUse" x1="37.5633" y1="61.3689" x2="37.5633" y2="59.9537">
							<stop  offset="0" style="stop-color:#FDB522"/>
							<stop  offset="1" style="stop-color:#FB6B14"/>
						</linearGradient>
						<polygon class="st15" points="32.2,60.5 42.8,61.4 42.9,60.9 32.3,60 						"/>
					</g>
				</g>
				<g>
					<g>
						<g>
							
								<rect x="51.8" y="41.6" transform="matrix(8.600658e-02 -0.9963 0.9963 8.600658e-02 -1.9415 97.2232)" class="st14" width="0.5" height="16.2"/>
						</g>
					</g>
					<g>
						<linearGradient id="SVGID_13_" gradientUnits="userSpaceOnUse" x1="38.6114" y1="49.2211" x2="38.6114" y2="47.8059">
							<stop  offset="0" style="stop-color:#FDB522"/>
							<stop  offset="1" style="stop-color:#FB6B14"/>
						</linearGradient>
						<polygon class="st16" points="33.3,48.3 43.9,49.2 43.9,48.7 33.3,47.8 						"/>
					</g>
				</g>
				
					<rect x="56.9" y="46.5" transform="matrix(8.602399e-02 -0.9963 0.9963 8.602399e-02 5.4126 101.644)" class="st3" width="2.4" height="2.7"/>
				
					<rect x="44.6" y="57.6" transform="matrix(8.605429e-02 -0.9963 0.9963 8.605429e-02 -16.8913 99.4154)" class="st3" width="2.4" height="2.7"/>
				<polygon class="st3" points="44,71.8 46.4,73.5 47.2,71.4 44.9,69.7 				"/>
				<linearGradient id="SVGID_14_" gradientUnits="userSpaceOnUse" x1="39.1277" y1="39.5565" x2="39.1277" y2="36.4855">
					<stop  offset="0" style="stop-color:#FDB522"/>
					<stop  offset="1" style="stop-color:#FB6B14"/>
				</linearGradient>
				<polygon class="st17" points="37.9,39.4 40.1,39.6 40.3,36.7 38.2,36.5 				"/>
				<linearGradient id="SVGID_15_" gradientUnits="userSpaceOnUse" x1="38.092" y1="51.5604" x2="38.092" y2="48.4906">
					<stop  offset="0" style="stop-color:#FDB522"/>
					<stop  offset="1" style="stop-color:#FB6B14"/>
				</linearGradient>
				<polygon class="st18" points="36.9,51.4 39,51.6 39.3,48.7 37.2,48.5 				"/>
				<linearGradient id="SVGID_16_" gradientUnits="userSpaceOnUse" x1="37.0259" y1="63.9178" x2="37.0259" y2="60.6606">
					<stop  offset="0" style="stop-color:#FDB522"/>
					<stop  offset="1" style="stop-color:#FB6B14"/>
				</linearGradient>
				<polygon class="st19" points="35.8,63.7 38,63.9 38.3,60.9 36,60.7 				"/>
			</g>
			<g>
				<g>
					<g>
						<linearGradient id="SVGID_17_" gradientUnits="userSpaceOnUse" x1="18.8616" y1="55.8035" x2="36.266" y2="55.8035">
							<stop  offset="1.500000e-07" style="stop-color:#EFF6FF"/>
							<stop  offset="1" style="stop-color:#C4D8FB"/>
						</linearGradient>
						<polygon class="st20" points="18.9,51.6 24.2,64.9 36.3,60 30.9,46.7 						"/>
					</g>
					<g>
						<linearGradient id="SVGID_18_" gradientUnits="userSpaceOnUse" x1="30.8823" y1="52.0174" x2="42.8682" y2="52.0174">
							<stop  offset="1.500000e-07" style="stop-color:#EFF6FF"/>
							<stop  offset="1" style="stop-color:#C4D8FB"/>
						</linearGradient>
						<polygon class="st21" points="30.9,46.7 36.3,60 42.9,57.3 37.5,44.1 						"/>
					</g>
				</g>
				<g>
					<linearGradient id="SVGID_19_" gradientUnits="userSpaceOnUse" x1="18.8616" y1="52.371" x2="31.4888" y2="52.371">
						<stop  offset="2.500000e-07" style="stop-color:#EFF6FF"/>
						<stop  offset="1" style="stop-color:#8AA8DA"/>
					</linearGradient>
					<polygon class="st22" points="18.9,51.6 21.5,58 31.5,53.9 30.9,46.7 					"/>
				</g>
				<g>
					<g>
						<polygon class="st7" points="30.9,46.7 31,47 36.4,54.5 41,52.6 37.5,44.1 						"/>
					</g>
				</g>
				<g>
					<linearGradient id="SVGID_20_" gradientUnits="userSpaceOnUse" x1="18.2627" y1="51.747" x2="30.8991" y2="51.747">
						<stop  offset="1.500000e-07" style="stop-color:#EFF6FF"/>
						<stop  offset="1" style="stop-color:#C4D8FB"/>
					</linearGradient>
					<polygon class="st23" points="18.3,56.8 30.6,51.8 30.9,46.7 18.9,51.6 					"/>
				</g>
				<g>
					<linearGradient id="SVGID_21_" gradientUnits="userSpaceOnUse" x1="30.9412" y1="47.5423" x2="41.3575" y2="47.5423">
						<stop  offset="1.500000e-07" style="stop-color:#EFF6FF"/>
						<stop  offset="1" style="stop-color:#C4D8FB"/>
					</linearGradient>
					<polygon class="st24" points="30.9,46.7 34.8,51 41.4,48.4 37.5,44 					"/>
				</g>
			</g>
			<linearGradient id="SVGID_22_" gradientUnits="userSpaceOnUse" x1="92.1858" y1="60.6184" x2="93.5496" y2="60.6184">
				<stop  offset="2.500000e-07" style="stop-color:#EFF6FF"/>
				<stop  offset="1" style="stop-color:#8AA8DA"/>
			</linearGradient>
			<path class="st25" d="M95.2,59.5c-1.2-0.2-3.5,0.5-2.9,1.4c0,0,1.4,1.1,2.8,0.9C96.5,61.6,96.5,59.7,95.2,59.5z"/>
			<path class="st26" d="M95.3,82.7c-0.9-2-1.6-4.2-2.6-4.8c-0.9-0.6-5.5,0.4-3.9,3.1c0,0,7.3,10.9,7.6,11.3c0.3,0.5,1.5,0.9,2,0.3
				c0.5-0.6,0.4-1.1-0.1-2.3C97.8,89.1,96.2,84.7,95.3,82.7z"/>
			<path class="st27" d="M94.8,59.6c-4.6,5.7-8.5,14.9-8.5,16.5c0,0.9,7,13.9,7.8,14.7c0,0,2.6,0,4.6-1.9c0,0-5.1-10.9-5-11.4
				c0-0.2,0-0.6,0.1-0.8c0.2-0.4-0.3-0.6-0.2-0.8c0.2-0.2,5.4-5.6,7.7-9.8C103.7,61.9,98.8,54.5,94.8,59.6z"/>
			<path class="st28" d="M94.8,59.6c-0.3,0.3-0.5,0.7-0.8,1c1.2,0.6,3.7,2.9,2,3.5c-0.6,0.2-1.9,0.2-1.4,0.7c0,0,2,2.1,2.1,2.6
				c0.1,0.9-1.9,1.8-2.5,2.5c-0.8,1-2.1,2.2-2,2.6c0.4,3.6-2,3-2.2,4c-0.1,0.7,1.4,1.5,1.8,2c1.6,2.1,0.7,4.6,2.1,6.6
				c1.1,1.6,1.8,3.4,2.5,5.2c0.8-0.3,1.6-0.7,2.4-1.5c0,0-5.1-10.9-5-11.4c0-0.2,0-0.6,0.1-0.8c0.2-0.4-0.3-0.6-0.2-0.8
				c0.2-0.2,5.4-5.6,7.7-9.8C103.7,61.9,98.8,54.5,94.8,59.6z"/>
			<path class="st26" d="M118.4,84.2c-1.6-1.5-3.1-3.2-4.2-3.4c-1.1-0.2-4.9,2.5-2.4,4.4c0,0,5.4,3.1,8.1,5c2.8,1.9,2.8,2.2,3.2,2.5
				c0.4,0.3,1.7,0.3,1.9-0.5c0.2-0.8,0-1.2-1-2.1C123.1,89.2,119.9,85.7,118.4,84.2z"/>
			<path class="st27" d="M111.3,77.5c-0.3-0.2-0.7,0.1-0.8-0.3c-0.1-0.4-0.2-18.7-4.3-20.8c-2.5-1.3-5.9-1-8.1-0.1
				c-1.5,0.7-3,3.1-2.4,4.3c0.6,1.2,9.2,19.8,10,20.6c0.8,0.9,13.4,9.6,13.4,9.6s2.7-1.8,3.1-4c0,0-8.8-8.2-10.5-8.6
				C111.4,78.1,111.6,77.7,111.3,77.5z"/>
			<path class="st28" d="M111.3,77.5c-0.3-0.2-0.7,0.1-0.8-0.3c-0.1-0.4-0.2-18.7-4.3-20.8c-2.5-1.3-5.9-1-8.1-0.1
				c-1.5,0.7-3,3.1-2.4,4.3c0.1,0.2,0.2,0.4,0.4,0.7c0.6-0.4,1.4-0.6,2.3-0.1c1.6,0.9,3.1,1.9,4.6,2.8c1.4,0.8,2.4,1.5,3.1,2.9
				c1,1.9,0.2,4.1,0.3,6.2c0.1,1.1,1,1.9,1.4,2.9c0.8,2.4,0.8,5.2,3.1,6.8c1.9,1.3,4,2.5,6,3.5c1.5,0.8,1.4,2.4,0.5,3.3
				c1,0.7,1.7,1.1,1.7,1.1s2.7-1.8,3.1-4c0,0-8.8-8.2-10.5-8.6C111.4,78.1,111.6,77.7,111.3,77.5z"/>
			<path class="st26" d="M82.5,43.1c-1.6,0-10.8,1.2-11.5,1c-0.7-0.2-1.6-1.3-1.8-1.4c-0.2-0.1-0.4-0.2-0.5-0.3
				c-0.1-0.1-0.3,0-0.7,0.2c-0.4,0.1-1.2,0.8-1.3,0.9c-0.1,0.1-0.2,0.6-0.4,0.8c-0.2,0.2-0.2,0.3-0.1,0.3c0.1,0,0.5-0.1,0.7-0.3
				c0.2-0.2,0.2-0.5,0.3-0.5c0.1-0.1,0.7-0.1,0.9,0c0.1,0.1,0.6,0.6,1,1.1c0.4,0.5,1.1,0.7,2.1,0.6c2.2,0.4,6.5,0.9,8.4,1
				c1.9,0.1,3.2,0.3,3.7-0.2c0.5-0.5,0.8-1.3,0.7-1.9C83.9,43.9,84,43.1,82.5,43.1z"/>
			<g>
				<linearGradient id="SVGID_23_" gradientUnits="userSpaceOnUse" x1="82.4513" y1="42.7299" x2="95.6504" y2="42.7299">
					<stop  offset="0" style="stop-color:#FB6B14"/>
					<stop  offset="1" style="stop-color:#FDB522"/>
				</linearGradient>
				<path class="st29" d="M91,38.3c-1.8,1-8.6,4.7-8.6,4.7l0.8,4.6c0,0,2.4-0.2,2.6-0.4c0.2-0.2,0.3-0.4,0.5-0.5
					c0.2-0.1,5.5-2.1,7.2-3.1c2.2-1.4,2.7-3.6,1.3-5C94.2,37.9,92.8,37.4,91,38.3z"/>
				<linearGradient id="SVGID_24_" gradientUnits="userSpaceOnUse" x1="81.8764" y1="44.7679" x2="85.1075" y2="44.7679">
					<stop  offset="0" style="stop-color:#FB6B14"/>
					<stop  offset="1" style="stop-color:#FDB522"/>
				</linearGradient>
				<path class="st30" d="M84.2,42.1c-0.6-0.4-2.8,0.6-2.3,1c0.2,0.2,0.5,1.5,0.5,2.2c-0.1,0.8-0.4,2.1,0,2.1c0.4,0,1.9,0.2,2.1,0.2
					c0.2,0,0.3-0.2,0.4-0.5C84.9,46.7,85.7,43,84.2,42.1z"/>
			</g>
			<path class="st14" d="M91.6,39.1c-0.3,1.1,0.1,2.4-0.3,4.4s-0.9,2.8-0.4,4.4c0.5,1.6,1.8,1.3,1.6,3.5c-0.2,2.2-0.6,6.7,3.5,8.2
				l-1.8-22.1C94.2,37.5,92.2,36.9,91.6,39.1z"/>
			<linearGradient id="SVGID_25_" gradientUnits="userSpaceOnUse" x1="91.7385" y1="50.3987" x2="108.407" y2="50.3987">
				<stop  offset="1.500000e-07" style="stop-color:#EFF6FF"/>
				<stop  offset="1" style="stop-color:#C4D8FB"/>
			</linearGradient>
			<path class="st31" d="M93.4,38.6c0,0-0.5,4.2-0.8,5.9c-0.2,1.7-1.8,3.4-0.3,4.9c2.5,2.6,1.3,8.8,0.4,9.7c-0.8,1-0.9,1.4-0.5,1.8
				c0,0-0.5-0.7,1.5-0.4c2,0.3,5.3,2.1,9.2,1.6c3.8-0.6,5.3-2,5.5-2.5c0,0-4.9-9.4-5.8-15.9C102.3,40.9,93.4,38.6,93.4,38.6z"/>
			<linearGradient id="SVGID_26_" gradientUnits="userSpaceOnUse" x1="93.8634" y1="51.7803" x2="108.407" y2="51.7803">
				<stop  offset="1.500000e-07" style="stop-color:#EFF6FF"/>
				<stop  offset="1" style="stop-color:#C4D8FB"/>
			</linearGradient>
			<path class="st32" d="M94.9,42c0,1.7,0.5,2.3,1.6,3.4c0.7,0.7-2.8,2.2-2.6,3.2c0.5,2.3,3.9,2.1,2.8,3.8c-0.2,0.3-2.3,2.2,2.8,3.4
				c1.8,0.4,2,1.3,3.7,2c2.7,1.3,1.1,2.8,1.4,3.9c2.7-0.7,3.8-1.8,3.9-2.2c0,0-4.9-9.4-5.8-15.9C102.4,41.6,94.9,41.5,94.9,42z"/>
			<g>
				<path class="st26" d="M95.3,32.6L91.4,36c0,0,1.7,0.8,1.9,1.7c0.2,0.9,0,2.6,0,3.2c0,0.6,1.7-0.2,2.4-1.4
					c0.7-1.1,1.6-3.6,1.6-3.6S95.5,34.5,95.3,32.6z"/>
				<path class="st33" d="M95.3,32.6L91.4,36c0,0,1.1,0.3,1.6,0.3c1.7,0.1,2.9-1.3,2.9,0.7c0,0.9,0,2,0.6,0.9c0.4-0.7,0.9-2,0.9-2
					S95.5,34.5,95.3,32.6z"/>
				<path class="st34" d="M111,21.6c-1.6-1.2-3.2-0.8-4.5,0c-1.3,0.8-2.1,2-3.6,2.1c-0.9,0.1-2.9-1.6-5-0.5
					c-1.8,0.9-1.6,2.1-1.6,2.1s0.4,0.5,0.7,0.9c0.3,0.4,1,0.4,1.4,0.2c0.6-0.3,0.7-1,1.8-0.4c1.1,0.6,2.3,3.1,4.6,2.5
					c2.4-0.6,2.9-2.4,4.6-3.3c1.7-1,2.9,0.8,2.9,0.8C112.5,23.9,112.6,22.8,111,21.6z"/>
				<path class="st34" d="M89.4,25.9c-0.9,0.5-2,1.7-1.8,2.9c0.2,1.2,1.3,2.6,3.7,1.9c2.5-0.7,2.6-3.6,1.8-4.4
					C92.2,25.5,90.7,25.3,89.4,25.9z"/>
				<path class="st26" d="M92.3,25.4c-3.3,0.7-3.6,2.9-3.8,4.9c0,0.3,0,0.8-0.5,1.6c-0.3,0.5-0.7,0.8-0.7,1.2c0,0.3,0.7,0.4,0.8,0.6
					c0.1,0.1,0.6,2.5,0.8,2.6c0.3,0.3,0.6,0.3,1.4,0.2c0.8-0.1,2.6-0.5,4.4-2.9c2.4-1,3.3-2,3.5-4.2C98.3,27.1,95.6,24.8,92.3,25.4z
					"/>
				<path class="st33" d="M88,33.1c-0.1,0-0.2,0.2-0.2,0.2c0.2,0,0.4,0.2,0.5,0.2C88.3,33.4,88.1,33.2,88,33.1z"/>
				<path class="st34" d="M98.2,27.1c-0.5-1.1-1.7-2.3-4-2.7c-2.3-0.4-3.3,0.9-3.3,0.9c-0.3,0.1-2.1-0.2-2.7,0.5
					c-2.4,2.8,6.6,3.1,6.6,5.2c0,0,0.1,1.9,0.7,2.6c0.5,0.7,3.3,0.8,3-1.6C98.2,30.5,99.3,29.3,98.2,27.1z"/>
				<path class="st26" d="M95.2,31.2c-0.7,0.2-0.7,0.6-0.9,1c-0.2,0.4-0.4,1.5,0.3,1.6c0.5,0.1,0.8-0.4,1.2-0.8
					C96.5,32.4,96.3,31,95.2,31.2z"/>
				<path class="st7" d="M94.9,33.1c-0.1,0-0.2,0.1-0.3,0.2c0,0.1,0,0.3,0.1,0.3c0.1,0,0.2-0.1,0.3-0.2C95.1,33.2,95,33.1,94.9,33.1
					z"/>
				<path class="st7" d="M96.5,24.3c0,0-0.5,0.1-0.6,0.6l2.2,2c0,0,0.5-0.2,0.4-0.7C98.5,26.2,98.1,25,96.5,24.3z"/>
				<path class="st34" d="M113.2,21.1c0,0-0.1,0.1-0.2,0.2c-0.1,0.1-0.1,0.1-0.2,0.2c0,0-0.1,0.1-0.1,0.1c0,0-0.1,0.1-0.1,0.1
					c-0.1,0-0.1,0-0.2,0.1c0,0-0.1,0-0.1,0c0,0-0.1,0-0.1,0c-0.1,0-0.1,0-0.2,0c-0.1,0-0.1,0-0.2,0c-0.1,0-0.1,0-0.2,0l-0.2-0.1
					c-0.1-0.1-0.2-0.1-0.4-0.2c-0.1-0.1-0.3-0.1-0.4-0.2c-0.1-0.1-0.3-0.1-0.4-0.2c-0.1-0.1-0.3-0.1-0.4-0.1c-0.1,0-0.3,0-0.4-0.1
					c-0.1,0-0.1,0-0.2,0c0,0-0.1,0-0.1,0c-0.1,0-0.2,0-0.2,0l0.1,1.2c0,0,0.1,0,0.2,0c0,0,0.1,0,0.1,0c0,0,0.1,0,0.1,0
					c0.1,0,0.1,0,0.2,0c0.1,0,0.2,0,0.3,0c0.1,0,0.2,0,0.4,0.1c0.1,0,0.3,0.1,0.4,0.1c0.1,0,0.3,0.1,0.5,0.1c0.1,0,0.2,0,0.2,0
					c0.1,0,0.2,0,0.3,0c0.1,0,0.2,0,0.2,0c0.1,0,0.2-0.1,0.2-0.1c0,0,0.1,0,0.1,0c0,0,0.1,0,0.1-0.1c0.1,0,0.1-0.1,0.2-0.1
					c0.1,0,0.1-0.1,0.1-0.1c0,0,0.1-0.1,0.1-0.1c0.1-0.1,0.1-0.2,0.2-0.2C113.2,21.3,113.2,21.2,113.2,21.1c0.1-0.1,0.2-0.1,0.2-0.1
					l0,0C113.3,21,113.3,21,113.2,21.1z"/>
				<path class="st34" d="M110.6,27.5c0-0.1-0.1-0.2-0.1-0.3c0-0.1-0.1-0.1-0.1-0.2c0-0.1-0.1-0.1-0.1-0.2c-0.1-0.1-0.2-0.3-0.4-0.4
					c-0.2-0.1-0.4-0.2-0.6-0.2c-0.5-0.1-0.9,0-1.4,0c-0.4,0.1-0.9,0.2-1.3,0.2c-0.4,0.1-0.7,0.1-1,0.2c-0.1,0-0.3,0-0.4,0
					c-0.1,0-0.2,0-0.3,0c-0.2,0-0.3,0-0.3,0l0.3,1.7c0,0,0.1,0,0.3-0.1c0.1,0,0.2-0.1,0.4-0.1c0.1,0,0.3-0.1,0.4-0.2
					c0.3-0.1,0.7-0.3,1-0.5c0.4-0.2,0.7-0.4,1.1-0.5c0.4-0.2,0.7-0.3,1.1-0.3c0.2,0,0.3,0,0.5,0.1c0.1,0,0.3,0.1,0.4,0.2
					c0.1,0.1,0.1,0.1,0.2,0.2c0,0.1,0.1,0.1,0.1,0.2C110.4,27.4,110.5,27.5,110.6,27.5c0,0.1,0,0.2,0,0.2c0,0,0,0.1,0,0.1s0,0,0-0.1
					C110.6,27.7,110.6,27.6,110.6,27.5z"/>
				<path class="st34" d="M93.3,30.7C92,31,90,28.5,89.7,27.5c-0.3,0.1-0.5,0.2-0.8,0.3c0.5,1.2,1.9,2.8,3.1,3.2
					c1.9,0.6,2.7-1.3,2.7-1.3S94.3,30.4,93.3,30.7z"/>
			</g>
			<path class="st14" d="M106.9,54.6c-2.1-0.4,0-1.9-0.9-3.1c-0.4-0.5-1.9-2.1-2-3.6c0-1.5-0.7-3.5-1.1-5.8c-0.5-2.3-1.6-3.9-2.8-5
				c-1.5-1.4-3.1-1.7-3.6-2.1c0,0-2.5,5.2-2.5,10.1c0,4.9,3.4,9.5,8,10.8c4.6,1.3,6.8,0.3,8.5,1.1C110.4,56.9,109,55.1,106.9,54.6z"
				/>
			<linearGradient id="SVGID_27_" gradientUnits="userSpaceOnUse" x1="99.5381" y1="55.261" x2="117.2753" y2="55.261">
				<stop  offset="0" style="stop-color:#FB6B14"/>
				<stop  offset="1" style="stop-color:#FDB522"/>
			</linearGradient>
			<path class="st35" d="M107.5,54.2c-2.8,1.6-6.9,1.4-8,0.5c3.8,3.4,11,4.7,12.9,1.9c2-2.7,4.8-3.1,4.8-3.1
				C113.4,51.6,110.4,52.6,107.5,54.2z"/>
			<g>
				<path class="st7" d="M127.8,92.6l-4,5.6l-6.5-0.1c0,0,0,0.2,0,0.3c0,0.1,0,0.3,0.4,0.3c0.4,0,5.4,0,5.9,0c0.5,0,0.6-0.1,0.9-0.4
					c0.3-0.3,3.4-5,3.5-5.2c0.1-0.1,0.1-0.3,0-0.4C128,92.8,127.8,92.6,127.8,92.6z"/>
				<path class="st26" d="M124.4,90.5c-0.1-0.2-0.7,0.1-1,0.4c-0.3,0.3-0.8,1.4-1,2.5c-0.2,1.1-0.5,2.1-0.7,2.2
					c-0.2,0.1-3.1,1.3-3.2,1.5c-0.1,0.2-0.2,1,0.5,1c0.6,0,4.4,0,4.8-0.2c0.4-0.3,2.1-2.7,2.7-3.7c0.6-0.9,0.8-1.8,0.5-2.2
					C126.6,91.8,124.6,90.7,124.4,90.5z"/>
				<path class="st34" d="M126,91.2c-0.2-0.1-0.3,0.1-0.3,0.1s-1.4,4.9-1.5,5.1c-0.1,0.2-0.4,0.4-0.6,0.4c-0.2,0-0.6,0-0.6,0
					c0.4,0.8,1,1.6,1,1.6s3.7-5.4,3.8-5.6c0.1-0.2,0-0.4-0.1-0.5C127.6,92.3,126.2,91.3,126,91.2z"/>
				<path class="st14" d="M121.1,95.6c-0.4,0.1-2.8,1.2-3.2,1.6c-0.5,0.3-0.5,0.7-0.5,1c0,0.3,0.1,0.3,0.4,0.3s6.3,0,6.3,0
					s-0.3-1.4-1.1-2C122.2,95.7,121.4,95.5,121.1,95.6z"/>
			</g>
			<g>
				<path class="st7" d="M101.3,92.9l-3.8,5.4l-6.2-0.1c0,0,0,0.2,0,0.3c0,0.1,0,0.3,0.4,0.3c0.4,0,5.2,0,5.7,0
					c0.5,0,0.6-0.1,0.9-0.4c0.3-0.3,3.3-4.8,3.3-4.9c0.1-0.1,0.1-0.2,0-0.4C101.5,93,101.3,92.9,101.3,92.9z"/>
				<path class="st26" d="M98.1,90.9c-0.1-0.2-0.7,0.1-1,0.3c-0.3,0.3-0.7,1.4-1,2.4c-0.2,1.1-0.5,2-0.6,2.1c-0.2,0.1-3,1.2-3.1,1.5
					c-0.1,0.2-0.2,1,0.4,1c0.6,0,4.2,0,4.6-0.2c0.4-0.3,2-2.6,2.6-3.5c0.5-0.9,0.8-1.7,0.5-2.1C100.1,92.1,98.2,91,98.1,90.9z"/>
				<path class="st34" d="M99.5,91.6c-0.2-0.1-0.3,0.1-0.3,0.1s-1.4,4.7-1.5,4.9c-0.1,0.2-0.4,0.4-0.5,0.4c-0.2,0-0.5,0-0.5,0
					c0.4,0.7,1,1.5,1,1.5s3.5-5.1,3.6-5.3c0.1-0.2,0-0.4-0.1-0.4C101.1,92.6,99.7,91.6,99.5,91.6z"/>
				<path class="st14" d="M94.9,95.7c-0.4,0.1-2.6,1.2-3.1,1.5c-0.5,0.3-0.5,0.7-0.5,1c0,0.3,0.1,0.3,0.4,0.3c0.3,0,6,0,6,0
					s-0.3-1.4-1-2C95.9,95.9,95.2,95.6,94.9,95.7z"/>
			</g>
			<g>
				<g>
					<path class="st7" d="M32.8,93.9c-1.4,0-2.5,1.1-2.5,2.5c0,1.4,1.1,2.5,2.5,2.5c1.4,0,2.5-1.1,2.5-2.5
						C35.2,95,34.1,93.9,32.8,93.9z"/>
					<path class="st34" d="M32.8,94.5c-1,0-1.8,0.8-1.8,1.8c0,1,0.8,1.8,1.8,1.8c1,0,1.8-0.8,1.8-1.8C34.5,95.3,33.7,94.5,32.8,94.5
						z"/>
					<rect x="30.4" y="91.9" class="st34" width="1.6" height="1.9"/>
					<path class="st14" d="M32.5,93.7c-0.1-0.3-0.4-0.5-0.7-0.5h-1.4c-0.3,0-0.5,0.2-0.5,0.5v1.1c0,0.3,0.2,0.7,0.4,0.8l1.1,0.9
						c0.2,0.2,0.6,0.3,0.9,0.3H33c0.3,0,0.5-0.2,0.4-0.5L32.5,93.7z"/>
					<path class="st34" d="M32.8,96.1c-0.1,0-0.2,0.1-0.2,0.2c0,0.1,0.1,0.2,0.2,0.2c0.1,0,0.2-0.1,0.2-0.2
						C33,96.2,32.9,96.1,32.8,96.1z"/>
					<path class="st34" d="M32,96.1c-0.1,0-0.2,0.1-0.2,0.2c0,0.1,0.1,0.2,0.2,0.2c0.1,0,0.2-0.1,0.2-0.2
						C32.3,96.2,32.2,96.1,32,96.1z"/>
				</g>
				<g>
					<path class="st7" d="M74.2,93.9c-1.4,0-2.5,1.1-2.5,2.5c0,1.4,1.1,2.5,2.5,2.5c1.4,0,2.5-1.1,2.5-2.5
						C76.7,95,75.6,93.9,74.2,93.9z"/>
					<path class="st34" d="M74.2,94.5c-1,0-1.8,0.8-1.8,1.8c0,1,0.8,1.8,1.8,1.8c1,0,1.8-0.8,1.8-1.8C76,95.3,75.2,94.5,74.2,94.5z"
						/>
					<g>
						<g>
							<path class="st34" d="M71.9,89.3c-0.5-0.2-1.8-0.8-1.8-0.9l-0.7,1.4c0,0,1.3,0.6,1.8,0.8c0.3,0.1,0.6,0.5,0.6,0.7v2.2h1.6
								v-2.2C73.4,90.5,72.6,89.7,71.9,89.3z"/>
						</g>
					</g>
					<path class="st14" d="M74,93.7c-0.1-0.3-0.4-0.5-0.7-0.5h-1.4c-0.3,0-0.5,0.2-0.5,0.5v1.1c0,0.3,0.2,0.7,0.4,0.8l1.1,0.9
						c0.2,0.2,0.6,0.3,0.9,0.3h0.6c0.3,0,0.5-0.2,0.4-0.5L74,93.7z"/>
					<path class="st34" d="M74.2,96.1c-0.1,0-0.2,0.1-0.2,0.2c0,0.1,0.1,0.2,0.2,0.2c0.1,0,0.2-0.1,0.2-0.2
						C74.4,96.2,74.3,96.1,74.2,96.1z"/>
					<path class="st34" d="M73.5,96.1c-0.1,0-0.2,0.1-0.2,0.2c0,0.1,0.1,0.2,0.2,0.2c0.1,0,0.2-0.1,0.2-0.2
						C73.7,96.2,73.6,96.1,73.5,96.1z"/>
				</g>
				<g>
					<g>
						<path class="st34" d="M21.5,55.8c1.2-0.2,28.8-2.4,43.2-3.5l-0.1-0.9c-1.7,0.1-41.8,3.3-43.3,3.5c-2,0.3-2,1.8-2,2.3v13.7
							c0,1.7,1.1,2.6,2.1,2.7c0.8,0.1,35.3,3,36.8,3.1l0.1-0.9c-12.4-1-36.1-3-36.7-3.1c-0.6-0.1-1.3-0.6-1.3-1.9V57.2
							C20.4,56.4,20.6,55.9,21.5,55.8z"/>
					</g>
				</g>
				<g>
					<g>
						<g>
							<path class="st34" d="M21.4,72c0.8,0.1,33,2.7,37.8,3.1c0-0.2,0.1-0.4,0.1-0.6c-13.1-1-37.1-3-37.7-3.1L21.4,72z"/>
						</g>
						<g>
							<path class="st34" d="M21.4,70.1c1,0.1,32.5,2,38.2,2.3c0-0.2,0.1-0.4,0.1-0.6c-5.4-0.3-37.2-2.2-38.2-2.3L21.4,70.1z"/>
						</g>
						<g>
							<path class="st34" d="M21.4,68.3c1.2,0,32.7,1.3,38.8,1.5c0.1-0.2,0.1-0.4,0.2-0.6c-5.7-0.2-37.6-1.5-38.9-1.5L21.4,68.3z"/>
						</g>
						<g>
							<path class="st34" d="M21.4,66.4c1.5,0,33.4,0.7,39.5,0.8c0.1-0.2,0.1-0.4,0.2-0.6c-5.6-0.1-38.2-0.8-39.7-0.8L21.4,66.4z"/>
						</g>
						<g>
							<path class="st34" d="M21.4,63.9l0,0.6c1.8,0,34.6,0,40.4,0.1c0.1-0.2,0.1-0.4,0.2-0.6C56.8,64,23.2,63.9,21.4,63.9z"/>
						</g>
						<g>
							<path class="st34" d="M21.4,62.6c2,0,35.4-0.6,41.2-0.7c0.1-0.2,0.1-0.4,0.2-0.6c-5.2,0.1-39.3,0.6-41.4,0.7L21.4,62.6z"/>
						</g>
						<g>
							<path class="st34" d="M21.4,60.8c2.3-0.1,36.1-1.2,41.9-1.4c0.1-0.2,0.1-0.4,0.2-0.6c-5.2,0.2-39.8,1.4-42.1,1.4L21.4,60.8z"
								/>
						</g>
						<g>
							<path class="st34" d="M21.4,58.9c2.6-0.1,36.9-1.9,42.7-2.2c0.1-0.2,0.1-0.4,0.2-0.6c-5,0.3-40.4,2.1-43,2.2L21.4,58.9z"/>
						</g>
						<g>
							<path class="st34" d="M21.4,57c2.9-0.1,38.5-2.6,43.7-2.9c0.1-0.2,0.2-0.4,0.3-0.6c-3.9,0.3-41.1,2.8-44,3L21.4,57z"/>
						</g>
					</g>
				</g>
				<g>
					<g>
						<g>
							<polygon class="st34" points="54.6,76 55.2,76.1 60.8,53.1 60.1,52.9 							"/>
						</g>
						<g>
							<polygon class="st34" points="51.8,75.7 52.4,75.9 57.4,53.3 56.7,53.2 							"/>
						</g>
						<g>
							<polygon class="st34" points="49,75.5 49.6,75.6 54,53.6 53.4,53.5 							"/>
						</g>
						<g>
							<polygon class="st34" points="46.1,75.2 46.8,75.3 50.7,53.9 50,53.8 							"/>
						</g>
						<g>
							<polygon class="st34" points="43.3,75 44,75.1 47.3,54.1 46.7,54.1 							"/>
						</g>
						<g>
							<polygon class="st34" points="40.5,74.8 41.2,74.8 44,54.4 43.3,54.3 							"/>
						</g>
						<g>
							<polygon class="st34" points="37.7,74.5 38.4,74.6 40.6,54.7 39.9,54.6 							"/>
						</g>
						<g>
							<polygon class="st34" points="34.9,74.3 35.6,74.3 37.2,54.9 36.6,54.9 							"/>
						</g>
						<g>
							<polygon class="st34" points="32.1,74 32.8,74 33.9,55.2 33.2,55.2 							"/>
						</g>
						<g>
							<polygon class="st34" points="29.3,73.8 30,73.8 30.5,55.5 29.8,55.4 							"/>
						</g>
						<g>
							<rect x="26.5" y="55.7" class="st34" width="0.7" height="17.8"/>
						</g>
					</g>
				</g>
				<linearGradient id="SVGID_28_" gradientUnits="userSpaceOnUse" x1="19.0322" y1="62.6129" x2="64.3296" y2="62.6129">
					<stop  offset="0" style="stop-color:#FB6B14"/>
					<stop  offset="1" style="stop-color:#FDB522"/>
				</linearGradient>
				<path class="st36" d="M19,56.9v13.7c0,1.7,1.1,3,2.3,3.2c0.8,0.1,2.8,0.3,3.2,0.3c0.3,0,0.9-0.1,0.9-0.6c0-0.5,0-12.5,0-14.4
					c0-1.9,0.2-2.3,2.5-2.4c2.3-0.2,35.5-2.4,35.5-2.4l0.8-3.2c-1.7,0.1-41.8,3.3-43.3,3.5C19,54.9,19,56.4,19,56.9z"/>
				<path class="st14" d="M19,56.9v13.7c0,1.7,1.1,3,2.3,3.2c0.3,0,0.6,0.1,1.1,0.1c-1-0.4-1.8-1.6-1.8-3V57.2c0-0.5,0-2,2-2.3
					c1.3-0.2,33.5-2.8,41.6-3.4l0.1-0.5c-1.7,0.1-41.8,3.3-43.3,3.5C19,54.9,19,56.4,19,56.9z"/>
				<path class="st7" d="M68.9,83.8c-0.7-0.5-5.6-2.8-7-3.6c-1.6-0.9-2.2-2.4-1.7-4.3c0.3-1.2,6.8-28.9,7-29.8l-1.8-0.4
					c-0.1,0.2-6.7,28.6-7,29.8c-0.7,2.7,0.2,5,2.6,6.3c1.4,0.8,6.3,3.1,6.8,3.5c0.8,0.6,1.7,2,1.1,3.6c-0.6,1.3-1.8,1.7-5.9,1.7
					H29.3c-0.5,0-0.9,0.4-0.9,0.9c0,0.5,0.4,0.9,0.9,0.9H63c3.9,0,6.5-0.2,7.6-2.8C71.6,87.2,70.5,84.9,68.9,83.8z"/>
				<path class="st14" d="M72.7,44.1l-6.4,0.8c-0.5,0.1-0.9,0.6-0.9,1.1c0.1,0.6,0.6,0.9,1.1,0.9l6.4-0.8c0.5-0.1,0.9-0.6,0.9-1.1
					C73.7,44.4,73.2,44,72.7,44.1z"/>
			</g>
			<g>
				<path class="st26" d="M89.2,46.7c-0.9-0.4-0.9-0.8-2.6-1.1c-1.8-0.2-10.4-0.1-11.2-0.4c-0.8-0.3-1.6-1.7-1.8-1.8
					c-0.2-0.1-0.4-0.3-0.5-0.4c-0.1-0.1-0.4,0-0.8,0.1c-0.4,0.1-1.5,0.7-1.6,0.8c-0.1,0.1-0.3,0.7-0.6,0.9c-0.2,0.2-0.3,0.3-0.1,0.4
					c0.1,0,0.6,0,0.8-0.3c0.2-0.2,0.3-0.5,0.5-0.6c0.2,0-0.1,1.4,0.6,1.8c0.2,0.1,0.9-0.9,1.3-0.3c0.4,0.6,1.2,1,2.3,1
					c2.5,0.7,7.2,1.9,9.3,2.3c2.1,0.4,3.5,0.8,4.2,0.3c0.7-0.5,1.4-1,1.4-1.7C90.3,47.1,89.6,46.8,89.2,46.7z"/>
				<path class="st33" d="M89.2,46.7c-0.7-0.3-0.8-0.6-1.6-0.9c0.1,0.7-0.1,1.4-1,1.7c-2.6,0.7-4.9-0.6-7.5-1c-1.4-0.2-3,0.4-4.4,0
					c-1.1-0.4-1.8-1.4-2.7-2.2c-0.3-0.3-0.5-0.6-0.5-0.9c-0.4,0.2-0.9,0.5-1,0.5c-0.1,0.1-0.3,0.7-0.6,0.9c-0.2,0.2-0.3,0.3-0.1,0.4
					c0.1,0,0.6,0,0.8-0.3c0.2-0.2,0.3-0.5,0.5-0.6c0.2,0-0.1,1.4,0.6,1.8c0.2,0.1,0.9-0.9,1.3-0.3c0.4,0.6,1.2,1,2.3,1
					c2.5,0.7,7.2,1.9,9.3,2.3c2.1,0.4,3.5,0.8,4.2,0.3c0.7-0.5,1.4-1,1.4-1.7C90.3,47.1,89.6,46.8,89.2,46.7z"/>
				<g>
					<path class="st14" d="M98.6,36.9c-1-0.6-2.1-0.4-3.4,1.5c-1.3,1.9-3,3.1-4.2,4.5c-1.2,1.4-3.4,3.2-3.4,3.2l1.3,3.2
						c0,0,1.1-0.2,1.6,0c0.5,0.2,0.9,0.4,1.1,0.1c0.1-0.3,0.2-0.6,0.3-0.7c0.2-0.2,5.4-4.1,6.9-5.8C100.8,40.6,100.6,38,98.6,36.9z"
						/>
					<linearGradient id="SVGID_29_" gradientUnits="userSpaceOnUse" x1="88.5214" y1="44.4039" x2="100.1224" y2="44.4039">
						<stop  offset="0" style="stop-color:#FB6B14"/>
						<stop  offset="1" style="stop-color:#FDB522"/>
					</linearGradient>
					<path class="st37" d="M99.9,39.4c0.1,0.6-1,1.6-2.5,2.5c-1.1,0.6-1.9,0.6-2.5,1.6c-0.5,0.8-0.4,2.1-1.1,1.7
						c-0.1,0-1.4-0.7-1.5,0.4c-0.1,1-0.9,2.6-1.9,2c-0.6-0.4-1.2,0.6-1.9,0.7l0.3,0.9c0,0,1.1-0.2,1.6,0c0.5,0.2,0.9,0.4,1.1,0.1
						c0.1-0.3,0.2-0.6,0.3-0.7c0.2-0.2,5.4-4.1,6.9-5.8C100.8,40.6,99.9,39.2,99.9,39.4z"/>
					<linearGradient id="SVGID_30_" gradientUnits="userSpaceOnUse" x1="86.8965" y1="47.3855" x2="90.6301" y2="47.3855">
						<stop  offset="0" style="stop-color:#FB6B14"/>
						<stop  offset="1" style="stop-color:#FDB522"/>
					</linearGradient>
					<path class="st38" d="M88.7,44.8c-0.1-0.1-0.3-0.1-0.5,0c-0.2,0.1-1.2,0.6-1.2,0.7c0,0.1-0.1,0.1,0.1,0.4
						c0.1,0.3,0.6,1.2,0.8,2.1c0.2,0.8,0.1,1.3,0.1,1.4c0,0.1,0.1,0.6,0.5,0.5c0.5-0.1,1.7-0.3,1.9-0.4c0.2-0.1,0.2-0.3,0.2-0.7
						C90.6,48.5,90.2,46.1,88.7,44.8z"/>
					<path class="st14" d="M90.9,45.6c-0.1-0.1-0.2-0.1-0.3,0c-0.1,0.1-1.1,1.2-3,1.7c0,0-0.1,0-0.1,0.2c0,0.1,0.2,0.8,0.2,0.9
						c0,0.1,0.1,0.2,0.1,0.2s0.8,0.1,1.8-0.4c1-0.5,1.6-1,1.7-1.1c0.1-0.1,0.1-0.3,0.1-0.4C91.3,46.4,90.9,45.7,90.9,45.6z"/>
					<linearGradient id="SVGID_31_" gradientUnits="userSpaceOnUse" x1="90.3999" y1="46.5002" x2="91.0979" y2="46.5002">
						<stop  offset="0" style="stop-color:#FB6B14"/>
						<stop  offset="1" style="stop-color:#FDB522"/>
					</linearGradient>
					<path class="st39" d="M90.9,46.2c-0.2-0.1-0.4,0-0.5,0.2c-0.1,0.2,0,0.4,0.2,0.5c0.2,0.1,0.4,0,0.5-0.2
						C91.1,46.5,91.1,46.3,90.9,46.2z"/>
					<path class="st27" d="M90.8,46.1c-0.2-0.1-0.4,0-0.5,0.2c-0.1,0.2,0,0.4,0.2,0.5c0.2,0.1,0.4,0,0.5-0.2
						C91,46.4,90.9,46.2,90.8,46.1z"/>
				</g>
			</g>
		</g>
	</g>
</g>
</svg>
