<?xml version="1.0" encoding="utf-8"?>
<!-- Generator: Adobe Illustrator 23.0.1, SVG Export Plug-In . SVG Version: 6.00 Build 0)  -->
<svg version="1.1" id="Layer_1" xmlns="http://www.w3.org/2000/svg" xmlns:xlink="http://www.w3.org/1999/xlink" x="0px" y="0px"
	 viewBox="0 0 293 123" style="enable-background:new 0 0 293 123;" xml:space="preserve">
<style type="text/css">
	.st0{clip-path:url(#SVGID_3_);fill:url(#SVGID_4_);}
	.st1{opacity:0.27;clip-path:url(#SVGID_3_);}
	.st2{fill:url(#SVGID_5_);}
	.st3{fill:#FFFFFF;}
	.st4{fill:#E4E4E4;}
	.st5{fill:#B2B2B2;}
	.st6{fill:#1F1F1F;}
	.st7{fill:url(#SVGID_6_);}
	.st8{opacity:0.4;fill:url(#SVGID_7_);}
	.st9{opacity:0.4;fill:url(#SVGID_8_);}
	.st10{opacity:0.4;}
	.st11{fill:url(#SVGID_9_);}
	.st12{fill:url(#SVGID_10_);}
	.st13{fill:#CACACA;}
	.st14{opacity:0.5;fill:#1F1F1F;}
</style>
<g>
	<g>
		<defs>
			<path id="SVGID_1_" d="M281.8,123H11.2C5,123,0,118,0,111.8V11.2C0,5,5,0,11.2,0h270.6C288,0,293,5,293,11.2v100.6
				C293,118,288,123,281.8,123z"/>
		</defs>
		<linearGradient id="SVGID_2_" gradientUnits="userSpaceOnUse" x1="0" y1="61.5" x2="293" y2="61.5">
			<stop  offset="0" style="stop-color:#FFBA56"/>
			<stop  offset="1" style="stop-color:#77013A"/>
		</linearGradient>
		<use xlink:href="#SVGID_1_"  style="overflow:visible;fill:url(#SVGID_2_);"/>
		<clipPath id="SVGID_3_">
			<use xlink:href="#SVGID_1_"  style="overflow:visible;"/>
		</clipPath>
		<linearGradient id="SVGID_4_" gradientUnits="userSpaceOnUse" x1="0" y1="61.5" x2="293" y2="61.5">
			<stop  offset="0" style="stop-color:#FFBA56"/>
			<stop  offset="1" style="stop-color:#77013A"/>
		</linearGradient>
		<path class="st0" d="M281.8,123H11.2C5,123,0,118,0,111.8V11.2C0,5,5,0,11.2,0h270.6C288,0,293,5,293,11.2v100.6
			C293,118,288,123,281.8,123z"/>
		<g class="st1">
			<linearGradient id="SVGID_5_" gradientUnits="userSpaceOnUse" x1="-63.8719" y1="51.1187" x2="138.5388" y2="51.1187">
				<stop  offset="0" style="stop-color:#FFBA56"/>
				<stop  offset="1" style="stop-color:#77013A"/>
			</linearGradient>
			<path class="st2" d="M4.7-39.7c-18.4,4.2-40.4,17.5-51.4,32.8c-9.7,13.4-16,27.9-16.8,44.4C-65,64-61.8,93.1-43.5,112.4
				c12.4,13.2,29.9,23.7,47.5,28.4c13.1,3.4,53.2,6.9,72.1,0c14.1-5.1,27.8-11.7,38.1-22.5c6.1-6.4,11.7-13.2,15.9-21
				c7.1-13.3,9.6-28.8,8.1-43.8c-1.4-15-4.6-30.7-11.8-44c-7-13-16.1-23.5-28-32.1C85.4-32,47.1-49.3,4.7-39.7z"/>
		</g>
	</g>
	<g>
		<g>
			<path class="st3" d="M190.1,71.6c1-1,2.2-1.5,3.8-1.5c2,0,3.5,0.7,4.5,2c0.5,0.8,0.8,1.5,0.8,2.3h-2.6c-0.2-0.6-0.4-1-0.6-1.3
				c-0.5-0.5-1.1-0.8-2-0.8c-0.9,0-1.6,0.4-2.2,1.1c-0.5,0.8-0.8,1.8-0.8,3.2s0.3,2.4,0.8,3.1s1.3,1,2.1,1c0.9,0,1.5-0.3,2-0.9
				c0.3-0.3,0.5-0.8,0.6-1.4h2.5c-0.2,1.3-0.8,2.4-1.7,3.3c-0.9,0.8-2.1,1.3-3.5,1.3c-1.7,0-3.1-0.6-4.1-1.7c-1-1.1-1.5-2.7-1.5-4.7
				C188.4,74.4,189,72.8,190.1,71.6z"/>
			<path class="st3" d="M208.5,81.5c-0.8,0.9-1.9,1.4-3.5,1.4c-1.6,0-2.7-0.5-3.5-1.4c-0.8-0.9-1.1-2.1-1.1-3.4
				c0-1.3,0.4-2.4,1.1-3.4c0.8-1,1.9-1.4,3.5-1.4c1.6,0,2.7,0.5,3.5,1.4c0.8,1,1.1,2.1,1.1,3.4C209.6,79.4,209.2,80.6,208.5,81.5z
				 M206.6,80.2c0.4-0.5,0.6-1.2,0.6-2.1s-0.2-1.6-0.6-2.1c-0.4-0.5-0.9-0.7-1.6-0.7c-0.7,0-1.2,0.2-1.6,0.7
				c-0.4,0.5-0.6,1.2-0.6,2.1s0.2,1.6,0.6,2.1c0.4,0.5,0.9,0.7,1.6,0.7C205.7,80.9,206.2,80.7,206.6,80.2z"/>
			<path class="st3" d="M222.5,73.6c0.4,0.2,0.7,0.4,1.1,0.8c0.3,0.3,0.4,0.7,0.5,1.2c0.1,0.3,0.1,0.8,0.1,1.3l0,5.7h-2.4v-5.8
				c0-0.3-0.1-0.6-0.2-0.8c-0.2-0.4-0.6-0.6-1.2-0.6c-0.7,0-1.1,0.3-1.4,0.8c-0.1,0.3-0.2,0.6-0.2,1v5.4h-2.4v-5.4
				c0-0.5-0.1-0.9-0.2-1.2c-0.2-0.4-0.6-0.7-1.2-0.7c-0.7,0-1.1,0.2-1.4,0.7c-0.1,0.2-0.2,0.6-0.2,1.1v5.4h-2.4v-9h2.3v1.3
				c0.3-0.5,0.6-0.8,0.8-1c0.5-0.4,1.1-0.5,1.8-0.5c0.7,0,1.2,0.2,1.7,0.5c0.3,0.3,0.6,0.6,0.8,1.1c0.3-0.5,0.7-0.9,1.2-1.2
				c0.5-0.2,1-0.4,1.6-0.4C221.7,73.4,222.1,73.4,222.5,73.6z"/>
			<path class="st3" d="M233.8,74.5c0.7,0.8,1.1,1.9,1.1,3.4c0,1.6-0.4,2.8-1.1,3.6c-0.7,0.8-1.7,1.3-2.8,1.3
				c-0.7,0-1.3-0.2-1.8-0.5c-0.3-0.2-0.5-0.5-0.8-0.9v4.7h-2.3V73.6h2.3v1.3c0.3-0.4,0.5-0.7,0.8-0.9c0.5-0.4,1.2-0.6,1.9-0.6
				C232.2,73.4,233.1,73.7,233.8,74.5z M232,76.2c-0.3-0.5-0.8-0.8-1.6-0.8c-0.9,0-1.5,0.4-1.8,1.2c-0.2,0.4-0.3,1-0.3,1.6
				c0,1.1,0.3,1.8,0.8,2.2c0.3,0.2,0.7,0.4,1.2,0.4c0.7,0,1.2-0.3,1.5-0.8s0.5-1.2,0.5-2C232.5,77.4,232.3,76.8,232,76.2z"/>
			<path class="st3" d="M238.8,73.6V79c0,0.5,0.1,0.9,0.2,1.2c0.2,0.5,0.6,0.7,1.3,0.7c0.8,0,1.4-0.3,1.7-1c0.2-0.4,0.2-0.8,0.2-1.4
				v-4.9h2.4v9h-2.3v-1.3c0,0-0.1,0.1-0.2,0.2c-0.1,0.1-0.2,0.3-0.3,0.4c-0.4,0.3-0.7,0.6-1.1,0.7c-0.3,0.1-0.8,0.2-1.2,0.2
				c-1.3,0-2.2-0.5-2.7-1.4c-0.3-0.5-0.4-1.3-0.4-2.3v-5.5H238.8z"/>
			<path class="st3" d="M245.8,75.3v-1.7h1.3v-2.5h2.3v2.5h1.5v1.7h-1.5v4.8c0,0.4,0,0.6,0.1,0.7c0.1,0.1,0.4,0.1,0.9,0.1
				c0.1,0,0.1,0,0.2,0s0.2,0,0.2,0v1.8l-1.1,0c-1.1,0-1.9-0.2-2.3-0.6c-0.3-0.3-0.4-0.7-0.4-1.3v-5.6H245.8z"/>
			<path class="st3" d="M258.2,73.7c0.6,0.3,1.2,0.7,1.6,1.3c0.4,0.5,0.6,1.2,0.7,1.9c0.1,0.4,0.1,1,0.1,1.8h-6.6
				c0,0.9,0.4,1.5,0.9,1.9c0.4,0.2,0.8,0.3,1.3,0.3c0.5,0,1-0.1,1.3-0.4c0.2-0.1,0.3-0.4,0.5-0.6h2.4c-0.1,0.5-0.4,1.1-0.9,1.6
				c-0.8,0.9-1.9,1.3-3.4,1.3c-1.2,0-2.3-0.4-3.2-1.1s-1.4-2-1.4-3.6c0-1.6,0.4-2.8,1.2-3.6c0.8-0.8,1.9-1.3,3.2-1.3
				C256.8,73.3,257.5,73.5,258.2,73.7z M254.6,75.8c-0.3,0.3-0.5,0.8-0.6,1.4h4.1c0-0.6-0.3-1.1-0.6-1.4c-0.4-0.3-0.8-0.5-1.4-0.5
				C255.4,75.3,255,75.4,254.6,75.8z"/>
			<path class="st3" d="M266.6,73.3c0,0,0.1,0,0.2,0v2.4c-0.2,0-0.3,0-0.4,0c-0.1,0-0.2,0-0.3,0c-1,0-1.6,0.3-1.9,0.9
				c-0.2,0.3-0.3,0.9-0.3,1.6v4.3h-2.4v-9h2.3v1.6c0.4-0.6,0.7-1,1-1.2c0.4-0.4,1-0.6,1.7-0.6C266.6,73.3,266.6,73.3,266.6,73.3z"/>
			<path class="st3" d="M206.7,99.2c0.1,0.6,0.2,1,0.5,1.3c0.4,0.5,1.1,0.8,2.2,0.8c0.6,0,1.1-0.1,1.5-0.2c0.7-0.3,1.1-0.7,1.1-1.4
				c0-0.4-0.2-0.7-0.5-0.9c-0.4-0.2-0.9-0.4-1.7-0.6l-1.3-0.3c-1.3-0.3-2.2-0.6-2.7-0.9c-0.8-0.6-1.2-1.4-1.2-2.6
				c0-1.1,0.4-2,1.2-2.7s2-1.1,3.6-1.1c1.3,0,2.4,0.3,3.3,1s1.4,1.7,1.4,3h-2.5c0-0.7-0.4-1.3-1-1.6c-0.4-0.2-0.9-0.3-1.5-0.3
				c-0.7,0-1.2,0.1-1.6,0.4c-0.4,0.3-0.6,0.6-0.6,1.1c0,0.4,0.2,0.8,0.6,1c0.3,0.1,0.8,0.3,1.6,0.5l2.1,0.5c0.9,0.2,1.6,0.5,2.1,0.9
				c0.7,0.6,1.1,1.4,1.1,2.5c0,1.1-0.4,2-1.3,2.8c-0.9,0.7-2.1,1.1-3.7,1.1c-1.6,0-2.9-0.4-3.8-1.1s-1.4-1.7-1.4-3H206.7z"/>
			<path class="st3" d="M221.3,97.2c0-0.3-0.2-0.6-0.3-0.9c-0.3-0.4-0.7-0.5-1.2-0.5c-0.8,0-1.3,0.4-1.6,1.2c-0.2,0.4-0.2,1-0.2,1.7
				c0,0.7,0.1,1.2,0.2,1.6c0.3,0.8,0.8,1.1,1.6,1.1c0.6,0,0.9-0.1,1.2-0.4c0.2-0.3,0.4-0.7,0.4-1.2h2.4c-0.1,0.7-0.3,1.4-0.8,2
				c-0.7,1-1.8,1.6-3.3,1.6s-2.5-0.4-3.2-1.3c-0.7-0.9-1-2-1-3.4c0-1.6,0.4-2.8,1.1-3.6s1.8-1.3,3.1-1.3c1.1,0,2.1,0.3,2.8,0.8
				c0.7,0.5,1.2,1.4,1.3,2.7H221.3z"/>
			<path class="st3" d="M227.7,92.9h-2.4v-2.2h2.4V92.9z M225.3,94h2.4v9h-2.4V94z"/>
			<path class="st3" d="M235.7,94.1c0.6,0.3,1.2,0.7,1.6,1.3c0.4,0.5,0.6,1.2,0.7,1.9c0.1,0.4,0.1,1,0.1,1.8h-6.6
				c0,0.9,0.4,1.5,0.9,1.9c0.4,0.2,0.8,0.3,1.3,0.3c0.5,0,1-0.1,1.3-0.4c0.2-0.1,0.3-0.4,0.5-0.6h2.4c-0.1,0.5-0.4,1.1-0.9,1.6
				c-0.8,0.9-1.9,1.3-3.4,1.3c-1.2,0-2.3-0.4-3.2-1.1c-0.9-0.7-1.4-2-1.4-3.6c0-1.6,0.4-2.8,1.2-3.6c0.8-0.8,1.9-1.3,3.2-1.3
				C234.4,93.7,235.1,93.9,235.7,94.1z M232.2,96.2c-0.3,0.3-0.5,0.8-0.6,1.4h4.1c0-0.6-0.3-1.1-0.6-1.4c-0.4-0.3-0.8-0.5-1.4-0.5
				C233,95.7,232.5,95.8,232.2,96.2z"/>
			<path class="st3" d="M246.5,94.5c0.6,0.5,0.9,1.3,0.9,2.4v6.1h-2.4v-5.5c0-0.5-0.1-0.8-0.2-1.1c-0.2-0.5-0.7-0.7-1.3-0.7
				c-0.8,0-1.3,0.3-1.6,1c-0.2,0.4-0.2,0.8-0.2,1.4v4.9h-2.4v-9h2.3v1.3c0.3-0.5,0.6-0.8,0.9-1c0.5-0.4,1.1-0.5,1.8-0.5
				C245.1,93.7,245.9,94,246.5,94.5z"/>
			<path class="st3" d="M254.8,97.2c0-0.3-0.2-0.6-0.3-0.9c-0.3-0.4-0.7-0.5-1.2-0.5c-0.8,0-1.3,0.4-1.6,1.2c-0.2,0.4-0.2,1-0.2,1.7
				c0,0.7,0.1,1.2,0.2,1.6c0.3,0.8,0.8,1.1,1.6,1.1c0.6,0,0.9-0.1,1.2-0.4c0.2-0.3,0.4-0.7,0.4-1.2h2.4c-0.1,0.7-0.3,1.4-0.8,2
				c-0.7,1-1.8,1.6-3.3,1.6c-1.5,0-2.5-0.4-3.2-1.3c-0.7-0.9-1-2-1-3.4c0-1.6,0.4-2.8,1.1-3.6s1.8-1.3,3.1-1.3
				c1.1,0,2.1,0.3,2.8,0.8c0.7,0.5,1.2,1.4,1.3,2.7H254.8z"/>
			<path class="st3" d="M264.7,94.1c0.6,0.3,1.2,0.7,1.6,1.3c0.4,0.5,0.6,1.2,0.7,1.9c0.1,0.4,0.1,1,0.1,1.8h-6.6
				c0,0.9,0.4,1.5,0.9,1.9c0.4,0.2,0.8,0.3,1.3,0.3c0.5,0,1-0.1,1.3-0.4c0.2-0.1,0.3-0.4,0.5-0.6h2.4c-0.1,0.5-0.4,1.1-0.9,1.6
				c-0.8,0.9-1.9,1.3-3.4,1.3c-1.2,0-2.3-0.4-3.2-1.1c-0.9-0.7-1.4-2-1.4-3.6c0-1.6,0.4-2.8,1.2-3.6c0.8-0.8,1.9-1.3,3.2-1.3
				C263.3,93.7,264,93.9,264.7,94.1z M261.1,96.2c-0.3,0.3-0.5,0.8-0.6,1.4h4.1c0-0.6-0.3-1.1-0.6-1.4c-0.4-0.3-0.8-0.5-1.4-0.5
				C261.9,95.7,261.5,95.8,261.1,96.2z"/>
		</g>
	</g>
	<g>
		<path class="st4" d="M32.9,77l-4.2,1.3l-9-53.1c-0.2-1.3,0.7-2.6,2.1-2.7l65.8-5.8c1.2-0.1,2.3,0.7,2.5,1.9l8.5,48.2L32.9,77z"/>
		<path class="st5" d="M124,89.9L99.8,66.6c-1-1-3.3-1.6-5-1.3L30.8,76l-2.4-0.1l-0.5,1.8c0,0.1-0.1,0.2-0.1,0.3l0,0l0,0
			c0,0.3,0,0.6,0.2,0.9l19.3,29.9c1.1,1.6,4,2.5,6.6,1.8l69.5-17.3c0.9-0.2,1.4-0.7,1.6-1.2l0,0c0-0.1,0-0.1,0-0.2l0.6-2.1H124z"/>
		<path class="st6" d="M33.3,76.7l-4.7-1.4L20,24.9c-0.2-1.3,0.7-2.6,2.1-2.7l65.8-5.8c1.2-0.1,2.3,0.7,2.5,1.9l8.5,48.2L33.3,76.7z
			"/>
		<linearGradient id="SVGID_6_" gradientUnits="userSpaceOnUse" x1="21.292" y1="46.5499" x2="97.3831" y2="46.5499">
			<stop  offset="0" style="stop-color:#FF5D6B"/>
			<stop  offset="1" style="stop-color:#FFBA56"/>
		</linearGradient>
		<path class="st7" d="M88,17.7l-65.8,5.8c-0.3,0-0.5,0.2-0.7,0.4c-0.2,0.2-0.2,0.5-0.2,0.8l8.4,49.7l3.7,1.1l64-10l-8.3-46.9
			C89,18,88.6,17.7,88,17.7z"/>
		<linearGradient id="SVGID_7_" gradientUnits="userSpaceOnUse" x1="44.4143" y1="35.7578" x2="95.229" y2="35.7578">
			<stop  offset="0" style="stop-color:#FF5D6B"/>
			<stop  offset="1" style="stop-color:#FFBA56"/>
		</linearGradient>
		<path class="st8" d="M84.9,24.1c-1.5-1.7-2.6-3.7-3.5-5.8l-25.9,2.3c-2.3,3-5.3,5.2-7.7,8.1c-2.4,2.9-4.2,6.7-3.1,10.3
			c0.9,2.9,3.7,5.1,6.7,5.6c3,0.5,6.2-0.5,8.6-2.5c2-1.6,3.5-3.8,5.2-5.8s3.6-3.9,6.1-4.7c2.5-0.8,5.6-0.2,6.9,2
			c0.8,1.3,0.9,2.8,1.1,4.3c0.9,4.9,3.6,9.5,7.7,12.3c2.4,1.6,5.2,2.7,8,2.9l-4.4-24.7C88.6,27.4,86.6,26,84.9,24.1z"/>
		<linearGradient id="SVGID_8_" gradientUnits="userSpaceOnUse" x1="24.9655" y1="50.7925" x2="90.5228" y2="50.7925">
			<stop  offset="0" style="stop-color:#FF5D6B"/>
			<stop  offset="1" style="stop-color:#FFBA56"/>
		</linearGradient>
		<path class="st9" d="M90.2,61.9c-1.2-3.7-5.3-5.5-9.2-6c-3.8-0.5-7.8-0.3-11.3-1.9c-5.1-2.3-7.8-8.1-9.1-13.6
			c-0.8-3.3-1.5-7.3-4.6-8.8c-3.2-1.6-7,0.3-9.8,2.4c-4,2.9-7.7,6.2-12,8.8c-2.8,1.7-6,3-9.3,3.5l3,17.6c2.7-1.8,5.4-3.6,8.5-4.6
			c5.2-1.8,11-1.4,15.9,1.1c4.8,2.4,8.4,6.6,12.4,10L90,66.6C90.6,65,90.7,63.4,90.2,61.9z"/>
		<g class="st10">
			<linearGradient id="SVGID_9_" gradientUnits="userSpaceOnUse" x1="29.2184" y1="47.1142" x2="67.0151" y2="47.1142">
				<stop  offset="0" style="stop-color:#FFFFFF"/>
				<stop  offset="1" style="stop-color:#FFFFFF;stop-opacity:0"/>
			</linearGradient>
			<polygon class="st11" points="67,70.1 48.1,21.2 29.2,22.9 48.6,73 			"/>
			<linearGradient id="SVGID_10_" gradientUnits="userSpaceOnUse" x1="52.2196" y1="44.7758" x2="80.247" y2="44.7758">
				<stop  offset="0" style="stop-color:#FFFFFF"/>
				<stop  offset="1" style="stop-color:#FFFFFF;stop-opacity:0"/>
			</linearGradient>
			<polygon class="st12" points="61.7,20 52.2,20.9 71,69.5 80.2,68.1 			"/>
		</g>
		<path class="st4" d="M124,91.3l-69.5,17.3c-2.6,0.6-5.6-0.2-6.6-1.8L28.6,76.9c-0.8-1.3,0.4-2.6,2.8-3l64-10.6
			c1.7-0.3,4,0.3,5,1.3l24.6,23.6C126.2,89.4,125.8,90.8,124,91.3z"/>
		<path class="st6" d="M90.5,64.1L38,72.8l0,0.1c0.4,0.7,1.7,1.2,2.8,1l49-8.6C90.6,65.1,90.8,64.6,90.5,64.1z"/>
		<g>
			<path class="st6" d="M89.1,83.6c0.1,0.1,0,0.3-0.2,0.3l-22.2,4.7c-0.2,0-0.5,0-0.6-0.2l-1.8-2.3c-0.1-0.1,0-0.3,0.2-0.3l22.1-4.5
				c0.2,0,0.5,0,0.6,0.2L89.1,83.6z"/>
			<path class="st6" d="M106.1,73.5c0.1,0.1,0.1,0.2-0.1,0.3l-5.6,1.1c-0.2,0-0.4,0-0.6-0.1l-1.6-1.6c-0.1-0.1-0.1-0.2,0.1-0.3
				l5.6-1.1c0.2,0,0.4,0,0.5,0.1L106.1,73.5z"/>
			<path class="st6" d="M65.3,88.7c0.1,0.1,0,0.2-0.2,0.3l-4.8,1c-0.2,0-0.4,0-0.5-0.1L58,87.4c-0.1-0.1,0-0.2,0.2-0.3l4.8-1
				c0.2,0,0.4,0,0.5,0.1L65.3,88.7z"/>
			<path class="st6" d="M58.9,90c0.1,0.1,0,0.2-0.2,0.3l-3.6,0.8c-0.2,0-0.4,0-0.5-0.1l-1.8-2.5c-0.1-0.1,0-0.2,0.2-0.3l3.6-0.7
				c0.2,0,0.4,0,0.5,0.1L58.9,90z"/>
			<path class="st6" d="M94.7,82.5c0.1,0.1,0,0.2-0.1,0.2l-4.2,0.9c-0.2,0-0.4,0-0.4-0.1l-2-2.2c-0.1-0.1,0-0.2,0.1-0.2l4.2-0.9
				c0.2,0,0.3,0,0.4,0.1L94.7,82.5z"/>
			<path class="st6" d="M99,81.6c0.1,0.1,0,0.2-0.1,0.2l-3,0.6c-0.2,0-0.3,0-0.4-0.1l-2-2.2c-0.1-0.1,0-0.2,0.1-0.2l3-0.6
				c0.1,0,0.3,0,0.4,0.1L99,81.6z"/>
			<path class="st6" d="M53.6,91.2c0.1,0.1,0,0.2-0.2,0.3l-3.7,0.8c-0.2,0-0.4,0-0.5-0.1l-1.7-2.5c-0.1-0.1,0-0.2,0.2-0.3l3.7-0.8
				c0.2,0,0.4,0,0.5,0.1L53.6,91.2z"/>
			<path class="st6" d="M48.2,92.3c0.1,0.1,0,0.2-0.2,0.3l-3.8,0.8c-0.2,0-0.4,0-0.5-0.1L42,90.7c-0.1-0.1,0-0.2,0.2-0.3l3.8-0.8
				c0.2,0,0.4,0,0.5,0.1L48.2,92.3z"/>
			<path class="st6" d="M52.4,87.4c0.1,0.1,0,0.3-0.3,0.3l-10.1,2c-0.3,0.1-0.5,0-0.6-0.2l-1.3-2c-0.1-0.1,0-0.3,0.3-0.4l10-2
				c0.2,0,0.5,0,0.6,0.2L52.4,87.4z"/>
			<path class="st6" d="M108.6,76c0.1,0.1,0.1,0.2-0.1,0.3l-7.8,1.6c-0.2,0-0.4,0-0.6-0.1l-1.6-1.6c-0.1-0.1-0.1-0.2,0.1-0.3
				l7.7-1.5c0.2,0,0.4,0,0.6,0.1L108.6,76z"/>
			<path class="st6" d="M57.5,86.4c0.1,0.1,0,0.3-0.2,0.3l-3.2,0.6c-0.2,0-0.5,0-0.6-0.2l-1.4-1.9c-0.1-0.1,0-0.3,0.3-0.3l3.1-0.6
				c0.2,0,0.5,0,0.6,0.2L57.5,86.4z"/>
			<path class="st6" d="M62.6,85.3c0.1,0.1,0,0.3-0.2,0.3l-3.1,0.6c-0.2,0-0.5,0-0.6-0.2l-1.4-1.9c-0.1-0.1,0-0.3,0.2-0.3l3.1-0.6
				c0.2,0,0.5,0,0.6,0.2L62.6,85.3z"/>
			<path class="st6" d="M67.5,84.3c0.1,0.1,0,0.3-0.2,0.3l-3,0.6c-0.2,0-0.5,0-0.6-0.2l-1.4-1.8c-0.1-0.1,0-0.3,0.2-0.3l3-0.6
				c0.2,0,0.5,0,0.6,0.2L67.5,84.3z"/>
			<path class="st6" d="M72.3,83.4c0.1,0.1,0,0.3-0.2,0.3l-3,0.6c-0.2,0-0.5,0-0.6-0.2l-1.5-1.8c-0.1-0.1,0-0.3,0.2-0.3l2.9-0.6
				c0.2,0,0.5,0,0.6,0.2L72.3,83.4z"/>
			<path class="st6" d="M77.1,82.4c0.1,0.1,0,0.3-0.2,0.3L74,83.3c-0.2,0-0.5,0-0.6-0.2l-1.5-1.8c-0.1-0.1,0-0.3,0.2-0.3l2.9-0.6
				c0.2,0,0.5,0,0.6,0.2L77.1,82.4z"/>
			<path class="st6" d="M81.7,81.5c0.1,0.1,0,0.3-0.2,0.3l-2.8,0.6c-0.2,0-0.5,0-0.6-0.2l-1.5-1.8c-0.1-0.1,0-0.3,0.2-0.3l2.8-0.6
				c0.2,0,0.5,0,0.6,0.2L81.7,81.5z"/>
			<path class="st6" d="M86.2,80.5c0.1,0.1,0,0.3-0.2,0.3l-2.8,0.6c-0.2,0-0.5,0-0.6-0.2l-1.5-1.7c-0.1-0.1,0-0.3,0.2-0.3l2.8-0.5
				c0.2,0,0.5,0,0.6,0.2L86.2,80.5z"/>
			<path class="st6" d="M99.3,77.9c0.1,0.1,0.1,0.3-0.1,0.3l-2.6,0.5c-0.2,0-0.5,0-0.6-0.2l-1.6-1.7c-0.1-0.1,0-0.3,0.1-0.3l2.6-0.5
				c0.2,0,0.4,0,0.6,0.1L99.3,77.9z"/>
			<path class="st6" d="M95,78.8c0.1,0.1,0.1,0.3-0.1,0.3l-2.7,0.5c-0.2,0-0.5,0-0.6-0.2l-1.6-1.7c-0.1-0.1,0-0.3,0.2-0.3l2.7-0.5
				c0.2,0,0.5,0,0.6,0.1L95,78.8z"/>
			<path class="st6" d="M90.7,79.6c0.1,0.1,0,0.3-0.2,0.3l-2.7,0.6c-0.2,0-0.5,0-0.6-0.2l-1.6-1.7c-0.1-0.1,0-0.3,0.2-0.3l2.7-0.5
				c0.2,0,0.5,0,0.6,0.2L90.7,79.6z"/>
			<path class="st6" d="M52.7,84c0.1,0.1,0,0.3-0.2,0.3l-3.2,0.6c-0.2,0-0.5,0-0.6-0.2l-1.3-1.9c-0.1-0.1,0-0.3,0.3-0.3l3.2-0.6
				c0.2,0,0.5,0,0.6,0.2L52.7,84z"/>
			<path class="st6" d="M57.8,83c0.1,0.1,0,0.3-0.2,0.3l-3.1,0.6c-0.2,0-0.5,0-0.6-0.2l-1.4-1.8c-0.1-0.1,0-0.3,0.2-0.3l3.1-0.6
				c0.2,0,0.5,0,0.6,0.2L57.8,83z"/>
			<path class="st6" d="M62.7,82c0.1,0.1,0,0.3-0.2,0.3l-3,0.6c-0.2,0-0.5,0-0.6-0.2L57.5,81c-0.1-0.1,0-0.3,0.2-0.3l3-0.6
				c0.2,0,0.5,0,0.6,0.2L62.7,82z"/>
			<path class="st6" d="M67.6,81.1c0.1,0.1,0,0.3-0.2,0.3l-3,0.6c-0.2,0-0.5,0-0.6-0.2L62.4,80c-0.1-0.1,0-0.3,0.2-0.3l3-0.6
				c0.2,0,0.5,0,0.6,0.2L67.6,81.1z"/>
			<path class="st6" d="M72.4,80.1c0.1,0.1,0,0.3-0.2,0.3L69.2,81c-0.2,0-0.5,0-0.6-0.2l-1.4-1.8c-0.1-0.1,0-0.3,0.2-0.3l2.9-0.6
				c0.2,0,0.5,0,0.6,0.2L72.4,80.1z"/>
			<path class="st6" d="M77,79.2c0.1,0.1,0,0.3-0.2,0.3l-2.9,0.6c-0.2,0-0.5,0-0.6-0.2l-1.5-1.7c-0.1-0.1,0-0.3,0.2-0.3l2.8-0.5
				c0.2,0,0.5,0,0.6,0.2L77,79.2z"/>
			<path class="st6" d="M81.5,78.3c0.1,0.1,0,0.3-0.2,0.3l-2.8,0.5c-0.2,0-0.5,0-0.6-0.2l-1.5-1.7c-0.1-0.1,0-0.3,0.2-0.3l2.8-0.5
				c0.2,0,0.5,0,0.6,0.2L81.5,78.3z"/>
			<path class="st6" d="M86,77.5c0.1,0.1,0,0.3-0.2,0.3l-2.7,0.5c-0.2,0-0.5,0-0.6-0.2L81,76.5c-0.1-0.1,0-0.3,0.2-0.3l2.7-0.5
				c0.2,0,0.5,0,0.6,0.1L86,77.5z"/>
			<path class="st6" d="M90.4,76.6c0.1,0.1,0,0.3-0.2,0.3l-2.7,0.5c-0.2,0-0.5,0-0.6-0.2l-1.5-1.7c-0.1-0.1,0-0.3,0.2-0.3l2.7-0.5
				c0.2,0,0.5,0,0.6,0.1L90.4,76.6z"/>
			<path class="st6" d="M94.7,75.8c0.1,0.1,0,0.2-0.1,0.3l-2.6,0.5c-0.2,0-0.5,0-0.6-0.1l-1.5-1.6c-0.1-0.1,0-0.2,0.2-0.3l2.6-0.5
				c0.2,0,0.4,0,0.6,0.1L94.7,75.8z"/>
			<path class="st6" d="M98.9,75c0.1,0.1,0.1,0.2-0.1,0.3l-2.6,0.5c-0.2,0-0.4,0-0.6-0.1L94,74c-0.1-0.1,0-0.2,0.1-0.3l2.6-0.5
				c0.2,0,0.4,0,0.6,0.1L98.9,75z"/>
			<path class="st6" d="M49.4,81.4c0.1,0.1,0,0.3-0.3,0.3L46,82.3c-0.2,0-0.5,0-0.6-0.2l-1.3-1.8c-0.1-0.1,0-0.3,0.3-0.3l3.1-0.6
				c0.2,0,0.5,0,0.6,0.2L49.4,81.4z"/>
			<path class="st6" d="M54.5,80.4c0.1,0.1,0,0.3-0.2,0.3l-3.1,0.6c-0.2,0-0.5,0-0.6-0.2l-1.3-1.8c-0.1-0.1,0-0.3,0.2-0.3l3.1-0.6
				c0.2,0,0.5,0,0.6,0.2L54.5,80.4z"/>
			<path class="st6" d="M59.4,79.5c0.1,0.1,0,0.3-0.2,0.3l-3,0.6c-0.2,0-0.5,0-0.6-0.2l-1.3-1.8c-0.1-0.1,0-0.3,0.2-0.3l3-0.6
				c0.2,0,0.5,0,0.6,0.2L59.4,79.5z"/>
			<path class="st6" d="M64.3,78.6c0.1,0.1,0,0.3-0.2,0.3l-3,0.6c-0.2,0-0.5,0-0.6-0.2l-1.4-1.7c-0.1-0.1,0-0.3,0.2-0.3l2.9-0.5
				c0.2,0,0.5,0,0.6,0.2L64.3,78.6z"/>
			<path class="st6" d="M69,77.7c0.1,0.1,0,0.3-0.2,0.3l-2.9,0.5c-0.2,0-0.5,0-0.6-0.2l-1.4-1.7c-0.1-0.1,0-0.3,0.2-0.3l2.9-0.5
				c0.2,0,0.5,0,0.6,0.2L69,77.7z"/>
			<path class="st6" d="M73.6,76.8c0.1,0.1,0,0.3-0.2,0.3l-2.8,0.5c-0.2,0-0.5,0-0.6-0.2l-1.4-1.7c-0.1-0.1,0-0.3,0.2-0.3l2.8-0.5
				c0.2,0,0.5,0,0.6,0.2L73.6,76.8z"/>
			<path class="st6" d="M78.2,76c0.1,0.1,0,0.3-0.2,0.3l-2.8,0.5c-0.2,0-0.5,0-0.6-0.2L73.2,75c-0.1-0.1,0-0.3,0.2-0.3l2.8-0.5
				c0.2,0,0.5,0,0.6,0.1L78.2,76z"/>
			<path class="st6" d="M82.6,75.1c0.1,0.1,0,0.3-0.2,0.3l-2.7,0.5c-0.2,0-0.5,0-0.6-0.2l-1.5-1.7c-0.1-0.1,0-0.2,0.2-0.3l2.7-0.5
				c0.2,0,0.5,0,0.6,0.1L82.6,75.1z"/>
			<path class="st6" d="M87,74.3c0.1,0.1,0,0.2-0.2,0.3l-2.7,0.5c-0.2,0-0.5,0-0.6-0.1l-1.5-1.6c-0.1-0.1,0-0.2,0.2-0.3l2.7-0.5
				c0.2,0,0.5,0,0.6,0.1L87,74.3z"/>
			<path class="st6" d="M91.3,73.5c0.1,0.1,0,0.2-0.2,0.3l-2.6,0.5c-0.2,0-0.5,0-0.6-0.1l-1.5-1.6c-0.1-0.1,0-0.2,0.2-0.3l2.6-0.5
				c0.2,0,0.4,0,0.6,0.1L91.3,73.5z"/>
			<path class="st6" d="M95.5,72.7c0.1,0.1,0,0.2-0.1,0.3l-2.6,0.5c-0.2,0-0.4,0-0.6-0.1l-1.5-1.6c-0.1-0.1,0-0.2,0.2-0.3l2.6-0.5
				c0.2,0,0.4,0,0.6,0.1L95.5,72.7z"/>
			<path class="st6" d="M99.6,71.9c0.1,0.1,0.1,0.2-0.1,0.3l-2.5,0.5c-0.2,0-0.4,0-0.6-0.1L94.8,71c-0.1-0.1,0-0.2,0.1-0.3l2.5-0.5
				c0.2,0,0.4,0,0.5,0.1L99.6,71.9z"/>
			<path class="st6" d="M103.6,71.2c0.1,0.1,0.1,0.2-0.1,0.3l-2.5,0.5c-0.2,0-0.4,0-0.5-0.1l-1.6-1.5c-0.1-0.1-0.1-0.2,0.1-0.3
				l2.5-0.5c0.2,0,0.4,0,0.5,0.1L103.6,71.2z"/>
			<path class="st6" d="M44.2,82.4c0.1,0.1,0,0.3-0.3,0.3l-5.9,1.1c-0.2,0-0.5,0-0.6-0.2l-1.2-1.9c-0.1-0.1,0-0.3,0.3-0.3l5.9-1.1
				c0.2,0,0.5,0,0.6,0.2L44.2,82.4z"/>
			<path class="st6" d="M95.2,69.9c0.1,0.1,0,0.2-0.1,0.3l-2.5,0.5c-0.2,0-0.4,0-0.5-0.1l-1.5-1.5c-0.1-0.1,0-0.2,0.1-0.3l2.5-0.4
				c0.2,0,0.4,0,0.5,0.1L95.2,69.9z"/>
			<path class="st6" d="M54.9,77.2c0.1,0.1,0,0.3-0.2,0.3l-3,0.6c-0.2,0-0.5,0-0.6-0.2l-1.3-1.7c-0.1-0.1,0-0.3,0.2-0.3l3-0.5
				c0.2,0,0.5,0,0.6,0.2L54.9,77.2z"/>
			<path class="st6" d="M39.7,80c0.1,0.1,0,0.3-0.3,0.3l-3.2,0.6c-0.2,0-0.5,0-0.6-0.2l-1.2-1.8c-0.1-0.1,0-0.3,0.3-0.3l3.2-0.6
				c0.2,0,0.5,0,0.6,0.2L39.7,80z"/>
			<path class="st6" d="M44.8,79c0.1,0.1,0,0.3-0.3,0.3l-3.2,0.6c-0.2,0-0.5,0-0.6-0.2L39.6,78c-0.1-0.1,0-0.3,0.3-0.3l3.1-0.6
				c0.2,0,0.5,0,0.6,0.2L44.8,79z"/>
			<path class="st6" d="M49.9,78.1c0.1,0.1,0,0.3-0.2,0.3L46.6,79c-0.2,0-0.5,0-0.6-0.2l-1.3-1.8c-0.1-0.1,0-0.3,0.3-0.3l3.1-0.5
				c0.2,0,0.5,0,0.6,0.2L49.9,78.1z"/>
			<path class="st6" d="M59.7,76.3c0.1,0.1,0,0.3-0.2,0.3l-3,0.5c-0.2,0-0.5,0-0.6-0.2l-1.3-1.7c-0.1-0.1,0-0.3,0.2-0.3l3-0.5
				c0.2,0,0.5,0,0.6,0.2L59.7,76.3z"/>
			<path class="st6" d="M64.4,75.5c0.1,0.1,0,0.3-0.2,0.3l-2.9,0.5c-0.2,0-0.5,0-0.6-0.2l-1.4-1.7c-0.1-0.1,0-0.3,0.2-0.3l2.9-0.5
				c0.2,0,0.5,0,0.6,0.2L64.4,75.5z"/>
			<path class="st6" d="M69.1,74.6c0.1,0.1,0,0.3-0.2,0.3L66,75.4c-0.2,0-0.5,0-0.6-0.2l-1.4-1.7c-0.1-0.1,0-0.3,0.2-0.3l2.8-0.5
				c0.2,0,0.5,0,0.6,0.1L69.1,74.6z"/>
			<path class="st6" d="M73.7,73.8c0.1,0.1,0,0.2-0.2,0.3l-2.8,0.5c-0.2,0-0.5,0-0.6-0.2l-1.4-1.6c-0.1-0.1,0-0.2,0.2-0.3l2.8-0.5
				c0.2,0,0.5,0,0.6,0.1L73.7,73.8z"/>
			<path class="st6" d="M82.5,72.2c0.1,0.1,0,0.2-0.2,0.3L79.7,73c-0.2,0-0.5,0-0.6-0.1l-1.4-1.6c-0.1-0.1,0-0.2,0.2-0.3l2.7-0.5
				c0.2,0,0.4,0,0.6,0.1L82.5,72.2z"/>
			<path class="st6" d="M86.8,71.4c0.1,0.1,0,0.2-0.2,0.3L84,72.2c-0.2,0-0.5,0-0.6-0.1L82,70.4c-0.1-0.1,0-0.2,0.2-0.3l2.6-0.5
				c0.2,0,0.4,0,0.6,0.1L86.8,71.4z"/>
			<path class="st6" d="M101.2,68.8c0.1,0.1,0.1,0.2-0.1,0.3l-4.6,0.8c-0.2,0-0.4,0-0.5-0.1l-1.5-1.5c-0.1-0.1,0-0.2,0.1-0.3
				l4.6-0.8c0.2,0,0.4,0,0.5,0.1L101.2,68.8z"/>
			<path class="st6" d="M63.6,71.7c-0.1-0.1,0-0.2,0.2-0.3l3.1-0.5c0.2,0,0.5,0,0.6,0.1l0.7,0.8c0.1,0.1,0,0.2-0.2,0.3l-3.1,0.5
				c-0.2,0-0.5,0-0.6-0.2L63.6,71.7z"/>
			<path class="st6" d="M58.8,72.5c-0.1-0.1,0-0.2,0.2-0.3l3.2-0.5c0.2,0,0.5,0,0.6,0.1l0.7,0.9c0.1,0.1,0,0.2-0.2,0.3l-3.2,0.6
				c-0.2,0-0.5,0-0.6-0.2L58.8,72.5z"/>
			<path class="st6" d="M33,77c-0.1-0.1,0-0.3,0.3-0.3l3.5-0.6c0.2,0,0.5,0,0.6,0.2l0.6,0.9c0.1,0.1,0,0.3-0.3,0.3l-3.6,0.6
				c-0.2,0-0.5,0-0.6-0.2L33,77z"/>
			<path class="st6" d="M38.3,76.1c-0.1-0.1,0-0.3,0.3-0.3l3.5-0.6c0.2,0,0.5,0,0.6,0.2l0.6,0.9c0.1,0.1,0,0.3-0.3,0.3l-3.5,0.6
				c-0.2,0-0.5,0-0.6-0.2L38.3,76.1z"/>
			<path class="st6" d="M43.6,75.2c-0.1-0.1,0-0.3,0.3-0.3l3.4-0.6c0.2,0,0.5,0,0.6,0.2l0.7,0.9c0.1,0.1,0,0.3-0.2,0.3l-3.4,0.6
				c-0.2,0-0.5,0-0.6-0.2L43.6,75.2z"/>
			<path class="st6" d="M48.8,74.3c-0.1-0.1,0-0.3,0.2-0.3l3.3-0.6c0.2,0,0.5,0,0.6,0.2l0.7,0.9c0.1,0.1,0,0.3-0.2,0.3l-3.3,0.6
				c-0.2,0-0.5,0-0.6-0.2L48.8,74.3z"/>
			<path class="st6" d="M53.8,73.4c-0.1-0.1,0-0.3,0.2-0.3l3.2-0.6c0.2,0,0.5,0,0.6,0.2l0.7,0.9c0.1,0.1,0,0.3-0.2,0.3l-3.3,0.6
				c-0.2,0-0.5,0-0.6-0.2L53.8,73.4z"/>
			<path class="st6" d="M68.3,70.9c-0.1-0.1,0-0.2,0.2-0.3l3-0.5c0.2,0,0.5,0,0.6,0.1l0.7,0.8c0.1,0.1,0,0.2-0.2,0.3l-3.1,0.5
				c-0.2,0-0.5,0-0.6-0.1L68.3,70.9z"/>
			<path class="st6" d="M77.5,69.3c-0.1-0.1,0-0.2,0.2-0.3l2.9-0.5c0.2,0,0.4,0,0.5,0.1l0.7,0.8c0.1,0.1,0,0.2-0.2,0.3l-2.9,0.5
				c-0.2,0-0.4,0-0.6-0.1L77.5,69.3z"/>
			<path class="st6" d="M73,70.1c-0.1-0.1,0-0.2,0.2-0.3l3-0.5c0.2,0,0.4,0,0.6,0.1l0.7,0.8c0.1,0.1,0,0.2-0.2,0.3l-3,0.5
				c-0.2,0-0.5,0-0.6-0.1L73,70.1z"/>
			<path class="st6" d="M82,68.5c-0.1-0.1,0-0.2,0.2-0.3l2.9-0.5c0.2,0,0.4,0,0.5,0.1l0.8,0.8c0.1,0.1,0,0.2-0.2,0.3l-2.9,0.5
				c-0.2,0-0.4,0-0.6-0.1L82,68.5z"/>
			<path class="st6" d="M86.3,67.8c-0.1-0.1,0-0.2,0.2-0.3l2.8-0.5c0.2,0,0.4,0,0.5,0.1l0.8,0.8c0.1,0.1,0,0.2-0.1,0.3l-2.8,0.5
				c-0.2,0-0.4,0-0.5-0.1L86.3,67.8z"/>
			<path class="st6" d="M90.5,67c-0.1-0.1,0-0.2,0.1-0.3l2.7-0.5c0.2,0,0.4,0,0.5,0.1l0.8,0.8c0.1,0.1,0,0.2-0.1,0.3L91.8,68
				c-0.2,0-0.4,0-0.5-0.1L90.5,67z"/>
			<path class="st6" d="M94.7,66.3c-0.1-0.1,0-0.2,0.1-0.3l2.7-0.5c0.2,0,0.4,0,0.5,0.1l0.8,0.8c0.1,0.1,0.1,0.2-0.1,0.3L96,67.2
				c-0.2,0-0.4,0-0.5-0.1L94.7,66.3z"/>
			<path class="st6" d="M91,70.6c0.1,0.1,0,0.2-0.2,0.3l-2.6,0.5c-0.2,0-0.4,0-0.6-0.1l-1.5-1.6c-0.1-0.1,0-0.2,0.2-0.3L89,69
				c0.2,0,0.4,0,0.5,0.1L91,70.6z"/>
			<path class="st6" d="M78.1,73c0.1,0.1,0,0.2-0.2,0.3l-2.7,0.5c-0.2,0-0.5,0-0.6-0.1L73.2,72c-0.1-0.1,0-0.2,0.2-0.3l2.7-0.5
				c0.2,0,0.5,0,0.6,0.1L78.1,73z"/>
			<path class="st6" d="M47.7,85c0.1,0.1,0,0.3-0.3,0.3l-7.4,1.4c-0.3,0-0.5,0-0.6-0.2l-1.3-1.9c-0.1-0.1,0-0.3,0.3-0.3l7.3-1.4
				c0.2,0,0.5,0,0.6,0.2L47.7,85z"/>
			<path class="st6" d="M111.6,78.9c0.1,0.1,0.1,0.3-0.1,0.3l-2.8,0.6c-0.2,0-0.4,0-0.6-0.1l-0.8-0.7c-0.1-0.1-0.1-0.3,0.1-0.3
				l2.8-0.6c0.2,0,0.4,0,0.6,0.1L111.6,78.9z"/>
			<g>
				<path class="st6" d="M106.5,78.6l-1-0.9c-0.1-0.1-0.4-0.2-0.6-0.1l-2.8,0.6c-0.2,0-0.3,0.2-0.1,0.3l0.9,1L106.5,78.6z"/>
				<path class="st6" d="M103.1,79.5l1,1c0.1,0.1,0.4,0.2,0.6,0.2l2.8-0.6c0.2,0,0.2-0.2,0.1-0.3l-1-1L103.1,79.5z"/>
			</g>
			<path class="st6" d="M103.3,80.6c0.1,0.1,0.1,0.3-0.1,0.3l-2.9,0.6c-0.2,0-0.5,0-0.6-0.2L99,80.6c-0.1-0.1-0.1-0.3,0.1-0.3
				l2.9-0.6c0.2,0,0.5,0,0.6,0.2L103.3,80.6z"/>
		</g>
		<path class="st13" d="M101.3,94.5L78.7,100c-0.9,0.2-1.9-0.1-2.4-0.6l-6.3-8c-0.4-0.5-0.1-1.1,0.8-1.3l22-4.8
			c0.8-0.2,1.7,0.1,2.2,0.6l6.8,7.4C102.3,93.8,102.1,94.3,101.3,94.5z"/>
		<path class="st14" d="M30.2,80.8L30.2,80.8c-0.2,0.1-0.4,0.1-0.5-0.1l-1-1.4c-0.1-0.2-0.1-0.4,0.1-0.5l0,0
			c0.2-0.1,0.4-0.1,0.5,0.1l1,1.4C30.3,80.5,30.3,80.7,30.2,80.8z"/>
		<path class="st14" d="M31.9,83.4L31.9,83.4c-0.2,0.1-0.4,0.1-0.5-0.1l-1-1.4c-0.1-0.2-0.1-0.4,0.1-0.5l0,0
			c0.2-0.1,0.4-0.1,0.5,0.1l1,1.4C32.1,83.1,32.1,83.3,31.9,83.4z"/>
		<path class="st14" d="M33.7,86.1L33.7,86.1c-0.2,0.1-0.4,0.1-0.5-0.1l-1-1.4c-0.1-0.2-0.1-0.4,0.1-0.5l0,0
			c0.2-0.1,0.4-0.1,0.5,0.1l1,1.4C33.9,85.8,33.9,86,33.7,86.1z"/>
	</g>
</g>
</svg>
