<svg xmlns="http://www.w3.org/2000/svg" xmlns:xlink="http://www.w3.org/1999/xlink" viewBox="0 0 356.87 187.26"><defs><style>.cls-1{fill:none;}.cls-2{isolation:isolate;}.cls-3{clip-path:url(#clip-path);}.cls-4{fill:url(#linear-gradient);}.cls-5{opacity:0.4;}.cls-16,.cls-18,.cls-5{mix-blend-mode:multiply;}.cls-6{fill:#e3b02e;}.cls-10,.cls-7{fill:#fff;}.cls-8{fill:#eceaeb;}.cls-9{fill:#9fb808;}.cls-10{mix-blend-mode:overlay;}.cls-11{fill:#0063b5;}.cls-12{fill:#e34844;}.cls-13{fill:#febc10;}.cls-14{fill:#ff5c00;}.cls-15{fill:#4d4d4d;}.cls-16{fill:url(#New_Gradient_Swatch_1);}.cls-17{fill:#e6e6e6;mix-blend-mode:lighten;}.cls-18{fill:url(#New_Gradient_Swatch_1-2);}</style><clipPath id="clip-path"><rect class="cls-1" x="63.87" y="42.51" width="293" height="123" rx="11.19"/></clipPath><linearGradient id="linear-gradient" x1="210.37" y1="165.51" x2="210.37" y2="42.51" gradientUnits="userSpaceOnUse"><stop offset="0.15" stop-color="#c73c00"/><stop offset="1" stop-color="#febc10"/></linearGradient><linearGradient id="New_Gradient_Swatch_1" x1="127.15" y1="94.89" x2="136.74" y2="98.38" gradientUnits="userSpaceOnUse"><stop offset="0" stop-color="#bd95bd"/><stop offset="1" stop-color="#fff"/></linearGradient><linearGradient id="New_Gradient_Swatch_1-2" x1="108.53" y1="133.84" x2="118.55" y2="137.49" xlink:href="#New_Gradient_Swatch_1"/></defs><title>Asset 22</title><g class="cls-2"><g id="Layer_2" data-name="Layer 2"><g id="Layer_1-2" data-name="Layer 1"><g class="cls-3"><rect class="cls-4" x="63.87" y="42.51" width="293" height="123" rx="11.19"/><g class="cls-5"><path class="cls-6" d="M68.53,2.8C50.1,7,28.18,20.26,17.1,35.57,7.37,49,1.13,63.44.28,80c-1.37,26.56,1.82,55.58,20.06,74.93a103.78,103.78,0,0,0,47.45,28.36c13.12,3.44,53.24,6.87,72.13,0,14.06-5.11,27.76-11.67,38.06-22.52,6.06-6.38,11.74-13.23,15.92-21C201,126.53,203.45,111,202,96S197.42,65.29,190.26,52a93.43,93.43,0,0,0-28-32.14C149.26,10.51,110.93-6.77,68.53,2.8Z"/></g></g><path class="cls-7" d="M215.58,109.12a5,5,0,0,1,3.76-1.51,5.08,5.08,0,0,1,4.47,2,4.34,4.34,0,0,1,.83,2.28h-2.55a3.45,3.45,0,0,0-.63-1.32,2.78,2.78,0,0,0-4.18.32,5.49,5.49,0,0,0-.79,3.19,4.84,4.84,0,0,0,.83,3.08,2.63,2.63,0,0,0,2.12,1,2.42,2.42,0,0,0,2-.88,4,4,0,0,0,.63-1.42h2.54a5.53,5.53,0,0,1-1.68,3.25,4.87,4.87,0,0,1-3.46,1.25,5.2,5.2,0,0,1-4.11-1.69,6.84,6.84,0,0,1-1.49-4.66A6.72,6.72,0,0,1,215.58,109.12Z"/><path class="cls-7" d="M233.92,119a5,5,0,0,1-7,0,5.64,5.64,0,0,1,0-6.8,4.95,4.95,0,0,1,7,0,5.6,5.6,0,0,1,0,6.8ZM232,117.66a4.27,4.27,0,0,0,0-4.19,2.11,2.11,0,0,0-3.19,0,4.2,4.2,0,0,0,0,4.19,2.09,2.09,0,0,0,3.19,0Z"/><path class="cls-7" d="M243.94,111.54a3,3,0,0,1,.89,2.44v6.09H242.4v-5.5a2.5,2.5,0,0,0-.19-1.1,1.33,1.33,0,0,0-1.32-.69,1.64,1.64,0,0,0-1.64,1,3.61,3.61,0,0,0-.23,1.38v4.89h-2.36v-9H239v1.32a3.92,3.92,0,0,1,.86-1,2.94,2.94,0,0,1,1.84-.55A3.55,3.55,0,0,1,243.94,111.54Z"/><path class="cls-7" d="M246,112.79v-1.68h1.26v-2.52h2.34v2.52h1.47v1.68h-1.47v4.79a1.09,1.09,0,0,0,.14.69,1.54,1.54,0,0,0,.86.14h.47v1.77l-1.12,0a3,3,0,0,1-2.29-.58,1.72,1.72,0,0,1-.4-1.26v-5.57Z"/><path class="cls-7" d="M258.34,111.21a3.62,3.62,0,0,1,1.57,1.34,4.46,4.46,0,0,1,.72,1.87,12.1,12.1,0,0,1,.08,1.79h-6.59a2.15,2.15,0,0,0,.94,1.91,2.39,2.39,0,0,0,1.31.34,2,2,0,0,0,1.31-.41,2.1,2.1,0,0,0,.49-.62h2.41a2.92,2.92,0,0,1-.87,1.63,4.41,4.41,0,0,1-3.41,1.32,5,5,0,0,1-3.19-1.11,4.38,4.38,0,0,1-1.38-3.62A4.92,4.92,0,0,1,253,112a4.35,4.35,0,0,1,3.24-1.26A5.18,5.18,0,0,1,258.34,111.21Zm-3.53,2a2.47,2.47,0,0,0-.64,1.4h4.08a2,2,0,0,0-.63-1.43,2.09,2.09,0,0,0-1.4-.48A1.87,1.87,0,0,0,254.81,113.25Z"/><path class="cls-7" d="M273.07,111.06a2.67,2.67,0,0,1,1.06.81,2.73,2.73,0,0,1,.51,1.16,7.67,7.67,0,0,1,.08,1.34v5.7h-2.43v-5.76a1.88,1.88,0,0,0-.16-.84,1.18,1.18,0,0,0-1.16-.63,1.36,1.36,0,0,0-1.36.81,2.68,2.68,0,0,0-.19,1v5.38H267v-5.38a3,3,0,0,0-.17-1.17,1.16,1.16,0,0,0-1.17-.66,1.39,1.39,0,0,0-1.36.66,2.49,2.49,0,0,0-.19,1.11v5.44h-2.4v-9H264v1.32a3.73,3.73,0,0,1,.83-1,3.3,3.3,0,0,1,3.46-.08,2.61,2.61,0,0,1,.78,1.09,3,3,0,0,1,1.16-1.17,3.48,3.48,0,0,1,1.62-.37A3,3,0,0,1,273.07,111.06Z"/><path class="cls-7" d="M284.39,112a4.8,4.8,0,0,1,1.11,3.43,5.4,5.4,0,0,1-1.09,3.65,3.52,3.52,0,0,1-2.78,1.25,2.93,2.93,0,0,1-1.81-.54,3.53,3.53,0,0,1-.76-.87v4.71h-2.35V111H279v1.33a4,4,0,0,1,.82-.93,3,3,0,0,1,1.89-.6A3.58,3.58,0,0,1,284.39,112Zm-1.82,1.7a1.67,1.67,0,0,0-1.56-.81,1.79,1.79,0,0,0-1.79,1.22,4.82,4.82,0,0,0-.25,1.65,2.57,2.57,0,0,0,.85,2.21,1.92,1.92,0,0,0,1.19.38,1.74,1.74,0,0,0,1.52-.77,3.51,3.51,0,0,0,.53-2A3.46,3.46,0,0,0,282.57,113.7Z"/><path class="cls-7" d="M294.59,119a5,5,0,0,1-6.95,0,5.6,5.6,0,0,1,0-6.8,4.94,4.94,0,0,1,6.95,0,5.6,5.6,0,0,1,0,6.8Zm-1.89-1.31a4.27,4.27,0,0,0,0-4.19,2.11,2.11,0,0,0-3.19,0,4.2,4.2,0,0,0,0,4.19,2.09,2.09,0,0,0,3.19,0Z"/><path class="cls-7" d="M302.34,110.81l.2,0v2.42l-.4,0h-.28a2,2,0,0,0-1.92.93,3.65,3.65,0,0,0-.27,1.61v4.32h-2.38v-9h2.25v1.57a5.11,5.11,0,0,1,1-1.23,2.61,2.61,0,0,1,1.73-.56Z"/><path class="cls-7" d="M307.39,114.57a3.3,3.3,0,0,0,.95-.21.71.71,0,0,0,.51-.67.8.8,0,0,0-.39-.77,2.54,2.54,0,0,0-1.15-.21,1.51,1.51,0,0,0-1.21.42,1.71,1.71,0,0,0-.33.83h-2.29a3.45,3.45,0,0,1,.67-1.95,3.89,3.89,0,0,1,3.24-1.2,5.84,5.84,0,0,1,2.65.59,2.26,2.26,0,0,1,1.16,2.22v4.16c0,.28,0,.63,0,1a1.46,1.46,0,0,0,.14.63,1,1,0,0,0,.35.28v.34h-2.57a2.88,2.88,0,0,1-.15-.51c0-.16-.05-.34-.07-.55a4.76,4.76,0,0,1-1.13.91,3.46,3.46,0,0,1-1.74.44,3,3,0,0,1-2-.71,2.47,2.47,0,0,1-.81-2,2.59,2.59,0,0,1,1.3-2.42,5.86,5.86,0,0,1,2.09-.58Zm1.45,1.1a2.47,2.47,0,0,1-.46.23,3,3,0,0,1-.64.16l-.53.1a3.45,3.45,0,0,0-1.09.33,1.08,1.08,0,0,0-.56,1,1,1,0,0,0,.34.88,1.29,1.29,0,0,0,.83.27,2.47,2.47,0,0,0,1.43-.45,1.9,1.9,0,0,0,.68-1.64Z"/><path class="cls-7" d="M318.17,110.81l.2,0v2.42l-.4,0h-.28a2,2,0,0,0-1.91.93,3.49,3.49,0,0,0-.28,1.61v4.32h-2.38v-9h2.26v1.57a4.88,4.88,0,0,1,.95-1.23,2.61,2.61,0,0,1,1.73-.56Z"/><path class="cls-7" d="M320,121.81l.3,0a3.57,3.57,0,0,0,.66,0,1.19,1.19,0,0,0,.53-.19,1.25,1.25,0,0,0,.39-.59,1.3,1.3,0,0,0,.15-.55L318.71,111h2.63l2,6.67,1.87-6.67h2.52l-3.11,8.89a12.7,12.7,0,0,1-1.42,3.2,2.71,2.71,0,0,1-2.09.61h-.51l-.57,0Z"/><path class="cls-7" d="M299.13,128.24H302l4.33,12.23h-2.78l-.8-2.51h-4.51l-.83,2.51h-2.67Zm-.17,7.61h3.14L300.55,131Z"/><path class="cls-7" d="M312.63,131.21l.2,0v2.42l-.4,0h-.28a2,2,0,0,0-1.92.93,3.65,3.65,0,0,0-.27,1.61v4.32h-2.38v-9h2.25V133a5.11,5.11,0,0,1,1-1.23,2.61,2.61,0,0,1,1.73-.56Z"/><path class="cls-7" d="M313.17,133.2v-1.69h1.26V129h2.34v2.52h1.47v1.69h-1.47V138a1.09,1.09,0,0,0,.14.69,1.58,1.58,0,0,0,.87.14h.46v1.77l-1.12,0a3,3,0,0,1-2.29-.58,1.72,1.72,0,0,1-.4-1.26V133.2Z"/><path class="cls-7" d="M321.47,137.59a1.58,1.58,0,0,0,.33.89,2.17,2.17,0,0,0,1.63.47,2.52,2.52,0,0,0,1.12-.2.68.68,0,0,0,.41-.63.67.67,0,0,0-.33-.6,13,13,0,0,0-2.48-.71,5.26,5.26,0,0,1-2.17-1,2.08,2.08,0,0,1-.63-1.63,2.81,2.81,0,0,1,1-2.15,4,4,0,0,1,2.77-.9,5.06,5.06,0,0,1,2.77.68,2.88,2.88,0,0,1,1.22,2.33h-2.36a1.47,1.47,0,0,0-.26-.72,1.63,1.63,0,0,0-1.33-.48,1.94,1.94,0,0,0-1.11.24.68.68,0,0,0-.32.56.6.6,0,0,0,.35.59,14.42,14.42,0,0,0,2.46.66,4.56,4.56,0,0,1,2.12,1,2.28,2.28,0,0,1,.7,1.71,2.74,2.74,0,0,1-1,2.19,6,6,0,0,1-6.26-.05,2.91,2.91,0,0,1-1-2.29Z"/><path class="cls-8" d="M96.71,70.53c-10,12.4-5.59,32.5,9.8,44.9s36.33,12.67,46,0c9.46-12.44-7-10.65-9.44-19.39-2.09-7.49,11.25-12.44-.36-25.51C129.54,55.75,106.7,58.13,96.71,70.53Zm49.48,40.28c-.8,3.29-5.28,5-10,3.88s-7.89-4.76-7.09-8.06,5.28-5,10-3.88S147,107.51,146.19,110.81Z"/><path class="cls-9" d="M119.19,103.47a6.22,6.22,0,1,1-8.75.94A6.22,6.22,0,0,1,119.19,103.47Z"/><path class="cls-10" d="M111.68,105.34a5.92,5.92,0,0,1,6.4-1.77,5.44,5.44,0,0,0-8,6.36A7,7,0,0,1,111.68,105.34Z"/><path class="cls-11" d="M128,67.1a6.21,6.21,0,1,1-8.74.94A6.21,6.21,0,0,1,128,67.1Z"/><path class="cls-12" d="M110.64,71.42a6.22,6.22,0,1,1-8.74.94A6.2,6.2,0,0,1,110.64,71.42Z"/><path class="cls-10" d="M103.33,73.4a5.9,5.9,0,0,1,6.4-1.77,5.45,5.45,0,0,0-8,6.36A7,7,0,0,1,103.33,73.4Z"/><path class="cls-13" d="M107.86,89.57a6.22,6.22,0,1,1-8.74.94A6.2,6.2,0,0,1,107.86,89.57Z"/><path class="cls-10" d="M100.38,91.58a5.92,5.92,0,0,1,6.4-1.77,5.45,5.45,0,0,0-8,6.36A7,7,0,0,1,100.38,91.58Z"/><path class="cls-14" d="M132.75,96.43c-8,17.19-16.87,30-19.79,28.66s1.23-16.39,9.24-33.58a109.5,109.5,0,0,1,18.17-27,.82.82,0,0,1,1.37.64A110.15,110.15,0,0,1,132.75,96.43Z"/><path class="cls-13" d="M114.31,111.05c-2.42,7.7-3.29,13.56-1.57,14.37s5.65-3.64,10-10.44Z"/><path class="cls-15" d="M115.84,134.58c-2.53,5.23-7.94,7-14.25,6.73,5.08-4.85-.17-7.13,2.41-12.67a6.62,6.62,0,0,1,9-3.12A6.84,6.84,0,0,1,115.84,134.58Z"/><path class="cls-12" d="M114.38,136.8a6.37,6.37,0,0,1-3.65,1.12c-.71-.16-.83-1.21-2-1.89s-2.75.31-3.86-1.42a1.58,1.58,0,0,0-1.39-.87c.47,2.47,1.3,4.56-1.86,7.57C106.9,141.52,111.49,140.49,114.38,136.8Z"/><path class="cls-16" d="M141.32,64.28a.74.74,0,0,1,.47.78,115.21,115.21,0,0,1-9.27,31.86c-8,17.18-16.77,29.88-19.68,28.52Z"/><path class="cls-17" d="M137,69.53s-.12.19-.36.54l-1,1.55c-.43.67-.94,1.49-1.52,2.43s-1.23,2-1.91,3.18l-1.08,1.83c-.36.64-.74,1.29-1.13,2s-.78,1.37-1.17,2.09l-1.2,2.19c-.79,1.51-1.62,3-2.42,4.65s-1.63,3.2-2.37,4.85c-.39.82-.77,1.64-1.16,2.45s-.72,1.65-1.08,2.47-.71,1.62-1.06,2.42-.64,1.62-1,2.4-.63,1.56-.93,2.32-.55,1.52-.82,2.25l-.78,2.13c-.26.69-.45,1.37-.67,2-.41,1.3-.8,2.48-1.15,3.53s-.56,2-.77,2.76-.39,1.36-.51,1.77l-.18.63.12-.64c.09-.42.2-1,.36-1.81s.36-1.73.59-2.82.59-2.28,1-3.6c.18-.66.34-1.35.57-2s.46-1.43.7-2.17.49-1.51.75-2.3.58-1.55.88-2.35.6-1.62.91-2.44.68-1.63,1-2.46.69-1.66,1.07-2.49l1.14-2.47c.76-1.66,1.62-3.27,2.42-4.88.4-.8.84-1.57,1.26-2.35s.85-1.52,1.26-2.27c.86-1.48,1.68-2.91,2.51-4.23l1.21-1.94,1.17-1.78c.74-1.15,1.47-2.16,2.1-3.07s1.21-1.69,1.69-2.33.86-1.13,1.13-1.46Z"/><path class="cls-18" d="M115.84,134.42a6.94,6.94,0,0,0-2.36-8.77,3.8,3.8,0,0,0-3.44,2.11c-2.43,4.16-.05,13.64-8.45,13.55C107.9,141.56,113.2,140.07,115.84,134.42Z"/><path class="cls-10" d="M120.53,69a5.91,5.91,0,0,1,6.4-1.78,5.45,5.45,0,0,0-8,6.37A7,7,0,0,1,120.53,69Z"/></g></g></g></svg>