<?xml version="1.0" encoding="utf-8"?>
<!-- Generator: Adobe Illustrator 23.0.1, SVG Export Plug-In . SVG Version: 6.00 Build 0)  -->
<svg version="1.1" id="Layer_1" xmlns="http://www.w3.org/2000/svg" xmlns:xlink="http://www.w3.org/1999/xlink" x="0px" y="0px"
	 viewBox="0 0 293 123" style="enable-background:new 0 0 293 123;" xml:space="preserve">
<style type="text/css">
	.st0{clip-path:url(#SVGID_2_);fill:url(#SVGID_3_);}
	.st1{opacity:0.4;clip-path:url(#SVGID_2_);}
	.st2{fill:#E3B02E;}
	.st3{fill:#FFFFFF;}
	.st4{fill:#ECEAEB;}
	.st5{fill:#9FB808;}
	.st6{fill:#0063B5;}
	.st7{fill:#E34844;}
	.st8{fill:#FEBC10;}
	.st9{fill:#FF5C00;}
	.st10{fill:#4D4D4D;}
	.st11{fill:url(#SVGID_4_);}
	.st12{fill:#E6E6E6;}
	.st13{fill:url(#SVGID_5_);}
</style>
<g>
	<g>
		<defs>
			<path id="SVGID_1_" d="M281.8,123H11.2C5,123,0,118,0,111.8V11.2C0,5,5,0,11.2,0h270.6C288,0,293,5,293,11.2v100.6
				C293,118,288,123,281.8,123z"/>
		</defs>
		<clipPath id="SVGID_2_">
			<use xlink:href="#SVGID_1_"  style="overflow:visible;"/>
		</clipPath>
		<linearGradient id="SVGID_3_" gradientUnits="userSpaceOnUse" x1="146.5" y1="123" x2="146.5" y2="-9.094947e-13">
			<stop  offset="0.1471" style="stop-color:#C73C00"/>
			<stop  offset="1" style="stop-color:#FEBC10"/>
		</linearGradient>
		<path class="st0" d="M281.8,123H11.2C5,123,0,118,0,111.8V11.2C0,5,5,0,11.2,0h270.6C288,0,293,5,293,11.2v100.6
			C293,118,288,123,281.8,123z"/>
		<g class="st1">
			<path class="st2" d="M4.7-39.7c-18.4,4.2-40.4,17.5-51.4,32.8c-9.7,13.4-16,27.9-16.8,44.4C-65,64-61.8,93.1-43.5,112.4
				c12.4,13.2,29.9,23.7,47.5,28.4c13.1,3.4,53.2,6.9,72.1,0c14.1-5.1,27.8-11.7,38.1-22.5c6.1-6.4,11.7-13.2,15.9-21
				c7.1-13.3,9.6-28.8,8.1-43.8c-1.4-15-4.6-30.7-11.8-44c-7-13-16.1-23.5-28-32.1C85.4-32,47.1-49.3,4.7-39.7z"/>
		</g>
	</g>
	<g>
		<g>
			<path class="st3" d="M151.7,66.6c1-1,2.2-1.5,3.8-1.5c2,0,3.5,0.7,4.5,2c0.5,0.8,0.8,1.5,0.8,2.3h-2.6c-0.2-0.6-0.4-1-0.6-1.3
				c-0.5-0.5-1.1-0.8-2-0.8c-0.9,0-1.6,0.4-2.2,1.1c-0.5,0.8-0.8,1.8-0.8,3.2s0.3,2.4,0.8,3.1c0.6,0.7,1.3,1,2.1,1
				c0.9,0,1.5-0.3,2-0.9c0.3-0.3,0.5-0.8,0.6-1.4h2.5c-0.2,1.3-0.8,2.4-1.7,3.3s-2.1,1.3-3.5,1.3c-1.7,0-3.1-0.6-4.1-1.7
				c-1-1.1-1.5-2.7-1.5-4.7C150,69.4,150.6,67.8,151.7,66.6z"/>
			<path class="st3" d="M170,76.5c-0.8,0.9-1.9,1.4-3.5,1.4c-1.6,0-2.7-0.5-3.5-1.4c-0.8-0.9-1.1-2.1-1.1-3.4c0-1.3,0.4-2.4,1.1-3.4
				c0.8-1,1.9-1.4,3.5-1.4c1.6,0,2.7,0.5,3.5,1.4c0.8,1,1.1,2.1,1.1,3.4C171.2,74.4,170.8,75.5,170,76.5z M168.2,75.2
				c0.4-0.5,0.6-1.2,0.6-2.1s-0.2-1.6-0.6-2.1c-0.4-0.5-0.9-0.7-1.6-0.7c-0.7,0-1.2,0.2-1.6,0.7c-0.4,0.5-0.6,1.2-0.6,2.1
				s0.2,1.6,0.6,2.1c0.4,0.5,0.9,0.7,1.6,0.7C167.3,75.9,167.8,75.6,168.2,75.2z"/>
			<path class="st3" d="M180.1,69c0.6,0.5,0.9,1.3,0.9,2.4v6.1h-2.4v-5.5c0-0.5-0.1-0.8-0.2-1.1c-0.2-0.5-0.7-0.7-1.3-0.7
				c-0.8,0-1.3,0.3-1.6,1c-0.2,0.4-0.2,0.8-0.2,1.4v4.9h-2.4v-9h2.3v1.3c0.3-0.5,0.6-0.8,0.9-1c0.5-0.4,1.1-0.5,1.8-0.5
				C178.7,68.3,179.5,68.5,180.1,69z"/>
			<path class="st3" d="M182.1,70.3v-1.7h1.3v-2.5h2.3v2.5h1.5v1.7h-1.5v4.8c0,0.4,0,0.6,0.1,0.7c0.1,0.1,0.4,0.1,0.9,0.1
				c0.1,0,0.1,0,0.2,0c0.1,0,0.2,0,0.2,0v1.8l-1.1,0c-1.1,0-1.9-0.2-2.3-0.6c-0.3-0.3-0.4-0.7-0.4-1.3v-5.6H182.1z"/>
			<path class="st3" d="M194.5,68.7c0.6,0.3,1.2,0.7,1.6,1.3c0.4,0.5,0.6,1.2,0.7,1.9c0.1,0.4,0.1,1,0.1,1.8h-6.6
				c0,0.9,0.4,1.5,0.9,1.9c0.4,0.2,0.8,0.3,1.3,0.3c0.5,0,1-0.1,1.3-0.4c0.2-0.1,0.3-0.4,0.5-0.6h2.4c-0.1,0.5-0.4,1.1-0.9,1.6
				c-0.8,0.9-1.9,1.3-3.4,1.3c-1.2,0-2.3-0.4-3.2-1.1s-1.4-2-1.4-3.6c0-1.6,0.4-2.8,1.2-3.6c0.8-0.8,1.9-1.3,3.2-1.3
				C193.1,68.3,193.8,68.4,194.5,68.7z M190.9,70.7c-0.3,0.3-0.5,0.8-0.6,1.4h4.1c0-0.6-0.3-1.1-0.6-1.4c-0.4-0.3-0.8-0.5-1.4-0.5
				C191.7,70.2,191.3,70.4,190.9,70.7z"/>
			<path class="st3" d="M209.2,68.5c0.4,0.2,0.7,0.4,1.1,0.8c0.3,0.3,0.4,0.7,0.5,1.2c0.1,0.3,0.1,0.8,0.1,1.3l0,5.7h-2.4v-5.8
				c0-0.3-0.1-0.6-0.2-0.8c-0.2-0.4-0.6-0.6-1.2-0.6c-0.7,0-1.1,0.3-1.4,0.8c-0.1,0.3-0.2,0.6-0.2,1v5.4h-2.4v-5.4
				c0-0.5-0.1-0.9-0.2-1.2c-0.2-0.4-0.6-0.7-1.2-0.7c-0.7,0-1.1,0.2-1.4,0.7c-0.1,0.2-0.2,0.6-0.2,1.1v5.4h-2.4v-9h2.3v1.3
				c0.3-0.5,0.6-0.8,0.8-1c0.5-0.4,1.1-0.5,1.8-0.5c0.7,0,1.3,0.2,1.7,0.5c0.3,0.3,0.6,0.6,0.8,1.1c0.3-0.5,0.7-0.9,1.2-1.2
				c0.5-0.2,1-0.4,1.6-0.4C208.4,68.3,208.8,68.4,209.2,68.5z"/>
			<path class="st3" d="M220.5,69.5c0.7,0.8,1.1,1.9,1.1,3.4c0,1.6-0.4,2.8-1.1,3.6c-0.7,0.8-1.7,1.3-2.8,1.3
				c-0.7,0-1.3-0.2-1.8-0.5c-0.3-0.2-0.5-0.5-0.8-0.9v4.7h-2.3V68.5h2.3v1.3c0.3-0.4,0.5-0.7,0.8-0.9c0.5-0.4,1.2-0.6,1.9-0.6
				C218.9,68.3,219.8,68.7,220.5,69.5z M218.7,71.2c-0.3-0.5-0.8-0.8-1.6-0.8c-0.9,0-1.5,0.4-1.8,1.2c-0.2,0.4-0.3,1-0.3,1.6
				c0,1.1,0.3,1.8,0.8,2.2c0.3,0.2,0.7,0.4,1.2,0.4c0.7,0,1.2-0.3,1.5-0.8s0.5-1.2,0.5-2C219.2,72.3,219,71.7,218.7,71.2z"/>
			<path class="st3" d="M230.7,76.5c-0.8,0.9-1.9,1.4-3.5,1.4c-1.6,0-2.7-0.5-3.5-1.4c-0.8-0.9-1.1-2.1-1.1-3.4
				c0-1.3,0.4-2.4,1.1-3.4c0.8-1,1.9-1.4,3.5-1.4c1.6,0,2.7,0.5,3.5,1.4c0.8,1,1.1,2.1,1.1,3.4C231.9,74.4,231.5,75.5,230.7,76.5z
				 M228.8,75.2c0.4-0.5,0.6-1.2,0.6-2.1s-0.2-1.6-0.6-2.1c-0.4-0.5-0.9-0.7-1.6-0.7c-0.7,0-1.2,0.2-1.6,0.7
				c-0.4,0.5-0.6,1.2-0.6,2.1s0.2,1.6,0.6,2.1c0.4,0.5,0.9,0.7,1.6,0.7C227.9,75.9,228.5,75.6,228.8,75.2z"/>
			<path class="st3" d="M238.5,68.3c0,0,0.1,0,0.2,0v2.4c-0.1,0-0.3,0-0.4,0s-0.2,0-0.3,0c-1,0-1.6,0.3-1.9,0.9
				c-0.2,0.3-0.3,0.9-0.3,1.6v4.3h-2.4v-9h2.3v1.6c0.4-0.6,0.7-1,1-1.2c0.4-0.4,1-0.6,1.7-0.6C238.4,68.3,238.4,68.3,238.5,68.3z"/>
			<path class="st3" d="M243.5,72.1c0.4-0.1,0.8-0.1,0.9-0.2c0.3-0.1,0.5-0.4,0.5-0.7c0-0.4-0.1-0.6-0.4-0.8
				c-0.3-0.1-0.6-0.2-1.1-0.2c-0.6,0-1,0.1-1.2,0.4c-0.2,0.2-0.3,0.5-0.3,0.8h-2.3c0-0.8,0.3-1.4,0.7-2c0.6-0.8,1.7-1.2,3.2-1.2
				c1,0,1.9,0.2,2.7,0.6c0.8,0.4,1.2,1.1,1.2,2.2v4.2c0,0.3,0,0.6,0,1c0,0.3,0.1,0.5,0.1,0.6c0.1,0.1,0.2,0.2,0.3,0.3v0.3h-2.6
				c-0.1-0.2-0.1-0.4-0.1-0.5c0-0.2,0-0.3-0.1-0.5c-0.3,0.4-0.7,0.7-1.1,0.9c-0.5,0.3-1.1,0.4-1.7,0.4c-0.8,0-1.5-0.2-2-0.7
				s-0.8-1.1-0.8-2c0-1.1,0.4-1.9,1.3-2.4c0.5-0.3,1.2-0.5,2.1-0.6L243.5,72.1z M245,73.2c-0.2,0.1-0.3,0.2-0.5,0.2
				c-0.2,0.1-0.4,0.1-0.6,0.2l-0.5,0.1c-0.5,0.1-0.9,0.2-1.1,0.3c-0.4,0.2-0.6,0.6-0.6,1c0,0.4,0.1,0.7,0.3,0.9s0.5,0.3,0.8,0.3
				c0.5,0,1-0.2,1.4-0.4s0.7-0.8,0.7-1.6V73.2z"/>
			<path class="st3" d="M254.3,68.3c0,0,0.1,0,0.2,0v2.4c-0.1,0-0.3,0-0.4,0s-0.2,0-0.3,0c-1,0-1.6,0.3-1.9,0.9
				c-0.2,0.3-0.3,0.9-0.3,1.6v4.3h-2.4v-9h2.3v1.6c0.4-0.6,0.7-1,1-1.2c0.4-0.4,1-0.6,1.7-0.6C254.2,68.3,254.3,68.3,254.3,68.3z"/>
			<path class="st3" d="M256.1,79.3l0.3,0c0.2,0,0.5,0,0.7,0c0.2,0,0.4-0.1,0.5-0.2c0.1-0.1,0.3-0.3,0.4-0.6
				c0.1-0.3,0.2-0.5,0.2-0.5l-3.3-9.4h2.6l2,6.7l1.9-6.7h2.5l-3.1,8.9c-0.6,1.7-1.1,2.8-1.4,3.2c-0.3,0.4-1,0.6-2.1,0.6
				c-0.2,0-0.4,0-0.5,0c-0.1,0-0.3,0-0.6,0V79.3z"/>
			<path class="st3" d="M235.3,85.7h2.9l4.3,12.2h-2.8l-0.8-2.5h-4.5l-0.8,2.5h-2.7L235.3,85.7z M235.1,93.3h3.1l-1.5-4.8
				L235.1,93.3z"/>
			<path class="st3" d="M248.8,88.7c0,0,0.1,0,0.2,0v2.4c-0.1,0-0.3,0-0.4,0s-0.2,0-0.3,0c-1,0-1.6,0.3-1.9,0.9
				c-0.2,0.3-0.3,0.9-0.3,1.6V98h-2.4v-9h2.3v1.6c0.4-0.6,0.7-1,1-1.2c0.4-0.4,1-0.6,1.7-0.6C248.7,88.7,248.7,88.7,248.8,88.7z"/>
			<path class="st3" d="M249.3,90.7V89h1.3v-2.5h2.3V89h1.5v1.7h-1.5v4.8c0,0.4,0,0.6,0.1,0.7c0.1,0.1,0.4,0.1,0.9,0.1
				c0.1,0,0.1,0,0.2,0s0.2,0,0.2,0V98l-1.1,0c-1.1,0-1.9-0.2-2.3-0.6c-0.3-0.3-0.4-0.7-0.4-1.3v-5.6H249.3z"/>
			<path class="st3" d="M257.6,95.1c0.1,0.4,0.2,0.7,0.3,0.9c0.3,0.3,0.8,0.5,1.6,0.5c0.5,0,0.8-0.1,1.1-0.2
				c0.3-0.1,0.4-0.3,0.4-0.6c0-0.3-0.1-0.5-0.3-0.6s-1-0.4-2.5-0.7c-1-0.3-1.8-0.6-2.2-1c-0.4-0.4-0.6-0.9-0.6-1.6
				c0-0.8,0.3-1.6,1-2.2s1.6-0.9,2.8-0.9c1.1,0,2.1,0.2,2.8,0.7s1.1,1.2,1.2,2.3h-2.4c0-0.3-0.1-0.5-0.3-0.7
				c-0.3-0.3-0.7-0.5-1.3-0.5c-0.5,0-0.9,0.1-1.1,0.2c-0.2,0.2-0.3,0.3-0.3,0.6c0,0.3,0.1,0.5,0.3,0.6c0.2,0.1,1.1,0.3,2.5,0.7
				c0.9,0.2,1.6,0.6,2.1,1c0.5,0.5,0.7,1,0.7,1.7c0,0.9-0.3,1.6-1,2.2c-0.7,0.6-1.7,0.9-3.1,0.9c-1.4,0-2.5-0.3-3.2-0.9
				s-1-1.4-1-2.3H257.6z"/>
		</g>
	</g>
	<g>
		<path class="st4" d="M31.8,27.8c-11.7,14.5-6.6,38.1,11.5,52.7c18.1,14.5,42.6,14.9,53.9,0c11.1-14.6-8.2-12.5-11.1-22.7
			c-2.4-8.8,13.2-14.6-0.4-29.9C70.3,10.4,43.5,13.2,31.8,27.8z M89.8,75c-0.9,3.9-6.2,5.9-11.7,4.6c-5.5-1.4-9.3-5.6-8.3-9.4
			c0.9-3.9,6.2-5.9,11.7-4.6C87,66.9,90.7,71.1,89.8,75z"/>
		<path class="st5" d="M58.1,66.4c3.1,2.5,3.6,7.1,1.1,10.3c-2.5,3.1-7.1,3.6-10.3,1.1c-3.1-2.5-3.6-7.1-1.1-10.3
			C50.4,64.4,55,63.9,58.1,66.4z"/>
		<path class="st3" d="M49.3,68.6c1.7-2.2,5.1-3,7.5-2.1c-2.6-1.6-6.4-0.9-8.4,1.5c-2.1,2.7-1,5.9-1,5.9S47.2,71.3,49.3,68.6z"/>
		<path class="st6" d="M68.5,23.8c3.1,2.5,3.6,7.1,1.1,10.3c-2.5,3.1-7.1,3.6-10.3,1.1c-3.1-2.5-3.6-7.1-1.1-10.3
			C60.8,21.7,65.3,21.2,68.5,23.8z"/>
		<path class="st7" d="M48.1,28.8c3.1,2.5,3.6,7.1,1.1,10.3c-2.5,3.1-7.1,3.6-10.3,1.1c-3.1-2.5-3.6-7.1-1.1-10.3
			C40.4,26.8,45,26.3,48.1,28.8z"/>
		<path class="st3" d="M39.5,31.1c1.7-2.2,5.1-3,7.5-2.1c-2.6-1.6-6.4-0.9-8.4,1.5c-2.1,2.7-1,5.9-1,5.9S37.4,33.8,39.5,31.1z"/>
		<path class="st8" d="M44.8,50.1c3.1,2.5,3.6,7.1,1.1,10.3c-2.5,3.1-7.1,3.6-10.3,1.1c-3.1-2.5-3.6-7.1-1.1-10.3
			C37.1,48.1,41.7,47.6,44.8,50.1z"/>
		<path class="st3" d="M36.1,52.5c1.7-2.2,5.1-3,7.5-2.1c-2.6-1.6-6.4-0.9-8.4,1.5c-2.1,2.7-1,5.9-1,5.9S33.9,55.1,36.1,52.5z"/>
		<g>
			<path class="st9" d="M74,58.2c-9.4,20.2-19.8,35.2-23.2,33.6c-3.4-1.6,1.4-19.2,10.8-39.4C68.9,36.8,78.8,25.2,83,20.8
				c0.6-0.6,1.7-0.1,1.6,0.7C83.8,27.5,81.3,42.5,74,58.2z"/>
			<path class="st8" d="M52.4,75.3c-2.8,9-3.9,15.9-1.8,16.8c2,0.9,6.6-4.3,11.7-12.2L52.4,75.3z"/>
			<path class="st10" d="M54.2,102.9c-3,6.1-9.3,8.2-16.7,7.9c6-5.7-0.2-8.4,2.8-14.8c1.8-3.9,6.6-5.6,10.5-3.7
				C54.6,94.2,56.1,99,54.2,102.9z"/>
			<path class="st7" d="M52.5,105.5c-1.8,1.2-3.8,1.4-4.3,1.3c-0.8-0.2-1-1.4-2.4-2.2c-1.4-0.8-3.2,0.4-4.5-1.7
				c-0.5-0.8-1.1-1-1.6-1c0.5,2.9,1.5,5.3-2.2,8.9C43.7,111,49.1,109.8,52.5,105.5z"/>
			<linearGradient id="SVGID_4_" gradientUnits="userSpaceOnUse" x1="67.4516" y1="56.3443" x2="78.7006" y2="60.4386">
				<stop  offset="0" style="stop-color:#BD95BD"/>
				<stop  offset="1" style="stop-color:#FFFFFF"/>
			</linearGradient>
			<path class="st11" d="M84.1,20.5c0.3,0.2,0.6,0.5,0.6,0.9c-0.8,6-3.6,21.8-10.9,37.4c-9.4,20.2-19.7,35-23.1,33.4L84.1,20.5z"/>
			<path class="st12" d="M79,26.6c0,0-0.1,0.2-0.4,0.6c-0.3,0.4-0.7,1-1.2,1.8c-0.5,0.8-1.1,1.7-1.8,2.8c-0.7,1.1-1.4,2.4-2.2,3.7
				c-0.4,0.7-0.8,1.4-1.3,2.1c-0.4,0.7-0.9,1.5-1.3,2.3c-0.5,0.8-0.9,1.6-1.4,2.5c-0.5,0.8-0.9,1.7-1.4,2.6
				c-0.9,1.8-1.9,3.6-2.8,5.4c-0.9,1.9-1.9,3.8-2.8,5.7c-0.5,1-0.9,1.9-1.4,2.9c-0.4,1-0.8,1.9-1.3,2.9c-0.4,1-0.8,1.9-1.2,2.8
				c-0.4,1-0.8,1.9-1.1,2.8c-0.4,0.9-0.7,1.8-1.1,2.7c-0.3,0.9-0.6,1.8-1,2.6c-0.3,0.9-0.6,1.7-0.9,2.5c-0.3,0.8-0.5,1.6-0.8,2.4
				c-0.5,1.5-0.9,2.9-1.4,4.1c-0.3,1.2-0.7,2.3-0.9,3.2c-0.2,0.9-0.5,1.6-0.6,2.1c-0.1,0.5-0.2,0.7-0.2,0.7s0.1-0.3,0.1-0.8
				c0.1-0.5,0.2-1.2,0.4-2.1c0.2-0.9,0.4-2,0.7-3.3c0.3-1.3,0.7-2.7,1.1-4.2c0.2-0.8,0.4-1.6,0.7-2.4c0.3-0.8,0.5-1.7,0.8-2.5
				c0.3-0.9,0.6-1.8,0.9-2.7c0.3-0.9,0.7-1.8,1-2.8c0.4-0.9,0.7-1.9,1.1-2.9c0.4-1,0.8-1.9,1.2-2.9c0.4-1,0.8-1.9,1.3-2.9
				c0.4-1,0.9-1.9,1.3-2.9c0.9-1.9,1.9-3.8,2.8-5.7c0.5-0.9,1-1.9,1.5-2.8c0.5-0.9,1-1.8,1.5-2.7c1-1.7,2-3.4,3-5
				c0.5-0.8,1-1.5,1.4-2.3c0.5-0.7,0.9-1.4,1.4-2.1c0.9-1.3,1.7-2.5,2.5-3.6c0.8-1.1,1.4-2,2-2.7c0.6-0.8,1-1.3,1.3-1.7
				C78.8,26.8,79,26.6,79,26.6z"/>
			<linearGradient id="SVGID_5_" gradientUnits="userSpaceOnUse" x1="45.618" y1="102.0228" x2="57.3768" y2="106.3026">
				<stop  offset="0" style="stop-color:#BD95BD"/>
				<stop  offset="1" style="stop-color:#FFFFFF"/>
			</linearGradient>
			<path class="st13" d="M54.2,102.7c1.7-3.7,0.6-8.2-2.8-10.3c-1.4,0-2.9,0.6-4,2.5c-2.8,4.9-0.1,16-9.9,15.9
				C44.9,111.1,51.1,109.3,54.2,102.7z"/>
		</g>
		<path class="st3" d="M59.7,26c1.7-2.2,5.1-3,7.5-2.1c-2.6-1.6-6.4-0.9-8.4,1.5c-2.1,2.7-1,5.9-1,5.9S57.5,28.6,59.7,26z"/>
	</g>
</g>
</svg>
