<svg xmlns="http://www.w3.org/2000/svg" xmlns:xlink="http://www.w3.org/1999/xlink" viewBox="0 0 328.72 187.26"><defs><style>.cls-1{fill:url(#linear-gradient);}.cls-2{isolation:isolate;}.cls-3{clip-path:url(#clip-path);}.cls-4{opacity:0.27;}.cls-100,.cls-101,.cls-102,.cls-103,.cls-104,.cls-105,.cls-106,.cls-107,.cls-108,.cls-109,.cls-11,.cls-110,.cls-111,.cls-118,.cls-119,.cls-12,.cls-120,.cls-125,.cls-126,.cls-128,.cls-137,.cls-138,.cls-139,.cls-140,.cls-144,.cls-16,.cls-20,.cls-22,.cls-24,.cls-34,.cls-35,.cls-37,.cls-38,.cls-4,.cls-40,.cls-42,.cls-43,.cls-47,.cls-48,.cls-52,.cls-54,.cls-57,.cls-60,.cls-64,.cls-65,.cls-66,.cls-67,.cls-68,.cls-69,.cls-76,.cls-77,.cls-78,.cls-8,.cls-80,.cls-83,.cls-84,.cls-85,.cls-86,.cls-89,.cls-9,.cls-94,.cls-95,.cls-96,.cls-97,.cls-98,.cls-99{mix-blend-mode:multiply;}.cls-5{fill:url(#linear-gradient-4);}.cls-6{fill:#fff;}.cls-7{fill:url(#linear-gradient-5);}.cls-8,.cls-9{opacity:0.7;}.cls-8{fill:url(#linear-gradient-6);}.cls-9{fill:url(#linear-gradient-7);}.cls-10{fill:url(#linear-gradient-8);}.cls-11,.cls-13,.cls-17{fill:#b77318;}.cls-108,.cls-11,.cls-110,.cls-119,.cls-121,.cls-125,.cls-126,.cls-13,.cls-137,.cls-149,.cls-24,.cls-42{opacity:0.2;}.cls-12,.cls-16,.cls-19,.cls-48{fill:#aa6513;}.cls-12{opacity:0.6;}.cls-121,.cls-13,.cls-149,.cls-150,.cls-74{mix-blend-mode:screen;}.cls-14{fill:#8c530e;}.cls-15{fill:url(#linear-gradient-9);}.cls-100,.cls-101,.cls-144,.cls-16,.cls-40,.cls-43,.cls-52,.cls-54,.cls-57,.cls-60,.cls-65,.cls-66,.cls-67,.cls-68,.cls-69,.cls-76,.cls-77,.cls-78,.cls-80,.cls-94,.cls-95,.cls-96,.cls-98,.cls-99{opacity:0.4;}.cls-18{fill:url(#linear-gradient-10);}.cls-102,.cls-105,.cls-106,.cls-107,.cls-109,.cls-111,.cls-20,.cls-22,.cls-35,.cls-83,.cls-84,.cls-85,.cls-86{opacity:0.5;}.cls-21,.cls-22,.cls-42{fill:#202325;}.cls-23{fill:url(#linear-gradient-11);}.cls-24,.cls-34,.cls-35,.cls-36,.cls-37{fill:#db7553;}.cls-25{fill:url(#linear-gradient-12);}.cls-26{fill:url(#linear-gradient-13);}.cls-27{fill:url(#linear-gradient-14);}.cls-28{fill:url(#linear-gradient-15);}.cls-29{fill:url(#linear-gradient-16);}.cls-30,.cls-38{fill:#cfdabf;}.cls-31{fill:url(#linear-gradient-17);}.cls-32{fill:url(#linear-gradient-18);}.cls-33{fill:url(#linear-gradient-19);}.cls-139,.cls-34{opacity:0.25;}.cls-138,.cls-37{opacity:0.1;}.cls-103,.cls-104,.cls-118,.cls-120,.cls-128,.cls-150,.cls-38,.cls-47,.cls-48,.cls-64,.cls-89{opacity:0.3;}.cls-39,.cls-40{fill:#dbe2cf;}.cls-41{fill:url(#linear-gradient-20);}.cls-44{fill:#28211d;}.cls-45{fill:#ea2828;}.cls-46,.cls-47{fill:#666;}.cls-49{fill:#be9d6c;}.cls-50{fill:#d3b184;}.cls-51{fill:url(#linear-gradient-21);}.cls-52{fill:#99cad6;}.cls-53{fill:url(#linear-gradient-22);}.cls-54{fill:#a1d3d6;}.cls-55{fill:url(#linear-gradient-23);}.cls-56,.cls-57{fill:#915300;}.cls-58{fill:url(#linear-gradient-24);}.cls-59{fill:url(#linear-gradient-25);}.cls-60{fill:url(#linear-gradient-26);}.cls-61{fill:url(#linear-gradient-27);}.cls-62{fill:url(#linear-gradient-28);}.cls-63{fill:url(#linear-gradient-29);}.cls-64{fill:#a3d5d8;}.cls-65{fill:url(#linear-gradient-30);}.cls-66{fill:url(#linear-gradient-31);}.cls-67{fill:url(#linear-gradient-32);}.cls-68{fill:url(#linear-gradient-33);}.cls-69{fill:url(#linear-gradient-34);}.cls-70{fill:url(#linear-gradient-35);}.cls-71{fill:url(#linear-gradient-36);}.cls-72{fill:#352020;}.cls-73{fill:url(#linear-gradient-37);}.cls-75{fill:#271a12;}.cls-76{fill:url(#linear-gradient-38);}.cls-77{fill:url(#linear-gradient-39);}.cls-78{fill:url(#linear-gradient-40);}.cls-79{fill:url(#linear-gradient-41);}.cls-80{fill:url(#linear-gradient-42);}.cls-81{fill:#282f39;}.cls-82{fill:url(#linear-gradient-43);}.cls-83{fill:url(#linear-gradient-44);}.cls-84{fill:url(#linear-gradient-45);}.cls-85{fill:url(#linear-gradient-46);}.cls-86{fill:url(#linear-gradient-47);}.cls-87{fill:url(#linear-gradient-48);}.cls-88{fill:url(#linear-gradient-49);}.cls-89{fill:url(#linear-gradient-50);}.cls-90{fill:url(#linear-gradient-51);}.cls-91{fill:#a33;}.cls-92{fill:url(#linear-gradient-52);}.cls-93{fill:url(#linear-gradient-53);}.cls-94{fill:url(#linear-gradient-54);}.cls-95{fill:url(#linear-gradient-55);}.cls-96{fill:url(#linear-gradient-56);}.cls-97{opacity:0.34;fill:url(#linear-gradient-57);}.cls-98{fill:url(#linear-gradient-58);}.cls-99{fill:url(#linear-gradient-59);}.cls-100{fill:url(#linear-gradient-60);}.cls-101{fill:url(#linear-gradient-61);}.cls-102{fill:url(#linear-gradient-62);}.cls-103{fill:url(#linear-gradient-63);}.cls-104{fill:url(#linear-gradient-64);}.cls-105{fill:url(#linear-gradient-65);}.cls-106{fill:url(#linear-gradient-66);}.cls-107{fill:url(#linear-gradient-67);}.cls-108{fill:url(#linear-gradient-68);}.cls-109{fill:url(#linear-gradient-69);}.cls-110{fill:url(#linear-gradient-70);}.cls-111{fill:url(#linear-gradient-71);}.cls-112{fill:url(#linear-gradient-72);}.cls-113{fill:url(#linear-gradient-73);}.cls-114{fill:#b79283;}.cls-115{fill:url(#linear-gradient-74);}.cls-116{fill:#b56300;}.cls-117{fill:#493015;}.cls-119{fill:url(#linear-gradient-75);}.cls-120{fill:url(#linear-gradient-76);}.cls-121{fill:url(#linear-gradient-77);}.cls-122{fill:#d85039;}.cls-123{fill:url(#linear-gradient-78);}.cls-124{fill:url(#linear-gradient-79);}.cls-125{fill:url(#linear-gradient-80);}.cls-126{fill:url(#linear-gradient-81);}.cls-127{fill:url(#linear-gradient-82);}.cls-128{fill:url(#linear-gradient-83);}.cls-129,.cls-137,.cls-138,.cls-139,.cls-140{fill:#8d4433;}.cls-130{fill:#112628;}.cls-131{fill:url(#linear-gradient-84);}.cls-132{fill:url(#linear-gradient-85);}.cls-133{fill:#b54300;}.cls-134{fill:url(#linear-gradient-86);}.cls-135{fill:url(#linear-gradient-87);}.cls-136{fill:#a53802;}.cls-140{opacity:0.24;}.cls-141{fill:url(#linear-gradient-88);}.cls-142{fill:url(#linear-gradient-89);}.cls-143{fill:url(#linear-gradient-90);}.cls-144{fill:url(#linear-gradient-91);}.cls-145{fill:#cc4f11;}.cls-146{fill:#c14d44;}.cls-147{fill:url(#linear-gradient-92);}.cls-148{fill:url(#linear-gradient-93);}.cls-150{fill:url(#linear-gradient-94);}</style><linearGradient id="linear-gradient" x1="35.72" y1="104.01" x2="328.72" y2="104.01" gradientUnits="userSpaceOnUse"><stop offset="0" stop-color="#036175"/><stop offset="0.99" stop-color="#0c5c75"/></linearGradient><clipPath id="clip-path"><rect class="cls-1" x="35.72" y="42.51" width="293" height="123" rx="11.19"/></clipPath><linearGradient id="linear-gradient-4" x1="0" y1="93.63" x2="202.41" y2="93.63" xlink:href="#linear-gradient"/><linearGradient id="linear-gradient-5" x1="62.61" y1="149.19" x2="136.5" y2="149.19" gradientUnits="userSpaceOnUse"><stop offset="0.01" stop-color="#ca8e46"/><stop offset="0.99" stop-color="#b3784b"/></linearGradient><linearGradient id="linear-gradient-6" x1="62.61" y1="148.6" x2="119.87" y2="148.6" xlink:href="#linear-gradient-5"/><linearGradient id="linear-gradient-7" x1="130.74" y1="146.48" x2="131.05" y2="146.48" xlink:href="#linear-gradient-5"/><linearGradient id="linear-gradient-8" x1="97.29" y1="69.59" x2="97.39" y2="80.5" gradientUnits="userSpaceOnUse"><stop offset="0" stop-color="#b77318"/><stop offset="0.99" stop-color="#a06817"/></linearGradient><linearGradient id="linear-gradient-9" x1="98.1" y1="56.37" x2="97.96" y2="147.23" gradientUnits="userSpaceOnUse"><stop offset="0" stop-color="#b77318"/><stop offset="1" stop-color="#995f07"/></linearGradient><linearGradient id="linear-gradient-10" x1="90.43" y1="77.05" x2="101.24" y2="77.05" gradientUnits="userSpaceOnUse"><stop offset="0" stop-color="#73320e"/><stop offset="1" stop-color="#4e312b"/></linearGradient><linearGradient id="linear-gradient-11" x1="99.09" y1="112.91" x2="106.43" y2="130.58" gradientUnits="userSpaceOnUse"><stop offset="0" stop-color="#efc5a1"/><stop offset="1" stop-color="#eea789"/></linearGradient><linearGradient id="linear-gradient-12" x1="92.8" y1="119.84" x2="100.34" y2="119.84" xlink:href="#linear-gradient-11"/><linearGradient id="linear-gradient-13" x1="70.68" y1="73.38" x2="126.65" y2="73.38" xlink:href="#linear-gradient-11"/><linearGradient id="linear-gradient-14" x1="70.7" y1="74.74" x2="125.84" y2="74.74" xlink:href="#linear-gradient-11"/><linearGradient id="linear-gradient-15" x1="70.68" y1="74.17" x2="126.58" y2="74.17" xlink:href="#linear-gradient-11"/><linearGradient id="linear-gradient-16" x1="70.68" y1="86.1" x2="126.68" y2="86.1" xlink:href="#linear-gradient-11"/><linearGradient id="linear-gradient-17" x1="93.86" y1="82.23" x2="95.38" y2="72.01" xlink:href="#linear-gradient-11"/><linearGradient id="linear-gradient-18" x1="98.35" y1="79.27" x2="98.59" y2="76.78" xlink:href="#linear-gradient-11"/><linearGradient id="linear-gradient-19" x1="91.33" y1="81.14" x2="97.74" y2="81.14" xlink:href="#linear-gradient-11"/><linearGradient id="linear-gradient-20" x1="94.12" y1="84.65" x2="96.08" y2="78.64" gradientUnits="userSpaceOnUse"><stop offset="0" stop-color="#4c2403"/><stop offset="1" stop-color="#452c19"/></linearGradient><linearGradient id="linear-gradient-21" x1="107.27" y1="122.24" x2="113.41" y2="134.24" gradientUnits="userSpaceOnUse"><stop offset="0" stop-color="#a1d7e5"/><stop offset="1" stop-color="#98c9d3"/></linearGradient><linearGradient id="linear-gradient-22" x1="102.36" y1="127.76" x2="105.97" y2="132.16" xlink:href="#linear-gradient-21"/><linearGradient id="linear-gradient-23" x1="125.93" y1="146.4" x2="130.82" y2="146.4" xlink:href="#linear-gradient-11"/><linearGradient id="linear-gradient-24" x1="100.92" y1="123.59" x2="125.8" y2="156.32" gradientUnits="userSpaceOnUse"><stop offset="0.01" stop-color="#3f1515"/><stop offset="0.99" stop-color="#44202c"/></linearGradient><linearGradient id="linear-gradient-25" x1="108.15" y1="121.11" x2="110.33" y2="121.11" xlink:href="#linear-gradient-11"/><linearGradient id="linear-gradient-26" x1="105.39" y1="124.38" x2="115.17" y2="137.24" xlink:href="#linear-gradient-24"/><linearGradient id="linear-gradient-27" x1="103.58" y1="126.81" x2="102.98" y2="124.96" xlink:href="#linear-gradient-11"/><linearGradient id="linear-gradient-28" x1="114.1" y1="129.83" x2="104.92" y2="123.63" gradientUnits="userSpaceOnUse"><stop offset="0" stop-color="#b2e3ea"/><stop offset="0.99" stop-color="#bde3ea"/></linearGradient><linearGradient id="linear-gradient-29" x1="102.41" y1="123.2" x2="104.63" y2="126.9" xlink:href="#linear-gradient-11"/><linearGradient id="linear-gradient-30" x1="106.94" y1="136.95" x2="115.07" y2="147.65" xlink:href="#linear-gradient-24"/><linearGradient id="linear-gradient-31" x1="108.96" y1="142.09" x2="114.85" y2="149.83" xlink:href="#linear-gradient-24"/><linearGradient id="linear-gradient-32" x1="108.26" y1="135.64" x2="115.44" y2="145.08" xlink:href="#linear-gradient-24"/><linearGradient id="linear-gradient-33" x1="113.71" y1="142.62" x2="122.63" y2="154.36" xlink:href="#linear-gradient-24"/><linearGradient id="linear-gradient-34" x1="112.69" y1="135.37" x2="121.43" y2="146.88" xlink:href="#linear-gradient-24"/><linearGradient id="linear-gradient-35" x1="104.2" y1="116.83" x2="110.42" y2="116.83" xlink:href="#linear-gradient-11"/><linearGradient id="linear-gradient-36" x1="104.27" y1="114.01" x2="110.89" y2="120.86" gradientUnits="userSpaceOnUse"><stop offset="0" stop-color="#3e2928"/><stop offset="0.99" stop-color="#391e1c"/></linearGradient><linearGradient id="linear-gradient-37" x1="110.11" y1="118.76" x2="112.07" y2="118.76" xlink:href="#linear-gradient-11"/><linearGradient id="linear-gradient-38" x1="105.7" y1="113.48" x2="108.04" y2="115.9" xlink:href="#linear-gradient-36"/><linearGradient id="linear-gradient-39" x1="108.53" y1="114.18" x2="109.29" y2="114.97" xlink:href="#linear-gradient-36"/><linearGradient id="linear-gradient-40" x1="106.59" y1="116.33" x2="110.64" y2="120.52" xlink:href="#linear-gradient-36"/><linearGradient id="linear-gradient-41" x1="106.54" y1="118.49" x2="106.47" y2="119.74" gradientUnits="userSpaceOnUse"><stop offset="0" stop-color="#27191a"/><stop offset="0.99" stop-color="#391e1c"/></linearGradient><linearGradient id="linear-gradient-42" x1="105.29" y1="118.01" x2="107.85" y2="120.65" xlink:href="#linear-gradient-36"/><linearGradient id="linear-gradient-43" x1="116.26" y1="141.66" x2="132.15" y2="153.3" gradientUnits="userSpaceOnUse"><stop offset="0" stop-color="#a33"/><stop offset="0.99" stop-color="#8f261f"/></linearGradient><linearGradient id="linear-gradient-44" x1="91.31" y1="174.99" x2="93.42" y2="169.48" gradientTransform="translate(22.21 -20.98) rotate(-2.46)" gradientUnits="userSpaceOnUse"><stop offset="0.01" stop-color="#b56300"/><stop offset="1" stop-color="#ae5100"/></linearGradient><linearGradient id="linear-gradient-45" x1="94.62" y1="178.27" x2="97.36" y2="171.14" xlink:href="#linear-gradient-44"/><linearGradient id="linear-gradient-46" x1="90.42" y1="169.01" x2="92.63" y2="163.28" xlink:href="#linear-gradient-44"/><linearGradient id="linear-gradient-47" x1="93.23" y1="166.66" x2="93.87" y2="165" xlink:href="#linear-gradient-44"/><linearGradient id="linear-gradient-48" x1="126.84" y1="134.54" x2="131.23" y2="122.25" xlink:href="#linear-gradient-43"/><linearGradient id="linear-gradient-49" x1="84.45" y1="166.1" x2="82.97" y2="169.1" gradientTransform="translate(22.21 -20.98) rotate(-2.46)" xlink:href="#linear-gradient-11"/><linearGradient id="linear-gradient-50" x1="97.66" y1="154.13" x2="97.98" y2="153.31" xlink:href="#linear-gradient-44"/><linearGradient id="linear-gradient-51" x1="96.48" y1="151.53" x2="94.69" y2="155.17" gradientTransform="translate(22.21 -20.98) rotate(-2.46)" xlink:href="#linear-gradient-11"/><linearGradient id="linear-gradient-52" x1="90.55" y1="154.12" x2="94.41" y2="169.62" gradientTransform="translate(22.21 -20.98) rotate(-2.46)" xlink:href="#linear-gradient"/><linearGradient id="linear-gradient-53" x1="95.82" y1="168.07" x2="93.88" y2="172.01" gradientTransform="translate(22.21 -20.98) rotate(-2.46)" xlink:href="#linear-gradient-11"/><linearGradient id="linear-gradient-54" x1="96.59" y1="167.35" x2="97.31" y2="170.27" gradientTransform="translate(22.21 -20.98) rotate(-2.46)" xlink:href="#linear-gradient"/><linearGradient id="linear-gradient-55" x1="98.38" y1="164.99" x2="99.33" y2="168.78" gradientTransform="translate(22.21 -20.98) rotate(-2.46)" xlink:href="#linear-gradient"/><linearGradient id="linear-gradient-56" x1="97.37" y1="167.23" x2="98" y2="169.76" gradientTransform="translate(22.21 -20.98) rotate(-2.46)" xlink:href="#linear-gradient"/><linearGradient id="linear-gradient-57" x1="87.73" y1="157.89" x2="89.57" y2="165.27" gradientTransform="translate(22.21 -20.98) rotate(-2.46)" xlink:href="#linear-gradient"/><linearGradient id="linear-gradient-58" x1="96.58" y1="157.37" x2="98.07" y2="163.32" gradientTransform="translate(22.21 -20.98) rotate(-2.46)" xlink:href="#linear-gradient"/><linearGradient id="linear-gradient-59" x1="99.01" y1="161.02" x2="100.64" y2="167.55" gradientTransform="translate(22.21 -20.98) rotate(-2.46)" xlink:href="#linear-gradient"/><linearGradient id="linear-gradient-60" x1="93.82" y1="152.7" x2="94.15" y2="154.04" gradientTransform="translate(22.21 -20.98) rotate(-2.46)" xlink:href="#linear-gradient"/><linearGradient id="linear-gradient-61" x1="96.84" y1="153.55" x2="97.11" y2="154.67" gradientTransform="translate(22.21 -20.98) rotate(-2.46)" xlink:href="#linear-gradient"/><linearGradient id="linear-gradient-62" x1="90.23" y1="159.14" x2="91.93" y2="154.72" xlink:href="#linear-gradient-44"/><linearGradient id="linear-gradient-63" x1="98.37" y1="158.69" x2="99.39" y2="156.03" xlink:href="#linear-gradient-44"/><linearGradient id="linear-gradient-64" x1="98.92" y1="159.55" x2="100.46" y2="155.54" xlink:href="#linear-gradient-44"/><linearGradient id="linear-gradient-65" x1="90.52" y1="157.02" x2="91.5" y2="154.49" xlink:href="#linear-gradient-44"/><linearGradient id="linear-gradient-66" x1="90.36" y1="157.87" x2="91.09" y2="155.99" xlink:href="#linear-gradient-44"/><linearGradient id="linear-gradient-67" x1="86.69" y1="173.68" x2="88.38" y2="169.29" xlink:href="#linear-gradient-44"/><linearGradient id="linear-gradient-68" x1="100.13" y1="173.91" x2="100.93" y2="171.85" xlink:href="#linear-gradient-44"/><linearGradient id="linear-gradient-69" x1="100.22" y1="175.03" x2="100.27" y2="174.9" xlink:href="#linear-gradient-44"/><linearGradient id="linear-gradient-70" x1="101.71" y1="175.2" x2="102.41" y2="173.36" xlink:href="#linear-gradient-44"/><linearGradient id="linear-gradient-71" x1="103.67" y1="176.73" x2="104.19" y2="175.38" xlink:href="#linear-gradient-44"/><linearGradient id="linear-gradient-72" x1="93.1" y1="149.33" x2="97.03" y2="146.8" gradientTransform="translate(22.21 -20.98) rotate(-2.46)" xlink:href="#linear-gradient-11"/><linearGradient id="linear-gradient-73" x1="93.65" y1="147.93" x2="96.52" y2="152.52" gradientTransform="translate(22.21 -20.98) rotate(-2.46)" gradientUnits="userSpaceOnUse"><stop offset="0" stop-color="#322321"/><stop offset="1" stop-color="#271a12"/></linearGradient><linearGradient id="linear-gradient-74" x1="95.28" y1="144.58" x2="92.61" y2="149.98" gradientTransform="translate(22.21 -20.98) rotate(-2.46)" xlink:href="#linear-gradient-11"/><linearGradient id="linear-gradient-75" x1="95.04" y1="150.15" x2="96.52" y2="152.53" xlink:href="#linear-gradient-73"/><linearGradient id="linear-gradient-76" x1="94.69" y1="149.01" x2="101.13" y2="149.01" gradientTransform="translate(22.21 -20.98) rotate(-2.46)" gradientUnits="userSpaceOnUse"><stop offset="0" stop-color="#b57500"/><stop offset="0.99" stop-color="#b56300"/></linearGradient><linearGradient id="linear-gradient-77" x1="96.33" y1="144.08" x2="99.85" y2="144.08" xlink:href="#linear-gradient-76"/><linearGradient id="linear-gradient-78" x1="80.27" y1="123.49" x2="74.39" y2="135.39" gradientUnits="userSpaceOnUse"><stop offset="0.01" stop-color="#0c2628"/><stop offset="1" stop-color="#112628"/></linearGradient><linearGradient id="linear-gradient-79" x1="82.65" y1="124.67" x2="76.78" y2="136.57" xlink:href="#linear-gradient-78"/><linearGradient id="linear-gradient-80" x1="76.38" y1="137.36" x2="74.98" y2="140.2" xlink:href="#linear-gradient-78"/><linearGradient id="linear-gradient-81" x1="79.18" y1="125.33" x2="74.4" y2="135.02" xlink:href="#linear-gradient-78"/><linearGradient id="linear-gradient-82" x1="65.56" y1="134.22" x2="84.04" y2="134.22" gradientUnits="userSpaceOnUse"><stop offset="0.01" stop-color="#1f373a"/><stop offset="1" stop-color="#1d453a"/></linearGradient><linearGradient id="linear-gradient-83" x1="65.56" y1="135.07" x2="83.65" y2="135.07" xlink:href="#linear-gradient-82"/><linearGradient id="linear-gradient-84" x1="63.62" y1="148.99" x2="67.35" y2="148.99" xlink:href="#linear-gradient-11"/><linearGradient id="linear-gradient-85" x1="80.25" y1="129.58" x2="78.78" y2="122.32" xlink:href="#linear-gradient-11"/><linearGradient id="linear-gradient-86" x1="83.38" y1="122.52" x2="76.94" y2="127.21" gradientUnits="userSpaceOnUse"><stop offset="0.01" stop-color="#b54300"/><stop offset="1" stop-color="#bc4c33"/></linearGradient><linearGradient id="linear-gradient-87" x1="82.26" y1="131.69" x2="74.76" y2="146.73" gradientUnits="userSpaceOnUse"><stop offset="0" stop-color="#a35747"/><stop offset="0.51" stop-color="#8d4433"/><stop offset="1" stop-color="#7d3526"/></linearGradient><linearGradient id="linear-gradient-88" x1="76.55" y1="130.51" x2="76.47" y2="128.1" xlink:href="#linear-gradient-11"/><linearGradient id="linear-gradient-89" x1="79.14" y1="145.55" x2="79.05" y2="143.35" xlink:href="#linear-gradient-11"/><linearGradient id="linear-gradient-90" x1="77.29" y1="144.9" x2="77.21" y2="142.72" xlink:href="#linear-gradient-11"/><linearGradient id="linear-gradient-91" x1="83.12" y1="122.71" x2="75.91" y2="127.96" xlink:href="#linear-gradient-86"/><linearGradient id="linear-gradient-92" x1="76.11" y1="125.66" x2="78.5" y2="125.66" gradientUnits="userSpaceOnUse"><stop offset="0.01" stop-color="#85c5d6"/><stop offset="1" stop-color="#93def0"/></linearGradient><linearGradient id="linear-gradient-93" x1="81.65" y1="126.27" x2="82" y2="126.27" xlink:href="#linear-gradient-92"/><linearGradient id="linear-gradient-94" x1="80.63" y1="121.03" x2="83.83" y2="121.03" xlink:href="#linear-gradient-82"/></defs><title>Asset 23</title><g class="cls-2"><g id="Layer_2" data-name="Layer 2"><g id="Layer_1-2" data-name="Layer 1"><rect class="cls-1" x="35.72" y="42.51" width="293" height="123" rx="11.19"/><g class="cls-3"><rect class="cls-1" x="35.72" y="42.51" width="293" height="123" rx="11.19"/><g class="cls-4"><path class="cls-5" d="M68.53,2.8C50.1,7,28.18,20.26,17.1,35.57,7.37,49,1.13,63.44.28,80c-1.37,26.56,1.82,55.58,20.06,74.93a103.78,103.78,0,0,0,47.45,28.36c13.12,3.44,53.24,6.87,72.13,0,14.06-5.11,27.76-11.67,38.06-22.52,6.06-6.38,11.74-13.23,15.92-21C201,126.53,203.45,111,202,96S197.42,65.29,190.26,52a93.43,93.43,0,0,0-28-32.14C149.26,10.51,110.93-6.77,68.53,2.8Z"/></g></g><path class="cls-6" d="M259.5,127.66a5.7,5.7,0,0,1,8.23.52,4.31,4.31,0,0,1,.83,2.28H266a3.51,3.51,0,0,0-.63-1.33,2.77,2.77,0,0,0-4.18.33,5.53,5.53,0,0,0-.79,3.18,4.89,4.89,0,0,0,.83,3.09,2.62,2.62,0,0,0,2.12,1,2.39,2.39,0,0,0,2-.88,3.94,3.94,0,0,0,.63-1.42h2.54a5.53,5.53,0,0,1-1.68,3.26A4.9,4.9,0,0,1,263.4,139a5.24,5.24,0,0,1-4.11-1.69,6.87,6.87,0,0,1-1.49-4.67A6.74,6.74,0,0,1,259.5,127.66Z"/><path class="cls-6" d="M270.25,136.14h2.52v2.48h-2.52Z"/><path class="cls-6" d="M282.93,126.7a3.11,3.11,0,0,1,1.15.85,3.84,3.84,0,0,1,.61,1,3.49,3.49,0,0,1,.23,1.29,3.69,3.69,0,0,1-.44,1.71,2.47,2.47,0,0,1-1.45,1.2,2.27,2.27,0,0,1,1.2,1,4.13,4.13,0,0,1,.35,1.92v.82a5.73,5.73,0,0,0,.07,1.14,1,1,0,0,0,.47.69v.31H282.3a6.5,6.5,0,0,1-.17-.66,6,6,0,0,1-.11-1.05v-1.14a2.35,2.35,0,0,0-.41-1.56,2.06,2.06,0,0,0-1.46-.39h-2.49v4.8h-2.5V126.38H281A5.45,5.45,0,0,1,282.93,126.7Zm-5.28,1.81v3.29h2.75a3,3,0,0,0,1.23-.2,1.39,1.39,0,0,0,.72-1.38,1.56,1.56,0,0,0-.7-1.5,2.56,2.56,0,0,0-1.18-.21Z"/><path class="cls-6" d="M287,136.14h2.51v2.48H287Z"/><path class="cls-6" d="M291.89,126.38h2.52v5l4.73-5h3.3l-5,5,5.28,7.2h-3.29l-3.77-5.34-1.23,1.25v4.09h-2.52Z"/><path class="cls-7" d="M136.5,150.61S123,151.39,106,152s-36.22-.39-36.22-.39L67.58,151l-5-1.44,3.4-.78c3.27-.4,12.56-1.7,20.66-2.23s20.53-.72,28.58.23c1.41.17,3,.4,4.62.65C127.53,148.65,136.5,150.61,136.5,150.61Z"/><path class="cls-8" d="M115.25,146.78c1.41.17,3,.4,4.62.65-3,.31-5.46.56-5.6.56-.4,0-7.72.26-12.82.79s-12.56,1.56-16.87,2-13.5.39-17,.26l-5-1.44,3.4-.78c3.27-.4,12.56-1.7,20.66-2.23S107.2,145.83,115.25,146.78Z"/><path class="cls-9" d="M131.05,146.5s-.13,0-.31,0C131,146.46,131.08,146.47,131.05,146.5Z"/><polygon class="cls-10" points="131.16 70.5 131.1 72.82 131.03 75.17 130.95 77.84 130.85 77.84 102.25 77.67 92.17 77.61 68.78 77.48 63.54 77.45 63.54 77.42 63.52 76.34 63.47 73.53 63.43 70.89 65.64 70.88 92.22 70.72 102.32 70.67 131.16 70.5"/><polygon class="cls-11" points="131.16 70.5 131.1 72.82 63.47 73.53 63.43 70.89 131.16 70.5"/><path class="cls-12" d="M102.32,70.67l-.07,7-10.08-.06c0-2.44,0-5.28,0-6.88Z"/><path class="cls-13" d="M131,75.17,131,77.84l-67.41-.39,0-1.11c6.9-.12,49.92-.39,49.92-.39S128.91,75,131,75.17Z"/><rect class="cls-14" x="63.54" y="77.42" width="67.31" height="1.57"/><polygon class="cls-15" points="103.06 147.88 95.31 147.23 95.16 141.62 95.12 139.79 95.03 136.46 94.81 127.59 93.39 72.03 93.32 69.52 93.29 68.3 93.05 58.8 93 56.76 100.55 56.87 100.65 60.52 100.87 68.65 100.92 70.14 101.14 78.25 102.18 115.94 102.34 121.59 102.66 133.11 102.81 138.71 102.95 143.88 102.97 144.41 103.06 147.88"/><path class="cls-16" d="M81.62,79H74.46a9.16,9.16,0,0,1-.78-1.48l0-.09a4.45,4.45,0,0,1-.26-.91c-.21-1.4-.42-.14-.42-.14a5.75,5.75,0,0,1-2-1.19c-.46-.58.17-.38.26-.35-.09,0-.89-.45-.82-.91s.36-.22.58-.11c-.29-.18-.79-.54-.58-.79s1.4.57,1.46.62-.69-1.11-.14-1a17.06,17.06,0,0,1,3.57,1.82A27.41,27.41,0,0,1,79,77.42l.07.07.09.05Z"/><path class="cls-16" d="M126.93,73.64a4.53,4.53,0,0,1-1.11.63s.9-.14.56.14a3.35,3.35,0,0,1-.67.42s.67.14.18.35a28.27,28.27,0,0,1-2.87.63,13.64,13.64,0,0,1-1,1.61c-.09.12-.19.25-.29.36a3,3,0,0,1-.23.27,5.44,5.44,0,0,1-1.07.94h-8.06l.84-1.26.11-.17a1.5,1.5,0,0,1,.23-.14A18.91,18.91,0,0,1,117,76.16a13.94,13.94,0,0,0,4-1.61,14.12,14.12,0,0,1,3-1.12,20.68,20.68,0,0,1,2.78-.55c.27.14-.91.76-.91.76S127.07,73.43,126.93,73.64Z"/><path class="cls-17" d="M109.46,141.48l-6.5-2.83-13.21-5.77a.62.62,0,0,0,0-.09c0-.34-.11-1.58-.2-2.94-.14-2-.27-4.24-.21-4.41l17.33,7.24,2.48,1,.12,2.87Z"/><path class="cls-12" d="M103,141.59c-2.15-1.24-6.11-3.5-7.85-4.47L95,133.89l7.78,2.18Z"/><polygon class="cls-14" points="109.46 141.48 109.32 142.53 101.51 139.19 89.96 134.25 89.71 132.78 89.74 132.79 103 138.63 109.46 141.48"/><path class="cls-18" d="M101,80.42a.75.75,0,0,0-1-.24,3.34,3.34,0,0,0,.8-1.71.9.9,0,0,0-.45-.94l-.11,0a2.84,2.84,0,0,0-.18-2,1.74,1.74,0,0,0-.49-.61h0a2,2,0,0,0-.49-.3,3.27,3.27,0,0,0-.87-.28A3.35,3.35,0,0,0,95.93,72a4.56,4.56,0,0,0-3.35.59,3.17,3.17,0,0,0-1.85,1.64,1.34,1.34,0,0,0-.07.18,1.72,1.72,0,0,0-.07.21,3,3,0,0,0-.07,1.75A3.39,3.39,0,0,0,91,79s0,.15,0,.39h0a4.68,4.68,0,0,0,.44,2.26l.18,0,.11,0,.54-.09a5.42,5.42,0,0,0,3.64-.21,6.48,6.48,0,0,0,2.2-1.61,3.67,3.67,0,0,0,.73,1.19l.07.08c.12.12.25.25.39.37a4.25,4.25,0,0,0,1.44.8l.11,0a3.08,3.08,0,0,0,.34.08A2.83,2.83,0,0,0,101,80.42ZM97.71,79.1a2.21,2.21,0,0,1-.48,1.19,3.54,3.54,0,0,1-.72.52l-.19,0a8.84,8.84,0,0,1-1.64-.63s-.25.35-.39.53S94,80.6,94,80.6l-.63.73a2,2,0,0,1-.95-.29c-1.13-1.12-1.22-4-1-5.16s1-.78,1.3-.57l.06,0a.25.25,0,0,0,0-.06A3.63,3.63,0,0,1,95.24,74c1.36,0,2.09,1.64,2.37,3.32a7.76,7.76,0,0,1,.13,1.47Z"/><path class="cls-19" d="M109.46,141.48l-19.71-8.6s-.11-1.42-.21-3l19.72,6.74Z"/><g class="cls-20"><path class="cls-21" d="M100.84,82.16l-.11,0a1.65,1.65,0,0,0-1.19-1.74l0,0a.09.09,0,0,1,0,0,5.59,5.59,0,0,0,.69-2c0-.08-.07-.08-.09-.08s-.25.15-.29.2a0,0,0,0,1-.06,0s0,0,0,0,0-2.33-.62-2.7a.63.63,0,0,0-.48-.1.69.69,0,0,0-.38.33s0,0,0,0a.09.09,0,0,1,0,0S96.43,72.62,95,72.84A3.1,3.1,0,0,0,92.77,75c0,.12,0,.22.06.28a.13.13,0,0,1,0,0,0,0,0,0,1,0,.06s-.06,0-.06,0a.35.35,0,0,1,0-.06s0-.11,0-.18,0,0,0,0v0c-.1-.37-.33-.92-.77-.92h0c-.19,0-.41.17-.59.46a5,5,0,0,0,0,4.29v0a7.43,7.43,0,0,0,.49,2.71l-.11,0a7.42,7.42,0,0,1-.48-2.73,5,5,0,0,1,.06-4.37.94.94,0,0,1,.67-.51c.47,0,.72.45.86.84a1.86,1.86,0,0,1,.09-.24,4.17,4.17,0,0,1,.06-.59.85.85,0,0,0-.11-.62.43.43,0,0,0-.37-.12,2.67,2.67,0,0,0-1.8,1.31,1.72,1.72,0,0,1,.07-.21,1.34,1.34,0,0,1,.07-.18,2.68,2.68,0,0,1,1.65-1,.53.53,0,0,1,.46.16.67.67,0,0,1,.13.3,2.08,2.08,0,0,1,.68-1.08,2.25,2.25,0,0,1,2.74,0,15,15,0,0,1,1.88,2.2.84.84,0,0,1,.77-.1,2,2,0,0,1,.49.3c-.88-.47-1.23-.09-1.23-.09l0,0s0,0,0,0a15.78,15.78,0,0,0-1.9-2.23,2.13,2.13,0,0,0-2.61,0,2.59,2.59,0,0,0-.78,1.7,2.87,2.87,0,0,1,2-1.6c1.44-.22,3,2.56,3.28,3.09a.78.78,0,0,1,.39-.3.67.67,0,0,1,.56.12c.55.34.65,2.14.67,2.65a.41.41,0,0,1,.29-.15s.12,0,.18.14c.15.29-.51,1.68-.68,2A1.81,1.81,0,0,1,100.84,82.16Z"/><path class="cls-21" d="M99.46,79.29A2.52,2.52,0,0,1,98.9,81l-.07-.08a2.45,2.45,0,0,0,.53-1.59,1.81,1.81,0,0,0-.48-1.48.36.36,0,0,0-.37,0s-.06,0-.07,0a.05.05,0,0,1,0-.07.43.43,0,0,1,.47,0C99.26,77.9,99.46,78.52,99.46,79.29Z"/></g><path class="cls-22" d="M101,80.42a.75.75,0,0,0-1-.24,3.34,3.34,0,0,0,.8-1.71.9.9,0,0,0-.45-.94,1.24,1.24,0,0,0-.6.31,4.45,4.45,0,0,0-.84-1.73c-.52-.47-.94.39-.94.39s-1.34-2.88-2.73-3.07-2.49,1.66-2.49,1.66a1.44,1.44,0,0,0-.84-.53c-.44,0-.78.63-.89,1.73a14.51,14.51,0,0,0,.13,2.7s-.06.16-.12.39h0a4.68,4.68,0,0,0,.44,2.26l.83-.14a5.42,5.42,0,0,0,3.64-.21,6.48,6.48,0,0,0,2.2-1.61,4,4,0,0,0,1.19,1.64,4.15,4.15,0,0,0,1.89.91A2.83,2.83,0,0,0,101,80.42ZM97.71,79.1a2.21,2.21,0,0,1-.48,1.19,3.54,3.54,0,0,1-.72.52l-.19,0a8.84,8.84,0,0,1-1.64-.63s-.25.35-.39.53S94,80.6,94,80.6l-.63.73a2,2,0,0,1-.95-.29c-1.13-1.12-1.22-4-1-5.16s1.18-.7,1.36-.52A3.67,3.67,0,0,1,95.24,74c1.36,0,2.09,1.64,2.37,3.32a7.76,7.76,0,0,1,.13,1.47Z"/><path class="cls-16" d="M102.68,135.71c-.14,1.75-.84,2.38-1.26,2.45s-1.12-.89-1.12-.89-.28.68-.84.61-1.53-1.89-1.11-4.54c0,0-2.26-4.91-3.54-8L93.39,71.54a2.86,2.86,0,0,1,1.32-.41c1.12-.07,3.36,1.05,3.71,2.79a1.59,1.59,0,0,1,2,1,3.94,3.94,0,0,1,.28,2.38,1.48,1.48,0,0,1,.42.21l1,36.48-1,2.38a30.43,30.43,0,0,1,1.2,3.08l.32,11.15-1.1,1.71A5.53,5.53,0,0,1,102.68,135.71Z"/><path class="cls-23" d="M103.48,108.77c-.62,2.9-2.93,7-3.21,7.51a16.75,16.75,0,0,1,1.57,3.88,20.51,20.51,0,0,1-.17,7.1,36.84,36.84,0,0,0-.56,5.06,9.74,9.74,0,0,1,.87,2.35,5.52,5.52,0,0,1-.11,2.79c-.17.42-.55.46-.94.46s-.47-.18-.63-.65c0-.16-.09-.35-.14-.58-.17-.91-.1-2.2-.21-3.49s-.94-5.49-1.29-7.52c-.08-.44-.21-1.17-.36-2a1.16,1.16,0,0,0,0-.18l0-.17c0-.24-.08-.48-.13-.72a1.43,1.43,0,0,0,0-.22l0-.2s0,0,0-.06,0-.22-.05-.33a.29.29,0,0,1,0-.09l-.06-.31a.36.36,0,0,0,0-.11c0-.1,0-.2,0-.29l0-.14c0-.09,0-.18,0-.26a1.55,1.55,0,0,1,0-.21c0-.12,0-.25-.07-.38s0-.14,0-.22-.07-.39-.11-.58,0-.29-.08-.44,0-.26-.07-.39,0-.31-.08-.46v0h0a2,2,0,0,0,0-.26c0-.24-.09-.47-.13-.68s0-.19,0-.28-.08-.43-.11-.6,0-.07,0-.1,0-.15,0-.21a.36.36,0,0,0,0-.11s0-.08,0-.11a.64.64,0,0,0,0-.07v0c-.07-.49.7-6.12,1.12-8.39.06-.35.12-.69.17-1l0-.18,0-.2c.23-1.49.29-2.42.29-2.42h0c0-.06.15-.32.29-.57l.85.09a3.08,3.08,0,0,0,2.94.84.62.62,0,0,0,.27-.09,2,2,0,0,0,.79-1.15c.06.46.11,1,.15,1.53A17.08,17.08,0,0,1,103.48,108.77Z"/><path class="cls-24" d="M103.75,103.85a3.33,3.33,0,0,1-1,.62,2.89,2.89,0,0,1-2.2-.58,24.1,24.1,0,0,0,.42,2.94,4.7,4.7,0,0,0-.68.89,9.52,9.52,0,0,1-1.79,1s-.89,2.78-1.26,4.61c-.15.76-.29,1.54-.4,2.18a.64.64,0,0,1,0-.15c-.07-.49.7-6.12,1.12-8.39a36,36,0,0,0,.52-3.81h0c0-.06.15-.32.29-.57l.85.09a3.08,3.08,0,0,0,2.94.84c.56-.09.87-.69,1.06-1.24C103.66,102.78,103.71,103.3,103.75,103.85Z"/><path class="cls-25" d="M100.3,137.27a.85.85,0,0,1-.32.3.48.48,0,0,1-.2.07,1.26,1.26,0,0,1-1-.39,2.37,2.37,0,0,1-.18-1.78,19.94,19.94,0,0,0,.23-2.27s-.58-1.26-1.47-3.57a71.5,71.5,0,0,1-2.67-7.81,15.39,15.39,0,0,1-.34-4.1c0-.2,0-.32,0-.35a49.7,49.7,0,0,1-1.47-7.45,27.6,27.6,0,0,1,.4-7.25h0c0-.27.09-.48.11-.62a.7.7,0,0,0,.12.26,2.24,2.24,0,0,0,1.82.84,1.67,1.67,0,0,0,1.23-.59l.17,0,.36.13c.29.73.73,2,1.06,2.92l0,.2,0,.18c0,.32-.11.66-.17,1-.42,2.27-1.19,7.9-1.12,8.39v0a.64.64,0,0,1,0,.07s0,.07,0,.11,0,.07,0,.11,0,.13,0,.21,0,.07,0,.1.06.37.11.6,0,.18,0,.28.08.44.13.68c0,.08,0,.17,0,.26h0v0c0,.15,0,.3.08.46s0,.26.07.39.06.29.08.44.07.39.11.58,0,.15,0,.22,0,.26.07.38a1.55,1.55,0,0,0,0,.21c0,.08,0,.17,0,.26l0,.14c0,.09,0,.19,0,.29a.36.36,0,0,1,0,.11l.06.31a.29.29,0,0,0,0,.09c0,.11,0,.22.05.33s0,0,0,.06l0,.2a1.43,1.43,0,0,1,0,.22c.05.24.09.48.13.72l0,.17a1.16,1.16,0,0,1,0,.18c.15.87.28,1.6.36,2,.35,2,1.19,6.22,1.29,7.52s0,2.58.21,3.49C100.21,136.92,100.25,137.11,100.3,137.27Z"/><path class="cls-24" d="M100.3,137.27a.85.85,0,0,1-.32.3,15.71,15.71,0,0,1-.2-1.68c0-.87.07-2.34,0-2.87s-1.58-8-1.58-8c-.45-2.69-1.73-9.25-1.75-9.4a18.24,18.24,0,0,1,.32-3.77c.31-2.13.42-3.11.42-3.11l-.35-.11c-.11,0-.28-.66-.28-.66l-.77-.21a15.79,15.79,0,0,1-.6-2,10.7,10.7,0,0,1-.24-2.34,1.91,1.91,0,0,1-1-.17,1.56,1.56,0,0,1-.65-.58h0c0-.27.09-.48.11-.62a.7.7,0,0,0,.12.26,2.24,2.24,0,0,0,1.82.84,1.67,1.67,0,0,0,1.23-.59l.17,0,.36.13c.29.73.73,2,1.06,2.92-.06.42-.14.89-.23,1.39-.42,2.27-1.19,7.9-1.12,8.39s1.5,8.25,1.85,10.27,1.19,6.22,1.29,7.52,0,2.58.21,3.49C100.21,136.92,100.25,137.11,100.3,137.27Z"/><path class="cls-21" d="M97.74,78.75l0,.35C97.72,79,97.73,78.88,97.74,78.75Z"/><path class="cls-26" d="M71.92,73.12a6.85,6.85,0,0,0,.88.52S72.38,73.37,71.92,73.12Z"/><path class="cls-27" d="M72,74.72l.08,0Z"/><path class="cls-28" d="M72.2,74.13l.11.07Z"/><path class="cls-29" d="M125.45,74h0a3.72,3.72,0,0,0,1.14-.44.26.26,0,0,0,.07-.1c0-.15-.33-.19-.81-.07h0l-.06,0c.07,0,.62-.25.65-.48a.06.06,0,0,0,0-.08,3.87,3.87,0,0,0-1.54.08,4.54,4.54,0,0,0-3.07,1.78s-1.71.84-4.06,1.74-4.3,1.47-4.75,2.31-.8,1.68-.8,1.68-1.63,0-3.38.18h0c-.58,0-1.17.1-1.72.17-2.23.28-3.32.24-4,.59a13.23,13.23,0,0,0-1.43.91,8.82,8.82,0,0,1-2-.94,2,2,0,0,1-.5-.47,4.7,4.7,0,0,1-.72-1.72,12,12,0,0,1,0,1.35c0,.31,0,.63-.06.94-.15,1.42-.56,2.72-1.64,3.22a1.17,1.17,0,0,1-.26.1c-1.53.49-3-1.36-3.46-2-.09-.11-.2-.26-.3-.41h0c-.21-.31-.4-.66-.55-.93a9.44,9.44,0,0,1-3.2.44s-.3-.54-2.81-.93l-1-.14a15.29,15.29,0,0,0-2.8-.09,4,4,0,0,0-1.71-1.85A45,45,0,0,1,75.38,75a12.17,12.17,0,0,0-.95-1,6.2,6.2,0,0,0-.93-.68,4.09,4.09,0,0,0-1.72-.71.17.17,0,0,0-.13.08c-.05.06,0,.14.1.24l.17.14.12.07c.35.19.66.39.74.44-.07,0-.32-.16-.57-.31,0,0,0,0,0,0l-.27-.18a2.83,2.83,0,0,0-1.06-.41.14.14,0,0,0-.09,0c-.25.16.9,1,1.35,1.34A.62.62,0,0,0,72,74h0c-.37-.23-.95-.56-1.2-.48a.13.13,0,0,0-.09.07c-.21.3,1,1,1.32,1.14-.26-.14-1.14-.57-1.14-.27a.13.13,0,0,0,0,.06c.1.33,1.08.64,1.7,1.09a2.58,2.58,0,0,0,1,.35,25.41,25.41,0,0,0,3.28,4.58c1.78,1.85,3.18,3.29,4.3,3.43a29.68,29.68,0,0,0,5.07,1.74c2.13.42,5.87.91,6.11,1.09a2.53,2.53,0,0,1,.41,1c.23.72.48,1.76.68,2.73.31,1.5,1,5.83,1.22,7.15l0,0s.19.8.23.91a6.34,6.34,0,0,0,1.6.63,5.4,5.4,0,0,0,2.52.35,8.14,8.14,0,0,0,3-.79l.15-.09c.37-.21.59-.93.68-1.27.13-.79.34-2,.58-3.62a29.54,29.54,0,0,0,.42-5.84,5.26,5.26,0,0,1,.38-1.74,11.91,11.91,0,0,0,3.43-.7,25.36,25.36,0,0,0,5.49-3.53,4,4,0,0,0,2.83-.67A47.56,47.56,0,0,0,123,75.5s.7-.07,1-.14a7.31,7.31,0,0,0,1.71-.53l.06,0c.12-.12.08-.2-.38-.2h-.3a3,3,0,0,0,1.06-.33,1.26,1.26,0,0,0,.19-.16h0c.09-.11,0-.14-.07-.17a7.81,7.81,0,0,0-1,.14l.12,0Z"/><path class="cls-30" d="M103.83,101.5c0,.16-.12.48-.23.82a2,2,0,0,1-.77,1.14.72.72,0,0,1-.29.1,4,4,0,0,1-1.67,0,2.66,2.66,0,0,1-1.27-.79l-.85-.09c-.7-.08-1.62-.2-1.85-.27l-.06,0s-.12.06-.27.21a1.82,1.82,0,0,1-.94.56l-.17,0h-.12a2.25,2.25,0,0,1-1.47-.49,2.3,2.3,0,0,1-.35-.35.7.7,0,0,1-.12-.26,7.25,7.25,0,0,1,.12-2.46,3,3,0,0,1,1.19-1.94l0,0s.19.8.23.91,0,0,0,0a8.55,8.55,0,0,0,1.58.6l0,0a5.39,5.39,0,0,0,2.47.33q.49,0,.93-.12a7.28,7.28,0,0,0,2.23-.74l0,0c.37-.21.59-.93.68-1.27,0-.11,0-.18,0-.18l.75,2.12A3.44,3.44,0,0,1,103.83,101.5Z"/><path class="cls-31" d="M97.74,78.75l0,.35a2.18,2.18,0,0,1-.46,1.16l0,0a3.54,3.54,0,0,1-.72.52l-.19,0a8.84,8.84,0,0,1-1.64-.63s-.25.35-.39.53S94,80.6,94,80.6l-.63.73a2,2,0,0,1-.95-.29c-1.13-1.12-1.22-4-1-5.16l0-.15c.29-1.06,1.16-.54,1.33-.37A3.67,3.67,0,0,1,95.24,74c1.36,0,2.09,1.64,2.37,3.32A7.76,7.76,0,0,1,97.74,78.75Z"/><path class="cls-32" d="M98.14,79a1.36,1.36,0,0,1-.1-.27,3,3,0,0,1,0-1.34c.13-.61.74-.8.91-.38a2,2,0,0,1,.08.35A1.53,1.53,0,0,1,98.14,79Z"/><path class="cls-33" d="M94.57,80.91l-.31.46a5.65,5.65,0,0,0,.87-.21Z"/><path class="cls-34" d="M97.61,77.28a7.76,7.76,0,0,1,.13,1.47l0,.35a2.18,2.18,0,0,1-.46,1.16c0-.43,0-1,0-1.81,0-2-.82-3.9-1.91-4.09s-2.48,1.35-2.48,1.35a1.23,1.23,0,0,0-1.43,0c.29-1.06,1.16-.54,1.33-.37A3.67,3.67,0,0,1,95.24,74C96.6,74,97.33,75.6,97.61,77.28Z"/><path class="cls-34" d="M99,77.35c-.64.1-.89.79-1,1.37a3,3,0,0,1,0-1.34c.13-.61.74-.8.91-.38A2,2,0,0,1,99,77.35Z"/><path class="cls-34" d="M98.5,77.09a2.44,2.44,0,0,0-.22,1.48s.35,0,.38-.33-.26-.19-.26-.19Z"/><path class="cls-34" d="M104.43,84.26a8.83,8.83,0,0,0-.76,2.12c-.06.61.21,1.68-.5,2.44a5.1,5.1,0,0,1-2,1.13A9.14,9.14,0,0,0,103,88.3c.5-.74.26-1.39.37-2A10.06,10.06,0,0,1,104.43,84.26Z"/><path class="cls-34" d="M80.81,83.16a1.09,1.09,0,0,0,.94.29,7.21,7.21,0,0,0,.74-.21,4.42,4.42,0,0,1-1,0A2.5,2.5,0,0,0,80.81,83.16Z"/><path class="cls-35" d="M101.33,88.72c.17.27,1.16-.48,1-.71S101.18,88.45,101.33,88.72Z"/><path class="cls-34" d="M93.18,87.9a3.69,3.69,0,0,0,3.23,2.86A2.66,2.66,0,0,1,93.86,90,2.61,2.61,0,0,1,93.18,87.9Z"/><path class="cls-35" d="M94.1,88.64c-.13.18.72,1,.87.79S94.25,88.43,94.1,88.64Z"/><path class="cls-34" d="M92.81,87.76a2.53,2.53,0,0,0-.41-1c-.24-.18-4-.67-6.11-1.09A29.68,29.68,0,0,1,81.22,84c-1.12-.14-2.52-1.58-4.3-3.43A25.41,25.41,0,0,1,73.64,76a2.58,2.58,0,0,1-1-.35c-.62-.45-1.6-.76-1.7-1.09a6.28,6.28,0,0,0,1,.53c.28.11,1.71.67,1.92.7,0,0,.25.35.67,1.05a16,16,0,0,0,3,3.63c1.6,1.47,2.48,2.35,2.48,2.35l1.12.59s2,.81,2.48,1.08A30.51,30.51,0,0,0,89,85.67c1.89.24,2.9.45,2.9.45a6.79,6.79,0,0,1,.77.74A3.69,3.69,0,0,1,92.81,87.76Z"/><path class="cls-34" d="M92.73,82.42l-.57-.25a10.09,10.09,0,0,0-1.92.07,2,2,0,0,1-1.07,0,5.32,5.32,0,0,1,.72,1.16A9.68,9.68,0,0,0,88,81.93a10.94,10.94,0,0,0-2.9-1.07l1,.14c2.51.39,2.81.93,2.81.93a9.44,9.44,0,0,0,3.2-.44C92.33,81.76,92.52,82.11,92.73,82.42Z"/><path class="cls-34" d="M108.8,80.64l-4,.8a8.68,8.68,0,0,0-2.45.77,11.76,11.76,0,0,0-1.47,1.39l.49-1L100.27,82l-1.33-.7a2.9,2.9,0,0,0-.55.14c0-.31,0-.63.06-.94a12,12,0,0,0,0-1.35,3.59,3.59,0,0,0,1.22,2.19,8.82,8.82,0,0,0,2,.94,13.23,13.23,0,0,1,1.43-.91c.66-.35,1.75-.31,4-.59C107.63,80.74,108.22,80.68,108.8,80.64Z"/><path class="cls-34" d="M72.25,74.21s-.2-.08-.63-.3-.48-.18-.83-.4c.25-.08.83.25,1.2.48h0C72.25,74.17,72.23,74.19,72.25,74.21Z"/><path class="cls-34" d="M72.76,73.76l-1-.6a9.45,9.45,0,0,0-.87-.45,2.83,2.83,0,0,1,1.06.41L71.75,73l.29.21.15.11s0,0,0,0Z"/><path class="cls-34" d="M74.43,74.05h-.07s-.61-.38-1.14-.72a5.24,5.24,0,0,0-1.44-.66,4.09,4.09,0,0,1,1.72.71A6.2,6.2,0,0,1,74.43,74.05Z"/><path class="cls-34" d="M73.78,74.17a10.55,10.55,0,0,0-1.48.1c-.06.11,0,.29.5.34a6.87,6.87,0,0,1,1.23.2,3.39,3.39,0,0,1,.63.38,2.63,2.63,0,0,0-.86-.33,9.83,9.83,0,0,1-1.33-.21c-.17-.06-.31-.21-.31-.32s.18-.23.67-.21S73.78,74.17,73.78,74.17Z"/><path class="cls-24" d="M125.77,74.78l-.06,0a7.31,7.31,0,0,1-1.71.53c-.35.07-1,.14-1,.14a47.56,47.56,0,0,1-6.88,5.76,4,4,0,0,1-2.83.67,25.36,25.36,0,0,1-5.49,3.53,11.91,11.91,0,0,1-3.43.7,5.26,5.26,0,0,0-.38,1.74,29.54,29.54,0,0,1-.42,5.84c-.24,1.58-.45,2.83-.58,3.62-.09.34-.31,1.06-.68,1.27l-.15.09c.19-.64.56-2,.56-2a23.82,23.82,0,0,1,.29-3.26c.29-1.88.84-3.12.63-4a8.16,8.16,0,0,1,.29-2.86s.1-.47.13-.55.57-.29.57-.29a22.43,22.43,0,0,0,4.62-1.88c1.6-1,3.61-2.18,3.61-2.18l2.31-.55s.74-.5,2.18-1.44a43.22,43.22,0,0,0,3.88-2.91c.6-.55,1.67-1.5,1.67-1.5s.92-.08,1.66-.18A9.52,9.52,0,0,0,125.77,74.78Z"/><path class="cls-24" d="M99.14,80.9l-.56,1.74a2.81,2.81,0,0,1-.73,1.57,2.55,2.55,0,0,1-1.1.48c1.08-.5,1.49-1.8,1.64-3.22,0-.31,0-.63.06-.94a12,12,0,0,0,0-1.35A4.7,4.7,0,0,0,99.14,80.9Z"/><path class="cls-24" d="M122.64,74.68s.22.2.73,0,.52-.49.52-.49,1-.24,1.12-.61-1-.11-1-.11.77-.1.77.07-1.07.56-1.07.56a1.25,1.25,0,0,1-.58.46A1.6,1.6,0,0,1,122.64,74.68Z"/><path class="cls-24" d="M127.06,76.75l.07,0a6.53,6.53,0,0,1-.67.17,4.87,4.87,0,0,0,1.23-.71s0,0,0,.07C127.69,76.49,127.13,76.72,127.06,76.75Z"/><path class="cls-24" d="M128,76.79a.17.17,0,0,1-.06.11,3.48,3.48,0,0,1-1.14.43h0a1.21,1.21,0,0,1-.41,0A6.83,6.83,0,0,0,128,76.79Z"/><path class="cls-24" d="M126.45,77.9h0Z"/><path class="cls-24" d="M127.61,77.41a.89.89,0,0,1-.19.16,2.92,2.92,0,0,1-1.06.33h0a2,2,0,0,1-.36,0,4.57,4.57,0,0,0,.8-.16A3.53,3.53,0,0,0,127.61,77.41Z"/><path class="cls-36" d="M98.38,98.25c.24.2.38-.28.14-.35S98.17,98.07,98.38,98.25Z"/><path class="cls-24" d="M95.73,95.35a8.6,8.6,0,0,1,.8-2.66,3.52,3.52,0,0,1,1.89-.84c.59,0,1.25,1.05,1.67,1.61a13.89,13.89,0,0,1,.77,3.85,8.79,8.79,0,0,0-.14-2.91c-.35-1.29-1.26-2.9-2.3-3a2,2,0,0,0-2,1A4.48,4.48,0,0,0,95.73,95.35Z"/><path class="cls-24" d="M99.55,117.84a3.29,3.29,0,0,1-.47,1l-.26.31s.26.16.57-.26A1.51,1.51,0,0,0,99.55,117.84Z"/><path class="cls-37" d="M103.48,108.77c-.62,2.9-2.93,7-3.21,7.51a16.75,16.75,0,0,1,1.57,3.88,20.51,20.51,0,0,1-.17,7.1,36.84,36.84,0,0,0-.56,5.06,9.74,9.74,0,0,1,.87,2.35,5.52,5.52,0,0,1-.11,2.79c-.17.42-.55.46-.94.46s-.47-.18-.63-.65a.85.85,0,0,1-.32.3.48.48,0,0,1-.2.07,1.26,1.26,0,0,1-1-.39,2.37,2.37,0,0,1-.18-1.78,19.94,19.94,0,0,0,.23-2.27s-.58-1.26-1.47-3.57a71.5,71.5,0,0,1-2.67-7.81,15.39,15.39,0,0,1-.34-4.1A15.22,15.22,0,0,0,95.2,119a.63.63,0,0,0,1.1,0,16.47,16.47,0,0,0,.58-2.15,4.19,4.19,0,0,0,.36,1h0a.75.75,0,0,0,.11.13c.26.27.52.21,1.31-.36s2.36-3.46,3-5.19a44.27,44.27,0,0,0,1.42-4.46c0-.16-.15-2.66-.26-4.51a2,2,0,0,0,.79-1.15c.06.46.11,1,.15,1.53A17.08,17.08,0,0,1,103.48,108.77Z"/><path class="cls-38" d="M103.83,101.5c0,.16-.12.48-.23.82a2,2,0,0,1-.77,1.14,21.26,21.26,0,0,0-.5-3.18,4.76,4.76,0,0,1-.09-1.63l0,0c.37-.21.59-.93.68-1.27,0-.11,0-.18,0-.18l.75,2.12A3.44,3.44,0,0,1,103.83,101.5Z"/><path class="cls-38" d="M94.05,99.65a21.15,21.15,0,0,0-.35,2.16,8.44,8.44,0,0,0,.17.84,2.3,2.3,0,0,1-.35-.35.7.7,0,0,1-.12-.26,7.25,7.25,0,0,1,.12-2.46,3,3,0,0,1,1.19-1.94l0,0s.19.8.23.91,0,0,0,0A8.64,8.64,0,0,0,94.05,99.65Z"/><path class="cls-30" d="M97,107.44h-.32a3.81,3.81,0,0,1-.63,0c-.1,0,0-.14-.34-1.43a8.37,8.37,0,0,1-.24-2c0-.36,0-.66,0-.9a1.67,1.67,0,0,0,1.11-.58c.15-.15.23-.25.27-.21l.06,0c0,.44,0,1.24,0,2.42A16.64,16.64,0,0,1,97,107.44Z"/><path class="cls-38" d="M97,107.44h-.32c-.19-.64-.43-1.48-.45-1.58s-.38-1.82-.38-1.82l-.38,0c0-.36,0-.66,0-.9a1.67,1.67,0,0,0,1.11-.58c.15-.15.23-.25.27-.21l.06,0c0,.44,0,1.24,0,2.42A16.64,16.64,0,0,1,97,107.44Z"/><path class="cls-38" d="M100.87,103.51a2.66,2.66,0,0,1-1.27-.79l-.85-.09c-.7-.08-1.62-.2-1.85-.27l-.06,0s-.12.06-.27.21a1.82,1.82,0,0,1-.94.56.74.74,0,0,1,.17-.21,9.89,9.89,0,0,0,.66-1.23l.28-1.78-.13-.71a5.39,5.39,0,0,0,2.47.33q.49,0,.93-.12a5.51,5.51,0,0,1,.22.78s.11,1.78.14,2S100.64,102.91,100.87,103.51Z"/><path class="cls-39" d="M100.41,107.06a15.52,15.52,0,0,1-1.58.8,4.9,4.9,0,0,1-.9.29,3.93,3.93,0,0,1-.91.09s-.21-1.85-.32-4a14.32,14.32,0,0,1,.53-5,2,2,0,0,1,1.15-.49,1.34,1.34,0,0,1,.92.35,3,3,0,0,1,.45.46s.1.77.13,3.32A17.58,17.58,0,0,0,100.41,107.06Z"/><path class="cls-40" d="M100.41,107.06a15.52,15.52,0,0,1-1.58.8,4.9,4.9,0,0,1-.9.29l.14-.22s1.29-4.37,1.26-4.47.17-3,.17-3a7.81,7.81,0,0,0-.2-1.37,3,3,0,0,1,.45.46s.1.77.13,3.32A17.58,17.58,0,0,0,100.41,107.06Z"/><path class="cls-41" d="M98.42,79.18a14.82,14.82,0,0,0-.35-2.25l-.32.56c0,.42,0,.86,0,1.26,0,.13,0,.24,0,.35s0,.1,0,.14a0,0,0,0,1,0,0l0,.14a1.17,1.17,0,0,1-.05.2.25.25,0,0,0,0,.07.17.17,0,0,0,0,0l0,.07a1.51,1.51,0,0,1-.11.22l-.06.1,0,0-.07.09,0,0a3,3,0,0,1-.51.39l-.09.06-.12.07-.19,0a8.84,8.84,0,0,1-1.64-.63s-.25.35-.39.53S94,80.6,94,80.6l-.63.73a1.41,1.41,0,0,1-.46-.08l-.11,0-.08,0-.3-.15A1.93,1.93,0,0,1,92,80.7l0,.35.23.44A9.45,9.45,0,0,0,93,82.83l.07.09.17.2.1.12a2.19,2.19,0,0,0,.21.23l.09.1h0l0,0,.14.14a1.59,1.59,0,0,1,.13.13,3.26,3.26,0,0,0,1.82,1h.13a1.5,1.5,0,0,0,.55-.08,1.85,1.85,0,0,0,.43-.18l.1-.07h0l.11-.09a.31.31,0,0,0,.11-.09,1.29,1.29,0,0,0,.17-.16l.12-.14.09-.12.12-.18,0-.07a.83.83,0,0,0,.07-.13.91.91,0,0,0,.07-.14c0-.1.09-.21.13-.32a3.57,3.57,0,0,0,.1-.35,2.17,2.17,0,0,0,.07-.24h0v0a.14.14,0,0,0,0-.06.43.43,0,0,1,0-.05s0-.08,0-.12h0c0-.14,0-.29.08-.44a1.11,1.11,0,0,1,0-.19l.06-.62c0-.16,0-.32,0-.48A12,12,0,0,0,98.42,79.18Zm-3.85,1.73.56.25a5.75,5.75,0,0,1-.6.16l-.11,0-.16,0Zm3.78-2.12s0,.09,0,.17A.86.86,0,0,1,98.35,78.79Z"/><path class="cls-42" d="M98.45,80.53c0,.16,0,.32,0,.48l-.06.62a1.11,1.11,0,0,0,0,.19c0,.15,0,.3-.08.44h0s0,.08,0,.12a.43.43,0,0,0,0,.05.14.14,0,0,1,0,.06v0h0a2.17,2.17,0,0,1-.07.24,3.57,3.57,0,0,1-.1.35,3.05,3.05,0,0,1-.13.32.91.91,0,0,1-.07.14.83.83,0,0,1-.07.13l0,.07-.12.18-.09.12-.12.14a1.29,1.29,0,0,1-.17.16.31.31,0,0,1-.11.09l-.11.09h0s0,0,0,0a9.73,9.73,0,0,0,.35-1.45,11.17,11.17,0,0,0-.13-2.8l.07-.09,0,0,.06-.1a1.51,1.51,0,0,0,.11-.22l0-.07a.17.17,0,0,1,0,0,.25.25,0,0,1,0-.07,1.17,1.17,0,0,0,.05-.2.58.58,0,0,0,0-.14,0,0,0,0,0,0,0s0-.09,0-.14,0-.22,0-.35c0-.4,0-.84,0-1.26l.32-.56a14.82,14.82,0,0,1,.35,2.25A12,12,0,0,1,98.45,80.53Z"/><path class="cls-42" d="M93.86,83.77l-.14-.14,0,0h0l-.09-.1a2.19,2.19,0,0,1-.21-.23l-.1-.12-.17-.2L93,82.83a9.45,9.45,0,0,1-.85-1.34L92,81.05l0-.35a1.93,1.93,0,0,0,.44.34l.3.15c0,.12.07.23.1.34h0a9.36,9.36,0,0,0,.38,1.08C93.28,82.76,93.62,83.35,93.86,83.77Z"/><g class="cls-20"><g class="cls-43"><path class="cls-21" d="M94,83.9a1.59,1.59,0,0,0-.13-.13l-.14-.14,0,0h0a9.25,9.25,0,0,1-.52-1,3.56,3.56,0,0,1-.33-1.1h0c0-.11,0-.21,0-.31l.11,0a3,3,0,0,0,.34,1.34C93.44,83,93.74,83.49,94,83.9Z"/></g><g class="cls-43"><path class="cls-21" d="M97,84.51v0h0l-.1.07a16.74,16.74,0,0,0,0-2.45,6.47,6.47,0,0,0-.3-1.42l.09-.06A6.25,6.25,0,0,1,97,82.15,14.26,14.26,0,0,1,97,84.51Z"/></g><g class="cls-43"><path class="cls-21" d="M98.27,82.26h0s0,.08,0,.12a.43.43,0,0,0,0,.05.14.14,0,0,1,0,.06v0h0a10.18,10.18,0,0,0-.86-2.39l.06-.1A10.43,10.43,0,0,1,98.27,82.26Z"/></g><g class="cls-43"><path class="cls-21" d="M95.94,84.87h-.13a6.74,6.74,0,0,1-1.39-3.53l.11,0C94.42,82.4,95.36,84,95.94,84.87Z"/></g></g><path class="cls-44" d="M94.42,77.13c-.26,0-.14-.27.28-.67s.76-.64,1.25-.5.56.53.48.55-.5-.1-.63,0A2.87,2.87,0,0,1,94.42,77.13Z"/><path class="cls-44" d="M93,77.59c.18-.09.18-.38-.39-.47a1.57,1.57,0,0,0-1.14.17c-.15.12-.24.5-.17.55s.32-.19.72-.22S92.78,77.69,93,77.59Z"/><path class="cls-21" d="M94.4,77.86c-.16.15.38.56.93.4a1.1,1.1,0,0,0,.76-.68c0-.1-.08-.28-.26,0s-.34.47-.73.47S94.49,77.79,94.4,77.86Z"/><path class="cls-21" d="M93.13,78.48a.71.71,0,0,1-.76.62c-.56,0-.76-.49-.62-.46s.34.27.71.18.45-.47.54-.47S93.16,78.35,93.13,78.48Z"/><path class="cls-36" d="M93.12,77.72a2.57,2.57,0,0,1,.35,1.22,10.21,10.21,0,0,0,.47,1.72c.11.23.07.23.25.28s.59-.66.63-.85-.07-.21-.29.12-.29.51-.36.47a4.78,4.78,0,0,1-.49-1.39,9.35,9.35,0,0,0-.24-1.18A.84.84,0,0,0,93.12,77.72Z"/><path class="cls-45" d="M99.08,135.19c-.09-.07-.33.12-.29.29,0,0,.08,0,0,.09s-.23.28-.19.31.13-.19.17-.13-.12.44,0,.38.16-.13.17,0-.08.61.09.74.09,0,.07-.24.1-.53.15-.33a3.48,3.48,0,0,1,0,.89c0,.27.16.41.27.23s-.1-.4-.1-.52a2.51,2.51,0,0,1,0-.65s.17.11.22,0-.06-.25,0-.29a.39.39,0,0,0,0-.45c-.13-.16-.11-.39-.21-.37S99.13,135.23,99.08,135.19Z"/><path class="cls-45" d="M100.44,135.4c0,.1-.1.16,0,.26s.12.17.07.26,0,.28,0,.21.15-.17.16-.06-.12.22-.07.39.09,0,.16-.09.13,0,.09.21,0,.56-.09.71,0,.26.13.05a4,4,0,0,0,.08-.63c0-.16.12,0,.09.12s0,.51.09.46.19-.3.08-.7-.14-.8-.08-.69.18,0,.18-.15-.1-.19-.11-.28-.13-.37-.25-.31-.29.13-.34.1S100.46,135.32,100.44,135.4Z"/><path class="cls-46" d="M100.78,136a.35.35,0,0,1-.12,0,.4.4,0,0,1,.07-.7h.1C101.3,135.25,101.2,136.05,100.78,136Z"/><path class="cls-47" d="M100.78,136a.35.35,0,0,1-.12,0l.11-.29a2,2,0,0,0,.06-.42C101.3,135.25,101.2,136.05,100.78,136Z"/><path class="cls-46" d="M99.18,136.11l-.11,0c-.42-.18-.13-.89.19-.8a.33.33,0,0,1,.13.07C99.65,135.57,99.69,136.2,99.18,136.11Z"/><path class="cls-47" d="M99.18,136.11l-.11,0,.27-.32s0-.22,0-.41C99.65,135.57,99.69,136.2,99.18,136.11Z"/><path class="cls-45" d="M72.92,74.72c-.13.08-.21.31-.31.29s-.11.18,0,.23.34.06.26.21,0,1,.08.92,0-.79.13-.68.21.55.27.34-.24-.68-.08-.63.34.16.34-.1-.21-.53-.29-.53Z"/><path class="cls-46" d="M73.14,75.38l-.11,0a.32.32,0,0,1,.07-.57h.08C73.55,74.76,73.48,75.41,73.14,75.38Z"/><path class="cls-47" d="M73.14,75.38l-.11,0,.1-.24a2.59,2.59,0,0,0,.05-.34C73.55,74.76,73.48,75.41,73.14,75.38Z"/><path class="cls-45" d="M125.65,77.41a.4.4,0,0,0-.44.36c-.06.24-.32.53-.21.55s.26-.31.31-.1.16.6.23.45.06-.48.16-.42A.23.23,0,0,0,126,78c0-.24.15-.61.08-.61Z"/><path class="cls-46" d="M125.58,78.12l-.1,0a.32.32,0,0,1,.06-.57h.08C126,77.5,125.92,78.15,125.58,78.12Z"/><path class="cls-47" d="M125.58,78.12l-.1,0,.09-.24a2.59,2.59,0,0,0,.05-.34C126,77.5,125.92,78.15,125.58,78.12Z"/><polygon class="cls-48" points="100.92 69.71 93.32 69.11 93.29 67.92 100.87 68.27 100.92 69.71"/><polygon class="cls-49" points="104.32 62.53 104.22 68.51 96.16 68.28 89.43 68.09 89.22 62.74 101.47 62.57 104.32 62.53"/><polygon class="cls-50" points="89.82 63.44 89.89 67.35 103.73 67.91 103.66 63.23 89.82 63.44"/><path class="cls-48" d="M104.32,62.53l-.1,6-8.06-.23c1.33-1,2.9-2.12,3.23-2.39a21,21,0,0,0,2.08-3.32Z"/><path class="cls-48" d="M109.26,136.59l.2,4.89-.14,1.05-7.81-3.34,1.45-.54,0,0a8.19,8.19,0,0,0,2.7-1.34,21,21,0,0,0,1-4.61l2.48,1Z"/><path class="cls-48" d="M100.65,60.39c-.8-.55-1.61-1.15-1.61-1.15a3.24,3.24,0,0,0-2.44-1.11,8.24,8.24,0,0,0-3.55.6l0-2,7.55.11Z"/><path class="cls-48" d="M63.54,77.42l0-1.08-.05-2.81,0-2.64h2.21c-.29,1.48-.5,3.25-.5,3.25l3.58,3.29.06.06.7.64L71,79H63.54Z"/><path class="cls-48" d="M103.07,147.88l-7.76-.65-.15-5.61c3,1.87,4.88,2.41,5.49,2.41.28,0,1.25-.07,2.3-.15l0,.53Z"/><path class="cls-51" d="M111.88,134.08a4.24,4.24,0,0,1-3.32-.34,3.42,3.42,0,0,1-1-.92c-1.11-1.49-1.14-2.7-1.3-5a9.94,9.94,0,0,1,0-1.88c.06-.45.13-.9.23-1.32a7.25,7.25,0,0,1,.65-1.85,1.13,1.13,0,0,1,.44-.49,1.1,1.1,0,0,1,.79-.12l.07,0h0a.73.73,0,0,0,.41.25.69.69,0,0,0,.34,0,1.85,1.85,0,0,0,1-1.12l0-.06.07-.08a.67.67,0,0,1,.75-.17,5.11,5.11,0,0,1,1.41,1.46,10.13,10.13,0,0,1,1.1,1.82,15.19,15.19,0,0,1,.76,5.08C114.37,131.21,113.14,133.68,111.88,134.08Z"/><path class="cls-52" d="M114.32,129.38a15.19,15.19,0,0,0-.76-5.08,10.13,10.13,0,0,0-1.1-1.82l-.12.23a10.19,10.19,0,0,1,1.26,3.1,15.82,15.82,0,0,1-.19,4.5c0,.32-.12.65-.2,1a24.81,24.81,0,0,1-2.39-2,22.92,22.92,0,0,1-2.73-3.79,6.88,6.88,0,0,1-.68-2.64c.42.1.71.23.94,0l.53-.42a.73.73,0,0,1-.41-.25h0l-.07,0a1.1,1.1,0,0,0-.79.12,1.13,1.13,0,0,0-.44.49c0,.09,0,.19,0,.28a6.38,6.38,0,0,0,.16,4.11,26.19,26.19,0,0,0,2.28,4.88,14.73,14.73,0,0,0,2,1.8l-.08,0a5.15,5.15,0,0,1-1.55,0c-.63-1-1.46-2.25-1.94-2.95a11.88,11.88,0,0,1-1.39-4.24,12.52,12.52,0,0,1-.19-2.1c0-.61,0-1.06,0-1.06a7.14,7.14,0,0,0-.23,2.38,19.8,19.8,0,0,0,1,4.77,9,9,0,0,0,1.59,3l-.3,0a4.24,4.24,0,0,0,3.32.34C113.14,133.68,114.37,131.21,114.32,129.38Zm-1.84,3.67a14.56,14.56,0,0,1-2.68-2.81c-1.64-2.34-2.4-4.3-2.4-5.69v-.11c.6,2.32,2.19,4.07,2.66,4.92a11.18,11.18,0,0,0,2.63,3.31A4.32,4.32,0,0,1,112.48,133.05Z"/><path class="cls-53" d="M106.65,132.29c-.09.46-.29,1-.8.91-1.26-.13-2.21-2-2.59-3.08a10.75,10.75,0,0,1-.47-1.9,5.93,5.93,0,0,1-.05-1.77l.23.06a22.1,22.1,0,0,0,1.81,3.08,17.31,17.31,0,0,0,1.92,2A3.55,3.55,0,0,1,106.65,132.29Z"/><path class="cls-54" d="M106.7,131.64a3.55,3.55,0,0,1,0,.65l-1.18-.23a5,5,0,0,1-1.76-1.56,9.4,9.4,0,0,1-.92-2.28,5.93,5.93,0,0,1-.05-1.77l.23.06a22.1,22.1,0,0,0,1.81,3.08A17.31,17.31,0,0,0,106.7,131.64Z"/><path class="cls-54" d="M107.7,129.91v0h0Z"/><path class="cls-55" d="M130.82,146.71c0,.1-.43.19-1.3.43a11.59,11.59,0,0,0-1.12.34l-1.33-.86a4.63,4.63,0,0,0-1.14-.56l0-.13c.12-.29.38-.81.78-.55a13.05,13.05,0,0,0,1.78.76,6,6,0,0,0,1.41.38C130.45,146.6,130.82,146.63,130.82,146.71Z"/><path class="cls-34" d="M130.82,146.71c0,.1-.43.19-1.3.43a11.59,11.59,0,0,0-1.12.34l-1.33-.86a4.63,4.63,0,0,0-1.14-.56l0-.13a2.19,2.19,0,0,1,1,.28,6.74,6.74,0,0,0,.95.63,2.71,2.71,0,0,0,1.32,0,6.25,6.25,0,0,0,.75-.32C130.45,146.6,130.82,146.63,130.82,146.71Z"/><path class="cls-56" d="M131.05,146.5l-.23.21-.33-.05s-.73-.1-1.36-.26a4.19,4.19,0,0,1-.49-.14,12,12,0,0,1-1.7-.71c-.3-.19-.42-.22-.61-.18l.22-.3a8,8,0,0,1,1.08.38,9,9,0,0,0,1.13.46c.29.1.62.21,1,.32A4.78,4.78,0,0,0,131.05,146.5Z"/><path class="cls-57" d="M131.05,146.5l-.23.21-.33-.05s-.73-.1-1.36-.26c-.12-.14-.26-.33-.37-.49.29.1.62.21,1,.32A4.78,4.78,0,0,0,131.05,146.5Z"/><path class="cls-56" d="M130,146.56l-.57.45h0l-.25.2-.79.27-.39-.28a.84.84,0,0,0,.24-.16,3.15,3.15,0,0,0,.52-.73S130,146.59,130,146.56Z"/><path class="cls-57" d="M129.44,147l-.25.2-.79.27-.39-.28a.84.84,0,0,0,.24-.16,4.72,4.72,0,0,0,.48.06A6.7,6.7,0,0,0,129.44,147Z"/><path class="cls-58" d="M128.45,147.5s-.92.15-4,1-4,1-6.87,1.71-4-.07-4.84-.51a3.47,3.47,0,0,0-2.88.25,1.86,1.86,0,0,1-2.41-1.14,1.07,1.07,0,0,1-.07-.15h0a29.26,29.26,0,0,1-.78-6.62c0-1,0-2.75,0-4.48s0-3.68,0-4.32a26.75,26.75,0,0,0-.31-3c-.07-.63-.15-1.36-.22-2.22-.19-2.61,0-4.75.81-5.51a1.51,1.51,0,0,1,1.52-.48l0,.19c-.06,0-.3-.15-.86.09s-1.54,3.29-1.37,5.54a21.58,21.58,0,0,0,.29,2.74,5.33,5.33,0,0,0,1,2.22,4,4,0,0,0,4.35,1.26c1.26-.4,2.49-2.87,2.44-4.7a15.19,15.19,0,0,0-.76-5.08,11.69,11.69,0,0,0-1.86-2.75,2.29,2.29,0,0,0-.65-.53.68.68,0,0,0-.82.25l.08-.11c.22-.29.51-.7,1.23-.16l0,0a12.5,12.5,0,0,1,2.47,4.12c.24.69.53,2,.84,3.33s.65,2.76,1,3.85c.16.51.33,1,.5,1.45h0a21.76,21.76,0,0,1,1.4,5.23,32.73,32.73,0,0,1-.29,7.09s.64-.76,2.82-.88h.17a15.64,15.64,0,0,1,5.84.93,8.73,8.73,0,0,1,1.14.64A12.12,12.12,0,0,1,128.45,147.5Z"/><path class="cls-59" d="M110.3,121.19l-.07.08,0,.06a1.28,1.28,0,0,1-.17.4,2,2,0,0,1-.8.72.69.69,0,0,1-.75-.22h0l-.07,0c0-.14-.11-.29-.16-.44s0-.13-.06-.18A4.56,4.56,0,0,0,109,121a6.88,6.88,0,0,0,1.08-1.29A3.8,3.8,0,0,0,110.3,121.19Z"/><path class="cls-34" d="M110.3,121.19l-.07.08,0,.06a1.28,1.28,0,0,1-.17.4c-.22-.15-.59-.38-.72-.3a4.13,4.13,0,0,1-1.07.33c0-.07,0-.13-.06-.18A4.56,4.56,0,0,0,109,121a6.88,6.88,0,0,0,1.08-1.29A3.8,3.8,0,0,0,110.3,121.19Z"/><path class="cls-60" d="M115,134.67a5.85,5.85,0,0,1-4.32,1.29,4.81,4.81,0,0,1-2.59-1,16,16,0,0,0-1.49,2.59l0,0c0-1.87,0-3.68,0-4.32a26.75,26.75,0,0,0-.31-3l.22.35a5.33,5.33,0,0,0,1,2.22,4,4,0,0,0,4.35,1.26c1.26-.4,2.49-2.87,2.44-4.7a15.19,15.19,0,0,0-.76-5.08,11.69,11.69,0,0,0-1.86-2.75,0,0,0,0,1,0,0,2.87,2.87,0,0,1-.11-.49,12.5,12.5,0,0,1,2.47,4.12c.24.69.53,2,.84,3.33a9.9,9.9,0,0,1-.31,2.78c-.47,1.75-1.52,3.41-3,3.84a4.13,4.13,0,0,1-1,.17C112.21,136.21,115,134.67,115,134.67Z"/><path class="cls-61" d="M102.74,126.45a5.22,5.22,0,0,1-.52-1.37c0-.27.25.16.25.16s-.25-.52-.17-.68.25.13.25.13-.15-.43,0-.57.3.25.3.25-.19-.59-.09-.74.36.44.36.44-.09-.81.07-.73.22.64.53,1.35a11.76,11.76,0,0,1,.56,1.69,9.07,9.07,0,0,1-1.24.16A.57.57,0,0,1,102.74,126.45Z"/><path class="cls-62" d="M112.9,129.28c-.5,1.71-1.52,3.38-2.85,3.52a6.26,6.26,0,0,1-4.73-2.38,17,17,0,0,1-2.42-3.89,1.69,1.69,0,0,0,.63,0l.23,0a2.08,2.08,0,0,0,.8-.25s.67.63,1.5,1.34a9.68,9.68,0,0,0,1.1.78,1.37,1.37,0,0,1,.2.13l.68.4h0l.88.5,0,0c.37-.67.6-4.79.79-6.14a5.06,5.06,0,0,1,.43-1.55c.23-.47.53-.73.88-.69.64.07,1.75,1.38,2.25,3A9.37,9.37,0,0,1,112.9,129.28Z"/><path class="cls-63" d="M104.59,126.2s-.08.25-.8.37a1.79,1.79,0,0,1-.84,0l0,0a4.14,4.14,0,0,1-.47-1.82l0,0c.07,0,.13,0,.19.15h0a.8.8,0,0,1,.08.21c-.12-.42-.19-.77-.08-.93l0-.05c.06-.06.17.13.25.31h0a2.24,2.24,0,0,1,.11.26,2.46,2.46,0,0,1-.12-1.15.28.28,0,0,1,0-.08c.14-.11.38.68.41.78a.11.11,0,0,1,0,0h0c-.11-.69-.06-.91.06-.84a1.41,1.41,0,0,1,.3.56c.18.49.35.93.45,1.17h0l.08.19c.07-.69.24-.86.35-.83l0,0C104.84,124.66,104.54,126,104.59,126.2Z"/><path class="cls-34" d="M104.61,124.4a6.7,6.7,0,0,0-.31,1.07l0-.24C104.33,124.54,104.5,124.37,104.61,124.4Z"/><path class="cls-34" d="M103.37,124.15h0c-.11-.69-.06-.91.06-.84a3.73,3.73,0,0,0,.2,1.52A5.57,5.57,0,0,1,103.37,124.15Z"/><path class="cls-34" d="M102.93,124.39a2.24,2.24,0,0,1,.11.26,2.46,2.46,0,0,1-.12-1.15,7.78,7.78,0,0,0,.36,1.69C103.24,125.11,103.07,124.76,102.93,124.39Z"/><path class="cls-34" d="M102.64,124.84a.8.8,0,0,1,.08.21Z"/><path class="cls-34" d="M102.89,125.45l-.17-.4c-.12-.42-.19-.77-.08-.93A4.94,4.94,0,0,0,102.89,125.45Z"/><path class="cls-34" d="M103,126.56l0,0a4.14,4.14,0,0,1-.47-1.82,5.08,5.08,0,0,0,.31,1.24C102.84,126.2,102.9,126.41,103,126.56Z"/><path class="cls-64" d="M112.9,129.28c-.5,1.71-1.52,3.38-2.85,3.52a6.26,6.26,0,0,1-4.73-2.38,17,17,0,0,1-2.42-3.89,1.69,1.69,0,0,0,.63,0,21.28,21.28,0,0,0,2,3.11,6.62,6.62,0,0,0,2,2,8.23,8.23,0,0,1-.3-3.23,1.37,1.37,0,0,1,.2.13c-.07,1.22.34,3,.92,3.23a1.49,1.49,0,0,0,1.14.13,8.13,8.13,0,0,0-1.37-3l.88.5,0,0a7.69,7.69,0,0,1,1.42,2.43,2.61,2.61,0,0,0,1.91-1.74,11.09,11.09,0,0,0,.64-5.5,4.06,4.06,0,0,0-1.21-2.55,2.3,2.3,0,0,0-1.54-.33c.23-.47.53-.73.88-.69.64.07,1.75,1.38,2.25,3A9.37,9.37,0,0,1,112.9,129.28Z"/><path class="cls-65" d="M108,137.29a53.38,53.38,0,0,1,2.85,4.65,12.39,12.39,0,0,0,3.71,3.89,6.42,6.42,0,0,1-3.71-2.66A24.28,24.28,0,0,1,108,137.29Z"/><path class="cls-66" d="M109,142.89a8.81,8.81,0,0,0,3,3.51c1.66,1.14,2.9,1.81,2.9,1.81a7.51,7.51,0,0,1-3.52-1.66A6.44,6.44,0,0,1,109,142.89Z"/><path class="cls-67" d="M109,136.05c.9,1.52,4.13,6.36,5.84,7.5a11.11,11.11,0,0,1-3.52-3.08A29.36,29.36,0,0,1,109,136.05Z"/><path class="cls-68" d="M128.45,147.5s-.92.15-4,1-4,1-6.87,1.71-4-.07-4.84-.51a3.47,3.47,0,0,0-2.88.25,1.86,1.86,0,0,1-2.41-1.14,1.07,1.07,0,0,1-.07-.15c.57.61,1,1,1.5.63a6.32,6.32,0,0,1,2.46-.43,12.63,12.63,0,0,1-1.37-1.61,16.37,16.37,0,0,0,2.94,1.8c2,1,2.71.71,3,.71a52.33,52.33,0,0,1,6-1.32,21.53,21.53,0,0,0,5.61-1.67A12.12,12.12,0,0,1,128.45,147.5Z"/><path class="cls-69" d="M120.48,145.21a7.65,7.65,0,0,0-1.81.77,5.81,5.81,0,0,0-1.71,1.46,5,5,0,0,0,.28-1.18,41.23,41.23,0,0,0-.24-7.74c-.3-1.81-.42-3.2-.62-4.74a21.76,21.76,0,0,1,1.4,5.23,32.73,32.73,0,0,1-.29,7.09s.64-.76,2.82-.88Z"/><path class="cls-70" d="M109.85,118.89a5.49,5.49,0,0,1-.71.61,1.07,1.07,0,0,1-1.33,0c-.24-.15-.7-.83-1.32-.92s-1.17.37-1.5.24a2.23,2.23,0,0,1-.68-.65c.11-.43.18-1.33.29-2.41a3.79,3.79,0,0,1,.28-1.15s0,0,0,0h0l.79-.72c.25.55.66.73,1.36,1.06s1.26.22,1.39,0,0-.6,0-.66a1.55,1.55,0,0,0,.57.47c.2,0,.18-.14.18-.14a1.45,1.45,0,0,1,.62,1.08,20.14,20.14,0,0,0,.46,2.51C110.28,118.39,110.12,118.63,109.85,118.89Z"/><path class="cls-34" d="M109.85,118.89a3.66,3.66,0,0,0-.08-.88,6.2,6.2,0,0,1-.24-1.92,1.4,1.4,0,0,0-.36-1.07l-.17.09c-.11.06-.27-.09-.36-.19a.3.3,0,0,1,0,.25c-.09.23-.78.39-1.74,0a2.62,2.62,0,0,1-1.28-.89c-.08,0-.47.18-.74.35,0,0,0,0,0,0h0l.79-.72c.25.55.66.73,1.36,1.06s1.26.22,1.39,0,0-.6,0-.66a1.55,1.55,0,0,0,.57.47c.2,0,.18-.14.18-.14a1.45,1.45,0,0,1,.62,1.08,20.14,20.14,0,0,0,.46,2.51C110.28,118.39,110.12,118.63,109.85,118.89Z"/><path class="cls-71" d="M111.29,117.05h0l0,.2h0a4.89,4.89,0,0,1-.14.64s0,0,0,.08a7.78,7.78,0,0,1-.94,1.83l-.07.1a6.19,6.19,0,0,1-1,1.2l-.19.15h0l-.11.08a4.92,4.92,0,0,1-.45.28,6,6,0,0,1-.68.32l-.09,0a2.91,2.91,0,0,1-1.27.22l-.11,0a.27.27,0,0,1-.12,0,3.58,3.58,0,0,1-.64-.26l0,0-.08,0a2.14,2.14,0,0,1-.87-1h0a1.88,1.88,0,0,1-.15-.38l-.06-.18a3,3,0,0,1,.08-2h0l.14.18.07.09a1.54,1.54,0,0,0,.47.38.53.53,0,0,0,.37,0l.08,0a2.22,2.22,0,0,1,1-.2l.11,0,.1,0a3.26,3.26,0,0,1,1,.79l.07.06,0,0a1.06,1.06,0,0,0,1.26,0l.07,0h0c.61-.44,1.16-1,1.09-1.23a20.14,20.14,0,0,1-.46-2.51,1.46,1.46,0,0,0-.47-1l-.15-.12s0,.1-.07.13a.18.18,0,0,1-.11,0,.84.84,0,0,1-.27-.17,1.36,1.36,0,0,1-.3-.29h0s0,.09,0,.18h0s0,.07,0,.11a.55.55,0,0,1,0,.37.34.34,0,0,1-.06.06l-.11.06A1.67,1.67,0,0,1,107,115c-.7-.33-1.11-.51-1.36-1.06l-.16.15-.07.06-.54.49,0,0h0a0,0,0,0,0,0,0l0-.15a1.93,1.93,0,0,1,.25-.63c0-.07.09-.16.16-.26a.83.83,0,0,1,.08-.12,3,3,0,0,1,.18-.25.46.46,0,0,0,.07-.07,2.67,2.67,0,0,1,.35-.31l.08-.05a2.22,2.22,0,0,1,.81-.33l.16,0a4.34,4.34,0,0,1,2,.3,3.34,3.34,0,0,1,1,.54h0A4.09,4.09,0,0,1,111.29,117.05Z"/><path class="cls-72" d="M107.71,115.77a.5.5,0,0,0-.06.67,2,2,0,0,0,1.57.16.25.25,0,0,0-.27-.33A1.78,1.78,0,0,1,107.71,115.77Z"/><path class="cls-72" d="M104.91,115.36a1.3,1.3,0,0,0,.77.66c.38.1.67,0,.7-.07s.08-.42-.15-.43a1.33,1.33,0,0,1-1.07-.4S104.91,115.35,104.91,115.36Z"/><path class="cls-73" d="M112,118.59a1.68,1.68,0,0,1-.3.6,1.5,1.5,0,0,1-1.58.62,9.22,9.22,0,0,0,.59-1,6.07,6.07,0,0,0,.35-.84s0,0,0-.08c.26-.2.54-.31.68-.21A.85.85,0,0,1,112,118.59Z"/><path class="cls-34" d="M112,118.59a.43.43,0,0,0-.35-.21,2.87,2.87,0,0,0-.94.44,6.07,6.07,0,0,0,.35-.84s0,0,0-.08c.26-.2.54-.31.68-.21A.85.85,0,0,1,112,118.59Z"/><path class="cls-34" d="M111.55,118.25a2.41,2.41,0,0,0-.94,1.12.45.45,0,0,0,.41-.05c.14-.13-.09-.28-.09-.28Z"/><g class="cls-74"><path class="cls-75" d="M104.44,120.81a1.88,1.88,0,0,1-.15-.38,6.94,6.94,0,0,1,.16-2l.07.09A5.69,5.69,0,0,0,104.44,120.81Z"/><path class="cls-75" d="M105.39,121.86l-.08,0c.24-.25.33-.54.24-1.44,0-.43-.1-.83-.15-1.19,0-.12,0-.23,0-.34l.08,0c0,.11,0,.22,0,.35,0,.35.1.76.14,1.19C105.72,121.25,105.64,121.57,105.39,121.86Z"/><path class="cls-75" d="M106.3,122.19l-.11,0a5.29,5.29,0,0,0,.41-3.53l.1,0A5.59,5.59,0,0,1,106.3,122.19Z"/><path class="cls-75" d="M107.66,121.94l-.09,0a8,8,0,0,1,.14-2.51l.07.06A7.69,7.69,0,0,0,107.66,121.94Z"/><path class="cls-75" d="M109.15,119.49a7.47,7.47,0,0,1-.25,1.77h0l-.11.08a8.11,8.11,0,0,0,.28-1.8l.07,0Z"/><path class="cls-75" d="M108.37,115.06l-.11.06c-.82-.25-2.26-.9-2.66-2a.46.46,0,0,0,.07-.07,2.92,2.92,0,0,0,1.34,1.39A6.66,6.66,0,0,0,108.37,115.06Z"/><path class="cls-75" d="M108.45,114.52s0,.07,0,.11a6.51,6.51,0,0,1-2.45-1.84l.08-.05a6.4,6.4,0,0,0,2.35,1.78Z"/><path class="cls-75" d="M109.09,114.8a.18.18,0,0,1-.11,0,.84.84,0,0,1-.27-.17A2.39,2.39,0,0,0,109.09,114.8Z"/><path class="cls-75" d="M111.29,117.05h0l0,.2a19.15,19.15,0,0,0-.76-2.06,4.77,4.77,0,0,0-3-2.5l-.64-.29.16,0,.51.23a4.84,4.84,0,0,1,3,2.54A20,20,0,0,1,111.29,117.05Z"/><path class="cls-75" d="M105.52,114.05l-.07.06a2.75,2.75,0,0,1-.11-.57.83.83,0,0,1,.08-.12A3.62,3.62,0,0,0,105.52,114.05Z"/></g><path class="cls-76" d="M108.47,114.63a.55.55,0,0,1,0,.37.34.34,0,0,1-.06.06l-.11.06A1.67,1.67,0,0,1,107,115c-.7-.33-1.11-.51-1.36-1.06l-.16.15-.07.06-.54.49v0l0,0a.41.41,0,0,1,.06-.11,2.47,2.47,0,0,1,.44-.47.82.82,0,0,1,.3-.19,2,2,0,0,0,1.13.89c.83.28,1.38.06,1.61-.32,0,0,0,.09,0,.18h0S108.46,114.59,108.47,114.63Z"/><path class="cls-77" d="M109.16,114.67s0,.1-.07.13a.18.18,0,0,1-.11,0,.84.84,0,0,1-.27-.17,1.36,1.36,0,0,1-.3-.29s.33.32.53.27a.41.41,0,0,1,.34,0s0,.06,0,.14Z"/><path class="cls-78" d="M111.29,117.05h0l0,.2h0a4.89,4.89,0,0,1-.14.64s0,0,0,.08a7.78,7.78,0,0,1-.94,1.83l-.07.1a6.19,6.19,0,0,1-1,1.2l-.19.15h0l-.11.08a4.92,4.92,0,0,1-.45.28,6,6,0,0,1-.68.32l-.09,0a2.91,2.91,0,0,1-1.27.22l-.11,0a.27.27,0,0,1-.12,0,3.58,3.58,0,0,1-.64-.26,2.66,2.66,0,0,0,1.29,0,4.05,4.05,0,0,0,2.37-1.16,6.68,6.68,0,0,0,1.41-2.07,6.21,6.21,0,0,0,.4-2.66,6.78,6.78,0,0,0-.82-2.76A4.09,4.09,0,0,1,111.29,117.05Z"/><path class="cls-79" d="M108.28,119.69h0a2.76,2.76,0,0,1-.72.07c-.55,0-.4-.4-1.52-.47s-1.16-.31-1.27-.6v0s.4.27,1.37-.06a.87.87,0,0,1,1.12.33,3,3,0,0,0,1,.75Z"/><path class="cls-80" d="M108.25,119.7a2.76,2.76,0,0,1-.72.07c-.55,0-.4-.4-1.52-.47s-1.16-.31-1.27-.6a.86.86,0,0,0,1,.37c.53-.14.7-.28,1.15,0s1,.7,1.35.59c0,0,0,0,0,0S108.26,119.69,108.25,119.7Z"/><path class="cls-36" d="M106.39,116.3a2.34,2.34,0,0,1-.28,1c-.23.43-.44.89-.37,1.08s.27.34.69.3.51-.19.53-.24-.08-.32-.13-.18-.06.25-.35.29-.55-.09-.59-.23,0-.35.32-.87a2.1,2.1,0,0,0,.33-.9C106.54,116.3,106.44,116.05,106.39,116.3Z"/><path class="cls-81" d="M107.49,116.89c0,.12.06.7.43.76s.76-.45.76-.45a1.12,1.12,0,0,1-.73.14A.73.73,0,0,1,107.49,116.89Z"/><path class="cls-81" d="M104.81,116.46s.07.61.51.66a.84.84,0,0,0,.72-.41.89.89,0,0,1-.76.09A.65.65,0,0,1,104.81,116.46Z"/><path class="cls-82" d="M136.41,150.39l-1.9.16c-.67.06-.88-.11-3.31,0h0l-1,0c-3.35.14-12.18.24-14.08.25a5.65,5.65,0,0,1-2-.29h0a2.35,2.35,0,0,1-1.46-1.21,4.86,4.86,0,0,1,.87-4.22,12.09,12.09,0,0,1,1.57-1.93c.55-.55,1.14-1.05,1.88-1.69a7.41,7.41,0,0,0,2.75-3.14,8.14,8.14,0,0,0,2.77,1.05,5.75,5.75,0,0,0,1.52.07h.14a5.82,5.82,0,0,0,1.6-.32l.1,0,.15-.06.11-.06.11-.06.09-.06a1.33,1.33,0,0,0,.17-.16h0l0,0a1.19,1.19,0,0,1-.08.21.25.25,0,0,1,0,.07c-.11.27-.27.69-.46,1.14l-.13.31c-.08.19-.16.39-.24.57s-.24.52-.34.72c-.5,1-.31,1-.31,1a2.35,2.35,0,0,1,.85,1.4l0,.15h0c0,.19.09.37.14.54s.15.46.21.64.21.51.21.51a6.72,6.72,0,0,0,.78-.71,4.21,4.21,0,0,1,2.2,0,1.59,1.59,0,0,1,.35.13,2.13,2.13,0,0,1,.71.56A2.81,2.81,0,0,1,131,147h.06a1.83,1.83,0,0,1,1.71.71,2,2,0,0,1,.31.51h.12a2.43,2.43,0,0,1,1.69,1.6h0a.53.53,0,0,0,0,.11h0Z"/><path class="cls-83" d="M126.18,145.45c-.63.59-1.77,1.63-1.86,1.71a13.13,13.13,0,0,1-3.35,1.69,12,12,0,0,1-2,.42h0c-.86.12-1.51.15-1.51.15,4.61-1,5.14-1.9,6.26-2.55a3.81,3.81,0,0,0,1.87-2.18l.28-.42c0,.19.09.37.14.54S126.12,145.27,126.18,145.45Z"/><path class="cls-84" d="M136.41,150.39l-1.9.16c-.76.06-.92-.15-4.28,0s-12.18.24-14.08.25a5.65,5.65,0,0,1-2-.29,15.16,15.16,0,0,0,3.47-.91s.53-.12,1.28-.33h0a24.39,24.39,0,0,0,2.65-.86,11.47,11.47,0,0,0,4.38-3.6c.07.24.15.46.21.64s.21.51.21.51a6.72,6.72,0,0,0,.78-.71,4.21,4.21,0,0,1,2.2,0,1.59,1.59,0,0,1,.35.13,2.82,2.82,0,0,1-.66,2c.27-.17.77-.25,1.62.29,1.5.95,1.33,1.33,1.33,1.33l.87-.29a4.43,4.43,0,0,1,2.05,1.21h0Z"/><path class="cls-85" d="M126.55,138.66s-.26.69-.58,1.47l-1.56.21a16.5,16.5,0,0,1-2.23-.28,3.53,3.53,0,0,1-2.39-1.41l-.07.21-.32,1.54a19,19,0,0,1-2,1.73l-2.23,1c.55-.55,1.14-1.05,1.88-1.69a7.41,7.41,0,0,0,2.75-3.14,8.14,8.14,0,0,0,2.77,1.05C123.86,139.62,126,139.32,126.55,138.66Z"/><path class="cls-86" d="M125.84,140.44c-.08.19-.16.39-.24.57a14.68,14.68,0,0,1-2.36.24,13.9,13.9,0,0,1-2.73-.2,8,8,0,0,1-.54-.74,4.69,4.69,0,0,0,3,.57,13.82,13.82,0,0,0,2.58-.43Z"/><path class="cls-87" d="M129.91,135.35l0,0-.26-.27a26.59,26.59,0,0,1-2.72-3.3,6.66,6.66,0,0,1-1-3c0-.25,0-.47,0-.64a3.78,3.78,0,0,1,0-.48.06.06,0,0,1,0,0l.12,0a2.52,2.52,0,0,1,.8.39l.52.37c.21.16.44.34.66.54a3.68,3.68,0,0,1,.84,1.06,40.13,40.13,0,0,1,1,5.34Z"/><path class="cls-88" d="M114.58,142.67a4,4,0,0,1-1.53,1.44.19.19,0,0,1-.1,0c-.33,0,0-.24,0-.24l0,0h0c-.14.07-.77.4-.9.32l0,0c-.06-.08.23-.23.3-.27h0c-.11,0-.46.16-.57.09l0,0c-.08-.12.17-.27.34-.36h0l.14-.07a1.7,1.7,0,0,1-.26,0c-.07,0-.09-.05.11-.23a7.42,7.42,0,0,0,1-1.06c0-.12-.83-.12-1-.25s.08-.2.79-.35a7,7,0,0,1,1.37-.15h.05a1.54,1.54,0,0,1,.23.58A1.62,1.62,0,0,1,114.58,142.67Z"/><path class="cls-34" d="M114.58,142.67a4,4,0,0,1-1.53,1.44l.07-.06a9.76,9.76,0,0,0,.69-1,6.86,6.86,0,0,0,.4-1.51h.05a1.54,1.54,0,0,1,.23.58A1.62,1.62,0,0,1,114.58,142.67Z"/><path class="cls-34" d="M113,143a3,3,0,0,1-.56.45,1.52,1.52,0,0,1-.43.2l.14-.07a1.7,1.7,0,0,1-.26,0,2.75,2.75,0,0,0,.65-.31Z"/><path class="cls-34" d="M113.13,143.38a2.91,2.91,0,0,1-.83.57h0c-.11,0-.46.16-.57.09a2.05,2.05,0,0,0,.76-.27A6.55,6.55,0,0,0,113.13,143.38Z"/><path class="cls-34" d="M113.25,143.62a1.79,1.79,0,0,1-.33.3h0c-.14.07-.77.4-.9.32l0,0a3.47,3.47,0,0,0,.76-.32A3.76,3.76,0,0,0,113.25,143.62Z"/><path class="cls-89" d="M127.41,128.38l-1.1.08-.37.3c0-.25,0-.47,0-.64a3.78,3.78,0,0,1,0-.48l.13,0a2.52,2.52,0,0,1,.8.39Z"/><path class="cls-90" d="M125.93,128.21v-.09a5.77,5.77,0,0,1-.55.73,2.29,2.29,0,0,1-1.74,1c-.91-.07-.9-1.23-.82-1.89a2.58,2.58,0,0,1,.07-.39H123a2.09,2.09,0,0,0,.56.05,3.2,3.2,0,0,0,2.21-.78s0,0,0,0l.31,1.09Z"/><path class="cls-34" d="M125.93,128.21v-.09a5.77,5.77,0,0,1-.55.73,5.51,5.51,0,0,0-.2-1l-.93.12a3.43,3.43,0,0,1-1.43,0,2.58,2.58,0,0,1,.07-.39H123a2.09,2.09,0,0,0,.56.05,3.2,3.2,0,0,0,2.21-.78s0,0,0,0l.31,1.09Z"/><path class="cls-91" d="M122.61,127.48l0,0-.78,1.63c-.41.82-.89,1.79-1.26,2.48a12.4,12.4,0,0,1-2.23,2.75s0-.1,0-.14,0-.34.08-.52a19.13,19.13,0,0,1,1.31-4.65A4.73,4.73,0,0,1,122.61,127.48Z"/><path class="cls-92" d="M129.86,138.14a14.23,14.23,0,0,1-.7,3.67,7.39,7.39,0,0,1-.7,1.69h0a8.35,8.35,0,0,1-1.29,1.75,6.72,6.72,0,0,1-.78.71,8.63,8.63,0,0,1-.59-1.84,2.35,2.35,0,0,0-.85-1.4s-.19,0,.31-1c.36-.7.87-2,1.13-2.63.09-.25.15-.42.16-.43a1.43,1.43,0,0,1-.52.35h0a6.52,6.52,0,0,1-2.54.44,4.52,4.52,0,0,1-.93-.09,8.14,8.14,0,0,1-2.77-1.05,7.41,7.41,0,0,1-2.75,3.14l-.46.26a15.83,15.83,0,0,1-2,.91l-.12-.39-.21-.66s1.26-1.62,2.07-2.7a8.23,8.23,0,0,0,1.52-2.88,17.53,17.53,0,0,1,.49-1.75s0,.09,0,.14a12.77,12.77,0,0,0,1.34-1.45,8.52,8.52,0,0,0,.89-1.3l.06-.13h0c.54-1,1.26-2.51,1.67-3.36l.3-.62,0-.07.27.06v0a3.93,3.93,0,0,0,0,1.52h0a.87.87,0,0,0,.79.76,2.25,2.25,0,0,0,1.7-.95,6.38,6.38,0,0,0,.59-.78v.09a5.92,5.92,0,0,0,.11,1.29,6.56,6.56,0,0,0,.69,2,1.74,1.74,0,0,0,.11.18.41.41,0,0,0,0,.09,24,24,0,0,0,2.62,3.19c.15.17.28.3.36.38A10,10,0,0,1,129.86,138.14Z"/><path class="cls-93" d="M125.79,144c0,.51-.19,1.65-.53,1.88h0l-.07,0c-.2.06-.1-.13,0-.22a1.47,1.47,0,0,1-.1.13h0c-.26.33-.37.41-.49.45h0a.05.05,0,0,1,0,0c-.11,0-.08-.05,0-.14a.68.68,0,0,1,.09-.14,2.79,2.79,0,0,1-.77.59h0c-.07,0-.11,0-.13,0s.06-.23.14-.37h0l.08-.13c-.13.17-.63.66-.74.64h0c-.08,0,0-.3.28-.71a4.24,4.24,0,0,0,.37-1.26h0a2.55,2.55,0,0,1-.86.13.13.13,0,0,1-.1-.09c0-.09.12-.2.39-.28a8.3,8.3,0,0,0,1.14-.57,4.19,4.19,0,0,0,.59-1.15.73.73,0,0,1,0-.08,1.88,1.88,0,0,1,.54.58A3.43,3.43,0,0,1,125.79,144Z"/><path class="cls-34" d="M125.79,144c0,.51-.19,1.65-.53,1.88a3.24,3.24,0,0,0,.31-.81c0-.06-.12-1-.23-1.47a1.55,1.55,0,0,0-.41-.78.73.73,0,0,1,0-.08,1.88,1.88,0,0,1,.54.58A3.43,3.43,0,0,1,125.79,144Z"/><path class="cls-34" d="M124,144.55a1.38,1.38,0,0,0-.2.21,2.55,2.55,0,0,1-.86.13.13.13,0,0,1-.1-.09,4.8,4.8,0,0,0,.79-.16Z"/><path class="cls-34" d="M124.18,145.2a1.91,1.91,0,0,1-.32,1l0,.05.08-.13c-.13.17-.63.66-.74.64h0a3.38,3.38,0,0,0,.63-.62C123.89,145.88,124.18,145.2,124.18,145.2Z"/><path class="cls-34" d="M124.76,145.14a1.62,1.62,0,0,1-.25,1l0,0a.68.68,0,0,1,.09-.14,2.79,2.79,0,0,1-.77.59,2.57,2.57,0,0,0,.57-.57A2.41,2.41,0,0,0,124.76,145.14Z"/><path class="cls-34" d="M125.22,145.13a2.16,2.16,0,0,1-.16.64v0h0c-.26.33-.37.41-.49.45a1.53,1.53,0,0,0,.42-.5A3,3,0,0,0,125.22,145.13Z"/><path class="cls-94" d="M126.66,145.42a11.5,11.5,0,0,0-.51-2.5c-.27-.87-.37-.94-.37-.94a3.48,3.48,0,0,1,.83,1.77A4.18,4.18,0,0,1,126.66,145.42Z"/><path class="cls-95" d="M127.66,144.26a12,12,0,0,0,1.11-5.14,23.91,23.91,0,0,1-.54,2.88C127.78,143.85,127.66,144.26,127.66,144.26Z"/><path class="cls-96" d="M127.26,144.84a5.51,5.51,0,0,0-.38-3.09,9.92,9.92,0,0,1,.27,1.74C127.19,144.35,127.26,144.84,127.26,144.84Z"/><path class="cls-97" d="M123.49,139.46a4.52,4.52,0,0,1-.93-.09,8.14,8.14,0,0,1-2.77-1.05,7.41,7.41,0,0,1-2.75,3.14l-.46.26a15.83,15.83,0,0,1-2,.91l-.12-.39a13.47,13.47,0,0,0,1.45-.62,8.8,8.8,0,0,0,2.39-2,13.61,13.61,0,0,0,1.25-1.77,20.7,20.7,0,0,1-.11-2.61,18.6,18.6,0,0,1,.21-2.28,8.52,8.52,0,0,0,.89-1.3l.06-.13a8.25,8.25,0,0,0-.78,4.2,9.78,9.78,0,0,0,.25,2,1.25,1.25,0,0,0,.63.9,5,5,0,0,0,2.22.76Z"/><path class="cls-98" d="M126.64,134.94a24.3,24.3,0,0,0,.27,3,2.23,2.23,0,0,1-.52,1.18c.09-.25.15-.42.16-.43a1.43,1.43,0,0,1-.52.35,1.79,1.79,0,0,0,.69-1.07,14.93,14.93,0,0,1-.45-2.71,9.84,9.84,0,0,1,.19-2.89c.06-.23.17-.57.27-.88a1.74,1.74,0,0,0,.11.18A11.22,11.22,0,0,0,126.64,134.94Z"/><path class="cls-99" d="M129.86,138.14a14.23,14.23,0,0,1-.7,3.67,7.39,7.39,0,0,1-.7,1.69c.17-.76.49-2,.56-2.42.09-.55.33-2.32.49-3.37a9.2,9.2,0,0,0,0-2.78c.15.17.28.3.36.38A10,10,0,0,1,129.86,138.14Z"/><path class="cls-100" d="M122.63,127.46l.27.06v0a3.93,3.93,0,0,0,0,1.52,3.66,3.66,0,0,1-.35-.32s-.1-.28-.21-.62l.3-.62Z"/><path class="cls-101" d="M126,129.5a6,6,0,0,1-.7-.6,6.38,6.38,0,0,0,.59-.78v.09A5.92,5.92,0,0,0,126,129.5Z"/><path class="cls-102" d="M121.81,129.16c-.41.82-.89,1.79-1.26,2.48a12.4,12.4,0,0,1-2.23,2.75s0-.1,0-.14,0-.34.08-.52a7.43,7.43,0,0,0,1.51-1.64c.68-1,1.47-2.3,1.47-2.3Z"/><path class="cls-103" d="M126.26,129.46a10.68,10.68,0,0,0,1.19,2.69,15.59,15.59,0,0,0,1.9,2.2,10,10,0,0,0-1.35-2.06A15.66,15.66,0,0,1,126.26,129.46Z"/><path class="cls-104" d="M129.91,135.35l0,0-.26-.27-.21-.53-.11-1s-.48-.57-1.14-1.47a8.32,8.32,0,0,1-1-1.93c0,.08.41.69.88,1.34a17.5,17.5,0,0,0,1.13,1.37s-.64-1.43-1.12-2.42a3.34,3.34,0,0,0-.87-1.21l.5.32a6.51,6.51,0,0,1,1.33,2.64,8.2,8.2,0,0,1-.19-1,10.49,10.49,0,0,0-.74-2.24,3.68,3.68,0,0,1,.84,1.06,40.13,40.13,0,0,1,1,5.34Z"/><path class="cls-105" d="M118.91,132.16a7.79,7.79,0,0,1,2-3,3.17,3.17,0,0,0-1.17,1A5.3,5.3,0,0,0,118.91,132.16Z"/><path class="cls-106" d="M118.76,132.92a4.59,4.59,0,0,0,1.74-2.14,10.19,10.19,0,0,0-1,1.19Z"/><path class="cls-107" d="M119.4,144a13.31,13.31,0,0,1-2.2,2.44c-1,1-2.31,2.41-2.31,2.41s-.27-.3.58-1.16,2.2-2,2.62-2.43S119.4,144,119.4,144Z"/><path class="cls-108" d="M131.06,147a5.12,5.12,0,0,1-.72.86,2.38,2.38,0,0,1-1.43.57,2,2,0,0,0,1.52-2.47A2.81,2.81,0,0,1,131,147Z"/><path class="cls-109" d="M130.07,149.49a1.48,1.48,0,0,1-.32.06C129.64,149.55,129.8,149.52,130.07,149.49Z"/><path class="cls-110" d="M133.2,148.25a12.79,12.79,0,0,1-1.35.93,13,13,0,0,1-1.78.31,11.27,11.27,0,0,0,1.92-.8,3,3,0,0,0,.78-1,2,2,0,0,1,.31.51Z"/><path class="cls-111" d="M136.41,150.39l-1.9.16c-.67.06-.88-.11-3.31,0h0a2,2,0,0,1-.34-.06,22.59,22.59,0,0,0,2.5-.26,6.71,6.71,0,0,1,1.53-.34h0a.53.53,0,0,0,0,.11h0Z"/><path class="cls-112" d="M126.31,123.75c0,.23,0,.45-.08.63a2.93,2.93,0,0,1-.43.15h0c-.19.06-.44.12-.76.2a2.69,2.69,0,0,1-2.31-.33,2.33,2.33,0,0,1-1.1-1.49,8.54,8.54,0,0,1,1-1.76c.27-.41.5-1,.81-1.5l.13-.18a4.59,4.59,0,0,0,1.36,1.61,7,7,0,0,0,1.43,1A5.42,5.42,0,0,1,126.31,123.75Z"/><path class="cls-34" d="M126.31,123.75c0,.23,0,.45-.08.63a2.93,2.93,0,0,1-.43.15,9.73,9.73,0,0,0,.21-1.08,11.06,11.06,0,0,0,0-1.34,11.46,11.46,0,0,0-1.2-.86,3.22,3.22,0,0,1-1.43-1.53v-.07l.13-.18a4.59,4.59,0,0,0,1.36,1.61,7,7,0,0,0,1.43,1A5.42,5.42,0,0,1,126.31,123.75Z"/><path class="cls-113" d="M126.23,124.38c0,.12,0,.24,0,.37-.14.84-.29,1.53-.43,2.07a.06.06,0,0,1,0,0,1.85,1.85,0,0,1-.78.5l-.11,0h0a4.57,4.57,0,0,1-1.22.21,1.85,1.85,0,0,1-.41,0l-.09,0h0a2.18,2.18,0,0,1-.81-.39l-.09-.07a2.93,2.93,0,0,1-.68-.88h0a1.42,1.42,0,0,1-.08-.18,2.4,2.4,0,0,1-.16-.64,7,7,0,0,1,.34-2.56.22.22,0,0,1,0,.08,2,2,0,0,0,.34.78l.07.09a2.22,2.22,0,0,0,.63.58l.06,0h0a2.66,2.66,0,0,0,1.31.44h.09a3.92,3.92,0,0,0,.9-.12l.49-.12.09,0,.09,0c.29-.09.45-.15.52-.18Z"/><path class="cls-114" d="M129.58,122.72a2.19,2.19,0,0,1-.12.58,1.76,1.76,0,0,1-.58.89,10.85,10.85,0,0,1-.41,1.87c-.29,1-.61,1.84-.61,1.84a16.53,16.53,0,0,1-2.07.11h-.38s.14-.41.33-1.15c.14-.53.3-1.24.44-2.11,0-.13,0-.25,0-.37s.06-.44.08-.63a5.42,5.42,0,0,0,0-1.67,7,7,0,0,1-1.43-1,4.86,4.86,0,0,1-1.24-1.39,3,3,0,0,0-.6.6c.06-.1.3-.53.45-.76l0-.06h0l0,0,0,0h0c.06-.06.16-.16.3-.28s.26-.2.42-.3l.3-.18a2.82,2.82,0,0,1,2.59-.15,4.49,4.49,0,0,1,.94.56,3.28,3.28,0,0,1,.87,1,5.06,5.06,0,0,1,.52,1.77A3.9,3.9,0,0,1,129.58,122.72Z"/><path class="cls-115" d="M123.63,119.38v0Z"/><path class="cls-116" d="M123.55,119.46h0a.46.46,0,0,1,.07-.07Z"/><path class="cls-117" d="M129.61,122.73l-.13.58h0a28.81,28.81,0,0,1-3.31-1.91,7.46,7.46,0,0,1-2.22-2.29c.12-.09.26-.2.42-.3a7.81,7.81,0,0,0,2.37,2.27,12.59,12.59,0,0,0,2.86,1.65Z"/><path class="cls-75" d="M122.87,120.89a.9.9,0,0,0,.64.47.85.85,0,0,0,.46,0l0-.35a2.67,2.67,0,0,1-.76-.31,1.53,1.53,0,0,1-.23-.18Z"/><path class="cls-75" d="M125.12,122c-.12,0-.27.27-.27.27a1.57,1.57,0,0,0,.69.65.91.91,0,0,0,.68.07v-.3a3.75,3.75,0,0,1-.59-.29C125.48,122.25,125.12,122,125.12,122Z"/><g class="cls-118"><path class="cls-75" d="M122,123.78a9.47,9.47,0,0,0-.52,2.43,1.42,1.42,0,0,1-.08-.18,9.74,9.74,0,0,1,.53-2.34Z"/><path class="cls-75" d="M122.74,124.41a7.12,7.12,0,0,0-.45,2.76l-.09-.07a7,7,0,0,1,.47-2.74l.06,0Z"/><path class="cls-75" d="M125.62,124.58a8.76,8.76,0,0,1-.66,2.78l-.11,0a9,9,0,0,0,.68-2.79Z"/><path class="cls-75" d="M124.14,124.85a7.06,7.06,0,0,1-.92,2.74l-.09,0a7.13,7.13,0,0,0,.92-2.72Z"/></g><path class="cls-119" d="M126.23,124.38c0,.12,0,.24,0,.37-.14.84-.29,1.53-.43,2.07a.06.06,0,0,1,0,0,1.85,1.85,0,0,1-.78.5l-.11,0h0a4.57,4.57,0,0,1-1.22.21,1.85,1.85,0,0,1-.41,0l-.09,0h0a2.18,2.18,0,0,1-.81-.39l-.09-.07a2.93,2.93,0,0,1-.68-.88l.8.6a3,3,0,0,0,1.28.38,2,2,0,0,0,1.46-.83,8.23,8.23,0,0,0,.65-1.81c.29-.09.45-.15.52-.18Z"/><path class="cls-120" d="M129.58,122.72a2.19,2.19,0,0,1-.12.58,1.76,1.76,0,0,1-.58.89,10.85,10.85,0,0,1-.41,1.87,2,2,0,0,0-1.36,0,8.47,8.47,0,0,0-1.32,2h-.38s.14-.41.33-1.15c.14-.53.3-1.24.44-2.11,0-.13,0-.25,0-.37s.06-.44.08-.63a5.42,5.42,0,0,0,0-1.67,7,7,0,0,1-1.43-1,4.86,4.86,0,0,1-1.24-1.39,3,3,0,0,0-.6.6c.06-.1.3-.53.45-.76a14.11,14.11,0,0,0,2.72,1.8,2.91,2.91,0,0,0,2.4,0,2.19,2.19,0,0,0,.41-1.3,5.06,5.06,0,0,1,.52,1.77A3.9,3.9,0,0,1,129.58,122.72Z"/><path class="cls-121" d="M128.18,119l-.06,0a4.25,4.25,0,0,1-3.47-.45,2.82,2.82,0,0,1,2.59-.15A4.49,4.49,0,0,1,128.18,119Z"/><path class="cls-36" d="M123.71,122.11a4.48,4.48,0,0,0-1.27,1.75.52.52,0,0,0,.36.35c.31.09.52,0,.55-.06s-.17,0-.46-.1-.29-.24-.29-.24.19-.38.48-.83S123.71,122.11,123.71,122.11Z"/><path class="cls-81" d="M124.3,122.7a.78.78,0,0,0,.29.74c.28.22.79,0,.79,0a2.43,2.43,0,0,1-.7-.21A1.53,1.53,0,0,1,124.3,122.7Z"/><path class="cls-81" d="M122.43,121.58a.63.63,0,0,0,.18.58c.26.22.71,0,.71,0a1.48,1.48,0,0,1-.55-.17A.83.83,0,0,1,122.43,121.58Z"/><path class="cls-122" d="M123.39,125.63s0,0,0,0a1.1,1.1,0,0,0-1-.41.05.05,0,0,1-.06,0s0,0,0,0a1.18,1.18,0,0,1,1.13.45,0,0,0,0,1,0,.06Z"/><path class="cls-123" d="M82.65,127.45a21.48,21.48,0,0,0-2.83,4.36c-.16.33-.31.65-.45,1a19.12,19.12,0,0,0-.91,2.61c0-1,0-2,0-2.64a10.84,10.84,0,0,0-.18-2.5c0-.15-.91-1.33-.91-1.33a1.58,1.58,0,0,1-.23.58.78.78,0,0,1-1,.25c-.86-.32-.46-1.72-.46-1.72a13.39,13.39,0,0,0-2.15.27c.13-.23.25-.46.37-.66.26-.48.62-1.16,1-1.88a11.33,11.33,0,0,1,2.83-3.35h0a4.25,4.25,0,0,1,1.09-.58c2.36-.8,4-.32,4.35,1.2a6.68,6.68,0,0,1,.21,1.57A4.33,4.33,0,0,1,82.65,127.45Z"/><path class="cls-124" d="M76.66,140.55l-1.12-.65c-.56-.35-.83-.51-.94-.59l-.43-1.19s.94-1.2,1.16-1.56l.43-.15s.33,1.89.55,3A7.85,7.85,0,0,0,76.66,140.55Z"/><path class="cls-125" d="M76.31,139.42a7.85,7.85,0,0,0,.35,1.13l-1.12-.65c-.56-.35-.83-.51-.94-.59l-.43-1.19s.94-1.2,1.16-1.56l.43-.15S76.09,138.3,76.31,139.42Z"/><path class="cls-126" d="M79.37,132.78a19.12,19.12,0,0,0-.91,2.61c0-1,0-2,0-2.64a10.84,10.84,0,0,0-.18-2.5c0-.15-.91-1.33-.91-1.33a1.58,1.58,0,0,1-.23.58.78.78,0,0,1-1,.25c-.86-.32-.46-1.72-.46-1.72a13.39,13.39,0,0,0-2.15.27c.13-.23.25-.46.37-.66.26-.48.62-1.16,1-1.88a11.33,11.33,0,0,1,2.83-3.35c-.3,1.91-.51,3.77.07,5.23.73,1.81,1.38,4.57,1.49,4.67A1.87,1.87,0,0,1,79.37,132.78Z"/><path class="cls-127" d="M82,129.58a12.94,12.94,0,0,1-.89,1.07,15.28,15.28,0,0,0-2.22,3.7c-.24.54-.41,1-.45,1.05h0a19.93,19.93,0,0,1,1.36-3.58,21.48,21.48,0,0,1,2.83-4.36,4.33,4.33,0,0,0,.72-2.85,6.68,6.68,0,0,0-.21-1.57c-.4-1.52-2-2-4.35-1.2-1.62.55-3,2.36-3.92,3.93-.43.72-.79,1.4-1,1.88-.12.2-.24.43-.37.66-.8,1.45-1.83,3.25-2.42,4.16A16.59,16.59,0,0,0,69.74,137c0,.17-.1.45-.2.79,0,.13-.07.27-.11.41-.21.79-.48,1.83-.69,2.83a10.69,10.69,0,0,0-.3,2.61,4.42,4.42,0,0,0,1,2.36,10.49,10.49,0,0,0,1.3,1c-.1-.05-1-.61-1.51-.41-.89.4-.91,1-.91,1s-.38-.35-1,.32l-.17.21-.35,0c-.33,0-1.18,1-1.18,1-.22-1.38,1.25-2.67,1.25-2.67s.08-.4.19-1.08.26-1.7.39-2.87a58.71,58.71,0,0,1,.69-6.64A27.61,27.61,0,0,1,72,128.32c1.59-2.24,3-5.6,4.28-7a4.8,4.8,0,0,1,4.32-1.91c.12,0,.24,0,.35.06,1.65.33,2.49,1.64,2.85,3.25a9.33,9.33,0,0,1,.2,1.61A9,9,0,0,1,82,129.58Z"/><path class="cls-128" d="M83.16,127.06A22.21,22.21,0,0,0,82,129.58a12.94,12.94,0,0,1-.89,1.07,15.28,15.28,0,0,0-2.22,3.7c-.24.54-.41,1-.45,1.05h0a19.93,19.93,0,0,1,1.36-3.58,21.48,21.48,0,0,1,2.83-4.36,4.33,4.33,0,0,0,.72-2.85,6.68,6.68,0,0,0-.21-1.57c-.4-1.52-2-2-4.35-1.2-1.62.55-3,2.36-3.92,3.93-.43.72-.79,1.4-1,1.88-.12.2-.24.43-.37.66-.8,1.45-1.83,3.25-2.42,4.16A16.59,16.59,0,0,0,69.74,137c0,.17-.1.45-.2.79,0,.13-.07.27-.11.41-.21.79-.48,1.83-.69,2.83a10.69,10.69,0,0,0-.3,2.61,4.42,4.42,0,0,0,1,2.36,10.49,10.49,0,0,0,1.3,1c-.1-.05-1-.61-1.51-.41-.89.4-.91,1-.91,1s-.38-.35-1,.32l-.17.21-.35,0c-.33,0-1.18,1-1.18,1-.22-1.38,1.25-2.67,1.25-2.67s.08-.4.19-1.08a1.32,1.32,0,0,1,.79.58A14.55,14.55,0,0,1,68,141.6a43.82,43.82,0,0,1,1.52-5c.4-1.24.14-2.8,1.41-4.86s2.18-3.81,3.45-5.66,1.89-3,4-4.28,4.09-.65,4.68.51A6,6,0,0,1,83.16,127.06Z"/><path class="cls-129" d="M74.55,139.28Z"/><path class="cls-129" d="M74.59,139.31Z"/><path class="cls-129" d="M70.34,146.75l.2.11Z"/><path class="cls-130" d="M78.46,135.4h0a.16.16,0,0,0,0,0Z"/><path class="cls-130" d="M78.91,134.35c-.24.54-.41,1-.45,1.05v0C78.6,135.1,78.75,134.73,78.91,134.35Z"/><polygon class="cls-130" points="68.74 141.02 68.74 141.02 68.74 141.02 68.74 141.02"/><path class="cls-130" d="M69.54,137.78c0,.13-.07.27-.11.41a.39.39,0,0,0,.09-.11A.53.53,0,0,0,69.54,137.78Z"/><path class="cls-129" d="M68.74,141c.21-1,.48-2,.69-2.83C69.22,139,69,140,68.74,141Z"/><path class="cls-129" d="M78.45,135.43v0h0A.16.16,0,0,0,78.45,135.43Z"/><path class="cls-131" d="M67.35,147.91a6.86,6.86,0,0,0-.6.89,5,5,0,0,0-.38,1.25s-.17,0-.84.06a6.45,6.45,0,0,1-1.9-.06s0,0,0-.07.59-.27,1.31-.64a3.74,3.74,0,0,0,1.38-1.16,1.12,1.12,0,0,1,.56-.33A1.11,1.11,0,0,1,67.35,147.91Z"/><path class="cls-34" d="M67.35,147.91a6.86,6.86,0,0,0-.6.89,5,5,0,0,0-.38,1.25s-.17,0-.84.06a6.45,6.45,0,0,1-1.9-.06s0,0,0-.07a9.09,9.09,0,0,0,1.36,0c1-.11,1.26-.3,1.26-.3s.17-.58.22-.88a2,2,0,0,1,.41-.9A1.11,1.11,0,0,1,67.35,147.91Z"/><path class="cls-132" d="M82.71,124.47l-.06.2a11.41,11.41,0,0,1-.65,1.47c-.11.2-.22.4-.35.59s-.14.22-.22.33a3.24,3.24,0,0,1-.29.34l0,0a1.14,1.14,0,0,0-.11.11l-.07,0a3.77,3.77,0,0,1-1.28.73,3.23,3.23,0,0,1-1,.11,3.56,3.56,0,0,1-1.19-.33h0a2.51,2.51,0,0,1-1.15-1.15,1.94,1.94,0,0,1-.16-.48v-.73A3.68,3.68,0,0,1,76.5,124c1.57-.55,1.74-1.38,1.74-1.38,2.88.25,3.45-.85,3.45-.85a4.4,4.4,0,0,0,.25,1.44A2.08,2.08,0,0,0,82.71,124.47Z"/><path class="cls-133" d="M79.66,128.31a3.43,3.43,0,0,0,1.28-.73A3.77,3.77,0,0,1,79.66,128.31Z"/><path class="cls-134" d="M83.37,124.6l0,.22s0,.05,0,.08a4.82,4.82,0,0,1-.22.73c-.07.17-.14.31-.2.43l-.1.17h0c-.36.56-.66.54-.66.54h0a2.45,2.45,0,0,1-.67,1.38h0a1.84,1.84,0,0,1-.22.17h0l-.18.09a2.1,2.1,0,0,1-1.08.14h0l-.16,0a1.56,1.56,0,0,1-.39-.15l.24-.06a3.43,3.43,0,0,0,1.28-.73l.07,0a1.14,1.14,0,0,1,.11-.11l0,0a3.24,3.24,0,0,0,.29-.34l.18-.26.12-.2h0a7.77,7.77,0,0,0,.48-.88h0s.05-.09.07-.14h0c.16-.35.28-.66.35-.86h0l0-.09h0c0-.08,0-.13,0-.14h0a2.08,2.08,0,0,1-.77-1.23,4.4,4.4,0,0,1-.25-1.44s-.57,1.1-3.45.85c0,0-.17.83-1.74,1.38a3.59,3.59,0,0,0-.37,1.35c0,.11,0,.23,0,.34v.73a0,0,0,0,0,0,0,8.35,8.35,0,0,1-.16.94,2.37,2.37,0,0,1-.34-.1l-.07,0a1.29,1.29,0,0,1-.38-.3l-.07-.11a1.6,1.6,0,0,1-.19-1c.12-.19.24-.38.37-.57s.09-.15.14-.23c.25-.37.51-.73.8-1.08l.19-.23a6,6,0,0,1,2.42-1.82,6.5,6.5,0,0,1,2-.38H81a3,3,0,0,1,.7.1h0l0,0,.07,0,.07,0,.24.1.09.05a2,2,0,0,1,1,1.27,6.65,6.65,0,0,1,.17.91s0,.07,0,.11A5.07,5.07,0,0,1,83.37,124.6Z"/><path class="cls-135" d="M82,143.85A33.19,33.19,0,0,0,79.09,142c-.07-.51-.16-1-.25-1.52a42.53,42.53,0,0,1-.38-5v-.06c0-1,0-2,0-2.64,0-.4,0-.74,0-1a6.88,6.88,0,0,0-.16-1.47c0-.15-.91-1.33-.91-1.33a1.58,1.58,0,0,1-.23.58.52.52,0,0,1-.1.11.78.78,0,0,1-.91.14,1,1,0,0,1-.55-1.15,3.26,3.26,0,0,1,.09-.57,13.39,13.39,0,0,0-2.15.27c-.17.32-.36.65-.55,1l-.22.39c-.11.18-.21.36-.31.55-.51.88-1,1.7-1.34,2.23a4.55,4.55,0,0,0-.43.91l-.06.16c-.1.28-.18.58-.26.88-.27,1-.46,2.07-.56,2.58,0,.17-.1.45-.2.79a.53.53,0,0,1,0,.3.27.27,0,0,1-.09.11c-.21.79-.48,1.82-.69,2.82h0a10.69,10.69,0,0,0-.3,2.61,4.13,4.13,0,0,0,.77,2.26,7.14,7.14,0,0,0,1.13.86.8.8,0,0,1,.18.1l-.18-.1a2,2,0,0,0-.76-.25.84.84,0,0,0-.44.07c-.87.42-.85,1-.85,1s-.38-.35-1,.32l-.17.21a4.42,4.42,0,0,0-.59,1.07l0,0a4.37,4.37,0,0,0-.23.84s3.08.18,5.15.22,8.76,0,10-.09,3.19-.55,3.3-1.89v-.05C84.8,146.92,83.58,145.07,82,143.85Zm-7.44-6.24h0c.29-.37.64-.85.77-1.05l.36-.13.07,0,0,.14c.07.44.33,1.93.52,2.87a7.85,7.85,0,0,0,.35,1.13l-.07,0-1-.56-.1,0-.93-.58h0l0-.12h0l-.12-.32-.26-.74Z"/><path class="cls-136" d="M78.48,123.67a1.94,1.94,0,0,1,1.24.24c.24.22.5.19.43-.1s-.56-.43-1-.41A1.36,1.36,0,0,0,78.48,123.67Z"/><path class="cls-136" d="M81.43,124.66c.2.26.73.15.92.46a.47.47,0,0,0-.34-.6C81.53,124.35,81.26,124.44,81.43,124.66Z"/><path class="cls-133" d="M81.12,127.42a1.14,1.14,0,0,0-.11.11A1.14,1.14,0,0,1,81.12,127.42Z"/><path class="cls-137" d="M73.47,128.3a13.39,13.39,0,0,1,2.15-.27,3.26,3.26,0,0,0-.09.57,8.07,8.07,0,0,1-.92.2,4.06,4.06,0,0,0-1.69.49C73.11,129,73.3,128.62,73.47,128.3Z"/><path class="cls-138" d="M75.65,144.28c1.7,1,3.7,2,5.08,2.76s1.92.47,1.85.18a26.48,26.48,0,0,0-2.86-2.79c-.51-.44-1.09-.87-1.09-.87a16.1,16.1,0,0,1-2.47-.44,17.56,17.56,0,0,0-3.08-.72A17.87,17.87,0,0,0,75.65,144.28Z"/><path class="cls-137" d="M78.39,131.72a10.39,10.39,0,0,0-.75-1.18,7.39,7.39,0,0,1-.65-.93.52.52,0,0,0,.1-.11,1.58,1.58,0,0,0,.23-.58s.87,1.18.91,1.33A6.88,6.88,0,0,1,78.39,131.72Z"/><path class="cls-137" d="M78.53,143.4l-.18,0a6.54,6.54,0,0,1-.81-1,7.56,7.56,0,0,1-1-1.9l.07,0a7.85,7.85,0,0,1-.35-1.13c-.19-.94-.45-2.43-.52-2.87l0-.14-.07,0-.36.13c-.13.2-.48.68-.77,1.05h0l-.25-.58a3.44,3.44,0,0,0,.84-.65c.14-.26,1-.26,1.7-1.06a3.6,3.6,0,0,0,.51-2.35s.32,1.88-.22,2.54a4.18,4.18,0,0,1-.53.5,12,12,0,0,0,.11,2.22,22,22,0,0,0,.53,2.87A14.21,14.21,0,0,0,78.53,143.4Z"/><path class="cls-139" d="M76.21,148.86c-.11,0-3-1.06-4-1.37a6.43,6.43,0,0,0-1.93-.37,3.61,3.61,0,0,0-1.58.8,3,3,0,0,0-.89,1.45,2.51,2.51,0,0,1,.46-1.52s-.12-.07-.87.51a4.93,4.93,0,0,0-.85.87,4.4,4.4,0,0,1,.61-1.11l.17-.21c.62-.67,1-.32,1-.32s0-.6.85-1a.84.84,0,0,1,.44-.07,2,2,0,0,1,.76.25,7.14,7.14,0,0,1-1.13-.86,4.13,4.13,0,0,1-.77-2.26,10.69,10.69,0,0,1,.3-2.61h0c.21-1,.48-2,.69-2.82a.27.27,0,0,0,.09-.11.53.53,0,0,0,0-.3c.1-.34.17-.62.2-.79.1-.51.29-1.57.56-2.58.08-.3.16-.6.26-.88l.06-.16a2.37,2.37,0,0,0,0,.41c0,.34.21,1.18.21,1.18-.16,1-.33,1.62-.43,2.11s.41,1.2.41,1.2l2.06.83,1.53-.24.33-.05,0,.36-.18,0a9.08,9.08,0,0,1-1.78.05c-.36-.09-1.93-.6-1.93-.6a3.12,3.12,0,0,0-.82,1.67,10.73,10.73,0,0,0,0,3.55,4.91,4.91,0,0,0,.72,1.79,7.07,7.07,0,0,0,2.81,1.89A23.86,23.86,0,0,1,76.21,148.86Z"/><path class="cls-129" d="M77.4,142.8a3.9,3.9,0,0,1-.65,0,6.64,6.64,0,0,1-.7,0l-.19,0a18.17,18.17,0,0,1-3.17-3.6,15,15,0,0,1-2.13-5.64,5.13,5.13,0,0,1,.49-1.07l.42-.67.92-1.56c.1-.19.2-.37.31-.55.08.69.1,2.5.1,2.5a14.65,14.65,0,0,0,1.76,5.43.36.36,0,0,1,0,.11c.06.17.13.34.2.52a.61.61,0,0,1,.07.14c.23.54.5,1.07.77,1.57A31.87,31.87,0,0,0,77.4,142.8Z"/><path class="cls-137" d="M76.05,142.8l-.19,0a18.17,18.17,0,0,1-3.17-3.6,15,15,0,0,1-2.13-5.64,5.13,5.13,0,0,1,.49-1.07l.42-.67a16.45,16.45,0,0,0,3.46,9.56C75.43,142,75.81,142.5,76.05,142.8Z"/><path class="cls-140" d="M84.72,148.26v.05c-.11,1.34-2.07,1.78-3.3,1.89s-7.93.12-10,.09-5.15-.22-5.15-.22a4.37,4.37,0,0,1,.23-.84l0,0a1.89,1.89,0,0,0,1.32.61,40.2,40.2,0,0,1,4.43,0,54,54,0,0,0,7.94.11A8.76,8.76,0,0,0,84.72,148.26Z"/><path class="cls-141" d="M77.44,128.09s0,.16,0,.31a3.31,3.31,0,0,1-.32,1.1.78.78,0,0,1-1,.25,1,1,0,0,1-.56-1,2.72,2.72,0,0,1,.1-.7,1.6,1.6,0,0,0,.32-.67,8.35,8.35,0,0,0,.16-.94,0,0,0,0,1,0,0A2.39,2.39,0,0,0,77.44,128.09Z"/><path class="cls-34" d="M77.44,128.09s0,.16,0,.31a3.58,3.58,0,0,0-.85,0l-1,.35a2.72,2.72,0,0,1,.1-.7,1.6,1.6,0,0,0,.32-.67,8.35,8.35,0,0,0,.16-.94,0,0,0,0,1,0,0A2.39,2.39,0,0,0,77.44,128.09Z"/><path class="cls-142" d="M79.61,143.33h-.07l-.66,0a1.7,1.7,0,0,0-.35.06,1,1,0,0,0-.23.07s-.07.95.08,1h0c.13,0,.16-.48.17-.43s.18,1.23.33,1.29h0c.12,0,.08-.58,0-.87,0,0,0,.05,0,.07,0,.32.12.87.24.93h0c.18,0,.12-1.28.12-1.28a.32.32,0,0,0,0,.07c.06.2.2.71.27.71h0c.07,0,0-.61-.06-.8v-.05c0,.06.18.52.27.43h0C80,144.37,79.61,143.33,79.61,143.33ZM79,144.39v0h0v0h0v0Z"/><path class="cls-34" d="M78.53,143.42a8,8,0,0,0-.12,1h0c-.15,0-.08-1-.08-1A1,1,0,0,1,78.53,143.42Z"/><path class="cls-34" d="M78.93,145.31h0a4.39,4.39,0,0,0,0-1c0-.37,0,0,0,0v.09h0v.05C79,144.73,79.05,145.28,78.93,145.31Z"/><path class="cls-34" d="M79.37,144.17s.06,1.26-.12,1.28h0a5.45,5.45,0,0,0,.09-1.17l0-.37a.81.81,0,0,1,.1.34A.32.32,0,0,1,79.37,144.17Z"/><path class="cls-34" d="M79.66,145h0a4.56,4.56,0,0,0-.16-1,1.37,1.37,0,0,1,.11.21C79.63,144.34,79.73,144.92,79.66,145Z"/><path class="cls-34" d="M79.87,144.52h0a6.17,6.17,0,0,0-.32-1.2h.07S80,144.37,79.87,144.52Z"/><path class="cls-34" d="M82.71,124.47l-.06.2a3.53,3.53,0,0,1-.83-.92,2.74,2.74,0,0,1-.35-1.5,6.24,6.24,0,0,1-1.59.78,2.62,2.62,0,0,1-1.63-.09,3.3,3.3,0,0,1-.69,1,2,2,0,0,1-1,.51,12.4,12.4,0,0,0,0,2.21,2.79,2.79,0,0,0,.81,1.37,2.36,2.36,0,0,1-1.31-1.63v-.73A3.68,3.68,0,0,1,76.5,124c1.57-.55,1.74-1.38,1.74-1.38,2.88.25,3.45-.85,3.45-.85a4.4,4.4,0,0,0,.25,1.44A2.08,2.08,0,0,0,82.71,124.47Z"/><path class="cls-143" d="M77.73,143.49h0c0,.05.85.94.81,1.05s0,0,0,0-.36-.13-.56-.29h0l0,0,.09.09,0,0a.75.75,0,0,1,.12.14h0c.1.12.16.24.11.29h0c-.16,0-.71-.43-.91-.61h0l-.06,0s.44.49.3.56h0a1.8,1.8,0,0,1-.55-.45h0l-.12-.12.15.17h0a.69.69,0,0,1,.11.18s0,0-.07,0a2.44,2.44,0,0,1-.42-.36,3,3,0,0,1-.67-1.34l.19,0,.33,0a8.63,8.63,0,0,0,1,.06s1.08.5,1.13.78S77.89,143.57,77.73,143.49Z"/><path class="cls-34" d="M77,144.47a2.44,2.44,0,0,1-.42-.36,3,3,0,0,1-.67-1.34l.19,0a5.72,5.72,0,0,0,.48,1.08C76.75,144.11,76.91,144.33,77,144.47Z"/><path class="cls-34" d="M77,144.27a.69.69,0,0,1,.11.18A1.74,1.74,0,0,1,77,144.27Z"/><path class="cls-34" d="M76.93,144.22h0a1,1,0,0,1-.13-.25,4.29,4.29,0,0,0,.68.71A1.8,1.8,0,0,1,76.93,144.22Z"/><path class="cls-34" d="M78.19,144.77c-.16,0-.71-.43-.91-.61h0c-.15-.19-.14-.27-.14-.27A4.84,4.84,0,0,0,78.19,144.77Z"/><path class="cls-34" d="M78,144.33a.75.75,0,0,1,.12.14l0-.05Z"/><path class="cls-34" d="M78.47,144.56c-.1.06-.36-.13-.56-.29h0c-.17-.19-.28-.34-.3-.36A5.37,5.37,0,0,0,78.47,144.56Z"/><path class="cls-34" d="M77.73,143.49a.61.61,0,0,1-.12-.14,3.36,3.36,0,0,1,.93.32C78.59,143.91,77.89,143.57,77.73,143.49Z"/><path class="cls-144" d="M83.37,124.6a4.3,4.3,0,0,1-.27,1c-.48,1.18-1,1.14-1,1.14a2.15,2.15,0,0,1-1.08,1.64,1.85,1.85,0,0,1-1.63,0l.24-.06a3.43,3.43,0,0,0,1.28-.73l.07,0a1.14,1.14,0,0,1,.11-.11l0,0a3.24,3.24,0,0,0,.29-.34,9.9,9.9,0,0,0,1.28-2.58h0a3.28,3.28,0,0,0,.16-1.88,2.16,2.16,0,0,0-2-1,6.4,6.4,0,0,0-3.5,1.21,3.73,3.73,0,0,0-1.27,2.49c0,.05,0,.1,0,.14s0,.23,0,.34v.73a0,0,0,0,0,0,0,8.35,8.35,0,0,1-.16.94,1.29,1.29,0,0,1-1-1.6c1-1.57,2.3-3.38,3.92-3.93,2.36-.8,4-.32,4.35,1.2A6.68,6.68,0,0,1,83.37,124.6Z"/><g class="cls-43"><path class="cls-145" d="M81.74,121.57s0,0,0,0c-.11.24-1.2,1-3.54,1A4.42,4.42,0,0,1,76.48,124s-.6.34-.78,1.79a12.67,12.67,0,0,0-.1,1.5l-.07,0a11.75,11.75,0,0,1,.1-1.46c.18-1.5.79-1.84.82-1.86a4.19,4.19,0,0,0,1.7-1.34h0c2.51-.08,3.43-.85,3.5-1h0A0,0,0,0,1,81.74,121.57Z"/></g><g class="cls-43"><path class="cls-145" d="M75.4,125a5,5,0,0,0-.25,2l-.07-.11a5,5,0,0,1,.18-1.62C75.3,125.11,75.35,125,75.4,125Z"/><path class="cls-145" d="M81,121.45a4.54,4.54,0,0,1-.84.46,7.5,7.5,0,0,1-2,.55c-.48.37-1.38,1-1.9,1.42l.19-.23c.53-.39,1.26-.93,1.67-1.25h0a7.25,7.25,0,0,0,2-.54,5.28,5.28,0,0,0,.75-.4Z"/></g><g class="cls-43"><path class="cls-145" d="M83.34,124.82s0,.05,0,.08a7.76,7.76,0,0,1-.87-1,4.6,4.6,0,0,1-.64-2.33l.07,0a4.55,4.55,0,0,0,.63,2.27A8.54,8.54,0,0,0,83.34,124.82Z"/></g><g class="cls-43"><path class="cls-145" d="M83.34,124.05a5.2,5.2,0,0,1-1.22-2.34l.09.05a5.17,5.17,0,0,0,1.12,2.18S83.34,124,83.34,124.05Z"/></g><g class="cls-43"><path class="cls-145" d="M81.73,126.6a2.82,2.82,0,0,1-.39,1,2.39,2.39,0,0,1-1.37.91h0l-.16,0a2.36,2.36,0,0,0,1.47-.92,2.57,2.57,0,0,0,.33-.8Z"/></g><g class="cls-43"><path class="cls-145" d="M82.28,125.58a3.64,3.64,0,0,1-.15,1.19h0a4.23,4.23,0,0,1-.67,1.38h0a1.84,1.84,0,0,1-.22.17,4.11,4.11,0,0,0,1-2.6h0S82.26,125.63,82.28,125.58Z"/></g><g class="cls-43"><path class="cls-145" d="M82.9,126.06l-.1.17a2.44,2.44,0,0,0-.17-1.52h0l0-.09A2.4,2.4,0,0,1,82.9,126.06Z"/></g><path class="cls-36" d="M80.66,124.88a1.06,1.06,0,0,0-.53.76c-.08.46-.11.94-.23,1a.67.67,0,0,1-.75-.21.47.47,0,0,0,.27.39.61.61,0,0,0,.63-.12,4.54,4.54,0,0,0,.18-1A1.74,1.74,0,0,1,80.66,124.88Z"/><path class="cls-146" d="M78.42,127.26a1.11,1.11,0,0,1,.75,0c.29.16.24.33.24.33a1,1,0,0,0-.48-.24A2.17,2.17,0,0,0,78.42,127.26Z"/><path class="cls-147" d="M78.48,124.64a4.58,4.58,0,0,0-1.13.88,10.16,10.16,0,0,0-1.08,1.41l0-.06,0,0-.06-.18a.09.09,0,0,1,0-.05.83.83,0,0,1,0-.15h0v-.19a14,14,0,0,1,1.09-1.18,3,3,0,0,1,1.28-.68v.13s0,0,0,0h0s0,0,0,0S78.48,124.64,78.48,124.64Z"/><path class="cls-148" d="M82,126.14v0l0,.06c-.07.11-.13.23-.21.35l-.06.1,0,.06a4.85,4.85,0,0,0,.14-.58h0a.53.53,0,0,0,0-.25h0l.05,0,0,0,0,0A1.18,1.18,0,0,1,82,126.14Z"/><g class="cls-149"><path class="cls-6" d="M78.52,124.44a0,0,0,0,1,0,0h0a3.12,3.12,0,0,0-1.64,1.1l-.73.88h0v0l.7-.85a3.25,3.25,0,0,1,1.67-1.12h0S78.52,124.43,78.52,124.44Z"/><path class="cls-6" d="M78.5,124.61l-.25.06a3.24,3.24,0,0,0-.88.61c-.29.32-.91,1.26-1.13,1.59l0,0c.23-.35.84-1.26,1.12-1.57a2.9,2.9,0,0,1,.58-.45,2.77,2.77,0,0,0-.79.59,10.33,10.33,0,0,0-1,1.25.09.09,0,0,1,0-.05,11,11,0,0,1,.95-1.23,2.88,2.88,0,0,1,1.14-.73l.24-.11s0,0,0,0h0S78.5,124.6,78.5,124.61Z"/><path class="cls-6" d="M81.75,126.57l-.06.1a2.86,2.86,0,0,0,.1-.52h0a.53.53,0,0,0,0-.25h0A2.21,2.21,0,0,1,81.75,126.57Z"/><path class="cls-6" d="M82,126.16l0,.06a1.67,1.67,0,0,0-.09-.37l0,0A2.28,2.28,0,0,1,82,126.16Z"/></g><path class="cls-81" d="M78.46,124.38a.68.68,0,0,0,1.16.6,1.37,1.37,0,0,1-.76-.11A.7.7,0,0,1,78.46,124.38Z"/><path class="cls-81" d="M80.83,125.28a.7.7,0,0,0,.26.66.75.75,0,0,0,.87-.14,1.21,1.21,0,0,1-.73-.1A.86.86,0,0,1,80.83,125.28Z"/><path class="cls-150" d="M83.83,122.69c-.67-.66-1.61-1.6-2-2s-.79-.53-1.22-1.33c.12,0,.24,0,.35.06C82.63,119.77,83.47,121.08,83.83,122.69Z"/></g></g></g></svg>