<svg xmlns="http://www.w3.org/2000/svg" xmlns:xlink="http://www.w3.org/1999/xlink" viewBox="0 0 356.87 187.26"><defs><style>.cls-1{fill:url(#linear-gradient);}.cls-2{isolation:isolate;}.cls-3{clip-path:url(#clip-path);}.cls-4{opacity:0.27;}.cls-12,.cls-13,.cls-16,.cls-4,.cls-7,.cls-9{mix-blend-mode:multiply;}.cls-5{fill:url(#linear-gradient-4);}.cls-6{fill:#fff;}.cls-7{fill:#ccc;opacity:0.6;}.cls-8,.cls-9{fill:#006837;}.cls-13,.cls-16,.cls-9{opacity:0.7;}.cls-10{fill:#029149;}.cls-11,.cls-12,.cls-13{fill:#c1272d;}.cls-14{fill:#ff7171;}.cls-15,.cls-16{fill:#0071bc;}.cls-17{fill:#15abff;}.cls-18{fill:#f7931e;}</style><linearGradient id="linear-gradient" x1="63.87" y1="104.01" x2="356.87" y2="104.01" gradientUnits="userSpaceOnUse"><stop offset="0" stop-color="#01a3ff"/><stop offset="1" stop-color="#0071bc"/></linearGradient><clipPath id="clip-path"><rect class="cls-1" x="63.87" y="42.51" width="293" height="123" rx="11.19"/></clipPath><linearGradient id="linear-gradient-4" x1="0" y1="93.63" x2="202.41" y2="93.63" xlink:href="#linear-gradient"/></defs><title>Asset 24</title><g class="cls-2"><g id="Layer_2" data-name="Layer 2"><g id="Layer_1-2" data-name="Layer 1"><rect class="cls-1" x="63.87" y="42.51" width="293" height="123" rx="11.19"/><g class="cls-3"><rect class="cls-1" x="63.87" y="42.51" width="293" height="123" rx="11.19"/><g class="cls-4"><path class="cls-5" d="M68.53,2.8C50.1,7,28.18,20.26,17.1,35.57,7.37,49,1.13,63.44.28,80c-1.37,26.56,1.82,55.58,20.06,74.93a103.78,103.78,0,0,0,47.45,28.36c13.12,3.44,53.24,6.87,72.13,0,14.06-5.11,27.76-11.67,38.06-22.52,6.06-6.38,11.74-13.23,15.92-21C201,126.53,203.45,111,202,96S197.42,65.29,190.26,52a93.43,93.43,0,0,0-28-32.14C149.26,10.51,110.93-6.77,68.53,2.8Z"/></g></g><path class="cls-6" d="M215.76,127.88h2.6v7.51a4.2,4.2,0,0,0,.3,1.84,2.49,2.49,0,0,0,4,0,4.38,4.38,0,0,0,.29-1.84v-7.51h2.6v7.52a6.38,6.38,0,0,1-.6,3c-.75,1.32-2.19,2-4.3,2s-3.56-.67-4.31-2a6.25,6.25,0,0,1-.61-3Z"/><path class="cls-6" d="M229.56,137.22a1.57,1.57,0,0,0,.33.9,2.17,2.17,0,0,0,1.63.47,2.67,2.67,0,0,0,1.12-.2.68.68,0,0,0,.41-.63.67.67,0,0,0-.33-.6,13.42,13.42,0,0,0-2.48-.72,5.08,5.08,0,0,1-2.17-.95,2.08,2.08,0,0,1-.63-1.63,2.84,2.84,0,0,1,1-2.15,4,4,0,0,1,2.78-.9,5.08,5.08,0,0,1,2.76.67,2.87,2.87,0,0,1,1.23,2.34h-2.36a1.47,1.47,0,0,0-.26-.72,1.63,1.63,0,0,0-1.33-.48,1.94,1.94,0,0,0-1.11.24.69.69,0,0,0-.33.56.62.62,0,0,0,.35.59,15,15,0,0,0,2.47.66,4.46,4.46,0,0,1,2.12,1,2.26,2.26,0,0,1,.7,1.7,2.75,2.75,0,0,1-1,2.2,6,6,0,0,1-6.26,0,2.93,2.93,0,0,1-1-2.3Z"/><path class="cls-6" d="M243,131.25a3.65,3.65,0,0,1,1.56,1.34,4.16,4.16,0,0,1,.72,1.87,10.86,10.86,0,0,1,.08,1.79h-6.59a2.18,2.18,0,0,0,1,1.91,2.38,2.38,0,0,0,1.3.34,2.06,2.06,0,0,0,1.32-.41,2,2,0,0,0,.48-.63h2.42a2.93,2.93,0,0,1-.88,1.64,4.39,4.39,0,0,1-3.4,1.32,4.94,4.94,0,0,1-3.19-1.11,4.4,4.4,0,0,1-1.38-3.63,4.89,4.89,0,0,1,1.25-3.6,4.35,4.35,0,0,1,3.23-1.26A5,5,0,0,1,243,131.25Zm-3.54,2a2.53,2.53,0,0,0-.63,1.4h4.08a2,2,0,0,0-.63-1.43,2.12,2.12,0,0,0-1.41-.49A1.91,1.91,0,0,0,239.42,133.29Z"/><path class="cls-6" d="M258.55,139a5,5,0,0,1-7,0,5.64,5.64,0,0,1,0-6.8,4.93,4.93,0,0,1,7,0,5.6,5.6,0,0,1,0,6.8Zm-1.89-1.31a4.27,4.27,0,0,0,0-4.19,2.09,2.09,0,0,0-3.19,0,4.2,4.2,0,0,0,0,4.19,2.09,2.09,0,0,0,3.19,0Z"/><path class="cls-6" d="M265,127.76l.5,0v1.93c-.13,0-.35,0-.67,0a.69.69,0,0,0-.82.69v.77h1.55v1.67H264v7.29h-2.35v-7.29h-1.33v-1.67h1.29v-.58a3.08,3.08,0,0,1,.49-2c.35-.55,1.17-.82,2.49-.82Z"/><path class="cls-6" d="M280.66,130h-6.48v2.6h5.94v2.13h-5.94v3.14H281v2.2h-9.27V127.88h9Z"/><path class="cls-6" d="M289.93,131.58a3,3,0,0,1,.89,2.44v6.09H288.4v-5.5a2.65,2.65,0,0,0-.19-1.1,1.33,1.33,0,0,0-1.32-.69,1.63,1.63,0,0,0-1.64,1,3.59,3.59,0,0,0-.23,1.37v4.9h-2.37v-9h2.29v1.32a4.13,4.13,0,0,1,.86-1,3,3,0,0,1,1.85-.55A3.45,3.45,0,0,1,289.93,131.58Z"/><path class="cls-6" d="M297.38,131.06a2.79,2.79,0,0,1,1.39,1.31v-1.31h2.31v8.59a4.82,4.82,0,0,1-.59,2.64c-.68,1-2,1.52-3.89,1.52a5.25,5.25,0,0,1-2.83-.68,2.51,2.51,0,0,1-1.21-2h2.57a1.08,1.08,0,0,0,.33.6,2,2,0,0,0,1.28.32,1.71,1.71,0,0,0,1.71-.85,4.31,4.31,0,0,0,.29-1.85v-.58a2.84,2.84,0,0,1-.73.87,3,3,0,0,1-1.84.54,3.44,3.44,0,0,1-2.78-1.22,4.93,4.93,0,0,1-1-3.32,5.6,5.6,0,0,1,1-3.39,3.32,3.32,0,0,1,2.84-1.37A3.09,3.09,0,0,1,297.38,131.06Zm.8,6.48a2.9,2.9,0,0,0,.57-2,3.07,3.07,0,0,0-.54-2,1.76,1.76,0,0,0-1.45-.68,1.71,1.71,0,0,0-1.71,1.18,4,4,0,0,0-.25,1.53,3.43,3.43,0,0,0,.27,1.4,1.72,1.72,0,0,0,1.72,1.15A1.8,1.8,0,0,0,298.18,137.54Z"/><path class="cls-6" d="M305.58,140.11h-2.36V127.88h2.36Z"/><path class="cls-6" d="M310.2,130h-2.4V127.8h2.4Zm-2.4,1.07h2.4v9.05h-2.4Z"/><path class="cls-6" d="M314.21,137.22a1.65,1.65,0,0,0,.32.9,2.2,2.2,0,0,0,1.64.47,2.59,2.59,0,0,0,1.11-.2.67.67,0,0,0,.42-.63.68.68,0,0,0-.34-.6,13.19,13.19,0,0,0-2.47-.72,5.19,5.19,0,0,1-2.18-.95,2.08,2.08,0,0,1-.63-1.63,2.81,2.81,0,0,1,1-2.15,4,4,0,0,1,2.77-.9,5.1,5.1,0,0,1,2.77.67,2.92,2.92,0,0,1,1.23,2.34h-2.37a1.37,1.37,0,0,0-.26-.72,1.62,1.62,0,0,0-1.33-.48,1.9,1.9,0,0,0-1.1.24.69.69,0,0,0-.33.56.62.62,0,0,0,.35.59,14.68,14.68,0,0,0,2.47.66,4.51,4.51,0,0,1,2.12,1,2.29,2.29,0,0,1,.7,1.7,2.76,2.76,0,0,1-1,2.2,6,6,0,0,1-6.25,0,2.93,2.93,0,0,1-1-2.3Z"/><path class="cls-6" d="M328.21,131.11a2.65,2.65,0,0,1,1.12.89,2.44,2.44,0,0,1,.46,1.05,13.8,13.8,0,0,1,.08,1.74v5.32h-2.42V134.6a2.5,2.5,0,0,0-.24-1.18,1.24,1.24,0,0,0-1.22-.63,1.7,1.7,0,0,0-1.42.63,2.89,2.89,0,0,0-.48,1.79v4.9h-2.36V127.92h2.36v4.32a2.9,2.9,0,0,1,1.19-1.11,3.46,3.46,0,0,1,1.42-.31A3.87,3.87,0,0,1,328.21,131.11Z"/><path class="cls-6" d="M95.4,127.82a5.32,5.32,0,0,0-2.31-5.69l.07-.3,44.46,10.38a5.34,5.34,0,0,1,4,6.39h0a5.34,5.34,0,0,1-6.39,4L90.74,132.19l.07-.3A5.31,5.31,0,0,0,95.4,127.82Z"/><path class="cls-7" d="M95.4,127.82h0l46.19,10.78h0a5.34,5.34,0,0,1-6.39,4L90.74,132.19l.07-.3A5.31,5.31,0,0,0,95.4,127.82Z"/><path class="cls-8" d="M168.18,102.54,123.72,92.16a.71.71,0,0,0-.85.53L93,121.13a.71.71,0,0,0,0,1.39l44.46,10.38a4.61,4.61,0,0,1-2.1,9L90.9,131.5a.71.71,0,0,0-.32,1.38L135,143.26a6.05,6.05,0,0,0,5.76-1.74h0L170.67,113a6,6,0,0,0-2.49-10.5Z"/><path class="cls-9" d="M168.49,102.62c-7.5,7.28-25.76,25-31.24,30.23l.21.05a4.61,4.61,0,0,1-2.1,9L90.9,131.5a.71.71,0,0,0-.32,1.38L135,143.26a6.05,6.05,0,0,0,5.76-1.74h0L170.67,113a6,6,0,0,0-2.18-10.42Z"/><path class="cls-9" d="M140.91,138.37a.2.2,0,0,0,0,.07,4.62,4.62,0,0,1-3.73,3.49l-1.5,1.44a6.06,6.06,0,0,0,5.13-1.85h0L170.67,113a6,6,0,0,0,2-3.26,6.21,6.21,0,0,0,.14-1.81Z"/><path class="cls-10" d="M90.58,132.88,135,143.26a6,6,0,0,0,2.74-11.74L93.32,121.14a.71.71,0,0,0-.32,1.38l44.46,10.38a4.61,4.61,0,0,1-2.1,9L90.9,131.5a.71.71,0,0,0-.32,1.38Z"/><path class="cls-6" d="M104.28,112.8a5.34,5.34,0,0,0-2.31-5.69l.07-.29,44.45,10.38a5.32,5.32,0,0,1,4,6.38h0a5.32,5.32,0,0,1-6.38,4L99.62,117.17l.07-.29A5.35,5.35,0,0,0,104.28,112.8Z"/><path class="cls-7" d="M104.28,112.8h0l46.18,10.78h0a5.32,5.32,0,0,1-6.38,4L99.62,117.17l.07-.29A5.35,5.35,0,0,0,104.28,112.8Z"/><path class="cls-11" d="M177.06,87.53,132.6,77.15a.72.72,0,0,0-.86.53l-29.83,28.44a.72.72,0,0,0-.57.54.71.71,0,0,0,.53.85l44.46,10.38a4.61,4.61,0,0,1-2.09,9L99.78,116.48a.71.71,0,0,0-.32,1.39l44.45,10.37a6,6,0,0,0,5.76-1.74h0L179.55,98a6,6,0,0,0-2.49-10.49Z"/><path class="cls-12" d="M177.37,87.61c-7.5,7.27-25.76,25-31.24,30.23l.2,0a4.61,4.61,0,0,1-2.09,9L99.78,116.48a.71.71,0,0,0-.32,1.39l44.45,10.37a6,6,0,0,0,5.76-1.74h0L179.55,98a6,6,0,0,0-2.18-10.41Z"/><path class="cls-13" d="M149.78,123.36a.13.13,0,0,1,0,.06,4.6,4.6,0,0,1-3.72,3.5l-1.51,1.43a6,6,0,0,0,5.13-1.85h0L179.55,98a6,6,0,0,0,2-3.25A6.21,6.21,0,0,0,181.7,93Z"/><path class="cls-14" d="M99.46,117.87l44.45,10.37a6,6,0,0,0,2.75-11.74L102.2,106.13a.71.71,0,1,0-.33,1.38l44.46,10.38a4.61,4.61,0,0,1-2.09,9L99.78,116.48a.71.71,0,0,0-.32,1.39Z"/><path class="cls-8" d="M175.28,102.09l4-3.82A6.25,6.25,0,0,0,174.62,92l-1.43-.33-3.29,3.19,2.32.55a4.61,4.61,0,0,1,3.44,5.53A6.06,6.06,0,0,1,175.28,102.09Z"/><path class="cls-6" d="M92.44,106.23a5.32,5.32,0,0,0-2.31-5.69l.07-.29,44.46,10.38a5.33,5.33,0,0,1,4,6.38h0a5.33,5.33,0,0,1-6.39,4L87.78,110.6l.07-.29A5.33,5.33,0,0,0,92.44,106.23Z"/><path class="cls-7" d="M92.44,106.23h0L138.63,117h0a5.33,5.33,0,0,1-6.39,4L87.78,110.6l.07-.29A5.33,5.33,0,0,0,92.44,106.23Z"/><path class="cls-15" d="M165.22,81,120.76,70.58a.71.71,0,0,0-.85.53L90.07,99.55a.71.71,0,0,0,0,1.39l44.46,10.38a4.61,4.61,0,1,1-2.1,9L87.94,109.91a.71.71,0,0,0-.85.53.72.72,0,0,0,.53.86l44.46,10.37a6,6,0,0,0,5.76-1.74h0l29.87-28.48A6,6,0,0,0,165.22,81Z"/><path class="cls-16" d="M165.53,81c-7.5,7.27-25.76,25-31.24,30.23l.21,0a4.61,4.61,0,1,1-2.1,9L87.94,109.91a.71.71,0,0,0-.85.53.72.72,0,0,0,.53.86l44.46,10.37a6,6,0,0,0,5.76-1.74h0l29.87-28.48A6,6,0,0,0,165.53,81Z"/><path class="cls-16" d="M138,116.79s0,0,0,.06a4.63,4.63,0,0,1-3.72,3.5l-1.51,1.43a6,6,0,0,0,5.13-1.85h0l29.87-28.48a6,6,0,0,0,2-3.25,5.88,5.88,0,0,0,.14-1.81Z"/><path class="cls-17" d="M87.62,111.3l44.46,10.37a6,6,0,0,0,2.74-11.74L90.36,99.56a.7.7,0,0,0-.85.53.71.71,0,0,0,.53.85l44.46,10.38a4.61,4.61,0,1,1-2.1,9L87.94,109.91a.71.71,0,0,0-.85.53A.72.72,0,0,0,87.62,111.3Z"/><path class="cls-18" d="M147.77,110.46l1.89-1.8a6,6,0,0,0-4.65-6.1l-1.43-.33-1.18,1.18,2.28.54a4.6,4.6,0,0,1,3.09,6.51Z"/><path class="cls-18" d="M162.75,96.18l1.89-1.8A6.12,6.12,0,0,0,160,88.21l-1.48-.34L157.28,89l2.37.56a4.6,4.6,0,0,1,3.44,5.53A5.16,5.16,0,0,1,162.75,96.18Z"/><polygon class="cls-18" points="105.67 93.38 104.46 94.56 135.03 101.69 136.24 100.52 105.67 93.38"/><polygon class="cls-18" points="120.99 78.97 116.47 83.13 147.05 90.26 151.56 86.11 120.99 78.97"/></g></g></g></svg>