<?xml version="1.0" encoding="utf-8"?>
<!-- Generator: Adobe Illustrator 23.0.1, SVG Export Plug-In . SVG Version: 6.00 Build 0)  -->
<svg version="1.1" id="Layer_1" xmlns="http://www.w3.org/2000/svg" xmlns:xlink="http://www.w3.org/1999/xlink" x="0px" y="0px"
	 viewBox="0 0 293 123" style="enable-background:new 0 0 293 123;" xml:space="preserve">
<style type="text/css">
	.st0{clip-path:url(#SVGID_3_);fill:url(#SVGID_4_);}
	.st1{opacity:0.27;clip-path:url(#SVGID_3_);}
	.st2{fill:url(#SVGID_5_);}
	.st3{fill:#FFFFFF;}
	.st4{opacity:0.6;fill:#CCCCCC;}
	.st5{fill:#006837;}
	.st6{opacity:0.7;fill:#006837;}
	.st7{fill:#029149;}
	.st8{fill:#C1272D;}
	.st9{opacity:0.7;fill:#C1272D;}
	.st10{fill:#FF7171;}
	.st11{fill:#0071BC;}
	.st12{opacity:0.7;fill:#0071BC;}
	.st13{fill:#15ABFF;}
	.st14{fill:#F7931E;}
</style>
<g>
	<g>
		<defs>
			<path id="SVGID_1_" d="M281.8,123H11.2C5,123,0,118,0,111.8V11.2C0,5,5,0,11.2,0h270.6C288,0,293,5,293,11.2v100.6
				C293,118,288,123,281.8,123z"/>
		</defs>
		<linearGradient id="SVGID_2_" gradientUnits="userSpaceOnUse" x1="0" y1="61.5" x2="293" y2="61.5">
			<stop  offset="0" style="stop-color:#01A3FF"/>
			<stop  offset="1" style="stop-color:#0071BC"/>
		</linearGradient>
		<use xlink:href="#SVGID_1_"  style="overflow:visible;fill:url(#SVGID_2_);"/>
		<clipPath id="SVGID_3_">
			<use xlink:href="#SVGID_1_"  style="overflow:visible;"/>
		</clipPath>
		<linearGradient id="SVGID_4_" gradientUnits="userSpaceOnUse" x1="0" y1="61.5" x2="293" y2="61.5">
			<stop  offset="0" style="stop-color:#01A3FF"/>
			<stop  offset="1" style="stop-color:#0071BC"/>
		</linearGradient>
		<path class="st0" d="M281.8,123H11.2C5,123,0,118,0,111.8V11.2C0,5,5,0,11.2,0h270.6C288,0,293,5,293,11.2v100.6
			C293,118,288,123,281.8,123z"/>
		<g class="st1">
			<linearGradient id="SVGID_5_" gradientUnits="userSpaceOnUse" x1="-63.8719" y1="51.1187" x2="138.5388" y2="51.1187">
				<stop  offset="0" style="stop-color:#01A3FF"/>
				<stop  offset="1" style="stop-color:#0071BC"/>
			</linearGradient>
			<path class="st2" d="M4.7-39.7c-18.4,4.2-40.4,17.5-51.4,32.8c-9.7,13.4-16,27.9-16.8,44.4C-65,64-61.8,93.1-43.5,112.4
				c12.4,13.2,29.9,23.7,47.5,28.4c13.1,3.4,53.2,6.9,72.1,0c14.1-5.1,27.8-11.7,38.1-22.5c6.1-6.4,11.7-13.2,15.9-21
				c7.1-13.3,9.6-28.8,8.1-43.8c-1.4-15-4.6-30.7-11.8-44c-7-13-16.1-23.5-28-32.1C85.4-32,47.1-49.3,4.7-39.7z"/>
		</g>
	</g>
	<g>
		<g>
			<path class="st3" d="M151.9,85.4h2.6v7.5c0,0.8,0.1,1.5,0.3,1.8c0.3,0.7,1,1,2,1c1,0,1.7-0.3,2-1c0.2-0.4,0.3-1,0.3-1.8v-7.5h2.6
				v7.5c0,1.3-0.2,2.3-0.6,3c-0.8,1.3-2.2,2-4.3,2c-2.1,0-3.6-0.7-4.3-2c-0.4-0.7-0.6-1.7-0.6-3V85.4z"/>
			<path class="st3" d="M165.7,94.7c0.1,0.4,0.2,0.7,0.3,0.9c0.3,0.3,0.8,0.5,1.6,0.5c0.5,0,0.8-0.1,1.1-0.2
				c0.3-0.1,0.4-0.3,0.4-0.6c0-0.3-0.1-0.5-0.3-0.6s-1-0.4-2.5-0.7c-1-0.3-1.8-0.6-2.2-1c-0.4-0.4-0.6-0.9-0.6-1.6
				c0-0.8,0.3-1.6,1-2.2s1.6-0.9,2.8-0.9c1.1,0,2.1,0.2,2.8,0.7c0.7,0.5,1.1,1.2,1.2,2.3H169c0-0.3-0.1-0.5-0.3-0.7
				c-0.3-0.3-0.7-0.5-1.3-0.5c-0.5,0-0.9,0.1-1.1,0.2c-0.2,0.2-0.3,0.3-0.3,0.6c0,0.3,0.1,0.5,0.3,0.6c0.2,0.1,1.1,0.3,2.5,0.7
				c0.9,0.2,1.6,0.6,2.1,1c0.5,0.5,0.7,1,0.7,1.7c0,0.9-0.3,1.6-1,2.2s-1.7,0.9-3.1,0.9c-1.4,0-2.5-0.3-3.2-0.9s-1-1.4-1-2.3H165.7z
				"/>
			<path class="st3" d="M179.1,88.7c0.6,0.3,1.2,0.7,1.6,1.3c0.4,0.5,0.6,1.2,0.7,1.9c0.1,0.4,0.1,1,0.1,1.8h-6.6
				c0,0.9,0.4,1.5,0.9,1.9c0.4,0.2,0.8,0.3,1.3,0.3c0.5,0,1-0.1,1.3-0.4c0.2-0.1,0.3-0.4,0.5-0.6h2.4c-0.1,0.5-0.4,1.1-0.9,1.6
				c-0.8,0.9-1.9,1.3-3.4,1.3c-1.2,0-2.3-0.4-3.2-1.1c-0.9-0.7-1.4-2-1.4-3.6c0-1.6,0.4-2.8,1.2-3.6c0.8-0.8,1.9-1.3,3.2-1.3
				C177.7,88.3,178.5,88.5,179.1,88.7z M175.5,90.8c-0.3,0.3-0.5,0.8-0.6,1.4h4.1c0-0.6-0.3-1.1-0.6-1.4c-0.4-0.3-0.8-0.5-1.4-0.5
				C176.4,90.3,175.9,90.4,175.5,90.8z"/>
			<path class="st3" d="M194.7,96.5c-0.8,0.9-1.9,1.4-3.5,1.4c-1.6,0-2.7-0.5-3.5-1.4c-0.8-0.9-1.1-2.1-1.1-3.4
				c0-1.3,0.4-2.4,1.1-3.4c0.8-1,1.9-1.4,3.5-1.4c1.6,0,2.7,0.5,3.5,1.4c0.8,1,1.1,2.1,1.1,3.4C195.8,94.4,195.4,95.6,194.7,96.5z
				 M192.8,95.2c0.4-0.5,0.6-1.2,0.6-2.1s-0.2-1.6-0.6-2.1c-0.4-0.5-0.9-0.7-1.6-0.7c-0.7,0-1.2,0.2-1.6,0.7
				c-0.4,0.5-0.6,1.2-0.6,2.1s0.2,1.6,0.6,2.1c0.4,0.5,0.9,0.7,1.6,0.7C191.9,95.9,192.4,95.7,192.8,95.2z"/>
			<path class="st3" d="M201.1,85.3c0.1,0,0.3,0,0.5,0v1.9c-0.1,0-0.4,0-0.7,0c-0.3,0-0.5,0.1-0.6,0.2c-0.1,0.1-0.2,0.3-0.2,0.5
				s0,0.4,0,0.8h1.6v1.7h-1.6v7.3h-2.3v-7.3h-1.3v-1.7h1.3v-0.6c0-1,0.2-1.6,0.5-2c0.3-0.5,1.2-0.8,2.5-0.8
				C200.9,85.2,201,85.2,201.1,85.3z"/>
			<path class="st3" d="M216.8,87.5h-6.5v2.6h5.9v2.1h-5.9v3.1h6.8v2.2h-9.3V85.4h9V87.5z"/>
			<path class="st3" d="M226.1,89.1c0.6,0.5,0.9,1.3,0.9,2.4v6.1h-2.4v-5.5c0-0.5-0.1-0.8-0.2-1.1c-0.2-0.5-0.7-0.7-1.3-0.7
				c-0.8,0-1.3,0.3-1.6,1c-0.2,0.4-0.2,0.8-0.2,1.4v4.9h-2.4v-9h2.3v1.3c0.3-0.5,0.6-0.8,0.9-1c0.5-0.4,1.1-0.5,1.8-0.5
				C224.7,88.3,225.5,88.6,226.1,89.1z"/>
			<path class="st3" d="M233.5,88.5c0.6,0.2,1,0.7,1.4,1.3v-1.3h2.3v8.6c0,1.2-0.2,2-0.6,2.6c-0.7,1-2,1.5-3.9,1.5
				c-1.2,0-2.1-0.2-2.8-0.7s-1.1-1.1-1.2-2h2.6c0.1,0.3,0.2,0.5,0.3,0.6c0.3,0.2,0.7,0.3,1.3,0.3c0.9,0,1.4-0.3,1.7-0.9
				c0.2-0.4,0.3-1,0.3-1.8v-0.6c-0.2,0.4-0.5,0.7-0.7,0.9c-0.5,0.4-1.1,0.5-1.8,0.5c-1.2,0-2.1-0.4-2.8-1.2c-0.7-0.8-1-1.9-1-3.3
				c0-1.3,0.3-2.5,1-3.4s1.6-1.4,2.8-1.4C232.8,88.3,233.2,88.4,233.5,88.5z M234.3,95c0.4-0.4,0.6-1.1,0.6-2c0-0.9-0.2-1.5-0.5-2
				c-0.4-0.4-0.8-0.7-1.5-0.7c-0.8,0-1.4,0.4-1.7,1.2c-0.2,0.4-0.2,0.9-0.2,1.5c0,0.5,0.1,1,0.3,1.4c0.3,0.8,0.9,1.1,1.7,1.1
				C233.5,95.7,233.9,95.5,234.3,95z"/>
			<path class="st3" d="M241.7,97.6h-2.4V85.4h2.4V97.6z"/>
			<path class="st3" d="M246.3,87.5h-2.4v-2.2h2.4V87.5z M243.9,88.6h2.4v9h-2.4V88.6z"/>
			<path class="st3" d="M250.3,94.7c0.1,0.4,0.2,0.7,0.3,0.9c0.3,0.3,0.8,0.5,1.6,0.5c0.5,0,0.8-0.1,1.1-0.2
				c0.3-0.1,0.4-0.3,0.4-0.6c0-0.3-0.1-0.5-0.3-0.6s-1-0.4-2.5-0.7c-1-0.3-1.8-0.6-2.2-1c-0.4-0.4-0.6-0.9-0.6-1.6
				c0-0.8,0.3-1.6,1-2.2s1.6-0.9,2.8-0.9c1.1,0,2.1,0.2,2.8,0.7c0.7,0.5,1.1,1.2,1.2,2.3h-2.4c0-0.3-0.1-0.5-0.3-0.7
				c-0.3-0.3-0.7-0.5-1.3-0.5c-0.5,0-0.9,0.1-1.1,0.2c-0.2,0.2-0.3,0.3-0.3,0.6c0,0.3,0.1,0.5,0.3,0.6c0.2,0.1,1.1,0.3,2.5,0.7
				c0.9,0.2,1.6,0.6,2.1,1c0.5,0.5,0.7,1,0.7,1.7c0,0.9-0.3,1.6-1,2.2s-1.7,0.9-3.1,0.9c-1.4,0-2.5-0.3-3.2-0.9s-1-1.4-1-2.3H250.3z
				"/>
			<path class="st3" d="M264.3,88.6c0.5,0.2,0.8,0.5,1.1,0.9c0.2,0.3,0.4,0.7,0.5,1c0.1,0.4,0.1,0.9,0.1,1.7v5.3h-2.4v-5.5
				c0-0.5-0.1-0.9-0.2-1.2c-0.2-0.4-0.6-0.6-1.2-0.6c-0.6,0-1.1,0.2-1.4,0.6c-0.3,0.4-0.5,1-0.5,1.8v4.9h-2.4V85.4h2.4v4.3
				c0.3-0.5,0.7-0.9,1.2-1.1c0.4-0.2,0.9-0.3,1.4-0.3C263.4,88.3,263.9,88.4,264.3,88.6z"/>
		</g>
	</g>
	<g id="XMLID_1_">
		<g id="XMLID_295_">
			<path id="XMLID_302_" class="st3" d="M24.5,87.3c0.7-2.8-0.6-5.6-2.9-7l0.1-0.4l55,12.8c3.5,0.8,5.7,4.4,4.9,7.9v0
				c-0.8,3.5-4.4,5.7-7.9,4.9l-55-12.8l0.1-0.4C21.5,92,23.8,90.1,24.5,87.3z"/>
			<path id="XMLID_301_" class="st4" d="M24.5,87.3L24.5,87.3l57.1,13.3v0c-0.8,3.5-4.4,5.7-7.9,4.9l-55-12.8l0.1-0.4
				C21.5,92,23.8,90.1,24.5,87.3z"/>
			<path id="XMLID_299_" class="st5" d="M114.5,56l-55-12.8c-0.5-0.1-0.9,0.2-1.1,0.7L21.5,79c-0.3,0.1-0.6,0.3-0.7,0.7
				c-0.1,0.5,0.2,0.9,0.7,1.1l55,12.8c3.1,0.7,5,3.8,4.3,6.8c-0.7,3.1-3.8,5-6.8,4.3l-55-12.8c-0.5-0.1-0.9,0.2-1.1,0.7
				c-0.1,0.5,0.2,0.9,0.7,1.1l55,12.8c2.7,0.6,5.4-0.3,7.1-2.2l0,0l37-35.2c1.2-1,2.1-2.4,2.5-4C121,61,118.5,56.9,114.5,56z"/>
			<path id="XMLID_298_" class="st6" d="M114.9,56.1c-9.3,9-31.9,30.9-38.7,37.4l0.3,0.1c3.1,0.7,5,3.8,4.3,6.8
				c-0.7,3.1-3.8,5-6.8,4.3l-55-12.8c-0.5-0.1-0.9,0.2-1.1,0.7c-0.1,0.5,0.2,0.9,0.7,1.1l55,12.8c2.7,0.6,5.4-0.3,7.1-2.2l0,0
				l37-35.2c1.2-1,2.1-2.4,2.5-4C121,61.1,118.7,57.2,114.9,56.1z"/>
			<path id="XMLID_297_" class="st6" d="M80.8,100.3C80.8,100.4,80.8,100.4,80.8,100.3c-0.6,2.4-2.4,4-4.6,4.4l-1.9,1.8
				c2.4,0.3,4.8-0.6,6.3-2.3l0,0l37-35.2c1.2-1,2.1-2.4,2.5-4c0.2-0.8,0.2-1.5,0.2-2.2L80.8,100.3z"/>
			<path id="XMLID_296_" class="st7" d="M18.5,93.5l55,12.8c4,0.9,8-1.6,9-5.6c0.9-4-1.6-8-5.6-9L21.9,79c-0.5-0.1-0.9,0.2-1.1,0.7
				c-0.1,0.5,0.2,0.9,0.7,1.1l55,12.8c3.1,0.7,5,3.8,4.3,6.8c-0.7,3.1-3.8,5-6.8,4.3l-55-12.8c-0.5-0.1-0.9,0.2-1.1,0.7
				C17.7,92.9,18,93.4,18.5,93.5z"/>
		</g>
		<g id="XMLID_286_">
			<path id="XMLID_294_" class="st3" d="M35.5,68.7c0.7-2.8-0.6-5.6-2.9-7l0.1-0.4l55,12.8c3.5,0.8,5.7,4.4,4.9,7.9v0
				c-0.8,3.5-4.4,5.7-7.9,4.9l-55-12.8l0.1-0.4C32.5,73.4,34.8,71.5,35.5,68.7z"/>
			<path id="XMLID_293_" class="st4" d="M35.5,68.7L35.5,68.7L92.6,82v0c-0.8,3.5-4.4,5.7-7.9,4.9l-55-12.8l0.1-0.4
				C32.5,73.4,34.8,71.5,35.5,68.7z"/>
			<path id="XMLID_291_" class="st8" d="M125.5,37.4l-55-12.8c-0.5-0.1-0.9,0.2-1.1,0.7L32.5,60.4c-0.3,0.1-0.6,0.3-0.7,0.7
				c-0.1,0.5,0.2,0.9,0.7,1.1l55,12.8c3.1,0.7,5,3.8,4.3,6.8c-0.7,3.1-3.8,5-6.8,4.3l-55-12.8c-0.5-0.1-0.9,0.2-1.1,0.7
				c-0.1,0.5,0.2,0.9,0.7,1.1l55,12.8c2.7,0.6,5.4-0.3,7.1-2.2l0,0l37-35.2c1.2-1,2.1-2.4,2.5-4C132,42.4,129.5,38.4,125.5,37.4z"/>
			<path id="XMLID_290_" class="st8" d="M125.9,37.5c-9.3,9-31.9,30.9-38.7,37.4l0.3,0.1c3.1,0.7,5,3.8,4.3,6.8
				c-0.7,3.1-3.8,5-6.8,4.3l-55-12.8c-0.5-0.1-0.9,0.2-1.1,0.7c-0.1,0.5,0.2,0.9,0.7,1.1l55,12.8c2.7,0.6,5.4-0.3,7.1-2.2l0,0
				l37-35.2c1.2-1,2.1-2.4,2.5-4C132,42.5,129.7,38.6,125.9,37.5z"/>
			<path id="XMLID_289_" class="st9" d="M91.8,81.8C91.7,81.8,91.7,81.8,91.8,81.8c-0.6,2.4-2.4,4-4.6,4.4l-1.9,1.8
				c2.4,0.3,4.8-0.6,6.3-2.3l0,0l37-35.2c1.2-1,2.1-2.4,2.5-4c0.2-0.8,0.2-1.5,0.2-2.2L91.8,81.8z"/>
			<path id="XMLID_288_" class="st10" d="M29.5,75l55,12.8c4,0.9,8-1.6,9-5.6c0.9-4-1.6-8-5.6-9l-55-12.8c-0.5-0.1-0.9,0.2-1.1,0.7
				c-0.1,0.5,0.2,0.9,0.7,1.1l55,12.8c3.1,0.7,5,3.8,4.3,6.8c-0.7,3.1-3.8,5-6.8,4.3l-55-12.8c-0.5-0.1-0.9,0.2-1.1,0.7
				S29,74.8,29.5,75z"/>
			<path id="XMLID_287_" class="st5" d="M123.3,55.4l5-4.7c0.1-3.5-2.2-6.9-5.8-7.8l-1.8-0.4l-4.1,4l2.9,0.7c3.1,0.7,5,3.8,4.3,6.8
				C123.7,54.4,123.5,55.1,123.3,55.4z"/>
		</g>
		<g id="XMLID_27_">
			<path id="XMLID_285_" class="st3" d="M20.8,60.6c0.7-2.8-0.6-5.6-2.9-7l0.1-0.4L73,66c3.5,0.8,5.7,4.4,4.9,7.9l0,0
				c-0.8,3.5-4.4,5.7-7.9,4.9L15,66l0.1-0.4C17.8,65.3,20.2,63.4,20.8,60.6z"/>
			<path id="XMLID_284_" class="st4" d="M20.8,60.6L20.8,60.6L78,73.9l0,0c-0.8,3.5-4.4,5.7-7.9,4.9L15,66l0.1-0.4
				C17.8,65.3,20.2,63.4,20.8,60.6z"/>
			<path id="XMLID_282_" class="st11" d="M110.8,29.3l-55-12.8c-0.5-0.1-0.9,0.2-1.1,0.7L17.9,52.3c-0.3,0.1-0.6,0.3-0.7,0.7
				c-0.1,0.5,0.2,0.9,0.7,1.1l55,12.8c3.1,0.7,5,3.8,4.3,6.8s-3.8,5-6.8,4.3l-55-12.8c-0.5-0.1-0.9,0.2-1.1,0.7
				c-0.1,0.5,0.2,0.9,0.7,1.1l55,12.8c2.7,0.6,5.4-0.3,7.1-2.2l0,0l37-35.2c1.2-1,2.1-2.4,2.5-4C117.4,34.2,114.9,30.2,110.8,29.3z"
				/>
			<path id="XMLID_281_" class="st12" d="M111.2,29.4c-9.3,9-31.9,30.9-38.7,37.4l0.3,0.1c3.1,0.7,5,3.8,4.3,6.8s-3.8,5-6.8,4.3
				l-55-12.8c-0.5-0.1-0.9,0.2-1.1,0.7c-0.1,0.5,0.2,0.9,0.7,1.1l55,12.8c2.7,0.6,5.4-0.3,7.1-2.2l0,0l37-35.2c1.2-1,2.1-2.4,2.5-4
				C117.3,34.4,115,30.5,111.2,29.4z"/>
			<path id="XMLID_280_" class="st12" d="M77.1,73.6C77.1,73.7,77.1,73.7,77.1,73.6c-0.6,2.4-2.4,4-4.6,4.4l-1.9,1.8
				c2.4,0.3,4.8-0.6,6.3-2.3l0,0l37-35.2c1.2-1,2.1-2.4,2.5-4c0.2-0.8,0.2-1.5,0.2-2.2L77.1,73.6z"/>
			<path id="XMLID_279_" class="st13" d="M14.9,66.8l55,12.8c4,0.9,8-1.6,9-5.6c0.9-4-1.6-8-5.6-9l-55-12.8
				c-0.5-0.1-0.9,0.2-1.1,0.7c-0.1,0.5,0.2,0.9,0.7,1.1l55,12.8c3.1,0.7,5,3.8,4.3,6.8c-0.7,3.1-3.8,5-6.8,4.3l-55-12.8
				c-0.5-0.1-0.9,0.2-1.1,0.7C14.1,66.2,14.4,66.7,14.9,66.8z"/>
			<path id="XMLID_259_" class="st14" d="M89.3,65.8l2.3-2.2c0.1-3.5-2.2-6.7-5.8-7.5l-1.8-0.4l-1.5,1.5l2.8,0.7
				c3.1,0.7,5,3.8,4.3,6.8C89.6,65,89.5,65.4,89.3,65.8z"/>
			<path id="XMLID_252_" class="st14" d="M107.8,48.1l2.3-2.2c0.1-3.5-2.2-6.8-5.8-7.6l-1.8-0.4l-1.5,1.5L104,40
				c3.1,0.7,5,3.8,4.3,6.8C108.1,47.3,108,47.7,107.8,48.1z"/>
			<g id="XMLID_33_">
				<polygon id="XMLID_34_" class="st14" points="37.2,44.7 35.7,46.1 73.5,54.9 75,53.5 				"/>
			</g>
			<g id="XMLID_30_">
				<polygon id="XMLID_32_" class="st14" points="56.1,26.8 50.5,32 88.4,40.8 94,35.7 				"/>
			</g>
		</g>
	</g>
</g>
</svg>
