<?xml version="1.0" encoding="utf-8"?>
<!-- Generator: Adobe Illustrator 23.0.1, SVG Export Plug-In . SVG Version: 6.00 Build 0)  -->
<svg version="1.1" id="Layer_1" xmlns="http://www.w3.org/2000/svg" xmlns:xlink="http://www.w3.org/1999/xlink" x="0px" y="0px"
	 viewBox="0 0 293 123" style="enable-background:new 0 0 293 123;" xml:space="preserve">
<style type="text/css">
	.st0{clip-path:url(#SVGID_2_);fill:#003533;}
	.st1{opacity:0.27;clip-path:url(#SVGID_2_);}
	.st2{fill:#003533;}
	.st3{fill:#FFFFFF;}
	
		.st4{opacity:0.5;fill:none;stroke:#494B4D;stroke-width:0.4702;stroke-linecap:round;stroke-linejoin:round;stroke-miterlimit:10;stroke-dasharray:0.9403,1.2538;}
	.st5{fill:#C7291C;}
	.st6{fill:#089EAB;}
	.st7{fill:#FD4125;}
	.st8{fill:#FF544D;}
	.st9{fill:#00888F;}
	.st10{opacity:0.7;fill:#E0E0E0;}
	.st11{fill:#F5DAC1;}
	.st12{fill:#EABFA0;}
	.st13{fill:#151A22;}
	.st14{fill:#FFC63F;}
	.st15{fill:#FD9F11;}
	.st16{fill:#D5D8D7;}
	.st17{opacity:0.2;}
	.st18{fill:#008A6A;}
	.st19{opacity:0.5;fill:#008A6A;}
	.st20{opacity:0.5;}
	.st21{fill:#EAE1C9;}
	.st22{fill:#009DA4;}
	.st23{fill:#D7C9AD;}
	.st24{fill:#D6CCBA;}
	.st25{fill:#008282;}
	.st26{fill:#E68C18;}
	.st27{fill:#F9B030;}
	.st28{fill:#E98900;}
	.st29{fill:#FF4331;}
	.st30{fill:#4D9D85;}
	.st31{fill:#007857;}
	.st32{clip-path:url(#XMLID_23_);fill:#FFC63F;}
	.st33{clip-path:url(#XMLID_23_);fill:#001817;}
	.st34{fill:#353637;}
	.st35{fill:#00403B;}
	.st36{fill:#001817;}
	.st37{fill:#494B4D;}
	.st38{fill:#C60B0B;}
	.st39{fill:#580403;}
	.st40{fill:#770B04;}
</style>
<g>
	<g>
		<defs>
			<path id="SVGID_1_" d="M281.8,123H11.2C5,123,0,118,0,111.8V11.2C0,5,5,0,11.2,0h270.6C288,0,293,5,293,11.2v100.6
				C293,118,288,123,281.8,123z"/>
		</defs>
		<use xlink:href="#SVGID_1_"  style="overflow:visible;fill:#003533;"/>
		<clipPath id="SVGID_2_">
			<use xlink:href="#SVGID_1_"  style="overflow:visible;"/>
		</clipPath>
		<path class="st0" d="M281.8,123H11.2C5,123,0,118,0,111.8V11.2C0,5,5,0,11.2,0h270.6C288,0,293,5,293,11.2v100.6
			C293,118,288,123,281.8,123z"/>
		<g class="st1">
			<path class="st2" d="M4.7-39.7c-18.4,4.2-40.4,17.5-51.4,32.8c-9.7,13.4-16,27.9-16.8,44.4C-65,64-61.8,93.1-43.5,112.4
				c12.4,13.2,29.9,23.7,47.5,28.4c13.1,3.4,53.2,6.9,72.1,0c14.1-5.1,27.8-11.7,38.1-22.5c6.1-6.4,11.7-13.2,15.9-21
				c7.1-13.3,9.6-28.8,8.1-43.8c-1.4-15-4.6-30.7-11.8-44c-7-13-16.1-23.5-28-32.1C85.4-32,47.1-49.3,4.7-39.7z"/>
		</g>
	</g>
	<g>
		<g>
			<path class="st3" d="M206.6,68.6v2.8h4.8v1.9h-4.8V78h-2.3V66.7h8.4v1.9H206.6z"/>
			<path class="st3" d="M213.8,75.1v-5.6h2.3v5.1c0,1.3,0.6,1.8,1.6,1.8c1,0,1.9-0.7,1.9-2.3v-4.6h2.3V78h-2.1l-0.1-1.5
				c-0.6,1.1-1.6,1.6-2.9,1.6C215.1,78.1,213.8,77.3,213.8,75.1z"/>
			<path class="st3" d="M224.2,69.5h2l0.2,1.7c0.4-1.2,1.3-1.8,2.6-1.8c0.4,0,0.7,0.1,0.9,0.2l-0.3,2c-0.2-0.1-0.5-0.1-1.1-0.1
				c-1,0-2.1,0.7-2.1,2.3V78h-2.3V69.5z"/>
			<path class="st3" d="M236.8,77.4c-0.6,0.4-1.4,0.7-2.3,0.7c-1.7,0-2.9-0.7-2.9-2.6v-4.4h-1.6v-1.7h1.6v-2l2.3-0.6v2.6h2.7v1.7
				h-2.7v4c0,0.8,0.4,1.2,1.2,1.2c0.6,0,1-0.2,1.3-0.5L236.8,77.4z"/>
			<path class="st3" d="M238.3,65.7h2.3v5.2c0.5-1.1,1.5-1.6,2.7-1.6c1.8,0,3.1,1,3.1,3.1V78h-2.3v-4.9c0-1.5-0.6-1.9-1.5-1.9
				c-1,0-2,0.6-2,2.3V78h-2.3V65.7z"/>
			<path class="st3" d="M256.5,74.4h-6c0.2,1.3,1,2,2.1,2c1,0,1.6-0.4,1.9-1.1l1.9,0.7c-0.5,1.3-2,2.1-3.8,2.1
				c-2.7,0-4.4-1.6-4.4-4.4c0-2.8,1.8-4.4,4.3-4.4c2.6,0,4,1.7,4,4C256.5,73.7,256.5,74.1,256.5,74.4z M250.5,72.8h3.8
				c-0.1-1.2-0.8-1.8-1.8-1.8C251.4,71,250.7,71.6,250.5,72.8z"/>
			<path class="st3" d="M258.4,69.5h2l0.2,1.7c0.4-1.2,1.3-1.8,2.6-1.8c0.4,0,0.7,0.1,0.9,0.2l-0.3,2c-0.2-0.1-0.5-0.1-1.1-0.1
				c-1,0-2.1,0.7-2.1,2.3V78h-2.3V69.5z"/>
			<path class="st3" d="M175.5,98.4h-2.1v-5.8l0.1-3.3h0l-3.1,9.1h-1.9l-3.1-9.1h0l0.1,3.3v5.8h-2.1V87.1h3.4l2,6.1l0.7,2.5h0
				l0.7-2.5l2-6.1h3.3V98.4z"/>
			<path class="st3" d="M186.3,96.9l-0.1,1.4c-0.3,0.1-0.6,0.2-1.1,0.2c-1,0-1.8-0.4-2-1.2c-0.5,0.8-1.6,1.2-2.7,1.2
				c-1.7,0-2.8-0.8-2.8-2.3c0-1.3,0.8-2.1,2.4-2.4l2.9-0.6v-0.3c0-1-0.6-1.5-1.5-1.5c-0.8,0-1.5,0.4-1.8,1.4l-2-0.6
				c0.4-1.5,1.7-2.5,3.9-2.5c2.2,0,3.7,1.1,3.7,3.1v3.5c0,0.4,0.2,0.6,0.6,0.6C185.9,96.9,186.1,96.9,186.3,96.9z M182.8,95.2v-0.5
				l-1.8,0.4c-0.8,0.2-1.2,0.4-1.2,1c0,0.6,0.5,0.9,1.1,0.9C181.9,96.9,182.8,96.5,182.8,95.2z"/>
			<path class="st3" d="M193.2,97.8c-0.6,0.4-1.4,0.7-2.3,0.7c-1.7,0-2.9-0.7-2.9-2.6v-4.4h-1.6v-1.7h1.6v-2l2.3-0.6v2.6h2.7v1.7
				h-2.7v4c0,0.8,0.4,1.2,1.2,1.2c0.6,0,1-0.2,1.3-0.5L193.2,97.8z"/>
			<path class="st3" d="M194.6,86.1h2.3v5.2c0.5-1.1,1.5-1.6,2.7-1.6c1.8,0,3.1,1,3.1,3.1v5.6h-2.3v-4.9c0-1.5-0.6-1.9-1.5-1.9
				c-1,0-2,0.6-2,2.3v4.5h-2.3V86.1z"/>
			<path class="st3" d="M212.8,94.8h-6c0.2,1.3,1,2,2.1,2c1,0,1.6-0.4,1.9-1.1l1.9,0.7c-0.5,1.3-2,2.1-3.8,2.1
				c-2.7,0-4.4-1.6-4.4-4.4c0-2.8,1.8-4.4,4.3-4.4c2.6,0,4,1.7,4,4C212.9,94.1,212.8,94.5,212.8,94.8z M206.8,93.2h3.8
				c-0.1-1.2-0.8-1.8-1.8-1.8C207.7,91.4,207.1,92,206.8,93.2z"/>
			<path class="st3" d="M214.7,89.9h2.1l0.1,1.5c0.6-1.1,1.6-1.7,2.8-1.7c1.2,0,2.3,0.6,2.8,1.7c0.5-1.1,1.7-1.7,2.9-1.7
				c1.6,0,3,1,3,3.1l0,5.6h-2.3v-5.1c0-1.2-0.6-1.7-1.5-1.7c-1,0-1.9,0.8-1.9,2.3v4.6h-2.3v-5.1c0-1.2-0.6-1.7-1.5-1.7
				c-0.9,0-1.9,0.7-1.9,2.3v4.5h-2.3V89.9z"/>
			<path class="st3" d="M239,96.9l-0.1,1.4c-0.3,0.1-0.6,0.2-1.1,0.2c-1,0-1.8-0.4-2-1.2c-0.5,0.8-1.6,1.2-2.7,1.2
				c-1.7,0-2.8-0.8-2.8-2.3c0-1.3,0.8-2.1,2.4-2.4l2.9-0.6v-0.3c0-1-0.6-1.5-1.5-1.5c-0.8,0-1.5,0.4-1.8,1.4l-2-0.6
				c0.4-1.5,1.7-2.5,3.9-2.5c2.2,0,3.7,1.1,3.7,3.1v3.5c0,0.4,0.2,0.6,0.6,0.6C238.6,96.9,238.8,96.9,239,96.9z M235.5,95.2v-0.5
				l-1.8,0.4c-0.8,0.2-1.2,0.4-1.2,1c0,0.6,0.5,0.9,1.1,0.9C234.6,96.9,235.5,96.5,235.5,95.2z"/>
			<path class="st3" d="M245.9,97.8c-0.6,0.4-1.4,0.7-2.3,0.7c-1.7,0-2.9-0.7-2.9-2.6v-4.4h-1.6v-1.7h1.6v-2l2.3-0.6v2.6h2.7v1.7
				H243v4c0,0.8,0.4,1.2,1.2,1.2c0.6,0,1-0.2,1.3-0.5L245.9,97.8z"/>
			<path class="st3" d="M246.9,87.4c0-0.8,0.5-1.3,1.4-1.3s1.4,0.4,1.4,1.3s-0.5,1.2-1.4,1.2S246.9,88.2,246.9,87.4z M249.5,98.4
				h-2.3v-8.5h2.3V98.4z"/>
			<path class="st3" d="M259.6,92.2l-2.2,0.8c-0.2-1-0.8-1.5-1.7-1.5c-1.3,0-2,0.9-2,2.7c0,1.8,0.8,2.7,2.1,2.7c1,0,1.6-0.5,1.8-1.5
				l2.1,0.7c-0.4,1.5-1.8,2.6-3.9,2.6c-2.7,0-4.4-1.6-4.4-4.4c0-2.8,1.8-4.4,4.3-4.4C258,89.7,259.2,90.8,259.6,92.2z"/>
			<path class="st3" d="M260.6,96.8l1.3-1.4c0.5,0.8,1.5,1.4,2.7,1.4c0.9,0,1.5-0.3,1.5-0.8c0-0.4-0.2-0.6-0.9-0.8l-1.5-0.3
				c-2-0.4-2.7-1.2-2.7-2.5c0-1.4,1.3-2.7,3.7-2.7c1.7,0,3,0.5,3.7,1.6l-1.4,1.4c-0.5-0.8-1.4-1.2-2.2-1.2c-1,0-1.5,0.3-1.5,0.8
				c0,0.4,0.3,0.6,1.1,0.8l1.7,0.4c1.7,0.3,2.3,1.2,2.3,2.3c0,1.6-1.3,2.8-3.8,2.8C263,98.5,261.5,97.9,260.6,96.8z"/>
		</g>
	</g>
	<g id="XMLID_1102_">
		<path id="XMLID_1469_" class="st4" d="M97.7,91.8c6.5,0.9,13.3,0.8,19.2-2s9.8-8.9,9.9-15.7c0-5.9-2.5-11.3-7-14.8
			c-5-3.9-11.6-6-17.6-4.4c-6.1,1.6-11.3,7.2-11.6,13.8c-0.1,2.5,0.7,5.4,2.9,6.4c2.7,1.3,5.8-0.8,7.8-3.2c2.6-3.1,4.5-6.8,5.5-10.7
			c1.1-4.2,1.2-9-1.3-12.5c-1.3-1.8-3.2-3-5.1-3.9c-2-1-4.2-1.8-6.4-1.6c-3.4,0.3-6.2,2.7-8.6,5.1C77.4,56.5,69.3,65.8,59,70.3
			c-10.6,4.6-23.7,6-32.8-3.6C15.7,55.8,21.4,36.3,34.6,33c26.7-6.8,55.9,7.7,59.5-11.5"/>
		<g id="XMLID_1463_">
			<polygon id="XMLID_1468_" class="st5" points="86.2,97 87.4,100.1 91.1,102.9 90.1,99.9 			"/>
			<polygon id="XMLID_1467_" class="st6" points="98.3,99.9 106.9,99.9 103,97 95.9,97 98.3,99.8 			"/>
			<polygon id="XMLID_1466_" class="st7" points="98.3,99.8 95.9,97 86.2,97 90.1,99.9 98.3,99.9 			"/>
			<polygon id="XMLID_1465_" class="st8" points="90.1,99.9 91.1,102.9 98.3,102.9 98.3,99.9 			"/>
			<polygon id="XMLID_1464_" class="st9" points="106.9,99.9 98.3,99.9 98.3,102.9 108.2,102.9 			"/>
		</g>
		<path id="XMLID_1460_" class="st10" d="M81.5,90.8c0,0-56.9-2-59.2,1.7c-2.3,3.7,31.7,3.9,26.5,4.6c-5.2,0.7-35.1-0.2-35.9,4.2
			c-0.8,4.4,60.1,2.3,74.1,1c1.9-0.2-22.1,1.9-22.3,3.2c-0.3,2.3,70.5-2.1,70.2-7.9C134.6,92.4,81.5,90.8,81.5,90.8z"/>
		<g id="XMLID_1421_">
			<path id="XMLID_1459_" class="st11" d="M78.8,19.2l-4.3,10.4c1,5.3,7,4.8,7,4.8l2.7-4.5l-3.7-10.6C79.9,19.4,79.3,19.3,78.8,19.2
				z"/>
			<path id="XMLID_1458_" class="st12" d="M79.6,29.8l0-11.2l1,0.8l3.7,10.6C84.3,29.9,83.2,34.4,79.6,29.8z"/>
			<path id="XMLID_1455_" class="st13" d="M78.8,19.2c0.5,0.2,1.1,0.2,1.8,0.1l-0.8-2.4L78.8,19.2z"/>
			<path id="XMLID_1454_" class="st14" d="M82,31.2c-1.7-0.1-2.4-1.4-2.4-1.4s-1,1-2.8,1c-1.8-0.1-2.3-1.1-2.3-1.1L74,87.2l8.1,0.2
				l2.1-57.5C84.3,29.9,84.1,31.3,82,31.2z"/>
			<g id="XMLID_1452_">
				<path id="XMLID_1453_" class="st15" d="M79.6,29.8c0,0-1,1-2.8,1c-1.8-0.1-2.3-1.1-2.3-1.1L74,87.2l4.3,0.1L79.6,29.8z"/>
			</g>
			<path id="XMLID_1451_" class="st7" d="M81.2,96l-6.8-0.2c-0.4,0-0.6-0.3-0.6-0.7l0.1-4.1c0-0.4,0.3-0.6,0.7-0.6l6.8,0.2
				c0.4,0,0.6,0.3,0.6,0.7l-0.1,4.1C81.8,95.8,81.5,96.1,81.2,96z"/>
			<path id="XMLID_1450_" class="st16" d="M81.8,91.8l-7.9-0.2c-0.4,0-0.6-0.3-0.6-0.7l0.1-4.1c0-0.4,0.3-0.6,0.7-0.6l7.9,0.2
				c0.4,0,0.6,0.3,0.6,0.7l-0.1,4.1C82.5,91.6,82.2,91.8,81.8,91.8z"/>
			<g id="XMLID_1443_" class="st17">
				<g>
					<path class="st3" d="M75.2,34.1c-0.7,17.1-0.7,34.4-0.4,51.5c0,0.4,0.6,0.4,0.6,0c0.5-17.1,0.8-34.4,0.3-51.5
						C75.6,33.8,75.2,33.8,75.2,34.1L75.2,34.1z"/>
				</g>
			</g>
			<g id="XMLID_1436_" class="st17">
				<g>
					<path class="st3" d="M73.7,87.1c2.2,0.4,4.9,0.7,7.1,0.2c0.2,0,0.2-0.3,0-0.4c-2.2-0.6-4.9-0.5-7.1-0.2
						C73.5,86.6,73.4,87,73.7,87.1L73.7,87.1z"/>
				</g>
			</g>
			<g id="XMLID_1429_" class="st17">
				<g>
					<path class="st3" d="M74.2,92.6c1,0.5,2.1,0.3,3.2,0.4c1.2,0,2.4,0.1,3.7-0.1c0.3-0.1,0.3-0.5,0-0.5C80,92,78.9,92,77.7,92
						c-1.1,0-2.4-0.3-3.4,0.1C74.1,92.2,74,92.5,74.2,92.6L74.2,92.6z"/>
				</g>
			</g>
			<g id="XMLID_1422_" class="st17">
				<g>
					<path class="st3" d="M83.1,33.3c-0.1,3.2-0.5,6.8,0.1,9.9c0,0.2,0.4,0.2,0.4,0c0.6-3.1,0.2-6.7,0.1-9.9
						C83.7,32.9,83.1,32.9,83.1,33.3L83.1,33.3z"/>
				</g>
			</g>
		</g>
		<g id="XMLID_1363_">
			<path id="XMLID_1418_" class="st18" d="M71.3,32.4l-12.5,0.7l4.4,57.1l10.7-0.5L71.3,32.4z M60.9,36.3c-1.6,0-1.6-2.4,0-2.4
				C62.5,33.9,62.5,36.3,60.9,36.3z"/>
			<g id="XMLID_1397_">
				<path id="XMLID_1417_" class="st19" d="M68.6,90.2L68.6,90.2c-0.3,0-0.5-0.2-0.5-0.4l-2.5-55.3c0-0.2,0.2-0.4,0.4-0.4l0.1,0
					c0.2,0,0.4,0.2,0.4,0.4l2.5,55.3C68.9,90,68.8,90.2,68.6,90.2z"/>
				
					<rect id="XMLID_1416_" x="67.8" y="35.3" transform="matrix(0.999 -4.529436e-02 4.529436e-02 0.999 -1.539 3.1896)" class="st19" width="3.6" height="0.6"/>
				
					<rect id="XMLID_1415_" x="69.2" y="36.4" transform="matrix(0.999 -4.530866e-02 4.530866e-02 0.999 -1.5905 3.2251)" class="st19" width="2.2" height="0.6"/>
				
					<rect id="XMLID_1414_" x="67.9" y="37.7" transform="matrix(0.999 -4.529475e-02 4.529475e-02 0.999 -1.649 3.1971)" class="st19" width="3.6" height="0.6"/>
				
					<rect id="XMLID_1413_" x="69.4" y="38.8" transform="matrix(0.999 -4.529452e-02 4.529452e-02 0.999 -1.7001 3.2315)" class="st19" width="2.2" height="0.6"/>
				
					<rect id="XMLID_1412_" x="68" y="40.1" transform="matrix(0.999 -4.530350e-02 4.530350e-02 0.999 -1.7595 3.2052)" class="st19" width="3.6" height="0.6"/>
				
					<rect id="XMLID_1411_" x="69.5" y="41.3" transform="matrix(0.999 -4.530866e-02 4.530866e-02 0.999 -1.8107 3.2401)" class="st19" width="2.2" height="0.6"/>
				
					<rect id="XMLID_1410_" x="68.2" y="42.6" transform="matrix(0.999 -4.529436e-02 4.529436e-02 0.999 -1.8692 3.2121)" class="st19" width="3.6" height="0.6"/>
				
					<rect id="XMLID_1409_" x="69.6" y="43.7" transform="matrix(0.999 -4.529452e-02 4.529452e-02 0.999 -1.9203 3.2465)" class="st19" width="2.2" height="0.6"/>
				
					<rect id="XMLID_1408_" x="68.3" y="45" transform="matrix(0.999 -4.530350e-02 4.530350e-02 0.999 -1.9796 3.2202)" class="st19" width="3.6" height="0.6"/>
				
					<rect id="XMLID_1407_" x="69.7" y="46.1" transform="matrix(0.999 -4.530866e-02 4.530866e-02 0.999 -2.031 3.2551)" class="st19" width="2.2" height="0.6"/>
				
					<rect id="XMLID_1406_" x="68.4" y="47.4" transform="matrix(0.999 -4.529475e-02 4.529475e-02 0.999 -2.0894 3.2271)" class="st19" width="3.6" height="0.6"/>
				
					<rect id="XMLID_1405_" x="69.8" y="48.6" transform="matrix(0.999 -4.529452e-02 4.529452e-02 0.999 -2.1404 3.2615)" class="st19" width="2.2" height="0.6"/>
				
					<rect id="XMLID_1404_" x="68.5" y="49.9" transform="matrix(0.999 -4.530350e-02 4.530350e-02 0.999 -2.1998 3.2352)" class="st19" width="3.6" height="0.6"/>
				
					<rect id="XMLID_1403_" x="69.9" y="51" transform="matrix(0.999 -4.530866e-02 4.530866e-02 0.999 -2.2512 3.2701)" class="st19" width="2.2" height="0.6"/>
				
					<rect id="XMLID_1402_" x="68.6" y="52.3" transform="matrix(0.999 -4.530310e-02 4.530310e-02 0.999 -2.3099 3.2427)" class="st19" width="3.6" height="0.6"/>
				
					<rect id="XMLID_1401_" x="70" y="53.4" transform="matrix(0.999 -4.529388e-02 4.529388e-02 0.999 -2.3605 3.2765)" class="st19" width="2.2" height="0.6"/>
				
					<rect id="XMLID_1400_" x="68.7" y="54.7" transform="matrix(0.999 -4.530350e-02 4.530350e-02 0.999 -2.42 3.2502)" class="st19" width="3.6" height="0.6"/>
				
					<rect id="XMLID_1399_" x="70.1" y="55.9" transform="matrix(0.999 -4.529452e-02 4.529452e-02 0.999 -2.4706 3.284)" class="st19" width="2.2" height="0.6"/>
				
					<rect id="XMLID_1398_" x="68.8" y="57.2" transform="matrix(0.999 -4.531224e-02 4.531224e-02 0.999 -2.5306 3.2583)" class="st19" width="3.6" height="0.6"/>
			</g>
			<g id="XMLID_1371_" class="st20">
				
					<rect id="XMLID_1396_" x="70.2" y="58.3" transform="matrix(0.999 -4.529516e-02 4.529516e-02 0.999 -2.5808 3.2915)" class="st18" width="2.2" height="0.6"/>
				
					<rect id="XMLID_1395_" x="68.9" y="59.6" transform="matrix(0.999 -4.530350e-02 4.530350e-02 0.999 -2.6402 3.2652)" class="st18" width="3.6" height="0.6"/>
				
					<rect id="XMLID_1394_" x="70.3" y="60.7" transform="matrix(0.999 -4.528037e-02 4.528037e-02 0.999 -2.69 3.2979)" class="st18" width="2.2" height="0.6"/>
				
					<rect id="XMLID_1393_" x="69" y="62" transform="matrix(0.999 -4.530310e-02 4.530310e-02 0.999 -2.7503 3.2727)" class="st18" width="3.6" height="0.6"/>
				
					<rect id="XMLID_1392_" x="70.5" y="63.2" transform="matrix(0.999 -4.529388e-02 4.529388e-02 0.999 -2.8008 3.3064)" class="st18" width="2.2" height="0.6"/>
				
					<rect id="XMLID_1391_" x="69.1" y="64.5" transform="matrix(0.999 -4.530350e-02 4.530350e-02 0.999 -2.8604 3.2802)" class="st18" width="3.6" height="0.6"/>
				
					<rect id="XMLID_1390_" x="70.6" y="65.6" transform="matrix(0.999 -4.528102e-02 4.528102e-02 0.999 -2.9101 3.313)" class="st18" width="2.2" height="0.6"/>
				
					<rect id="XMLID_1389_" x="69.3" y="66.9" transform="matrix(0.999 -4.530350e-02 4.530350e-02 0.999 -2.9705 3.2877)" class="st18" width="3.6" height="0.6"/>
				
					<rect id="XMLID_1388_" x="70.7" y="68" transform="matrix(0.999 -4.529516e-02 4.529516e-02 0.999 -3.0211 3.3215)" class="st18" width="2.2" height="0.6"/>
				
					<rect id="XMLID_1387_" x="69.4" y="69.3" transform="matrix(0.999 -4.530310e-02 4.530310e-02 0.999 -3.0806 3.2951)" class="st18" width="3.6" height="0.6"/>
				
					<rect id="XMLID_1386_" x="70.8" y="70.5" transform="matrix(0.999 -4.529388e-02 4.529388e-02 0.999 -3.1311 3.3289)" class="st18" width="2.2" height="0.6"/>
				
					<rect id="XMLID_1385_" x="69.5" y="71.8" transform="matrix(0.999 -4.530310e-02 4.530310e-02 0.999 -3.1907 3.3026)" class="st18" width="3.6" height="0.6"/>
				
					<rect id="XMLID_1384_" x="70.9" y="72.9" transform="matrix(0.999 -4.529388e-02 4.529388e-02 0.999 -3.2411 3.3364)" class="st18" width="2.2" height="0.6"/>
				
					<rect id="XMLID_1383_" x="69.6" y="74.2" transform="matrix(0.999 -4.530350e-02 4.530350e-02 0.999 -3.3008 3.3102)" class="st18" width="3.6" height="0.6"/>
				
					<rect id="XMLID_1382_" x="71" y="75.3" transform="matrix(0.999 -4.529516e-02 4.529516e-02 0.999 -3.3513 3.344)" class="st18" width="2.2" height="0.6"/>
				
					<rect id="XMLID_1381_" x="69.7" y="76.6" transform="matrix(0.999 -4.530350e-02 4.530350e-02 0.999 -3.4109 3.3177)" class="st18" width="3.6" height="0.6"/>
				
					<rect id="XMLID_1380_" x="71.1" y="77.8" transform="matrix(0.999 -4.529516e-02 4.529516e-02 0.999 -3.4614 3.3515)" class="st18" width="2.2" height="0.6"/>
				
					<rect id="XMLID_1379_" x="69.8" y="79.1" transform="matrix(0.999 -4.529436e-02 4.529436e-02 0.999 -3.5223 3.3246)" class="st18" width="3.6" height="0.6"/>
				
					<rect id="XMLID_1378_" x="71.2" y="80.2" transform="matrix(0.999 -4.530930e-02 4.530930e-02 0.999 -3.5745 3.3602)" class="st18" width="2.2" height="0.6"/>
				
					<rect id="XMLID_1377_" x="69.9" y="81.6" transform="matrix(0.999 -4.530270e-02 4.530270e-02 0.999 -3.6349 3.3328)" class="st18" width="3.6" height="0.6"/>
				
					<rect id="XMLID_1376_" x="71.3" y="82.7" transform="matrix(0.999 -4.530866e-02 4.530866e-02 0.999 -3.6865 3.3678)" class="st18" width="2.2" height="0.6"/>
				
					<rect id="XMLID_1375_" x="70" y="84" transform="matrix(0.999 -4.530270e-02 4.530270e-02 0.999 -3.747 3.3405)" class="st18" width="3.6" height="0.6"/>
				
					<rect id="XMLID_1374_" x="71.5" y="85.2" transform="matrix(0.999 -4.529452e-02 4.529452e-02 0.999 -3.7974 3.3743)" class="st18" width="2.2" height="0.6"/>
				
					<rect id="XMLID_1373_" x="70.1" y="86.5" transform="matrix(0.999 -4.530270e-02 4.530270e-02 0.999 -3.859 3.3481)" class="st18" width="3.6" height="0.6"/>
				
					<rect id="XMLID_1372_" x="71.6" y="87.7" transform="matrix(0.999 -4.530866e-02 4.530866e-02 0.999 -3.9106 3.383)" class="st18" width="2.2" height="0.6"/>
			</g>
			<g id="XMLID_1364_" class="st17">
				<g>
					<path class="st3" d="M60,39.7c0.3,11.8,1.5,23.6,2.7,35.3c0,0.2,0.3,0.2,0.3,0c-0.6-11.8-1.2-23.7-2.6-35.3
						C60.4,39.5,60,39.5,60,39.7L60,39.7z"/>
				</g>
			</g>
		</g>
		<g id="XMLID_1332_">
			<path id="XMLID_1362_" class="st21" d="M80,90.4L79.7,91c-0.9,2-0.8,4.3,0.3,6.1l0,0l-14.7,4.3l-0.2-7L80,90.4z"/>
			<polygon id="XMLID_1359_" class="st22" points="66.2,101.7 80,97.4 80,96.6 64.9,101.1 			"/>
			<polygon id="XMLID_1358_" class="st6" points="66.2,94.7 33.5,94.7 47.9,90.4 80,90.4 			"/>
			<path id="XMLID_1357_" class="st9" d="M33.5,94.7l-0.1,0.1c-1.2,2.2-1.1,5,0.1,7.1l0,0l32.7,0l-0.1-0.3c-0.9-2.2-0.9-4.7,0-7l0,0
				H33.5z"/>
			<path id="XMLID_1356_" class="st23" d="M66.9,96.5c0,0,0.7-0.3,1.8-0.8c0.5-0.2,1.2-0.5,1.8-0.7c0.3-0.1,0.7-0.3,1-0.4
				c0.4-0.1,0.7-0.2,1.1-0.4c0.4-0.1,0.7-0.2,1.1-0.3c0.4-0.1,0.7-0.2,1.1-0.3c0.7-0.2,1.3-0.4,1.9-0.5c1.1-0.3,1.9-0.4,1.9-0.4
				s-0.7,0.3-1.8,0.8c-0.5,0.2-1.2,0.5-1.8,0.7c-0.3,0.1-0.7,0.3-1,0.4c-0.4,0.1-0.7,0.2-1.1,0.4c-0.4,0.1-0.7,0.2-1.1,0.3
				c-0.4,0.1-0.7,0.2-1.1,0.3c-0.7,0.2-1.3,0.4-1.9,0.5C67.7,96.3,66.9,96.5,66.9,96.5z"/>
			<path id="XMLID_1355_" class="st23" d="M67.1,98.1c0,0,0.4-0.3,1.1-0.6c0.3-0.2,0.7-0.3,1.2-0.5c0.4-0.2,0.9-0.3,1.4-0.5
				c0.5-0.2,0.9-0.3,1.4-0.4c0.4-0.1,0.9-0.2,1.2-0.3c0.7-0.2,1.2-0.2,1.2-0.2s-0.4,0.3-1.1,0.6c-0.3,0.2-0.7,0.3-1.2,0.5
				c-0.4,0.2-0.9,0.3-1.4,0.5c-0.5,0.2-0.9,0.3-1.4,0.4c-0.4,0.1-0.9,0.2-1.2,0.3C67.6,98,67.1,98.1,67.1,98.1z"/>
			<path id="XMLID_1354_" class="st23" d="M70.6,98.5c0,0,0.4-0.3,1.1-0.6c0.3-0.2,0.7-0.3,1.2-0.5c0.4-0.2,0.9-0.3,1.4-0.5
				c0.5-0.2,0.9-0.3,1.4-0.4c0.4-0.1,0.9-0.2,1.2-0.3c0.7-0.2,1.2-0.2,1.2-0.2s-0.4,0.3-1.1,0.6c-0.3,0.2-0.7,0.3-1.2,0.5
				c-0.4,0.2-0.9,0.3-1.4,0.5C74,97.7,73.5,97.9,73,98c-0.4,0.1-0.9,0.2-1.2,0.3C71.1,98.5,70.6,98.5,70.6,98.5z"/>
			<g id="XMLID_1346_" class="st17">
				<path class="st3" d="M34.7,97.1c8.7,0.5,17.3,0.7,26,0.6c1.3,0,2.7-0.1,3.6-1c-0.8-0.3-1.8-0.3-2.7-0.3
					c-5.2,0.1-10.3,0-15.5-0.4c-4-0.3-8.1-0.8-12,0c-0.2,0-0.4,0.1-0.4,0.3c-0.1,0.3,0.3,0.5,0.7,0.5c5.2,0.1,10.3,0.3,15.5,0.4"/>
				<g>
					<path class="st3" d="M34.7,97.5c5.9,0.6,11.8,0.7,17.7,0.7c3.8,0,8.9,1.1,12.2-1.1c0.3-0.2,0.3-0.8-0.1-0.9
						C59,95.2,52.8,96,47.2,95.6c-3.8-0.3-10.2-1.9-13.7,0.2c-0.3,0.2-0.4,0.5-0.2,0.8c0.5,1.1,2,0.8,3.1,0.8
						c4.5,0.2,9,0.4,13.6,0.3c0.6,0,0.6-0.9,0-0.9c-2.9-0.2-5.8-0.3-8.7-0.4c-1.3,0-2.6,0-3.9-0.1c-2.7-0.2,1.5-0.1,2-0.1
						c5.5,0.1,11,0.8,16.6,0.9c1.3,0,2.6-0.1,3.9,0c0.7,0,3,0,1,0.2c-2.7,0.3-5.7,0-8.4,0c-5.9-0.1-11.8-0.4-17.7-0.5
						C34.2,96.7,34.2,97.5,34.7,97.5L34.7,97.5z"/>
				</g>
			</g>
			<path id="XMLID_1345_" class="st24" d="M68.7,94.2c-0.7,0-1.3,0.2-1.8,0.6c-0.1-0.1-0.3,0-0.4,0.1c-0.8,1.1-2,6,0.5,6.1
				c0.3,0,0.7-0.1,0.9-0.4c0.4-0.4,0-1,0-1.5c-0.1-0.8,0-1.7,0.3-2.5c0.2-0.7,0.7-1.3,0.9-1.9C69.2,94.5,69,94.2,68.7,94.2z"/>
			<g id="XMLID_1340_">
				<g>
					<path id="XMLID_30_" class="st25" d="M66.2,101.9c-0.2,0-0.3-0.1-0.4-0.3c-1.8-3.3,0-6.7,0.1-6.8c0.1-0.1,0.2-0.2,0.3-0.2
						l13.7-4.4c0.3-0.1,0.5,0.1,0.6,0.3c0.1,0.3-0.1,0.5-0.3,0.6l-13.5,4.3c-0.3,0.6-1.2,3-0.2,5.4l13.4-4.1
						c0.3-0.1,0.5,0.1,0.6,0.3c0.1,0.3-0.1,0.5-0.3,0.6l-13.8,4.2C66.3,101.9,66.2,101.9,66.2,101.9z"/>
				</g>
			</g>
			<g id="XMLID_1333_" class="st17">
				<g>
					<path class="st3" d="M47.5,91.1c5.1,0.5,10.4,0.1,15.6-0.1c0.2,0,0.2-0.3,0-0.3c-5.2-0.2-10.5-0.6-15.6-0.1
						C47.2,90.7,47.2,91.1,47.5,91.1L47.5,91.1z"/>
				</g>
			</g>
		</g>
		<g id="XMLID_1278_">
			<path id="XMLID_1331_" class="st21" d="M76,82.2l-0.3,0.6c-0.9,2-0.8,4.3,0.3,6.1l0,0l-14.7,4.3l-0.2-7L76,82.2z"/>
			<polygon id="XMLID_1330_" class="st26" points="62.2,93.5 76,89.2 76,88.4 61,92.9 			"/>
			<polygon id="XMLID_1329_" class="st27" points="62.2,86.4 29.5,86.4 43.9,82.2 76,82.2 			"/>
			<path id="XMLID_1328_" class="st28" d="M29.5,86.4l-0.1,0.1c-1.2,2.2-1.1,4.8,0.1,7l0,0h32.7l0-0.1c-0.9-2.2-0.9-4.7,0-7l0,0
				H29.5z"/>
			<path id="XMLID_1327_" class="st23" d="M63,88.2c0,0,0.7-0.3,1.8-0.8c0.5-0.2,1.2-0.5,1.8-0.7c0.3-0.1,0.7-0.3,1-0.4
				c0.4-0.1,0.7-0.2,1.1-0.4c0.4-0.1,0.7-0.2,1.1-0.3c0.4-0.1,0.7-0.2,1.1-0.3c0.7-0.2,1.3-0.4,1.9-0.5c1.1-0.3,1.9-0.4,1.9-0.4
				s-0.7,0.3-1.8,0.8c-0.5,0.2-1.2,0.5-1.8,0.7c-0.3,0.1-0.7,0.3-1,0.4c-0.4,0.1-0.7,0.2-1.1,0.4c-0.4,0.1-0.7,0.2-1.1,0.3
				c-0.4,0.1-0.7,0.2-1.1,0.3c-0.7,0.2-1.3,0.4-1.9,0.5C63.7,88.1,63,88.2,63,88.2z"/>
			<path id="XMLID_1326_" class="st23" d="M66.6,90.3c0,0,0.4-0.3,1.1-0.6c0.3-0.2,0.7-0.3,1.2-0.5c0.4-0.2,0.9-0.3,1.4-0.5
				c0.5-0.2,0.9-0.3,1.4-0.4c0.4-0.1,0.9-0.2,1.2-0.3c0.7-0.2,1.2-0.2,1.2-0.2S73.7,88,73,88.3c-0.3,0.2-0.7,0.3-1.2,0.5
				c-0.4,0.2-0.9,0.3-1.4,0.5c-0.5,0.2-0.9,0.3-1.4,0.4c-0.4,0.1-0.9,0.2-1.2,0.3C67.1,90.2,66.6,90.3,66.6,90.3z"/>
			<g id="XMLID_1318_" class="st17">
				<path class="st3" d="M30.8,88.9c8.7,0.5,17.3,0.7,26,0.6c1.3,0,2.7-0.1,3.6-1c-0.8-0.3-1.8-0.3-2.7-0.3
					c-5.2,0.1-10.3,0-15.5-0.4c-4-0.3-8.1-0.8-12,0c-0.2,0-0.4,0.1-0.4,0.3c-0.1,0.3,0.3,0.5,0.7,0.5c5.2,0.1,10.3,0.3,15.5,0.4"/>
				<g>
					<path class="st3" d="M30.8,89.3c5.9,0.6,11.8,0.7,17.7,0.7c3.8,0,8.9,1.1,12.2-1.1c0.3-0.2,0.3-0.8-0.1-0.9
						C55,87,48.9,87.8,43.2,87.4c-3.8-0.3-10.2-1.9-13.7,0.2c-0.3,0.2-0.4,0.5-0.2,0.8c0.5,1.1,2,0.8,3.1,0.8
						c4.5,0.2,9,0.4,13.6,0.3c0.6,0,0.6-0.9,0-0.9c-2.9-0.2-5.8-0.3-8.7-0.4c-1.3,0-2.6,0-3.9-0.1c-2.7-0.2,1.5-0.1,2-0.1
						c5.5,0.1,11,0.8,16.6,0.9c1.3,0,2.6-0.1,3.9,0c0.7,0,3,0,1,0.2c-2.7,0.3-5.7,0-8.4,0c-5.9-0.1-11.8-0.4-17.7-0.5
						C30.2,88.5,30.3,89.2,30.8,89.3L30.8,89.3z"/>
				</g>
			</g>
			<path id="XMLID_1317_" class="st24" d="M64.7,86c-0.7,0-1.3,0.2-1.8,0.6c-0.1-0.1-0.3,0-0.4,0.1c-0.8,1.1-2,6,0.5,6.1
				c0.3,0,0.7-0.1,0.9-0.4c0.4-0.4,0-1,0-1.5c-0.1-0.8,0-1.7,0.3-2.5c0.2-0.7,0.7-1.3,0.9-1.9C65.2,86.3,65,86,64.7,86z"/>
			<g id="XMLID_1312_">
				<g>
					<path id="XMLID_31_" class="st15" d="M62.2,93.6c-0.2,0-0.3-0.1-0.4-0.2c-1.8-3.3,0-6.6,0.1-6.8c0.1-0.1,0.1-0.2,0.2-0.2
						L75.8,82c0.2-0.1,0.5,0.1,0.5,0.3c0.1,0.2-0.1,0.5-0.3,0.5l-13.5,4.3c-0.3,0.6-1.3,3.1-0.2,5.5l13.5-4.1
						c0.2-0.1,0.5,0.1,0.5,0.3c0.1,0.2-0.1,0.5-0.3,0.5l-13.8,4.2C62.3,93.6,62.3,93.6,62.2,93.6z"/>
				</g>
			</g>
			<g id="XMLID_1305_" class="st17">
				<g>
					<path class="st3" d="M43.5,82.9c5.1,0.5,10.4,0.1,15.6-0.1c0.2,0,0.2-0.3,0-0.3C54,82.4,48.7,82,43.5,82.4
						C43.2,82.5,43.2,82.9,43.5,82.9L43.5,82.9z"/>
				</g>
			</g>
			<g id="XMLID_1297_" class="st17">
				<path class="st3" d="M30.2,92.7c5.1,0,10.1,0,15.2,0"/>
				<g>
					<path class="st3" d="M30.2,92.9c5,0.2,10.2,0.2,15.2,0c0.1,0,0.1-0.2,0-0.2c-5-0.2-10.1-0.3-15.2,0C30,92.6,30,92.9,30.2,92.9
						L30.2,92.9z"/>
				</g>
			</g>
			<g id="XMLID_1289_" class="st17">
				<path class="st3" d="M47.1,93.2c0.3,0,0.6,0,0.9,0"/>
				<g>
					<path class="st3" d="M47.1,93.3c0.3,0,0.6,0,0.9-0.1c0.1,0,0.1-0.1,0-0.2C47.7,93,47.4,93,47.1,93C46.9,93,46.9,93.3,47.1,93.3
						L47.1,93.3z"/>
				</g>
			</g>
			<g id="XMLID_1281_" class="st17">
				<path class="st3" d="M50.2,93.2c3.3,0,6.6,0,9.9,0"/>
				<g>
					<path class="st3" d="M50.2,93.3c3.3,0.1,6.7,0.4,9.9,0c0.2,0,0.2-0.3,0-0.3c-3.2-0.4-6.7,0-9.9,0C50.1,93,50.1,93.3,50.2,93.3
						L50.2,93.3z"/>
				</g>
			</g>
			<polygon id="XMLID_1280_" class="st7" points="70.7,87.3 67.3,88.3 67.3,93.1 69.1,90.6 70.7,91.8 			"/>
			<path id="XMLID_1279_" class="st23" d="M64.6,89.4c0,0,0.4-0.3,1.1-0.6c0.3-0.2,0.7-0.3,1.2-0.5c0.4-0.2,0.9-0.3,1.4-0.5
				c0.5-0.2,0.9-0.3,1.4-0.4c0.4-0.1,0.9-0.2,1.2-0.3c0.7-0.2,1.2-0.2,1.2-0.2s-0.4,0.3-1.1,0.6c-0.3,0.2-0.7,0.3-1.2,0.5
				c-0.4,0.2-0.9,0.3-1.4,0.5c-0.5,0.2-0.9,0.3-1.4,0.4c-0.4,0.1-0.9,0.2-1.2,0.3C65.1,89.3,64.6,89.4,64.6,89.4z"/>
		</g>
		<g id="XMLID_1271_">
			<rect id="XMLID_1277_" x="45.2" y="76.5" class="st7" width="10.1" height="10.1"/>
			<g id="XMLID_1274_">
				<path id="XMLID_1275_" class="st27" d="M49.5,82.7L49.5,82.7L49.5,82.7l0.2,0.1l0.2,0h0.5l0.3,0h0.1l0.8,0l0.1,0l0.2,0H52l0.1,0
					l0,0.1l0,0.1l0,0.1l0,0.1v0.3l0,0.2l0,0.1l0,0.1l0,0.1l0,0l0,0l-0.2,0l-0.1,0l-0.1,0l-0.1,0l-0.5,0h-0.4l-0.6,0h-0.9l-0.5,0
					l-0.4,0l-0.1,0l0,0l0,0l0-0.1l0-0.4v-0.1l0-0.4l0-0.1l0-0.2l0-0.2l0-0.1l0-0.1l0-0.1l0-0.1l0-0.1l0.1-0.1l0.1-0.1l0.1-0.1
					l0.1-0.1l0.1-0.1l0.1-0.1l0.1,0l0.1-0.1l0.1,0l0.2-0.1l0.1,0l0.1,0l0.1,0l0.3,0l0.1,0l0.1,0l0.2,0l0.1,0l0.1,0l0.1-0.1l0,0
					l0.1-0.1l0-0.1v-0.1l0-0.1l0-0.1l0,0l-0.1-0.1l-0.1,0l-0.1,0l-0.1,0l-0.1,0h-0.1l-0.1,0l-0.1,0l-0.1,0l-0.1,0l0,0l-0.1,0.1l0,0
					l0,0.1l0,0.1l-0.1,0l-0.1,0h-0.1l-0.1,0l-0.3,0h-0.3l-0.1,0l-0.2,0l-0.1,0l0,0l0,0v-0.1l0-0.1l0-0.1l0-0.1l0,0l0-0.1l0.1-0.1
					l0.1-0.1l0.1-0.1l0.1-0.1l0.1-0.1l0.1-0.1l0.1-0.1l0.1-0.1l0.2-0.1l0.1,0l0.1,0l0.1,0l0.1,0l0.1,0l0.1,0l0.1,0l0.1,0h0.2l0.2,0
					h0.1l0.1,0l0.1,0l0.1,0l0.1,0l0.2,0.1l0.1,0l0.1,0l0.1,0.1l0.1,0.1l0.1,0.1l0.1,0.1l0.1,0.1l0.1,0.1l0.1,0.1l0,0.1l0,0.1l0,0.1
					l0,0.1l0,0.1l0,0.2v0.1l0,0.1l0,0.1l0,0.2l0,0.1l0,0.1l0,0.1L52,81.4l-0.1,0.1l-0.1,0.1l-0.1,0.1l-0.1,0.1l-0.1,0.1l-0.1,0.1
					l-0.1,0l-0.1,0l-0.1,0L51,82l-0.1,0l-0.2,0l-0.1,0l-0.1,0l-0.1,0l-0.2,0l-0.1,0h-0.1l-0.1,0H50l-0.1,0l-0.1,0l-0.1,0l0,0
					l-0.1,0.1l-0.1,0.1l0,0.1l0,0.1L49.5,82.7L49.5,82.7z"/>
			</g>
			<polygon id="XMLID_1273_" class="st29" points="45.2,76.5 49,74.4 59.1,74.4 55.2,76.5 			"/>
			<polygon id="XMLID_1272_" class="st5" points="55.2,76.5 55.2,86.5 59.1,84.5 59.1,74.4 			"/>
		</g>
		<g id="XMLID_1260_">
			<rect id="XMLID_1270_" x="43.3" y="66.1" class="st18" width="10.1" height="10.1"/>
			<polygon id="XMLID_1269_" class="st30" points="43.3,66.1 47.2,64.1 57.2,64.1 53.4,66.1 			"/>
			<polygon id="XMLID_1268_" class="st31" points="53.4,66.1 53.4,76.1 57.2,74.1 57.2,64.1 			"/>
			<g id="XMLID_1261_">
				<g>
					<path id="XMLID_41_" class="st7" d="M50.4,72v0.1l0,0.1l0,0.1l0,0.1l0,0.1l0,0l-0.1,0.1l-0.1,0.1l0,0L50.1,73L50,73.1l-0.1,0.1
						l-0.2,0.1l-0.1,0l-0.1,0.1l-0.1,0l-0.1,0l-0.1,0l-0.1,0l-0.1,0l-0.1,0l-0.1,0l-0.1,0h-0.1l-0.4,0l-0.2,0l-0.1,0l-0.1,0l-0.1,0
						l-0.1,0l-0.1,0l-0.1,0l-0.1,0L47,73.2L47,73.2L46.8,73l-0.1-0.1l-0.1-0.1l-0.1-0.1l-0.1-0.1l-0.1-0.1l0-0.1l-0.1-0.1l0-0.1
						l0-0.1l0-0.1l0.1,0l0.1,0l0.2,0l0.2,0H47l0.3,0h0.2l0.1,0l0.1,0l0,0.1l0,0.1l0.1,0.1l0,0l0.1,0.1l0,0l0.1,0l0,0l0.1,0l0.1,0
						l0.1,0h0.1l0.2,0l0.1,0l0.1,0l0.1-0.1l0,0l0.1-0.1l0,0l0-0.1l0-0.1V72l0-0.1l0-0.1l0,0l-0.1-0.1l-0.1-0.1l0,0l-0.1,0l-0.1,0
						l-0.1,0l-0.1,0h-0.2l-0.2,0l-0.1,0h-0.1l-0.1,0l0-0.1l0-0.1l0-0.1l0-0.1l0-0.1V71l0-0.1l0-0.1l0-0.1l0,0l0,0l0.2,0l0.1,0l0.2,0
						l0.1,0l0,0l0.1,0l0.1,0l0.1,0l0.1,0l0.1,0l0,0l0.1-0.1l0,0l0-0.1l0-0.1l0-0.1l0-0.1l0-0.1l-0.1-0.1l-0.1,0l-0.1,0l-0.1,0
						l-0.1,0l-0.1,0l-0.2,0l-0.1,0l-0.1,0l-0.1,0l0,0L47.8,70l0,0l0,0.1l0,0.1l-0.1,0l-0.1,0h-0.2l-0.3,0l-0.1,0l-0.2,0l-0.1,0
						l-0.1,0l-0.1,0l0,0l0,0v-0.1l0-0.1l0-0.1l0.1-0.2l0-0.1l0-0.1l0.1-0.1l0.1-0.1l0.1-0.1l0.1-0.1l0.1-0.1l0.1-0.1l0.1-0.1
						l0.1-0.1l0.1,0l0.1,0l0.1,0l0.1,0l0.1,0l0.2,0l0.1,0l0.1,0l0.1,0l0.1,0l0.3,0l0.1,0l0.1,0l0.1,0l0.1,0l0.1,0.1l0.1,0l0.1,0
						l0.1,0.1l0.1,0.1l0.1,0.1l0.1,0.1l0.1,0.1l0,0l0.1,0.1l0,0.1l0,0.1l0,0.1l0,0.1l0,0.1l0,0.1v0.1l0,0l0,0.1l0,0l0,0.1l-0.1,0.2
						l-0.1,0.1L50,70.8l-0.1,0.1l0,0.1l0,0.1l0,0.1l0.1,0.1l0.1,0.1l0.1,0.1l0.1,0.1l0.1,0.1l0.1,0.1l0,0.1l0,0.1L50.4,72L50.4,72z"
						/>
				</g>
			</g>
		</g>
		<g id="XMLID_1251_">
			<g>
				<path id="XMLID_56_" class="st7" d="M90.6,50c0.1-0.1,0.2-0.2,0.3-0.3c0.8-0.6,1.3-1.1,1.6-1.5c0.4-0.4,0.6-0.8,0.8-1.2
					c0.2-0.4,0.3-0.8,0.3-1.3c0-0.9-0.3-1.6-0.9-2.2c-0.6-0.6-1.4-0.9-2.4-0.9c-1,0-1.7,0.3-2.3,0.8c-0.6,0.5-1,1.3-1,2.3l-0.1,0.7
					h2.6l0-0.5c0-0.5,0.2-0.6,0.2-0.7c0.1-0.1,0.3-0.2,0.6-0.2c0.3,0,0.5,0.1,0.6,0.2c0.1,0.1,0.2,0.3,0.2,0.5
					c0,0.2-0.1,0.5-0.3,0.8c-0.2,0.3-0.6,0.7-1.7,1.6c-0.6,0.5-1.1,0.9-1.4,1.3c-0.4,0.4-0.6,0.9-0.8,1.3c-0.1,0.3-0.2,0.6-0.2,1
					l0,0.7h6.9V50H90.6z"/>
				<polygon id="XMLID_55_" class="st14" points="99.8,51.2 97.4,51.2 97.4,48.9 95.2,48.9 95.2,46.5 97.4,46.5 97.4,44.3 
					99.8,44.3 99.8,46.5 102.1,46.5 102.1,48.9 99.8,48.9 				"/>
				<path id="XMLID_54_" class="st7" d="M107.4,50c0.1-0.1,0.2-0.2,0.3-0.3c0.8-0.6,1.3-1.1,1.6-1.5c0.4-0.4,0.6-0.8,0.8-1.2
					c0.2-0.4,0.3-0.8,0.3-1.3c0-0.9-0.3-1.6-0.9-2.2c-0.6-0.6-1.4-0.9-2.4-0.9c-1,0-1.7,0.3-2.3,0.8c-0.6,0.5-1,1.3-1,2.3l-0.1,0.7
					h2.6l0-0.5c0-0.5,0.2-0.6,0.2-0.7c0.1-0.1,0.3-0.2,0.6-0.2c0.3,0,0.5,0.1,0.6,0.2c0.1,0.1,0.2,0.3,0.2,0.5
					c0,0.2-0.1,0.5-0.3,0.8c-0.2,0.3-0.6,0.7-1.7,1.6c-0.6,0.5-1.1,0.9-1.4,1.3c-0.4,0.4-0.6,0.9-0.8,1.3c-0.1,0.3-0.2,0.6-0.2,1
					l0,0.7h6.9V50H107.4z"/>
			</g>
		</g>
		<g id="XMLID_1231_">
			<g id="XMLID_1246_">
				<defs>
					<path id="XMLID_1248_" d="M58.1,50.8l2.3,10.4c0,0-3.8,4.1-10,6.9c-6.2,2.7-11.9,1.5-11.9,1.5l-5-9.3L58.1,50.8z"/>
				</defs>
				<use xlink:href="#XMLID_1248_"  style="overflow:visible;fill:#F9B030;"/>
				<clipPath id="XMLID_23_">
					<use xlink:href="#XMLID_1248_"  style="overflow:visible;"/>
				</clipPath>
				<path id="XMLID_1250_" class="st32" d="M58.1,50.8l2.3,10.4c0,0-3.8,4.1-10,6.9c-6.2,2.7-11.9,1.5-11.9,1.5l-5-9.3L58.1,50.8z"
					/>
				<path id="XMLID_1249_" class="st33" d="M58,48.9l2.4,10.8c0,0-3.9,4.3-10.4,7.1c-6.5,2.8-12.4,1.5-12.4,1.5l-5.2-9.6L58,48.9z"
					/>
			</g>
			<polygon id="XMLID_1245_" class="st2" points="53.7,51.2 58.5,52.5 48.9,62.6 34.6,62.6 			"/>
			<polygon id="XMLID_1244_" class="st34" points="44.6,53.7 62.9,48.7 48.1,61.5 28.9,63.1 			"/>
			<polygon id="XMLID_1243_" class="st2" points="44.1,52.5 62.4,47.4 47.6,60.2 28.4,61.8 			"/>
			<polygon id="XMLID_1242_" class="st35" points="62.9,48.7 62.4,47.4 47.6,60.2 48.1,61.5 			"/>
			<polygon id="XMLID_1241_" class="st36" points="48.1,61.5 47.6,60.2 28.4,61.8 28.9,63.1 			"/>
			<g id="XMLID_1232_">
				<g id="XMLID_1239_">
					<path id="XMLID_1240_" class="st27" d="M43.8,56.2c0.1,0.3,1,0.2,1.9-0.3c0.9-0.4,1.6-1,1.5-1.2c-0.1-0.3-1-0.2-1.9,0.3
						C44.3,55.4,43.7,55.9,43.8,56.2z"/>
				</g>
				<g id="XMLID_1237_">
					<polygon id="XMLID_1238_" class="st27" points="42.2,70.7 37.9,60.4 44.3,55.7 44.9,56.5 39.1,60.8 43.2,70.3 					"/>
				</g>
				<g id="XMLID_1235_">
					<path id="XMLID_1236_" class="st27" d="M41.7,71.2c0.2,0.5,0.8,0.8,1.4,0.5c0.5-0.2,0.8-0.8,0.5-1.4c-0.2-0.5-0.8-0.8-1.4-0.5
						C41.8,70,41.5,70.6,41.7,71.2z"/>
				</g>
				<g id="XMLID_1233_">
					<path id="XMLID_1234_" class="st27" d="M42.9,71.2l0.1,0.2L42.9,71.2c0,0,1.9,0.3,4.3,6.3l-0.9,0.4l-0.7,0.3l-0.9,0.4
						C41.8,72.8,42.9,71.2,42.9,71.2z"/>
				</g>
			</g>
		</g>
		<g id="XMLID_1209_">
			<g id="XMLID_1227_" class="st20">
				<g id="XMLID_1228_">
					<path id="XMLID_1229_" class="st37" d="M25.5,80.2h-1.6v1.6h-1.4v-1.6h-1.6v-1.4h1.6v-1.6h1.4v1.6h1.6V80.2z"/>
				</g>
			</g>
			<g id="XMLID_1222_" class="st20">
				<g id="XMLID_1223_">
					<path id="XMLID_1224_" class="st37" d="M48.9,40.8c0-0.4-0.2-0.6-0.8-0.6c-0.6,0-0.9,0.4-1.1,0.9l-1.4-0.8
						c0.4-1.1,1.4-1.6,2.6-1.6c1.2,0,2.3,0.7,2.3,2c0,1.5-1.6,2-1.6,2.7h-1.6C47.3,42.2,48.9,41.7,48.9,40.8z M47.1,45.1
						c0-0.5,0.4-1,1-1c0.5,0,1,0.4,1,1c0,0.5-0.4,1-1,1C47.6,46.1,47.1,45.6,47.1,45.1z"/>
				</g>
			</g>
			<g id="XMLID_1217_" class="st20">
				<g id="XMLID_1218_">
					<path id="XMLID_1219_" class="st37" d="M116.8,76.1h4.5v1.4h-4.5V76.1z M116.8,78.2h4.5v1.4h-4.5V78.2z"/>
				</g>
			</g>
			<g id="XMLID_1210_" class="st20">
				<path id="XMLID_1211_" class="st37" d="M102.5,30.7c0-1,0.8-1.7,1.8-1.7c1,0,1.8,0.7,1.8,1.7c0,1-0.8,1.7-1.8,1.7
					C103.3,32.5,102.5,31.7,102.5,30.7z M108,30.1l0.7,0.4l-4.6,5.1l-0.7-0.4L108,30.1z M104.8,30.7c0-0.3-0.2-0.6-0.6-0.6
					c-0.3,0-0.5,0.2-0.5,0.6c0,0.3,0.2,0.6,0.5,0.6C104.6,31.3,104.8,31,104.8,30.7z M106.2,34.7c0-1,0.8-1.7,1.8-1.7
					c1,0,1.8,0.8,1.8,1.7s-0.8,1.7-1.8,1.7C106.9,36.4,106.2,35.6,106.2,34.7z M108.5,34.7c0-0.3-0.2-0.6-0.6-0.6
					c-0.3,0-0.5,0.2-0.5,0.6c0,0.3,0.2,0.6,0.5,0.6C108.3,35.2,108.5,35,108.5,34.7z"/>
			</g>
		</g>
		<g id="XMLID_1103_">
			<path id="XMLID_1208_" class="st6" d="M83.9,55.3v37.7c0,0.9,0.8,1.6,1.7,1.6h27.1c0.9,0,1.7-0.7,1.7-1.6l0.1-37.7
				c0-0.9-0.7-1.7-1.7-1.7H85.6C84.6,53.5,83.9,54.3,83.9,55.3z"/>
			<polygon id="XMLID_1207_" class="st21" points="111.7,62.5 111.8,56.1 86.5,56.1 86.7,62.5 			"/>
			<g id="XMLID_1188_">
				<g id="XMLID_1201_">
					<g id="XMLID_1203_">
						<rect id="XMLID_1206_" x="87.3" y="66.8" class="st38" width="6.2" height="6"/>
						<polygon id="XMLID_1205_" class="st38" points="87.5,70.4 86.9,72.5 87.3,72.8 88.8,72.5 						"/>
						<polygon id="XMLID_1204_" class="st38" points="91.2,67.2 93.1,66.5 93.4,66.8 93.1,67.9 						"/>
					</g>
					<rect id="XMLID_1202_" x="86.9" y="66.5" class="st7" width="6.2" height="6"/>
				</g>
				<g id="XMLID_1195_">
					<g id="XMLID_1197_">
						<rect id="XMLID_1200_" x="96.3" y="66.8" class="st38" width="6.2" height="6"/>
						<polygon id="XMLID_1199_" class="st38" points="96.5,70.4 95.9,72.5 96.3,72.8 97.8,72.5 						"/>
						<polygon id="XMLID_1198_" class="st38" points="100.2,67.2 102.1,66.5 102.4,66.8 102.2,67.9 						"/>
					</g>
					<rect id="XMLID_1196_" x="95.9" y="66.5" class="st7" width="6.2" height="6"/>
				</g>
				<g id="XMLID_1189_">
					<g id="XMLID_1191_">
						<rect id="XMLID_1194_" x="105.3" y="66.8" class="st38" width="6.2" height="6"/>
						<polygon id="XMLID_1193_" class="st38" points="105.5,70.4 104.9,72.5 105.3,72.8 106.8,72.5 						"/>
						<polygon id="XMLID_1192_" class="st38" points="109.2,67.2 111.1,66.5 111.4,66.8 111.2,67.9 						"/>
					</g>
					<rect id="XMLID_1190_" x="104.9" y="66.5" class="st7" width="6.2" height="6"/>
				</g>
			</g>
			<g id="XMLID_1145_">
				<g id="XMLID_1177_">
					<g id="XMLID_1179_">
						<g>
							<rect id="XMLID_53_" x="87.3" y="75.8" class="st26" width="6.2" height="6"/>
							<polygon id="XMLID_52_" class="st26" points="87.5,79.4 86.9,81.5 87.3,81.8 88.8,81.5 							"/>
							<polygon id="XMLID_51_" class="st26" points="91.2,76.2 93.1,75.5 93.4,75.8 93.1,76.9 							"/>
						</g>
					</g>
					<rect id="XMLID_1178_" x="86.9" y="75.5" class="st14" width="6.2" height="6"/>
				</g>
				<g id="XMLID_1166_">
					<g id="XMLID_1168_">
						<g>
							<rect id="XMLID_59_" x="96.3" y="75.8" class="st26" width="6.2" height="6"/>
							<polygon id="XMLID_58_" class="st26" points="96.5,79.4 95.9,81.5 96.3,81.8 97.8,81.5 							"/>
							<polygon id="XMLID_57_" class="st26" points="100.2,76.2 102.1,75.5 102.4,75.8 102.2,76.9 							"/>
						</g>
					</g>
					<rect id="XMLID_1167_" x="95.9" y="75.5" class="st14" width="6.2" height="6"/>
				</g>
				<g id="XMLID_1157_">
					<g>
						<rect id="XMLID_65_" x="87.3" y="84.8" class="st26" width="6.2" height="6"/>
						<polygon id="XMLID_64_" class="st26" points="87.5,88.4 86.9,90.5 87.3,90.8 88.8,90.5 						"/>
						<polygon id="XMLID_63_" class="st26" points="91.2,85.2 93.1,84.5 93.4,84.8 93.1,85.9 						"/>
					</g>
				</g>
				<rect id="XMLID_1156_" x="86.9" y="84.5" class="st14" width="6.2" height="6"/>
				<g id="XMLID_1147_">
					<g>
						<rect id="XMLID_62_" x="96.3" y="84.8" class="st26" width="6.2" height="6"/>
						<polygon id="XMLID_61_" class="st26" points="96.5,88.4 95.9,90.5 96.3,90.8 97.8,90.5 						"/>
						<polygon id="XMLID_60_" class="st26" points="100.2,85.2 102.1,84.5 102.4,84.8 102.2,85.9 						"/>
					</g>
				</g>
				<rect id="XMLID_1146_" x="95.9" y="84.5" class="st14" width="6.2" height="6"/>
			</g>
			<g id="XMLID_1142_">
				<polygon id="XMLID_1144_" class="st39" points="111.1,75.4 110.3,84.8 105.3,84.8 105.3,89.3 104.9,90.5 105.3,90.8 111.4,90.8 
					111.4,75.7 				"/>
				<rect id="XMLID_1143_" x="104.9" y="75.4" class="st40" width="6.2" height="15.1"/>
			</g>
			<g id="XMLID_1134_" class="st17">
				<path class="st3" d="M86,54.2c8.6,0,17.2,0,25.9,0"/>
				<g>
					<path class="st3" d="M86,54.6c8.6,0,17.3,0.1,25.9-0.3c0.1,0,0.1-0.2,0-0.2c-8.6-0.4-17.3-0.3-25.9-0.3
						C85.5,53.8,85.5,54.6,86,54.6L86,54.6z"/>
				</g>
			</g>
			<g id="XMLID_1126_" class="st17">
				<path class="st3" d="M112.8,93.9c0.4-0.3,0.7-0.8,0.8-1.3"/>
				<g>
					<path class="st3" d="M112.9,94.1c0.5-0.2,1.4-1.1,0.8-1.7c-0.1-0.1-0.1-0.1-0.2-0.1c-0.2,0.1-0.3,0.2-0.4,0.4
						c-0.1,0.3-0.3,0.6-0.5,0.9C112.4,94,112.7,94.3,112.9,94.1L112.9,94.1z"/>
				</g>
			</g>
			<g id="XMLID_1118_" class="st17">
				<path class="st3" d="M113.2,59.3c0,0,0,0.1,0,0.1"/>
				<g>
					<path class="st3" d="M113.1,59.3c0,0,0,0.1,0,0.1c0,0.1,0.1,0.1,0.2,0c0,0,0-0.1,0-0.1C113.3,59.1,113.1,59.1,113.1,59.3
						L113.1,59.3z"/>
				</g>
			</g>
			<g id="XMLID_1110_" class="st17">
				<path class="st3" d="M84.6,92.8c0,0.3,0.2,0.6,0.5,0.6"/>
				<g>
					<path class="st3" d="M84.2,93c0.1-0.2,0.2-0.3,0.3-0.5C84.3,92.5,84.2,92.8,84.2,93c0.1,0.3,0.3,0.6,0.5,0.7
						c0.5,0.2,0.9-0.5,0.4-0.7c-0.1-0.1-0.2-0.1-0.3-0.3C84.7,92.3,84.2,92.6,84.2,93L84.2,93z"/>
				</g>
			</g>
			<g id="XMLID_1105_" class="st17">
				<path class="st3" d="M84.6,55.2c0,0,0.1,0.1,0.1,0.1"/>
				<g>
					<path class="st3" d="M84.4,55.4c0,0,0.1,0.1,0.1,0.1c0.3,0.5,1-0.2,0.5-0.5c0,0-0.1-0.1-0.1-0.1C84.5,54.8,84.2,55.1,84.4,55.4
						L84.4,55.4z"/>
				</g>
			</g>
			<g id="XMLID_1104_" class="st17">
				<path class="st3" d="M84.5,56.4"/>
				<g>
					<path class="st3" d="M84.5,56.8c0.5,0,0.5-0.8,0-0.8C84,56,84,56.8,84.5,56.8L84.5,56.8z"/>
				</g>
			</g>
		</g>
	</g>
</g>
</svg>
