<svg xmlns="http://www.w3.org/2000/svg" xmlns:xlink="http://www.w3.org/1999/xlink" viewBox="0 0 356.87 187.26"><defs><style>.cls-1{fill:#003533;}.cls-2{fill:#f9b030;}.cls-3{isolation:isolate;}.cls-4{clip-path:url(#clip-path);}.cls-5{opacity:0.27;}.cls-13,.cls-22,.cls-23,.cls-5{mix-blend-mode:multiply;}.cls-6{fill:#fff;}.cls-7{fill:none;stroke:#494b4d;stroke-linecap:round;stroke-linejoin:round;stroke-width:0.4px;stroke-dasharray:0.8 1.07;}.cls-22,.cls-23,.cls-38,.cls-7{opacity:0.5;}.cls-8{fill:#c7291c;}.cls-9{fill:#089eab;}.cls-10{fill:#fd4125;}.cls-11{fill:#ff544d;}.cls-12{fill:#00888f;}.cls-13{fill:#e0e0e0;opacity:0.7;}.cls-14{fill:#f5dac1;}.cls-15{fill:#eabfa0;}.cls-16{fill:#151a22;}.cls-17{fill:#ffc63f;}.cls-18{fill:#fd9f11;}.cls-19{fill:#d5d8d7;}.cls-20{opacity:0.2;}.cls-21,.cls-22{fill:#008a6a;}.cls-24{fill:#eae1c9;}.cls-25{fill:#009da4;}.cls-26{fill:#d7c9ad;}.cls-27{fill:#d6ccba;}.cls-28{fill:#008282;}.cls-29{fill:#e68c18;}.cls-30{fill:#e98900;}.cls-31{fill:#ff4331;}.cls-32{fill:#4d9d85;}.cls-33{fill:#007857;}.cls-34{clip-path:url(#clip-path-2);}.cls-35{fill:#001817;}.cls-36{fill:#353637;}.cls-37{fill:#00403b;}.cls-39{fill:#494b4d;}.cls-40{fill:#c60b0b;}.cls-41{fill:#580403;}.cls-42{fill:#770b04;}</style><clipPath id="clip-path"><rect class="cls-1" x="63.87" y="42.51" width="293" height="123" rx="11.19"/></clipPath><clipPath id="clip-path-2"><path class="cls-2" d="M119.46,93.48l2,8.93a27.71,27.71,0,0,1-8.56,5.9,18.11,18.11,0,0,1-10.22,1.26l-4.29-7.92Z"/></clipPath></defs><title>Asset 10</title><g class="cls-3"><g id="Layer_2" data-name="Layer 2"><g id="Layer_1-2" data-name="Layer 1"><rect class="cls-1" x="63.87" y="42.51" width="293" height="123" rx="11.19"/><g class="cls-4"><rect class="cls-1" x="63.87" y="42.51" width="293" height="123" rx="11.19"/><g class="cls-5"><path class="cls-1" d="M68.53,2.8C50.1,7,28.18,20.26,17.1,35.57,7.37,49,1.13,63.44.28,80c-1.37,26.56,1.82,55.58,20.06,74.93a103.78,103.78,0,0,0,47.45,28.36c13.12,3.44,53.24,6.87,72.13,0,14.06-5.11,27.76-11.67,38.06-22.52,6.06-6.38,11.74-13.23,15.92-21C201,126.53,203.45,111,202,96S197.42,65.29,190.26,52a93.43,93.43,0,0,0-28-32.14C149.26,10.51,110.93-6.77,68.53,2.8Z"/></g></g><path class="cls-6" d="M270.43,111.14V114h4.78v1.9h-4.78v4.59h-2.35V109.26h8.4v1.88Z"/><path class="cls-6" d="M277.64,117.62V112H280v5.08c0,1.32.56,1.75,1.58,1.75s1.87-.68,1.87-2.26V112h2.33v8.49h-2.08l-.08-1.47a3,3,0,0,1-2.94,1.64A2.73,2.73,0,0,1,277.64,117.62Z"/><path class="cls-6" d="M288.08,112h2l.15,1.66a2.63,2.63,0,0,1,2.64-1.83,2,2,0,0,1,.92.18l-.28,2a2.81,2.81,0,0,0-1-.14,2.06,2.06,0,0,0-2.07,2.26v4.4h-2.33Z"/><path class="cls-6" d="M300.69,120a3.82,3.82,0,0,1-2.31.69c-1.72,0-2.89-.69-2.89-2.56v-4.37h-1.56V112h1.56v-2l2.33-.65V112h2.72v1.73h-2.72v4a1,1,0,0,0,1.17,1.18,1.88,1.88,0,0,0,1.33-.48Z"/><path class="cls-6" d="M302.14,108.25h2.32v5.17a2.88,2.88,0,0,1,2.74-1.61,2.83,2.83,0,0,1,3.06,3.09v5.57h-2.33v-4.89c0-1.46-.63-1.94-1.51-1.94s-2,.65-2,2.35v4.48h-2.32Z"/><path class="cls-6" d="M320.34,117h-6a2,2,0,0,0,2.13,2,1.93,1.93,0,0,0,1.92-1.09l1.85.72a3.84,3.84,0,0,1-3.76,2.1,4.42,4.42,0,0,1-.12-8.83,3.76,3.76,0,0,1,4.05,4A9.77,9.77,0,0,1,320.34,117Zm-6-1.62h3.81a1.76,1.76,0,0,0-1.82-1.82A1.92,1.92,0,0,0,314.36,115.34Z"/><path class="cls-6" d="M322.26,112h2l.15,1.66a2.61,2.61,0,0,1,2.63-1.83,1.92,1.92,0,0,1,.92.18l-.27,2a2.88,2.88,0,0,0-1.05-.14,2.07,2.07,0,0,0-2.08,2.26v4.4h-2.33Z"/><path class="cls-6" d="M239.35,140.87h-2.1V135l.1-3.28h0l-3.11,9.12h-1.92l-3.09-9.12h0l.11,3.28v5.84h-2.12V129.66h3.4l2,6.12.72,2.53h0l.73-2.52,2-6.13h3.29Z"/><path class="cls-6" d="M250.17,139.36l-.14,1.45a2.58,2.58,0,0,1-1.1.22,2,2,0,0,1-2-1.21,3.32,3.32,0,0,1-2.7,1.22c-1.74,0-2.81-.79-2.81-2.29,0-1.26.83-2.07,2.37-2.38l2.92-.59v-.33a1.43,1.43,0,0,0-1.51-1.55,1.76,1.76,0,0,0-1.81,1.4l-2-.61c.39-1.5,1.68-2.48,3.89-2.48s3.72,1,3.72,3.14v3.45c0,.44.2.65.61.65A1.92,1.92,0,0,0,250.17,139.36Zm-3.47-1.61v-.53l-1.79.36c-.78.15-1.17.35-1.17.95s.48.87,1.07.87C245.78,139.4,246.7,139,246.7,137.75Z"/><path class="cls-6" d="M257,140.35a3.82,3.82,0,0,1-2.31.69c-1.71,0-2.89-.69-2.89-2.56v-4.37h-1.56v-1.73h1.56v-2l2.33-.64v2.6h2.72v1.73h-2.72v4a1,1,0,0,0,1.17,1.18,1.88,1.88,0,0,0,1.33-.48Z"/><path class="cls-6" d="M258.48,128.65h2.33v5.17a2.87,2.87,0,0,1,2.74-1.61,2.84,2.84,0,0,1,3.06,3.09v5.57h-2.33V136c0-1.46-.63-1.94-1.52-1.94s-1.95.65-1.95,2.35v4.48h-2.33Z"/><path class="cls-6" d="M276.69,137.36h-6a2,2,0,0,0,2.12,1.95,1.93,1.93,0,0,0,1.92-1.09l1.85.72a3.83,3.83,0,0,1-3.75,2.1,4.42,4.42,0,0,1-.12-8.83,3.75,3.75,0,0,1,4,4C276.75,136.62,276.72,137.05,276.69,137.36Zm-6-1.62h3.81a1.76,1.76,0,0,0-1.82-1.82A1.92,1.92,0,0,0,270.7,135.74Z"/><path class="cls-6" d="M278.61,132.38h2.09l.08,1.52a3,3,0,0,1,2.81-1.69,2.87,2.87,0,0,1,2.77,1.68,3.1,3.1,0,0,1,2.89-1.68,2.85,2.85,0,0,1,3,3.09l0,5.57H290v-5.11c0-1.24-.62-1.72-1.47-1.72-1,0-1.87.78-1.87,2.26v4.57h-2.32v-5.11c0-1.24-.62-1.72-1.48-1.72s-1.87.66-1.87,2.33v4.5h-2.33Z"/><path class="cls-6" d="M302.87,139.36l-.14,1.45a2.58,2.58,0,0,1-1.1.22,2,2,0,0,1-2-1.21,3.32,3.32,0,0,1-2.7,1.22c-1.74,0-2.81-.79-2.81-2.29,0-1.26.84-2.07,2.36-2.38l2.93-.59v-.33a1.43,1.43,0,0,0-1.51-1.55,1.76,1.76,0,0,0-1.81,1.4l-2-.61c.39-1.5,1.68-2.48,3.89-2.48s3.72,1,3.72,3.14v3.45c0,.44.2.65.61.65A1.92,1.92,0,0,0,302.87,139.36Zm-3.47-1.61v-.53l-1.79.36c-.78.15-1.17.35-1.17.95s.48.87,1.07.87C298.48,139.4,299.4,139,299.4,137.75Z"/><path class="cls-6" d="M309.73,140.35a3.82,3.82,0,0,1-2.31.69c-1.71,0-2.89-.69-2.89-2.56v-4.37H303v-1.73h1.56v-2l2.33-.64v2.6h2.72v1.73h-2.72v4a1,1,0,0,0,1.17,1.18,1.88,1.88,0,0,0,1.33-.48Z"/><path class="cls-6" d="M310.77,129.91c0-.83.48-1.26,1.45-1.26s1.44.43,1.44,1.26-.47,1.24-1.44,1.24S310.77,130.74,310.77,129.91Zm2.6,11H311v-8.49h2.33Z"/><path class="cls-6" d="M323.47,134.7l-2.18.79a1.64,1.64,0,0,0-1.68-1.55c-1.31,0-2,.92-2,2.7s.78,2.67,2.06,2.67a1.66,1.66,0,0,0,1.77-1.51l2.1.68c-.37,1.51-1.75,2.56-3.85,2.56a4.42,4.42,0,0,1-.07-8.83C321.86,132.21,323.06,133.31,323.47,134.7Z"/><path class="cls-6" d="M324.51,139.29l1.34-1.36a3.12,3.12,0,0,0,2.7,1.4c.89,0,1.47-.26,1.47-.82,0-.36-.19-.63-.94-.78l-1.5-.31c-2-.4-2.71-1.22-2.71-2.53s1.25-2.68,3.73-2.68a4.28,4.28,0,0,1,3.71,1.58l-1.39,1.36a2.67,2.67,0,0,0-2.25-1.23c-1,0-1.49.31-1.49.84,0,.35.27.62,1.1.79l1.74.36c1.68.34,2.34,1.17,2.34,2.31,0,1.64-1.34,2.82-3.77,2.82A5,5,0,0,1,324.51,139.29Z"/><path class="cls-7" d="M153.37,128.52c5.53.75,11.36.72,16.45-1.67a14.85,14.85,0,0,0,8.44-13.44,15.9,15.9,0,0,0-5.95-12.65C168,97.39,162.4,95.63,157.2,97s-9.64,6.18-9.9,11.78c-.1,2.15.59,4.6,2.44,5.51,2.33,1.14,5-.72,6.67-2.76a24.62,24.62,0,0,0,4.72-9.18c1-3.57,1-7.72-1.12-10.66a11.73,11.73,0,0,0-4.34-3.37,10.55,10.55,0,0,0-5.47-1.37c-2.88.23-5.3,2.3-7.38,4.4-6.9,7-13.79,14.94-22.64,18.78-9.06,3.92-20.26,5.11-28.11-3.1-8.9-9.32-4-25.94,7.3-28.83,22.81-5.84,47.81,6.57,50.92-9.86"/><polygon class="cls-8" points="143.48 133.01 144.53 135.66 147.68 138.07 146.84 135.43 143.48 133.01"/><polygon class="cls-9" points="153.85 135.43 161.24 135.43 157.88 133.01 151.77 133.01 153.85 135.36 153.85 135.43"/><polygon class="cls-10" points="153.85 135.36 151.77 133.01 143.48 133.01 146.84 135.43 153.85 135.43 153.85 135.36"/><polygon class="cls-11" points="146.84 135.43 147.68 138.07 153.85 138.07 153.85 135.43 146.84 135.43"/><polygon class="cls-12" points="161.24 135.43 153.85 135.43 153.85 138.07 162.32 138.07 161.24 135.43"/><path class="cls-13" d="M139.44,127.71S90.75,126,88.75,129.2s27.16,3.36,22.71,4-30.06-.2-30.73,3.56,51.44,2,63.38.85c1.6-.15-18.92,1.65-19.07,2.7-.28,2,60.34-1.78,60.12-6.72C185,129,139.44,127.71,139.44,127.71Z"/><path class="cls-14" d="M137.19,66.38l-3.68,8.94c.82,4.5,6,4.13,6,4.13l2.32-3.88-3.13-9.08A3.47,3.47,0,0,1,137.19,66.38Z"/><path class="cls-15" d="M137.88,75.45l0-9.61.83.65,3.13,9.08S140.89,79.39,137.88,75.45Z"/><path class="cls-16" d="M137.19,66.38a3.47,3.47,0,0,0,1.54.11L138,64.4Z"/><path class="cls-17" d="M139.92,76.68a2.43,2.43,0,0,1-2-1.23,3.2,3.2,0,0,1-2.39.85,2.08,2.08,0,0,1-2-1l-.44,49.26,7,.21,1.83-49.22S141.71,76.74,139.92,76.68Z"/><path class="cls-18" d="M137.88,75.45a3.2,3.2,0,0,1-2.39.85,2.08,2.08,0,0,1-2-1l-.44,49.26,3.68.11Z"/><rect class="cls-10" x="132.83" y="127.48" width="6.97" height="4.6" rx="0.56" transform="translate(3.87 -3.95) rotate(1.68)"/><rect class="cls-19" x="132.48" y="123.86" width="7.89" height="4.6" rx="0.56" transform="translate(3.76 -3.95) rotate(1.68)"/><g class="cls-20"><path class="cls-6" d="M134.07,79.16c-.61,14.62-.52,29.44-.38,44.06a.25.25,0,0,0,.5,0c.35-14.62.65-29.43.24-44.06a.18.18,0,0,0-.36,0Z"/></g><g class="cls-20"><path class="cls-6" d="M132.78,124.47a17.43,17.43,0,0,0,6.11.15.17.17,0,0,0,0-.32,17.13,17.13,0,0,0-6.06-.21c-.2,0-.29.34-.05.38Z"/></g><g class="cls-20"><path class="cls-6" d="M133.25,129.25a6.77,6.77,0,0,0,2.77.32,15,15,0,0,0,3.14-.13.25.25,0,0,0,0-.47,13.6,13.6,0,0,0-2.92-.31,7.38,7.38,0,0,0-2.93.14c-.17.07-.27.34-.06.45Z"/></g><g class="cls-20"><path class="cls-6" d="M140.82,78.46c-.06,2.71-.42,5.8.09,8.47a.19.19,0,0,0,.36,0c.51-2.67.15-5.76.09-8.47a.27.27,0,0,0-.54,0Z"/></g><path class="cls-21" d="M130.71,77.7,120,78.27l3.79,48.84,9.17-.42Zm-8.84,3.35a1,1,0,0,1,0-2.09A1,1,0,0,1,121.87,81.05Z"/><rect class="cls-22" x="126.9" y="79.17" width="0.72" height="48" rx="0.33" transform="translate(-4.52 5.85) rotate(-2.59)"/><rect class="cls-22" x="127.77" y="80.15" width="3.06" height="0.49" transform="translate(-3.51 5.94) rotate(-2.6)"/><rect class="cls-22" x="128.98" y="81.13" width="1.89" height="0.49" transform="translate(-3.55 5.97) rotate(-2.6)"/><rect class="cls-22" x="127.86" y="82.24" width="3.06" height="0.49" transform="translate(-3.6 5.95) rotate(-2.6)"/><rect class="cls-22" x="129.07" y="83.21" width="1.89" height="0.49" transform="translate(-3.65 5.97) rotate(-2.6)"/><rect class="cls-22" x="127.96" y="84.32" width="3.06" height="0.49" transform="translate(-3.7 5.95) rotate(-2.6)"/><rect class="cls-22" x="129.17" y="85.3" width="1.89" height="0.49" transform="translate(-3.74 5.98) rotate(-2.6)"/><rect class="cls-22" x="128.05" y="86.4" width="3.06" height="0.49" transform="translate(-3.79 5.96) rotate(-2.6)"/><rect class="cls-22" x="129.26" y="87.38" width="1.89" height="0.49" transform="translate(-3.84 5.99) rotate(-2.6)"/><rect class="cls-22" x="128.14" y="88.48" width="3.06" height="0.49" transform="translate(-3.89 5.97) rotate(-2.6)"/><rect class="cls-22" x="129.36" y="89.46" width="1.89" height="0.49" transform="translate(-3.93 6) rotate(-2.6)"/><rect class="cls-22" x="128.24" y="90.56" width="3.06" height="0.49" transform="translate(-3.98 5.97) rotate(-2.6)"/><rect class="cls-22" x="129.45" y="91.54" width="1.89" height="0.49" transform="translate(-4.02 6) rotate(-2.6)"/><rect class="cls-22" x="128.33" y="92.64" width="3.06" height="0.49" transform="translate(-4.07 5.98) rotate(-2.6)"/><rect class="cls-22" x="129.55" y="93.62" width="1.89" height="0.49" transform="translate(-4.12 6.01) rotate(-2.6)"/><rect class="cls-22" x="128.43" y="94.73" width="3.06" height="0.49" transform="translate(-4.17 5.99) rotate(-2.6)"/><rect class="cls-22" x="129.64" y="95.7" width="1.89" height="0.49" transform="translate(-4.21 6.01) rotate(-2.6)"/><rect class="cls-22" x="128.52" y="96.81" width="3.06" height="0.49" transform="translate(-4.26 5.99) rotate(-2.6)"/><rect class="cls-22" x="129.74" y="97.79" width="1.89" height="0.49" transform="translate(-4.31 6.02) rotate(-2.6)"/><rect class="cls-22" x="128.62" y="98.89" width="3.06" height="0.49" transform="matrix(1, -0.05, 0.05, 1, -4.36, 6)"/><g class="cls-23"><rect class="cls-21" x="129.83" y="99.87" width="1.89" height="0.49" transform="translate(-4.4 6.03) rotate(-2.6)"/><rect class="cls-21" x="128.71" y="100.97" width="3.06" height="0.49" transform="translate(-4.45 6) rotate(-2.6)"/><rect class="cls-21" x="129.92" y="101.95" width="1.89" height="0.49" transform="translate(-4.49 6.03) rotate(-2.6)"/><rect class="cls-21" x="128.81" y="103.05" width="3.06" height="0.49" transform="translate(-4.55 6.01) rotate(-2.6)"/><rect class="cls-21" x="130.02" y="104.03" width="1.89" height="0.49" transform="translate(-4.59 6.04) rotate(-2.6)"/><rect class="cls-21" x="128.9" y="105.13" width="3.06" height="0.49" transform="translate(-4.64 6.02) rotate(-2.6)"/><rect class="cls-21" x="130.11" y="106.11" width="1.89" height="0.49" transform="translate(-4.68 6.04) rotate(-2.6)"/><rect class="cls-21" x="128.99" y="107.22" width="3.06" height="0.49" transform="translate(-4.73 6.02) rotate(-2.6)"/><rect class="cls-21" x="130.21" y="108.2" width="1.89" height="0.49" transform="translate(-4.78 6.05) rotate(-2.6)"/><rect class="cls-21" x="129.09" y="109.3" width="3.06" height="0.49" transform="translate(-4.83 6.03) rotate(-2.6)"/><rect class="cls-21" x="130.3" y="110.28" width="1.89" height="0.49" transform="translate(-4.87 6.06) rotate(-2.6)"/><rect class="cls-21" x="129.18" y="111.38" width="3.06" height="0.49" transform="translate(-4.92 6.04) rotate(-2.6)"/><rect class="cls-21" x="130.4" y="112.36" width="1.89" height="0.49" transform="translate(-4.97 6.06) rotate(-2.6)"/><rect class="cls-21" x="129.28" y="113.46" width="3.06" height="0.49" transform="matrix(1, -0.05, 0.05, 1, -5.02, 6.04)"/><rect class="cls-21" x="130.49" y="114.44" width="1.89" height="0.49" transform="matrix(1, -0.05, 0.05, 1, -5.06, 6.07)"/><rect class="cls-21" x="129.37" y="115.54" width="3.06" height="0.49" transform="translate(-5.11 6.05) rotate(-2.6)"/><rect class="cls-21" x="130.58" y="116.52" width="1.89" height="0.49" transform="translate(-5.15 6.08) rotate(-2.6)"/><rect class="cls-21" x="129.47" y="117.66" width="3.06" height="0.49" transform="translate(-5.21 6.05) rotate(-2.6)"/><rect class="cls-21" x="130.68" y="118.64" width="1.89" height="0.49" transform="matrix(1, -0.05, 0.05, 1, -5.25, 6.09)"/><rect class="cls-21" x="129.56" y="119.78" width="3.06" height="0.49" transform="matrix(1, -0.05, 0.05, 1, -5.3, 6.06)"/><rect class="cls-21" x="130.78" y="120.76" width="1.89" height="0.49" transform="translate(-5.35 6.09) rotate(-2.6)"/><rect class="cls-21" x="129.66" y="121.9" width="3.06" height="0.49" transform="translate(-5.4 6.07) rotate(-2.6)"/><rect class="cls-21" x="130.87" y="122.88" width="1.89" height="0.49" transform="translate(-5.44 6.1) rotate(-2.6)"/><rect class="cls-21" x="129.76" y="124.02" width="3.06" height="0.49" transform="translate(-5.49 6.08) rotate(-2.6)"/><rect class="cls-21" x="130.97" y="125" width="1.89" height="0.49" transform="translate(-5.54 6.11) rotate(-2.6)"/></g><g class="cls-20"><path class="cls-6" d="M121.11,84c.32,10.07,1.32,20.22,2.29,30.25,0,.17.28.17.27,0C123.14,104.16,122.6,94,121.41,84c0-.18-.3-.19-.3,0Z"/></g><path class="cls-24" d="M138.18,127.34l-.23.5a5.81,5.81,0,0,0,.23,5.26h0l-12.57,3.63-.19-6Z"/><polygon class="cls-25" points="126.37 137.04 138.16 133.37 138.16 132.64 125.3 136.49 126.37 137.04"/><polygon class="cls-9" points="126.37 130.97 98.36 130.97 110.71 127.33 138.18 127.33 126.37 130.97"/><path class="cls-12" d="M98.36,131l0,.1a6.52,6.52,0,0,0,.11,6.1h28l-.07-.23a7.7,7.7,0,0,1,0-6h-28Z"/><path class="cls-26" d="M127,132.53s.59-.3,1.5-.67c.46-.19,1-.39,1.58-.6.29-.11.58-.22.89-.32l.93-.32.93-.29.91-.28c.59-.17,1.14-.32,1.62-.44,1-.24,1.61-.36,1.61-.36s-.59.3-1.51.67c-.45.19-1,.39-1.57.6-.29.11-.58.22-.89.32l-.93.32-.93.29-.91.28-1.62.44C127.65,132.41,127,132.53,127,132.53Z"/><path class="cls-26" d="M127.11,133.92s.37-.22,1-.49c.28-.13.62-.28,1-.42s.76-.3,1.16-.43.8-.26,1.18-.36.74-.2,1.05-.27a9.12,9.12,0,0,1,1.05-.18s-.37.22-1,.49c-.28.13-.62.28-1,.42s-.76.3-1.16.43-.8.26-1.18.36-.74.2-1.05.27A9.12,9.12,0,0,1,127.11,133.92Z"/><path class="cls-26" d="M130.14,134.27s.37-.22,1-.49c.28-.13.62-.28,1-.43s.76-.29,1.16-.42.8-.26,1.18-.37l1.05-.26a9.12,9.12,0,0,1,1.05-.18s-.37.22-1,.49c-.28.13-.62.28-1,.42s-.76.29-1.16.43-.8.26-1.18.36-.74.2-1.05.27C130.57,134.22,130.14,134.27,130.14,134.27Z"/><g class="cls-20"><path class="cls-6" d="M99.44,133.08q11.11.67,22.27.54a4.24,4.24,0,0,0,3.09-.87,5.82,5.82,0,0,0-2.28-.22,121.71,121.71,0,0,1-13.23-.36c-3.43-.28-6.92-.71-10.3,0-.15,0-.32.08-.36.22s.29.41.56.42l13.26.37"/><path class="cls-6" d="M99.44,133.42c5.23.49,10.51.59,15.77.65,3.07,0,7.09.81,9.81-.95.28-.18.28-.71-.1-.78-4.71-.91-9.88-.22-14.68-.58-3.3-.25-8.84-1.67-11.87.18a.52.52,0,0,0-.19.7c.42.88,1.09.51,2,.7,3.64.81,8.6.33,12.31.25a.42.42,0,0,0,0-.83c-2.53-.2-5-.26-7.58-.33l-3.79-.1c1,0,2-.05,3,0,4.57.11,9.1.7,13.68.73.65,0,6.2-.22,3.91.16s-5.07,0-7.43,0c-5-.06-9.89-.34-14.84-.44-.45,0-.43.64,0,.68Z"/></g><path class="cls-27" d="M128.52,130.62a2.24,2.24,0,0,0-1.51.52.27.27,0,0,0-.33.1c-.67,1-1.69,5.13.43,5.22a.9.9,0,0,0,.74-.32c.31-.38.05-.81,0-1.25a4.76,4.76,0,0,1,.25-2.15c.21-.58.59-1.07.77-1.67A.36.36,0,0,0,128.52,130.62Z"/><path class="cls-28" d="M126.37,137.16a.42.42,0,0,1-.37-.23,6.47,6.47,0,0,1,.07-5.84.4.4,0,0,1,.24-.2L138,127.14a.43.43,0,0,1,.53.28.42.42,0,0,1-.27.53l-11.52,3.69a5.78,5.78,0,0,0-.15,4.58l11.5-3.48a.42.42,0,0,1,.53.28.43.43,0,0,1-.29.53l-11.84,3.59Z"/><g class="cls-20"><path class="cls-6" d="M110.39,128a106.05,106.05,0,0,0,13.34-.07.13.13,0,0,0,0-.26,106.05,106.05,0,0,0-13.34-.07.2.2,0,1,0,0,.4Z"/></g><path class="cls-24" d="M134.78,120.3l-.23.51a5.79,5.79,0,0,0,.23,5.25h0l-12.57,3.64-.18-6Z"/><polygon class="cls-29" points="122.97 130 134.76 126.33 134.76 125.6 121.91 129.46 122.97 130"/><polygon class="cls-2" points="122.97 123.94 94.96 123.94 107.32 120.3 134.78 120.3 122.97 123.94"/><path class="cls-30" d="M95,123.94l0,.09a6.29,6.29,0,0,0,0,6h28l0-.1a7.7,7.7,0,0,1,0-6H95Z"/><path class="cls-26" d="M123.6,125.49s.59-.29,1.51-.66c.46-.19,1-.4,1.57-.61l.89-.32.93-.31.93-.3.91-.27c.59-.17,1.15-.32,1.63-.44.95-.25,1.61-.36,1.61-.36s-.6.29-1.51.66c-.46.19-1,.4-1.57.61-.29.1-.59.22-.9.32l-.92.31-.94.3c-.3.1-.61.18-.91.27-.59.17-1.14.33-1.62.44C124.25,125.38,123.6,125.49,123.6,125.49Z"/><path class="cls-26" d="M126.75,127.24a8,8,0,0,1,.94-.49c.29-.14.63-.28,1-.43s.77-.29,1.16-.43.81-.26,1.19-.36.73-.2,1-.26c.62-.14,1.05-.19,1.05-.19a9.16,9.16,0,0,1-.94.49c-.29.14-.63.28-1,.43l-1.16.43c-.39.13-.8.25-1.18.36s-.74.19-1,.26C127.17,127.19,126.75,127.24,126.75,127.24Z"/><g class="cls-20"><path class="cls-6" d="M96,126q11.13.67,22.27.55a4.31,4.31,0,0,0,3.1-.87,6,6,0,0,0-2.28-.23,121.7,121.7,0,0,1-13.23-.35c-3.44-.28-6.93-.71-10.31,0-.14,0-.31.08-.36.22s.29.4.56.41l13.26.38"/><path class="cls-6" d="M96,126.38c5.24.5,10.52.6,15.77.65,3.08,0,7.09.82,9.81-.94a.43.43,0,0,0-.1-.78c-4.7-.91-9.88-.23-14.68-.59-3.29-.24-8.83-1.66-11.87.18a.54.54,0,0,0-.19.71c.43.88,1.1.51,2,.7,3.64.8,8.6.33,12.31.24a.42.42,0,0,0,0-.83c-2.52-.2-5-.25-7.57-.32l-3.79-.1c1,0,2-.06,3,0,4.57.11,9.1.7,13.68.72.65,0,6.2-.21,3.91.17s-5.07,0-7.43,0c-4.95-.06-9.89-.34-14.84-.45a.34.34,0,0,0,0,.68Z"/></g><path class="cls-27" d="M125.13,123.58a2.27,2.27,0,0,0-1.52.53.26.26,0,0,0-.33.1c-.66,1-1.69,5.13.44,5.22a.91.91,0,0,0,.74-.32c.3-.38,0-.81,0-1.25a4.89,4.89,0,0,1,.25-2.15c.21-.59.6-1.08.77-1.67A.36.36,0,0,0,125.13,123.58Z"/><path class="cls-18" d="M123,130.06a.37.37,0,0,1-.33-.19,6.47,6.47,0,0,1,.07-5.79.39.39,0,0,1,.21-.17l11.69-3.74a.37.37,0,0,1,.46.23.37.37,0,0,1-.24.46l-11.54,3.7a5.83,5.83,0,0,0-.14,4.7l11.55-3.5a.36.36,0,0,1,.45.24.37.37,0,0,1-.24.46l-11.84,3.59Z"/><g class="cls-20"><path class="cls-6" d="M107,120.93a104.19,104.19,0,0,0,13.34-.08.13.13,0,1,0,0-.25,108,108,0,0,0-13.34-.08.21.21,0,0,0,0,.41Z"/></g><g class="cls-20"><path class="cls-6" d="M95.56,129.34h13"/><path class="cls-6" d="M95.56,129.45c4.3.2,8.69.17,13,0a.08.08,0,1,0,0-.16c-4.29-.2-8.68-.23-13,0a.11.11,0,0,0,0,.22Z"/></g><g class="cls-20"><path class="cls-6" d="M110.06,129.71h.72"/><path class="cls-6" d="M110.06,129.83a3.08,3.08,0,0,0,.74-.06.07.07,0,0,0,0-.13,3.08,3.08,0,0,0-.74-.06.13.13,0,1,0,0,.25Z"/></g><g class="cls-20"><path class="cls-6" d="M112.72,129.71h8.49"/><path class="cls-6" d="M112.72,129.82a68.73,68.73,0,0,0,8.49,0,.14.14,0,0,0,0-.27,68.73,68.73,0,0,0-8.49,0,.12.12,0,0,0,0,.23Z"/></g><polygon class="cls-10" points="130.19 124.72 127.31 125.57 127.31 129.6 128.85 127.52 130.19 128.56 130.19 124.72"/><path class="cls-26" d="M125,126.48s.37-.22.94-.49l1-.43c.36-.14.76-.29,1.16-.42s.8-.26,1.18-.37.74-.19,1-.26a9.12,9.12,0,0,1,1.05-.18,10.25,10.25,0,0,1-1,.48c-.29.14-.63.29-1,.43s-.76.29-1.16.43-.8.26-1.18.36-.74.2-1,.26C125.42,126.43,125,126.48,125,126.48Z"/><rect class="cls-10" x="108.4" y="115.4" width="8.61" height="8.61"/><path class="cls-2" d="M112.05,120.75v0l0,0h2.22l0,0v.85l0,0,0,0-.18,0h-.28l-.41,0h-.32l-.49,0H111l0,0v-.52l0-.34v-.09l0-.17,0-.16,0-.09,0-.1,0-.09,0,0,0-.09,0-.08.1-.1.06,0,.1-.08.07,0,.11-.07.07,0,.12-.05.09,0,.14,0,.09,0,.1,0h.66l.1,0,0,0,.08,0,0,0,0-.07,0-.12v-.16l0-.09,0,0-.06-.07-.07,0-.13,0h-.32l-.08,0-.12,0-.07,0,0,0-.06.06,0,0,0,.09,0,.08,0,0-.08,0h-.71l-.15,0h-.07l0,0,0,0v-.18l0,0v-.13l0-.08.06-.11,0-.08,0-.07.06-.07.07-.06.07-.06.11-.07.07,0,.17-.09.1,0,.09,0,.12,0,.09,0h.08l.08,0h.7l.09,0,.11,0,.09,0,.18,0,.08,0,.09,0,.11.06.08,0,.08.07.07.07.06.07.06.07.07.11,0,.07,0,.09,0,.08,0,.08,0,.08,0,.14v.28l0,.13,0,.09,0,.09,0,.09-.07.1,0,.08-.07.09-.06.06L114,120l-.07,0-.12.06-.08,0-.1,0-.09,0-.09,0-.09,0h-.22l-.1,0h-.6l0,0-.08,0,0,0-.06.06,0,.07,0,.07v.17Z"/><polygon class="cls-31" points="108.4 115.4 111.66 113.68 120.27 113.68 117 115.4 108.4 115.4"/><polygon class="cls-8" points="117 115.4 117 124.01 120.27 122.29 120.27 113.68 117 115.4"/><rect class="cls-21" x="106.82" y="106.52" width="8.61" height="8.61"/><polygon class="cls-32" points="106.82 106.52 110.08 104.8 118.69 104.8 115.43 106.52 106.82 106.52"/><polygon class="cls-33" points="115.43 106.52 115.43 115.13 118.69 113.41 118.69 104.8 115.43 106.52"/><path class="cls-10" d="M112.89,111.63v.27l0,.12,0,.09,0,0-.06.12-.06.08,0,0-.06.07-.06,0-.06.05-.13.1-.08,0-.11,0-.08,0-.11,0-.08,0-.12,0-.09,0-.1,0h-.3l-.32,0h-.29l-.08,0h-.09l-.13,0-.08,0-.08,0-.09,0-.11-.06-.08,0-.15-.13-.09-.08-.06-.07,0-.08,0-.08,0-.12,0-.08,0-.11,0-.08,0-.13v-.06l0,0H110l.26,0h.13l.08,0,0,0,0,.07v0l0,.09,0,0,.07.06,0,0,.08,0,0,0,.1,0,.09,0h.19l.14,0,.08,0h0l.08,0,0,0,.05-.06,0,0,0-.07v-.17l0-.09,0,0-.06-.07-.1-.06,0,0-.07,0-.09,0h-.76l-.06,0,0-.05,0-.06v-.55l0-.07,0,0,0,0,.19,0h.09l.17,0h.33l.1,0h0l.09,0,0,0,.06-.06,0,0,0-.09V110l0-.08,0,0-.09-.09-.08,0-.08,0h-.43l-.08,0,0,0-.07,0,0,0-.07.05,0,0,0,.07,0,.07,0,0-.08,0h-.14l-.23,0h-.46l-.07,0h0l0,0V110l0-.12v-.09l.06-.15,0-.11,0-.08,0-.08.06-.08.07-.06.07-.07.09,0,.08,0,.08-.05.09,0,.09,0,.09,0,.1,0,.09,0h.1l.19,0h.41l.26,0,.13,0,.08,0,.09,0,.09,0,.12,0,.08,0,.08,0,.08,0,.08.06.07.07.08.07,0,.06,0,0,0,.08,0,.09,0,.08,0,.08,0,.11v.43l0,.08-.08.14-.07.11,0,.06-.09.09,0,0,0,0,0,0,.12.09.07.06.06,0,0,.06,0,.07.06.12,0,.09,0,.1v.17Z"/><path class="cls-10" d="M147.26,92.8l.27-.22a13.61,13.61,0,0,0,1.38-1.29,3.94,3.94,0,0,0,.69-1,2.89,2.89,0,0,0,.22-1.08,2.44,2.44,0,0,0-.79-1.84,2.82,2.82,0,0,0-2-.74,3,3,0,0,0-2,.68,2.82,2.82,0,0,0-.9,1.93l-.05.59h2.2v-.44c0-.4.14-.54.19-.58a.86.86,0,0,1,1.05,0,.52.52,0,0,1,.17.4,1.14,1.14,0,0,1-.28.66A8.53,8.53,0,0,1,146,91.19a9.9,9.9,0,0,0-1.21,1.14,3.83,3.83,0,0,0-.67,1.11,2.23,2.23,0,0,0-.14.85l0,.62h5.88V92.8Z"/><polygon class="cls-17" points="155.16 93.77 153.07 93.77 153.07 91.86 151.17 91.86 151.17 89.78 153.07 89.78 153.07 87.87 155.16 87.87 155.16 89.78 157.07 89.78 157.07 91.86 155.16 91.86 155.16 93.77"/><path class="cls-10" d="M161.6,92.8l.26-.22a14,14,0,0,0,1.39-1.29,3.89,3.89,0,0,0,.68-1,2.71,2.71,0,0,0,.22-1.08,2.43,2.43,0,0,0-.78-1.84,2.86,2.86,0,0,0-2-.74,3,3,0,0,0-2,.68,2.82,2.82,0,0,0-.9,1.93l0,.61h2.21v-.46c0-.4.14-.54.19-.58a.69.69,0,0,1,.54-.19.67.67,0,0,1,.51.17.52.52,0,0,1,.17.4,1.14,1.14,0,0,1-.28.66,8.53,8.53,0,0,1-1.43,1.37,9,9,0,0,0-1.2,1.14,3.66,3.66,0,0,0-.68,1.11,2.23,2.23,0,0,0-.14.85l0,.62h5.88V92.8Z"/><path class="cls-2" d="M119.46,93.48l2,8.93a27.71,27.71,0,0,1-8.56,5.9,18.11,18.11,0,0,1-10.22,1.26l-4.29-7.92Z"/><g class="cls-34"><path class="cls-17" d="M119.46,93.48l2,8.93a27.71,27.71,0,0,1-8.56,5.9,18.11,18.11,0,0,1-10.22,1.26l-4.29-7.92Z"/><path class="cls-35" d="M119.32,91.81l2.06,9.25a28.69,28.69,0,0,1-8.87,6.11,18.77,18.77,0,0,1-10.6,1.31l-4.44-8.21Z"/></g><polygon class="cls-1" points="115.68 93.82 119.82 94.91 111.61 103.52 99.32 103.55 115.68 93.82"/><polygon class="cls-36" points="107.92 95.94 123.56 91.65 110.92 102.6 94.49 103.96 107.92 95.94"/><polygon class="cls-1" points="107.44 94.86 123.08 90.57 110.44 101.52 94.01 102.88 107.44 94.86"/><polygon class="cls-37" points="123.56 91.65 123.08 90.57 110.44 101.52 110.92 102.6 123.56 91.65"/><polygon class="cls-35" points="110.92 102.6 110.44 101.52 94.01 102.88 94.49 103.96 110.92 102.6"/><path class="cls-2" d="M107.2,98.06c.1.23.83.13,1.63-.22s1.36-.82,1.26-1-.84-.14-1.63.21S107.09,97.82,107.2,98.06Z"/><polygon class="cls-2" points="105.88 110.48 102.16 101.7 107.63 97.64 108.13 98.31 103.2 101.98 106.66 110.16 105.88 110.48"/><path class="cls-2" d="M105.45,110.88a.89.89,0,1,0,.46-1.17A.89.89,0,0,0,105.45,110.88Z"/><path class="cls-2" d="M106.42,110.88l.08.17-.07-.17s1.63.25,3.62,5.41l-.74.32-.61.27-.74.33C105.51,112.25,106.42,110.88,106.42,110.88Z"/><g class="cls-38"><path class="cls-39" d="M91.51,118.57h-1.4V120H88.89v-1.4h-1.4v-1.22h1.4V116h1.22v1.4h1.4Z"/></g><g class="cls-38"><path class="cls-39" d="M111.6,84.9c0-.31-.2-.51-.65-.51a1,1,0,0,0-.94.73l-1.21-.69A2.33,2.33,0,0,1,111,83a1.84,1.84,0,0,1,2,1.74c0,1.3-1.4,1.71-1.4,2.31h-1.4C110.2,86.06,111.6,85.66,111.6,84.9Zm-1.53,3.66a.83.83,0,1,1,.83.83A.83.83,0,0,1,110.07,88.56Z"/></g><g class="cls-38"><path class="cls-39" d="M169.66,115.06h3.84v1.22h-3.84Zm0,1.84h3.84v1.22h-3.84Z"/></g><g class="cls-38"><path class="cls-39" d="M157.46,76.27A1.49,1.49,0,0,1,159,74.78a1.49,1.49,0,1,1,0,3A1.48,1.48,0,0,1,157.46,76.27Zm4.68-.58.57.33-4,4.38-.57-.34Zm-2.7.58a.47.47,0,1,0-.47.48A.47.47,0,0,0,159.44,76.27Zm1.14,3.37a1.52,1.52,0,1,1,1.52,1.49A1.49,1.49,0,0,1,160.58,79.64Zm2,0a.47.47,0,1,0-.47.48A.47.47,0,0,0,162.56,79.64Z"/></g><path class="cls-9" d="M141.53,97.26v32.25A1.44,1.44,0,0,0,143,130.9h23.15a1.44,1.44,0,0,0,1.43-1.4l.1-32.25a1.44,1.44,0,0,0-1.44-1.48H143A1.44,1.44,0,0,0,141.53,97.26Z"/><polygon class="cls-24" points="165.28 103.45 165.43 98.02 143.74 98.02 143.94 103.45 165.28 103.45"/><rect class="cls-40" x="144.39" y="107.12" width="5.27" height="5.14"/><polygon class="cls-40" points="144.59 110.22 144.09 111.98 144.39 112.26 145.68 111.98 144.59 110.22"/><polygon class="cls-40" points="147.73 107.5 149.37 106.84 149.66 107.12 149.43 108.1 147.73 107.5"/><rect class="cls-10" x="144.09" y="106.84" width="5.27" height="5.14"/><rect class="cls-40" x="152.1" y="107.12" width="5.27" height="5.14"/><polygon class="cls-40" points="152.3 110.22 151.81 111.98 152.1 112.26 153.39 111.98 152.3 110.22"/><polygon class="cls-40" points="155.44 107.5 157.08 106.84 157.37 107.12 157.15 108.1 155.44 107.5"/><rect class="cls-10" x="151.81" y="106.84" width="5.27" height="5.14"/><rect class="cls-40" x="159.81" y="107.12" width="5.27" height="5.14"/><polygon class="cls-40" points="160.01 110.22 159.52 111.98 159.81 112.26 161.1 111.98 160.01 110.22"/><polygon class="cls-40" points="163.15 107.5 164.79 106.84 165.09 107.12 164.86 108.1 163.15 107.5"/><rect class="cls-10" x="159.52" y="106.84" width="5.27" height="5.14"/><rect class="cls-29" x="144.39" y="114.83" width="5.27" height="5.14"/><polygon class="cls-29" points="144.59 117.93 144.09 119.69 144.39 119.97 145.68 119.69 144.59 117.93"/><polygon class="cls-29" points="147.73 115.21 149.37 114.55 149.66 114.83 149.43 115.81 147.73 115.21"/><rect class="cls-17" x="144.09" y="114.55" width="5.27" height="5.14"/><rect class="cls-29" x="152.1" y="114.83" width="5.27" height="5.14"/><polygon class="cls-29" points="152.3 117.93 151.81 119.69 152.1 119.97 153.39 119.69 152.3 117.93"/><polygon class="cls-29" points="155.44 115.21 157.08 114.55 157.37 114.83 157.15 115.81 155.44 115.21"/><rect class="cls-17" x="151.81" y="114.55" width="5.27" height="5.14"/><rect class="cls-29" x="144.39" y="122.54" width="5.27" height="5.14"/><polygon class="cls-29" points="144.59 125.64 144.09 127.4 144.39 127.67 145.68 127.39 144.59 125.64"/><polygon class="cls-29" points="147.73 122.92 149.37 122.26 149.66 122.54 149.43 123.52 147.73 122.92"/><rect class="cls-17" x="144.09" y="122.26" width="5.27" height="5.14"/><rect class="cls-29" x="152.1" y="122.54" width="5.27" height="5.14"/><polygon class="cls-29" points="152.3 125.64 151.81 127.4 152.1 127.67 153.39 127.39 152.3 125.64"/><polygon class="cls-29" points="155.44 122.92 157.08 122.26 157.37 122.54 157.15 123.52 155.44 122.92"/><rect class="cls-17" x="151.81" y="122.26" width="5.27" height="5.14"/><polygon class="cls-41" points="164.79 114.52 164.11 122.53 159.81 122.53 159.81 126.35 159.52 127.4 159.81 127.67 165.09 127.67 165.09 114.79 164.79 114.52"/><rect class="cls-42" x="159.52" y="114.52" width="5.27" height="12.88"/><g class="cls-20"><path class="cls-6" d="M143.35,96.33h22.14"/><path class="cls-6" d="M143.35,96.69c7.36,0,14.79.08,22.14-.27a.09.09,0,0,0,0-.17c-7.35-.35-14.78-.23-22.14-.27a.36.36,0,0,0,0,.71Z"/></g><g class="cls-20"><path class="cls-6" d="M166.27,130.34a1.68,1.68,0,0,0,.68-1.09"/><path class="cls-6" d="M166.38,130.53c.43-.21,1.15-.94.71-1.42a.2.2,0,0,0-.24,0c-.2.09-.2.18-.28.37a2.91,2.91,0,0,1-.46.73.22.22,0,0,0,.27.35Z"/></g><g class="cls-20"><path class="cls-6" d="M166.58,100.68v.1"/><path class="cls-6" d="M166.5,100.68v.1c0,.09.12.09.14,0v-.1c0-.1-.18-.1-.16,0Z"/></g><g class="cls-20"><path class="cls-6" d="M142.13,129.35a.5.5,0,0,0,.44.5"/><path class="cls-6" d="M142,129.15l-.05,0a.35.35,0,0,0-.15.38.88.88,0,0,0,.45.57c.4.23.77-.4.36-.61-.17-.1-.34-.54-.61-.37Z"/></g><g class="cls-20"><path class="cls-6" d="M142.16,97.22l.1.1"/><path class="cls-6" d="M141.94,97.36l.06.11c.25.43.85-.16.41-.41l-.12-.06a.26.26,0,0,0-.35.36Z"/></g><g class="cls-20"><path class="cls-6" d="M142.06,98.21"/><path class="cls-6" d="M142.06,98.55a.34.34,0,0,0,0-.68.34.34,0,0,0,0,.68Z"/></g></g></g></g></svg>