<svg xmlns="http://www.w3.org/2000/svg" xmlns:xlink="http://www.w3.org/1999/xlink" width="267" height="274" viewBox="0 0 267 274">
  <defs>
    <clipPath id="clip-path">
      <rect id="Rectangle_1154" data-name="Rectangle 1154" width="267" height="274" rx="26" transform="translate(-0.31 0.116)" fill="#fff"/>
    </clipPath>
  </defs>
  <g id="Mask_Group_31" data-name="Mask Group 31" transform="translate(0.31 -0.116)" clip-path="url(#clip-path)">
    <g id="Group_1288" data-name="Group 1288" transform="translate(29.184 66.617)">
      <path id="Path_3225" data-name="Path 3225" d="M380.769,130.676c0,12.041-13.029,21.8-29.107,21.8s-29.1-9.762-29.1-21.8,13.031-21.8,29.1-21.8S380.769,118.635,380.769,130.676Z" transform="translate(-287.982 -108.873)" fill="#382216"/>
      <path id="Path_3227" data-name="Path 3227" d="M417.885,202.506c0,38.132-30.758,62.52-52.83,66.55-21.162-2.04-50.252-28.507-52.828-66.55-3.349-49.407,20.438-77.429,52.828-77.429S425.486,153.1,417.885,202.506Z" transform="translate(-302.267 -87.133)" fill="#d27f5c"/>
      <g id="Group_1270" data-name="Group 1270" transform="translate(49.412 147.714)">
        <path id="Path_3228" data-name="Path 3228" d="M328.895,172.7c2.927,6.224,8.163,10.383,14.151,10.383s11.221-4.159,14.148-10.383Z" transform="translate(-328.895 -170.947)" fill="#fcb590"/>
        <path id="Path_3229" data-name="Path 3229" d="M328.895,172.7s.4.44,1.061,1.236a12.342,12.342,0,0,0,1.211,1.368,20.761,20.761,0,0,0,1.625,1.585,17.856,17.856,0,0,0,2.061,1.639,20.855,20.855,0,0,0,2.447,1.461,14.829,14.829,0,0,0,2.787.955,6.94,6.94,0,0,0,1.464.281l.749.047.372.026.185.014.1.009.047,0,.023,0h.012c-.066,0,.157,0-.141.009a13.351,13.351,0,0,0,3.171-.41,14.948,14.948,0,0,0,2.726-.941,20.458,20.458,0,0,0,2.442-1.461,17.625,17.625,0,0,0,2.061-1.637,19.922,19.922,0,0,0,1.639-1.6,12.857,12.857,0,0,0,1.2-1.351c.651-.78,1.061-1.232,1.061-1.232s-.136.569-.447,1.571a8.577,8.577,0,0,1-.7,1.761,11.8,11.8,0,0,1-1.22,2.168,12.209,12.209,0,0,1-1.892,2.318,14.222,14.222,0,0,1-2.637,2.166c-.5.325-1.073.569-1.623.859a6.648,6.648,0,0,1-1.838.684,16.552,16.552,0,0,1-3.641.6l-.164,0h-.019l-.028,0-.063,0-.124-.012-.241-.023-.494-.047-.976-.1a9.728,9.728,0,0,1-1.892-.431,6.588,6.588,0,0,1-1.775-.672c-.553-.29-1.122-.534-1.623-.857a14.339,14.339,0,0,1-2.639-2.168,12.288,12.288,0,0,1-1.89-2.318,12.124,12.124,0,0,1-1.234-2.185,8.287,8.287,0,0,1-.691-1.745C329.04,173.285,328.895,172.7,328.895,172.7Z" transform="translate(-328.895 -170.947)" fill="#fcb590"/>
        <path id="Path_3230" data-name="Path 3230" d="M357.194,173.71a30.029,30.029,0,0,1-4.421,1,61.015,61.015,0,0,1-9.727.752,60.256,60.256,0,0,1-9.73-.747,29.974,29.974,0,0,1-4.421-1.009,30.183,30.183,0,0,1,4.421-1.007,60.509,60.509,0,0,1,9.73-.749,61.272,61.272,0,0,1,9.727.754A30.619,30.619,0,0,1,357.194,173.71Z" transform="translate(-328.895 -171.954)" fill="#fcb590"/>
      </g>
      <g id="Group_1277" data-name="Group 1277" transform="translate(23.031 86.848)">
        <g id="Group_1273" data-name="Group 1273" transform="translate(50.949)">
          <g id="Group_1272" data-name="Group 1272">
            <g id="Group_1271" data-name="Group 1271">
              <path id="Path_3231" data-name="Path 3231" d="M352.875,158.216c0,3.365-2.278,6.091-5.091,6.091s-5.091-2.726-5.091-6.091,2.283-6.091,5.091-6.091S352.875,154.851,352.875,158.216Z" transform="translate(-334.951 -137.692)" fill="#1b0d05"/>
              <circle id="Ellipse_227" data-name="Ellipse 227" cx="2.419" cy="2.419" r="2.419" transform="translate(14.686 14.905)" fill="#fff"/>
              <path id="Path_3232" data-name="Path 3232" d="M341.518,146.97s12.074-3.229,22.068,1.869a12.341,12.341,0,0,1,5.168,9.051,15.458,15.458,0,0,0-10.6-5.969s-3.356-.681-17.078,1.5c0,0-2.007.056-1.613-2.384C339.46,151.033,338.788,147.874,341.518,146.97Z" transform="translate(-339.387 -145.961)" fill="#42281c"/>
            </g>
          </g>
        </g>
        <g id="Group_1276" data-name="Group 1276">
          <g id="Group_1275" data-name="Group 1275">
            <g id="Group_1274" data-name="Group 1274">
              <path id="Path_3233" data-name="Path 3233" d="M322.518,158.216c0,3.365,2.276,6.091,5.084,6.091s5.091-2.726,5.091-6.091-2.276-6.091-5.091-6.091S322.518,154.851,322.518,158.216Z" transform="translate(-311.07 -137.692)" fill="#1b0d05"/>
              <circle id="Ellipse_228" data-name="Ellipse 228" cx="2.419" cy="2.419" r="2.419" transform="translate(9.847 14.905)" fill="#fff"/>
              <path id="Path_3234" data-name="Path 3234" d="M344.865,146.97s-12.071-3.229-22.063,1.869a12.354,12.354,0,0,0-5.173,9.051,15.448,15.448,0,0,1,10.6-5.969s3.363-.681,17.082,1.5c0,0,2.009.056,1.616-2.384C346.928,151.033,347.6,147.874,344.865,146.97Z" transform="translate(-317.629 -145.961)" fill="#42281c"/>
            </g>
          </g>
        </g>
      </g>
      <g id="Group_1284" data-name="Group 1284" transform="translate(0 113.464)">
        <g id="Group_1280" data-name="Group 1280">
          <g id="Group_1278" data-name="Group 1278">
            <path id="Path_3235" data-name="Path 3235" d="M313.941,157.641a6.632,6.632,0,0,1,7.35,5.828l1.094,9.542a6.637,6.637,0,0,1-13.186,1.522l-1.094-9.549A6.628,6.628,0,0,1,313.941,157.641Z" transform="translate(-307.435 -156.967)" fill="#fcb590"/>
            <path id="Path_3236" data-name="Path 3236" d="M314.232,157.378a7.179,7.179,0,0,1,4.222.8l.183,1.609a5.991,5.991,0,0,0-9.549,5.494l1.1,9.54a6.012,6.012,0,0,0,11.05,2.531.626.626,0,1,1,1.056.672,7.265,7.265,0,0,1-13.355-3.063l-1.094-9.538A7.269,7.269,0,0,1,314.232,157.378Z" transform="translate(-307.793 -157.327)" fill="#e59776"/>
            <path id="Path_3237" data-name="Path 3237" d="M310.489,160a4.658,4.658,0,0,1,2.131-.63c3.215-.218,5.8,5.177,2.588,6.14a2.118,2.118,0,0,0,.042,2.768c1.108,1.3,2.592,3.185,2.255,5.03a2.876,2.876,0,0,1-2.323,1.951c-.81.215-.969-.471-.321-.8a3.692,3.692,0,0,0,1.218-1.089,1.771,1.771,0,0,1,.1-.187.565.565,0,0,0,.077-.138,1.26,1.26,0,0,0,.035-.8,1.844,1.844,0,0,1-2.492-.035c-.609-.8-.148-2.044-.358-2.95a7.231,7.231,0,0,0-.74-1.815c-1.478-2.679,1.18-3.128,1.18-3.128a8.543,8.543,0,0,1,.979.08c1.344-.766-.159-2.955-.979-3.3a2.408,2.408,0,0,0-2.8.522,4.606,4.606,0,0,0-.887,3.084,10.913,10.913,0,0,0,.869,3.712c.293.658.663,1.435.955,2.1.335.749-.466,1.075-.806.321-.7-1.578-2.007-3.9-2.285-6.093A4.842,4.842,0,0,1,310.489,160Z" transform="translate(-306.374 -154.598)" fill="#e59776"/>
          </g>
          <g id="Group_1279" data-name="Group 1279" transform="translate(7.499 19.494)">
            <path id="Path_3238" data-name="Path 3238" d="M318.482,169.394a3.743,3.743,0,1,1-3.744-3.742A3.741,3.741,0,0,1,318.482,169.394Z" transform="translate(-310.996 -165.652)" fill="#fde3e0"/>
            <path id="Path_3239" data-name="Path 3239" d="M313.036,168.944a1.634,1.634,0,0,0,2.246.007,2.466,2.466,0,0,0,.105-.66,2.355,2.355,0,0,0-2.178-2.344C312.244,166.781,311.933,168.064,313.036,168.944Z" transform="translate(-309.198 -165.256)" fill="#fff"/>
            <path id="Path_3240" data-name="Path 3240" d="M314.216,171.079a3.683,3.683,0,0,1-.623-5.344,3.734,3.734,0,1,0,3.838,6.135A3.686,3.686,0,0,1,314.216,171.079Z" transform="translate(-310.996 -165.541)" fill="#e7d0ce" style="mix-blend-mode: multiply;isolation: isolate"/>
          </g>
        </g>
        <g id="Group_1283" data-name="Group 1283" transform="translate(111.517)">
          <g id="Group_1281" data-name="Group 1281">
            <path id="Path_3241" data-name="Path 3241" d="M363.913,157.641a6.629,6.629,0,0,0-7.35,5.828l-1.1,9.542a6.637,6.637,0,0,0,13.186,1.522l1.1-9.549A6.626,6.626,0,0,0,363.913,157.641Z" transform="translate(-355.417 -156.967)" fill="#fcb590"/>
            <path id="Path_3242" data-name="Path 3242" d="M363.752,157.378a7.183,7.183,0,0,0-4.224.8l-.19,1.609a5.995,5.995,0,0,1,9.556,5.494l-1.1,9.54a6.012,6.012,0,0,1-11.05,2.531.625.625,0,0,0-.864-.2.637.637,0,0,0-.2.869,7.269,7.269,0,0,0,13.359-3.063l1.094-9.538A7.272,7.272,0,0,0,363.752,157.378Z" transform="translate(-355.183 -157.327)" fill="#e59776"/>
            <path id="Path_3243" data-name="Path 3243" d="M364.112,160a4.658,4.658,0,0,0-2.131-.63c-3.21-.218-5.8,5.177-2.588,6.14a2.122,2.122,0,0,1-.047,2.768c-1.105,1.3-2.588,3.185-2.246,5.03a2.863,2.863,0,0,0,2.321,1.951c.808.215.965-.471.323-.8a3.529,3.529,0,0,1-1.215-1.089c-.038-.066-.07-.126-.105-.187a.783.783,0,0,1-.077-.138,1.277,1.277,0,0,1-.033-.8,1.844,1.844,0,0,0,2.492-.035c.609-.8.148-2.044.363-2.95a6.887,6.887,0,0,1,.735-1.815c1.473-2.679-1.18-3.128-1.18-3.128a8.453,8.453,0,0,0-.979.08c-1.344-.766.157-2.955.974-3.3a2.416,2.416,0,0,1,2.808.522,4.622,4.622,0,0,1,.892,3.084,10.927,10.927,0,0,1-.883,3.712c-.283.658-.649,1.435-.951,2.1-.33.749.475,1.075.806.321.7-1.578,2.016-3.9,2.285-6.093A4.84,4.84,0,0,0,364.112,160Z" transform="translate(-353.224 -154.598)" fill="#e59776"/>
          </g>
          <g id="Group_1282" data-name="Group 1282" transform="translate(0.085 19.494)">
            <path id="Path_3244" data-name="Path 3244" d="M355.453,169.394a3.741,3.741,0,1,0,3.742-3.742A3.742,3.742,0,0,0,355.453,169.394Z" transform="translate(-355.453 -165.652)" fill="#fde3e0"/>
            <path id="Path_3245" data-name="Path 3245" d="M358.354,168.944a1.634,1.634,0,0,1-2.246.007,2.374,2.374,0,0,1-.1-.66,2.351,2.351,0,0,1,2.171-2.344C359.146,166.781,359.46,168.064,358.354,168.944Z" transform="translate(-354.708 -165.256)" fill="#fff"/>
            <path id="Path_3246" data-name="Path 3246" d="M359.113,171.079a3.677,3.677,0,0,0,.621-5.344,3.733,3.733,0,1,1-3.833,6.135A3.673,3.673,0,0,0,359.113,171.079Z" transform="translate(-354.853 -165.541)" fill="#e7d0ce" style="mix-blend-mode: multiply;isolation: isolate"/>
          </g>
        </g>
      </g>
      <g id="Group_1287" data-name="Group 1287" transform="translate(23.469 115.355)" opacity="0.5">
        <g id="Group_1285" data-name="Group 1285">
          <path id="Path_3249" data-name="Path 3249" d="M339.633,164.619c0,3.583-4.885,6.489-10.907,6.489s-10.91-2.906-10.91-6.489,4.885-6.484,10.91-6.484S339.633,161.036,339.633,164.619Z" transform="translate(-317.816 -158.135)" fill="#e28780"/>
        </g>
        <g id="Group_1286" data-name="Group 1286" transform="translate(57.759)">
          <path id="Path_3250" data-name="Path 3250" d="M364.3,164.619c0,3.583-4.88,6.489-10.9,6.489s-10.915-2.906-10.915-6.489,4.885-6.484,10.915-6.484S364.3,161.036,364.3,164.619Z" transform="translate(-342.482 -158.135)" fill="#e28780"/>
        </g>
      </g>
      <path id="Path_3251" data-name="Path 3251" d="M349.485,164.995a8.084,8.084,0,0,1-2.222,2.522,11.722,11.722,0,0,1-7.018,2.536,9.67,9.67,0,0,1-2.1-.15,9.518,9.518,0,0,1-1.967-.518,8.856,8.856,0,0,1-1.7-.827,6.117,6.117,0,0,1-1.351-.969,7.713,7.713,0,0,1-1.649-1.812c-.332-.487-.494-.782-.494-.782s.354.068.906.215c.274.08.609.164.96.29s.8.173,1.222.307a14.141,14.141,0,0,0,1.382.318c.492.063.979.222,1.508.244a18.471,18.471,0,0,0,3.2.173,24.051,24.051,0,0,0,3.246-.276c1.056-.159,2.068-.358,2.962-.55Z" transform="translate(-276.675 -33.576)" fill="#fcb590"/>
      <path id="Path_3252" data-name="Path 3252" d="M399.1,124.764c45.086,20.464,31.982,86.972,31.982,86.972-7.575-5.17-9.706,2.873-9.706,2.873,1.084-48.655-27.606-60.586-27.606-60.586-25.489-15.193-49.1-1.859-49.1-1.859-22.382,7.575-23.859,64.183-23.859,64.183-4.583-9.484-11.334-4.611-11.334-4.611-7.88-74.029,30.9-86.972,30.9-86.972S366.6,109.958,399.1,124.764Z" transform="translate(-306.953 -96.381)" fill="#42281c"/>
      <path id="Path_3253" data-name="Path 3253" d="M311.963,159.685s-1.841,56.6,18.265,77.729c0,0-17.986-38.01-12.668-84.475Z" transform="translate(-302.259 -49.751)" fill="#42281c"/>
      <path id="Path_3254" data-name="Path 3254" d="M369.775,159.685s1.838,56.6-18.267,77.729c0,0,17.986-38.01,12.668-84.475Z" transform="translate(-249.144 -49.751)" fill="#42281c"/>
    </g>
  </g>
</svg>
