<svg xmlns="http://www.w3.org/2000/svg" viewBox="0 0 78.25 92.69"><defs><style>.cls-1{fill:#18151e;}.cls-2{fill:#a56848;}.cls-3,.cls-5{fill:#965641;}.cls-4{fill:#ef4764;}.cls-5{opacity:0.4;}.cls-6{fill:#fff;}.cls-7{fill:#94bdd3;opacity:0.6;}.cls-8{fill:#47271f;}.cls-9{fill:#281414;}.cls-10{fill:#6f3929;}.cls-11{fill:none;stroke:#641c25;stroke-linecap:round;stroke-miterlimit:10;stroke-width:0.73px;}.cls-12{fill:#35b558;}</style></defs><title>Asset 3</title><g id="Layer_2" data-name="Layer 2"><g id="Capa_1" data-name="Capa 1"><path class="cls-1" d="M78.25,38.9c0,24-17.52,35.84-39.13,35.84S0,62.91,0,38.9,17.52,0,39.12,0,78.25,14.89,78.25,38.9Z"/><path class="cls-2" d="M64.48,58s2.43-6.52,5.58-5.45,2,19.17-3.8,17.24S64.48,58,64.48,58Z"/><path class="cls-3" d="M70.55,59.44s-.26-4.87-1.8-4.61-4.84,11-2.65,12.58,3.47-7.32.84-5.93C66.94,61.48,68.76,51.66,70.55,59.44Z"/><path class="cls-2" d="M12.19,58S9.75,51.43,6.6,52.5s-2,19.17,3.8,17.24S12.19,58,12.19,58Z"/><path class="cls-3" d="M6.12,59.44s.25-4.87,1.79-4.61,4.84,11,2.66,12.58-3.48-7.32-.84-5.93C9.73,61.48,7.91,51.66,6.12,59.44Z"/><path class="cls-2" d="M64.77,63.48C64.77,77,50,92.69,38.38,92.69S12,77,12,63.48,7.67,18.29,38.38,18.29,64.77,50,64.77,63.48Z"/><path class="cls-3" d="M12.93,54.37s4.91-3.23,7.31-13c0,0,1.46-6.73,7.14-6.09s18,3.41,24,1.22,7.65,4.6,9.13,12.23,6.17-4.36,6.17-4.36L61.47,29.71,54.41,23.9s-18.66-1.42-18.83-1.42-19.81,4.4-19.81,4.4L13.63,38.14Z"/><path class="cls-4" d="M32.36,77.57s1.31-.74,6.66-.82c0,0,5.44-.19,6.53,1C45.55,77.78,38.37,79.87,32.36,77.57Z"/><path class="cls-4" d="M32.07,77.75s1.38,3.83,7,3.64c0,0,5.88,0,6.79-3.72A24,24,0,0,1,32.07,77.75Z"/><path class="cls-5" d="M36.08,73.42s2.19,5.28,5.09,0A5.24,5.24,0,0,1,36.08,73.42Z"/><path class="cls-1" d="M18.06,49.12a3.62,3.62,0,0,1,.35-.67,8.64,8.64,0,0,1,.53-.7,5.56,5.56,0,0,1,.81-.79,7.55,7.55,0,0,1,1.12-.76,8.23,8.23,0,0,1,1.41-.62,9.6,9.6,0,0,1,1.6-.4,10.83,10.83,0,0,1,1.71-.08,7.82,7.82,0,0,1,1.69.22,9.64,9.64,0,0,1,1.58.44c.49.2,1,.35,1.42.57l1.19.63c.74.4,1.26.84,1.68,1.1l.62.43a1.16,1.16,0,0,1-1.31,1.91l0,0-.09-.07-.55-.41a15.5,15.5,0,0,0-1.45-1.06l-1-.63c-.36-.22-.76-.38-1.17-.58a8.21,8.21,0,0,0-1.31-.49,9.06,9.06,0,0,0-1.39-.32A9.54,9.54,0,0,0,24,46.72a7.66,7.66,0,0,0-1.37.19,7.81,7.81,0,0,0-1.24.39,9.52,9.52,0,0,0-1.06.53c-.33.18-.61.38-.88.54s-.47.33-.65.46c-.37.27-.57.44-.57.44a.13.13,0,0,1-.18,0,.11.11,0,0,1,0-.12Z"/><path class="cls-6" d="M18.68,58.16s-.6-5.75,6.17-5.75a7.71,7.71,0,0,1,7.67,6.91S23.26,68.08,18.68,58.16Z"/><path class="cls-7" d="M24.85,52.41c-6.77,0-6.17,5.75-6.17,5.75a12.49,12.49,0,0,0,.67,1.27c5.07-5.68,10.86-1.67,12.92.11l.25-.22A7.71,7.71,0,0,0,24.85,52.41Z"/><path class="cls-8" d="M30.2,57a3.88,3.88,0,1,1-3.88-3.88A3.88,3.88,0,0,1,30.2,57Z"/><path class="cls-9" d="M28.09,57a1.77,1.77,0,1,1-1.77-1.76A1.77,1.77,0,0,1,28.09,57Z"/><path class="cls-6" d="M26.39,55.49a1.12,1.12,0,1,1-1.12-1.12A1.12,1.12,0,0,1,26.39,55.49Z"/><path class="cls-1" d="M32.52,59.32l-.31-.85a7.11,7.11,0,0,0-.37-1c-.19-.34-.4-.71-.64-1.12s-.61-.77-1-1.17l-.63-.51-.33-.26-.37-.21-.75-.42-.83-.29a3.7,3.7,0,0,0-.86-.2,3.72,3.72,0,0,0-.88-.11c-.29,0-.62,0-.85,0l-1,.1a12.76,12.76,0,0,0-1.56.43c-.24.09-.46.21-.69.3s-.41.24-.6.38a4.62,4.62,0,0,0-1,.92,5.72,5.72,0,0,0-.64,1c-.17.33-.28.65-.39.91-.18.54-.26.88-.26.88a3.18,3.18,0,0,1-.24-.92,5.06,5.06,0,0,1,0-1.12,4.5,4.5,0,0,1,.37-1.44,4.82,4.82,0,0,1,1-1.52,8.3,8.3,0,0,1,.8-.64,9.15,9.15,0,0,1,.94-.47,8,8,0,0,1,1-.29c.36,0,.74-.11,1.09-.14h1c.42,0,.74.08,1.11.11a4.62,4.62,0,0,1,1,.24,4.65,4.65,0,0,1,1,.35l.93.45c.29.19.56.39.82.59l.39.3.32.35.62.68c.33.49.62,1,.87,1.41l.47,1.31a7.53,7.53,0,0,1,.2,1C32.48,59,32.52,59.32,32.52,59.32Z"/><path class="cls-1" d="M59.49,49.27s-.2-.17-.57-.44c-.18-.13-.39-.3-.65-.46s-.55-.36-.88-.54a9.52,9.52,0,0,0-1.06-.53,7.81,7.81,0,0,0-1.24-.39,7.66,7.66,0,0,0-1.37-.19,9.54,9.54,0,0,0-1.41.09,9.06,9.06,0,0,0-1.39.32,8.21,8.21,0,0,0-1.31.49c-.4.2-.81.36-1.17.58l-1,.63A15.5,15.5,0,0,0,46,49.89l-.55.41-.08.07a1.17,1.17,0,0,1-1.63-.23,1.15,1.15,0,0,1,.22-1.62l0,0,.62-.43c.42-.26.94-.7,1.68-1.1l1.19-.63c.43-.22.93-.37,1.42-.57a9.64,9.64,0,0,1,1.58-.44,7.82,7.82,0,0,1,1.69-.22,10.83,10.83,0,0,1,1.71.08,9.6,9.6,0,0,1,1.6.4,8.23,8.23,0,0,1,1.41.62A7.55,7.55,0,0,1,58,47a5.56,5.56,0,0,1,.81.79,8.64,8.64,0,0,1,.53.7,3.62,3.62,0,0,1,.35.67h0a.13.13,0,0,1-.2.14Z"/><path class="cls-6" d="M59.07,58.16s.6-5.75-6.17-5.75a7.71,7.71,0,0,0-7.67,6.91S54.49,68.08,59.07,58.16Z"/><path class="cls-7" d="M52.89,52.41c6.77,0,6.17,5.75,6.17,5.75a12.49,12.49,0,0,1-.67,1.27c-5.07-5.68-10.86-1.67-12.92.11l-.25-.22A7.71,7.71,0,0,1,52.89,52.41Z"/><path class="cls-8" d="M47.55,57a3.88,3.88,0,1,0,3.87-3.88A3.88,3.88,0,0,0,47.55,57Z"/><path class="cls-9" d="M49.66,57a1.77,1.77,0,1,0,1.76-1.76A1.76,1.76,0,0,0,49.66,57Z"/><path class="cls-6" d="M51.36,55.49a1.12,1.12,0,1,0,1.12-1.12A1.12,1.12,0,0,0,51.36,55.49Z"/><path class="cls-1" d="M45.23,59.32s0-.33.12-.9a7.53,7.53,0,0,1,.2-1L46,56.09c.25-.44.54-.92.87-1.41l.62-.68.32-.35.39-.3c.26-.2.53-.4.82-.59l.93-.45a9.37,9.37,0,0,1,2-.59c.37,0,.69-.11,1.11-.11h1c.35,0,.73.09,1.09.14a8,8,0,0,1,1,.29,9.15,9.15,0,0,1,.94.47,10.19,10.19,0,0,1,.8.64,4.82,4.82,0,0,1,1,1.52,4.5,4.5,0,0,1,.37,1.44,5.06,5.06,0,0,1,0,1.12,3.18,3.18,0,0,1-.24.92s-.08-.34-.26-.88c-.11-.26-.22-.58-.39-.91a5.72,5.72,0,0,0-.64-1,4.62,4.62,0,0,0-1-.92c-.19-.14-.4-.25-.6-.38s-.45-.21-.69-.3A12.76,12.76,0,0,0,54,53.32l-1-.1c-.23,0-.56,0-.85,0a8.5,8.5,0,0,0-1.74.31l-.83.29-.75.42-.37.21-.33.26q-.31.27-.63.51c-.35.4-.68.79-1,1.17l-.64,1.12a7.11,7.11,0,0,0-.37,1Z"/><path class="cls-10" d="M35.58,73s.42.18,1,.37a7.76,7.76,0,0,0,1,.25,5.49,5.49,0,0,0,1.08.09,5.68,5.68,0,0,0,1.09-.12,4.7,4.7,0,0,1,.51-.12l.46-.15c.3-.07.54-.19.73-.24l.3-.08a2.48,2.48,0,0,1-.17.25,2.86,2.86,0,0,1-.55.61,3.51,3.51,0,0,1-1,.63,6.37,6.37,0,0,1-.66.21,5.51,5.51,0,0,1-.71.08,3.63,3.63,0,0,1-1.37-.26,3.48,3.48,0,0,1-1-.62A2.61,2.61,0,0,1,35.58,73Z"/><path class="cls-5" d="M35.58,86.38a6.59,6.59,0,0,1,5.79,0s.61.92,0,1.1a20.71,20.71,0,0,1-5.79,0C34.81,87.22,35.08,86.61,35.58,86.38Z"/><path class="cls-11" d="M31.79,77.68a30.38,30.38,0,0,0,14.45-.11"/><path class="cls-1" d="M59.08,57.48a8.06,8.06,0,0,0,1.41-4.32,18.78,18.78,0,0,1-4.63-.75S59.06,54.09,59.08,57.48Z"/><path class="cls-1" d="M18.49,57.48a8.06,8.06,0,0,1-1.41-4.32,18.78,18.78,0,0,0,4.63-.75S18.5,54.09,18.49,57.48Z"/><path class="cls-3" d="M12,63.48C12,77,26.81,92.69,38.38,92.69A15.34,15.34,0,0,0,42,92.23C31.1,90.62,14.08,84.35,14.44,53.16a57.28,57.28,0,0,1,5.45-26.28h0l-.54.55-.19.21-.38.42-.17.21-.49.6-.14.19-.35.46-.17.24-.34.51a1,1,0,0,0-.11.17c-.14.21-.28.43-.41.65a2,2,0,0,0-.14.25c-.1.15-.19.31-.28.47s-.09.17-.13.25l-.36.68a1.24,1.24,0,0,1-.1.2l-.25.54c0,.09-.09.18-.13.28s-.16.35-.23.53l-.1.22c-.09.24-.19.47-.28.72,0,.09-.07.18-.1.27s-.13.34-.19.52a2.31,2.31,0,0,0-.1.28c-.09.24-.17.49-.25.74l-.06.19-.18.6c0,.1-.06.2-.08.3s-.11.37-.16.56l-.06.25c-.07.25-.13.51-.19.76s-.05.19-.07.29l-.12.54-.06.31c-.05.23-.1.47-.14.7s0,.16-.05.24l-.12.66c0,.1,0,.21-.05.31l-.09.56c0,.1,0,.19,0,.28,0,.26-.07.52-.11.78l0,.28c0,.19-.05.38-.07.57s0,.21,0,.31-.05.44-.07.66a2.29,2.29,0,0,0,0,.25c0,.24-.05.48-.07.72s0,.2,0,.3,0,.38-.05.57a2.64,2.64,0,0,1,0,.28c0,.26,0,.53-.05.79,0,.08,0,.17,0,.26l0,.58c0,.1,0,.2,0,.3s0,.42,0,.63c0,.06,0,.13,0,.19,0,.26,0,.52,0,.78,0,.1,0,.2,0,.3s0,.36,0,.55V53c0,.21,0,.41,0,.62C11.82,57.35,12,60.78,12,63.48Z"/><path class="cls-1" d="M38.38,18.29c-26.24,0-26.9,23.13-26.54,38.29.49-.32,4.44-1.33,6.83-19.21a9.4,9.4,0,0,1,9.42-7.21,36.24,36.24,0,0,0,24.07,0s6-1,6.93,7.6S60.22,61,64.93,56.43C66.66,41.23,64.54,18.29,38.38,18.29Z"/><path class="cls-12" d="M10.87,55.28S4.08,11.69,38.37,12.5c0,0,35.82-.81,27.43,42.78l-.87,1.15s6-37.73-26-36.54c0,0-27.67-3.33-27.12,36.69C11.84,56.58,11.11,57,10.87,55.28Z"/></g></g></svg>