<svg xmlns="http://www.w3.org/2000/svg" xmlns:xlink="http://www.w3.org/1999/xlink" width="267" height="274" viewBox="0 0 267 274">
  <defs>
    <clipPath id="clip-path">
      <rect id="Rectangle_1158" data-name="Rectangle 1158" width="267" height="274" rx="26" transform="translate(0.372 0.116)" fill="#fff"/>
    </clipPath>
  </defs>
  <g id="Mask_Group_32" data-name="Mask Group 32" transform="translate(-0.372 -0.116)" clip-path="url(#clip-path)">
    <g id="Group_1326" data-name="Group 1326" transform="translate(65.371 72.561)">
      <path id="Path_3286" data-name="Path 3286" d="M164.866,205.506c0,41-33.074,67.227-56.807,71.56-22.758-2.193-54.042-30.652-56.815-71.56-3.6-53.128,21.985-83.264,56.815-83.264S173.039,152.378,164.866,205.506Z" transform="translate(-40.538 -101.718)" fill="#d27f5c"/>
      <g id="Group_1308" data-name="Group 1308" transform="translate(53.135 138.564)">
        <path id="Path_3287" data-name="Path 3287" d="M67.891,169.87c3.148,6.69,8.773,11.165,15.217,11.165s12.066-4.475,15.219-11.165Z" transform="translate(-67.891 -167.981)" fill="#fff"/>
        <path id="Path_3288" data-name="Path 3288" d="M67.891,169.87s.433.473,1.141,1.33a13.537,13.537,0,0,0,1.3,1.471,22.318,22.318,0,0,0,1.748,1.7,19.193,19.193,0,0,0,2.216,1.763,22.059,22.059,0,0,0,2.631,1.569,15.764,15.764,0,0,0,3,1.027,7.308,7.308,0,0,0,1.574.3l.806.05.4.03.2.015.1.008.048.005h.025l.013,0c-.07,0,.169-.008-.151.008a14.372,14.372,0,0,0,3.409-.438,16.281,16.281,0,0,0,2.931-1.015,21.677,21.677,0,0,0,2.626-1.571,18.945,18.945,0,0,0,2.218-1.76,20.979,20.979,0,0,0,1.76-1.725,13.622,13.622,0,0,0,1.294-1.453c.7-.836,1.143-1.322,1.143-1.322s-.151.612-.486,1.69a9.136,9.136,0,0,1-.753,1.894,12.671,12.671,0,0,1-1.312,2.329,13.127,13.127,0,0,1-2.035,2.493,15.217,15.217,0,0,1-2.835,2.332c-.541.348-1.153.609-1.745.922a7.148,7.148,0,0,1-1.977.738,17.634,17.634,0,0,1-3.916.647l-.176.008-.02,0-.03,0-.068-.008-.133-.013-.259-.023-.529-.053L81,182.712a10.5,10.5,0,0,1-2.035-.463,7.118,7.118,0,0,1-1.909-.723c-.594-.312-1.206-.574-1.748-.922a15.4,15.4,0,0,1-2.835-2.332,13.21,13.21,0,0,1-2.032-2.493,13.045,13.045,0,0,1-1.327-2.349,9.054,9.054,0,0,1-.743-1.876C68.047,170.494,67.891,169.87,67.891,169.87Z" transform="translate(-67.891 -167.981)" fill="#f5968d"/>
        <path id="Path_3289" data-name="Path 3289" d="M98.327,171.009a32.67,32.67,0,0,1-4.757,1.08,68.327,68.327,0,0,1-20.925.005,32.74,32.74,0,0,1-4.754-1.085,32.739,32.739,0,0,1,4.754-1.085,68.327,68.327,0,0,1,20.925.005A32.681,32.681,0,0,1,98.327,171.009Z" transform="translate(-67.891 -169.12)" fill="#f5968d"/>
      </g>
      <g id="Group_1315" data-name="Group 1315" transform="translate(24.764 73.113)">
        <g id="Group_1311" data-name="Group 1311" transform="translate(54.787)">
          <g id="Group_1310" data-name="Group 1310">
            <g id="Group_1309" data-name="Group 1309">
              <path id="Path_3290" data-name="Path 3290" d="M92.636,155.842c0,3.618-2.453,6.549-5.474,6.549s-5.472-2.931-5.472-6.549,2.45-6.552,5.472-6.552S92.636,152.221,92.636,155.842Z" transform="translate(-73.36 -133.772)" fill="#1b0d05"/>
              <path id="Path_3291" data-name="Path 3291" d="M89.854,152.093a2.6,2.6,0,1,1-2.6-2.6A2.6,2.6,0,0,1,89.854,152.093Z" transform="translate(-68.86 -133.465)" fill="#fff"/>
              <path id="Path_3292" data-name="Path 3292" d="M80.676,144.212s12.983-3.472,23.725,2.007a13.293,13.293,0,0,1,5.562,9.735,16.612,16.612,0,0,0-11.4-6.418s-3.611-.733-18.367,1.609c0,0-2.16.06-1.737-2.563C78.46,148.581,77.738,145.184,80.676,144.212Z" transform="translate(-78.382 -143.127)" fill="#42281c"/>
            </g>
          </g>
        </g>
        <g id="Group_1314" data-name="Group 1314">
          <g id="Group_1313" data-name="Group 1313">
            <g id="Group_1312" data-name="Group 1312">
              <path id="Path_3293" data-name="Path 3293" d="M61.513,155.842c0,3.618,2.45,6.549,5.472,6.549s5.472-2.931,5.472-6.549-2.448-6.552-5.472-6.552S61.513,152.221,61.513,155.842Z" transform="translate(-49.202 -133.772)" fill="#1b0d05"/>
              <path id="Path_3294" data-name="Path 3294" d="M60.83,152.093a2.6,2.6,0,1,0,2.6-2.6A2.6,2.6,0,0,0,60.83,152.093Z" transform="translate(-50.239 -133.465)" fill="#fff"/>
              <path id="Path_3295" data-name="Path 3295" d="M85.914,144.212s-12.978-3.472-23.725,2.007a13.292,13.292,0,0,0-5.565,9.735,16.622,16.622,0,0,1,11.4-6.418s3.613-.733,18.369,1.609c0,0,2.16.06,1.737-2.563C88.132,148.581,88.85,145.184,85.914,144.212Z" transform="translate(-56.624 -143.127)" fill="#42281c"/>
            </g>
          </g>
        </g>
      </g>
      <g id="Group_1322" data-name="Group 1322" transform="translate(0 101.734)">
        <g id="Group_1318" data-name="Group 1318">
          <g id="Group_1316" data-name="Group 1316">
            <path id="Path_3296" data-name="Path 3296" d="M53.375,154.81a7.135,7.135,0,0,1,7.909,6.267l1.178,10.258a7.138,7.138,0,0,1-14.182,1.639L47.1,162.707A7.129,7.129,0,0,1,53.375,154.81Z" transform="translate(-46.382 -154.086)" fill="#d27f5c"/>
            <path id="Path_3297" data-name="Path 3297" d="M53.713,154.548a7.728,7.728,0,0,1,4.54.859l.2,1.73a6.443,6.443,0,0,0-10.271,5.907L49.36,173.3a6.466,6.466,0,0,0,11.883,2.725.673.673,0,1,1,1.136.723,7.813,7.813,0,0,1-14.36-3.3l-1.176-10.256A7.81,7.81,0,0,1,53.713,154.548Z" transform="translate(-46.789 -154.493)" fill="#e59776"/>
            <path id="Path_3298" data-name="Path 3298" d="M49.609,157.212a4.977,4.977,0,0,1,2.286-.677c3.457-.234,6.242,5.565,2.79,6.6a2.279,2.279,0,0,0,.04,2.979c1.194,1.4,2.785,3.425,2.427,5.409a3.1,3.1,0,0,1-2.5,2.1c-.874.229-1.042-.506-.35-.864a3.912,3.912,0,0,0,1.314-1.171,1.66,1.66,0,0,1,.1-.2.781.781,0,0,0,.083-.151,1.419,1.419,0,0,0,.038-.861,1.983,1.983,0,0,1-2.679-.038c-.655-.856-.159-2.2-.388-3.173a7.732,7.732,0,0,0-.793-1.952c-1.589-2.881,1.269-3.364,1.269-3.364a8.468,8.468,0,0,1,1.048.086c1.45-.823-.166-3.18-1.048-3.553a2.585,2.585,0,0,0-3.014.561,4.965,4.965,0,0,0-.957,3.316,11.651,11.651,0,0,0,.937,3.989c.315.708.708,1.544,1.027,2.259.363.8-.5,1.153-.864.345-.755-1.7-2.166-4.2-2.46-6.554C47.675,160.344,48,158.473,49.609,157.212Z" transform="translate(-45.183 -151.406)" fill="#e59776"/>
          </g>
          <g id="Group_1317" data-name="Group 1317" transform="translate(8.062 20.959)">
            <path id="Path_3299" data-name="Path 3299" d="M58.044,166.841a4.026,4.026,0,1,1-4.026-4.024A4.027,4.027,0,0,1,58.044,166.841Z" transform="translate(-49.991 -162.817)" fill="#fde3e0"/>
            <path id="Path_3300" data-name="Path 3300" d="M52.087,166.336a1.745,1.745,0,0,0,2.407.005,2.436,2.436,0,0,0,.118-.708,2.53,2.53,0,0,0-2.342-2.521C51.233,164.009,50.9,165.389,52.087,166.336Z" transform="translate(-47.954 -162.368)" fill="#fff"/>
            <path id="Path_3301" data-name="Path 3301" d="M53.456,168.645a3.955,3.955,0,0,1-.667-5.744,4.015,4.015,0,1,0,4.127,6.6A3.959,3.959,0,0,1,53.456,168.645Z" transform="translate(-49.991 -162.689)" fill="#e7d0ce" style="mix-blend-mode: multiply;isolation: isolate"/>
          </g>
        </g>
        <g id="Group_1321" data-name="Group 1321" transform="translate(119.92)">
          <g id="Group_1319" data-name="Group 1319">
            <path id="Path_3302" data-name="Path 3302" d="M103.548,154.81a7.129,7.129,0,0,0-7.9,6.267L94.46,171.336a7.137,7.137,0,0,0,14.179,1.639l1.181-10.269A7.124,7.124,0,0,0,103.548,154.81Z" transform="translate(-94.413 -154.086)" fill="#d27f5c"/>
            <path id="Path_3303" data-name="Path 3303" d="M103.364,154.548a7.717,7.717,0,0,0-4.543.859l-.2,1.73a6.443,6.443,0,0,1,10.271,5.907L107.71,173.3a6.465,6.465,0,0,1-11.88,2.725.67.67,0,0,0-.929-.212.68.68,0,0,0-.212.934,7.815,7.815,0,0,0,14.363-3.3l1.176-10.256A7.813,7.813,0,0,0,103.364,154.548Z" transform="translate(-94.151 -154.493)" fill="#e59776"/>
            <path id="Path_3304" data-name="Path 3304" d="M103.642,157.212a5,5,0,0,0-2.294-.677c-3.457-.234-6.237,5.565-2.782,6.6a2.281,2.281,0,0,1-.05,2.979c-1.189,1.4-2.782,3.425-2.415,5.409.206,1.178,1.408,1.808,2.5,2.1.864.229,1.037-.506.342-.864a3.863,3.863,0,0,1-1.307-1.171c-.035-.068-.071-.133-.108-.2a.661.661,0,0,1-.081-.151,1.382,1.382,0,0,1-.038-.861,1.983,1.983,0,0,0,2.679-.038c.652-.856.159-2.2.385-3.173a7.647,7.647,0,0,1,.8-1.952c1.586-2.881-1.274-3.364-1.274-3.364a8.6,8.6,0,0,0-1.048.086c-1.448-.823.169-3.18,1.048-3.553a2.587,2.587,0,0,1,3.017.561,4.911,4.911,0,0,1,.957,3.316,11.6,11.6,0,0,1-.944,3.989c-.3.708-.7,1.544-1.02,2.259-.358.8.509,1.153.864.345.758-1.7,2.163-4.2,2.46-6.554C105.573,160.344,105.243,158.473,103.642,157.212Z" transform="translate(-91.934 -151.406)" fill="#e59776"/>
          </g>
          <g id="Group_1320" data-name="Group 1320" transform="translate(0.085 20.959)">
            <path id="Path_3305" data-name="Path 3305" d="M94.447,166.841a4.026,4.026,0,1,0,4.026-4.024A4.028,4.028,0,0,0,94.447,166.841Z" transform="translate(-94.447 -162.817)" fill="#fde3e0"/>
            <path id="Path_3306" data-name="Path 3306" d="M97.528,166.336a1.748,1.748,0,0,1-2.41.005,2.481,2.481,0,0,1,2.228-3.228C98.381,164.009,98.721,165.389,97.528,166.336Z" transform="translate(-93.604 -162.368)" fill="#fff"/>
            <path id="Path_3307" data-name="Path 3307" d="M98.355,168.645a3.952,3.952,0,0,0,.665-5.744,4.015,4.015,0,1,1-4.125,6.6A3.954,3.954,0,0,0,98.355,168.645Z" transform="translate(-93.767 -162.689)" fill="#e7d0ce" style="mix-blend-mode: multiply;isolation: isolate"/>
          </g>
        </g>
      </g>
      <g id="Group_1325" data-name="Group 1325" transform="translate(25.24 103.765)" opacity="0.5">
        <g id="Group_1323" data-name="Group 1323">
          <path id="Path_3310" data-name="Path 3310" d="M80.271,162.275c0,3.853-5.25,6.977-11.729,6.977s-11.729-3.125-11.729-6.977,5.248-6.975,11.729-6.975S80.271,158.422,80.271,162.275Z" transform="translate(-56.813 -155.3)" fill="#e28780"/>
        </g>
        <g id="Group_1324" data-name="Group 1324" transform="translate(62.11)">
          <path id="Path_3311" data-name="Path 3311" d="M104.94,162.275c0,3.853-5.25,6.977-11.727,6.977s-11.734-3.125-11.734-6.977,5.25-6.975,11.734-6.975S104.94,158.422,104.94,162.275Z" transform="translate(-81.479 -155.3)" fill="#e28780"/>
        </g>
      </g>
      <path id="Path_3312" data-name="Path 3312" d="M89.872,162.161a8.724,8.724,0,0,1-2.39,2.712,12.613,12.613,0,0,1-7.544,2.727,10.264,10.264,0,0,1-2.259-.164,9.967,9.967,0,0,1-2.115-.556,9.328,9.328,0,0,1-1.821-.886,6.538,6.538,0,0,1-1.455-1.042A8.3,8.3,0,0,1,70.516,163c-.36-.521-.531-.839-.531-.839s.378.073.974.232c.295.086.657.176,1.035.312s.856.186,1.309.33a14.889,14.889,0,0,0,1.488.34c.531.071,1.055.239,1.619.262a19.654,19.654,0,0,0,3.442.189,25.928,25.928,0,0,0,3.493-.3c1.136-.171,2.223-.385,3.183-.594Z" transform="translate(-11.577 -41.12)" fill="#e68e68"/>
      <path id="Path_3313" data-name="Path 3313" d="M61.1,143.066s-4.908,29.141,64.726,41.623c26.21,8.982,23.775,45.974,23.216,42.51,0,0,2.664-9.342,12.218-9.342,0,0,10.014-92.095-49.621-102.391C111.641,115.465,55.071,104.769,61.1,143.066Z" transform="translate(-25.746 -114.091)" fill="#42281c"/>
      <path id="Path_3314" data-name="Path 3314" d="M81.781,120.577s-41.706,7.829-33.228,87.434c0,0,7.26-5.238,12.187,4.961,0,0,1.589-60.874,25.656-69.017Z" transform="translate(-45.839 -104.246)" fill="#42281c"/>
    </g>
  </g>
</svg>
