<svg xmlns="http://www.w3.org/2000/svg" width="124.566" height="184.766" viewBox="0 0 124.566 184.766">
  <g id="Group_1359" data-name="Group 1359" transform="translate(-749.79 -550.184)">
    <g id="Group_1288" data-name="Group 1288" transform="translate(438.178 441.311)">
      <path id="Path_3225" data-name="Path 3225" d="M379.87,130.34c0,11.855-12.828,21.467-28.657,21.467s-28.653-9.612-28.653-21.467,12.83-21.467,28.653-21.467S379.87,118.485,379.87,130.34Z" transform="translate(23.096 0)" fill="#382216"/>
      <path id="Path_3227" data-name="Path 3227" d="M416.249,201.311c0,37.543-30.283,61.555-52.015,65.523-20.835-2.008-49.476-28.067-52.012-65.523-3.3-48.644,20.122-76.234,52.012-76.234S423.733,152.667,416.249,201.311Z" transform="translate(9.196 21.154)" fill="#d27f5c"/>
      <g id="Group_1270" data-name="Group 1270" transform="translate(360.262 254.307)">
        <path id="Path_3228" data-name="Path 3228" d="M328.895,172.7c2.882,6.128,8.037,10.223,13.932,10.223s11.048-4.095,13.93-10.223Z" transform="translate(-328.895 -170.975)" fill="#fcb590"/>
        <path id="Path_3229" data-name="Path 3229" d="M328.895,172.7s.394.433,1.044,1.217a12.15,12.15,0,0,0,1.192,1.346,20.441,20.441,0,0,0,1.6,1.561,17.581,17.581,0,0,0,2.029,1.614,20.532,20.532,0,0,0,2.409,1.439,14.6,14.6,0,0,0,2.744.941,6.832,6.832,0,0,0,1.441.277l.738.046.367.025.182.014.095.009.046,0,.023,0h.012c-.065,0,.154,0-.138.009a13.144,13.144,0,0,0,3.122-.4,14.717,14.717,0,0,0,2.684-.927,20.14,20.14,0,0,0,2.4-1.439,17.351,17.351,0,0,0,2.029-1.612,19.617,19.617,0,0,0,1.614-1.579,12.661,12.661,0,0,0,1.183-1.33c.641-.768,1.044-1.213,1.044-1.213s-.134.56-.44,1.547a8.446,8.446,0,0,1-.689,1.734,11.614,11.614,0,0,1-1.2,2.135,12.022,12.022,0,0,1-1.863,2.282,14,14,0,0,1-2.6,2.133c-.5.32-1.056.56-1.6.846a6.545,6.545,0,0,1-1.81.673,16.3,16.3,0,0,1-3.585.595l-.161,0h-.018l-.028,0-.062,0-.122-.012-.237-.023-.486-.046-.961-.1a9.577,9.577,0,0,1-1.863-.424,6.487,6.487,0,0,1-1.748-.662c-.544-.286-1.1-.526-1.6-.844a14.116,14.116,0,0,1-2.6-2.135,12.1,12.1,0,0,1-1.861-2.282,11.935,11.935,0,0,1-1.215-2.151,8.159,8.159,0,0,1-.68-1.718C329.038,173.276,328.895,172.7,328.895,172.7Z" transform="translate(-328.895 -170.975)" fill="#fcb590"/>
        <path id="Path_3230" data-name="Path 3230" d="M356.757,173.683a29.565,29.565,0,0,1-4.353.989,60.073,60.073,0,0,1-9.577.74,59.325,59.325,0,0,1-9.579-.735,29.511,29.511,0,0,1-4.353-.994,29.717,29.717,0,0,1,4.353-.991,59.575,59.575,0,0,1,9.579-.738,60.327,60.327,0,0,1,9.577.742A30.145,30.145,0,0,1,356.757,173.683Z" transform="translate(-328.895 -171.954)" fill="#fcb590"/>
      </g>
      <g id="Group_1277" data-name="Group 1277" transform="translate(334.288 194.38)">
        <g id="Group_1273" data-name="Group 1273" transform="translate(50.163)">
          <g id="Group_1272" data-name="Group 1272">
            <g id="Group_1271" data-name="Group 1271">
              <path id="Path_3231" data-name="Path 3231" d="M352.717,158.122c0,3.313-2.243,6-5.012,6s-5.012-2.684-5.012-6,2.248-6,5.012-6S352.717,154.809,352.717,158.122Z" transform="translate(-335.071 -137.915)" fill="#1b0d05"/>
              <circle id="Ellipse_227" data-name="Ellipse 227" cx="2.382" cy="2.382" r="2.382" transform="translate(14.459 14.675)" fill="#fff"/>
              <path id="Path_3232" data-name="Path 3232" d="M341.485,146.954s11.887-3.179,21.727,1.84A12.151,12.151,0,0,1,368.3,157.7a15.219,15.219,0,0,0-10.439-5.877s-3.3-.671-16.814,1.473c0,0-1.976.055-1.589-2.347C339.459,150.954,338.8,147.844,341.485,146.954Z" transform="translate(-339.387 -145.961)" fill="#42281c"/>
            </g>
          </g>
        </g>
        <g id="Group_1276" data-name="Group 1276">
          <g id="Group_1275" data-name="Group 1275">
            <g id="Group_1274" data-name="Group 1274">
              <path id="Path_3233" data-name="Path 3233" d="M322.518,158.122c0,3.313,2.241,6,5.005,6s5.012-2.684,5.012-6-2.241-6-5.012-6S322.518,154.809,322.518,158.122Z" transform="translate(-311.246 -137.915)" fill="#1b0d05"/>
              <circle id="Ellipse_228" data-name="Ellipse 228" cx="2.382" cy="2.382" r="2.382" transform="translate(9.695 14.675)" fill="#fff"/>
              <path id="Path_3234" data-name="Path 3234" d="M344.444,146.954s-11.885-3.179-21.723,1.84a12.164,12.164,0,0,0-5.093,8.911,15.21,15.21,0,0,1,10.437-5.877s3.311-.671,16.819,1.473c0,0,1.978.055,1.591-2.347C346.476,150.954,347.137,147.844,344.444,146.954Z" transform="translate(-317.629 -145.961)" fill="#42281c"/>
            </g>
          </g>
        </g>
      </g>
      <g id="Group_1284" data-name="Group 1284" transform="translate(311.612 220.585)">
        <g id="Group_1280" data-name="Group 1280">
          <g id="Group_1278" data-name="Group 1278">
            <path id="Path_3235" data-name="Path 3235" d="M313.85,157.64a6.53,6.53,0,0,1,7.237,5.738l1.077,9.395a6.534,6.534,0,0,1-12.982,1.5l-1.077-9.4A6.526,6.526,0,0,1,313.85,157.64Z" transform="translate(-307.444 -156.977)" fill="#fcb590"/>
            <path id="Path_3236" data-name="Path 3236" d="M314.132,157.377a7.069,7.069,0,0,1,4.157.786l.18,1.584a5.9,5.9,0,0,0-9.4,5.409l1.079,9.393a5.919,5.919,0,0,0,10.88,2.492.616.616,0,1,1,1.04.662,7.153,7.153,0,0,1-13.148-3.016l-1.077-9.39A7.157,7.157,0,0,1,314.132,157.377Z" transform="translate(-307.794 -157.327)" fill="#e59776"/>
            <path id="Path_3237" data-name="Path 3237" d="M310.464,159.988a4.586,4.586,0,0,1,2.1-.62c3.165-.214,5.711,5.1,2.548,6.045a2.085,2.085,0,0,0,.041,2.725c1.091,1.284,2.552,3.136,2.22,4.952a2.832,2.832,0,0,1-2.287,1.92c-.8.212-.954-.463-.316-.788a3.634,3.634,0,0,0,1.2-1.072,1.74,1.74,0,0,1,.095-.184.556.556,0,0,0,.076-.136,1.241,1.241,0,0,0,.035-.791,1.816,1.816,0,0,1-2.453-.035c-.6-.784-.145-2.013-.353-2.9a7.12,7.12,0,0,0-.729-1.787c-1.455-2.638,1.162-3.08,1.162-3.08a8.412,8.412,0,0,1,.964.078c1.323-.754-.157-2.91-.964-3.253a2.37,2.37,0,0,0-2.76.514,4.534,4.534,0,0,0-.874,3.036,10.744,10.744,0,0,0,.855,3.654c.288.648.652,1.413.941,2.066.33.738-.459,1.058-.793.316-.687-1.554-1.976-3.843-2.25-6A4.767,4.767,0,0,1,310.464,159.988Z" transform="translate(-306.412 -154.672)" fill="#e59776"/>
          </g>
          <g id="Group_1279" data-name="Group 1279" transform="translate(7.383 19.193)">
            <path id="Path_3238" data-name="Path 3238" d="M318.367,169.336a3.685,3.685,0,1,1-3.687-3.684A3.683,3.683,0,0,1,318.367,169.336Z" transform="translate(-310.996 -165.652)" fill="#fde3e0"/>
            <path id="Path_3239" data-name="Path 3239" d="M313.025,168.9a1.609,1.609,0,0,0,2.211.007,2.427,2.427,0,0,0,.1-.65,2.319,2.319,0,0,0-2.144-2.308C312.246,166.768,311.939,168.031,313.025,168.9Z" transform="translate(-309.246 -165.267)" fill="#fff"/>
            <path id="Path_3240" data-name="Path 3240" d="M314.166,171a3.626,3.626,0,0,1-.613-5.261,3.676,3.676,0,1,0,3.779,6.04A3.629,3.629,0,0,1,314.166,171Z" transform="translate(-310.996 -165.544)" fill="#e7d0ce" style="mix-blend-mode: multiply;isolation: isolate"/>
          </g>
        </g>
        <g id="Group_1283" data-name="Group 1283" transform="translate(109.795)">
          <g id="Group_1281" data-name="Group 1281">
            <path id="Path_3241" data-name="Path 3241" d="M363.782,157.64a6.527,6.527,0,0,0-7.237,5.738l-1.086,9.395a6.534,6.534,0,0,0,12.982,1.5l1.086-9.4A6.524,6.524,0,0,0,363.782,157.64Z" transform="translate(-355.417 -156.977)" fill="#fcb590"/>
            <path id="Path_3242" data-name="Path 3242" d="M363.626,157.377a7.073,7.073,0,0,0-4.159.786l-.187,1.584a5.9,5.9,0,0,1,9.409,5.409l-1.081,9.393a5.92,5.92,0,0,1-10.88,2.492.615.615,0,0,0-.851-.194.628.628,0,0,0-.194.855,7.157,7.157,0,0,0,13.153-3.016l1.077-9.39A7.16,7.16,0,0,0,363.626,157.377Z" transform="translate(-355.189 -157.327)" fill="#e59776"/>
            <path id="Path_3243" data-name="Path 3243" d="M364,159.988a4.586,4.586,0,0,0-2.1-.62c-3.161-.214-5.713,5.1-2.548,6.045a2.089,2.089,0,0,1-.046,2.725c-1.088,1.284-2.548,3.136-2.211,4.952a2.819,2.819,0,0,0,2.285,1.92c.8.212.95-.463.318-.788a3.474,3.474,0,0,1-1.2-1.072c-.037-.065-.069-.124-.1-.184a.771.771,0,0,1-.076-.136,1.257,1.257,0,0,1-.032-.791,1.816,1.816,0,0,0,2.453-.035c.6-.784.145-2.013.357-2.9a6.781,6.781,0,0,1,.724-1.787c1.45-2.638-1.162-3.08-1.162-3.08a8.322,8.322,0,0,0-.964.078c-1.323-.754.155-2.91.959-3.253a2.379,2.379,0,0,1,2.764.514,4.55,4.55,0,0,1,.878,3.036,10.759,10.759,0,0,1-.869,3.654c-.279.648-.639,1.413-.936,2.066-.325.738.468,1.058.793.316.694-1.554,1.985-3.843,2.25-6A4.765,4.765,0,0,0,364,159.988Z" transform="translate(-353.283 -154.672)" fill="#e59776"/>
          </g>
          <g id="Group_1282" data-name="Group 1282" transform="translate(0.084 19.193)">
            <path id="Path_3244" data-name="Path 3244" d="M355.453,169.336a3.683,3.683,0,1,0,3.684-3.684A3.684,3.684,0,0,0,355.453,169.336Z" transform="translate(-355.453 -165.652)" fill="#fde3e0"/>
            <path id="Path_3245" data-name="Path 3245" d="M358.318,168.9a1.609,1.609,0,0,1-2.211.007,2.338,2.338,0,0,1-.1-.65,2.314,2.314,0,0,1,2.137-2.308C359.1,166.768,359.406,168.031,358.318,168.9Z" transform="translate(-354.729 -165.267)" fill="#fff"/>
            <path id="Path_3246" data-name="Path 3246" d="M359.063,171a3.62,3.62,0,0,0,.611-5.261,3.675,3.675,0,1,1-3.774,6.04A3.617,3.617,0,0,0,359.063,171Z" transform="translate(-354.869 -165.544)" fill="#e7d0ce" style="mix-blend-mode: multiply;isolation: isolate"/>
          </g>
        </g>
      </g>
      <g id="Group_1287" data-name="Group 1287" transform="translate(334.719 222.447)" opacity="0.5">
        <g id="Group_1285" data-name="Group 1285">
          <path id="Path_3249" data-name="Path 3249" d="M339.3,164.519c0,3.527-4.809,6.389-10.739,6.389s-10.741-2.861-10.741-6.389,4.809-6.384,10.741-6.384S339.3,160.992,339.3,164.519Z" transform="translate(-317.816 -158.135)" fill="#e28780"/>
        </g>
        <g id="Group_1286" data-name="Group 1286" transform="translate(56.868)">
          <path id="Path_3250" data-name="Path 3250" d="M363.962,164.519c0,3.527-4.8,6.389-10.734,6.389s-10.746-2.861-10.746-6.389,4.809-6.384,10.746-6.384S363.962,160.992,363.962,164.519Z" transform="translate(-342.482 -158.135)" fill="#e28780"/>
        </g>
      </g>
      <path id="Path_3251" data-name="Path 3251" d="M349.2,164.995a7.96,7.96,0,0,1-2.188,2.483,11.541,11.541,0,0,1-6.91,2.5,9.522,9.522,0,0,1-2.066-.148,9.372,9.372,0,0,1-1.937-.51,8.718,8.718,0,0,1-1.671-.814,6.022,6.022,0,0,1-1.33-.954,7.594,7.594,0,0,1-1.623-1.784c-.327-.48-.486-.77-.486-.77s.348.067.892.212c.27.078.6.161.945.286s.786.171,1.2.3a13.923,13.923,0,0,0,1.36.314c.484.062.964.219,1.485.24a18.185,18.185,0,0,0,3.152.171,23.678,23.678,0,0,0,3.2-.272c1.04-.157,2.036-.353,2.916-.542Z" transform="translate(34.099 73.268)" fill="#fcb590"/>
      <path id="Path_3252" data-name="Path 3252" d="M397.7,124.663c44.39,20.148,31.489,85.629,31.489,85.629-7.458-5.091-9.556,2.829-9.556,2.829,1.067-47.9-27.18-59.65-27.18-59.65-25.1-14.958-48.34-1.831-48.34-1.831-22.036,7.458-23.491,63.192-23.491,63.192-4.512-9.337-11.159-4.54-11.159-4.54-7.758-72.886,30.426-85.629,30.426-85.629S365.7,110.085,397.7,124.663Z" transform="translate(4.636 12.155)" fill="#42281c"/>
      <path id="Path_3253" data-name="Path 3253" d="M311.963,159.581s-1.812,55.729,17.983,76.529c0,0-17.709-37.423-12.473-83.171Z" transform="translate(9.205 57.529)" fill="#42281c"/>
      <path id="Path_3254" data-name="Path 3254" d="M369.493,159.581s1.81,55.729-17.985,76.529c0,0,17.709-37.423,12.473-83.171Z" transform="translate(60.888 57.529)" fill="#42281c"/>
    </g>
  </g>
</svg>
