<svg width="111" height="95" viewBox="0 0 111 95" fill="none" xmlns="http://www.w3.org/2000/svg">
<path d="M70.4083 70.6026C69.1083 71.6026 67.8083 72.5026 66.4083 73.5026C64.8083 74.7026 62.8083 76.0026 60.6083 77.5026C54.6083 81.5026 47.3083 86.1026 42.6083 88.9026C30.8083 95.8026 16.2083 98.6026 6.5083 85.5026C5.9083 84.7026 5.4083 83.9026 4.9083 83.1026C4.4083 82.5026 4.0083 81.9026 3.6083 81.2026C3.5083 81.0026 3.4083 80.8026 3.3083 80.7026C3.0083 80.3026 2.8083 79.9026 2.6083 79.4026C0.708299 75.6026 -0.0917006 72.0026 0.00829935 68.6026C0.308299 59.6026 6.6083 51.8026 14.4083 46.1026C18.5083 43.1026 25.1083 38.5026 30.9083 34.7026C33.7083 32.9026 36.3083 31.2026 38.4083 30.0026C39.3083 29.4026 40.3083 28.9026 41.2083 28.3026C41.8083 29.0026 42.4083 29.8026 43.1083 30.5026C44.7083 32.3026 46.4083 34.1026 48.0083 35.9026C49.3083 37.4026 50.5083 38.9026 51.6083 40.5026C51.7083 40.6026 51.8083 40.7026 51.9083 40.9026C52.6083 41.9026 53.4083 42.9026 54.1083 43.9026C51.8083 45.7026 47.9083 48.2026 44.0083 50.7026C40.5083 52.9026 37.2083 55.0026 35.0083 56.5026C31.9083 58.6026 20.3083 65.4026 20.3083 70.1026C20.3083 70.4026 20.3083 70.7026 20.4083 71.0026C20.4083 71.1026 20.5083 71.1026 20.5083 71.2026V71.3026C20.7083 71.8026 20.9083 72.2026 21.2083 72.6026C21.4083 73.0026 21.7083 73.4026 22.1083 73.7026C22.2083 73.8026 22.2083 73.9026 22.3083 73.9026C22.7083 74.3026 23.2083 74.5026 23.8083 74.6026C28.5083 75.4026 38.3083 68.2026 41.4083 66.3026C43.7083 64.8026 47.0083 62.5026 50.5083 60.1026C54.2083 57.6026 57.9083 55.1026 60.5083 53.7026C61.2083 54.7026 61.9083 55.7026 62.6083 56.8026C64.4083 59.6026 66.1083 62.4026 67.7083 65.3026C68.1083 65.9026 68.4083 66.6026 68.7083 67.2026C69.2083 68.1026 69.8083 69.4026 70.4083 70.6026Z" fill="#99DDFF"/>
<path d="M54.0078 43.7026C51.7078 45.5026 47.8078 48.0026 43.9078 50.5026C43.7078 50.2026 43.5078 49.9026 43.3078 49.7026C39.4078 44.5026 35.3078 39.5026 31.0078 34.6026C33.8078 32.8026 36.4078 31.1026 38.5078 29.9026C39.4078 29.3026 40.4078 28.8026 41.3078 28.2026C43.4078 30.8026 45.9078 33.2026 48.0078 35.7026C50.0078 38.4026 52.0078 41.0026 54.0078 43.7026Z" fill="#E65C7E"/>
<path d="M60.7082 77.5026C57.5082 71.5026 54.1082 65.6026 50.4082 59.9026C54.1082 57.4026 57.8082 54.9026 60.4082 53.5026C64.2082 59.0026 67.6082 64.6026 70.5082 70.7026C69.2082 71.7026 67.9082 72.6026 66.5082 73.6026C64.8082 74.7026 62.9082 76.0026 60.7082 77.5026Z" fill="#45B0E6"/>
<path d="M39.7083 34.0026C37.3083 34.1026 35.3083 35.6026 33.3083 36.8026C31.1083 38.1026 29.0083 39.5026 26.9083 40.9026C22.4083 44.0026 18.2083 47.3026 14.1083 50.9026C9.20828 55.3026 0.208282 64.3026 6.60828 71.1026C6.70828 71.2026 6.90828 71.1026 6.90828 71.0026C6.50828 66.3026 7.20828 62.3026 10.2083 58.5026C13.0083 55.0026 16.7083 52.0026 20.2083 49.3026C23.5083 46.7026 27.0083 44.2026 30.6083 42.0026C33.7083 40.0026 38.4083 38.4026 40.6083 35.4026C41.0083 34.7026 40.3083 34.0026 39.7083 34.0026Z" fill="white"/>
<path d="M58.4078 59.1026C52.5078 61.7026 47.0078 66.3026 41.6078 69.9026C35.9078 73.7026 30.1078 77.7026 22.8078 76.5026C21.9078 76.4026 21.3078 77.7026 22.3078 78.0026C28.3078 80.2026 34.0078 77.6026 39.1078 74.4026C42.5078 72.3026 45.8078 70.1026 49.1078 67.9026C52.6078 65.6026 56.5078 63.6026 59.6078 60.8026C60.3078 60.1026 59.3078 58.7026 58.4078 59.1026Z" fill="white"/>
<path d="M75.7084 36.9025C71.1084 29.1025 61.6084 25.5025 53.3084 28.7025C52.6084 29.0025 53.0084 29.9025 53.6084 29.9025C61.5084 29.7025 70.0084 32.6025 73.6084 40.3025C76.9084 47.5025 73.8084 53.3025 70.9084 59.7025C70.4084 60.8025 71.8084 61.6025 72.6084 61.0025C79.6084 55.8025 79.8084 43.9025 75.7084 36.9025Z" fill="#CCCCCC"/>
<path d="M90.5083 27.7026C89.0083 25.6026 87.2083 23.7026 85.2083 22.1026C84.1083 21.2026 83.0083 20.4026 81.9083 19.7026C76.4083 16.1026 69.7083 13.9026 63.1083 14.7026C60.8083 15.0026 57.7083 15.4026 55.9083 16.9026C55.6083 17.1026 55.3083 17.5026 55.4083 17.9026C55.5083 18.1026 55.6083 18.3026 55.8083 18.4026C56.0083 18.5026 56.2083 18.6026 56.4083 18.6026C57.4083 18.8026 58.3083 18.7026 59.4083 18.6026C60.5083 18.5026 61.5083 18.5026 62.6083 18.4026C64.8083 18.3026 67.0083 18.4026 69.1083 18.8026C76.0083 20.2026 82.7083 23.6026 87.1083 29.3026C95.1083 39.8026 93.0083 52.9026 87.4083 63.9026C87.0083 64.7026 88.1083 65.5026 88.8083 64.9026C98.2083 55.2026 98.0083 38.6026 90.5083 27.7026Z" fill="#CCCCCC"/>
<path d="M102.709 13.4026C91.5085 -1.19741 69.1085 -5.29741 53.5085 8.30259C52.6085 9.00259 53.5085 10.1026 54.4085 9.80259C70.8085 3.00259 88.3085 2.50259 99.6085 16.5026C104.909 23.0026 107.809 31.7026 107.409 40.7026C107.009 50.3026 103.109 57.6026 98.7085 65.9026C98.1085 67.0026 99.3085 68.4026 100.309 67.3026C114.609 52.8026 113.409 27.1026 102.709 13.4026Z" fill="#CCCCCC"/>
<path opacity="0.5" d="M70.4084 70.6026C69.1084 71.6026 67.8084 72.5026 66.4084 73.5026C64.8084 74.7026 62.8084 76.0026 60.6084 77.5026C54.6084 81.5026 47.3084 86.1026 42.6084 88.9026C30.8084 95.8026 16.2084 98.6026 6.5084 85.5026C5.9084 84.7026 5.4084 83.9026 4.9084 83.1026C4.4084 82.5026 4.0084 81.9026 3.6084 81.2026C6.1084 83.9026 8.7084 86.3026 12.4084 88.0026C19.7084 91.4026 27.9084 90.9026 35.2084 87.8026C42.0084 84.9026 48.5084 80.8026 54.8084 77.0026C59.5084 74.2026 63.8084 70.0026 68.5084 67.0026C69.2084 68.1026 69.8084 69.4026 70.4084 70.6026Z" fill="black"/>
<path opacity="0.5" d="M54.0081 43.7026C51.7081 45.5026 47.8081 48.0026 43.9081 50.5026C40.4081 52.7026 37.1081 54.8026 34.9081 56.3026C31.8081 58.4026 20.2081 65.2026 20.2081 69.9026C20.2081 70.2026 20.2081 70.5026 20.3081 70.8026C20.3081 70.9026 20.4081 70.9026 20.4081 71.0026C15.8081 66.7026 24.3081 60.2026 27.4081 57.7026C32.1081 54.0026 37.2081 50.7026 42.1081 47.3026C45.2081 45.1026 48.2081 42.4026 51.5081 40.4026C51.6081 40.5026 51.7081 40.6026 51.8081 40.8026C52.5081 41.8026 53.2081 42.7026 54.0081 43.7026Z" fill="black"/>
</svg>
