<svg width="82" height="97" viewBox="0 0 82 97" fill="none" xmlns="http://www.w3.org/2000/svg">
<path d="M51.9467 96.558C34.8575 91.9092 17.1135 82.5462 1.85765 73.5105C1.7267 73.4451 1.66123 73.3796 1.53027 73.3141C2.11956 71.5463 2.77431 69.7784 3.3636 68.0106C3.8874 66.4391 4.47669 64.8677 5.06597 63.2963C9.91118 49.8083 15.3457 36.6477 21.3694 23.6834C23.7921 18.5108 26.2801 13.4037 28.8337 8.29662C29.0301 7.83829 29.292 7.37996 29.5539 6.92163C30.4051 7.11806 31.1908 7.37996 32.042 7.57639C38.7205 9.34424 45.7264 11.1776 52.7324 13.3383C61.7025 16.0882 70.5418 19.2311 78.3989 23.4215C79.6429 24.0763 80.8215 24.7311 82.0001 25.4513C81.7382 26.237 81.4762 27.0227 81.1489 27.8739C79.1846 33.5703 77.0239 39.5286 74.6668 45.5524C67.8573 62.9689 59.8037 81.1712 51.9467 96.558Z" fill="#E65C7E"/>
<path d="M1.8576 73.4452C0.0897517 73.2487 -0.565006 68.7309 0.548082 66.5702C1.00641 65.3916 1.53022 64.0821 2.05403 62.7071C7.8159 47.9751 16.4587 25.124 22.8753 11.7669C24.5122 8.29672 26.1491 4.63008 28.3098 1.48724C28.7027 0.96343 29.161 0.374148 29.7503 0.112244C30.3396 -0.149659 31.1253 0.0467684 31.3217 0.701527C31.4527 1.22533 31.1908 1.74914 30.9289 2.20747C30.8634 3.51699 28.8336 6.07054 28.2444 7.24911C27.3277 8.95148 26.4765 10.5229 25.8217 12.2907C24.3813 16.0883 22.8753 19.8859 21.4349 23.6835C16.3278 36.9097 10.9587 50.856 5.98258 63.3619C5.32782 65.0643 4.67306 66.7012 4.0183 68.2726C3.23259 70.1059 2.51236 71.8083 1.8576 73.4452Z" fill="#800D29"/>
<path d="M51.488 94.332C34.2678 89.6832 17.3751 81.1059 2.05371 72.0047C9.77986 49.1537 19.0774 27.0883 30.0774 5.67773C47.2975 10.3265 65.2379 17.0051 80.5592 26.1062C72.8986 48.8918 62.4879 72.8559 51.488 94.332Z" fill="white"/>
<path d="M52.0126 92.1713C34.7924 87.457 17.6377 80.4511 2.31641 71.35C10.0426 48.5644 19.3401 26.4335 30.3401 5.02295C47.5602 9.67173 64.5839 16.0229 79.9053 25.124C72.1791 47.9096 63.0125 70.7607 52.0126 92.1713Z" fill="#B8E6E6"/>
<path d="M51.8157 90.3379C34.5955 85.6891 18.3575 78.8141 2.9707 69.713C10.7623 46.8619 20.0599 24.7966 31.0598 3.38599C48.28 8.03477 63.6013 14.124 78.9227 23.2252C71.1965 46.0107 62.8156 68.8618 51.8157 90.3379Z" fill="white"/>
<path d="M50.9651 87.9153C34.3997 83.3974 18.751 76.9153 3.88796 68.338C3.69154 68.207 3.49511 68.0761 3.29868 68.0106C2.90583 67.8142 2.51297 67.5523 2.12012 67.2904C8.79865 47.5822 16.6558 28.3977 25.7569 9.73714C27.1974 6.79073 28.6378 3.90979 30.1438 0.963379C47.3639 5.61216 63.6674 12.4871 78.9887 21.5883C78.7923 22.243 78.5959 22.8323 78.334 23.4871C78.1375 24.1418 77.8756 24.7966 77.6792 25.3859C70.2804 46.7965 61.3103 67.6832 50.9651 87.9153Z" fill="#E65C7E"/>
<path d="M64.7138 34.0941C65.7614 31.2132 66.809 28.3323 67.8567 25.4513C62.6841 22.5704 57.3151 19.9514 51.946 17.6597C46.5115 15.3681 40.9461 13.3383 35.2497 11.7014C33.6783 14.8443 32.6961 16.4812 31.5176 20.1478C37.9997 23.2252 57.9698 32.3263 64.7138 34.0941Z" fill="white"/>
<path d="M58.8874 39.6595C59.2148 38.6774 59.4767 37.6298 59.7386 36.6476C55.3517 34.5524 50.8994 32.5227 46.447 30.6893C41.9946 28.7905 37.4768 27.0227 32.8935 25.3203C32.2387 26.3679 31.7804 26.8917 31.584 28.2012C36.953 30.4929 53.5184 37.6952 58.8874 39.6595Z" fill="white"/>
<path opacity="0.5" d="M51.9466 96.5582C34.8574 91.9094 17.1135 82.5464 1.8576 73.5107C0.0897517 73.3143 -0.565006 68.7965 0.548082 66.6358C1.00641 65.4572 1.53022 64.1477 2.05403 62.7727C2.57783 62.8382 3.10164 62.9691 3.69092 63.0346C4.14925 63.1001 4.60758 63.1655 5.06591 63.2965C5.39329 63.362 5.6552 63.4274 5.98258 63.4274C12.9885 64.5405 20.0599 65.3917 27.1967 65.4572C38.0657 65.5881 48.7383 63.362 58.3632 58.2548C61.5715 56.5525 64.6489 54.5882 67.5953 52.2311C70.0834 50.2668 72.506 47.9751 74.7322 45.4871C67.8572 62.9691 59.8037 81.1714 51.9466 96.5582Z" fill="#C84162"/>
</svg>
