<svg width="92" height="53" viewBox="0 0 92 53" fill="none" xmlns="http://www.w3.org/2000/svg">
<path d="M69.9597 39.9036C69.1842 41.1153 68.3118 42.1816 67.3909 43.1994C65.9854 44.7503 64.4344 46.059 62.835 47.1252C51.6875 54.7346 37.2926 51.6812 28.4716 43.2963C23.6733 38.8373 20.5229 32.7789 20.3775 26.0904C20.2806 22.8431 20.8622 19.4988 22.3162 16.0576C22.9947 16.5423 23.6733 17.0754 24.3518 17.5116C28.1323 20.1773 32.1066 22.5038 36.2264 24.5879C39.4737 26.4781 42.7695 28.2229 46.1137 29.8224C47.2769 30.404 48.4886 30.9856 49.7003 31.5187C53.7231 33.3605 57.7944 35.2023 61.8656 36.8986C64.2405 37.868 66.6154 38.7888 69.0388 39.6128C69.3781 39.7097 69.6689 39.8551 69.9597 39.9036Z" fill="#FF8C66"/>
<path opacity="0.5" d="M71.8014 36.5109C71.2683 37.7226 70.6382 38.8374 69.9597 39.9036C69.1842 41.1153 68.3118 42.1816 67.3909 43.1994C65.9854 44.7504 64.4344 46.059 62.835 47.1253C51.6875 54.7347 37.2926 51.6812 28.4716 43.2964C36.3718 45.6228 45.9198 46.3498 53.5777 43.1025C50.912 41.8908 48.2463 40.6306 45.5806 39.3705C44.1265 38.692 42.6725 38.0134 41.2185 37.2864C37.1472 35.2992 33.1244 33.2151 29.1501 30.9372C26.1936 29.4347 23.2371 27.7868 20.3775 26.0904C20.2806 22.8431 20.8622 19.4989 22.3162 16.0577C22.8009 14.8944 23.3825 13.7797 24.0126 12.6165C24.061 12.568 24.061 12.4711 24.1095 12.4226C30.2164 14.8944 36.2264 17.7056 42.1878 20.5167C43.6419 21.1952 45.0959 21.9222 46.5499 22.6008C50.6212 24.5879 54.644 26.7205 58.6183 28.95C60.6539 29.9678 62.6411 31.0826 64.6283 32.1973C67.1001 33.5544 69.475 35.0084 71.8014 36.5109Z" fill="#CC5832"/>
<path opacity="0.25" d="M31.9622 27.7383C24.4983 27.7383 24.4983 39.322 31.9622 39.322C39.4262 39.322 39.4262 27.7383 31.9622 27.7383Z" fill="black"/>
<path opacity="0.25" d="M46.3557 43.8296C46.0164 43.5388 45.6286 43.345 45.144 43.345C44.7078 43.345 44.2716 43.5388 43.9323 43.8296C43.6415 44.1204 43.3991 44.6051 43.4476 45.0413C43.4476 45.4775 43.593 45.9622 43.9323 46.253C44.2716 46.5438 44.6593 46.7377 45.144 46.7377C45.5802 46.7377 46.0164 46.5438 46.3557 46.253C46.6465 45.9622 46.8888 45.4775 46.8403 45.0413C46.8403 44.6051 46.6949 44.1689 46.3557 43.8296Z" fill="black"/>
<path opacity="0.25" d="M55.3716 47.9008C55.2747 47.61 55.1293 47.3676 54.9354 47.1253C54.8385 47.0284 54.6931 46.9314 54.5961 46.883C54.3538 46.7376 54.063 46.6406 53.7237 46.6406C53.4814 46.6406 53.2875 46.6891 53.0452 46.786C52.8513 46.8345 52.6574 46.9799 52.512 47.1253C52.3666 47.2707 52.2212 47.4646 52.1727 47.6584C52.0758 47.8523 52.0273 48.0946 52.0273 48.337C52.0273 48.4824 52.0758 48.6278 52.0758 48.7732C52.1727 49.064 52.3181 49.3063 52.512 49.5487C52.609 49.6456 52.7544 49.7425 52.8513 49.791C53.0936 49.9364 53.3844 50.0333 53.7237 50.0333C53.966 50.0333 54.1599 49.9849 54.4022 49.8879C54.5961 49.8395 54.79 49.6941 54.9354 49.5487C55.0808 49.4033 55.2262 49.2094 55.2747 49.0155C55.3716 48.8217 55.4201 48.5793 55.4201 48.337L55.3716 47.9008Z" fill="black"/>
<path d="M91.0433 52.0206C90.5586 52.6022 89.7347 52.8446 88.9592 52.9415C86.0512 53.2808 82.6585 52.0691 79.8473 51.2936C76.8424 50.4697 73.7404 49.4519 70.8324 48.3856C62.8837 45.4291 55.129 41.8425 47.4226 38.2074C45.9686 37.5289 44.5146 36.8019 43.0606 36.1233C38.9893 34.1362 34.9665 32.0036 30.9922 29.7741C26 27.2053 21.1533 24.4427 16.4519 21.3408C11.4113 17.948 6.70999 13.9252 2.05712 10.0479C1.33011 9.46624 0.457697 8.49689 0.118425 7.47908C-0.075445 6.80053 -0.075445 6.12199 0.457697 5.49191C0.942371 4.9103 1.76632 4.66797 2.5418 4.57103C5.44984 4.23176 8.84256 5.44345 11.6537 6.21892C14.6587 7.04287 17.7606 8.06069 20.6686 9.12697C28.6173 12.0835 36.3721 15.6701 44.0784 19.3051C45.5324 19.9837 46.9864 20.7107 48.4405 21.3892C52.5117 23.3764 56.5345 25.509 60.5088 27.7385C65.501 30.3072 70.3477 33.0699 75.0491 36.1718C79.2173 38.9344 83.1431 42.1333 86.9721 45.3806C87.796 46.0592 88.6199 46.7377 89.4439 47.4647C90.6071 48.4825 92.3035 50.4697 91.0433 52.0206Z" fill="#FFC34D"/>
<path opacity="0.5" d="M91.0431 52.0206C90.5584 52.6022 89.7344 52.8445 88.959 52.9414C86.0509 53.2807 82.6582 52.069 79.8471 51.2936C76.8421 50.4696 73.7402 49.4518 70.8322 48.3855C62.8835 45.429 55.1287 41.8424 47.4224 38.2074C45.9684 37.5288 44.5143 36.8018 43.0603 36.1233C38.989 34.1361 34.9662 32.0035 30.9919 29.774C25.9998 27.2052 21.153 24.4426 16.4517 21.3407C11.4111 17.948 6.70973 13.9252 2.05686 10.0478C1.32985 9.46617 0.457436 8.49682 0.118164 7.479C3.75322 10.8233 7.92142 13.9252 12.0412 16.6393C16.694 19.7413 21.5892 22.5524 26.5814 25.0727C30.5557 27.3022 34.5785 29.4347 38.6498 31.4219C40.1038 32.1489 41.5578 32.8275 43.0118 33.506C50.7182 37.1411 58.473 40.6792 66.4216 43.6842C69.3297 44.7505 72.3831 45.7683 75.4366 46.5922C78.2477 47.3192 81.6404 48.5309 84.5484 48.2401C85.3239 48.1432 86.1479 47.9493 86.6325 47.3192C87.1172 46.6892 87.1657 46.0106 86.9718 45.3805C87.7957 46.0591 88.6197 46.7376 89.4436 47.4646C90.6069 48.4824 92.3032 50.4696 91.0431 52.0206Z" fill="#D79B26"/>
<path d="M73.9823 27.9322C73.8854 29.0469 73.6915 30.2102 73.4492 31.3734C73.1099 33.0213 72.5768 34.6207 71.9467 36.0747C71.8982 36.2201 71.8013 36.3655 71.7528 36.5109C71.4135 37.2379 71.0743 37.9165 70.6865 38.595C70.4442 39.0312 70.1534 39.5159 69.8626 39.9521C69.5718 39.8552 69.281 39.7582 68.9902 39.6613C66.5668 38.8374 64.1434 37.9165 61.817 36.9471C57.6973 35.2992 53.6745 33.4575 49.6517 31.5672C48.44 30.9856 47.2768 30.4525 46.0651 29.8709C42.7208 28.223 39.3766 26.4782 36.1777 24.6364C32.1065 22.5523 28.1321 20.2259 24.3032 17.5602C23.6247 17.0755 22.9461 16.5908 22.2676 16.1061C22.3645 15.8153 22.5099 15.5245 22.6553 15.2337C23.0431 14.3613 23.4793 13.5374 24.0124 12.6649C24.0609 12.6165 24.0609 12.5195 24.1093 12.4711C24.2063 12.2772 24.3517 12.0833 24.4486 11.9379C25.9511 9.51456 27.6959 7.5274 29.6346 5.87951C39.3766 -2.40842 53.626 -1.39061 63.3195 5.54024C70.2503 10.387 74.8547 18.2872 73.9823 27.9322Z" fill="#FF8C66"/>
<path opacity="0.5" d="M73.9825 27.9321C73.8855 29.0469 73.6916 30.2101 73.4493 31.3733C73.0616 33.2151 72.48 34.9114 71.8014 36.5109C71.2683 37.7225 70.6382 38.8373 69.9597 39.9036C69.6689 39.8066 69.378 39.7097 69.0872 39.6128C66.6639 38.7888 64.2405 37.8679 61.9141 36.8986C62.0595 36.7532 62.1564 36.5593 62.3018 36.4139C63.2712 35.1053 64.0951 33.6513 64.7252 32.1973C68.2148 24.2001 67.0031 14.0704 63.4166 5.4917C70.2505 10.3869 74.8549 18.2871 73.9825 27.9321Z" fill="#E5724C"/>
<path opacity="0.25" d="M48.9741 14.216C48.7802 13.4405 48.344 12.7619 47.8108 12.1803C47.52 11.938 47.1808 11.6957 46.89 11.4533C46.163 11.0171 45.3875 10.8232 44.5635 10.8232C43.9335 10.8232 43.3518 10.9202 42.8187 11.211C42.2371 11.4049 41.7524 11.6957 41.3647 12.1319C40.9285 12.5681 40.5892 13.0527 40.4438 13.5859C40.153 14.119 40.0076 14.7006 40.0561 15.3307C40.1045 15.7185 40.153 16.1547 40.2015 16.5424C40.3953 17.3179 40.8315 17.9964 41.3647 18.578C41.6555 18.8204 41.9948 19.0627 42.2856 19.305C43.0126 19.7412 43.7881 19.9351 44.612 19.9351C45.2421 19.9351 45.8237 19.8382 46.3568 19.5474C46.9384 19.3535 47.4231 19.0627 47.8108 18.6265C48.2471 18.1903 48.5863 17.7056 48.7317 17.1725C49.0225 16.6393 49.1679 16.0577 49.1195 15.4276C49.1195 15.0399 49.0225 14.6522 48.9741 14.216Z" fill="black"/>
<path opacity="0.25" d="M57.649 15.5244C56.0011 15.5244 56.0011 18.0932 57.649 18.0932C59.3454 18.0932 59.3454 15.5244 57.649 15.5244Z" fill="black"/>
<path opacity="0.25" d="M59.9758 27.7867C59.8788 27.399 59.6365 27.0112 59.3457 26.7204C59.2003 26.575 59.0064 26.4781 58.861 26.3327C58.4733 26.1388 58.0855 25.9934 57.6493 25.9934C57.31 25.9934 57.0192 26.0419 56.7284 26.1873C56.4376 26.2842 56.1953 26.4296 55.953 26.672C55.7106 26.8658 55.5652 27.1566 55.4683 27.4474C55.3229 27.7382 55.2744 28.029 55.2744 28.3683L55.3713 28.9984C55.4683 29.3861 55.7106 29.7739 56.0014 30.0647C56.1468 30.2101 56.3407 30.307 56.4861 30.4524C56.8738 30.6463 57.2616 30.7917 57.6978 30.7917C58.0371 30.7917 58.3279 30.7432 58.6187 30.5978C58.9095 30.5009 59.1518 30.3555 59.3941 30.1131C59.6365 29.9193 59.7819 29.6285 59.8788 29.3377C60.0242 29.0469 60.0727 28.7561 60.0727 28.4168C60.0242 28.2229 59.9758 28.029 59.9758 27.7867Z" fill="black"/>
<path opacity="0.25" d="M71.5108 20.0805C71.3169 19.305 70.8807 18.6264 70.3476 18.0448C70.0568 17.8025 69.7175 17.5602 69.4267 17.3178C68.6997 16.8816 67.9242 16.6877 67.1003 16.6877C66.4702 16.6877 65.8886 16.7847 65.3555 17.0755C64.7738 17.2694 64.2892 17.5602 63.9014 18.0448C63.4652 18.481 63.126 18.9657 62.9321 19.4989C62.6413 20.032 62.4959 20.6136 62.5443 21.2437C62.5928 21.6314 62.6413 22.0676 62.6897 22.4554C62.8836 23.2308 63.3198 23.9094 63.853 24.491C64.1438 24.7333 64.483 24.9757 64.7738 25.218C65.5009 25.6542 66.2763 25.8481 67.1003 25.8481C67.7304 25.8481 68.312 25.7512 68.8451 25.4604C69.4267 25.2665 69.9114 24.9757 70.2991 24.491C70.7353 24.0548 71.0746 23.5701 71.2685 23.037C71.5593 22.5038 71.7047 21.9222 71.6562 21.2922C71.6562 20.8559 71.5593 20.4682 71.5108 20.0805Z" fill="black"/>
<path opacity="0.25" d="M35.3546 14.3129C35.1607 13.5374 34.7245 12.8589 34.1913 12.2773C33.9005 12.0349 33.5613 11.7926 33.2705 11.5502C32.5435 11.114 31.768 10.9202 30.944 10.9202C30.314 10.9202 29.7323 11.0171 29.1992 11.3079C28.6176 11.5018 28.1329 11.7926 27.7452 12.2773C27.309 12.7135 26.9697 13.1981 26.7758 13.7313C26.485 14.2644 26.3396 14.846 26.3881 15.4761C26.4366 15.8638 26.485 16.3 26.5335 16.6878C26.7274 17.4633 27.1636 18.1418 27.6967 18.7234C27.9875 18.9658 28.3268 19.2081 28.6176 19.4504C29.3446 19.8866 30.1201 20.0805 30.944 20.0805C31.5741 20.0805 32.1557 19.9836 32.6889 19.6928C33.2705 19.4989 33.7551 19.2081 34.1429 18.7234C34.5791 18.2872 34.9184 17.8025 35.1122 17.2694C35.403 16.7363 35.5484 16.1546 35.5 15.5246C35.5 15.0884 35.403 14.7006 35.3546 14.3129Z" fill="black"/>
<path opacity="0.25" d="M46.4051 24.3455C44.2725 24.3455 44.2725 27.6897 46.4051 27.6897C48.5861 27.6897 48.5861 24.3455 46.4051 24.3455Z" fill="black"/>
<path d="M54.6438 4.71651C54.353 4.47417 54.0622 4.2803 53.7714 4.1349C50.0878 0.887579 40.7821 2.0508 36.6139 3.98949C30.1677 6.99447 31.8641 13.586 38.5526 15.4278C44.0294 16.9303 52.802 15.6701 55.7101 11.3565C57.1641 9.17551 56.8248 6.46133 54.6438 4.71651Z" fill="white"/>
</svg>
