<svg width="87" height="68" viewBox="0 0 87 68" fill="none" xmlns="http://www.w3.org/2000/svg">
<path d="M74.3852 58.4681C75.2978 57.8597 75.4803 56.4604 74.9936 55.5478C74.2635 54.0268 72.4383 52.9925 70.9781 52.1407C70.6739 51.9582 70.3697 51.7757 70.0655 51.5931C68.727 50.7414 67.4494 49.9504 66.1109 49.1595C65.5025 48.7336 64.8941 48.3686 64.2856 48.0035C60.8177 45.8741 57.5323 43.8664 54.4903 42.0412C53.8819 41.6761 53.2735 41.3111 52.6651 40.946C51.8133 40.4593 50.9615 39.9117 50.1098 39.425C49.8664 39.3033 49.6231 39.1208 49.3797 38.9991C45.9118 36.9914 42.7481 35.1053 39.8277 33.4018C36.664 31.5157 33.6828 29.8122 31.0058 28.2303C30.3974 27.8653 29.8499 27.5611 29.3023 27.1961C28.8156 26.8919 28.268 26.5877 27.7813 26.2834C27.4162 26.7093 27.0512 27.1961 26.747 27.6828C26.6253 27.8653 26.5036 28.1087 26.3819 28.352C26.3211 28.4129 26.3211 28.4737 26.2603 28.5346C26.1994 28.6562 26.1386 28.7779 26.0777 28.9604C26.0169 29.0821 26.0169 29.143 25.9561 29.2646V29.3255C26.9903 29.9339 28.0855 30.6031 29.1806 31.3332L29.2414 31.3941C32.3443 33.4018 35.7514 35.5921 39.5235 38.0865C41.8355 39.6075 44.3299 41.1894 46.9461 42.9538C47.2503 43.1363 47.5545 43.3188 47.7978 43.5013C48.5279 43.9881 49.3189 44.4748 50.1098 45.0224C51.57 45.935 53.0301 46.9084 54.5511 47.8819C57.289 49.6462 60.1485 51.4715 63.2514 53.3575C63.6772 53.6009 64.1031 53.9051 64.529 54.1485C65.1983 54.5743 66.4759 55.5478 67.9361 56.5212C70.248 57.9814 72.925 59.3807 74.3852 58.4681Z" fill="#FF8C66"/>
<path opacity="0.5" d="M47.8594 43.4405C48.1027 43.1363 48.2852 42.8321 48.4678 42.5278C48.9545 41.8586 49.3804 41.1285 49.7454 40.3376C49.7454 40.2767 49.8063 40.2159 49.8063 40.2159C49.8671 40.0942 49.9279 39.9725 49.9888 39.8509L50.1105 39.6075C50.1105 39.5467 50.1713 39.5467 50.1713 39.4858C49.9279 39.3641 49.6846 39.1816 49.4412 39.0599C45.9733 37.0522 42.8096 35.1661 39.8892 33.4626C36.7255 31.5765 33.7443 29.873 31.0673 28.2911C30.4589 27.9261 29.9114 27.6219 29.3638 27.2568C28.8771 26.9526 28.3295 26.6484 27.8428 26.3442C27.4778 26.7701 27.1127 27.2568 26.8085 27.7436C26.6868 27.9261 26.5651 28.1695 26.4435 28.4128C26.3826 28.4737 26.3826 28.5345 26.3218 28.5953C26.2609 28.717 26.2001 28.8387 26.1393 29.0212C26.0784 29.1429 26.0784 29.2037 26.0176 29.3254V29.3863C27.0519 29.9947 28.147 30.6639 29.2421 31.394L29.303 31.4549C32.4058 33.4626 35.8129 35.6529 39.585 38.1473C41.897 39.6683 44.3914 41.2502 47.0076 43.0146C47.3118 43.0754 47.616 43.2579 47.8594 43.4405Z" fill="black"/>
<path d="M14.5789 50.6197C14.8831 50.8022 15.2481 50.9239 15.6132 51.1064C22.0014 53.8442 28.9981 53.6617 35.143 50.9847C35.5081 50.8022 35.9339 50.6197 36.299 50.4371C36.664 50.2546 36.9682 50.0721 37.3333 49.8896C38.0025 49.5245 38.7326 49.0986 39.341 48.6728C40.8012 47.6993 42.2005 46.5433 43.4782 45.2048C44.1474 44.5356 44.8167 43.8055 45.4251 43.0146C45.7901 42.5279 46.1552 42.0411 46.5202 41.4936C47.1894 40.5201 47.7979 39.425 48.3454 38.3299C48.4063 38.269 48.4063 38.2082 48.4671 38.1473C48.5279 37.9648 48.6496 37.7823 48.7105 37.5998L48.893 37.2347C49.0755 36.748 49.258 36.3221 49.4406 35.8354C49.8664 34.6794 50.2315 33.5235 50.5357 32.3066C50.6574 31.6982 50.8399 31.0898 50.9007 30.4206C51.1441 29.0212 51.3266 27.6219 51.3875 26.1617C51.4483 24.7016 51.3875 23.2414 51.2049 21.8421C51.1441 21.4162 51.0833 21.0511 51.0224 20.6861C50.5357 17.8266 49.5622 15.0279 48.1021 12.5334C47.6762 11.8642 47.2503 11.1949 46.7636 10.5257C44.6341 7.66619 41.7138 5.17172 37.8808 3.22482C37.5766 3.0423 37.2724 2.92062 36.9074 2.7381C36.3598 2.49474 35.8123 2.25137 35.2647 2.00801C28.6939 -0.790657 22.3056 -0.486454 16.83 1.82549C16.4649 1.94717 16.1607 2.12969 15.7957 2.31221C13.7879 3.28566 11.9019 4.44164 10.1983 5.90181C9.28574 6.6319 8.43397 7.42283 7.64304 8.33544C7.278 8.76132 6.85212 9.18721 6.54791 9.61309C5.69614 10.6474 4.90522 11.8034 4.17513 12.9593C3.87093 13.446 3.56672 13.9328 3.32336 14.4803C3.26252 14.6629 3.14084 14.7845 3.08 14.9671C2.89748 15.2713 2.77579 15.5755 2.65411 15.9405C2.53243 16.1839 2.47159 16.4272 2.34991 16.6706C2.34991 16.7314 2.28907 16.7923 2.28907 16.8531C2.16739 17.0965 2.10655 17.279 1.98487 17.5224C1.31562 19.2259 0.828894 20.9903 0.46385 22.7547C0.342169 23.4239 0.220488 24.0932 0.159647 24.7624C-0.205397 28.1086 0.0379658 31.5766 1.07226 34.9836C1.1331 35.227 1.19394 35.5312 1.31562 35.8962C1.80234 37.3564 2.47159 38.8166 3.32336 40.2159C4.47933 42.2237 6.00035 44.1706 7.88641 45.9958C9.95499 47.9427 12.2061 49.5245 14.5789 50.6197Z" fill="#45B0E6"/>
<path d="M17.3775 44.5357C17.6209 44.6573 17.8643 44.779 18.1685 44.9007C22.914 46.9693 28.2072 46.7868 32.7702 44.8399C33.0744 44.7182 33.3786 44.5965 33.622 44.414C33.8654 44.2923 34.1696 44.1706 34.4129 43.9881C34.9605 43.6839 35.4472 43.3797 35.9339 43.0755C37.6375 41.9195 39.1585 40.5202 40.4361 38.8775C40.7403 38.5124 40.9837 38.1474 41.2271 37.7824C41.7138 37.0523 42.2005 36.2613 42.6264 35.4096C42.6872 35.3487 42.6872 35.2879 42.6872 35.227C42.7481 35.1054 42.8089 34.9228 42.8698 34.8012L42.9914 34.497C43.3565 33.6452 43.7215 32.7326 43.9649 31.82C44.0866 31.4549 44.1474 31.1507 44.2083 30.7857C44.3299 30.299 44.4516 29.8731 44.5125 29.3863C44.8775 27.2569 44.9992 25.0667 44.695 22.9981C44.6341 22.6939 44.6341 22.3897 44.5733 22.1463C44.2083 20.0169 43.4782 17.9483 42.383 16.0623C40.7403 13.3244 38.2459 10.8908 34.778 9.06558C34.5346 8.9439 34.2912 8.82222 34.0479 8.70054C33.622 8.51801 33.2569 8.33549 32.8311 8.15297C27.8421 6.14523 23.0966 6.38859 19.0202 8.09213C18.7769 8.21381 18.4727 8.33549 18.2293 8.45717C16.7083 9.18726 15.309 10.0999 14.0313 11.1342C13.3621 11.6817 12.7537 12.2901 12.1453 12.9594C11.1718 13.9937 10.2592 15.1496 9.5291 16.4273C9.28574 16.7923 9.10322 17.1574 8.85986 17.5833C8.79902 17.7049 8.73818 17.8266 8.67733 17.8875C8.55565 18.1308 8.43397 18.3742 8.31229 18.6176C8.25145 18.8001 8.19061 18.9826 8.06893 19.1651C7.94725 19.3476 7.88641 19.591 7.76473 19.8344C7.278 21.112 6.85212 22.3897 6.60875 23.7282C6.54791 24.2149 6.42623 24.7016 6.36539 25.1883C6.06119 27.7437 6.30455 30.299 7.03464 32.7934C7.09548 32.9759 7.15632 33.0976 7.15632 33.2801C7.21716 33.4018 7.21716 33.4627 7.278 33.5844C8.19061 36.2613 9.83331 38.8166 12.2061 41.1286C13.9705 42.5279 15.6132 43.6839 17.3775 44.5357Z" fill="#99DDFF"/>
<path opacity="0.5" d="M14.5797 50.6198C14.8839 50.8023 15.249 50.924 15.614 51.1065C22.0023 53.8444 28.999 53.6618 35.1439 50.9848C35.5089 50.8023 35.9348 50.6198 36.2998 50.4373C36.6649 50.2548 36.9691 50.0722 37.3341 49.8897C38.0034 49.5247 38.7335 49.0988 39.3419 48.6729C40.802 47.6994 42.2014 46.5435 43.479 45.205C44.1483 44.5357 44.8175 43.8056 45.4259 43.0147C45.791 42.528 46.156 42.0413 46.5211 41.4937C47.1903 40.5203 47.7987 39.4251 48.3463 38.33C48.4071 38.2692 48.4071 38.2083 48.468 38.1475C48.5288 37.9649 48.6505 37.7824 48.7113 37.5999L48.8938 37.2349C49.0764 36.7481 49.2589 36.3223 49.4414 35.8355C49.8673 34.6796 50.2323 33.5236 50.5365 32.3068C50.6582 31.6984 50.8407 31.09 50.9016 30.4207C51.1449 29.0214 51.3275 27.622 51.3883 26.1619C51.0233 27.1962 50.6582 28.2304 50.2932 29.2647C47.1295 37.4174 41.8972 44.049 33.5012 47.3952C25.4094 50.6198 16.2833 49.7072 8.86072 44.9616C6.73129 43.6231 4.96692 41.9804 3.32422 40.2161C4.48019 42.2238 6.00121 44.1707 7.88727 45.9959C9.95585 47.9428 12.2069 49.5247 14.5797 50.6198Z" fill="black"/>
<path opacity="0.5" d="M18.4115 43.1972C18.6549 43.3189 18.8374 43.3797 19.0808 43.5014C23.2179 45.2658 27.7202 45.1441 31.7356 43.4406C31.979 43.3189 32.2224 43.1972 32.4657 43.0755C32.7091 42.9538 32.8916 42.8322 33.135 42.7105C33.5609 42.4671 34.0476 42.2238 34.4735 41.9196C35.9336 40.9461 37.2721 39.7293 38.3673 38.2691C38.6106 37.9649 38.854 37.5999 39.0365 37.2957C39.4624 36.6264 39.8883 35.9572 40.2533 35.2271C40.2533 35.1662 40.3142 35.1662 40.3142 35.1054C40.375 34.9837 40.4358 34.862 40.4967 34.7404L40.6184 34.497C40.9226 33.7669 41.2268 32.976 41.4701 32.1851C38.1239 35.653 34.2909 38.3908 29.1195 39.3642C22.8529 40.4594 17.2556 38.3908 12.0233 35.0446C11.2932 34.5578 10.5631 34.0103 9.83301 33.4627C9.89385 33.5236 9.89385 33.6452 9.95469 33.7061C10.7456 36.018 12.145 38.2691 14.2135 40.216C15.4303 41.4328 16.8905 42.4671 18.4115 43.1972Z" fill="black"/>
<path d="M14.2141 13.3852C14.5183 12.9594 14.8834 12.5943 15.2484 12.2293C18.7772 9.18724 28.4508 6.38857 30.8236 13.1419C31.3103 14.4804 31.1278 16.0014 30.5803 17.3399C28.9376 21.2945 25.2263 23.8498 21.3325 24.3366C18.1079 24.7016 14.3358 23.6065 13.119 19.7735C12.3889 17.5224 12.9365 15.0888 14.2141 13.3852Z" fill="white"/>
<path d="M67.0239 62.5444C68.3624 63.3961 69.7617 64.2479 71.2219 64.978C74.9332 66.9249 79.3745 69.6627 83.2075 66.6815C83.8767 66.134 84.4852 65.5256 84.911 64.7346C87.7705 60.0499 85.0936 55.5477 81.0172 52.6273H80.9564C76.6367 49.5853 71.8911 46.8475 67.0847 44.6572C64.7728 43.5621 61.9741 41.6152 59.5405 43.1362C57.4719 44.4139 56.5593 47.1517 55.3425 49.0986C53.2739 52.384 56.8635 54.9393 59.1755 56.8253C59.5405 57.1295 59.9055 57.4337 60.2706 57.6771C62.4608 59.4415 64.6511 61.0233 67.0239 62.5444Z" fill="#45B0E6"/>
<path opacity="0.5" d="M67.0238 62.5445C68.3623 63.3962 69.7616 64.248 71.2218 64.9781C74.9331 66.925 79.3745 69.6628 83.2074 66.6816C83.8767 66.1341 84.4851 65.5257 84.911 64.7347C87.7705 60.05 85.0935 55.5478 81.0172 52.6274C81.6256 54.0876 81.8081 55.7303 81.3822 57.2513C80.5304 60.3542 77.6101 62.4836 74.5072 62.6661C69.7616 62.9095 64.5294 60.2325 60.2705 57.6164C62.4608 59.4416 64.651 61.0234 67.0238 62.5445Z" fill="black"/>
<path d="M60.5743 48.4902C59.9051 48.0035 59.3575 47.3951 59.2358 46.665C58.9316 45.2656 59.7225 44.2314 61.061 43.8663C62.4604 43.5013 63.9206 44.2922 65.0765 45.0831C65.6849 45.509 66.2325 45.9957 66.5367 46.665C67.2059 48.2468 66.2325 49.342 64.6506 49.4637C63.4947 49.6462 61.7911 49.2811 60.5743 48.4902Z" fill="white"/>
</svg>
