<svg id="Component_103_1" data-name="Component 103 – 1" xmlns="http://www.w3.org/2000/svg" xmlns:xlink="http://www.w3.org/1999/xlink" width="341" height="165" viewBox="0 0 341 165">
  <defs>
    <clipPath id="clip-path">
      <rect id="Rectangle_1609" data-name="Rectangle 1609" width="341" height="165" rx="16" transform="translate(744 1040)" fill="#cb8500"/>
    </clipPath>
  </defs>
  <g id="Group_1814" data-name="Group 1814" transform="translate(-744 -1040)" clip-path="url(#clip-path)">
    <g id="Rectangle_1608" data-name="Rectangle 1608" transform="translate(732 1019)" fill="#cb8500" stroke="#707070" stroke-width="1">
      <rect width="361" height="191" stroke="none"/>
      <rect x="0.5" y="0.5" width="360" height="190" fill="none"/>
    </g>
    <ellipse id="Ellipse_241" data-name="Ellipse 241" cx="181" cy="174.5" rx="181" ry="174.5" transform="translate(590 932)" fill="#b27500" opacity="0.36"/>
  </g>
  <text id="Geography" transform="translate(211 140)" fill="#fff" font-size="19" font-family="WorkSans-Bold, Work Sans" font-weight="700" letter-spacing="-0.009em"><tspan x="0" y="0">Geography</tspan></text>
  <g id="map" transform="translate(37 21.208)">
    <path id="Path_4564" data-name="Path 4564" d="M64.483,185.634a1.017,1.017,0,0,0,.832-1.6c-.944-1.346-1.487-2.2-1.492-2.208a1.017,1.017,0,0,0-1.716,1.091c.023.036.571.9,1.544,2.285A1.016,1.016,0,0,0,64.483,185.634Z" transform="translate(-54.272 -153.81)" fill="#fff"/>
    <path id="Path_4565" data-name="Path 4565" d="M163.477,305.326a1.017,1.017,0,1,0,1.216-1.63,44.309,44.309,0,0,1-4.042-3.445,1.017,1.017,0,1,0-1.4,1.472A46.26,46.26,0,0,0,163.477,305.326Z" transform="translate(-139.241 -257.729)" fill="#fff"/>
    <path id="Path_4566" data-name="Path 4566" d="M314.506,325.513a1.012,1.012,0,0,0,.545-.159,14.308,14.308,0,0,0,4.075-4.138,1.017,1.017,0,0,0-1.685-1.138,12.3,12.3,0,0,1-3.482,3.561,1.017,1.017,0,0,0,.547,1.875Z" transform="translate(-274.648 -274.954)" fill="#fff"/>
    <path id="Path_4567" data-name="Path 4567" d="M63.043,10.934a1.016,1.016,0,0,0-.874-.183l-6.188,1.567a9.534,9.534,0,0,0-1.04-2.257,9.393,9.393,0,0,0-15.744,0,9.54,9.54,0,0,0-1.04,2.257l-6.188-1.567-.021,0-.057-.011-.057-.009-.057,0-.057,0-.057,0-.057,0-.056.009-.058.011-.02,0-15.1,3.823-7.485-1.9a1.017,1.017,0,0,0-.5,1.971l6.967,1.764v19.5q-.552-.675-1.1-1.372a1.017,1.017,0,0,0-1.6,1.257c.894,1.136,1.8,2.234,2.7,3.276v26.4L2.034,62.1V13.043l2.283.578a1.017,1.017,0,1,0,.5-1.971l-3.549-.9A1.017,1.017,0,0,0,0,11.737V62.889a1.017,1.017,0,0,0,.767.986l15.35,3.887c.018,0,.037.007.056.01l.044.008a1.02,1.02,0,0,0,.15.012,1,1,0,0,0,.15-.012l.044-.008c.018,0,.037-.006.055-.01l15.1-3.824,5.726,1.45a1.017,1.017,0,0,0,.5-1.971L32.734,62.1V51.753a11.933,11.933,0,0,0,1.935.222h.03a1.017,1.017,0,0,0,.03-2.033,10.211,10.211,0,0,1-2-.268V13.043l5.025,1.272a9.411,9.411,0,0,0,.664,4.378q.056.137.116.272l7.513,16.979v2.22c-.273.816-.561,1.6-.858,2.331a1.016,1.016,0,0,0,.858,1.4V65.469L42.01,64.446a1.017,1.017,0,1,0-.5,1.971l5.308,1.344c.018,0,.037.007.055.01l.044.008a1.018,1.018,0,0,0,.15.012,1,1,0,0,0,.15-.012l.045-.008c.018,0,.037-.006.055-.01l15.35-3.887a1.017,1.017,0,0,0,.767-.986V30.1a1.017,1.017,0,0,0-2.033,0v32L48.085,65.469V35.945L55.6,18.966a9.423,9.423,0,0,0,.779-4.65L61.4,13.043V24.32a1.017,1.017,0,0,0,2.033,0V11.737A1.016,1.016,0,0,0,63.043,10.934ZM30.7,49.027c-.264-.106-.529-.22-.8-.344a1.017,1.017,0,1,0-.853,1.846q.835.386,1.65.669V62.1L17.384,65.47V40.254a1.016,1.016,0,0,0,.312-1.59l-.312-.354v-21.9L30.7,13.043V49.027h0ZM53.92,17.69l-.021.056c-1.31,3.475-3.014,6.845-4.516,10.24l-2.315,5.231-1.854-4.19c-1.66-3.751-3.453-7.472-4.977-11.28l-.021-.057a7.449,7.449,0,0,1,.7-6.544,7.329,7.329,0,0,1,12.3,0A7.448,7.448,0,0,1,53.92,17.69Z" transform="translate(0 0)" fill="#fff"/>
    <path id="Path_4568" data-name="Path 4568" d="M351.781,45.56s0,0,0-.007a4.629,4.629,0,0,0-9.256,0s0,0,0,.006v.018c0,.028,0,.057,0,.085a4.631,4.631,0,0,0,9.262,0c0-.028,0-.056,0-.083Zm-5.646,2.49a2.616,2.616,0,0,1-1.218-1.073l1.218.308Zm3.2-.985a2.635,2.635,0,0,1-1.164.985v-.764l1.218-.308Q349.361,47.022,349.333,47.065Zm-2.181-1.62-2.457-.622a2.594,2.594,0,0,1,4.914,0Z" transform="translate(-300.084 -30.871)" fill="#fff"/>
  </g>
</svg>
