<svg xmlns="http://www.w3.org/2000/svg" xmlns:xlink="http://www.w3.org/1999/xlink" viewBox="0 0 356.87 187.26"><defs><style>.cls-1{fill:url(#linear-gradient);}.cls-2{isolation:isolate;}.cls-3{clip-path:url(#clip-path);}.cls-4{opacity:0.3;}.cls-32,.cls-37,.cls-4,.cls-58,.cls-61,.cls-7,.cls-74,.cls-8{mix-blend-mode:multiply;}.cls-5{fill:url(#linear-gradient-4);}.cls-6{fill:#fff;}.cls-42,.cls-58,.cls-62,.cls-7,.cls-8{fill:#725e4a;}.cls-42,.cls-7{opacity:0.8;}.cls-11,.cls-32,.cls-61,.cls-66,.cls-8{opacity:0.6;}.cls-9{fill:#ffeee4;}.cls-10{fill:url(#linear-gradient-5);}.cls-11,.cls-13,.cls-22,.cls-31,.cls-49,.cls-59,.cls-71,.cls-83{mix-blend-mode:overlay;}.cls-12{fill:#ecffa5;}.cls-13{fill:url(#linear-gradient-6);}.cls-14{fill:#ba8f24;}.cls-15{fill:#ebbf3c;}.cls-16{fill:url(#linear-gradient-7);}.cls-17,.cls-18{fill:#4c332b;}.cls-17{opacity:0.2;}.cls-18,.cls-22,.cls-31{opacity:0.4;}.cls-19{fill:url(#linear-gradient-8);}.cls-20{fill:url(#linear-gradient-9);}.cls-21{fill:url(#linear-gradient-10);}.cls-22,.cls-50,.cls-59{fill:#f2ffc4;}.cls-23{fill:url(#linear-gradient-11);}.cls-24{fill:url(#linear-gradient-12);}.cls-25{fill:url(#linear-gradient-13);}.cls-26{fill:url(#linear-gradient-14);}.cls-27{fill:url(#linear-gradient-15);}.cls-28{fill:url(#linear-gradient-16);}.cls-29{fill:#b7ce55;}.cls-30,.cls-49,.cls-71,.cls-75,.cls-83{opacity:0.7;}.cls-31{fill:#ffe7b3;}.cls-32{fill:url(#linear-gradient-17);}.cls-33{fill:url(#linear-gradient-18);}.cls-34{fill:#f9e9c5;}.cls-35{fill:url(#linear-gradient-19);}.cls-36{fill:url(#linear-gradient-20);}.cls-37{opacity:0.5;fill:url(#linear-gradient-21);}.cls-38{fill:none;}.cls-39{fill:url(#linear-gradient-22);}.cls-40{fill:#dbc6ce;}.cls-41{fill:#a38791;}.cls-43{fill:url(#radial-gradient);}.cls-44{fill:#e2d3d9;}.cls-45{fill:#9b8587;}.cls-46{fill:#674f43;}.cls-47{fill:#ff6224;}.cls-48{fill:#27b2ff;}.cls-51{fill:#e5dce0;}.cls-52{fill:#f25136;}.cls-53{fill:#bc3f35;}.cls-54{fill:#a5231c;}.cls-55{fill:#efc462;}.cls-56{fill:#4f3d18;}.cls-57{fill:#82632e;}.cls-58,.cls-59{opacity:0.3;}.cls-60{fill:#a06faa;}.cls-63{fill:url(#linear-gradient-23);}.cls-64{fill:#c6a5ce;}.cls-65{fill:#ffec9c;}.cls-67{fill:#fffae3;}.cls-68{fill:#e56829;}.cls-69{fill:#684622;}.cls-70{fill:url(#linear-gradient-24);}.cls-71,.cls-84{fill:#ffe28f;}.cls-72{fill:url(#linear-gradient-25);}.cls-73{fill:url(#linear-gradient-26);}.cls-75{fill:#a86916;}.cls-76{fill:#f2dfec;}.cls-77{fill:#bca6b6;}.cls-78{fill:#dfcdd9;}.cls-79{fill:#e0fcfb;}.cls-80{fill:#fffaf8;}.cls-81{fill:#a597a2;}.cls-82{fill:#b47123;}.cls-83{fill:#e8b525;}.cls-85{fill:#8c7064;}.cls-86{fill:#cdea86;}.cls-87{fill:#99e1ff;}.cls-88{fill:#4b4c48;}.cls-89{fill:#f4e4ef;}.cls-90{fill:#515a6d;}</style><linearGradient id="linear-gradient" x1="63.87" y1="104.01" x2="356.87" y2="104.01" gradientUnits="userSpaceOnUse"><stop offset="0.01" stop-color="#b943d6"/><stop offset="1" stop-color="#4b007c"/></linearGradient><clipPath id="clip-path"><rect class="cls-1" x="63.87" y="42.51" width="293" height="123" rx="11.19"/></clipPath><linearGradient id="linear-gradient-4" x1="0" y1="93.63" x2="202.41" y2="93.63" xlink:href="#linear-gradient"/><linearGradient id="linear-gradient-5" x1="100.35" y1="123.01" x2="166.99" y2="123.01" gradientUnits="userSpaceOnUse"><stop offset="0" stop-color="#ce5b38"/><stop offset="1" stop-color="#db8346"/></linearGradient><linearGradient id="linear-gradient-6" x1="81.7" y1="99.24" x2="135.91" y2="69.79" gradientUnits="userSpaceOnUse"><stop offset="0" stop-color="#60ced1"/><stop offset="1" stop-color="#6edde0"/></linearGradient><linearGradient id="linear-gradient-7" x1="82.38" y1="98.87" x2="135.57" y2="69.97" gradientUnits="userSpaceOnUse"><stop offset="0.37" stop-color="#278f91"/><stop offset="0.48" stop-color="#2b9496"/><stop offset="1" stop-color="#6edde0"/></linearGradient><linearGradient id="linear-gradient-8" x1="91.05" y1="118.11" x2="112.4" y2="118.11" gradientUnits="userSpaceOnUse"><stop offset="0" stop-color="#cc9c23"/><stop offset="0.81" stop-color="#ebbf3c"/></linearGradient><linearGradient id="linear-gradient-9" x1="97.26" y1="118.11" x2="118.61" y2="118.11" xlink:href="#linear-gradient-8"/><linearGradient id="linear-gradient-10" x1="86.04" y1="117.73" x2="105.38" y2="117.73" xlink:href="#linear-gradient-8"/><linearGradient id="linear-gradient-11" x1="135.59" y1="121.94" x2="179.16" y2="98.27" gradientTransform="matrix(0.93, 0, 0, 0.94, -42.3, -17.25)" gradientUnits="userSpaceOnUse"><stop offset="0" stop-color="#278f91"/><stop offset="1" stop-color="#6edde0"/></linearGradient><linearGradient id="linear-gradient-12" x1="113.13" y1="80.32" x2="85.8" y2="120.65" xlink:href="#linear-gradient-7"/><linearGradient id="linear-gradient-13" x1="99.06" y1="70.78" x2="71.73" y2="111.11" xlink:href="#linear-gradient-7"/><linearGradient id="linear-gradient-14" x1="94.69" y1="67.82" x2="67.36" y2="108.15" xlink:href="#linear-gradient-7"/><linearGradient id="linear-gradient-15" x1="102.63" y1="73.21" x2="75.3" y2="113.53" xlink:href="#linear-gradient-7"/><linearGradient id="linear-gradient-16" x1="112.28" y1="79.75" x2="84.95" y2="120.07" xlink:href="#linear-gradient-7"/><linearGradient id="linear-gradient-17" x1="-137.63" y1="568.26" x2="-129.74" y2="563.97" gradientTransform="matrix(0.9, -0.45, 0.36, 0.72, 10.8, -374.06)" xlink:href="#linear-gradient-7"/><linearGradient id="linear-gradient-18" x1="90.52" y1="92" x2="95.44" y2="92" xlink:href="#linear-gradient-8"/><linearGradient id="linear-gradient-19" x1="226.02" y1="83.22" x2="230.94" y2="83.22" gradientTransform="matrix(0.84, 0.04, 0.04, 0.9, -103.06, 7.06)" xlink:href="#linear-gradient-8"/><linearGradient id="linear-gradient-20" x1="90.24" y1="105.85" x2="103.89" y2="105.85" xlink:href="#linear-gradient-8"/><linearGradient id="linear-gradient-21" x1="91.01" y1="105.92" x2="109.24" y2="105.92" xlink:href="#linear-gradient-8"/><linearGradient id="linear-gradient-22" x1="124.92" y1="-310.9" x2="150.53" y2="-310.9" gradientTransform="matrix(0.9, 0.5, -0.48, 0.88, -173.73, 307.22)" xlink:href="#linear-gradient-8"/><radialGradient id="radial-gradient" cx="92.65" cy="129.34" r="13.35" gradientUnits="userSpaceOnUse"><stop offset="0" stop-color="#a0828d"/><stop offset="1" stop-color="#bcaab0"/></radialGradient><linearGradient id="linear-gradient-23" x1="148.7" y1="103.71" x2="126.33" y2="107.78" gradientUnits="userSpaceOnUse"><stop offset="0.01" stop-color="#c6a5ce"/><stop offset="1" stop-color="#d49ae2"/></linearGradient><linearGradient id="linear-gradient-24" x1="765.92" y1="356.43" x2="785.13" y2="356.43" gradientTransform="matrix(0.54, 0.02, -0.02, 0.52, -247.16, -93.34)" gradientUnits="userSpaceOnUse"><stop offset="0" stop-color="#ffb82a"/><stop offset="1" stop-color="#ffd815"/></linearGradient><linearGradient id="linear-gradient-25" x1="479.93" y1="233.2" x2="501.55" y2="233.2" gradientTransform="matrix(0.69, 0.02, -0.02, 0.67, -167.31, -58.57)" xlink:href="#linear-gradient-24"/><linearGradient id="linear-gradient-26" x1="162.12" y1="112.91" x2="180.22" y2="112.91" gradientTransform="matrix(1, 0, 0, 1, 0, 0)" xlink:href="#linear-gradient-24"/></defs><title>Asset 21</title><g class="cls-2"><g id="Layer_2" data-name="Layer 2"><g id="Layer_1-2" data-name="Layer 1"><rect class="cls-1" x="63.87" y="42.51" width="293" height="123" rx="11.19"/><g class="cls-3"><rect class="cls-1" x="63.87" y="42.51" width="293" height="123" rx="11.19"/><g class="cls-4"><path class="cls-5" d="M68.53,2.8C50.1,7,28.18,20.26,17.1,35.57,7.37,49,1.13,63.44.28,80c-1.37,26.56,1.82,55.58,20.06,74.93a103.78,103.78,0,0,0,47.45,28.36c13.12,3.44,53.24,6.87,72.13,0,14.06-5.11,27.76-11.67,38.06-22.52,6.06-6.38,11.74-13.23,15.92-21C201,126.53,203.45,111,202,96S197.42,65.29,190.26,52a93.43,93.43,0,0,0-28-32.14C149.26,10.51,110.93-6.77,68.53,2.8Z"/></g></g><path class="cls-6" d="M248.72,134.37a2.39,2.39,0,0,0-1.41-1.75,3.58,3.58,0,0,0-1.41-.27,3.07,3.07,0,0,0-2.43,1.11,5.07,5.07,0,0,0-.95,3.35,4.18,4.18,0,0,0,1,3.19,3.37,3.37,0,0,0,2.34.94,3.05,3.05,0,0,0,2.11-.74,3.2,3.2,0,0,0,1-1.93h-2.84v-2.05h5.1v6.57h-1.69l-.26-1.53a5.46,5.46,0,0,1-1.33,1.22,4.6,4.6,0,0,1-2.49.62,5.17,5.17,0,0,1-4-1.68,6.42,6.42,0,0,1-1.62-4.63,6.78,6.78,0,0,1,1.63-4.76,5.6,5.6,0,0,1,4.33-1.79,5.67,5.67,0,0,1,3.75,1.18,4.41,4.41,0,0,1,1.62,3Z"/><path class="cls-6" d="M259.31,133.92a3.72,3.72,0,0,1,1.56,1.34,4.46,4.46,0,0,1,.72,1.87,11.05,11.05,0,0,1,.08,1.8h-6.59a2.17,2.17,0,0,0,.95,1.91,2.35,2.35,0,0,0,1.3.34,2,2,0,0,0,1.31-.42,1.85,1.85,0,0,0,.49-.62h2.42a3,3,0,0,1-.88,1.64,4.4,4.4,0,0,1-3.4,1.32,4.89,4.89,0,0,1-3.19-1.12,4.38,4.38,0,0,1-1.38-3.62,4.91,4.91,0,0,1,1.24-3.61,4.4,4.4,0,0,1,3.24-1.25A5.19,5.19,0,0,1,259.31,133.92ZM255.77,136a2.37,2.37,0,0,0-.63,1.4h4.07a1.94,1.94,0,0,0-.63-1.43,2,2,0,0,0-1.4-.49A1.84,1.84,0,0,0,255.77,136Z"/><path class="cls-6" d="M270.29,141.68a5,5,0,0,1-7,0,5.59,5.59,0,0,1,0-6.79,4.91,4.91,0,0,1,7,0,5.59,5.59,0,0,1,0,6.79Zm-1.89-1.31a4.2,4.2,0,0,0,0-4.19,2.11,2.11,0,0,0-3.19,0,4.2,4.2,0,0,0,0,4.19,2.09,2.09,0,0,0,3.19,0Z"/><path class="cls-6" d="M277.49,133.73a2.87,2.87,0,0,1,1.39,1.31v-1.3h2.31v8.58a4.82,4.82,0,0,1-.59,2.64c-.68,1-2,1.53-3.89,1.53a5.34,5.34,0,0,1-2.83-.68,2.51,2.51,0,0,1-1.21-2h2.58a1,1,0,0,0,.32.59,2,2,0,0,0,1.29.33,1.74,1.74,0,0,0,1.71-.86,4.45,4.45,0,0,0,.28-1.84v-.58a2.84,2.84,0,0,1-.73.87,2.94,2.94,0,0,1-1.84.54,3.47,3.47,0,0,1-2.78-1.22,5,5,0,0,1-1-3.32,5.58,5.58,0,0,1,1-3.39,3.3,3.3,0,0,1,2.84-1.37A3.09,3.09,0,0,1,277.49,133.73Zm.8,6.49a2.91,2.91,0,0,0,.57-2,3.09,3.09,0,0,0-.54-2,1.78,1.78,0,0,0-1.45-.67,1.72,1.72,0,0,0-1.71,1.17,4.32,4.32,0,0,0-.25,1.54,3.46,3.46,0,0,0,.27,1.4,1.73,1.73,0,0,0,1.72,1.15A1.8,1.8,0,0,0,278.29,140.22Z"/><path class="cls-6" d="M288.3,133.53h.21V136l-.4,0h-.28a2,2,0,0,0-1.92.93,3.68,3.68,0,0,0-.27,1.61v4.33h-2.39v-9h2.26v1.58a4.78,4.78,0,0,1,1-1.24,2.57,2.57,0,0,1,1.72-.55Z"/><path class="cls-6" d="M293.36,137.28a3.67,3.67,0,0,0,.94-.2.72.72,0,0,0,.51-.67.79.79,0,0,0-.39-.77,2.48,2.48,0,0,0-1.15-.21,1.5,1.5,0,0,0-1.2.41,1.75,1.75,0,0,0-.34.83h-2.28a3.43,3.43,0,0,1,.67-1.95,3.87,3.87,0,0,1,3.23-1.19,5.77,5.77,0,0,1,2.65.58,2.26,2.26,0,0,1,1.16,2.23v4.15c0,.29,0,.64,0,1a1.34,1.34,0,0,0,.14.64.82.82,0,0,0,.35.27v.35H295.1a1.88,1.88,0,0,1-.15-.52c0-.16-.05-.34-.07-.54a5,5,0,0,1-1.14.9,3.45,3.45,0,0,1-1.73.44,3,3,0,0,1-2-.7,2.49,2.49,0,0,1-.81-2,2.55,2.55,0,0,1,1.3-2.41,5.64,5.64,0,0,1,2.09-.59Zm1.44,1.11a3.19,3.19,0,0,1-.45.23,3.94,3.94,0,0,1-.64.16l-.54.1a3.9,3.9,0,0,0-1.09.32,1.08,1.08,0,0,0-.55,1,1,1,0,0,0,.34.87,1.27,1.27,0,0,0,.83.27,2.5,2.5,0,0,0,1.43-.45,1.87,1.87,0,0,0,.67-1.63Z"/><path class="cls-6" d="M306.72,134.71a4.82,4.82,0,0,1,1.11,3.44,5.37,5.37,0,0,1-1.09,3.64,3.5,3.5,0,0,1-2.78,1.26,2.93,2.93,0,0,1-1.81-.54,3.64,3.64,0,0,1-.77-.88v4.72H299V133.74h2.27v1.34a3.63,3.63,0,0,1,.82-.93,3,3,0,0,1,1.89-.61A3.58,3.58,0,0,1,306.72,134.71Zm-1.82,1.7a1.69,1.69,0,0,0-1.56-.8,1.79,1.79,0,0,0-1.79,1.22,4.75,4.75,0,0,0-.25,1.64,2.61,2.61,0,0,0,.85,2.22,1.92,1.92,0,0,0,1.19.37,1.73,1.73,0,0,0,1.52-.76,3.53,3.53,0,0,0,.53-2A3.49,3.49,0,0,0,304.9,136.41Z"/><path class="cls-6" d="M315.88,133.79a2.71,2.71,0,0,1,1.12.89,2.31,2.31,0,0,1,.45,1,12.26,12.26,0,0,1,.08,1.75v5.32h-2.41v-5.51a2.38,2.38,0,0,0-.25-1.18,1.24,1.24,0,0,0-1.22-.63,1.66,1.66,0,0,0-1.41.63,2.87,2.87,0,0,0-.48,1.79v4.9h-2.37V130.6h2.37v4.31a2.92,2.92,0,0,1,1.18-1.1,3.3,3.3,0,0,1,1.42-.31A3.92,3.92,0,0,1,315.88,133.79Z"/><path class="cls-6" d="M320,144.52l.3,0a4.75,4.75,0,0,0,.66,0,1.2,1.2,0,0,0,.53-.2,1.26,1.26,0,0,0,.39-.58,1.34,1.34,0,0,0,.15-.55l-3.32-9.45h2.63l2,6.67,1.87-6.67h2.52l-3.11,8.9a12.38,12.38,0,0,1-1.42,3.19,2.71,2.71,0,0,1-2.09.62h-.51l-.57,0Z"/><polygon class="cls-7" points="153.81 132.4 170.19 118.62 127.8 111.55 111.53 118.62 94.81 123.82 127.27 132.06 133.14 136.36 135.18 139.41 151.55 134.55 153.81 132.4"/><path class="cls-8" d="M114.24,118.21c0-1.35-4.73-3.35-10.53-3.35s-10.48,2-10.48,3.35C96.36,123.28,110.26,123.17,114.24,118.21Z"/><path class="cls-6" d="M96,123.89s22.93,2.87,29.93,6.93,16,5.65,16,5.65l9.94-2.94,12.2-12.65s5.88-2.93,7.23-3.16-29.14-6.1-29.14-6.1l-11-1.81-21.35,9.42Z"/><path class="cls-9" d="M141.33,117.49l-13.75,14.24A59,59,0,0,0,142,136.47l9.94-2.94,12.2-12.65.38-.18L160,117.32Z"/><path class="cls-10" d="M141.88,135.08c-1.61-.32-9.29-2-15.29-5.43-5.21-3-19.18-4.88-26.24-6.25l9.75-3.12,21.57-9.34,10,2,.21,0c7.75,1.49,19.17,3.75,25.07,5-1.44.67-2.84,1.36-3.5,1.69l-.21.1-12.11,12.56Z"/><g class="cls-11"><path class="cls-12" d="M121.32,127l2.73.76,2.88,1.16,2.32,1s2.62,1.54,2.82,1.58,4.07,1,4.07,1l-5-4.41-2.13-.56-1.93-.23-1.39,0-2.37-.42h-1.43Z"/><path class="cls-12" d="M115.37,120.46l.85.22,2.34-.39,2.15-.27a2,2,0,0,0,.58-.79,3.8,3.8,0,0,1,.29-.78l-.38-.86.69-.33,2.76.32a9,9,0,0,1,.9-.21,2.65,2.65,0,0,0,1.14-.44c.21-.22.73-.46.91-.82s1.31.06,1.31.06l1.3-1.3,1.78-1.33-1.87.39c-.49-.54-.82-.48-.82-.48l-1.42-.43-6.54,2.92-.22.84a3.21,3.21,0,0,1-1.43.25l-4.86,2-.46.36-.86.43c-.21.35,1.06.64,1.06.64Z"/><path class="cls-12" d="M130.89,118.09l-.84.9.5.7.87-.14.51.2.75.67.74,0,.19,1.52-.75.34c.56.27.8.46.89.3l.38-.66.11-.75.53,0h0l.23.55h1.09a7.12,7.12,0,0,0,1.12-.23l.84.73-.82.43c-.48-.1-1.21.84-1.21.84l-.72.5-.8.37s-.95,0-1-.27-.44-.27-.68-.46-.48-.32-.5-.49a5.32,5.32,0,0,0-.62-.93L130.22,121l-1.6-.32-.7,1.12-.3,1.37.1,1.16-.3.75s0,.4.19.52.21.75.43.78,1,.35,1.18.33,1.15-.93,1.47-1,1.09-.75,1.24-.73a6.5,6.5,0,0,0,1.09.24c.23,0,.46.65.46.65l1.29.82a6.09,6.09,0,0,0,2.31-.57l2.07,0,2.95,1.15.24.58-.43,2.25,2.27,3.75,6.28-2.15,1.48-1.09,2.77-3,8-8,2.43-1.27s-8.77-.91-8.77-1.14-4.94,0-4.94,0l-2,0-3.52-.67-.25-1-2.38-.47-1.2.46a7.78,7.78,0,0,0-1.4,1.07c-.15.27-.64.55-.42.75a1.26,1.26,0,0,0,1,.21,3.62,3.62,0,0,1,2.27.37c.41-.06.21.56.21.56l-1.48-.09-1,.25-1-.36-2.17.22-.39-.26.69-.65.61-.52-.86-.07a4.81,4.81,0,0,1-1,.84c-.34.06-1.1.12-1.1.12l-.82.05a5.11,5.11,0,0,1-1-.27,2.4,2.4,0,0,0-1.2.48,2.94,2.94,0,0,1-1-.08Z"/><polygon class="cls-12" points="145.25 114.25 146.31 115.53 148.16 116.07 150.49 116 151.78 115.31 145.25 114.25"/><path class="cls-12" d="M124.34,125.93l1.45-.75h.83c.27.25-.22.7-.42.72a4.55,4.55,0,0,0-.75.25Z"/></g><path class="cls-13" d="M129.56,81.1C127.14,69.87,114.34,63.13,101,66S78.77,80.43,81.19,91.66s15.22,18,28.57,15S132,92.33,129.56,81.1Z"/><path class="cls-14" d="M106.68,107.64c-6.82,1.32-13-4.15-15-12.3-.5-2-1.29-3-1.12-1.81,1.31,9.45,7.53,16.61,15,16.61,5.39,0,10.28-4.33,13-10C117.93,98.83,113.11,106.4,106.68,107.64Z"/><path class="cls-15" d="M106.68,108.5c-7,0-12.84-5.63-14.88-13.44-.5-1.9-1.44-1.23-1.27-.07,1.31,9.05,7.53,15.91,15,15.91,5.39,0,9.52-4,12.24-9.39C114.91,105.53,111.34,108.5,106.68,108.5Z"/><path class="cls-16" d="M129.11,81.2c-2.38-11-14.93-17.64-28-14.78S79.26,80.54,81.64,91.56s14.93,17.63,28,14.77S131.49,92.22,129.11,81.2Z"/><polygon class="cls-17" points="101.52 121.03 103.7 122.31 117.33 122.31 115.37 120.43 115.48 118.02 114.43 117.08 101.52 121.03"/><path class="cls-18" d="M115.9,118.06c0-1.19-4.83-2.44-10.73-2.53s-10.68,1.62-10.7,2.81C97.58,122.88,112.06,123.25,115.9,118.06Z"/><path class="cls-19" d="M116.05,117.91c-1.6-2.13-4.81-3.35-10.7-3.35s-8.73,1.54-10.65,3.35C97.88,123,112,122.87,116.05,117.91Z"/><path class="cls-20" d="M116.05,117.91c-1.6-2.13-4.81-3.35-10.7-3.35s-8.73,1.54-10.65,3.35C97.88,123,112,122.87,116.05,117.91Z"/><path class="cls-21" d="M115.27,117.55c-1.45-1.86-4.36-2.93-9.7-2.93s-7.9,1.35-9.64,2.93C98.81,122,111.6,121.87,115.27,117.55Z"/><path class="cls-22" d="M115.35,117.69c-.54-1.12-3.73-2.53-7.7-2.53s-2.31,1-2.31,2.43-1.66,2.61,2.31,2.61S114.76,118.72,115.35,117.69Z"/><path class="cls-23" d="M128.18,80.72C126,70.38,114.21,64.16,102,66.84S81.6,80.06,83.83,90.4,97.8,107,110,104.29,130.41,91.07,128.18,80.72Z"/><path class="cls-24" d="M127.53,85.69c-1.48-6.91-9.94-.44-10.85-4.69-.25-1.15,1-1.8.53-3.34-.57-1.7.56-1.29.4-2-.51-2.4-1.7-3.55-1.4-5.53-.87-2.6-3.5-3.7-6.27-3.51-3.4.24-4.24-.33-8.2.92a2.71,2.71,0,0,0-2.26.89,5.37,5.37,0,0,0-1.78,4.31c-.41.29,3,2,3.18,2.66.57,2.66,3.73,3.8,3.73,3.8.63,2.92,7.14,7.48,6.93,6.5-.25-1.15-.94-1-1.18-2.09,3.37.62,2.67.81,2.67.81.52-.12,5.24-.5,5.81-.62s-1,1.67-1.65,2.54c-.81,1.17-.43.68,0,2.74.1.44-.86.53-.71,1.25,0,.09,3.18,2.42,3.4,3.43.31,1.47-4.63,9-5.13,9.62C123.26,101.3,128.56,90.47,127.53,85.69Z"/><path class="cls-25" d="M85.36,88.31c.11.49,3,8.06,1.06-.92-.08-.37.41-.93.47-1.35C86.33,86.62,85.2,87.57,85.36,88.31Z"/><path class="cls-26" d="M87.58,74.78a20,20,0,0,0-5.42,13C83,85.3,87,80.05,87.52,79.94c.37-.08.68.63,1.07.54.79-.17,1.5-3,1.16-4.54-.06-.31-.14-.63-.21-1a4.83,4.83,0,0,1-.14-1.6A18.18,18.18,0,0,0,87.58,74.78Z"/><path class="cls-27" d="M88.75,98.47c-.36-1.71-3.72-3-5.38-4.07a18,18,0,0,0,4.46,6.5h0C90.38,100.16,89,99.49,88.75,98.47Z"/><path class="cls-28" d="M99.64,103.87c-.1-.5-1.91-1.66-7.93-.8h0a.55.55,0,0,0-.44.41,25.36,25.36,0,0,0,7.66,2.71C100.07,105.44,100,105.6,99.64,103.87Z"/><path class="cls-29" d="M128,85.53c-1.48-6.9-9.94-.43-10.86-4.68-.24-1.15,1-1.8.54-3.34-.58-1.7.55-1.29.4-2-.52-2.4-1.7-3.55-1.4-5.53-.87-2.6-3.5-3.7-6.28-3.51-3.39.24-4.24-.33-8.19.92a2.74,2.74,0,0,0-2.27.89,5.36,5.36,0,0,0-1.77,4.31c-.41.29,3,2,3.18,2.66.57,2.66,3.73,3.8,3.73,3.8.63,2.92,6.7,7.22,6.49,6.24-.25-1.15-.5-.71-.75-1.83,3.38.62,2.68.81,2.68.81.51-.12,5.24-.5,5.81-.62s-1.05,1.67-1.66,2.54c-.8,1.17-.42.68,0,2.74.1.44-.87.53-.71,1.25,0,.09,3.18,2.42,3.39,3.43.32,1.47-4.63,9-5.12,9.62C123.71,101.15,129,90.32,128,85.53Z"/><path class="cls-29" d="M85.81,88.16c.1.49,2,8,1.06-.92a5.16,5.16,0,0,1-.06-1.19C86.25,86.63,85.65,87.42,85.81,88.16Z"/><path class="cls-29" d="M88,74.63c-3.36,3.72-5.72,8.09-5.79,12.8.83-2.46,5.2-7.53,5.73-7.64.37-.08.67.63,1.06.54.8-.17,1.51-3,1.17-4.54-.06-.31-.15-.63-.22-1a5.42,5.42,0,0,1-.14-1.6A18,18,0,0,0,88,74.63Z"/><path class="cls-29" d="M89.2,98.32c-.37-1.71-4-2.82-5.7-3.91a18.34,18.34,0,0,0,4.77,6.34h0C90.83,100,89.42,99.34,89.2,98.32Z"/><path class="cls-29" d="M100.09,103.72c-.11-.5-1.91-1.66-7.93-.8h0a.55.55,0,0,0-.44.41,25.17,25.17,0,0,0,7.66,2.71C100.51,105.29,100.46,105.45,100.09,103.72Z"/><g class="cls-30"><path class="cls-22" d="M90.57,85.57c2.16,10,13.52,16,25.37,13.42A25.2,25.2,0,0,0,126,94.34a17.84,17.84,0,0,0,2.32-13c-2.3-10.65-14.43-17.05-27.11-14.29a28.13,28.13,0,0,0-4.29,1.31C91.83,72.9,89.21,79.27,90.57,85.57Z"/></g><path class="cls-31" d="M85,90a18.94,18.94,0,0,1,3.15-14.77,9.7,9.7,0,0,0-1,.48c-6.48,3.68-8.25,12.81-3.95,20.4,3.58,6.3,10.22,9.55,16.08,8.36C92.15,102.29,86.55,97,85,90Z"/><g class="cls-30"><path class="cls-22" d="M107.06,76.32c-1,4.7,4.29,9.16,10.47,9.93a13.71,13.71,0,0,0,4.76-.22,6.55,6.55,0,0,0,3-3.63c1.07-3.59-2-8.09-8-10.4a21.24,21.24,0,0,0-2.46-.77C111,71.44,107.74,73.26,107.06,76.32Z"/></g><path class="cls-32" d="M95.26,90a3.42,3.42,0,0,0-4.48-1.83A3.68,3.68,0,1,0,95.26,90Z"/><path class="cls-33" d="M93,90.93a2.41,2.41,0,1,0-.93,3.52A2.6,2.6,0,0,0,93,90.93Z"/><path class="cls-34" d="M92.57,91.07a2.17,2.17,0,0,0-2.84-1.14,2.19,2.19,0,0,0-.81,3A2.16,2.16,0,0,0,91.76,94,2.18,2.18,0,0,0,92.57,91.07Z"/><path class="cls-35" d="M91.93,91.31a2,2,0,1,0-.63,3.14A2.32,2.32,0,0,0,91.93,91.31Z"/><path class="cls-36" d="M110.3,107.86a10.28,10.28,0,0,1-3.62.64c-7,0-12.84-5.63-14.88-13.44-.5-1.9-1.44-1.23-1.27-.07,1.21,8.36,6.61,14.84,13.31,15.79,0,0,0,.06,0,.09a1.16,1.16,0,0,0,.83,1,3.53,3.53,0,0,0-1.13,2.86c0,1.71.83,3.1,1.84,3.1s1.85-1.39,1.85-3.1a3.57,3.57,0,0,0-1.13-2.86,1.16,1.16,0,0,0,.83-1s0-.05,0-.07C111.63,110.19,113.26,106.78,110.3,107.86Z"/><path class="cls-34" d="M106.8,114.25c-.06-.52-.32-.93-.58-.9s-.41.49-.34,1,.32.93.57.9S106.87,114.78,106.8,114.25Z"/><path class="cls-37" d="M105.68,111.81c-.63-.25,2.06-2.53,3.56-3.66-1.35.57-13.21,2-17.59-13.53-.41-.87-.76-.37-.59.88,1.09,7.58,6.45,14.22,13,15.16,0,0,0,0,0,.09a1.14,1.14,0,0,0,.81,1,3.56,3.56,0,0,0-1.11,2.84c0,1.7.81,3.08,1.82,3.08h0A6.92,6.92,0,0,1,105.68,111.81Z"/><path class="cls-38" d="M107.75,109.34a15,15,0,0,1-7.66-2.07c-4.92-2.71-8.53-8.68-8.63-13-.32-.38-.54.14-.4,1.19,1.09,7.58,6.45,14.22,13,15.16,0,0,0,0,0,.09a1.14,1.14,0,0,0,.81,1,3.56,3.56,0,0,0-1.11,2.84c0,1.7.81,3.08,1.82,3.08h0a6.92,6.92,0,0,1,0-5.85C105.23,111.63,106.46,110.43,107.75,109.34Z"/><path class="cls-39" d="M100.09,107.27a16.67,16.67,0,0,0,8.19,2c.53-.45,1.12-.72,1.56-1-1.36.58-13.81,2-18.19-13.61a1.19,1.19,0,0,0-.19-.31C91.56,98.59,95.17,104.56,100.09,107.27Z"/><path class="cls-15" d="M88.73,91.52A1.54,1.54,0,0,0,88.92,93a1.58,1.58,0,0,0,1.33.81A6.24,6.24,0,0,1,88.73,91.52Z"/><path class="cls-40" d="M94.05,123.89c-.19-.09-.81-.48-1-.58-.45-.22-1.15.31-1.56,1.18s-.37,1.74.08,2c.19.09.8.48,1,.59.45.21,1.15-.32,1.56-1.19S94.5,124.1,94.05,123.89Z"/><path class="cls-6" d="M94,124.17l-1.66-.74a2.29,2.29,0,0,0-.64.67l1.79.57Z"/><path class="cls-38" d="M94.05,123.89c-.19-.09-.81-.48-1-.58a.56.56,0,0,0-.44,0l1.32.7-.1.18-1.46-.77a2,2,0,0,0-.53.49l1.47.78-.1.18-1.48-.79a2.75,2.75,0,0,0-.24.41l-.09.23,1.46.78-.1.18-1.43-.76a2.46,2.46,0,0,0-.11.62l1.43.77-.1.18-1.33-.71a1.14,1.14,0,0,0,.13.45l1.36.72,0,.09c.45.14,1.1-.37,1.49-1.2S94.5,124.1,94.05,123.89Z"/><path class="cls-41" d="M92.63,126.31l-1.43-.77a1,1,0,0,0,0,.24l1.33.71Z"/><path class="cls-41" d="M91.33,126.23a.55.55,0,0,0,.22.21c.19.09.8.48,1,.59h.07l0-.09Z"/><path class="cls-41" d="M92.84,125.5l-1.46-.78a1.59,1.59,0,0,0-.07.2l1.43.76Z"/><path class="cls-41" d="M93.29,124.69l-1.47-.78s-.07.11-.11.17l1.48.79Z"/><path class="cls-41" d="M93.91,124l-1.32-.7a.86.86,0,0,0-.24.11l1.46.77Z"/><path class="cls-41" d="M94.13,125.86c.4-.86.37-1.74-.08-2s-1.15.32-1.56,1.18-.37,1.74.08,2S93.72,126.73,94.13,125.86Z"/><path class="cls-42" d="M115.79,138.47a3.92,3.92,0,0,0-1.4-.19c-2.82,0-11.38,2.79-11.39,2.76,0-1.69,3.48-3.26,6.82-4.85,3.06-1.45,4.27-2.18,4.27-3.41,0-2.15-3.91-1.43-6.52-1.58a4.79,4.79,0,0,0,1.29-1.22c-1.16-1.28-4.33-3.53-9.66-3.53s-8.4,2.25-9.67,3.53c1,1.53,4.33,3.52,9.67,3.52a14.52,14.52,0,0,0,7.62-1.89c.92.46,6.82-1,6.82,1.17,0,.94-1.33,1.73-4,3-3.64,1.73-7.09,3.29-7.09,5.26,0,.55,1.8,1.61,4.27,1.61,4.91,0,9.53-2.18,9.53-3.5C116.34,138.94,116.25,138.66,115.79,138.47Zm-9,3.74a6.86,6.86,0,0,1-3.35-.8c5-1.76,8.78-2.69,10.93-2.69a3.43,3.43,0,0,1,1.23.17c.18.07.27.16.27.26C115.89,140,111.86,142.21,106.81,142.21Z"/><path class="cls-40" d="M109.14,126.08c-1-1-3.64-2.74-8.14-2.74s-7.07,1.75-8.13,2.74c0,1-.1,2,0,3.74.87,1.15,3.64,2.66,8.13,2.66s7.54-1.75,8.14-2.66Z"/><path class="cls-43" d="M109.14,126c-1-1-3.61-2.65-8.06-2.65s-7,1.69-8,2.65c0,1-.09,1.88,0,3.61.87,1.12,3.6,2.58,8,2.58s7.46-1.69,8.06-2.58Z"/><path class="cls-38" d="M101,123.34c-4.49,0-7.07,1.75-8.13,2.74,0,1-.1,2,0,3.74A7.71,7.71,0,0,0,97.05,132v-6.36h5.65v6.72l.79-.1v-7.46h1.75v7.08a7.6,7.6,0,0,0,3.9-2.1v-3.74C108.17,125.09,105.5,123.34,101,123.34Z"/><path class="cls-40" d="M97.05,125.68V132a16.88,16.88,0,0,0,4,.44c.6,0,1.16,0,1.7-.08v-6.72Z"/><path class="cls-40" d="M103.49,124.84v7.46a15.73,15.73,0,0,0,1.75-.38v-7.08Z"/><path class="cls-6" d="M109.14,126.08c-.6.94-3.64,2.73-8.14,2.73s-7.26-1.54-8.13-2.73c1.06-1,3.64-2.74,8.13-2.74S108.17,125.09,109.14,126.08Z"/><path class="cls-44" d="M109.14,125.9c-.6.87-3.64,2.55-8.14,2.55s-7.26-1.45-8.13-2.55c1.06-.93,3.64-2.56,8.13-2.56S108.17,125,109.14,125.9Z"/><path class="cls-6" d="M103.53,128.06c2.83-.42,4.7-1.53,5.14-2.17-.89-.85-3.35-2.35-7.48-2.35a14.6,14.6,0,0,0-2.79.25,1.65,1.65,0,0,0-.49,1.1C97.91,126.29,100.21,127.5,103.53,128.06Z"/><path class="cls-45" d="M106.26,126.08c-.39.61-2.35,1.77-5.26,1.77s-4.69-1-5.25-1.77a7.54,7.54,0,0,1,5.25-1.77A7.45,7.45,0,0,1,106.26,126.08Z"/><path class="cls-46" d="M105.62,126.57a7.73,7.73,0,0,1-4.74,1.32,6.92,6.92,0,0,1-4.6-1.32,8.38,8.38,0,0,1,4.67-1.14A8.23,8.23,0,0,1,105.62,126.57Z"/><polygon class="cls-47" points="100.77 127.2 101.45 125.04 97.02 125.77 100.77 127.2"/><polygon class="cls-48" points="101.36 125.05 100.72 127.23 105.12 126.48 101.36 125.05"/><g class="cls-49"><path class="cls-50" d="M99.82,127.55l1.7-3a3.9,3.9,0,0,0-1.46.06l-1.51,2.7C98.84,127.32,99.41,127.47,99.82,127.55Z"/><path class="cls-50" d="M105.63,126.08a5.46,5.46,0,0,0-2.74-1.35c-.27.71-.84,2.19-1.08,2.86A5.72,5.72,0,0,0,105.63,126.08Z"/></g><polygon class="cls-51" points="144.14 131.95 142.63 130.52 148.13 130.29 151.89 133.53 141.95 136.47 144.14 131.95"/><polygon class="cls-38" points="148.13 130.29 148.12 130.29 144.09 132.05 141.95 136.47 151.89 133.53 148.13 130.29"/><polygon class="cls-6" points="142.63 130.52 144.14 131.95 144.09 132.05 148.12 130.29 142.63 130.52"/><path class="cls-34" d="M110.27,109c0-.21-1.36.16-2.4.16s-1.89.17-1.89.37.84.37,1.89.37A3.81,3.81,0,0,0,110.27,109Z"/><polygon class="cls-7" points="154.38 136.07 161.46 129.54 162.81 129.24 164.47 130.22 164.47 131.42 157.31 138.22 153.17 140.01 152.72 139.63 154.38 136.07"/><polygon class="cls-52" points="155.75 135.62 163.18 128.77 164.6 128.45 166.34 129.48 166.34 130.74 158.83 137.87 154.49 139.75 154.01 139.35 155.75 135.62"/><polygon class="cls-53" points="158.64 137.95 158.83 137.87 166.34 130.74 166.34 129.48 166.33 129.47 158.57 136.71 158.64 137.95"/><polygon class="cls-38" points="164.63 128.47 156.58 135.7 155.7 135.74 154.01 139.35 154.49 139.75 158.83 137.87 166.34 130.74 166.34 129.48 164.63 128.47"/><polygon class="cls-54" points="164.63 128.47 164.6 128.45 163.18 128.77 155.75 135.62 155.7 135.74 156.58 135.7 164.63 128.47"/><polygon class="cls-38" points="166.34 130.74 166.34 129.48 164.6 128.45 163.18 128.77 155.75 135.62 166.34 130.74"/><polygon class="cls-55" points="155.75 135.62 154.01 139.35 154.49 139.75 158.83 137.87 158.79 136.55 156.94 135.36 155.75 135.62 155.75 135.62"/><polygon class="cls-38" points="156.27 137.81 156.27 138.98 158.83 137.87 158.79 136.55 156.94 135.36 155.75 135.62 155.75 135.62 154.73 137.81 156.27 137.81"/><polygon class="cls-56" points="154.73 137.81 154.01 139.35 154.49 139.75 156.27 138.98 156.27 137.81 154.73 137.81"/><polygon class="cls-57" points="154.49 139.75 156.27 138.98 156.27 137.81 156.25 137.81 154.69 139.31 154.49 139.75"/><polygon class="cls-56" points="155.77 138.01 155.99 139.09 156.29 138.96 156.29 137.81 155.77 138.01"/><polygon class="cls-58" points="156.29 137.81 156.94 135.36 155.75 135.62 154.73 137.81 156.29 137.81"/><path class="cls-50" d="M115.32,117.76c.09-.08,0-.3-.15-.49s-.38-.29-.46-.21,0,.3.15.49S115.24,117.84,115.32,117.76Z"/><polygon class="cls-59" points="157.62 115.16 164.02 120.43 170.42 117.87 157.62 115.16"/><path class="cls-59" d="M127.57,131.5l7.83-8.13-7.83-.3L108.69,125S119.31,126.19,127.57,131.5Z"/><path class="cls-8" d="M129.48,118.66a3.4,3.4,0,0,1-1.31-.11l-16.43-4.67s-1.26-.68-.47-1.13,10.58-4.29,10.58-4.29l24.65,4-8.27,4.91a5.14,5.14,0,0,1-1.83.57Z"/><path class="cls-60" d="M129.87,103.53,118,107.26c-1.07.29-1.9,1-1.75,1.87l.37,2.67a1,1,0,0,0,.66.77l.11,0v0l19.38,4.62.76.08,9.51-12.5.41-.25.06-.45Z"/><g class="cls-61"><path class="cls-62" d="M136.61,110.72l-20-2.6a.93.93,0,0,0-.31,1l.37,2.67a1,1,0,0,0,.66.77l.11,0v0l19.38,4.62.76.08.16-.22-.31-.54Z"/></g><path class="cls-63" d="M146.47,104.35l-10.16,4.86a3.65,3.65,0,0,1-2.16.34L118.26,108c-.38,0-.5-.38-.14-.49l11.9-3.77Z"/><path class="cls-64" d="M137.58,117.35h0Z"/><path class="cls-64" d="M147.41,111.46l0-.72-1.18-.19.24-5.33,1-.6.07-.53c-3.14,1.64-10.17,5-10.44,5.13-.75.43-.68,1.62-.68,3.71s.33,4.41,1.1,4.42h.05Z"/><path class="cls-8" d="M137.21,115.69s.24,1.24,1.17.86,9-5.39,9-5.39l0-.42-1.52-.21Z"/><path class="cls-65" d="M136.91,112.84c0,1.86.18,3.44.86,3.44s6.78-3.71,9.07-5.08l.25-6.38c-2.62,1.4-9.33,4.59-9.58,4.73C136.84,109.93,136.91,111,136.91,112.84Z"/><polygon class="cls-22" points="116.65 116.25 121.85 113.96 123.43 114.5 117.92 116.93 116.65 116.25"/><g class="cls-66"><path class="cls-8" d="M147.09,104.82c-2.62,1.4-9.33,4.59-9.58,4.73-.43.24-.56.78-.59,1.63l10.14-5.47Z"/></g><path class="cls-58" d="M150.4,108c-2.09-1.76-3.39-1.16-3.39-1.16s0,.37,0,.62c-1.78,1.24-3.06,2-4.48,3.08l.11-.06-.09.07,4.33-1,.08-1A6.39,6.39,0,0,1,150.4,108Z"/><path class="cls-67" d="M147,106.73s1.29-.49,3.38,1.27c-1.59-.65-6.62,1.67-7.87,2.56a41.9,41.9,0,0,1,4.44-3.19C147,107,147,106.73,147,106.73Z"/><polygon class="cls-58" points="138.73 113.99 143.24 111.49 140.6 113.24 138.73 113.99"/><path class="cls-58" d="M138.93,110.42a.28.28,0,0,1,.13.2c0,.11.19,3,.19,3s.45-1.18,1.54-.82l-.18-2.73a.7.7,0,0,0-.29-.23Z"/><path class="cls-68" d="M138.94,110.42a.34.34,0,0,1,.14.2c0,.11.51,3,.51,3s.42-1.31,1.54-1l-.47-2.58a.69.69,0,0,0-.3-.22C140.1,109.92,138.94,110.42,138.94,110.42Z"/><polygon class="cls-6" points="148.12 130.29 151.95 133.21 154.66 130.63 151.89 133.53 148.12 130.29"/><path class="cls-7" d="M179.78,116.34c-.28-.33-1.15-1.21-1.42-1.52a5.63,5.63,0,0,0-3.85-1.84c-1.56-1.35-3.51-2.93-4.3-3.59a3.14,3.14,0,0,0-.33-.48,4.25,4.25,0,0,0-3.06-1.45c-.86-.84-1.61-1.56-2-1.89a2.68,2.68,0,0,0-.25-.37,3.44,3.44,0,0,0-3-1.07l-.08-.07a.35.35,0,0,0-.05-.08,1.94,1.94,0,0,0-.28-.48,2.94,2.94,0,0,0-3.95,0,2.7,2.7,0,0,0-1,3.34,2,2,0,0,0,.3.48,2.07,2.07,0,0,0,.65.49,3,3,0,0,0,.59,2.69.93.93,0,0,0,.14.14,1.15,1.15,0,0,0,.12.25c.13.25.82,1.19,1.68,2.3a2.52,2.52,0,0,0,.54,1.83c.15.32,1.4.23,1.64.51s2.94,3.82,3.56,4.63c-.34.51-.91.21-1.06.92a6,6,0,0,0,.94,3.72c.29.33,1.42,1.54,1.7,1.85,2.26,2.49,6.91,2.22,10.38-.54S181.91,118.85,179.78,116.34Z"/><path class="cls-69" d="M161.09,104.66a2.41,2.41,0,1,0-3.7.69A2.7,2.7,0,0,0,161.09,104.66Z"/><path class="cls-59" d="M161,104.63c1.06-1.23,1.28-2.75.29-3.6a2.69,2.69,0,0,0-3.7.69,2.64,2.64,0,0,0-.12,3.72C158.49,106.17,160,105.86,161,104.63Z"/><path class="cls-70" d="M166.55,104.74c-.4-.4-4.63-3.18-5.11-3.48a2.65,2.65,0,0,0-3.46.5,2.72,2.72,0,0,0-.58,3.22,65.51,65.51,0,0,0,4.93,4.93,3.22,3.22,0,0,0,4.11-1A3.06,3.06,0,0,0,166.55,104.74Z"/><path class="cls-71" d="M161.11,101.66l-1.22-.83a2.75,2.75,0,0,0-1.13.33l1.83,1.25Z"/><path class="cls-69" d="M164.56,107.44c1.53-1.78,1.62-4.22.19-5.45s-3.83-.79-5.36,1-1.63,4.22-.2,5.45S163,109.23,164.56,107.44Z"/><path class="cls-59" d="M164.69,107.63c1.54-1.78,1.63-4.22.2-5.45s-3.83-.79-5.37,1-1.67,4.11-.24,5.34S163.16,109.41,164.69,107.63Z"/><path class="cls-72" d="M172.26,107.48c-.59-.58-6.67-4.85-7.37-5.29-1.49-.93-3.47-.72-5.14.94a4.37,4.37,0,0,0-.25,5.65,85.86,85.86,0,0,0,6.6,6.25c1.73,1.09,4.29.59,6-1.49S173.71,108.92,172.26,107.48Z"/><path class="cls-71" d="M166.55,104.14l-4.26-2.43a3.86,3.86,0,0,0-1.2.43l4,2.77Z"/><path class="cls-69" d="M170.3,112.32c2.12-2.46,2.25-5.83.27-7.53s-5.29-1.09-7.41,1.38-2.25,5.83-.27,7.53S168.18,114.79,170.3,112.32Z"/><path class="cls-59" d="M170.49,112.58c2.12-2.46,2.24-5.83.27-7.53s-5.3-1.09-7.42,1.37-2.22,5.74-.25,7.44C165,115.33,168.37,115.05,170.49,112.58Z"/><path class="cls-73" d="M178.59,109.9c-.83-.8-6.9-4.26-7.87-4.84-2.09-1.25-4.8-.87-7,1.53-2.07,2.24-1.91,5.56-.64,7,.71.8,6.26,6.53,7.38,7.2,2.43,1.46,5.93.65,8.18-2.35S180.64,111.86,178.59,109.9Z"/><g class="cls-74"><path class="cls-75" d="M164.37,106a8,8,0,0,0-.67.64,6,6,0,0,0-1.58,3.89l6.64,6.82,2.56-6.44Z"/><path class="cls-75" d="M159.61,103.28a4,4,0,0,0-1,2.49l3.16,2.91.1.54a7,7,0,0,1,1.48-2.8,8.47,8.47,0,0,1,.67-.67l-.52.07Z"/><path class="cls-75" d="M159.07,103.26l-1.43-1.1a2.94,2.94,0,0,0-.51,1.29h0a9.14,9.14,0,0,0,1.26,1.24,7.5,7.5,0,0,1,0,.85h0a5,5,0,0,1,1.12-2.35l-.09-.06Z"/></g><path class="cls-71" d="M174.54,108.57l-6.63-4.2a5.63,5.63,0,0,0-1.66.39l6.88,4.58Z"/><path class="cls-76" d="M182.06,110.9l-2-1.73c-2.74-2.36-7.42-1.43-10.45,2.09s-3.27,8.29-.53,10.65l2,1.73c2.74,2.36,7.42,1.42,10.45-2.1S184.8,113.26,182.06,110.9Z"/><path class="cls-77" d="M182.05,110.8c-.35-.3-1.44-1.08-1.78-1.37-2.75-2.33-7.64-1.43-10.68,2s-3.28,8.18-.54,10.51l2,1.72c2.74,2.33,7.44,1.4,10.48-2.07S184.8,113.13,182.05,110.8Z"/><path class="cls-78" d="M181.66,111.45l-5.12-3.33a8.91,8.91,0,0,0-5.79,2.2l5.94,4.91Z"/><path class="cls-79" d="M181.59,121.52c3-3.53,3.29-8.32.53-10.69s-7.45-1.43-10.5,2.1-3.28,8.33-.53,10.7S178.54,125.06,181.59,121.52Z"/><path class="cls-78" d="M181.59,121.52c3-3.53,3.38-8.24.75-10.5s-7.23-1.24-10.28,2.29-3.38,8.24-.75,10.51S178.54,125.06,181.59,121.52Z"/><path class="cls-80" d="M175.79,117.52c1.92,1.63,5,1.3,7.58-.58a5.65,5.65,0,0,0-1.34-6.16c-1.85-1.57-4.68-1.48-7.12,0C173.77,113.33,174,116,175.79,117.52Z"/><path class="cls-81" d="M181.16,113.1c-1.89-1.71-5.24-1.09-7.48,1.39s-2.54,5.86-.65,7.58,5.23,1.08,7.48-1.39S183.05,114.81,181.16,113.1Z"/><path class="cls-69" d="M180.41,112.64c-1.75-1.19-5.09-.41-7.06,2.14s-2.15,5.73-.39,7.09,4.8.41,6.77-2.15S182.26,113.89,180.41,112.64Z"/><path class="cls-82" d="M180.47,116.6c-1.74,2.25-4.39,3.12-5.92,1.93a3.27,3.27,0,0,1-1-3.25c-1.53,2.19-1.63,4.78-.17,5.91s4.18.31,5.92-1.94a6.8,6.8,0,0,0,1.36-3Z"/><path class="cls-83" d="M177.87,117.88c-.67-.92-2.21-.94-3.43,0s-1.66,2.37-1,3.29,2.21.93,3.43,0S178.55,118.8,177.87,117.88Z"/><path class="cls-83" d="M180.08,113.14c-.51-.15-1,1.26-1.59,3.38s-2,4.49-1.47,4.64,2.77-1.89,3.39-4S180.59,113.29,180.08,113.14Z"/><path class="cls-84" d="M167.57,104.05c0-.08-.28-.08-.58,0s-.53.2-.51.28.27.08.57,0S167.59,104.13,167.57,104.05Z"/><path class="cls-84" d="M162.1,101.56s-.18,0-.38,0-.35.12-.34.17.19.06.39,0S162.12,101.62,162.1,101.56Z"/><path class="cls-84" d="M159.76,100.58s-.19-.07-.39,0-.35.09-.35.15.18.07.39,0S159.76,100.64,159.76,100.58Z"/><polygon class="cls-80" points="174.65 108.23 173.36 108.69 175.64 110.66 177.65 109.87 174.65 108.23"/><path class="cls-8" d="M173.35,116.25c2-2.55,5.31-3.33,7.06-2.15a2.58,2.58,0,0,1,1.07,1.75,3.12,3.12,0,0,0-1.07-3.21c-1.75-1.19-5.09-.41-7.06,2.14a6.81,6.81,0,0,0-1.55,5A7.52,7.52,0,0,1,173.35,116.25Z"/><path class="cls-85" d="M108.78,128.48c0-.49-.31-.9-.51-.9s-.2.41-.2.9,0,.89.2.89S108.78,129,108.78,128.48Z"/><path class="cls-46" d="M107.06,142.53c-2.46,0-4.26-1.08-4.26-1.64,0-2,3.76-3.77,7.4-5.5,2.67-1.28,5.44-2.59,5.44-3.53,0-1.8-4.53-2.94-7.27-3.24l0-.45c2.59.28,7.67,1.41,7.67,3.69,0,1.22-2.64,2.48-5.7,3.93-3.35,1.6-7.14,3.4-7.14,5.1a.44.44,0,0,0,.1.12l0-.08c3.61-1.29,8.5-2.83,11.33-2.83a3.86,3.86,0,0,1,1.39.2.72.72,0,0,1,.55.68C116.59,140.31,112,142.53,107.06,142.53Zm-3.34-1.27a6.67,6.67,0,0,0,3.34.82c5,0,9.08-2.23,9.08-3.1,0-.1-.09-.19-.27-.26a3.37,3.37,0,0,0-1.22-.17C112.5,138.55,108.72,139.49,103.72,141.26Z"/><path class="cls-46" d="M108.5,128.49c0-.5-.1-.91-.22-.91s-.21.41-.21.91.09.9.21.9S108.5,129,108.5,128.49Z"/><path class="cls-86" d="M136.69,105.58c.06.56-2.17,1.28-5,1.59s-5.15.12-5.21-.44,2.17-1.27,5-1.59S136.62,105,136.69,105.58Z"/><path class="cls-87" d="M128.88,105.69l.28.62,1.36.23,1.52-.37,1.84-.08-.68.67a8.75,8.75,0,0,0,2.57-.7c.54-.43.28-.54.28-.54l-1,0-.68-.34a9,9,0,0,0-.9,0l-1.13.34,0-.28Z"/><path class="cls-87" d="M128.09,106.4l.59.73s-2,0-2-.48c0-.31.74-.68.74-.68l1.41-.39C129,105.83,128.09,106.4,128.09,106.4Z"/><path class="cls-7" d="M144.33,120.15a1.11,1.11,0,0,0-1.1-.05l-5.33,2.75a.66.66,0,0,0-.06,1.13l8.31,5.37a2.37,2.37,0,0,0,1.93.14l4.79-2.7a.63.63,0,0,0,.33-.53.62.62,0,0,0-.29-.56Z"/><path class="cls-88" d="M145.15,120a1.08,1.08,0,0,0-1-.06l-5.34,2.43c-.2.1-.26.63-.27.86a.64.64,0,0,0,.29.57l8.18,5.34a1.52,1.52,0,0,0,1.53.08l5-2.59a1,1,0,0,0,.39-.67c0-.22.08-.51-.11-.64Z"/><path class="cls-89" d="M145.26,119.54a1.05,1.05,0,0,0-1.07-.05l-5.23,2.7a.63.63,0,0,0-.34.54.62.62,0,0,0,.29.57l8.17,5.33a1.53,1.53,0,0,0,1.53.08l5-2.59a.63.63,0,0,0,0-1.09Z"/><path class="cls-90" d="M146.84,127.47a.68.68,0,0,0,.69,0l4.32-2.3A.28.28,0,0,0,152,125a.3.3,0,0,0-.12-.24L145,120a.52.52,0,0,0-.54,0l-4.73,2.39a.24.24,0,0,0-.13.19.23.23,0,0,0,.11.2Z"/><polygon class="cls-59" points="145.18 120.42 143.94 125.35 145.68 126.49 146.92 121.59 145.18 120.42"/><path class="cls-59" d="M147.2,121.79,146,126.67l.83.55.1,0,1.23-4.86Z"/><path class="cls-7" d="M151.3,126.8c0-.25-.35-.46-.79-.46s-.79.21-.79.46.35.47.79.47S151.3,127.06,151.3,126.8Z"/><path class="cls-90" d="M142.5,120.63l-.08,0a.09.09,0,0,0-.07,0l-.95.5s0,0,0,.07h0a.16.16,0,0,0,.09,0,.11.11,0,0,0,.08,0l.95-.5s0,0,0-.06Z"/><path class="cls-89" d="M151.17,126.8c0-.21-.3-.38-.66-.38s-.66.17-.66.38.3.39.66.39S151.17,127,151.17,126.8Z"/><polygon class="cls-8" points="108.07 129.07 107.23 131.19 107.9 130.91 108.43 129.27 108.07 129.07"/></g></g></g></svg>