<?xml version="1.0" encoding="utf-8"?>
<!-- Generator: Adobe Illustrator 23.0.1, SVG Export Plug-In . SVG Version: 6.00 Build 0)  -->
<svg version="1.1" id="Layer_1" xmlns="http://www.w3.org/2000/svg" xmlns:xlink="http://www.w3.org/1999/xlink" x="0px" y="0px"
	 viewBox="0 0 293 123" style="enable-background:new 0 0 293 123;" xml:space="preserve">
<style type="text/css">
	.st0{clip-path:url(#SVGID_3_);fill:url(#SVGID_4_);}
	.st1{opacity:0.3;clip-path:url(#SVGID_3_);}
	.st2{fill:url(#SVGID_5_);}
	.st3{fill:#FFFFFF;}
	.st4{opacity:0.8;fill:#725E4A;}
	.st5{opacity:0.6;fill:#725E4A;}
	.st6{fill:#FFEEE4;}
	.st7{fill:url(#SVGID_6_);}
	.st8{opacity:0.6;}
	.st9{fill:#ECFFA5;}
	.st10{fill:url(#SVGID_7_);}
	.st11{fill:#BA8F24;}
	.st12{fill:#EBBF3C;}
	.st13{fill:url(#SVGID_8_);}
	.st14{opacity:0.2;fill:#4C332B;}
	.st15{opacity:0.4;fill:#4C332B;}
	.st16{fill:url(#SVGID_9_);}
	.st17{fill:url(#SVGID_10_);}
	.st18{fill:url(#SVGID_11_);}
	.st19{opacity:0.4;fill:#F2FFC4;}
	.st20{fill:url(#SVGID_12_);}
	.st21{fill:url(#SVGID_13_);}
	.st22{fill:url(#SVGID_14_);}
	.st23{fill:url(#SVGID_15_);}
	.st24{fill:url(#SVGID_16_);}
	.st25{fill:url(#SVGID_17_);}
	.st26{fill:#B7CE55;}
	.st27{opacity:0.7;}
	.st28{opacity:0.4;fill:#FFE7B3;}
	.st29{opacity:0.6;fill:url(#SVGID_18_);}
	.st30{fill:url(#SVGID_19_);}
	.st31{fill:#F9E9C5;}
	.st32{fill:url(#SVGID_20_);}
	.st33{fill:url(#SVGID_21_);}
	.st34{opacity:0.5;fill:url(#SVGID_22_);}
	.st35{fill:none;}
	.st36{fill:url(#SVGID_23_);}
	.st37{fill:#DBC6CE;}
	.st38{fill:#A38791;}
	.st39{fill:url(#SVGID_24_);}
	.st40{fill:#E2D3D9;}
	.st41{fill:#9B8587;}
	.st42{fill:#674F43;}
	.st43{fill:#FF6224;}
	.st44{fill:#27B2FF;}
	.st45{fill:#F2FFC4;}
	.st46{fill:#E5DCE0;}
	.st47{fill:#F25136;}
	.st48{fill:#BC3F35;}
	.st49{fill:#A5231C;}
	.st50{fill:#EFC462;}
	.st51{fill:#4F3D18;}
	.st52{fill:#82632E;}
	.st53{opacity:0.3;fill:#725E4A;}
	.st54{opacity:0.3;fill:#F2FFC4;}
	.st55{fill:#A06FAA;}
	.st56{fill:#725E4A;}
	.st57{fill:url(#SVGID_25_);}
	.st58{fill:#C6A5CE;}
	.st59{fill:#FFEC9C;}
	.st60{fill:#FFFAE3;}
	.st61{fill:#E56829;}
	.st62{fill:#684622;}
	.st63{fill:url(#SVGID_26_);}
	.st64{opacity:0.7;fill:#FFE28F;}
	.st65{fill:url(#SVGID_27_);}
	.st66{fill:url(#SVGID_28_);}
	.st67{opacity:0.7;fill:#A86916;}
	.st68{fill:#F2DFEC;}
	.st69{fill:#BCA6B6;}
	.st70{fill:#DFCDD9;}
	.st71{fill:#E0FCFB;}
	.st72{fill:#FFFAF8;}
	.st73{fill:#A597A2;}
	.st74{fill:#B47123;}
	.st75{opacity:0.7;fill:#E8B525;}
	.st76{fill:#FFE28F;}
	.st77{fill:#8C7064;}
	.st78{fill:#CDEA86;}
	.st79{fill:#99E1FF;}
	.st80{fill:#4B4C48;}
	.st81{fill:#F4E4EF;}
	.st82{fill:#515A6D;}
</style>
<g>
	<g>
		<defs>
			<path id="SVGID_1_" d="M281.8,123H11.2C5,123,0,118,0,111.8V11.2C0,5,5,0,11.2,0h270.6C288,0,293,5,293,11.2v100.6
				C293,118,288,123,281.8,123z"/>
		</defs>
		<linearGradient id="SVGID_2_" gradientUnits="userSpaceOnUse" x1="2.728484e-12" y1="61.5" x2="293" y2="61.5">
			<stop  offset="5.376340e-03" style="stop-color:#B943D6"/>
			<stop  offset="1" style="stop-color:#4B007C"/>
		</linearGradient>
		<use xlink:href="#SVGID_1_"  style="overflow:visible;fill:url(#SVGID_2_);"/>
		<clipPath id="SVGID_3_">
			<use xlink:href="#SVGID_1_"  style="overflow:visible;"/>
		</clipPath>
		<linearGradient id="SVGID_4_" gradientUnits="userSpaceOnUse" x1="2.728484e-12" y1="61.5" x2="293" y2="61.5">
			<stop  offset="5.376340e-03" style="stop-color:#B943D6"/>
			<stop  offset="1" style="stop-color:#4B007C"/>
		</linearGradient>
		<path class="st0" d="M281.8,123H11.2C5,123,0,118,0,111.8V11.2C0,5,5,0,11.2,0h270.6C288,0,293,5,293,11.2v100.6
			C293,118,288,123,281.8,123z"/>
		<g class="st1">
			<linearGradient id="SVGID_5_" gradientUnits="userSpaceOnUse" x1="-63.8719" y1="51.1187" x2="138.5388" y2="51.1187">
				<stop  offset="5.376340e-03" style="stop-color:#B943D6"/>
				<stop  offset="1" style="stop-color:#4B007C"/>
			</linearGradient>
			<path class="st2" d="M4.7-39.7c-18.4,4.2-40.4,17.5-51.4,32.8c-9.7,13.4-16,27.9-16.8,44.4C-65,64-61.8,93.1-43.5,112.4
				c12.4,13.2,29.9,23.7,47.5,28.4c13.1,3.4,53.2,6.9,72.1,0c14.1-5.1,27.8-11.7,38.1-22.5c6.1-6.4,11.7-13.2,15.9-21
				c7.1-13.3,9.6-28.8,8.1-43.8c-1.4-15-4.6-30.7-11.8-44c-7-13-16.1-23.5-28-32.1C85.4-32,47.1-49.3,4.7-39.7z"/>
		</g>
	</g>
	<g>
		<g>
			<path class="st3" d="M184.9,91.9c-0.2-0.8-0.7-1.4-1.4-1.8c-0.4-0.2-0.9-0.3-1.4-0.3c-1,0-1.8,0.4-2.4,1.1s-1,1.9-1,3.4
				c0,1.5,0.3,2.6,1,3.2c0.7,0.6,1.5,0.9,2.3,0.9c0.9,0,1.6-0.2,2.1-0.7s0.9-1.1,1-1.9h-2.8v-2h5.1v6.6h-1.7l-0.3-1.5
				c-0.5,0.6-0.9,1-1.3,1.2c-0.7,0.4-1.5,0.6-2.5,0.6c-1.6,0-3-0.6-4-1.7c-1.1-1.1-1.6-2.7-1.6-4.6c0-2,0.5-3.6,1.6-4.8
				c1.1-1.2,2.5-1.8,4.3-1.8c1.6,0,2.8,0.4,3.7,1.2c0.9,0.8,1.5,1.8,1.6,3H184.9z"/>
			<path class="st3" d="M195.4,91.4c0.6,0.3,1.2,0.7,1.6,1.3c0.4,0.5,0.6,1.2,0.7,1.9c0.1,0.4,0.1,1,0.1,1.8h-6.6
				c0,0.9,0.4,1.5,0.9,1.9c0.4,0.2,0.8,0.3,1.3,0.3c0.5,0,1-0.1,1.3-0.4c0.2-0.1,0.3-0.4,0.5-0.6h2.4c-0.1,0.5-0.4,1.1-0.9,1.6
				c-0.8,0.9-1.9,1.3-3.4,1.3c-1.2,0-2.3-0.4-3.2-1.1c-0.9-0.7-1.4-2-1.4-3.6c0-1.6,0.4-2.8,1.2-3.6c0.8-0.8,1.9-1.3,3.2-1.3
				C194.1,91,194.8,91.1,195.4,91.4z M191.9,93.5c-0.3,0.3-0.5,0.8-0.6,1.4h4.1c0-0.6-0.3-1.1-0.6-1.4c-0.4-0.3-0.8-0.5-1.4-0.5
				C192.7,92.9,192.2,93.1,191.9,93.5z"/>
			<path class="st3" d="M206.4,99.2c-0.8,0.9-1.9,1.4-3.5,1.4c-1.6,0-2.7-0.5-3.5-1.4c-0.8-0.9-1.1-2.1-1.1-3.4
				c0-1.3,0.4-2.4,1.1-3.4c0.8-1,1.9-1.4,3.5-1.4c1.6,0,2.7,0.5,3.5,1.4c0.8,1,1.1,2.1,1.1,3.4C207.6,97.1,207.2,98.2,206.4,99.2z
				 M204.5,97.9c0.4-0.5,0.6-1.2,0.6-2.1s-0.2-1.6-0.6-2.1c-0.4-0.5-0.9-0.7-1.6-0.7c-0.7,0-1.2,0.2-1.6,0.7
				c-0.4,0.5-0.6,1.2-0.6,2.1s0.2,1.6,0.6,2.1c0.4,0.5,0.9,0.7,1.6,0.7C203.6,98.6,204.2,98.4,204.5,97.9z"/>
			<path class="st3" d="M213.6,91.2c0.6,0.2,1,0.7,1.4,1.3v-1.3h2.3v8.6c0,1.2-0.2,2-0.6,2.6c-0.7,1-2,1.5-3.9,1.5
				c-1.2,0-2.1-0.2-2.8-0.7s-1.1-1.1-1.2-2h2.6c0.1,0.3,0.2,0.5,0.3,0.6c0.3,0.2,0.7,0.3,1.3,0.3c0.9,0,1.4-0.3,1.7-0.9
				c0.2-0.4,0.3-1,0.3-1.8v-0.6c-0.2,0.4-0.5,0.7-0.7,0.9c-0.5,0.4-1.1,0.5-1.8,0.5c-1.2,0-2.1-0.4-2.8-1.2c-0.7-0.8-1-1.9-1-3.3
				c0-1.3,0.3-2.5,1-3.4s1.6-1.4,2.8-1.4C212.9,91,213.3,91.1,213.6,91.2z M214.4,97.7c0.4-0.4,0.6-1.1,0.6-2c0-0.9-0.2-1.5-0.5-2
				c-0.4-0.4-0.8-0.7-1.5-0.7c-0.8,0-1.4,0.4-1.7,1.2c-0.2,0.4-0.2,0.9-0.2,1.5c0,0.5,0.1,1,0.3,1.4c0.3,0.8,0.9,1.1,1.7,1.1
				C213.6,98.3,214,98.1,214.4,97.7z"/>
			<path class="st3" d="M224.4,91c0,0,0.1,0,0.2,0v2.4c-0.1,0-0.3,0-0.4,0s-0.2,0-0.3,0c-1,0-1.6,0.3-1.9,0.9
				c-0.2,0.3-0.3,0.9-0.3,1.6v4.3h-2.4v-9h2.3v1.6c0.4-0.6,0.7-1,1-1.2c0.4-0.4,1-0.6,1.7-0.6C224.4,91,224.4,91,224.4,91z"/>
			<path class="st3" d="M229.5,94.8c0.4-0.1,0.8-0.1,0.9-0.2c0.3-0.1,0.5-0.4,0.5-0.7c0-0.4-0.1-0.6-0.4-0.8
				c-0.3-0.1-0.6-0.2-1.1-0.2c-0.6,0-1,0.1-1.2,0.4c-0.2,0.2-0.3,0.5-0.3,0.8h-2.3c0-0.8,0.3-1.4,0.7-2c0.6-0.8,1.7-1.2,3.2-1.2
				c1,0,1.9,0.2,2.7,0.6c0.8,0.4,1.2,1.1,1.2,2.2V98c0,0.3,0,0.6,0,1c0,0.3,0.1,0.5,0.1,0.6c0.1,0.1,0.2,0.2,0.3,0.3v0.3h-2.6
				c-0.1-0.2-0.1-0.4-0.1-0.5c0-0.2,0-0.3-0.1-0.5c-0.3,0.4-0.7,0.7-1.1,0.9c-0.5,0.3-1.1,0.4-1.7,0.4c-0.8,0-1.5-0.2-2-0.7
				s-0.8-1.1-0.8-2c0-1.1,0.4-1.9,1.3-2.4c0.5-0.3,1.2-0.5,2.1-0.6L229.5,94.8z M230.9,95.9c-0.2,0.1-0.3,0.2-0.5,0.2
				c-0.2,0.1-0.4,0.1-0.6,0.2l-0.5,0.1c-0.5,0.1-0.9,0.2-1.1,0.3c-0.4,0.2-0.6,0.6-0.6,1c0,0.4,0.1,0.7,0.3,0.9s0.5,0.3,0.8,0.3
				c0.5,0,1-0.2,1.4-0.4s0.7-0.8,0.7-1.6V95.9z"/>
			<path class="st3" d="M242.8,92.2c0.7,0.8,1.1,1.9,1.1,3.4c0,1.6-0.4,2.8-1.1,3.6c-0.7,0.8-1.6,1.3-2.8,1.3
				c-0.7,0-1.3-0.2-1.8-0.5c-0.3-0.2-0.5-0.5-0.8-0.9v4.7h-2.3V91.2h2.3v1.3c0.3-0.4,0.5-0.7,0.8-0.9c0.5-0.4,1.2-0.6,1.9-0.6
				C241.2,91,242.1,91.4,242.8,92.2z M241,93.9c-0.3-0.5-0.8-0.8-1.6-0.8c-0.9,0-1.5,0.4-1.8,1.2c-0.2,0.4-0.3,1-0.3,1.6
				c0,1.1,0.3,1.8,0.8,2.2c0.3,0.2,0.7,0.4,1.2,0.4c0.7,0,1.2-0.3,1.5-0.8s0.5-1.2,0.5-2C241.5,95.1,241.4,94.4,241,93.9z"/>
			<path class="st3" d="M252,91.3c0.5,0.2,0.8,0.5,1.1,0.9c0.2,0.3,0.4,0.7,0.5,1c0.1,0.4,0.1,0.9,0.1,1.7v5.3h-2.4v-5.5
				c0-0.5-0.1-0.9-0.2-1.2c-0.2-0.4-0.6-0.6-1.2-0.6c-0.6,0-1.1,0.2-1.4,0.6c-0.3,0.4-0.5,1-0.5,1.8v4.9h-2.4V88.1h2.4v4.3
				c0.3-0.5,0.7-0.9,1.2-1.1c0.4-0.2,0.9-0.3,1.4-0.3C251,91,251.6,91.1,252,91.3z"/>
			<path class="st3" d="M256.1,102l0.3,0c0.2,0,0.5,0,0.7,0c0.2,0,0.4-0.1,0.5-0.2c0.1-0.1,0.3-0.3,0.4-0.6s0.2-0.5,0.2-0.5
				l-3.3-9.4h2.6l2,6.7l1.9-6.7h2.5l-3.1,8.9c-0.6,1.7-1.1,2.8-1.4,3.2c-0.3,0.4-1,0.6-2.1,0.6c-0.2,0-0.4,0-0.5,0
				c-0.1,0-0.3,0-0.6,0V102z"/>
		</g>
	</g>
	<g>
		<polygon class="st4" points="103.6,94.5 123.2,78 72.5,69.5 53,78 33.1,84.2 71.9,94.1 78.9,99.2 81.3,102.8 100.9,97 		"/>
		<path class="st5" d="M56.3,77.5c0-1.6-5.7-4-12.6-4c-6.9,0-12.5,2.4-12.5,4C34.9,83.6,51.5,83.4,56.3,77.5z"/>
		<path class="st3" d="M34.5,84.3c0,0,27.4,3.4,35.8,8.3c8.4,4.9,19.2,6.7,19.2,6.7l11.9-3.5l14.6-15.1c0,0,7-3.5,8.6-3.8
			c1.6-0.3-34.8-7.3-34.8-7.3l-13.1-2.2L51.1,78.7L34.5,84.3z"/>
		<g>
			<g>
				<path class="st6" d="M88.7,76.6l-16.4,17c8,4.1,17.2,5.7,17.2,5.7l11.9-3.5l14.6-15.1c0,0,0.2-0.1,0.4-0.2l-5.3-4L88.7,76.6z"/>
			</g>
		</g>
		<linearGradient id="SVGID_6_" gradientUnits="userSpaceOnUse" x1="39.6847" y1="83.2319" x2="119.3355" y2="83.2319">
			<stop  offset="0" style="stop-color:#CE5B38"/>
			<stop  offset="1" style="stop-color:#DB8346"/>
		</linearGradient>
		<path class="st7" d="M89.3,97.7c-1.9-0.4-11.1-2.3-18.3-6.5c-6.2-3.6-22.9-5.8-31.4-7.5L51.3,80l25.8-11.2l12,2.4l0.2,0
			c9.3,1.8,22.9,4.5,30,6c-1.7,0.8-3.4,1.6-4.2,2l-0.2,0.1l-14.5,15L89.3,97.7z"/>
		<g class="st8">
			<path class="st9" d="M64.8,88L68,89l3.4,1.4l2.8,1.1c0,0,3.1,1.8,3.4,1.9c0.2,0,4.9,1.2,4.9,1.2l-6-5.3l-2.5-0.7l-2.3-0.3l-1.7,0
				l-2.8-0.5l-1.7,0L64.8,88z"/>
			<path class="st9" d="M57.6,80.2l1,0.3l2.8-0.5l2.6-0.3c0,0,0.6-0.5,0.7-0.9c0.1-0.4,0.3-0.9,0.3-0.9l-0.5-1l0.8-0.4l3.3,0.4
				c0,0,0.8-0.2,1.1-0.3c0.3,0,1.1-0.3,1.4-0.5c0.3-0.3,0.9-0.6,1.1-1c0.2-0.4,1.6,0.1,1.6,0.1l1.6-1.6l2.1-1.6l-2.2,0.5
				c-0.6-0.6-1-0.6-1-0.6l-1.7-0.5l-7.8,3.5l-0.3,1c-0.7,0.4-1.7,0.3-1.7,0.3L57,78.5l-0.6,0.4l-1,0.5c-0.3,0.4,1.3,0.8,1.3,0.8
				L57.6,80.2z"/>
			<path class="st9" d="M76.2,77.4l-1,1.1l0.6,0.8l1-0.2l0.6,0.2l0.9,0.8l0.9,0l0.2,1.8l-0.9,0.4c0.7,0.3,1,0.6,1.1,0.4
				c0.1-0.2,0.4-0.8,0.4-0.8l0.1-0.9c0.6,0,0.6,0,0.6,0s-0.3-0.7,0,0c0.3,0.7,0.3,0.7,0.3,0.7l1.3,0c0.8-0.1,1.3-0.3,1.3-0.3l1,0.9
				l-1,0.5c-0.6-0.1-1.4,1-1.4,1l-0.9,0.6l-0.9,0.4c0,0-1.1-0.1-1.2-0.3c-0.1-0.3-0.5-0.3-0.8-0.5c-0.3-0.2-0.6-0.4-0.6-0.6
				c0-0.2-0.7-1.1-0.7-1.1l-1.7-1.4l-1.9-0.4l-0.8,1.3l-0.4,1.6l0.1,1.4L72,85.7c0,0,0,0.5,0.2,0.6c0.2,0.1,0.2,0.9,0.5,0.9
				c0.3,0,1.2,0.4,1.4,0.4c0.2,0,1.4-1.1,1.8-1.2c0.4-0.1,1.3-0.9,1.5-0.9c0.2,0,1,0.3,1.3,0.3c0.3,0,0.6,0.8,0.6,0.8l1.5,1
				c0.9,0.1,2.8-0.7,2.8-0.7l2.5,0l3.5,1.4l0.3,0.7l-0.5,2.7l2.7,4.5l7.5-2.6l1.8-1.3l3.3-3.5l9.5-9.6l2.9-1.5
				c0,0-10.5-1.1-10.5-1.4c0-0.3-5.9,0.1-5.9,0.1l-2.4,0.1l-4.2-0.8l-0.3-1.1L91,73.8l-1.4,0.5c0,0-1.5,0.9-1.7,1.3
				c-0.2,0.3-0.8,0.7-0.5,0.9c0.3,0.2,0.9,0.4,1.2,0.3c1-0.4,2.7,0.4,2.7,0.4c0.5-0.1,0.2,0.7,0.2,0.7l-1.8-0.1L88.5,78l-1.2-0.4
				l-2.6,0.3l-0.5-0.3l0.8-0.8c0.7-0.6,0.7-0.6,0.7-0.6l-1-0.1c-0.6,0.6-1.2,1-1.2,1c-0.4,0.1-1.3,0.1-1.3,0.1l-1,0.1
				c-0.6-0.1-1.2-0.3-1.2-0.3c-1.1,0.2-1.4,0.6-1.4,0.6c-0.8,0.1-1.2-0.1-1.2-0.1L76.2,77.4z"/>
			<polygon class="st9" points="93.4,72.8 94.6,74.3 96.8,74.9 99.6,74.9 101.2,74 			"/>
			<path class="st9" d="M68.4,86.7l1.7-0.9l1,0c0.3,0.3-0.3,0.8-0.5,0.9c-0.2,0-0.9,0.3-0.9,0.3L68.4,86.7z"/>
		</g>
		<linearGradient id="SVGID_7_" gradientUnits="userSpaceOnUse" x1="17.3984" y1="54.8244" x2="82.1871" y2="19.6275">
			<stop  offset="0" style="stop-color:#60CED1"/>
			<stop  offset="1" style="stop-color:#6EDDE0"/>
		</linearGradient>
		<path class="st10" d="M74.6,33.1c-2.9-13.4-18.2-21.5-34.1-18c-16,3.5-26.6,17.2-23.7,30.6c2.9,13.4,18.2,21.5,34.1,18
			C66.9,60.3,77.5,46.6,74.6,33.1z"/>
		<path class="st11" d="M47.3,64.9c-8.2,1.6-15.5-5-18-14.7c-0.6-2.4-1.5-3.6-1.3-2.2c1.6,11.3,9,19.9,17.9,19.9
			c6.4,0,12.3-5.2,15.5-11.9C60.7,54.3,54.9,63.4,47.3,64.9z"/>
		<path class="st12" d="M47.3,65.9c-8.3,0-15.3-6.7-17.8-16.1c-0.6-2.3-1.7-1.5-1.5-0.1c1.6,10.8,9,19,17.9,19
			c6.4,0,11.4-4.8,14.6-11.2C57.1,62.3,52.8,65.9,47.3,65.9z"/>
		<linearGradient id="SVGID_8_" gradientUnits="userSpaceOnUse" x1="18.2063" y1="54.3853" x2="81.7827" y2="19.847">
			<stop  offset="0.371" style="stop-color:#278F91"/>
			<stop  offset="0.4839" style="stop-color:#2B9496"/>
			<stop  offset="1" style="stop-color:#6EDDE0"/>
		</linearGradient>
		<path class="st13" d="M74.1,33.3c-2.8-13.2-17.8-21.1-33.5-17.7c-15.7,3.4-26.1,16.9-23.2,30c2.8,13.2,17.8,21.1,33.5,17.7
			C66.5,59.9,76.9,46.4,74.1,33.3z"/>
		<polygon class="st14" points="41.1,80.9 43.7,82.4 60,82.4 57.6,80.1 57.8,77.3 56.5,76.1 		"/>
		<path class="st15" d="M58.3,77.3c0-1.4-5.8-2.9-12.8-3c-7.1-0.1-12.8,1.9-12.8,3.4C36.4,83.1,53.7,83.5,58.3,77.3z"/>
		<linearGradient id="SVGID_9_" gradientUnits="userSpaceOnUse" x1="28.5692" y1="77.3817" x2="54.0836" y2="77.3817">
			<stop  offset="0" style="stop-color:#CC9C23"/>
			<stop  offset="0.8118" style="stop-color:#EBBF3C"/>
		</linearGradient>
		<path class="st16" d="M58.4,77.1c-1.9-2.5-5.7-4-12.8-4c-7,0-10.4,1.8-12.7,4C36.7,83.2,53.6,83.1,58.4,77.1z"/>
		<linearGradient id="SVGID_10_" gradientUnits="userSpaceOnUse" x1="35.9941" y1="77.3817" x2="61.5085" y2="77.3817">
			<stop  offset="0" style="stop-color:#CC9C23"/>
			<stop  offset="0.8118" style="stop-color:#EBBF3C"/>
		</linearGradient>
		<path class="st17" d="M58.4,77.1c-1.9-2.5-5.7-4-12.8-4c-7,0-10.4,1.8-12.7,4C36.7,83.2,53.6,83.1,58.4,77.1z"/>
		<linearGradient id="SVGID_11_" gradientUnits="userSpaceOnUse" x1="22.5786" y1="76.9162" x2="45.6928" y2="76.9162">
			<stop  offset="0" style="stop-color:#CC9C23"/>
			<stop  offset="0.8118" style="stop-color:#EBBF3C"/>
		</linearGradient>
		<path class="st18" d="M57.5,76.7c-1.7-2.2-5.2-3.5-11.6-3.5c-6.4,0-9.4,1.6-11.5,3.5C37.8,82,53.1,81.9,57.5,76.7z"/>
		<path class="st19" d="M57.6,76.9c-0.6-1.3-4.5-3-9.2-3c-4.7,0-2.8,1.2-2.8,2.9s-2,3.1,2.8,3.1C53.2,79.9,56.9,78.1,57.6,76.9z"/>
		
			<linearGradient id="SVGID_12_" gradientUnits="userSpaceOnUse" x1="3.9356" y1="56.9479" x2="56.0089" y2="28.6588" gradientTransform="matrix(0.9346 8.000000e-04 8.000000e-04 0.9382 17.0437 -0.9669)">
			<stop  offset="0" style="stop-color:#278F91"/>
			<stop  offset="1" style="stop-color:#6EDDE0"/>
		</linearGradient>
		<path class="st20" d="M72.9,32.7c-2.7-12.4-16.7-19.8-31.3-16.6C27,19.3,17.3,31.9,19.9,44.3c2.7,12.4,16.7,19.8,31.3,16.6
			C65.9,57.7,75.6,45.1,72.9,32.7z"/>
		<g>
			<linearGradient id="SVGID_13_" gradientUnits="userSpaceOnUse" x1="54.9653" y1="32.2159" x2="22.2963" y2="80.4094">
				<stop  offset="0.371" style="stop-color:#278F91"/>
				<stop  offset="0.4839" style="stop-color:#2B9496"/>
				<stop  offset="1" style="stop-color:#6EDDE0"/>
			</linearGradient>
			<path class="st21" d="M72.2,38.6c-1.8-8.3-11.9-0.5-13-5.6c-0.3-1.4,1.3-2.2,0.6-4c-0.7-2,0.7-1.5,0.5-2.4
				c-0.6-2.9-2-4.2-1.7-6.6c-1-3.1-4.2-4.4-7.5-4.2c-4.1,0.3-5.1-0.4-9.8,1.1c-0.5,0.1-1.2-0.4-2.7,1.1c-1.8,1.7-2,3.2-2.1,5.2
				c-0.5,0.3,3.6,2.4,3.8,3.2c0.7,3.2,4.5,4.5,4.5,4.5c0.7,3.5,8.5,8.9,8.3,7.8c-0.3-1.4-1.1-1.2-1.4-2.5c4,0.7,3.2,1,3.2,1
				c0.6-0.1,6.3-0.6,6.9-0.7c0.7-0.2-1.3,2-2,3c-1,1.4-0.5,0.8,0,3.3c0.1,0.5-1,0.6-0.8,1.5c0,0.1,3.8,2.9,4.1,4.1
				c0.4,1.7-5.5,10.7-6.1,11.5C67.1,57.3,73.4,44.3,72.2,38.6z"/>
			<linearGradient id="SVGID_14_" gradientUnits="userSpaceOnUse" x1="38.1489" y1="20.8155" x2="5.4793" y2="69.0098">
				<stop  offset="0.371" style="stop-color:#278F91"/>
				<stop  offset="0.4839" style="stop-color:#2B9496"/>
				<stop  offset="1" style="stop-color:#6EDDE0"/>
			</linearGradient>
			<path class="st22" d="M21.8,41.8c0.1,0.6,3.6,9.6,1.3-1.1c-0.1-0.5,0.5-1.1,0.6-1.6C22.9,39.7,21.6,40.9,21.8,41.8z"/>
			<linearGradient id="SVGID_15_" gradientUnits="userSpaceOnUse" x1="32.9277" y1="17.2778" x2="0.2591" y2="65.4708">
				<stop  offset="0.371" style="stop-color:#278F91"/>
				<stop  offset="0.4839" style="stop-color:#2B9496"/>
				<stop  offset="1" style="stop-color:#6EDDE0"/>
			</linearGradient>
			<path class="st23" d="M24.4,25.6c-4,4.4-6.4,9.9-6.5,15.5c1-2.9,5.8-9.2,6.4-9.4c0.4-0.1,0.8,0.8,1.3,0.7
				c0.9-0.2,1.8-3.5,1.4-5.4c-0.1-0.4-0.2-0.8-0.3-1.1c-0.1-0.6-0.2-1.3-0.2-1.9C25.8,24.4,25.1,25,24.4,25.6z"/>
			<linearGradient id="SVGID_16_" gradientUnits="userSpaceOnUse" x1="42.4156" y1="23.7159" x2="9.7525" y2="71.9007">
				<stop  offset="0.371" style="stop-color:#278F91"/>
				<stop  offset="0.4839" style="stop-color:#2B9496"/>
				<stop  offset="1" style="stop-color:#6EDDE0"/>
			</linearGradient>
			<path class="st24" d="M25.8,53.9c-0.4-2-4.4-3.6-6.4-4.9c1.2,3,3,5.6,5.3,7.8c0,0,0,0,0,0C27.8,55.9,26.1,55.1,25.8,53.9z"/>
			<linearGradient id="SVGID_17_" gradientUnits="userSpaceOnUse" x1="53.9418" y1="31.5258" x2="21.2763" y2="79.7142">
				<stop  offset="0.371" style="stop-color:#278F91"/>
				<stop  offset="0.4839" style="stop-color:#2B9496"/>
				<stop  offset="1" style="stop-color:#6EDDE0"/>
			</linearGradient>
			<path class="st25" d="M38.8,60.4c-0.1-0.6-2.3-2-9.5-1c0,0,0,0,0,0c-0.3,0.1-0.5,0.3-0.5,0.5c2.6,1.6,6,2.5,9.2,3.2
				C39.3,62.2,39.3,62.4,38.8,60.4z"/>
		</g>
		<g>
			<path class="st26" d="M72.7,38.4c-1.8-8.3-11.9-0.5-13-5.6c-0.3-1.4,1.3-2.2,0.6-4c-0.7-2,0.7-1.5,0.5-2.4
				c-0.6-2.9-2-4.2-1.7-6.6c-1-3.1-4.2-4.4-7.5-4.2c-4.1,0.3-5.1-0.4-9.8,1.1c-0.5,0.1-1.2-0.4-2.7,1.1c-1.8,1.7-2,3.2-2.1,5.2
				c-0.5,0.3,3.6,2.4,3.8,3.2c0.7,3.2,4.5,4.5,4.5,4.5c0.7,3.5,8,8.6,7.7,7.5c-0.3-1.4-0.6-0.8-0.9-2.2c4,0.7,3.2,1,3.2,1
				c0.6-0.1,6.3-0.6,6.9-0.7c0.7-0.2-1.3,2-2,3c-1,1.4-0.5,0.8,0,3.3c0.1,0.5-1,0.6-0.8,1.5c0,0.1,3.8,2.9,4.1,4.1
				c0.4,1.7-5.5,10.7-6.1,11.5C67.6,57.1,73.9,44.2,72.7,38.4z"/>
			<path class="st26" d="M22.3,41.6c0.1,0.6,2.4,9.6,1.3-1.1c0-0.5-0.1-0.9-0.1-1.4C22.8,39.8,22.1,40.7,22.3,41.6z"/>
			<path class="st26" d="M25,25.4c-4,4.4-6.8,9.7-6.9,15.3c1-2.9,6.2-9,6.8-9.1c0.4-0.1,0.8,0.8,1.3,0.7c0.9-0.2,1.8-3.5,1.4-5.4
				c-0.1-0.4-0.2-0.8-0.3-1.1c-0.1-0.6-0.2-1.3-0.2-1.9C26.4,24.3,25.6,24.8,25,25.4z"/>
			<path class="st26" d="M26.4,53.7c-0.4-2-4.8-3.4-6.8-4.7c1.2,3,3.4,5.4,5.7,7.6c0,0,0,0,0,0C28.3,55.7,26.6,54.9,26.4,53.7z"/>
			<path class="st26" d="M39.4,60.2c-0.1-0.6-2.3-2-9.5-1c0,0,0,0,0,0c-0.3,0.1-0.5,0.3-0.5,0.5c2.6,1.6,6,2.5,9.2,3.2
				C39.9,62.1,39.8,62.2,39.4,60.2z"/>
		</g>
		<g class="st27">
			<path class="st19" d="M28,38.5c2.6,11.9,16.2,19.1,30.3,16c4.6-1,8.7-3,12-5.6c2.8-4.7,3.9-10.1,2.8-15.5
				c-2.7-12.7-17.3-20.4-32.4-17.1c-1.8,0.4-3.5,0.9-5.1,1.6C29.5,23.3,26.4,31,28,38.5z"/>
		</g>
		<path class="st28" d="M21.4,43.7c-1.3-6.2,0.2-12.4,3.8-17.7c-0.4,0.2-0.8,0.4-1.2,0.6C16.2,31.1,14.1,42,19.3,51
			c4.3,7.5,12.2,11.4,19.2,10C29.9,58.5,23.2,52.2,21.4,43.7z"/>
		<g class="st27">
			<path class="st19" d="M47.7,27.4c-1.3,5.6,5.1,10.9,12.5,11.9c2.1,0.3,4,0.1,5.7-0.3c1.8-1.1,3.1-2.6,3.6-4.3
				c1.3-4.3-2.4-9.7-9.5-12.4c-1-0.4-1.9-0.7-2.9-0.9C52.4,21.6,48.5,23.8,47.7,27.4z"/>
		</g>
		
			<linearGradient id="SVGID_18_" gradientUnits="userSpaceOnUse" x1="44.2812" y1="-57.234" x2="53.7164" y2="-62.3598" gradientTransform="matrix(0.8954 -0.4453 0.3562 0.7163 8.0279 109.603)">
			<stop  offset="0.371" style="stop-color:#278F91"/>
			<stop  offset="0.4839" style="stop-color:#2B9496"/>
			<stop  offset="1" style="stop-color:#6EDDE0"/>
		</linearGradient>
		<path class="st29" d="M33.6,43.7c-1.1-2.2-3.5-3.1-5.4-2.2c-1.9,0.9-2.6,3.5-1.5,5.6c1.1,2.2,3.5,3.1,5.4,2.2
			C34,48.4,34.7,45.9,33.6,43.7z"/>
		<linearGradient id="SVGID_19_" gradientUnits="userSpaceOnUse" x1="27.9427" y1="46.1735" x2="33.8174" y2="46.1735">
			<stop  offset="0" style="stop-color:#CC9C23"/>
			<stop  offset="0.8118" style="stop-color:#EBBF3C"/>
		</linearGradient>
		<path class="st30" d="M30.9,44.9c-0.8-1.6-2.6-2.3-4-1.6c-1.4,0.7-1.9,2.6-1.1,4.2c0.8,1.6,2.6,2.3,4,1.6
			C31.2,48.4,31.7,46.5,30.9,44.9z"/>
		<path class="st31" d="M30.4,45.1c-0.7-1.4-2.2-2-3.4-1.4c-1.2,0.6-1.6,2.2-1,3.5c0.7,1.4,2.2,2,3.4,1.4
			C30.6,48,31.1,46.4,30.4,45.1z"/>
		
			<linearGradient id="SVGID_20_" gradientUnits="userSpaceOnUse" x1="-9.9391" y1="58.8296" x2="-4.0643" y2="58.8296" gradientTransform="matrix(0.8375 4.380000e-02 4.370000e-02 0.9038 32.9189 -6.3591)">
			<stop  offset="0" style="stop-color:#CC9C23"/>
			<stop  offset="0.8118" style="stop-color:#EBBF3C"/>
		</linearGradient>
		<path class="st32" d="M29.6,45.4c-0.7-1.5-2.3-2.2-3.4-1.7c-1.2,0.6-1.5,2.3-0.7,3.7c0.7,1.5,2.3,2.2,3.4,1.7
			C30,48.5,30.4,46.8,29.6,45.4z"/>
		<linearGradient id="SVGID_21_" gradientUnits="userSpaceOnUse" x1="27.6055" y1="62.723" x2="43.9222" y2="62.723">
			<stop  offset="0" style="stop-color:#CC9C23"/>
			<stop  offset="0.8118" style="stop-color:#EBBF3C"/>
		</linearGradient>
		<path class="st33" d="M51.6,65.1c-1.4,0.5-2.8,0.8-4.3,0.8c-8.3,0-15.3-6.7-17.8-16.1c-0.6-2.3-1.7-1.5-1.5-0.1
			c1.5,10,7.9,17.7,15.9,18.9c0,0,0,0.1,0,0.1c0,0.5,0.4,1,1,1.2c-0.8,0.6-1.3,1.9-1.3,3.4c0,2,1,3.7,2.2,3.7c1.2,0,2.2-1.7,2.2-3.7
			c0-1.5-0.6-2.9-1.3-3.4c0.6-0.2,1-0.7,1-1.2c0,0,0-0.1,0-0.1C53.2,67.9,55.1,63.8,51.6,65.1z"/>
		<path class="st31" d="M47.4,72.8c-0.1-0.6-0.4-1.1-0.7-1.1c-0.3,0-0.5,0.6-0.4,1.2c0.1,0.6,0.4,1.1,0.7,1.1
			C47.3,73.9,47.5,73.4,47.4,72.8z"/>
		<g>
			<linearGradient id="SVGID_22_" gradientUnits="userSpaceOnUse" x1="28.5291" y1="62.8109" x2="50.3154" y2="62.8109">
				<stop  offset="0" style="stop-color:#CC9C23"/>
				<stop  offset="0.8118" style="stop-color:#EBBF3C"/>
			</linearGradient>
			<path class="st34" d="M46.1,69.9c-0.7-0.3,2.5-3,4.3-4.4c-1.6,0.7-15.8,2.4-21-16.2c-0.5-1-0.9-0.4-0.7,1
				c1.3,9.1,7.7,17,15.6,18.1c0,0,0,0.1,0,0.1c0,0.5,0.4,1,1,1.2c-0.8,0.6-1.3,1.9-1.3,3.4c0,2,1,3.7,2.2,3.7c0,0,0,0,0.1,0
				C45.4,75.6,44.6,72.9,46.1,69.9z"/>
		</g>
		<g>
			<path class="st35" d="M48.5,66.9c-2.7,0.1-5.9-0.7-9.1-2.5C33.5,61.2,29.2,54,29.1,48.9c-0.4-0.5-0.7,0.2-0.5,1.4
				c1.3,9.1,7.7,17,15.6,18.1c0,0,0,0.1,0,0.1c0,0.5,0.4,1,1,1.2c-0.8,0.6-1.3,1.9-1.3,3.4c0,2,1,3.7,2.2,3.7c0,0,0,0,0.1,0
				c-0.6-1.3-1.4-4,0-7C45.5,69.6,47,68.2,48.5,66.9z"/>
			
				<linearGradient id="SVGID_23_" gradientUnits="userSpaceOnUse" x1="57.3632" y1="154.1944" x2="87.9673" y2="154.1944" gradientTransform="matrix(0.9015 0.4971 -0.4829 0.8757 48.8918 -111.3192)">
				<stop  offset="0" style="stop-color:#CC9C23"/>
				<stop  offset="0.8118" style="stop-color:#EBBF3C"/>
			</linearGradient>
			<path class="st36" d="M39.4,64.4c3.3,1.8,7.1,2.5,9.8,2.4c0.6-0.5,1.3-0.9,1.9-1.2c-1.6,0.7-16.5,2.3-21.7-16.3
				c-0.1-0.2-0.2-0.3-0.2-0.4C29.2,54,33.5,61.2,39.4,64.4z"/>
		</g>
		<path class="st12" d="M25.8,45.6c-0.2,0.5-0.2,1.2,0.2,1.8c0.5,0.8,1,0.9,1.6,1C26.5,47.2,26.2,46.5,25.8,45.6z"/>
		<path class="st37" d="M32.2,84.3c-0.2-0.1-1-0.6-1.2-0.7c-0.5-0.3-1.4,0.4-1.9,1.4c-0.5,1-0.4,2.1,0.1,2.3c0.2,0.1,1,0.6,1.2,0.7
			c0.5,0.3,1.4-0.4,1.9-1.4C32.7,85.6,32.7,84.5,32.2,84.3z"/>
		<g>
			<path class="st3" d="M32.1,84.6l-2-0.9c-0.3,0.2-0.5,0.4-0.8,0.8l2.1,0.7L32.1,84.6z"/>
		</g>
		<g>
			<path class="st35" d="M32.2,84.3c-0.2-0.1-1-0.6-1.2-0.7c-0.2-0.1-0.3-0.1-0.5,0l1.6,0.8l-0.1,0.2l-1.7-0.9
				c-0.2,0.1-0.4,0.3-0.6,0.6l1.7,0.9l-0.1,0.2l-1.8-0.9c-0.1,0.2-0.2,0.3-0.3,0.5c0,0.1-0.1,0.2-0.1,0.3l1.7,0.9l-0.1,0.2l-1.7-0.9
				c-0.1,0.3-0.1,0.5-0.1,0.7l1.7,0.9l-0.1,0.2l-1.6-0.8c0,0.2,0.1,0.4,0.2,0.5l1.6,0.9l-0.1,0.1c0.5,0.2,1.3-0.4,1.8-1.4
				C32.7,85.6,32.7,84.5,32.2,84.3z"/>
			<path class="st38" d="M30.5,87.2l-1.7-0.9c0,0.1,0,0.2,0,0.3l1.6,0.8L30.5,87.2z"/>
			<path class="st38" d="M28.9,87.1c0.1,0.1,0.2,0.2,0.3,0.3c0.2,0.1,1,0.6,1.2,0.7c0,0,0.1,0,0.1,0l0.1-0.1L28.9,87.1z"/>
			<path class="st38" d="M30.7,86.2L29,85.3c0,0.1-0.1,0.2-0.1,0.2l1.7,0.9L30.7,86.2z"/>
			<path class="st38" d="M31.2,85.2l-1.7-0.9c0,0.1-0.1,0.1-0.1,0.2l1.8,0.9L31.2,85.2z"/>
			<path class="st38" d="M32,84.4l-1.6-0.8c-0.1,0-0.2,0.1-0.3,0.1l1.7,0.9L32,84.4z"/>
		</g>
		<path class="st38" d="M32.2,86.6c0.5-1,0.4-2.1-0.1-2.3c-0.5-0.3-1.4,0.4-1.9,1.4c-0.5,1-0.4,2.1,0.1,2.3
			C30.9,88.3,31.8,87.7,32.2,86.6z"/>
		<g>
			<path class="st4" d="M58.1,101.7c-0.4-0.2-0.9-0.2-1.7-0.2c-3.4,0-13.6,3.3-13.6,3.3c0-2,4.2-3.9,8.2-5.8
				c3.7-1.7,5.1-2.6,5.1-4.1c0-2.6-4.7-1.7-7.8-1.9c0.8-0.5,1.3-1,1.5-1.5c-1.4-1.5-5.2-4.2-11.5-4.2c-6.4,0-10,2.7-11.5,4.2
				c1.2,1.8,5.2,4.2,11.5,4.2c4.1,0,7.1-1,9.1-2.3c1.1,0.6,8.1-1.1,8.1,1.4c0,1.1-1.6,2.1-4.8,3.6c-4.3,2.1-8.5,3.9-8.5,6.3
				c0,0.7,2.2,1.9,5.1,1.9c5.9,0,11.4-2.6,11.4-4.2C58.8,102.3,58.7,101.9,58.1,101.7z M47.4,106.2c-1.9,0-3.3-0.5-4-1
				c6-2.1,10.5-3.2,13.1-3.2c0.6,0,1.2,0.1,1.5,0.2c0.2,0.1,0.3,0.2,0.3,0.3C58.3,103.5,53.4,106.2,47.4,106.2z"/>
			<path class="st37" d="M50.2,86.9c-1.2-1.2-4.4-3.3-9.7-3.3c-5.4,0-8.5,2.1-9.7,3.3c0,1.2-0.1,2.3,0,4.5c1,1.4,4.4,3.2,9.7,3.2
				c5.4,0,9-2.1,9.7-3.2C50.2,90.2,50.2,87.7,50.2,86.9z"/>
			<radialGradient id="SVGID_24_" cx="30.4823" cy="90.7997" r="15.9568" gradientUnits="userSpaceOnUse">
				<stop  offset="0" style="stop-color:#A0828D"/>
				<stop  offset="1" style="stop-color:#BCAAB0"/>
			</radialGradient>
			<path class="st39" d="M50.2,86.8c-1.1-1.1-4.3-3.2-9.6-3.2c-5.3,0-8.4,2-9.6,3.2c0,1.2-0.1,2.3,0,4.3c1,1.3,4.3,3.1,9.6,3.1
				c5.3,0,8.9-2,9.6-3.1C50.2,90,50.2,87.5,50.2,86.8z"/>
			<g>
				<path class="st35" d="M40.5,83.6c-5.4,0-8.5,2.1-9.7,3.3c0,1.2-0.1,2.3,0,4.5c0.7,0.9,2.4,2,5,2.7v-7.6h6.7v8
					c0.3,0,0.6-0.1,0.9-0.1v-8.9h2.1v8.5c2.5-0.7,4.2-1.8,4.7-2.5c0-1.2,0-3.7,0-4.5C49,85.7,45.8,83.6,40.5,83.6z"/>
				<path class="st37" d="M35.7,86.4V94c1.3,0.3,2.9,0.5,4.7,0.5c0.7,0,1.4,0,2-0.1v-8H35.7z"/>
				<path class="st37" d="M43.4,85.4v8.9c0.8-0.1,1.4-0.3,2.1-0.4v-8.5H43.4z"/>
			</g>
			<path class="st3" d="M50.2,86.9c-0.7,1.1-4.4,3.3-9.7,3.3c-5.4,0-8.7-1.9-9.7-3.3c1.3-1.2,4.4-3.3,9.7-3.3
				C45.8,83.6,49,85.7,50.2,86.9z"/>
			<path class="st40" d="M50.2,86.7c-0.7,1-4.4,3.1-9.7,3.1c-5.4,0-8.7-1.7-9.7-3.1c1.3-1.1,4.4-3.1,9.7-3.1
				C45.8,83.6,49,85.6,50.2,86.7z"/>
			<g>
				<path class="st3" d="M43.5,89.3c3.4-0.5,5.6-1.8,6.1-2.6c-1.1-1-4-2.8-9-2.8c-1.2,0-2.3,0.1-3.3,0.3c-0.4,0.4-0.6,0.9-0.6,1.3
					C36.8,87.2,39.5,88.6,43.5,89.3z"/>
			</g>
			<path class="st41" d="M46.7,86.9c-0.5,0.7-2.8,2.1-6.3,2.1c-3.5,0-5.6-1.2-6.3-2.1c0.8-0.8,2.8-2.1,6.3-2.1
				C43.9,84.8,46,86.1,46.7,86.9z"/>
			<path class="st42" d="M46,87.5c-0.4,0.5-2.6,1.6-5.7,1.6c-3.1,0-4.9-1-5.5-1.6c0.7-0.5,2.5-1.4,5.6-1.4
				C43.5,86.1,45.3,87,46,87.5z"/>
			<polygon class="st43" points="40.2,88.2 41,85.7 35.7,86.5 			"/>
			<polygon class="st44" points="40.9,85.7 40.1,88.3 45.4,87.4 			"/>
			<g class="st27">
				<path class="st45" d="M39.1,88.7l2-3.6c-0.9-0.1-1.2,0-1.7,0.1l-1.8,3.2C37.9,88.4,38.6,88.6,39.1,88.7z"/>
				<path class="st45" d="M46,86.9c-0.5-0.5-1.6-1.2-3.3-1.6c-0.3,0.8-1,2.6-1.3,3.4C44,88.5,45.6,87.5,46,86.9z"/>
			</g>
		</g>
		<polygon class="st46" points="92,93.9 90.2,92.2 96.8,91.9 101.3,95.8 89.4,99.3 		"/>
		<g>
			<polygon class="st35" points="96.8,91.9 96.8,91.9 92,94 89.4,99.3 101.3,95.8 			"/>
			<polygon class="st3" points="90.2,92.2 92,93.9 92,94 96.8,91.9 			"/>
		</g>
		<path class="st31" d="M51.5,66.4c0-0.2-1.6,0.2-2.9,0.2c-1.2,0-2.3,0.2-2.3,0.4c0,0.2,1,0.4,2.3,0.4
			C49.9,67.5,51.5,66.7,51.5,66.4z"/>
		<polygon class="st4" points="104.3,98.8 112.7,91 114.3,90.7 116.3,91.8 116.3,93.3 107.8,101.4 102.8,103.5 102.3,103.1 		"/>
		<g>
			<polygon class="st47" points="105.9,98.3 114.8,90.1 116.5,89.7 118.5,91 118.5,92.5 109.6,101 104.4,103.2 103.8,102.8 			"/>
			<g>
				<polygon class="st48" points="109.4,101.1 109.6,101 118.5,92.5 118.5,91 118.5,91 109.3,99.6 				"/>
			</g>
			<g>
				<polygon class="st35" points="116.5,89.8 106.9,98.4 105.8,98.4 103.8,102.8 104.4,103.2 109.6,101 118.5,92.5 118.5,91 				"/>
				<polygon class="st49" points="116.5,89.8 116.5,89.7 114.8,90.1 105.9,98.3 105.8,98.4 106.9,98.4 				"/>
			</g>
			<g>
				<polygon class="st35" points="118.5,92.5 118.5,91 116.5,89.7 114.8,90.1 105.9,98.3 				"/>
				<polygon class="st50" points="105.9,98.3 103.8,102.8 104.4,103.2 109.6,101 109.5,99.4 107.3,98 105.9,98.3 				"/>
			</g>
			<g>
				<polygon class="st35" points="106.5,100.9 106.5,102.3 109.6,101 109.5,99.4 107.3,98 105.9,98.3 105.9,98.3 104.7,100.9 				
					"/>
				<polygon class="st51" points="104.7,100.9 103.8,102.8 104.4,103.2 106.5,102.3 106.5,100.9 				"/>
				<g>
					<polygon class="st52" points="104.4,103.2 106.5,102.3 106.5,100.9 106.5,100.9 104.6,102.7 					"/>
				</g>
			</g>
			<polygon class="st51" points="105.9,101.2 106.2,102.5 106.5,102.3 106.5,100.9 			"/>
			<polygon class="st53" points="106.5,100.9 107.3,98 105.9,98.3 104.7,100.9 			"/>
		</g>
		<path class="st45" d="M57.6,77c0.1-0.1,0-0.4-0.2-0.6c-0.2-0.2-0.5-0.3-0.6-0.3c-0.1,0.1,0,0.4,0.2,0.6
			C57.2,76.9,57.5,77.1,57.6,77z"/>
		<polygon class="st54" points="108.1,73.8 115.8,80.1 123.4,77.1 		"/>
		<path class="st54" d="M72.2,93.4l9.4-9.7l-9.4-0.4l-22.6,2.3C49.7,85.6,62.3,87,72.2,93.4z"/>
		<path class="st5" d="M74.5,78c-0.5,0.1-1.1,0-1.6-0.1l-19.6-5.6c0,0-1.5-0.8-0.6-1.3c0.9-0.5,12.6-5.1,12.6-5.1l29.5,4.7L85,76.4
			c-0.7,0.4-1.4,0.6-2.2,0.7L74.5,78z"/>
		<g>
			<path class="st55" d="M75,60l-14.2,4.5c-1.3,0.3-2.3,1.2-2.1,2.2l0.4,3.2c0,0.4,0.3,0.7,0.8,0.9c0,0,0.1,0,0.1,0l0,0l23.2,5.5
				l0.9,0.1l11.4-14.9l0.5-0.3l0.1-0.5L75,60z"/>
			<g class="st8">
				<path class="st56" d="M83,68.5l-23.9-3.1c-0.4,0.4-0.5,0.7-0.4,1.2l0.4,3.2c0,0.4,0.3,0.7,0.8,0.9c0,0,0.1,0,0.1,0l0,0l23.2,5.5
					l0.9,0.1l0.2-0.3L84,75.6L83,68.5z"/>
			</g>
		</g>
		<linearGradient id="SVGID_25_" gradientUnits="userSpaceOnUse" x1="97.4701" y1="60.1666" x2="70.741" y2="65.0265">
			<stop  offset="5.376340e-03" style="stop-color:#C6A5CE"/>
			<stop  offset="1" style="stop-color:#D49AE2"/>
		</linearGradient>
		<path class="st57" d="M94.8,60.9l-12.1,5.8c-0.9,0.4-1.6,0.5-2.6,0.4l-19-1.9c-0.5,0-0.6-0.4-0.2-0.6l14.2-4.5L94.8,60.9z"/>
		<g>
			<path class="st58" d="M84.2,76.5C84.2,76.5,84.2,76.5,84.2,76.5L84.2,76.5C84.2,76.5,84.2,76.5,84.2,76.5z"/>
			<path class="st58" d="M95.9,69.4l0-0.9l-1.4-0.2l0.3-6.4l1.2-0.7l0.1-0.6c-3.8,2-12.2,6-12.5,6.1c-0.9,0.5-0.8,1.9-0.8,4.4
				c0,2.5,0.4,5.3,1.3,5.3c0,0,0,0,0,0c0,0,0,0,0.1,0L95.9,69.4z"/>
			<path class="st5" d="M83.7,74.5c0,0,0.3,1.5,1.4,1c1.1-0.5,10.8-6.4,10.8-6.4l0-0.5l-1.8-0.3L83.7,74.5z"/>
		</g>
		<g>
			<path class="st59" d="M83.4,71.1c0,2.2,0.2,4.1,1,4.1c0.7,0,8.1-4.4,10.8-6.1l0.3-7.6c-3.1,1.7-11.2,5.5-11.5,5.6
				C83.3,67.6,83.4,68.9,83.4,71.1z"/>
		</g>
		<polygon class="st19" points="59.2,75.2 65.4,72.4 67.3,73.1 60.7,76 		"/>
		<g class="st8">
			<path class="st5" d="M95.6,61.5c-3.1,1.7-11.2,5.5-11.5,5.6c-0.5,0.3-0.7,0.9-0.7,1.9l12.1-6.5L95.6,61.5z"/>
		</g>
		<path class="st53" d="M99.5,65.3c-2.5-2.1-4-1.4-4-1.4s0,0.4,0,0.7c-2.1,1.5-3.7,2.4-5.3,3.7c0,0,0.1,0,0.1-0.1l-0.1,0.1l5.2-1.2
			l0.1-1.2C97.1,65.4,98.7,65,99.5,65.3z"/>
		<path class="st60" d="M95.5,63.8c0,0,1.5-0.6,4,1.5c-1.9-0.8-7.9,2-9.4,3.1c1.5-1.4,3.2-2.3,5.3-3.8
			C95.4,64.1,95.5,63.8,95.5,63.8z"/>
		<polygon class="st53" points="85.6,72.5 90.9,69.5 87.8,71.6 		"/>
		<path class="st53" d="M85.8,68.2c0,0,0.2,0.1,0.2,0.2s0.2,3.6,0.2,3.6s0.5-1.4,1.8-1l-0.2-3.3c0,0-0.1-0.2-0.3-0.3
			C87.1,67.6,85.8,68.2,85.8,68.2z"/>
		<path class="st61" d="M85.8,68.2c0,0,0.2,0.1,0.2,0.2c0,0.1,0.6,3.5,0.6,3.5s0.5-1.6,1.8-1.1l-0.6-3.1c0,0-0.2-0.2-0.4-0.3
			C87.2,67.6,85.8,68.2,85.8,68.2z"/>
		<polygon class="st3" points="96.8,91.9 101.4,95.4 104.6,92.3 101.3,95.8 		"/>
		<path class="st4" d="M134.6,75.3c-0.3-0.4-1.4-1.4-1.7-1.8c-1.1-1.3-2.7-2-4.6-2.2c-1.9-1.6-4.2-3.5-5.1-4.3
			c-0.1-0.2-0.2-0.4-0.4-0.6c-0.9-1.1-2.2-1.6-3.7-1.7c-1-1-1.9-1.9-2.4-2.3c-0.1-0.2-0.2-0.3-0.3-0.4c-0.8-1-2.1-1.4-3.5-1.3
			c0,0-0.1-0.1-0.1-0.1c0,0,0-0.1-0.1-0.1c-0.1-0.2-0.2-0.4-0.3-0.6c-1-1.2-3.1-1.2-4.7,0c-1.4,1.1-1.9,2.8-1.2,4
			c0.1,0.2,0.2,0.4,0.4,0.6c0.2,0.3,0.5,0.4,0.8,0.6c-0.3,1.2-0.1,2.3,0.7,3.2c0.1,0.1,0.1,0.1,0.2,0.2c0,0.1,0.1,0.2,0.1,0.3
			c0.2,0.3,1,1.4,2,2.8c-0.1,1,0.2,1.3,0.6,2.2c0.2,0.4,1.7,0.3,2,0.6c0.4,0.4,3.5,4.6,4.3,5.5c-0.4,0.6-1.1,0.3-1.3,1.1
			c-0.2,1.2,0.4,3.7,1.1,4.4c0.4,0.4,1.7,1.8,2,2.2c2.7,3,8.3,2.7,12.4-0.7C135.9,83.6,137.2,78.3,134.6,75.3z"/>
		<path class="st62" d="M112.3,61.3c1.3-1.5,1.3-3.5,0.2-4.5c-1.2-1-3.2-0.6-4.4,0.8c-1.3,1.5-1.3,3.5-0.2,4.5
			C109,63.1,111,62.8,112.3,61.3z"/>
		<path class="st54" d="M112.2,61.3c1.3-1.5,1.5-3.3,0.3-4.3c-1.2-1-3.2-0.6-4.4,0.8c-1.3,1.5-1.3,3.4-0.1,4.4
			C109.2,63.1,110.9,62.7,112.2,61.3z"/>
		
			<linearGradient id="SVGID_26_" gradientUnits="userSpaceOnUse" x1="-134.4011" y1="78.6688" x2="-111.4432" y2="78.6688" gradientTransform="matrix(0.5351 1.620000e-02 -1.580000e-02 0.5228 180.6147 23.2521)">
			<stop  offset="0" style="stop-color:#FFB82A"/>
			<stop  offset="1" style="stop-color:#FFD815"/>
		</linearGradient>
		<path class="st63" d="M118.8,61.4c-0.5-0.5-5.5-3.8-6.1-4.2c-1.2-0.8-2.8-0.8-4.1,0.6c-1.3,1.3-1.2,3-0.7,3.9
			c0.4,0.5,5.2,5.5,5.9,5.9c1.4,0.9,3.5,0.5,4.9-1.2C120.1,64.6,120,62.6,118.8,61.4z"/>
		<g>
			<path class="st64" d="M112.3,57.7l-1.4-1c-0.4,0-0.9,0.1-1.4,0.4l2.2,1.5L112.3,57.7z"/>
		</g>
		<path class="st62" d="M116.4,64.6c1.8-2.1,1.9-5,0.2-6.5c-1.7-1.5-4.6-0.9-6.4,1.2c-1.8,2.1-1.9,5-0.2,6.5
			C111.7,67.3,114.6,66.8,116.4,64.6z"/>
		<path class="st54" d="M116.6,64.9c1.8-2.1,1.9-5,0.2-6.5c-1.7-1.5-4.6-0.9-6.4,1.2c-1.8,2.1-2,4.9-0.3,6.4
			C111.8,67.4,114.8,67,116.6,64.9z"/>
		
			<linearGradient id="SVGID_27_" gradientUnits="userSpaceOnUse" x1="-15.8547" y1="79.8054" x2="9.9878" y2="79.8054" gradientTransform="matrix(0.6888 2.090000e-02 -2.040000e-02 0.673 121.7459 12.3971)">
			<stop  offset="0" style="stop-color:#FFB82A"/>
			<stop  offset="1" style="stop-color:#FFD815"/>
		</linearGradient>
		<path class="st65" d="M125.6,64.7c-0.7-0.7-8-5.8-8.8-6.3c-1.8-1.1-4.1-0.9-6.1,1.1c-1.9,1.8-1.8,4.8-0.3,6.8
			c0.6,0.7,6.9,6.9,7.9,7.5c2.1,1.3,5.1,0.7,7.2-1.8C127.5,69.4,127.4,66.4,125.6,64.7z"/>
		<g>
			<path class="st64" d="M118.8,60.7l-5.1-2.9c-0.5,0.1-1,0.3-1.4,0.5l4.8,3.3L118.8,60.7z"/>
		</g>
		<path class="st62" d="M123.3,70.5c2.5-2.9,2.7-7,0.3-9c-2.4-2-6.3-1.3-8.9,1.6c-2.5,2.9-2.7,7-0.3,9
			C116.8,74.1,120.8,73.4,123.3,70.5z"/>
		<path class="st54" d="M123.5,70.8c2.5-2.9,2.7-7,0.3-9c-2.4-2-6.3-1.3-8.9,1.6c-2.5,2.9-2.7,6.9-0.3,8.9
			C116.9,74,121,73.7,123.5,70.8z"/>
		<linearGradient id="SVGID_28_" gradientUnits="userSpaceOnUse" x1="113.5085" y1="71.1661" x2="135.1391" y2="71.1661">
			<stop  offset="0" style="stop-color:#FFB82A"/>
			<stop  offset="1" style="stop-color:#FFD815"/>
		</linearGradient>
		<path class="st66" d="M133.2,67.6c-1-1-8.2-5.1-9.4-5.8c-2.5-1.5-5.7-1-8.4,1.8c-2.5,2.7-2.3,6.6-0.8,8.3c0.9,1,7.5,7.8,8.8,8.6
			c2.9,1.7,7.1,0.8,9.8-2.8C135.9,74.1,135.6,69.9,133.2,67.6z"/>
		<g>
			<path class="st67" d="M116.2,62.8c-0.3,0.2-0.5,0.5-0.8,0.8c-1.3,1.4-1.8,3.1-1.9,4.6l7.9,8.2l3.1-7.7L116.2,62.8z"/>
			<g>
				<path class="st67" d="M110.5,59.7c-0.8,0.8-1.2,1.9-1.2,3l3.8,3.5l0.1,0.6c0.3-1.2,0.9-2.3,1.8-3.3c0.3-0.3,0.5-0.6,0.8-0.8
					l-0.6,0.1L110.5,59.7z"/>
				<path class="st67" d="M109.9,59.6l-1.7-1.3c-0.4,0.5-0.5,1-0.6,1.6c0,0,0,0,0,0c0.1,0.1,0.6,0.7,1.5,1.5c0,0.2,0,0.9,0,1l0,0
					c0.2-1,0.6-2,1.3-2.8l-0.1-0.1L109.9,59.6z"/>
			</g>
		</g>
		<g>
			<path class="st64" d="M128.4,66l-7.9-5c-0.7,0-1.3,0.2-2,0.5l8.2,5.5L128.4,66z"/>
		</g>
		<path class="st68" d="M137.3,68.8c-0.4-0.4-2-1.7-2.4-2.1c-3.3-2.8-8.9-1.7-12.5,2.5c-3.6,4.2-3.9,9.9-0.6,12.7
			c0.4,0.4,2,1.7,2.4,2.1c3.3,2.8,8.9,1.7,12.5-2.5C140.3,77.3,140.6,71.6,137.3,68.8z"/>
		<path class="st69" d="M137.3,68.6c-0.4-0.4-1.7-1.3-2.1-1.6c-3.3-2.8-9.1-1.7-12.8,2.4c-3.6,4.2-3.9,9.8-0.6,12.6
			c0.4,0.4,2,1.7,2.4,2c3.3,2.8,8.9,1.7,12.5-2.5C140.4,77.4,140.6,71.4,137.3,68.6z"/>
		<g>
			<path class="st70" d="M136.9,69.4l-6.1-4c-2.3-0.1-5.1,1-6.9,2.6l7.1,5.9L136.9,69.4z"/>
		</g>
		<path class="st71" d="M136.8,81.5c3.6-4.2,3.9-9.9,0.6-12.8c-3.3-2.8-8.9-1.7-12.6,2.5c-3.6,4.2-3.9,9.9-0.6,12.8
			C127.5,86.8,133.1,85.7,136.8,81.5z"/>
		<path class="st70" d="M136.8,81.5c3.6-4.2,4-9.8,0.9-12.6c-3.1-2.7-8.6-1.5-12.3,2.7c-3.6,4.2-4,9.8-0.9,12.6
			C127.6,86.9,133.1,85.7,136.8,81.5z"/>
		<g>
			<path class="st72" d="M129.8,76.7c2.3,1.9,6,1.6,9.1-0.7c0.9-2.8,0.4-5.7-1.6-7.4c-2.2-1.9-5.6-1.8-8.5,0
				C127.4,71.7,127.7,74.9,129.8,76.7z"/>
		</g>
		<path class="st73" d="M136.3,71.4c-2.3-2-6.3-1.3-8.9,1.7c-2.7,3-3,7-0.8,9.1c2.3,2,6.3,1.3,8.9-1.7
			C138.2,77.5,138.5,73.4,136.3,71.4z"/>
		<path class="st62" d="M135.4,70.8c-2.1-1.4-6.1-0.5-8.4,2.6c-2.4,3.1-2.6,6.8-0.5,8.5c2.1,1.6,5.7,0.5,8.1-2.6
			C136.9,76.3,137.6,72.3,135.4,70.8z"/>
		<path class="st74" d="M135.4,75.6c-2.1,2.7-5.3,3.7-7.1,2.3c-1.1-0.8-1.4-2.3-1.2-3.9c-1.8,2.6-1.9,5.7-0.2,7.1
			c1.8,1.4,5,0.4,7.1-2.3c0.9-1.1,1.4-2.4,1.6-3.5C135.6,75.3,135.5,75.4,135.4,75.6z"/>
		<path class="st75" d="M132.3,77.1c-0.8-1.1-2.6-1.1-4.1,0c-1.5,1.1-2,2.8-1.2,3.9c0.8,1.1,2.6,1.1,4.1,0.1
			C132.6,80,133.1,78.2,132.3,77.1z"/>
		<path class="st75" d="M135,71.4c-0.6-0.2-1.2,1.5-1.9,4c-0.7,2.5-2.4,5.4-1.7,5.6c0.6,0.2,3.3-2.3,4.1-4.8
			C136.1,73.7,135.6,71.6,135,71.4z"/>
		<path class="st76" d="M120,60.6c0-0.1-0.3-0.1-0.7,0c-0.4,0.1-0.6,0.2-0.6,0.3c0,0.1,0.3,0.1,0.7,0C119.8,60.8,120,60.7,120,60.6z
			"/>
		<path class="st76" d="M113.5,57.6c0-0.1-0.2-0.1-0.5,0c-0.2,0.1-0.4,0.1-0.4,0.2c0,0.1,0.2,0.1,0.5,0
			C113.3,57.8,113.5,57.7,113.5,57.6z"/>
		<path class="st76" d="M110.7,56.4c0-0.1-0.2-0.1-0.5-0.1c-0.2,0-0.4,0.1-0.4,0.2c0,0.1,0.2,0.1,0.5,0.1
			C110.5,56.6,110.7,56.5,110.7,56.4z"/>
		<polygon class="st72" points="128.5,65.6 126.9,66.1 129.7,68.5 132.1,67.5 		"/>
		<path class="st5" d="M126.9,75.2c2.4-3.1,6.4-4,8.4-2.6c0.7,0.5,1.1,1.2,1.3,2.1c0.2-1.6-0.1-3.1-1.3-3.8
			c-2.1-1.4-6.1-0.5-8.4,2.6c-1.5,1.9-2.1,4.2-1.8,6C125.3,78,125.9,76.5,126.9,75.2z"/>
		<path class="st77" d="M49.8,89.8c0-0.6-0.4-1.1-0.6-1.1c-0.2,0-0.2,0.5-0.2,1.1c0,0.6,0,1.1,0.2,1.1
			C49.4,90.8,49.8,90.4,49.8,89.8z"/>
		<path class="st42" d="M47.7,106.6c-2.9,0-5.1-1.3-5.1-2c0-2.4,4.5-4.5,8.8-6.6c3.2-1.5,6.5-3.1,6.5-4.2c0-2.2-5.4-3.5-8.7-3.9
			l0.1-0.5c3.1,0.3,9.2,1.7,9.2,4.4c0,1.5-3.2,3-6.8,4.7c-4,1.9-8.5,4.1-8.5,6.1c0,0,0.1,0.1,0.1,0.1l0-0.1
			c4.3-1.5,10.2-3.4,13.5-3.4c0.7,0,1.3,0.1,1.7,0.2c0.5,0.2,0.7,0.6,0.7,0.8C59.1,103.9,53.6,106.6,47.7,106.6z M43.7,105
			c0.7,0.4,2.1,1,4,1c6,0,10.9-2.7,10.9-3.7c0-0.1-0.1-0.2-0.3-0.3c-0.3-0.1-0.8-0.2-1.5-0.2C54.2,101.8,49.7,102.9,43.7,105z"/>
		<path class="st42" d="M49.4,89.8c0-0.6-0.1-1.1-0.3-1.1c-0.1,0-0.3,0.5-0.3,1.1c0,0.6,0.1,1.1,0.3,1.1
			C49.3,90.9,49.4,90.4,49.4,89.8z"/>
		<path class="st78" d="M83.1,62.4c0.1,0.7-2.6,1.5-6,1.9c-3.4,0.4-6.2,0.1-6.2-0.5c-0.1-0.7,2.6-1.5,6-1.9
			C80.2,61.5,83,61.7,83.1,62.4z"/>
		<path class="st79" d="M73.8,62.5l0.3,0.7l1.6,0.3l1.8-0.4l2.2-0.1l-0.8,0.8c0,0,2.4-0.3,3.1-0.8c0.6-0.5,0.3-0.6,0.3-0.6l-1.2,0
			L80.4,62c0,0-1,0-1.1,0c-0.1,0-1.3,0.4-1.3,0.4l0-0.3L73.8,62.5z"/>
		<path class="st79" d="M72.8,63.4l0.7,0.9c0,0-2.4,0-2.4-0.6c0-0.4,0.9-0.8,0.9-0.8l1.7-0.5C73.9,62.7,72.8,63.4,72.8,63.4z"/>
		<path class="st4" d="M92.2,79.8c-0.4-0.3-0.9-0.3-1.3-0.1L84.6,83c-0.2,0.1-0.4,0.4-0.4,0.7c0,0.3,0.1,0.5,0.4,0.7l9.9,6.4
			c0.6,0.4,1.7,0.5,2.3,0.2l5.7-3.2c0.2-0.1,0.4-0.4,0.4-0.6c0-0.3-0.1-0.5-0.3-0.7L92.2,79.8z"/>
		<path class="st80" d="M93.2,79.7c-0.4-0.2-0.8-0.2-1.2-0.1l-6.4,2.9c-0.2,0.1-0.3,0.8-0.3,1c0,0.3,0.1,0.5,0.3,0.7l9.8,6.4
			c0.5,0.4,1.2,0.4,1.8,0.1l6-3.1c0.2-0.1,0.5-0.5,0.5-0.8c0-0.3,0.1-0.6-0.1-0.8L93.2,79.7z"/>
		<path class="st81" d="M93.4,79.1c-0.4-0.3-0.9-0.3-1.3-0.1l-6.2,3.2c-0.2,0.1-0.4,0.4-0.4,0.6c0,0.3,0.1,0.5,0.3,0.7l9.8,6.4
			c0.5,0.4,1.2,0.4,1.8,0.1l6-3.1c0.2-0.1,0.4-0.4,0.4-0.6c0-0.3-0.1-0.5-0.3-0.7L93.4,79.1z"/>
		<path class="st82" d="M95.3,88.6c0.2,0.2,0.6,0.2,0.8,0l5.2-2.8c0.1-0.1,0.2-0.2,0.2-0.3c0-0.1,0-0.2-0.1-0.3L93,79.7
			c-0.2-0.1-0.4-0.1-0.6,0l-5.7,2.9c-0.1,0-0.1,0.1-0.1,0.2c0,0.1,0,0.2,0.1,0.2L95.3,88.6z"/>
		<g>
			<polygon class="st54" points="93.3,80.1 91.8,86 93.9,87.4 95.3,81.5 			"/>
			<path class="st54" d="M95.7,81.8l-1.5,5.8l1,0.6c0,0,0.1,0,0.1,0.1l1.5-5.8L95.7,81.8z"/>
		</g>
		<path class="st4" d="M100.6,87.8c0-0.3-0.4-0.6-0.9-0.6c-0.5,0-0.9,0.2-0.9,0.6c0,0.3,0.4,0.6,0.9,0.6
			C100.2,88.3,100.6,88.1,100.6,87.8z"/>
		<path class="st82" d="M90.1,80.4C90,80.4,90,80.4,90.1,80.4c-0.1,0-0.2,0-0.2,0L88.7,81c0,0,0,0.1,0,0.1l0,0c0,0,0.1,0,0.1,0
			c0,0,0.1,0,0.1,0l1.1-0.6C90.1,80.5,90.1,80.4,90.1,80.4L90.1,80.4z"/>
		<path class="st81" d="M100.4,87.8c0-0.3-0.4-0.5-0.8-0.5c-0.4,0-0.8,0.2-0.8,0.5c0,0.3,0.4,0.5,0.8,0.5
			C100.1,88.2,100.4,88,100.4,87.8z"/>
		<polygon class="st5" points="48.9,90.5 47.9,93 48.7,92.7 49.3,90.7 		"/>
	</g>
</g>
</svg>
