<svg id="Component_109_1" data-name="Component 109 – 1" xmlns="http://www.w3.org/2000/svg" xmlns:xlink="http://www.w3.org/1999/xlink" width="341" height="165" viewBox="0 0 341 165">
  <defs>
    <clipPath id="clip-path">
      <rect id="Rectangle_1620" data-name="Rectangle 1620" width="341" height="165" rx="16" transform="translate(744 1040)" fill="#004608"/>
    </clipPath>
  </defs>
  <g id="Group_1822" data-name="Group 1822" transform="translate(-744 -1040)" clip-path="url(#clip-path)">
    <g id="Rectangle_1619" data-name="Rectangle 1619" transform="translate(732 1019)" fill="#004608" stroke="#707070" stroke-width="1">
      <rect width="361" height="191" stroke="none"/>
      <rect x="0.5" y="0.5" width="360" height="190" fill="none"/>
    </g>
    <ellipse id="Ellipse_246" data-name="Ellipse 246" cx="181" cy="174.5" rx="181" ry="174.5" transform="translate(576 932)" fill="#002e05" opacity="0.36"/>
  </g>
  <text id="Government" transform="translate(198 140)" fill="#fff" font-size="19" font-family="WorkSans-Bold, Work Sans" font-weight="700" letter-spacing="-0.009em"><tspan x="0" y="0">Government</tspan></text>
  <g id="XMLID_1000_" transform="translate(32.519 28.833)">
    <g id="XMLID_144_" transform="translate(0 0.167)">
      <path id="XMLID_149_" d="M167.209,189.5A1.21,1.21,0,0,0,166,190.709v2.5a1.209,1.209,0,1,0,2.419,0v-2.5A1.21,1.21,0,0,0,167.209,189.5Z" transform="translate(-145.923 -166.601)" fill="#fff"/>
      <path id="XMLID_666_" d="M207.209,189.5A1.209,1.209,0,0,0,206,190.709v2.5a1.209,1.209,0,1,0,2.419,0v-2.5A1.209,1.209,0,0,0,207.209,189.5Z" transform="translate(-181.086 -166.601)" fill="#fff"/>
      <path id="XMLID_1082_" d="M247.209,189.5A1.21,1.21,0,0,0,246,190.709v2.5a1.209,1.209,0,0,0,2.419,0v-2.5A1.21,1.21,0,0,0,247.209,189.5Z" transform="translate(-216.248 -166.601)" fill="#fff"/>
      <path id="XMLID_1380_" d="M287.209,189.5A1.21,1.21,0,0,0,286,190.709v2.5a1.209,1.209,0,0,0,2.419,0v-2.5A1.21,1.21,0,0,0,287.209,189.5Z" transform="translate(-251.41 -166.601)" fill="#fff"/>
      <path id="XMLID_1437_" d="M327.209,189.5A1.21,1.21,0,0,0,326,190.709v2.5a1.209,1.209,0,1,0,2.419,0v-2.5A1.21,1.21,0,0,0,327.209,189.5Z" transform="translate(-286.572 -166.601)" fill="#fff"/>
      <path id="XMLID_1438_" d="M107.209,452.166a1.21,1.21,0,1,0,.855.354A1.218,1.218,0,0,0,107.209,452.166Z" transform="translate(-93.18 -397.499)" fill="#fff"/>
      <path id="XMLID_1439_" d="M107.209,369.5A1.209,1.209,0,0,0,106,370.709v5.239a1.209,1.209,0,0,0,2.419,0v-5.239A1.209,1.209,0,0,0,107.209,369.5Z" transform="translate(-93.18 -324.831)" fill="#fff"/>
      <path id="XMLID_1455_" d="M163.209,369.5A1.209,1.209,0,0,0,162,370.709v10a1.209,1.209,0,1,0,2.419,0v-10A1.209,1.209,0,0,0,163.209,369.5Z" transform="translate(-142.407 -324.831)" fill="#fff"/>
      <path id="XMLID_1456_" d="M219.209,369.5A1.209,1.209,0,0,0,218,370.709v10a1.209,1.209,0,1,0,2.419,0v-10A1.209,1.209,0,0,0,219.209,369.5Z" transform="translate(-191.634 -324.831)" fill="#fff"/>
      <path id="XMLID_1471_" d="M275.209,369.5A1.209,1.209,0,0,0,274,370.709v10a1.209,1.209,0,0,0,2.419,0v-10A1.209,1.209,0,0,0,275.209,369.5Z" transform="translate(-240.861 -324.831)" fill="#fff"/>
      <path id="XMLID_1480_" d="M331.209,369.5A1.209,1.209,0,0,0,330,370.709v10a1.209,1.209,0,0,0,2.419,0v-10A1.21,1.21,0,0,0,331.209,369.5Z" transform="translate(-290.088 -324.831)" fill="#fff"/>
      <path id="XMLID_1584_" d="M387.209,369.5a1.21,1.21,0,1,0,.855.354A1.218,1.218,0,0,0,387.209,369.5Z" transform="translate(-339.316 -324.828)" fill="#fff"/>
      <path id="XMLID_1585_" d="M387.209,409.5A1.209,1.209,0,0,0,386,410.709v5.16a1.209,1.209,0,1,0,2.419,0v-5.16A1.209,1.209,0,0,0,387.209,409.5Z" transform="translate(-339.316 -359.994)" fill="#fff"/>
      <path id="XMLID_1598_" d="M147.209,273A1.21,1.21,0,0,0,146,274.209v2.5a1.209,1.209,0,1,0,2.419,0v-2.5A1.209,1.209,0,0,0,147.209,273Z" transform="translate(-128.342 -240.002)" fill="#fff"/>
      <path id="XMLID_1599_" d="M187.209,273A1.21,1.21,0,0,0,186,274.209v2.5a1.209,1.209,0,1,0,2.419,0v-2.5A1.21,1.21,0,0,0,187.209,273Z" transform="translate(-163.504 -240.002)" fill="#fff"/>
      <path id="XMLID_1600_" d="M227.209,273A1.21,1.21,0,0,0,226,274.209v2.5a1.209,1.209,0,1,0,2.419,0v-2.5A1.21,1.21,0,0,0,227.209,273Z" transform="translate(-198.667 -240.002)" fill="#fff"/>
      <path id="XMLID_1601_" d="M267.209,273A1.21,1.21,0,0,0,266,274.209v2.5a1.209,1.209,0,0,0,2.419,0v-2.5A1.21,1.21,0,0,0,267.209,273Z" transform="translate(-233.829 -240.002)" fill="#fff"/>
      <path id="XMLID_1602_" d="M307.209,273A1.21,1.21,0,0,0,306,274.209v2.5a1.209,1.209,0,0,0,2.419,0v-2.5A1.21,1.21,0,0,0,307.209,273Z" transform="translate(-268.991 -240.002)" fill="#fff"/>
      <path id="XMLID_1604_" d="M347.209,273A1.21,1.21,0,0,0,346,274.209v2.5a1.209,1.209,0,0,0,2.419,0v-2.5A1.21,1.21,0,0,0,347.209,273Z" transform="translate(-304.153 -240.002)" fill="#fff"/>
      <path id="XMLID_1608_" d="M60.714,43.183H55.876V40.522a1.209,1.209,0,0,0-1.209-1.209H49.1V31.088h.847a1.209,1.209,0,1,0,0-2.419H46.563v-6.3a1.209,1.209,0,0,0-.121-2.413H43.459V18.913A12.515,12.515,0,0,0,32.171,6.474v-5.1a1.209,1.209,0,1,0-2.419,0v5.1A12.515,12.515,0,0,0,18.464,18.913v1.048H15.481a1.209,1.209,0,0,0-.121,2.413v6.3H11.973a1.209,1.209,0,0,0,0,2.419h.847v8.224H7.257a1.209,1.209,0,0,0-1.209,1.209v2.661H1.209A1.209,1.209,0,0,0,0,44.392V60.84A1.209,1.209,0,0,0,1.209,62.05h59.5a1.209,1.209,0,0,0,1.209-1.209V44.392A1.209,1.209,0,0,0,60.714,43.183ZM20.883,18.913a10.079,10.079,0,1,1,20.157,0v1.048H20.883Zm-3.1,3.467H44.145v6.289H17.779Zm-2.54,8.708H46.684v8.224H15.239ZM2.419,45.6H6.047v14.03H2.419Zm6.047-1.209V41.731H53.457v17.9H8.466ZM59.5,59.631H55.876V45.6H59.5Z" transform="translate(0 -0.167)" fill="#fff"/>
    </g>
  </g>
</svg>
