<svg id="Layer_1" data-name="Layer 1" xmlns="http://www.w3.org/2000/svg" viewBox="0 0 624.3 703.33"><defs><style>.cls-1{fill:#003a8c;}.cls-2{fill:#15b5ff;}</style></defs><title>icon</title><path class="cls-1" d="M202.94,84.86c0,42.28,33.56,76.56,75,76.56s75-34.28,75-76.56-33.56-76.53-75-76.53-75,34.28-75,76.53" transform="translate(-47.85 -8.33)"/><path class="cls-2" d="M366.82,84.86c0,42.28,33.56,76.56,75,76.56s75-34.28,75-76.56-33.57-76.53-75-76.53-75,34.28-75,76.53" transform="translate(-47.85 -8.33)"/><path class="cls-1" d="M353.09,711.67V287.74A268.47,268.47,0,0,0,106.19,164Q77,355.4,47.85,546.74a410,410,0,0,1,168.44,47.12,410.08,410.08,0,0,1,136.8,117.81" transform="translate(-47.85 -8.33)"/><path class="cls-2" d="M366.91,711.67V287.74A268.47,268.47,0,0,1,613.81,164Q643,355.4,672.15,546.74A408.86,408.86,0,0,0,366.91,711.67" transform="translate(-47.85 -8.33)"/></svg>