<?xml version="1.0" encoding="utf-8"?>
<!-- Generator: Adobe Illustrator 23.0.1, SVG Export Plug-In . SVG Version: 6.00 Build 0)  -->
<svg version="1.1" id="Layer_1" xmlns="http://www.w3.org/2000/svg" xmlns:xlink="http://www.w3.org/1999/xlink" x="0px" y="0px"
	 viewBox="0 0 293 123" style="enable-background:new 0 0 293 123;" xml:space="preserve">
<style type="text/css">
	.st0{clip-path:url(#SVGID_4_);fill:#C3391C;}
	.st1{opacity:0.27;clip-path:url(#SVGID_4_);}
	.st2{fill:#C3391C;}
	.st3{fill:#FFFFFF;}
	.st4{enable-background:new    ;}
	.st5{clip-path:url(#SVGID_8_);enable-background:new    ;}
	.st6{fill:#103D63;}
	.st7{fill:#0F3B60;}
	.st8{clip-path:url(#SVGID_10_);enable-background:new    ;}
	.st9{fill:#767676;}
	.st10{fill:#7A7A7A;}
	.st11{fill:#7E7E7E;}
	.st12{fill:#838383;}
	.st13{fill:#878787;}
	.st14{fill:#8C8C8C;}
	.st15{fill:#909090;}
	.st16{fill:#F02402;}
	.st17{fill:#B32007;}
	.st18{fill:#FEE57C;}
	.st19{fill:#FF563B;}
	.st20{fill:#DADADA;}
	.st21{fill:#DEC45B;}
	.st22{fill:#CFB655;}
	.st23{fill:#F7C200;}
	.st24{fill:#DE9F00;}
	.st25{fill:#EDD161;}
	.st26{fill:#FFD518;}
	.st27{fill:#EBB800;}
	.st28{clip-path:url(#SVGID_12_);enable-background:new    ;}
	.st29{fill:#11446E;}
	.st30{fill:#65B8CC;}
	.st31{fill:#488391;}
	.st32{fill:#75D6ED;}
	.st33{fill:#1D9125;}
	.st34{fill:#26BF31;}
	.st35{fill:#3AE647;}
	.st36{fill:#D4BB57;}
	.st37{fill:#B89F42;}
	.st38{fill:#FFE466;}
	.st39{fill:#A5FFAD;}
	.st40{fill:#CF9400;}
	.st41{fill:#FF4E31;}
	.st42{fill:#FFD438;}
	.st43{fill:#2B3033;}
	.st44{fill:#9D9D9C;}
	.st45{fill:#41484D;}
	.st46{fill:#808385;}
	.st47{fill:#C6C6C6;}
	.st48{fill:#F9B233;}
	.st49{fill:#FFCD73;}
	.st50{fill:#F39200;}
</style>
<g>
	<g>
		<g>
			<defs>
				<path id="SVGID_1_" d="M281.8,123H11.2C5,123,0,118,0,111.8V11.2C0,5,5,0,11.2,0h270.6C288,0,293,5,293,11.2v100.6
					C293,118,288,123,281.8,123z"/>
			</defs>
			<clipPath id="SVGID_2_">
				<use xlink:href="#SVGID_1_"  style="overflow:visible;"/>
			</clipPath>
		</g>
		<g>
			<defs>
				<path id="SVGID_3_" d="M281.8,123H11.2C5,123,0,118,0,111.8V11.2C0,5,5,0,11.2,0h270.6C288,0,293,5,293,11.2v100.6
					C293,118,288,123,281.8,123z"/>
			</defs>
			<use xlink:href="#SVGID_3_"  style="overflow:visible;fill:#C3391C;"/>
			<clipPath id="SVGID_4_">
				<use xlink:href="#SVGID_3_"  style="overflow:visible;"/>
			</clipPath>
			<path class="st0" d="M281.8,123H11.2C5,123,0,118,0,111.8V11.2C0,5,5,0,11.2,0h270.6C288,0,293,5,293,11.2v100.6
				C293,118,288,123,281.8,123z"/>
			<g class="st1">
				<path class="st2" d="M4.7-39.7c-18.4,4.2-40.4,17.5-51.4,32.8c-9.7,13.4-16,27.9-16.8,44.4C-65,64-61.8,93.1-43.5,112.4
					c12.4,13.2,29.9,23.7,47.5,28.4c13.1,3.4,53.2,6.9,72.1,0c14.1-5.1,27.8-11.7,38.1-22.5c6.1-6.4,11.7-13.2,15.9-21
					c7.1-13.3,9.6-28.8,8.1-43.8c-1.4-15-4.6-30.7-11.8-44c-7-13-16.1-23.5-28-32.1C85.4-32,47.1-49.3,4.7-39.7z"/>
			</g>
		</g>
		<g>
			<defs>
				<path id="SVGID_5_" d="M281.8,123H11.2C5,123,0,118,0,111.8V11.2C0,5,5,0,11.2,0h270.6C288,0,293,5,293,11.2v100.6
					C293,118,288,123,281.8,123z"/>
			</defs>
			<clipPath id="SVGID_6_">
				<use xlink:href="#SVGID_5_"  style="overflow:visible;"/>
			</clipPath>
		</g>
	</g>
	<g>
		<g>
			<path class="st3" d="M165,95.8v1.9h-8.3V86.4h2.3v9.3H165z"/>
			<path class="st3" d="M166.3,86.7c0-0.8,0.5-1.3,1.4-1.3c1,0,1.4,0.4,1.4,1.3s-0.5,1.2-1.4,1.2C166.8,87.9,166.3,87.5,166.3,86.7z
				 M168.9,97.7h-2.3v-8.5h2.3V97.7z"/>
			<path class="st3" d="M177.1,97.1c-0.6,0.4-1.4,0.7-2.3,0.7c-1.7,0-2.9-0.7-2.9-2.6v-4.4h-1.6v-1.7h1.6v-2l2.3-0.6v2.6h2.7v1.7
				h-2.7v4c0,0.8,0.4,1.2,1.2,1.2c0.6,0,1-0.2,1.3-0.5L177.1,97.1z"/>
			<path class="st3" d="M184.3,94.1h-6v-2h6V94.1z"/>
			<path class="st3" d="M186.6,86.7c0-0.8,0.5-1.3,1.4-1.3s1.4,0.4,1.4,1.3s-0.5,1.2-1.4,1.2S186.6,87.5,186.6,86.7z M189.2,97.7
				h-2.3v-8.5h2.3V97.7z"/>
			<path class="st3" d="M199.7,92.1v5.6h-2.3v-4.9c0-1.4-0.6-1.9-1.5-1.9c-1,0-1.9,0.6-1.9,2.3v4.5h-2.3v-8.5h2.1l0.1,1.6
				c0.5-1.2,1.6-1.8,2.9-1.8C198.4,89,199.7,90,199.7,92.1z"/>
			<path class="st3" d="M208.1,94.1h-6v-2h6V94.1z"/>
			<path class="st3" d="M210.9,86.4h8.4v1.9h-6.1v2.8h4.8v1.8h-4.8v2.9h6.3v1.9h-8.7V86.4z"/>
			<path class="st3" d="M229.4,92.1v5.6h-2.3v-4.9c0-1.4-0.6-1.9-1.5-1.9c-1,0-1.9,0.6-1.9,2.3v4.5h-2.3v-8.5h2.1l0.1,1.6
				c0.5-1.2,1.6-1.8,2.9-1.8C228.1,89,229.4,90,229.4,92.1z"/>
			<path class="st3" d="M239.6,98.3c0,2-1.8,3-4.5,3c-2.9,0-4.2-0.9-4.2-2.2c0-0.8,0.4-1.4,1.5-1.6c-0.7-0.3-1.1-0.8-1.1-1.6
				c0-0.8,0.5-1.4,1.3-1.7c-0.9-0.5-1.3-1.3-1.3-2.3c0-1.8,1.5-2.9,3.9-2.9c0.7,0,1.3,0.1,1.8,0.3c0.2-1.2,1-2.2,2.5-2.1l0.3,1.7
				c-1.1-0.1-1.7,0.3-1.8,0.9c0.7,0.5,1.1,1.2,1.1,2.1c0,1.8-1.5,2.9-3.9,2.9c-0.5,0-1-0.1-1.4-0.1c-0.5,0.2-0.7,0.4-0.7,0.7
				c0,0.5,0.4,0.7,1.1,0.7h2.6C238.6,96.1,239.6,96.9,239.6,98.3z M237.8,98.6c0-0.4-0.3-0.7-1.2-0.7h-2.9c-0.5,0-0.9,0.3-0.9,0.8
				c0,0.6,0.9,1,2.4,1C236.9,99.7,237.8,99.2,237.8,98.6z M233.6,91.9c0,0.9,0.7,1.4,1.6,1.4c0.9,0,1.5-0.5,1.5-1.4
				c0-0.9-0.6-1.4-1.5-1.4C234.3,90.4,233.6,91,233.6,91.9z"/>
			<path class="st3" d="M243.2,95c0,0.8,0.3,1.1,0.9,1.1c0.4,0,0.6,0,1-0.2l-0.2,1.5c-0.4,0.2-1,0.4-1.6,0.4c-1.6,0-2.4-0.8-2.4-2.5
				v-9.9h2.3V95z"/>
			<path class="st3" d="M246,86.7c0-0.8,0.5-1.3,1.4-1.3c1,0,1.4,0.4,1.4,1.3s-0.5,1.2-1.4,1.2C246.4,87.9,246,87.5,246,86.7z
				 M248.6,97.7h-2.3v-8.5h2.3V97.7z"/>
			<path class="st3" d="M250.2,96.1l1.3-1.4c0.5,0.8,1.5,1.4,2.7,1.4c0.9,0,1.5-0.3,1.5-0.8c0-0.4-0.2-0.6-0.9-0.8l-1.5-0.3
				c-2-0.4-2.7-1.2-2.7-2.5c0-1.4,1.3-2.7,3.7-2.7c1.7,0,3,0.5,3.7,1.6l-1.4,1.4c-0.5-0.8-1.4-1.2-2.2-1.2c-1,0-1.5,0.3-1.5,0.8
				c0,0.4,0.3,0.6,1.1,0.8l1.7,0.4c1.7,0.3,2.3,1.2,2.3,2.3c0,1.6-1.3,2.8-3.8,2.8C252.6,97.8,251.1,97.2,250.2,96.1z"/>
			<path class="st3" d="M259.8,85.4h2.3v5.2c0.5-1.1,1.5-1.6,2.7-1.6c1.8,0,3.1,1,3.1,3.1v5.6h-2.3v-4.9c0-1.5-0.6-1.9-1.5-1.9
				c-1,0-2,0.6-2,2.3v4.5h-2.3V85.4z"/>
		</g>
	</g>
	<g>
		<g>
			<g class="st4">
				<defs>
					<path id="SVGID_7_" class="st4" d="M91.4,61.9C76.2,68.5,61,75.1,45.8,81.7l0,0l0,0l0,0l0,0L91.4,61.9
						C91.4,61.9,91.4,61.9,91.4,61.9L91.4,61.9L91.4,61.9L91.4,61.9z"/>
				</defs>
				<clipPath id="SVGID_8_">
					<use xlink:href="#SVGID_7_"  style="overflow:visible;"/>
				</clipPath>
				<g class="st5">
					<polygon class="st6" points="45.8,81.7 91.5,61.9 91.4,61.9 91.4,61.9 91.4,61.9 91.4,61.9 45.8,81.7 45.8,81.7 45.8,81.7 
						45.8,81.7 45.8,81.7 					"/>
					<polygon class="st7" points="45.8,81.7 91.4,61.9 91.4,61.9 91.4,61.9 91.4,61.9 91.4,61.9 45.8,81.7 45.8,81.7 45.8,81.7 
						45.8,81.7 45.8,81.7 					"/>
				</g>
			</g>
			<g class="st4">
				<defs>
					<path id="SVGID_9_" class="st4" d="M45,66.9L91.9,49c0,0,0,0,0.1,0c0,0,0,0,0,0c0,0,0,0,0,0c0,0,0,0,0,0L45.1,66.8c0,0,0,0,0,0
						C45.1,66.8,45.1,66.8,45,66.9C45,66.8,45,66.8,45,66.9C45,66.8,45,66.8,45,66.9z"/>
				</defs>
				<clipPath id="SVGID_10_">
					<use xlink:href="#SVGID_9_"  style="overflow:visible;"/>
				</clipPath>
				<g class="st8">
					<path class="st9" d="M45,66.9L91.9,49c0,0,0,0,0,0c0,0,0,0,0,0s0,0,0,0c0,0,0,0,0,0L45,66.9L45,66.9C45,66.8,45,66.8,45,66.9
						C45,66.8,45,66.8,45,66.9C45,66.8,45,66.8,45,66.9L45,66.9z"/>
					<path class="st10" d="M45,66.8L91.9,49l0,0c0,0,0,0,0,0l0,0c0,0,0,0,0,0L45,66.8L45,66.8L45,66.8C45,66.8,45,66.8,45,66.8
						C45,66.8,45,66.8,45,66.8L45,66.8z"/>
					<path class="st11" d="M45,66.8L91.9,49h0l0,0c0,0,0,0,0,0c0,0,0,0,0,0L45,66.8L45,66.8L45,66.8L45,66.8
						C45,66.8,45,66.8,45,66.8L45,66.8z"/>
					<path class="st12" d="M45,66.8L92,49l0,0c0,0,0,0,0,0h0l0,0L45,66.8L45,66.8C45.1,66.8,45.1,66.8,45,66.8L45,66.8
						C45,66.8,45,66.8,45,66.8L45,66.8z"/>
					<polygon class="st13" points="45.1,66.8 92,49 92,49 92,49 92,49 92,49 45.1,66.8 45.1,66.8 45.1,66.8 45.1,66.8 45.1,66.8 
											"/>
					<path class="st14" d="M45.1,66.8L92,49l0,0h0h0l0,0L45.1,66.8L45.1,66.8L45.1,66.8L45.1,66.8C45.1,66.8,45.1,66.8,45.1,66.8
						L45.1,66.8z"/>
					<polygon class="st15" points="45.1,66.8 92,49 92,49 92,49 92,49 92,49 45.1,66.8 45.1,66.8 45.1,66.8 45.1,66.8 45.1,66.8 
											"/>
				</g>
			</g>
			<path class="st16" d="M133.4,74.3C133.4,74.3,133.4,74.3,133.4,74.3C133.4,74.3,133.4,74.3,133.4,74.3L133.4,74.3
				C133.4,74.2,133.4,74.2,133.4,74.3C133.4,74.2,133.4,74.2,133.4,74.3L133.4,74.3C133.4,74.2,133.4,74.2,133.4,74.3
				C133.4,74.2,133.4,74.2,133.4,74.3C133.4,74.2,133.4,74.2,133.4,74.3C133.4,74.2,133.4,74.2,133.4,74.3c0-0.1,0-0.1,0-0.1
				c0,0,0,0,0,0c0,0,0,0,0,0c0,0,0,0,0,0v0v0c0,0,0,0,0,0c0,0,0,0,0,0c0,0,0,0,0,0s0,0,0,0c0,0,0,0,0,0v0c0,0,0,0,0,0l0,0l0,0l0,0
				c0,0,0,0,0,0c0,0,0,0,0,0c0,0,0,0,0,0c0,0,0,0,0,0c0,0,0,0,0,0c0,0,0,0,0,0c0,0,0,0,0,0c0,0,0,0,0,0c0,0,0,0,0,0c0,0,0,0,0,0
				c0,0,0,0,0,0c0,0,0,0,0,0c0,0,0,0,0,0l0,0l0,0l0,0c0,0,0,0,0,0c0,0,0,0,0,0c0,0,0,0,0,0c0,0,0,0,0,0c0,0,0,0,0,0c0,0,0,0,0,0
				c0,0,0,0,0,0c0,0,0,0,0,0c0,0,0,0,0,0c0,0,0,0,0,0c0,0,0,0,0,0c0,0,0,0,0,0c0,0,0,0,0,0c0,0,0,0,0,0c0,0,0,0,0,0c0,0,0,0,0,0
				c0,0,0,0,0,0v0c0,0,0,0,0,0c0,0,0,0,0,0l0,0l0,0l0,0l0,0c0,0,0,0,0,0c0,0,0,0,0,0c0,0,0,0,0,0c0,0,0,0,0,0c0,0,0,0,0,0v0
				c0,0,0,0,0,0c0,0,0,0,0,0c0,0,0,0,0,0l0,0c0,0,0,0,0,0c0,0,0,0,0,0s0,0,0,0c0,0,0,0,0,0l0,0h0c0,0,0,0,0,0c0,0,0,0,0,0
				c0,0,0,0,0,0s0,0,0,0c0,0,0,0,0,0s0,0,0,0v0c0,0,0,0,0,0c0,0,0,0,0,0c0,0,0,0,0,0l0,0c0,0,0,0,0,0c0,0,0,0,0,0l0,0c0,0,0,0,0,0
				c0,0,0,0,0,0s0,0,0,0l0,0h0l-2.3-0.7L86.1,97.8l2.5,1.1c0.1,0.1,0.3,0.1,0.3,0.2c0.1,0.1,0.2,0.2,0.3,0.3
				c0.1,0.1,0.2,0.3,0.2,0.4c0,0,0,0,0,0c0.1,0.1,0.1,0.3,0.1,0.4c0,0.1,0,0.1,0,0.2c0,0.1,0,0.1-0.1,0.2l0,0l0,0
				c0,0.1,0,0.1-0.1,0.1h0c0,0,0,0,0,0c0,0-0.1,0.1-0.1,0.1l43.8-26c0,0,0,0,0,0c0,0,0,0,0,0c0,0,0,0,0,0c0,0,0,0,0,0c0,0,0,0,0,0
				c0,0,0,0,0,0c0,0,0,0,0,0c0,0,0,0,0,0c0,0,0,0,0,0c0,0,0,0,0,0c0,0,0,0,0,0s0,0,0,0c0,0,0,0,0,0v0c0,0,0,0,0,0c0,0,0,0,0,0l0,0
				c0,0,0,0,0,0s0,0,0,0l0,0c0,0,0,0,0,0c0,0,0,0,0,0c0,0,0,0,0,0v0c0,0,0,0,0,0v0c0,0,0,0,0,0l0,0l0,0v0c0,0,0,0,0,0c0,0,0,0,0,0
				l0,0c0,0,0,0,0,0l0,0l0,0c0,0,0,0,0,0v0v0c0,0,0,0,0,0l0,0v0c0,0,0,0,0,0c0,0,0,0,0,0c0,0,0,0,0,0c0,0,0,0,0,0c0,0,0,0,0,0
				c0,0,0,0,0,0v0l0,0v0c0,0,0,0,0,0c0,0,0,0,0,0l0,0l0,0V74.3L133.4,74.3L133.4,74.3L133.4,74.3C133.4,74.4,133.4,74.4,133.4,74.3
				L133.4,74.3L133.4,74.3C133.4,74.3,133.4,74.3,133.4,74.3L133.4,74.3L133.4,74.3C133.4,74.3,133.4,74.3,133.4,74.3L133.4,74.3
				C133.4,74.3,133.4,74.3,133.4,74.3L133.4,74.3C133.4,74.3,133.4,74.3,133.4,74.3z"/>
			<path class="st17" d="M131.6,72.9l-1.3-0.4L86.9,97.4C87.1,97.3,131,74.3,131.6,72.9z"/>
			<g>
				<polygon class="st10" points="45.1,66.8 92,49 131.1,59.8 86,82.8 				"/>
			</g>
			<path class="st18" d="M130.9,60.3c0.1-0.3,0.2-0.5,0.2-0.5L86,82.8c0,0,0,0,0,0c0,0,0,0,0,0c0,0,0,0,0,0c0,0,0,0,0,0.1
				c0,0,0,0.1,0,0.2c0,0,0,0.1,0,0.1c0,0.1,0,0.2-0.1,0.2h0l0,0l0,0c0,0.1,0,0.2-0.1,0.3c0,0.1,0,0.2-0.1,0.3c0,0,0,0,0,0
				c0,0,0,0.1,0,0.1c0,0,0,0.1,0,0.1c0,0.1,0,0.2-0.1,0.3c0,0.1-0.1,0.2-0.1,0.3c0,0.1,0,0.2-0.1,0.3c0,0.1,0,0.2-0.1,0.3
				c0,0.1,0,0.2,0,0.3c0,0.1,0,0.1,0,0.2c0,0,0,0.1,0,0.1c0,0.1,0,0.2,0,0.2c0,0.1,0,0.2,0,0.3c0,0.1,0,0.2,0,0.3c0,0.1,0,0.2,0,0.3
				c0,0,0,0.1,0,0.1c0,0,0,0,0,0s0,0,0,0c0,0,0,0.1,0,0.1c0,0.1,0,0.2,0,0.2c0,0.1,0,0.2,0,0.2c0,0.1,0,0.2,0,0.2c0,0.1,0,0.1,0,0.2
				c0,0.1,0,0.1,0,0.2c0,0.1,0,0.1,0,0.2c0,0.1,0,0.1,0,0.2c0,0.1,0,0.1,0,0.2c0,0.1,0,0.1,0,0.2c0,0.1,0,0.1,0,0.2
				c0,0.1,0,0.1,0,0.2c0,0,0,0,0,0c0,0,0,0,0,0c0,0,0,0,0,0c0,0,0,0,0,0.1c0,0.1,0,0.1,0,0.2c0,0.1,0,0.1,0,0.2c0,0.1,0,0.1,0,0.2
				c0,0.1,0,0.1,0,0.2c0,0.1,0,0.2,0,0.3c0,0.1,0,0.2,0,0.3c0,0.1,0,0.2,0,0.2c0,0,0,0,0,0c0,0,0,0,0,0c0,0.1,0,0.2,0,0.3
				c0,0.1,0,0.2,0,0.3c0,0.1,0,0.2,0,0.3c0,0.1,0,0.2,0,0.3c0,0.1,0,0.2,0,0.3c0,0,0,0,0,0v0c0,0,0,0,0,0c0,0.1,0,0.2,0,0.3
				c0,0.1,0,0.2,0,0.3c0,0.1,0,0.2,0,0.3c0,0.1,0,0.2,0,0.3c0,0.1,0,0.1,0,0.2c0,0,0,0,0,0c0,0.1,0,0.1,0,0.2c0,0.1,0,0.2,0.1,0.3
				c0,0.1,0,0.2,0.1,0.3c0,0.1,0,0.2,0,0.3c0,0,0,0,0,0.1c0,0,0,0,0,0c0,0,0,0,0,0.1c0,0.1,0,0.1,0,0.2c0,0.1,0,0.2,0.1,0.3
				c0,0.1,0,0.2,0.1,0.3c0,0,0,0.1,0,0.1c0,0.1,0,0.1,0,0.1c0,0,0,0,0,0.1c0,0.1,0,0.2,0.1,0.3c0,0.1,0,0.1,0,0.1c0,0.1,0,0.1,0,0.2
				c0,0.1,0.1,0.3,0.1,0.3c0,0,0,0,0,0.1c0,0,0,0,0,0.1c0,0,0,0.1,0,0.1c0,0,0,0.1,0,0.1c0,0,0,0,0,0.1c0,0,0,0,0,0l44.1-25.3
				c0,0,0-0.1,0-0.2c0,0,0,0,0,0c0,0,0,0,0-0.1c0-0.1,0-0.2-0.1-0.3c0,0,0-0.1,0-0.1c0,0,0,0,0,0c0-0.2,0-0.3-0.1-0.5
				c0,0,0-0.1,0-0.1c0-0.2-0.1-0.5-0.1-0.8c0,0,0,0,0-0.1c0-0.3-0.1-0.6-0.1-1v0c0-0.3-0.1-0.7-0.1-1.1c0,0,0,0,0,0
				c0-0.4,0-0.8,0-1.2c0,0,0,0,0,0c0-0.4,0-0.9,0-1.3c0-0.7,0.1-1.5,0.3-2.2c0,0,0,0,0-0.1c0.1-0.7,0.3-1.3,0.4-1.8
				C130.6,61.1,130.8,60.7,130.9,60.3L130.9,60.3C130.9,60.3,130.9,60.3,130.9,60.3z"/>
			<path class="st16" d="M134.4,59.6L134.4,59.6C134.4,59.6,134.4,59.6,134.4,59.6C134.4,59.6,134.4,59.6,134.4,59.6
				C134.4,59.6,134.4,59.6,134.4,59.6C134.4,59.6,134.4,59.6,134.4,59.6C134.4,59.6,134.4,59.6,134.4,59.6L134.4,59.6L134.4,59.6
				C134.4,59.6,134.4,59.6,134.4,59.6L134.4,59.6c0-0.1,0-0.1,0-0.1s0,0,0,0c0,0,0,0,0,0c0,0,0,0,0,0v0c0,0,0,0,0,0c0,0,0,0,0,0
				c0,0,0,0,0,0s0,0,0,0c0,0,0,0,0,0v0c0,0,0,0,0,0c0,0,0,0,0,0c0,0,0,0,0,0l0,0c0,0,0,0,0,0l0,0c0,0,0,0,0,0c0,0,0,0,0,0
				c0,0,0,0,0,0c0,0,0,0,0,0c0,0,0,0,0,0c0,0,0,0,0,0c0,0,0,0,0,0c0,0,0,0,0,0c0,0,0,0,0,0c0,0,0,0,0,0c0,0,0,0,0,0c0,0,0,0,0,0
				c0,0,0,0,0,0c0,0,0,0,0,0c0,0,0,0,0,0c0,0,0,0,0,0c0,0,0,0,0,0v0c0,0,0,0,0,0c0,0,0,0,0,0h0c0,0,0,0,0,0h0c0,0,0,0,0,0
				c0,0,0,0,0,0c0,0,0,0,0,0l0,0c0,0,0,0,0,0h0c0,0,0,0,0,0c0,0,0,0,0,0l0,0c0,0,0,0,0,0h0l0,0c0,0,0,0,0,0l0,0c0,0,0,0,0,0
				c0,0,0,0,0,0c0,0,0,0,0,0c0,0,0,0,0,0c0,0,0,0,0,0c0,0,0,0,0,0c0,0,0,0,0,0c0,0,0,0,0,0c0,0,0,0,0,0c0,0,0,0,0,0c0,0,0,0,0,0
				c0,0,0,0,0,0s0,0,0,0h0h0c0,0,0,0,0,0c0,0,0,0,0,0c0,0,0,0,0,0s0,0,0,0l0,0c0,0,0,0,0,0h0c0,0,0,0,0,0c0,0,0,0,0,0s0,0,0,0l0,0
				c0,0,0,0,0,0L91.8,47.3l0,0l0,0l0,0h0l0,0c0,0,0,0,0,0s0,0,0,0h0c0,0,0,0,0,0h0h0h0c0,0,0,0,0,0s0,0,0,0l0,0c0,0,0,0,0,0
				c0,0,0,0,0,0c0,0,0,0,0,0l0,0c0,0,0,0,0,0c0,0,0,0,0,0c0,0,0,0,0,0h0c0,0,0,0,0,0h0l0,0l0,0h0c0,0,0,0,0,0l0,0c0,0,0,0,0,0h0
				c0,0,0,0,0,0l0,0c0,0,0,0,0,0c0,0,0,0,0,0s0,0,0,0c0,0,0,0,0,0h0v0c0,0,0,0,0,0l0,0c0,0,0,0,0,0l0,0l0,0
				C75.8,53.2,60.1,59,44.4,64.8l0,0h0l0,0c0,0,0,0,0,0c0,0-0.1,0-0.1,0l0,0h0l0,0l0,0l0,0c0,0,0,0,0,0l0,0l0,0c0,0,0,0,0,0l0,0
				l0.1-0.1c0,0,0,0,0,0c0,0,0.1,0,0.1,0c0,0,0.1,0,0.1,0c0,0,0,0,0,0l0,0c0,0,0,0,0.1,0l0,0l0,0c0,0,0,0,0,0l0,0l43.9,16.8
				c0.1,0,0.3,0.1,0.4,0.2c0.1,0.1,0.2,0.2,0.3,0.3c0.1,0.1,0.2,0.3,0.2,0.4l0,0l0,0c0,0.1,0.1,0.3,0.1,0.4c0,0.1,0,0.2,0,0.2v0
				c0,0,0,0,0,0c0,0.1,0,0.1-0.1,0.2c0,0.1-0.1,0.1-0.1,0.2c0,0-0.1,0.1-0.1,0.1l44.9-23.4c0,0,0,0,0.1,0c0,0,0,0,0,0c0,0,0,0,0,0
				c0,0,0,0,0,0s0,0,0,0c0,0,0,0,0,0c0,0,0,0,0,0h0c0,0,0,0,0,0s0,0,0,0c0,0,0,0,0,0c0,0,0,0,0,0c0,0,0,0,0,0c0,0,0,0,0,0
				c0,0,0,0,0,0l0,0c0,0,0,0,0,0c0,0,0,0,0,0l0,0c0,0,0,0,0,0c0,0,0,0,0,0c0,0,0,0,0,0v0c0,0,0,0,0,0c0,0,0,0,0,0c0,0,0,0,0,0
				c0,0,0,0,0,0l0,0c0,0,0,0,0,0c0,0,0,0,0,0l0,0v0c0,0,0,0,0,0s0,0,0,0c0,0,0,0,0,0c0,0,0,0,0,0s0,0,0,0v0v0c0,0,0,0,0,0l0,0
				c0,0,0,0,0,0c0,0,0,0,0,0c0,0,0,0,0,0v0c0,0,0,0,0,0s0,0,0,0c0,0,0,0,0,0c0,0,0,0,0,0c0,0,0,0,0,0s0,0,0,0v0c0,0,0,0,0,0
				c0,0,0,0,0,0l0,0l0,0c0,0,0,0,0,0c0,0,0,0,0,0l0,0v0l0,0l0,0l0,0v0C134.4,59.8,134.4,59.8,134.4,59.6
				C134.4,59.7,134.4,59.7,134.4,59.6C134.4,59.7,134.4,59.7,134.4,59.6C134.4,59.7,134.4,59.7,134.4,59.6
				C134.4,59.7,134.4,59.7,134.4,59.6C134.4,59.7,134.4,59.7,134.4,59.6L134.4,59.6C134.4,59.7,134.4,59.7,134.4,59.6
				C134.4,59.7,134.4,59.7,134.4,59.6L134.4,59.6C134.4,59.7,134.4,59.7,134.4,59.6z"/>
			<path class="st19" d="M90,81.5c-0.3,0.1-0.4,0.5-0.3,0.7l0,0c0.1,0.3,0.5,0.3,0.7,0.2l43.3-22.3c0.3-0.1,0.4-0.5,0.3-0.7l0,0
				c-0.1-0.2-0.4-0.3-0.7-0.2L90,81.5z"/>
			<path class="st20" d="M88.9,78.4L58.4,59.6c-4.7,1.7-9.3,3.5-14,5.2h0l0,0c0,0,0,0,0,0c0,0-0.1,0-0.1,0l0,0h0l0,0l0,0
				c0,0,0,0,0,0l0,0l0.1-0.1c0,0,0,0,0,0c0,0,0.1,0,0.1,0c0,0,0.1,0,0.1,0c0,0,0,0,0,0l0,0c0,0,0,0,0.1,0l0,0l0,0c0,0,0,0,0,0l0,0
				l29.6,11.4l14.4,3.3l29.5-12.7L88.9,78.4z"/>
			<path class="st21" d="M85.9,97.1c-0.1-0.4-0.2-1-0.4-1.8c-0.1-0.7-0.3-1.6-0.4-2.5c-0.1-0.9-0.2-2-0.2-3c0-0.9,0-1.8,0.1-2.6
				c0.1-0.8,0.2-1.5,0.3-2.2c0.1-0.6,0.2-1.2,0.3-1.5c0.1-0.4,0.2-0.6,0.2-0.7l-40.9-16c0,0-0.1,0-0.2,0.1c-0.1,0.1-0.3,0.3-0.4,0.6
				c-0.1,0.4-0.2,1-0.3,1.9c0,0.9,0,2.1,0.1,3.7c0.1,1.2,0.3,2.2,0.4,3.1c0.2,0.8,0.3,1.5,0.5,2.1c0.2,0.5,0.3,0.9,0.5,1.3
				c0.1,0.3,0.3,0.5,0.4,0.6l40.1,17.6C86.1,97.8,86.1,97.5,85.9,97.1z"/>
			<path class="st22" d="M53.9,83c1.6,0.7,3.6,2.2,5.4,2.3c-3.7-2.6-8.2-4.3-11-8.1C47,75.3,47.2,73,47.8,71
				c0.5-1.8,1.4-1.8,3.1-1.8l0-0.1L45.6,67c-0.4,0.2-0.8,0.4-1.2,0.7c-0.1,0.4-0.2,0.9-0.2,1.7c0,0.9,0,2.1,0.1,3.7
				c0,0.2,0,0.4,0.1,0.5c0.1,0.7,0.2,1.3,0.3,1.7c0,0.3,0.1,0.5,0.1,0.8c0,0,0,0,0,0.1c0.2,0.8,0.3,1.5,0.5,2.1
				c0.2,0.5,0.3,0.9,0.5,1.3c0.1,0.1,0.1,0.2,0.2,0.3c0.3,0.3,0.7,0.5,1,0.7l1.2,0.5c0.6,0.2,1.2,0.4,1.7,0.5
				C51.2,82,52.5,82.4,53.9,83z"/>
			<g>
				<path class="st16" d="M89.8,98.9c-0.1-0.1-0.2-0.3-0.3-0.3c-0.1-0.1-0.2-0.2-0.4-0.2l-2.5-1.1c0,0-39.4-17.7-39.6-17.8
					c-1.1-0.5-2-6.9-1.3-12.4c-0.7-0.3-1.4-0.6-2-0.9c-0.6,1.8-0.4,4.1-0.2,5.9c0.1,1.4,0.3,2.5,0.5,3.5c0.2,1,0.4,1.8,0.7,2.5
					c0.2,0.7,0.5,1.3,0.7,1.7c0.2,0.4,0.4,0.8,0.6,1c0,0,0,0,0,0.1c0,0,0,0.1,0.1,0.1c0,0,0,0,0,0.1c0,0,0,0,0.1,0.1
					c0,0,0,0,0.1,0.1c0,0,0,0,0,0.1c0,0,0,0,0.1,0l0.2,0.1l42.7,19.1c0.1,0.1,0.2,0.1,0.4,0.1c0.1,0,0.2,0,0.3-0.1
					c0.1-0.1,0.2-0.1,0.2-0.2c0-0.1,0.1-0.2,0.1-0.4c0-0.1,0-0.3-0.1-0.4C89.9,99.2,89.9,99,89.8,98.9z"/>
			</g>
			<g>
				<path class="st20" d="M86.9,97.4C84.2,96.1,47.2,79.5,47,79.4c-1.1-0.5-2-6.9-1.3-12.4c-0.7-0.3-1.4-0.6-2-0.9
					c-0.6,1.8-0.4,4.1-0.2,5.9c0.1,1.4,0.3,2.5,0.5,3.5c0.2,1,0.4,1.8,0.7,2.5c0.2,0.7,0.5,1.3,0.7,1.7c0.2,0.4,0.4,0.8,0.6,1
					c0,0,0,0,0,0.1c0,0,0,0.1,0.1,0.1c0,0,0,0,0,0.1c0,0,0,0,0.1,0.1c0,0,0,0,0.1,0.1c0,0,0,0,0,0.1c0,0,0,0,0.1,0l0.2,0.1L84,98
					C84,98,86.1,97.7,86.9,97.4z"/>
			</g>
			<g>
				<path class="st17" d="M88.5,81.7c0.1,0,0.3,0.1,0.4,0.2c0.1,0.1,0.2,0.2,0.3,0.3c0.1,0.1,0.2,0.3,0.2,0.4c0,0.1,0.1,0.3,0.1,0.4
					c0,0.1,0,0.3-0.1,0.4c0,0.1-0.1,0.2-0.2,0.3c-0.1,0.1-0.2,0.1-0.3,0.1c-0.1,0-0.2,0-0.4-0.1l-2.6-1l-40.9-16c0,0-0.1,0-0.2,0.1
					c-0.1,0.1-0.3,0.3-0.4,0.6c-0.1,0.4-0.2,1-0.3,1.9c0,0.9,0,2.1,0.1,3.7c0.1,1.2,0.3,2.2,0.4,3.1c0.2,0.8,0.3,1.5,0.5,2.1
					c0.2,0.5,0.3,0.9,0.5,1.3c0.1,0.3,0.3,0.5,0.4,0.6l40.1,17.6l2.5,1.1c0.1,0.1,0.3,0.1,0.3,0.2c0.1,0.1,0.2,0.2,0.3,0.3
					c0.1,0.1,0.2,0.3,0.2,0.4c0.1,0.1,0.1,0.3,0.1,0.4c0,0.1,0,0.3-0.1,0.4c0,0.1-0.1,0.2-0.2,0.2c-0.1,0.1-0.2,0.1-0.3,0.1
					c-0.1,0-0.2,0-0.3-0.1L45.9,81.8l-0.2-0.1c0,0,0,0,0,0c0,0,0,0,0,0c0,0,0,0,0,0c0,0,0,0-0.1-0.1c0,0,0,0-0.1-0.1
					c0,0,0-0.1,0-0.1c0,0,0,0-0.1-0.1c0,0,0-0.1,0-0.1c-0.2-0.2-0.4-0.5-0.6-1c-0.2-0.4-0.4-1-0.7-1.7c-0.2-0.7-0.4-1.5-0.6-2.5
					c-0.2-1-0.4-2.2-0.5-3.5c-0.2-1.8-0.2-3.1-0.1-4.2c0.1-1.1,0.3-1.8,0.5-2.3c0.2-0.5,0.4-0.8,0.6-1c0.2-0.2,0.3-0.2,0.3-0.2
					c0,0,0.1,0,0.1,0c0,0,0.1,0,0.1,0c0,0,0.1,0,0.1,0c0,0,0.1,0,0.1,0L88.5,81.7z"/>
			</g>
			<path class="st23" d="M127.9,61.4l-5.2-1.4c-0.1,1.2-0.3,2.4-0.5,3.6l3.9-1.5l1.6-0.6c0,0,0,0,0.1,0c0,0,0,0,0,0l0,0
				C127.8,61.4,127.8,61.4,127.9,61.4C127.8,61.4,127.8,61.4,127.9,61.4C127.9,61.4,127.9,61.4,127.9,61.4L127.9,61.4z"/>
			<path class="st24" d="M89,56c-9.4-3-19-5-28.4-7.8c-1.1-0.3-1.9-0.8-2.6-1.5c-0.7-0.2-1.4-0.3-2.1-0.5c-0.1,0-0.2-0.1-0.3-0.1
				l-3.2,0.6l-3.1-1c0,0-0.1,0-0.1,0c0,0-0.1,0-0.1,0c-0.9,0.5-1.4,1.9-1.6,2.8c-0.3,1.2-0.3,2.5-0.2,3.7c0.1,1.4,0.3,2.8,0.7,4.1
				c0.2,0.8,0.5,1.4,0.7,1.9c0.3,0.5,0.5,0.8,0.8,1.1c0.2,0.3,0.5,0.4,0.6,0.5l0.2,0.1l38.6,18.3l-0.3-0.1c-0.2-0.1-0.4-0.3-0.7-0.6
				c-0.3-0.3-0.5-0.8-0.8-1.4c-0.2-0.4-0.3-0.8-0.5-1.4l2.8,1.3c0-0.1,0-0.2,0-0.4c0.5-4.3,0.7-9.2,2.8-13.1
				C94.2,59.1,92.6,57.2,89,56z"/>
			<g>
				<path class="st18" d="M126.6,49.4c0,0-0.1,0.3-0.1,0.6c-0.1,0.4-0.2,0.9-0.3,1.5c-0.1,0.6-0.2,1.3-0.3,2
					c-0.1,0.7-0.2,1.5-0.2,2.3c0,0.9,0,1.8,0,2.5c0,0.8,0.1,1.4,0.1,2c0.1,0.5,0.1,1,0.2,1.3c0,0.3,0.1,0.5,0.1,0.5L89.5,76.2
					c-0.1,0-0.3-0.2-0.4-0.4c-0.2-0.2-0.4-0.6-0.5-1.1c-0.2-0.5-0.4-1.2-0.5-2.1c-0.1-0.9-0.3-2-0.3-3.4c0-1.9,0-3.4,0.2-4.5
					c0.1-1.2,0.3-2,0.5-2.6c0.2-0.6,0.4-0.9,0.6-1.1c0.2-0.2,0.3-0.3,0.3-0.3L126.6,49.4z"/>
			</g>
			<path class="st25" d="M89.3,60.8c0,0-0.1,0.1-0.3,0.3c-0.2,0.2-0.4,0.6-0.6,1.1c-0.2,0.6-0.4,1.4-0.5,2.6
				c-0.1,0.7-0.1,1.6-0.2,2.6c0-0.1,1.7-4,4.8-6.1c3.1-2.1,34.1-11.9,34.1-11.9L89.3,60.8z"/>
			<g>
				<path class="st23" d="M126.3,61.1l-1.5,0.6l-36.1,14c0.2,0.6,0.3,1.3,0.3,1.9l37.3-14.9c0.1,0,0.1-0.1,0.2-0.2
					c0.1-0.1,0.1-0.2,0.2-0.3c0-0.1,0.1-0.2,0.1-0.3c0,0,0-0.1,0-0.1C126.6,61.6,126.4,61.4,126.3,61.1z"/>
			</g>
			<g>
				<path class="st26" d="M128.2,47.1c0.1,0,0.2,0,0.2,0c0.1,0,0.1,0.1,0.2,0.1c0,0.1,0.1,0.1,0.1,0.2c0,0.1,0,0.2,0,0.3
					c0,0.1,0,0.2-0.1,0.4c0,0.1-0.1,0.2-0.1,0.3c-0.1,0.1-0.1,0.2-0.2,0.2c-0.1,0.1-0.2,0.1-0.2,0.1l-1.6,0.5L89.3,60.8
					c0,0-0.1,0.1-0.3,0.3c-0.2,0.2-0.4,0.6-0.6,1.1c-0.2,0.6-0.4,1.4-0.5,2.6c-0.1,1.2-0.2,2.6-0.2,4.5c0.1,1.4,0.2,2.5,0.3,3.4
					c0.2,0.9,0.3,1.6,0.5,2.1c0.2,0.5,0.4,0.8,0.5,1.1c0.2,0.2,0.3,0.3,0.4,0.4L126,62.1l1.6-0.6c0.1,0,0.2,0,0.2,0
					c0.1,0,0.1,0,0.2,0.1c0,0.1,0.1,0.1,0.1,0.2c0,0.1,0,0.2,0,0.3c0,0.1,0,0.2-0.1,0.3c0,0.1-0.1,0.2-0.1,0.3
					c-0.1,0.1-0.1,0.2-0.2,0.3c-0.1,0.1-0.2,0.1-0.2,0.2L89.3,78.4l-0.2,0.1c0,0,0,0,0,0c0,0,0,0,0,0c0,0,0,0-0.1,0c0,0,0,0-0.1,0
					l-0.3-0.1c-0.2-0.1-0.4-0.3-0.7-0.6c-0.3-0.3-0.5-0.8-0.8-1.4c-0.3-0.6-0.5-1.4-0.7-2.5c-0.2-1-0.3-2.3-0.4-3.9
					c-0.1-2.1,0-3.8,0.2-5.2c0.2-1.4,0.5-2.5,0.8-3.3c0.3-0.8,0.6-1.4,0.9-1.7c0.3-0.4,0.4-0.5,0.5-0.6c0,0,0.1-0.1,0.1-0.1
					c0,0,0.1-0.1,0.1-0.1c0,0,0.1-0.1,0.1-0.1c0,0,0.1,0,0.1-0.1L128.2,47.1z"/>
			</g>
			<path class="st27" d="M70.9,51.9c0-0.1-0.5-1.1-0.5-1.1c-0.1-0.1-0.1-0.2-0.2-0.4c-0.1-0.1-0.3-0.3-0.5-0.5
				c-0.1-0.1-0.2-0.1-0.4-0.3c-2.4-1.5-4.7-3.2-7.3-4.5c-0.7-0.4-1.3-0.9-1.8-1.5l-11,2.1L71.4,53C71.2,52.7,71.1,52.3,70.9,51.9z"
				/>
			<path class="st23" d="M128.4,47.1C128.4,47.1,128.4,47.1,128.4,47.1L128.4,47.1L128.4,47.1L128.4,47.1l-17.6-3.3
				c-8.5-1.6-17.1-3.2-25.6-4.8l0,0l0,0h0c0,0,0,0,0,0h0c0,0,0,0,0,0c0,0,0,0,0,0c0,0,0,0,0,0h0c0,0,0,0,0,0h0c0,0,0,0,0,0h0l0,0
				c0,0,0,0,0,0l-7.8,1.5c0.2,0.1,0.3,0.3,0.5,0.4c2.5,2,3.8,4.8,4.8,7.8c1,2.7-0.6,5.6-3,6.9l9.4,3.1l39.4-11.6c0,0,0,0,0.1,0
				C128.3,47.1,128.3,47.1,128.4,47.1C128.3,47.1,128.4,47.1,128.4,47.1L128.4,47.1C128.4,47.1,128.4,47.1,128.4,47.1L128.4,47.1z"
				/>
			<g class="st4">
				<defs>
					<path id="SVGID_11_" class="st4" d="M95.3,30.4c3,0.5,6.1,0.9,9.1,1.4c3.4,0.5,6.8,1.1,10.2,1.6c3,0.5,6,0.9,9,1.4c0,0,0,0,0,0
						c0,0,0,0-0.1,0c0,0,0,0,0,0c0,0,0,0,0,0l-28.3-4.5c0,0,0,0,0,0C95.2,30.4,95.2,30.4,95.3,30.4C95.2,30.4,95.2,30.4,95.3,30.4
						C95.2,30.4,95.3,30.4,95.3,30.4z"/>
				</defs>
				<clipPath id="SVGID_12_">
					<use xlink:href="#SVGID_11_"  style="overflow:visible;"/>
				</clipPath>
				<g class="st28">
					<path class="st29" d="M123.4,34.8l-28.3-4.5c0,0,0,0,0,0c0,0,0,0,0,0c0,0,0,0,0,0c0,0,0,0,0,0l28.3,4.4c0,0,0,0,0,0
						C123.5,34.8,123.5,34.8,123.4,34.8C123.5,34.8,123.5,34.8,123.4,34.8C123.4,34.8,123.4,34.8,123.4,34.8L123.4,34.8z"/>
				</g>
			</g>
			<g>
				<path class="st30" d="M119.4,47.4c-0.3,0.3-0.6,0.5-0.9,0.7l3.3,1l2.2-0.3L119.4,47.4z"/>
				<path class="st30" d="M124.3,48.8C124.3,48.8,124.3,48.8,124.3,48.8L124.3,48.8c-1.6-0.5-3.2-0.9-4.8-1.4c0,0,0,0,0,0l4.6,1.4
					c0,0,0.1,0,0.1,0c0,0,0,0,0.1,0C124.2,48.8,124.2,48.8,124.3,48.8C124.2,48.8,124.3,48.8,124.3,48.8L124.3,48.8
					C124.3,48.8,124.3,48.8,124.3,48.8L124.3,48.8z"/>
			</g>
			<g>
				<path class="st18" d="M121.3,36.8c0,0,0,0.2-0.1,0.6c-0.1,0.3-0.2,0.8-0.2,1.4c-0.1,0.6-0.2,1.3-0.2,2c-0.1,0.7-0.1,1.4,0,2.2
					c0,0.9,0.1,1.7,0.2,2.4c0.1,0.7,0.3,1.4,0.4,1.9c0.1,0.5,0.3,1,0.4,1.3c0.1,0.3,0.2,0.5,0.2,0.5l-44.1,6.6
					c-0.1-0.1-0.3-0.2-0.5-0.4c-0.2-0.2-0.4-0.6-0.6-1c-0.2-0.5-0.4-1.1-0.6-1.9c-0.2-0.8-0.4-1.8-0.5-3c-0.1-1.6-0.1-2.9,0-3.9
					c0.1-1,0.3-1.6,0.5-2.1c0.2-0.5,0.4-0.7,0.6-0.9c0.2-0.2,0.3-0.2,0.3-0.2L121.3,36.8z"/>
			</g>
			<path class="st31" d="M76,56.5c-0.3-0.3-0.6-0.8-0.8-1.4c-0.2-0.5-0.4-1-0.6-1.6c0.3,0.2,0.6-0.6,0.8-1.7
				c-0.2-0.7-0.3-1.4-0.3-2.1c-0.3-0.8-0.4-1.7-0.3-2.6c-0.2-2.9,1.4-5.9,4.8-6.4l14-8.9l-30.4,3.3l-2.5-1c0,0,0,0,0,0c0,0,0,0,0,0
				c0,0,0,0,0,0c0,0,0,0,0,0c0,0,0,0,0,0c0,0,0,0,0,0l0,0l0,0l0,0c0,0,0,0,0,0c0,0,0,0,0,0c0,0,0,0,0,0c0,0,0,0,0,0c0,0,0,0,0,0
				c0,0,0,0,0,0c0,0,0,0,0,0c0,0,0,0,0,0l0,0l0,0l0,0c0,0,0,0,0,0c0,0,0,0,0,0c0,0,0,0,0,0c0,0,0,0,0,0c0,0,0,0,0,0c0,0,0,0,0,0l0,0
				c0,0,0,0-0.1,0.1c0,0,0,0-0.1,0.1c0,0,0,0,0,0.1c0,0,0,0,0,0l0,0c0,0,0,0,0,0c0,0-0.1,0.1-0.1,0.1c0,0-0.1,0.1-0.1,0.2
				c0,0,0,0.1-0.1,0.1c-0.1,0.1-0.2,0.3-0.3,0.4c0,0,0,0,0,0.1c0,0,0,0,0,0c0,0,0,0.1,0,0.1c-0.1,0.2-0.1,0.4-0.2,0.6
				c0,0.1,0,0.1-0.1,0.2c0,0.1,0,0.1-0.1,0.1c0,0.2-0.1,0.5-0.1,0.8c0,0,0,0,0,0c0,0.2-0.1,0.5-0.1,0.8c0,0,0,0,0,0.1
				c0,0,0,0.1,0,0.1c0,0.2,0,0.5,0,0.7c0,0.1,0,0.2,0,0.3c0,0.3,0,0.7,0.1,1.1c0.1,0.9,0.2,1.7,0.4,2.3c0.2,0.6,0.4,1.2,0.6,1.6
				c0.2,0.4,0.4,0.7,0.6,1c0.2,0.3,0.4,0.4,0.6,0.5l15.7,11.5C76.5,57.1,76.2,56.9,76,56.5z"/>
			<path class="st30" d="M122.7,48.5c-0.1-0.1-0.2-0.1-0.3-0.1c-0.1,0-0.2,0-0.3,0l-2.2,0.3l-43.5,6.5c0.3,0.5,0.5,1.1,0.6,1.7
				l45.2-6.9c0.1,0,0.2-0.1,0.3-0.1c0.1-0.1,0.2-0.1,0.2-0.2c0.1-0.1,0.1-0.2,0.2-0.3c0-0.1,0-0.2,0-0.3c0-0.1,0-0.2-0.1-0.3
				C122.9,48.6,122.8,48.5,122.7,48.5z"/>
			<g>
				<path class="st32" d="M123.4,34.8c0.1,0,0.2,0,0.3,0c0.1,0,0.2,0.1,0.3,0.2c0.1,0.1,0.1,0.2,0.2,0.3c0,0.1,0.1,0.2,0.1,0.3
					c0,0.1,0,0.2,0,0.3c0,0.1-0.1,0.2-0.2,0.3c-0.1,0.1-0.2,0.1-0.2,0.2c-0.1,0.1-0.2,0.1-0.3,0.1l-2.2,0.3l-44.3,5.6
					c0,0-0.1,0-0.3,0.2c-0.2,0.2-0.4,0.4-0.6,0.9c-0.2,0.5-0.4,1.1-0.5,2.1c-0.1,1-0.1,2.2,0,3.9c0.1,1.2,0.3,2.2,0.5,3
					c0.2,0.8,0.4,1.4,0.6,1.9c0.2,0.5,0.4,0.8,0.6,1c0.2,0.2,0.4,0.4,0.5,0.4l44.1-6.6l2.2-0.3c0.1,0,0.2,0,0.3,0
					c0.1,0,0.2,0.1,0.3,0.2c0.1,0.1,0.1,0.1,0.2,0.2c0,0.1,0.1,0.2,0.1,0.3c0,0.1,0,0.2-0.1,0.3c0,0.1-0.1,0.2-0.2,0.3
					c-0.1,0.1-0.2,0.2-0.3,0.2c-0.1,0.1-0.2,0.1-0.3,0.1l-46.5,7.1l-0.2,0c0,0,0,0,0,0c0,0,0,0-0.1,0c0,0,0,0-0.1,0c0,0,0,0-0.1,0
					l-0.3-0.2c-0.2-0.1-0.5-0.3-0.8-0.7c-0.3-0.3-0.6-0.8-0.9-1.4c-0.3-0.6-0.6-1.4-0.8-2.3c-0.2-0.9-0.4-2.1-0.6-3.4
					c-0.2-1.8-0.1-3.2,0-4.4c0.2-1.2,0.4-2.1,0.7-2.7c0.3-0.7,0.6-1.1,0.8-1.4c0.3-0.3,0.4-0.4,0.5-0.4c0,0,0.1-0.1,0.1-0.1
					c0,0,0.1-0.1,0.1-0.1c0,0,0.1,0,0.1,0c0.1,0,0.1,0,0.1,0L123.4,34.8z"/>
			</g>
			<g>
				<polygon class="st30" points="76.4,40.6 60.7,34 95.1,30.4 123.4,34.8 				"/>
			</g>
			<path class="st33" d="M74.4,30.5l-21.6,3.4l-1.3,0.2c0,0,0,0,0,0c0,0,0,0,0,0s0,0,0,0l0,0l0,0c0,0,0,0,0,0c0,0,0,0,0,0l0,0
				c0,0,0,0,0,0c0,0,0,0,0,0c0,0,0,0,0,0l0,0c0,0,0,0,0,0c0,0,0,0,0,0c0,0,0,0,0,0c0,0,0,0,0,0c0,0,0,0,0,0c0,0,0,0,0,0c0,0,0,0,0,0
				c0,0,0,0,0,0c0,0,0,0,0,0c0,0,0,0,0,0c0,0,0,0,0,0c0,0,0,0,0,0c0,0,0,0,0,0v0v0c0,0,0,0,0,0c0,0,0,0.1,0,0.1c0,0,0,0.1,0,0.1
				c0,0,0,0,0,0.1c0,0,0,0,0,0l0,0c0,0,0,0,0,0c0,0,0,0,0,0c0,0,0,0,0,0c0,0,0,0,0,0c0,0,0,0,0,0c0,0,0,0,0,0c0,0,0,0,0,0
				c0,0,0,0,0,0l0,0c0,0,0,0,0,0v0v0v0v0c0,0,0,0,0,0l0,0c0,0,0,0,0,0c0,0,0,0,0,0c0,0,0,0,0,0c0,0,0,0,0,0s0,0,0,0c0,0,0,0,0,0
				c0,0,0,0,0,0v0c0,0,0,0,0,0c0,0,0,0,0,0c0,0,0,0,0,0s0,0,0,0c0,0,0,0,0,0c0,0,0,0,0,0c0,0,0,0,0,0c0,0,0,0,0,0c0,0,0,0,0,0
				c0,0,0,0,0,0l0,0l0,0l0,0v0c0,0,0,0,0,0c0,0,0,0,0,0c0,0,0,0,0,0c0,0,0,0,0,0c0,0,0,0,0,0c0,0,0,0,0,0c0,0,0,0.1,0,0.1
				c0,0,0,0,0,0c0,0,0,0,0,0c0,0,0,0,0,0c0,0,0.1,0.1,0.1,0.1c0,0,0,0,0,0c0,0,0,0,0,0c0,0,0,0,0,0c0,0,0,0,0.1,0c0,0,0.1,0,0.1,0
				c17.9,1.1,35.9,2.2,53.8,3.3c0,0-0.1,0-0.1-0.1c0,0,0,0,0,0c0,0-0.1-0.1-0.1-0.1c0,0,0,0,0,0c0-0.1-0.1-0.1-0.1-0.2l0,0
				c0-0.1,0-0.2,0-0.3c0-0.1,0-0.2,0-0.3c0-0.1,0.1-0.2,0.1-0.3c0,0,0,0,0,0c0-0.1,0.1-0.1,0.1-0.2l0,0c0-0.1,0.1-0.1,0.2-0.1
				l1.1-0.3l17.1-4.2L74.4,30.5z"/>
			<path class="st21" d="M104.8,30.4c0-0.1,0-0.1,0-0.2c0-0.1,0-0.1,0-0.2c0-0.1,0-0.1,0-0.2c0-0.1,0-0.3,0-0.4c0-0.1,0-0.3,0-0.4
				c0-0.1,0-0.2,0-0.4c0,0,0,0,0,0c0,0,0,0,0,0l0,0c0-0.1,0-0.3,0-0.4c0-0.2,0-0.3,0-0.4c0,0,0-0.1,0-0.1c0,0,0,0,0,0
				c0-0.2,0-0.4,0-0.5c0-0.1,0-0.1,0-0.2c0,0,0-0.1,0-0.1c0,0,0,0,0-0.1c0-0.1,0-0.1,0-0.2c0-0.2,0-0.3-0.1-0.4c0,0,0,0,0,0
				c0-0.1,0-0.1,0-0.2c0-0.1,0-0.2,0-0.3c0,0,0-0.1,0-0.1c0,0,0-0.1,0-0.1c0-0.1,0-0.1,0-0.2c0,0,0,0,0,0c0-0.1,0-0.2,0-0.3
				c0-0.1,0-0.1,0-0.1l-51.8-1.7c0,0,0,0.1,0,0.1c0,0,0,0.1,0,0.1c0,0.1,0,0.2,0.1,0.3c0,0,0,0,0,0c0,0.1,0.1,0.2,0.1,0.4
				c0,0.1,0,0.1,0,0.1c0,0.2,0.1,0.3,0.1,0.5c0,0,0,0.1,0,0.2c0,0.2,0.1,0.4,0.1,0.6c0,0,0,0.1,0,0.1c0,0.2,0.1,0.5,0.1,0.7
				c0,0,0,0,0,0c0.1,0.6,0.1,1.2,0.1,1.8c0,0.8,0,1.5,0,2.1c0,0,0,0,0,0.1c0,0.3,0,0.5-0.1,0.8c0,0.1,0,0.1,0,0.1
				c0,0.3,0,0.5-0.1,0.7c0,0.1,0,0.1,0,0.2c0,0.2,0,0.4-0.1,0.5c0,0,0,0.1,0,0.1c0,0.2,0,0.3-0.1,0.5c0,0,0,0,0,0.1
				c0,0.1,0,0.2,0,0.3c0,0,0,0,0,0c0,0.1,0,0.1,0,0.1l51.7,3c0,0,0,0,0-0.1c0-0.1,0-0.1,0-0.2c0-0.1,0-0.1,0-0.2c0,0,0-0.1,0-0.1
				c0,0,0,0,0-0.1c0,0,0,0,0-0.1c0-0.1,0-0.3,0-0.4c0-0.1,0-0.3,0-0.5c0-0.1,0-0.2,0-0.3c0,0,0,0,0,0c0,0,0,0,0,0c0-0.1,0-0.1,0-0.2
				c0-0.2,0-0.4,0.1-0.6v0c0,0,0-0.1,0-0.1c0-0.2,0-0.4,0-0.6c0-0.1,0-0.2,0-0.4c0,0,0,0,0,0c0,0,0,0,0,0c0,0,0-0.1,0-0.1
				c0-0.2,0-0.3,0-0.5c0-0.2,0-0.4,0-0.5c0-0.2,0-0.4,0-0.6c0,0,0-0.1,0-0.2c0-0.1,0-0.1,0-0.2s0-0.1,0-0.2c0-0.1,0-0.1,0-0.2
				C104.8,30.6,104.8,30.5,104.8,30.4z"/>
			<g>
				<path class="st18" d="M104.2,24.9l19-2.6c0,0,0.1,0,0.1,0.1c0,0.1,0.1,0.3,0.2,0.6c0.1,0.3,0.2,0.8,0.2,1.5
					c0.1,0.7,0.1,1.7,0.1,2.9c0,1,0,1.7-0.1,2.4c0,0.6-0.1,1.1-0.2,1.5c-0.1,0.4-0.1,0.7-0.2,0.9c-0.1,0.2-0.1,0.4-0.2,0.4
					l-19.1,4.2c0,0,0-0.2,0.1-0.6c0-0.3,0.1-0.8,0.2-1.4c0.1-0.6,0.1-1.2,0.1-2c0.1-0.7,0.1-1.6,0.1-2.4c0-0.7,0-1.4-0.1-2.1
					c0-0.7-0.1-1.3-0.2-1.8c-0.1-0.5-0.1-1-0.2-1.3C104.3,25.1,104.2,24.9,104.2,24.9z"/>
			</g>
			<g>
				<path class="st22" d="M53.1,30.5c0,0.3,0,0.5-0.1,0.8c0,0.1,0,0.1,0,0.1c0,0.3,0,0.5-0.1,0.7c0,0.1,0,0.1,0,0.2
					c0,0.2,0,0.4-0.1,0.5c0,0,0,0.1,0,0.1c0,0.2,0,0.3-0.1,0.5c0,0,0,0,0,0.1c0,0.1,0,0.2,0,0.3c0,0,0,0,0,0c0,0,0,0,0,0
					c2.6-0.8,4.6-2.5,7-3.7c2.2-1.1,4.5-1.8,6.8-2.7c8-3.1,34.3-2.1,35.5-2.5l-49.6-1.6c0,0,0,0.1,0,0.1c0,0,0,0.1,0,0.1
					c0,0.1,0,0.2,0.1,0.3c0,0,0,0,0,0c0,0.1,0.1,0.2,0.1,0.4c0,0.1,0,0.1,0,0.1c0,0.2,0.1,0.3,0.1,0.5c0,0,0,0.1,0,0.2
					c0,0.2,0.1,0.4,0.1,0.6c0,0,0,0.1,0,0.1c0,0.2,0.1,0.5,0.1,0.7c0,0,0,0,0,0c0.1,0.6,0.1,1.2,0.1,1.8
					C53.2,29.1,53.2,29.8,53.1,30.5C53.1,30.5,53.1,30.5,53.1,30.5z"/>
				<path class="st22" d="M52.8,33.9L52.8,33.9C52.8,33.9,52.8,33.9,52.8,33.9L52.8,33.9z"/>
			</g>
			<g>
				<polygon class="st34" points="74.3,19.8 123.5,20.8 105.2,23.4 51.1,21.9 				"/>
			</g>
			<g>
				<path class="st34" d="M123.8,23.8c-0.1-0.6-0.1-1.3-0.3-2c0-0.1-0.1-0.2-0.1-0.3c-0.4,0.2-1.5,0.7-2,0.6
					c2.1-0.3,1.1,9.1,0.9,9.9c-0.1,0.3-16.6,4.4-18.1,4.8c0.1,0,0.1,0,0.1,0c0.3,0,0.6,0,0.9,0c0.6,0,1.2,0,1.7,0
					c0.6,0,1.2,0.2,1.7,0.6l14.4-3.7l0.1-0.1l0.1-0.1l0.1-0.2c0.1-0.2,0.1-0.4,0.2-0.7c0.1-0.3,0.2-0.7,0.2-1.2
					c0.1-0.5,0.1-1.1,0.2-1.9c0-0.8,0.1-1.7,0.1-2.7C123.9,25.8,123.9,24.7,123.8,23.8z"/>
			</g>
			<path class="st33" d="M105,25c0,0-0.1-0.1-0.1-0.1c0,0,0,0,0,0c0-0.1,0-0.1-0.1-0.2l0,0c0-0.1,0-0.2,0-0.3c0-0.1,0-0.2,0-0.3
				c0-0.1,0-0.2,0.1-0.3v0c0-0.1,0.1-0.1,0.1-0.2c0.1-0.1,0.1-0.1,0.2-0.1l-54-1.5h0l0,0c0,0,0,0,0,0l0,0h0c0,0,0,0,0,0c0,0,0,0,0,0
				c0,0,0,0,0,0c0,0,0,0,0,0h0c0,0,0,0,0,0c0,0,0,0,0,0l0,0c0,0,0,0,0,0c0,0,0,0,0,0l0,0l0,0l0,0c0,0,0,0,0,0c0,0,0,0,0,0
				c0,0,0,0,0,0c0,0,0,0,0,0c0,0,0,0,0,0c0,0,0,0,0,0c0,0,0,0,0,0c0,0,0,0,0,0c0,0,0,0,0,0c0,0,0,0,0,0c0,0,0,0,0,0l0,0c0,0,0,0,0,0
				c0,0,0,0.1,0,0.1c0,0,0,0.1,0,0.1c0,0,0,0,0,0.1c0,0,0,0,0,0l0,0l0,0c0,0,0,0,0,0c0,0,0,0,0,0c0,0,0,0,0,0c0,0,0,0,0,0v0
				c0,0,0,0,0,0c0,0,0,0,0,0c0,0,0,0,0,0c0,0,0,0,0,0c0,0,0,0,0,0c0,0,0,0,0,0c0,0,0,0,0,0l0,0c0,0,0,0,0,0v0l0,0c0,0,0,0,0,0v0
				c0,0,0,0,0,0v0c0,0,0,0,0,0c0,0,0,0,0,0c0,0,0,0,0,0c0,0,0,0,0,0l0,0v0c0,0,0,0,0,0s0,0,0,0c0,0,0,0,0,0c0,0,0,0,0,0l0,0
				c0,0,0,0,0,0c0,0,0,0,0,0c0,0,0,0,0,0v0c0,0,0,0,0,0c0,0,0,0,0,0c0,0,0,0,0,0c0,0,0,0,0,0c0,0,0,0,0,0c0,0,0,0,0,0c0,0,0,0,0,0.1
				c0,0,0,0,0,0c0,0,0,0,0,0c0,0,0,0,0,0c0,0,0,0.1,0.1,0.1c0,0,0,0,0,0l0,0c0,0,0,0,0,0c0,0,0,0,0,0c0,0,0.1,0,0.1,0
				c18,0.6,36,1.1,54,1.7C105.1,25.1,105,25,105,25C105,25,105,25,105,25z"/>
			<g>
				<path class="st35" d="M105.2,23.4l18.3-2.6c0,0,0,0,0.1,0c0,0,0,0,0,0c0,0,0,0,0,0c0,0,0,0,0,0c0,0,0.1,0.1,0.2,0.2
					c0.1,0.2,0.2,0.5,0.3,0.9c0.1,0.5,0.2,1.1,0.3,1.9c0.1,0.9,0.1,2,0.1,3.3c0,1.1,0,2-0.1,2.7c-0.1,0.8-0.1,1.4-0.2,1.9
					c-0.1,0.5-0.2,0.9-0.2,1.2c-0.1,0.3-0.1,0.5-0.2,0.7l-0.1,0.2l-0.1,0.1l-0.1,0.1l-18.3,4.7c-0.1,0-0.1,0-0.2,0
					c-0.1,0-0.1-0.1-0.1-0.1c0-0.1-0.1-0.2-0.1-0.2c0-0.1,0-0.2,0-0.3c0-0.1,0-0.2,0-0.3c0-0.1,0.1-0.2,0.1-0.3
					c0-0.1,0.1-0.2,0.1-0.2c0-0.1,0.1-0.1,0.2-0.1l1.1-0.3l17.1-4.2c0-0.1,0.1-0.2,0.1-0.4c0-0.2,0.1-0.5,0.2-0.9
					c0-0.4,0.1-0.9,0.1-1.5c0-0.7,0.1-1.4,0.1-2.4c0-1.3,0-2.2-0.1-2.9c-0.1-0.7-0.1-1.2-0.2-1.5c-0.1-0.3-0.1-0.5-0.2-0.6
					c0-0.1-0.1-0.1-0.1-0.1l-17.1,2.6l-1.1,0.2c0,0-0.1,0-0.2,0c0,0-0.1-0.1-0.1-0.2c0-0.1-0.1-0.2-0.1-0.3c0-0.1,0-0.2,0-0.3
					c0-0.1,0-0.2,0-0.3c0-0.1,0-0.2,0.1-0.3c0-0.1,0.1-0.2,0.1-0.2C105.1,23.4,105.1,23.4,105.2,23.4z"/>
			</g>
			<polygon class="st22" points="85.6,95.3 62.2,84.9 85.5,94.9 100.6,87.5 			"/>
			<path class="st36" d="M129.8,64.5"/>
			<polygon class="st21" points="87.5,46.5 79.7,48 89.4,47 103.5,45.1 90.9,46.2 			"/>
			<path class="st20" d="M92.3,48.4c-0.3-1.6-0.9-1.4-3.1-1.5c-1.6-0.1-3.5-0.1-3.3,0.5c1.4,0.8,0,6.9-0.2,8.5
				c0.3,0.3,3.3-2.9,3.7-3c0.4-0.1,1.7,3.3,2.2,3.1C92.1,53.6,92.8,50.5,92.3,48.4z"/>
			<path class="st37" d="M53,25c0,0.1,0,0.3,0,0.4h17.2L53,25z"/>
			<polygon class="st21" points="121.4,26.3 110.7,28.5 119,27.3 			"/>
			<path class="st16" d="M92.4,47.6c-0.5-1.5-1-1.3-3.3-1.1c-1.6,0.1-3.5,0.4-3.2,0.9c1.5,0.6,0.8,6.8,0.9,8.4
				c0.3,0.3,2.9-3.3,3.3-3.5c0.4-0.2,2.2,3,2.6,2.8C92.8,52.8,93.1,49.6,92.4,47.6z"/>
			<path class="st20" d="M118.8,27.1c-0.6,0.1-1.6,0.2-2,0.3c1,0.2,0.6,6.9,0.6,8.7c0.6-0.7,1.8-2.7,1.8-2.7s0-0.1,0,0
				c0.1-0.2,0.3-0.2,0.3-0.2s0.5,1.4,0.9,2c0.1-2.4,0.3-5.7-0.1-7.8C120.3,27.1,120,27,118.8,27.1z"/>
			<path class="st24" d="M120.4,26.8c-0.1-0.2-0.3-0.3-1.6,0c-0.9,0.2-2.1,0.3-2.1,0.6c0.9,0.6,1,7,1.2,8.7c0.2,0.3,1.9-3.1,1.9-3.1
				s1.2,2.4,1.4,2.1C121.1,32.6,121,29.1,120.4,26.8z"/>
			<path class="st23" d="M118.9,26.8c-0.6,0.1-1.6,0.3-2,0.4c1,0.1,1.2,6.8,1.3,8.5c0.5-0.7,1.6-2.8,1.6-2.8s-0.1-0.1,0,0
				c0.1-0.2,0.3-0.2,0.3-0.2s0.7,1.3,1.1,1.9c-0.1-2.4-0.2-5.7-0.8-7.8C120.4,26.6,120.1,26.5,118.9,26.8z"/>
			<g>
				<path class="st17" d="M90.1,52.3c0.4-0.2,2.2,3,2.6,2.8c0-0.2,0-0.3,0-0.5c-0.5-0.3-0.8-0.8-1.2-1.4
					C91.3,52.9,90.7,51.9,90.1,52.3C89.9,52.3,90,52.3,90.1,52.3z"/>
				<path class="st17" d="M86.8,55.7c0.1,0.1,0.6-0.4,1.1-1c-0.2,0.1-0.4,0.2-0.6,0c-0.3-0.4,0.1-4.4-0.4-6.3c-0.2-0.7-0.4-1-1-1.4
					c-0.1,0.1-0.1,0.2-0.1,0.3C87.4,47.9,86.7,54.2,86.8,55.7z"/>
			</g>
			<path class="st17" d="M89.1,46.4c-1.6,0.1-3.5,0.4-3.2,0.9c0.1,0,0.7,0.3,0.8,0.3c0,0.1-0.3-0.4,0.1-0.6c0.3-0.1,0.6-0.2,0.9-0.3
				c0.3-0.1,0.7-0.1,1-0.1c0.2,0,0.8,0.2,0.8,0.4c-0.1-0.7,1.6-0.6,2.2-0.6C91.2,46.2,90.5,46.3,89.1,46.4z"/>
			<path class="st38" d="M120.8,64c-2.5,1-5.9,2.2-9.2,3.5c-3.3,1.3-6.7,2.6-9.2,3.6c-2.5,1-4.1,1.7-4.1,1.7s1.7-0.6,4.2-1.5
				c2.5-1,5.9-2.2,9.2-3.5c3.3-1.3,6.6-2.6,9.1-3.6c2.5-1,4.2-1.7,4.2-1.7S123.3,63.1,120.8,64z"/>
			<path class="st19" d="M90.1,98.7c-0.3,0.2-0.4,0.5-0.2,0.7l0,0c0.1,0.2,0.5,0.3,0.7,0.1l41.9-24.8c0.3-0.2,0.4-0.5,0.3-0.7l0,0
				c-0.2-0.2-0.5-0.3-0.8-0.1L90.1,98.7z"/>
			<polygon class="st20" points="95.1,38.2 72.3,38.9 66.6,36.5 			"/>
			<path class="st39" d="M114.5,34.9c-0.9,0.2-2,0.5-3.2,0.7c-1.1,0.3-2.3,0.6-3.2,0.8c-0.9,0.3-1.4,0.4-1.4,0.4s0.6-0.1,1.5-0.3
				c0.9-0.2,2-0.5,3.2-0.7C112.5,35.5,113.7,35.2,114.5,34.9c0.9-0.1,1.5-0.3,1.5-0.3S115.4,34.7,114.5,34.9z"/>
			<path class="st40" d="M88.6,78.3c-0.2-0.1-0.4-0.3-0.7-0.6c-0.3-0.3-0.5-0.8-0.8-1.4C87.1,76.2,87,76,87,75.9
				c-2.3-1.7-41.9-15.4-37.1-30l-0.2-0.1l-0.1,0c0,0,0,0,0-0.1l-0.2-0.1c0,0-0.1,0-0.1,0c0,0-0.1,0-0.1,0c-0.9,0.5-1.4,1.9-1.6,2.8
				c-0.3,1.2-0.3,2.5-0.2,3.7c0.1,1.4,0.3,2.8,0.7,4.1c0.2,0.8,0.5,1.4,0.7,1.9c0.3,0.5,0.5,0.8,0.8,1.1c0.2,0.3,0.5,0.4,0.6,0.5
				l0.2,0.1l38.6,18.3L88.6,78.3z"/>
			<path class="st41" d="M91.9,49.2c0-0.3,0-2-0.5-2.1C91,47,90.6,48,90.3,48.2c-0.2,0.2-0.5,0.3-0.8,0.1c-0.1-0.1-0.3-0.3-0.4-0.3
				c-0.8-0.3-0.4,1.2-0.3,1.6c0.1,0.2,0.3,0.5,0.5,0.3c0.2-0.2,0-0.6,0.2-0.8c0.6-0.5,1.7,3.1,2.3,3.1C92,51.1,91.9,50.2,91.9,49.2z
				"/>
			<path class="st42" d="M120.5,29.4c-0.1-0.6-0.1-1.3-0.4-1.8c-0.1-0.2-0.4-0.4-0.5-0.2c-0.2,0.3,0,0.9-0.3,1.2
				c-0.5,0.5-0.7-0.9-1-1c-0.1,0-0.2,0-0.2,0l0,0c0.1,0.4,0.7,2.8,0.9,2.9c0.3,0.3,0.5-0.5,0.9-0.1c0.3,0.3,0.4,0.7,0.6,1
				C120.8,31,120.6,29.8,120.5,29.4z"/>
			<path class="st42" d="M51.1,34.3"/>
		</g>
		<g>
			<path class="st43" d="M47.9,62.4c-10.6,0.3-19.1,3.6-19,7.4l0.6,23c0.1,3.8,8.8,9.2,19.4,8.9c10.6-0.3,19.1-6.1,19-9.9l-0.6-23
				C67.1,65,58.5,62.1,47.9,62.4z"/>
			<path class="st44" d="M51.3,63.7c-1.1,0-2.2,0-3.4,0c-1,0-1.9,0.1-2.9,0.2c-3.1,0.5-6.3,1.5-8.9,2.6c-2.6,1.1-5.1,3.2-7.2,5.7
				l0.4,17.2c0.7-1.2,3.8-3.3,7.2-2.5c4.2,1.1,6.2,2.5,8.3,3.9c5.1,3.5,10.2-2.2,14.9-3.8c3.3-1.1,6-0.8,8,0.8L67.3,70
				c0-1-0.7-1.9-1.7-2.7c-0.8-0.1-1.5-0.3-2-0.3C59.6,66.2,55.3,64.2,51.3,63.7z"/>
			<path class="st45" d="M50.8,87.2c-1.3,0.6-3.3,0.7-4.6,0.1L11.7,72.1c-0.7-0.3-1-0.6-1-1.8c0-0.3,0.4-0.1,1-0.4l33.9-9.4
				c1.3-0.6,3.3-0.7,4.6-0.1l34.3,7.6c0.7,0.3,1-0.1,1,0.3c0,1.1-0.3,1.6-0.9,1.8L50.8,87.2z"/>
			<path class="st43" d="M50.8,86.5c-1.3,0.6-3.3,0.7-4.6,0.1L11.6,71.4c-1.3-0.6-1.3-1.5-0.1-2.2l33.9-9.4c1.3-0.6,3.3-0.7,4.6-0.1
				l34.3,7.6c1.3,0.6,1.3,1.6,0.1,2.2L50.8,86.5z"/>
			<path class="st46" d="M71.6,76c-8,3.9-20.8,10.3-20.8,10.3c-1.3,0.6-3.3,0.7-4.6,0.1c0,0-12.9-5.6-20.8-9c0,0,20.9,9.3,20.9,9.3
				c1.3,0.6,3.4,0.5,4.6-0.1C50.8,86.6,71.6,76,71.6,76z"/>
			<g>
				<path class="st47" d="M47.9,69.2c-0.2,0.1-18.9,5.9-24.4,7.5c-0.2,0.1-0.4,0.2-0.5,0.4c0.2,0.1,0.4,0.2,0.6,0.3
					c0,0,0.4,0.2,0.5,0.2c0.2-0.1,0.1-0.5,0.4-0.6c6.3-1.9,23.2-7.3,23.4-7.4c0.2-0.1,0.5-0.1,0.5-0.3
					C48.3,69.2,48.1,69.1,47.9,69.2z"/>
			</g>
			<g>
				<path class="st48" d="M24,92.7c-0.2,0-0.3-0.1-0.3-0.3c-0.1-3.2-0.4-6.3-0.7-8.7c-0.5-4.3-0.8-6.9,0.6-7.3
					c5.5-1.6,24.2-7.5,24.4-7.5c0.2-0.1,0.3,0,0.4,0.2c0,0.2,0,0.3-0.2,0.4c-0.2,0.1-18.9,5.9-24.4,7.5c-0.9,0.3-0.5,3.2-0.1,6.7
					c0.3,2.4,0.6,5.5,0.7,8.8C24.3,92.6,24.2,92.7,24,92.7z"/>
			</g>
			<path class="st47" d="M50.7,69.2c0,0.8-1.2,1.4-2.8,1.5c-1.6,0-2.8-0.6-2.9-1.3c0-0.8,1.2-1.4,2.8-1.5
				C49.4,67.8,50.7,68.4,50.7,69.2z"/>
			<path class="st49" d="M48.2,68.9c-0.1,0-0.1,0-0.2,0c-0.2,0.1-18.9,5.9-24.4,7.5c-1.4,0.4-1.1,3-0.6,7.3c0.3,2.4,0.6,5.5,0.7,8.7
				c0,0,0.1,0.1,0.2,0.1c0.2,0-0.3-0.2-0.2-0.3c0.4-0.3-0.2-6.4-0.5-8.9c-0.4-3.4-0.4-6.3,0.4-6.6c5.5-1.6,24.2-7.5,24.4-7.5
				C48.1,69.2,48.2,69,48.2,68.9z"/>
			<path class="st45" d="M50.7,68.7c0,0.9-1.2,1.6-2.8,1.7c-1.6,0-2.8-0.7-2.9-1.5c0-0.9,1.2-1.6,2.8-1.7
				C49.4,67.2,50.7,67.9,50.7,68.7z"/>
			<path class="st43" d="M47.9,69.8c-1.3,0-2.3-0.5-2.5-1.2c0,0.1-0.1,0.1-0.1,0.2c0,0.8,1.2,1.4,2.6,1.4c1.4,0,2.5-0.7,2.5-1.5
				c0-0.1-0.1-0.1-0.1-0.2C50.1,69.2,49.2,69.8,47.9,69.8z"/>
			<path class="st48" d="M25.6,92.4c0,0.7-0.7,1.2-1.6,1.3c-0.9,0-1.6-0.5-1.7-1.2c0-0.7,0.7-1.2,1.6-1.3
				C24.9,91.2,25.6,91.7,25.6,92.4z"/>
			<path class="st48" d="M24.7,92.8L24.7,92.8c-0.3,0.1-0.5,0.2-0.6,0.3c-0.1-0.1-0.3-0.2-0.5-0.3l-0.1,0c-3,2-2.9,5.9-2.7,9.2
				c0.2,0,0.5-0.5,0.5-0.7c0.1,0.4,0.2,0.9,0.4,1.2c0-0.5,0.3,0.2,0.3,0.2c0.2,0.2,0.4-1.2,0.5-0.9c0,1.4,0.3,0.1,0.3,0.1
				c0.1,0.2,0.2,0.3,0.2,0.6c0-0.1,0.1-0.1,0.1-0.2c0,0.1,0.2,0.4,0.2,0.6l0.2-0.5c0.1,0.1,0.2,0.7,0.3,0.8c0.1-0.1,0-1,0.1-1.1
				c0,0.1,0.2,0.8,0.2,0.8c0,0,0,0,0.1-0.1c0,0,0.1,0.1,0.1,0.1c0-0.1,0-0.1,0.1-0.2c0,0.1,0.2,0.3,0.2,0.4c0.1-0.1,0.1-0.1,0.2-0.3
				c0.1,0,0.3,0,0.4,0c0-0.2,0.2-0.5,0.2-0.6c0.1,0.1,0.1,0.1,0.1,0.2c0-0.3,0.1-0.4,0.2-0.6c0.1,0.1,0.4,1.3,0.3-0.1
				c0.1-0.3,0.2,0.4,0.6,0.9c0,0,0.1-1.5,0.3-0.2c0.2-0.4,0.2-0.6,0.3-1.1c0,0.2,0.4,0.5,0.6,0.4C27.9,98.4,27.8,94.6,24.7,92.8z"/>
			<path class="st49" d="M23.4,93.4c0,0-0.1,0.1-0.2,0.2c-0.1,0.1-0.2,0.3-0.3,0.6c-0.2,0.5-0.4,1.3-0.5,2.1
				c-0.3,1.5-0.3,3.1-0.3,3.1s-0.1-1.6,0.1-3.1c0-0.4,0.1-0.8,0.2-1.1c0.1-0.4,0.1-0.7,0.3-1c0.2-0.6,0.5-0.9,0.5-0.9L23.4,93.4z"/>
			<path class="st49" d="M24.1,93.4c0,0,0,0.1-0.1,0.2c0,0.1-0.1,0.1-0.1,0.2c0,0.1,0,0.2-0.1,0.3c-0.1,0.4-0.2,1.1-0.2,1.7
				c-0.1,1.3-0.1,2.6-0.1,2.6s-0.1-1.3-0.1-2.6c0-0.7,0-1.3,0.1-1.8c0-0.3,0.1-0.5,0.2-0.6c0.1-0.1,0.1-0.2,0.1-0.2L24.1,93.4z"/>
			<path class="st50" d="M25.1,93.1c-0.3,0.1-0.5,0.2-0.8,0.3c0.5,0.3,0.8,0.7,1,1.3c0.6,1.4,1,2.8,1,4.4c0,0,0,0,0,0
				c-0.1,0.5-0.3,1-0.5,1.5c-0.3-0.5-0.6-1.1-0.9-1.6c-0.2,0.8-0.3,1.5-0.7,2.2c-0.4-0.5-0.3-1.5-0.7-2c0,0.6-0.1,1.8-0.5,2.3
				c-0.1-0.2-0.1-0.4-0.3-0.5c0,0.1-0.1,0.2-0.1,0.2c-0.1-0.2-0.1-0.5-0.2-0.7c-0.1,0.3-0.3,0.6-0.5,0.9c-0.3-0.4-0.6-0.9-0.6-1.4
				c-0.2,0.4-0.4,0.9-0.6,1.3c0,0.3,0,0.5,0,0.7c0.2,0,0.5-0.5,0.5-0.7c0.1,0.4,0.2,0.9,0.4,1.2c0-0.5,0.3,0.2,0.3,0.2
				c0.2,0.2,0.4-1.2,0.5-0.9c0,1.4,0.3,0.1,0.3,0.1c0.1,0.2,0.2,0.3,0.2,0.6c0-0.1,0.1-0.1,0.1-0.2c0,0.1,0.2,0.4,0.2,0.6l0.2-0.5
				c0.1,0.1,0.2,0.7,0.3,0.8c0.1-0.1,0-1,0.1-1.1c0,0.1,0.2,0.8,0.2,0.8c0,0,0,0,0.1-0.1c0,0,0.1,0.1,0.1,0.1c0-0.1,0-0.1,0.1-0.2
				c0,0.1,0.2,0.3,0.2,0.4c0.1-0.1,0.1-0.1,0.2-0.3c0.1,0,0.3,0,0.4,0c0-0.2,0.2-0.5,0.2-0.6c0.1,0.1,0.1,0.1,0.1,0.2
				c0-0.3,0.1-0.4,0.2-0.6c0.1,0.1,0.4,1.3,0.3-0.1c0.1-0.3,0.2,0.4,0.6,0.9c0,0,0.1-1.5,0.3-0.2c0.2-0.4,0.2-0.6,0.3-1.1
				c0,0.2,0.4,0.5,0.6,0.4C27.9,98.6,27.7,95,25.1,93.1z"/>
			<path class="st50" d="M24.7,91.3c0.2,0.2,0.4,0.5,0.4,0.8c0,0.7-0.7,1.2-1.6,1.3c-0.3,0-0.5,0-0.7-0.1c0.3,0.3,0.8,0.4,1.3,0.4
				c0.9,0,1.6-0.6,1.6-1.3C25.6,91.9,25.2,91.5,24.7,91.3z"/>
			<path class="st49" d="M22.2,94.2c0,0-0.1,0.3-0.3,0.9c-0.1,0.3-0.1,0.6-0.3,0.9c-0.1,0.3-0.1,0.7-0.2,1c-0.1,0.7-0.2,1.4-0.3,2
				c-0.1,0.5-0.2,0.9-0.2,0.9s0-0.1,0-0.3c0-0.2,0-0.4,0-0.7c0-0.5,0.1-1.3,0.2-2c0.1-0.4,0.2-0.7,0.3-1.1c0.1-0.3,0.2-0.6,0.3-0.9
				C22,94.6,22.2,94.2,22.2,94.2z"/>
			<path class="st49" d="M22.8,92c-0.2,0.3-0.2,0.6-0.1,0.7c0.1,0.1,0.4-0.1,0.6-0.3c0.2-0.3,0.2-0.6,0.1-0.6
				C23.2,91.6,22.9,91.7,22.8,92z"/>
		</g>
	</g>
</g>
</svg>
