<svg xmlns="http://www.w3.org/2000/svg" xmlns:xlink="http://www.w3.org/1999/xlink" viewBox="0 0 356.87 187.26"><defs><style>.cls-1{fill:#917df4;}.cls-2{fill:none;}.cls-3{isolation:isolate;}.cls-4{clip-path:url(#clip-path);}.cls-5{opacity:0.27;}.cls-22,.cls-45,.cls-48,.cls-5,.cls-51{mix-blend-mode:multiply;}.cls-6{fill:#fff;}.cls-7{clip-path:url(#clip-path-2);}.cls-8{fill:#103d63;}.cls-9{fill:#0f3b60;}.cls-10{clip-path:url(#clip-path-3);}.cls-11{fill:#767676;}.cls-12{fill:#7a7a7a;}.cls-13{fill:#7e7e7e;}.cls-14{fill:#838383;}.cls-15{fill:#878787;}.cls-16{fill:#8c8c8c;}.cls-17{fill:#909090;}.cls-18{fill:#f02402;}.cls-19{fill:#b32007;}.cls-20{fill:#fee57c;}.cls-21{fill:#ff563b;}.cls-22{fill:#dadada;}.cls-23{fill:#dec45b;}.cls-24{fill:#cfb655;}.cls-25{fill:#f7c200;}.cls-26{fill:#de9f00;}.cls-27{fill:#edd161;}.cls-28{fill:#ffd518;}.cls-29{fill:#ebb800;}.cls-30{clip-path:url(#clip-path-4);}.cls-31{fill:#11446e;}.cls-32{fill:#65b8cc;}.cls-33{fill:#488391;}.cls-34{fill:#75d6ed;}.cls-35{fill:#1d9125;}.cls-36{fill:#26bf31;}.cls-37{fill:#3ae647;}.cls-38{fill:#b89f42;}.cls-39{fill:#ffe466;}.cls-40{fill:#a5ffad;}.cls-41{fill:#cf9400;}.cls-42{fill:#ff4e31;}.cls-43{fill:#ffd438;}.cls-44{fill:#2b3033;}.cls-45{fill:#9d9d9c;}.cls-46{fill:#41484d;}.cls-47{fill:#808385;}.cls-49,.cls-51{fill:#c6c6c6;}.cls-50{fill:#f9b233;}.cls-52{fill:#ffcd73;}.cls-53{fill:#f39200;}</style><clipPath id="clip-path"><rect class="cls-1" x="63.87" y="42.51" width="293" height="123" rx="11.19"/></clipPath><clipPath id="clip-path-2"><path class="cls-2" d="M147.32,104.36l-37.13,16.1h0l37.14-16.09Z"/></clipPath><clipPath id="clip-path-3"><path class="cls-2" d="M109.54,108.36l38.13-14.47h.05s0,0,0,0h.05l-38.15,14.48h-.07Z"/></clipPath><clipPath id="clip-path-4"><path class="cls-2" d="M150.43,78.73l7.42,1.16c2.75.44,5.5.86,8.26,1.31l7.33,1.14h-.15l-23-3.63h.08S150.42,78.71,150.43,78.73Z"/></clipPath></defs><title>Asset 18</title><g class="cls-3"><g id="Layer_2" data-name="Layer 2"><g id="Layer_1-2" data-name="Layer 1"><rect class="cls-1" x="63.87" y="42.51" width="293" height="123" rx="11.19"/><g class="cls-4"><rect class="cls-1" x="63.87" y="42.51" width="293" height="123" rx="11.19"/><g class="cls-5"><path class="cls-1" d="M68.53,2.8C50.1,7,28.18,20.26,17.1,35.57,7.37,49,1.13,63.44.28,80c-1.37,26.56,1.82,55.58,20.06,74.93a103.78,103.78,0,0,0,47.45,28.36c13.12,3.44,53.24,6.87,72.13,0,14.06-5.11,27.76-11.67,38.06-22.52,6.06-6.38,11.74-13.23,15.92-21C201,126.53,203.45,111,202,96S197.42,65.29,190.26,52a93.43,93.43,0,0,0-28-32.14C149.26,10.51,110.93-6.77,68.53,2.8Z"/></g></g><path class="cls-6" d="M228.85,138.27v1.89h-8.26V128.94h2.34v9.33Z"/><path class="cls-6" d="M230.18,129.2c0-.84.47-1.26,1.44-1.26s1.45.42,1.45,1.26-.48,1.24-1.45,1.24S230.18,130,230.18,129.2Zm2.6,11h-2.33v-8.5h2.33Z"/><path class="cls-6" d="M241,139.63a3.82,3.82,0,0,1-2.31.7c-1.71,0-2.89-.7-2.89-2.57v-4.37h-1.56v-1.73h1.56v-1.95l2.33-.65v2.6h2.72v1.73h-2.72v4a1,1,0,0,0,1.17,1.17,1.92,1.92,0,0,0,1.33-.47Z"/><path class="cls-6" d="M248.2,136.66h-6v-2h6Z"/><path class="cls-6" d="M250.46,129.2c0-.84.47-1.26,1.44-1.26s1.45.42,1.45,1.26-.48,1.24-1.45,1.24S250.46,130,250.46,129.2Zm2.6,11h-2.33v-8.5h2.33Z"/><path class="cls-6" d="M263.53,134.58v5.58H261.2v-4.91c0-1.45-.65-1.92-1.53-1.92s-1.94.63-1.94,2.32v4.51H255.4v-8.5h2.09l.09,1.6a3,3,0,0,1,2.89-1.77A2.84,2.84,0,0,1,263.53,134.58Z"/><path class="cls-6" d="M272,136.66h-6v-2h6Z"/><path class="cls-6" d="M274.78,128.94h8.42v1.89h-6.07v2.79h4.78v1.8h-4.78v2.85h6.31v1.89h-8.66Z"/><path class="cls-6" d="M293.31,134.58v5.58H291v-4.91c0-1.45-.64-1.92-1.53-1.92s-1.93.63-1.93,2.32v4.51h-2.33v-8.5h2.09l.08,1.6a3,3,0,0,1,2.89-1.77A2.84,2.84,0,0,1,293.31,134.58Z"/><path class="cls-6" d="M303.51,140.82c0,2-1.82,3-4.47,3-2.92,0-4.21-.9-4.21-2.2,0-.77.44-1.38,1.54-1.62a1.6,1.6,0,0,1-1.14-1.6,1.78,1.78,0,0,1,1.31-1.68,2.52,2.52,0,0,1-1.34-2.33c0-1.78,1.48-2.89,3.88-2.89a5.64,5.64,0,0,1,1.83.27,2.3,2.3,0,0,1,2.52-2.12l.27,1.66c-1.07-.1-1.68.28-1.84.94a2.5,2.5,0,0,1,1.09,2.14c0,1.77-1.48,2.87-3.87,2.87a8,8,0,0,1-1.45-.13c-.49.15-.7.41-.7.73,0,.47.36.71,1.09.71h2.62C302.48,138.56,303.51,139.4,303.51,140.82Zm-1.87.33c0-.45-.29-.72-1.17-.72H297.6c-.55,0-.94.31-.94.77,0,.63.9,1,2.4,1C300.81,142.22,301.64,141.74,301.64,141.15Zm-4.13-6.79a1.43,1.43,0,0,0,1.57,1.43,1.42,1.42,0,1,0,0-2.84A1.42,1.42,0,0,0,297.51,134.36Z"/><path class="cls-6" d="M307.1,137.54c0,.78.26,1.07.88,1.07a2.3,2.3,0,0,0,1-.17l-.21,1.53a3.44,3.44,0,0,1-1.58.36c-1.65,0-2.38-.76-2.38-2.53v-9.86h2.33Z"/><path class="cls-6" d="M309.84,129.2c0-.84.47-1.26,1.44-1.26s1.45.42,1.45,1.26-.48,1.24-1.45,1.24S309.84,130,309.84,129.2Zm2.6,11h-2.33v-8.5h2.33Z"/><path class="cls-6" d="M314.1,138.58l1.35-1.36a3.14,3.14,0,0,0,2.7,1.39c.88,0,1.46-.25,1.46-.81,0-.36-.19-.63-.93-.78l-1.5-.31c-2-.41-2.72-1.22-2.72-2.53s1.26-2.69,3.74-2.69a4.28,4.28,0,0,1,3.71,1.58l-1.4,1.36a2.68,2.68,0,0,0-2.24-1.22c-1,0-1.5.3-1.5.83,0,.36.27.63,1.11.8l1.73.36c1.68.34,2.35,1.17,2.35,2.31,0,1.63-1.35,2.82-3.78,2.82A5.1,5.1,0,0,1,314.1,138.58Z"/><path class="cls-6" d="M323.69,127.94H326v5.17a2.89,2.89,0,0,1,2.74-1.62,2.84,2.84,0,0,1,3.06,3.09v5.58h-2.33v-4.9c0-1.46-.63-1.93-1.51-1.93s-2,.64-2,2.34v4.49h-2.33Z"/><g class="cls-3"><g class="cls-7"><g class="cls-3"><polygon class="cls-8" points="110.19 120.45 147.33 104.36 147.32 104.36 147.32 104.36 147.32 104.36 147.32 104.36 110.19 120.45 110.19 120.45 110.19 120.45 110.19 120.45 110.19 120.45 110.19 120.45"/><polygon class="cls-9" points="110.19 120.45 147.32 104.36 147.32 104.36 147.32 104.36 147.32 104.36 147.32 104.36 110.19 120.46 110.19 120.45 110.19 120.45 110.19 120.45 110.19 120.45 110.19 120.45"/></g></g></g><g class="cls-3"><g class="cls-10"><g class="cls-3"><path class="cls-11" d="M109.54,108.36l38.13-14.47h0l-38.15,14.47h0Z"/><path class="cls-12" d="M109.56,108.35l38.15-14.47h0l-38.14,14.46h0Z"/><path class="cls-13" d="M109.59,108.34l38.14-14.46h0v0h0l-38.14,14.48h0Z"/><path class="cls-14" d="M109.61,108.34l38.14-14.48h0l-38.13,14.48h0Z"/><polygon class="cls-15" points="109.64 108.34 147.77 93.86 147.78 93.86 147.78 93.86 147.78 93.86 147.79 93.86 109.64 108.34 109.64 108.34 109.64 108.34 109.64 108.34 109.64 108.34 109.64 108.34"/><path class="cls-16" d="M109.64,108.34l38.15-14.48h0l-38.15,14.48h0Z"/><polygon class="cls-17" points="109.65 108.34 147.8 93.86 147.8 93.86 147.8 93.86 147.8 93.86 147.8 93.86 109.65 108.34 109.65 108.34 109.65 108.34 109.65 108.34 109.65 108.34 109.65 108.34"/></g></g></g><path class="cls-18" d="M181.41,114.39h0v0h0v0h0v0h0v0h0v0h0v0s0,0,0,0,0,0,0,0v0l0,0a0,0,0,0,0,0,0l0,0s0,0,0,0h0s0,0,0,0,0,0,0,0h0l0,0h-.07s0,0,0,0h0a0,0,0,0,0,0,0h-.29l-1.9-.6L143,133.52l2,.89a1.1,1.1,0,0,1,.28.2.94.94,0,0,1,.24.28,1.23,1.23,0,0,1,.17.32h0a1,1,0,0,1,.06.33.47.47,0,0,1,0,.17.33.33,0,0,1,0,.13h0a.41.41,0,0,1-.07.11h0l-.09.07,35.57-21.14h0l0,0s0,0,0,0l0,0s0,0,0,0h0a0,0,0,0,1,0,0h0v0h0v0a0,0,0,0,0,0,0h0s0,0,0,0h0v0h0a0,0,0,0,0,0,0h0v0h0a0,0,0,0,1,0,0h0Z"/><path class="cls-19" d="M179.94,113.3l-1.08-.33-35.21,20.18C143.8,133.08,179.5,114.45,179.94,113.3Z"/><polygon class="cls-12" points="109.65 108.34 147.8 93.86 179.55 102.6 142.87 121.33 109.65 108.34"/><path class="cls-20" d="M179.39,103c.09-.24.15-.38.16-.42l-36.68,18.73a0,0,0,0,1,0,0h0a0,0,0,0,1,0,0,.09.09,0,0,1,0,.05.71.71,0,0,0,0,.12.42.42,0,0,0,0,.1,2.09,2.09,0,0,1-.05.21h0l-.06.25c0,.06,0,.13-.06.21v0a.43.43,0,0,0,0,.11.24.24,0,0,0,0,.08,2,2,0,0,0,0,.24,2.38,2.38,0,0,0-.05.26c0,.07,0,.14-.05.22a1.7,1.7,0,0,1,0,.22l0,.24,0,.18s0,0,0,.07l0,.19a1.36,1.36,0,0,0,0,.21,1.18,1.18,0,0,1,0,.2,1.64,1.64,0,0,1,0,.22v.08h0v.1a1.1,1.1,0,0,0,0,.18.55.55,0,0,0,0,.18,1.41,1.41,0,0,0,0,.2s0,.1,0,.16a1.09,1.09,0,0,1,0,.18c0,.05,0,.1,0,.16v.17a.71.71,0,0,0,0,.14.86.86,0,0,0,0,.16V127a.66.66,0,0,0,0,.15.71.71,0,0,0,0,.16v.17a.76.76,0,0,0,0,.15c0,.08,0,.15,0,.23s0,.14,0,.21a1.34,1.34,0,0,0,0,.2h0v0a.78.78,0,0,0,0,.21,2.12,2.12,0,0,0,0,.24,2.12,2.12,0,0,0,0,.24c0,.07,0,.16,0,.23l0,.22v0h0v0a1.65,1.65,0,0,0,0,.21c0,.08,0,.17,0,.25a.88.88,0,0,0,0,.24l0,.24a.59.59,0,0,0,0,.13h0s0,.08,0,.14,0,.17.05.26a1,1,0,0,0,0,.24,1.5,1.5,0,0,0,0,.24.2.2,0,0,0,0,0v0a.43.43,0,0,1,0,.05l0,.16c0,.09,0,.17.05.26s0,.16,0,.22a.56.56,0,0,0,0,.07.65.65,0,0,1,0,.11.14.14,0,0,1,0,.06l.06.25c0,.05,0,.08,0,.11s0,.11,0,.15l.07.27a.14.14,0,0,0,0,.06.11.11,0,0,0,0,.05.08.08,0,0,0,0,.06.64.64,0,0,0,0,.07s0,0,0,0a.06.06,0,0,0,0,0L178.86,113a.53.53,0,0,0,0-.13h0s0,0,0-.06a2.07,2.07,0,0,1-.06-.26s0,0,0-.07a0,0,0,0,1,0,0c0-.12,0-.27-.07-.44a.13.13,0,0,0,0-.06c0-.18-.07-.39-.1-.63v0c0-.24-.06-.51-.1-.79v0c0-.28,0-.59-.05-.9h0a8.22,8.22,0,0,1,0-1v0c0-.35,0-.7,0-1.07a11.73,11.73,0,0,1,.24-1.75s0,0,0-.06c.1-.55.23-1,.35-1.49s.25-.81.35-1.07h0S179.39,103,179.39,103Z"/><path class="cls-18" d="M182.27,102.5h0v0h0a0,0,0,0,1,0,0h0s0,0,0,0v0h0s0,0,0,0h0v-.06a0,0,0,0,0,0,0l0,0,0,0a0,0,0,0,0,0,0s0,0,0,0,0,0,0,0h0v0h0v0h0s0,0,0,0h0v0s0,0,0,0h0a0,0,0,0,0,0,0h-.13a0,0,0,0,1,0,0h-.12l-34-9.18h-.22a0,0,0,0,0,0,0h0l-38.26,14.21h0a.12.12,0,0,0-.09,0h0l.1,0h.19L145,120.42a.78.78,0,0,1,.3.18,1.68,1.68,0,0,1,.24.28,1.54,1.54,0,0,1,.17.34h0a1.21,1.21,0,0,1,.07.36,1,1,0,0,1,0,.18h0a.88.88,0,0,1-.05.15l-.09.13-.12.08,36.51-19,0,0,0,0,0,0h0l0,0h0a0,0,0,0,0,0,0v0h.05s0,0,0,0h0v0h0v0s0,0,0,0h0v0h0v0Z"/><path class="cls-21" d="M146.19,120.3a.44.44,0,0,0-.24.57h0a.45.45,0,0,0,.61.16l35.17-18.1a.42.42,0,0,0,.23-.58h0a.43.43,0,0,0-.59-.14Z"/><path class="cls-22" d="M145.24,117.75l-24.8-15.25-11.36,4.22h0a.12.12,0,0,0-.09,0h0l.1,0h.19L133.38,116l11.69,2.68,24-10.28Z"/><path class="cls-23" d="M142.86,132.92c-.09-.36-.19-.85-.3-1.44s-.21-1.29-.3-2.06-.15-1.6-.17-2.47a19.65,19.65,0,0,1,.11-2.08,17.76,17.76,0,0,1,.26-1.77c.09-.51.19-.94.27-1.24l.14-.53-33.22-13a.22.22,0,0,0-.18.06.89.89,0,0,0-.32.51,5.59,5.59,0,0,0-.24,1.52,27.51,27.51,0,0,0,.06,3c.1,1,.22,1.82.34,2.51a17.06,17.06,0,0,0,.39,1.67,8,8,0,0,0,.39,1,3.19,3.19,0,0,0,.3.53L143,133.52Z"/><path class="cls-24" d="M116.78,121.48c1.29.56,3,1.79,4.37,1.85-3-2.09-6.69-3.47-8.92-6.6-1.06-1.49-.86-3.34-.42-5,.39-1.46,1.11-1.48,2.52-1.48l0-.06-4.31-1.67a7,7,0,0,0-1,.56,6,6,0,0,0-.2,1.37,27.51,27.51,0,0,0,.06,3c0,.16,0,.29.06.44.1.55.19,1,.23,1.34s0,.44,0,.67V116a17.06,17.06,0,0,0,.39,1.67,8,8,0,0,0,.39,1,1.78,1.78,0,0,0,.12.24,4.29,4.29,0,0,0,.84.57l1,.44c.48.18,1,.32,1.41.44A28,28,0,0,1,116.78,121.48Z"/><path class="cls-18" d="M146,134.41a2.3,2.3,0,0,0-.23-.28,1.6,1.6,0,0,0-.29-.19l-2-.9L111.2,118.58c-.86-.38-1.66-5.61-1-10.07a15.24,15.24,0,0,1-1.64-.75,11.91,11.91,0,0,0-.18,4.8,27.56,27.56,0,0,0,.4,2.85,17.8,17.8,0,0,0,.53,2.06,9.9,9.9,0,0,0,.55,1.37,6.42,6.42,0,0,0,.45.81s0,0,0,.06,0,0,0,.05l0,.06s0,0,0,.05l.06,0,0,.06h0l.13.07,34.74,15.5a.52.52,0,0,0,.29.06.41.41,0,0,0,.23-.06.42.42,0,0,0,.16-.19.64.64,0,0,0,.06-.3,1,1,0,0,0-.06-.33A1.68,1.68,0,0,0,146,134.41Z"/><path class="cls-22" d="M143.65,133.15,111.2,118.58c-.86-.38-1.66-5.61-1-10.07a15.24,15.24,0,0,1-1.64-.75,11.91,11.91,0,0,0-.18,4.8,27.56,27.56,0,0,0,.4,2.85,17.8,17.8,0,0,0,.53,2.06,9.9,9.9,0,0,0,.55,1.37,6.42,6.42,0,0,0,.45.81s0,0,0,.06,0,0,0,.05l0,.06s0,0,0,.05l.06,0,0,.06h0l.13.07,30.53,13.63A17.44,17.44,0,0,0,143.65,133.15Z"/><path class="cls-19" d="M145,120.42a.78.78,0,0,1,.3.18,1.68,1.68,0,0,1,.24.28,1.35,1.35,0,0,1,.17.34,1.15,1.15,0,0,1,.07.36.71.71,0,0,1-.07.31.38.38,0,0,1-.16.21.58.58,0,0,1-.24.1.56.56,0,0,1-.3-.06l-2.1-.81-33.22-13a.22.22,0,0,0-.18.06.89.89,0,0,0-.32.51,5.59,5.59,0,0,0-.24,1.52,27.51,27.51,0,0,0,.06,3c.1,1,.22,1.82.34,2.51a17.06,17.06,0,0,0,.39,1.67,8,8,0,0,0,.39,1,3.19,3.19,0,0,0,.3.53L143,133.52l2,.89a1.1,1.1,0,0,1,.28.2.94.94,0,0,1,.24.28,1.23,1.23,0,0,1,.17.32,1.06,1.06,0,0,1,.06.34.7.7,0,0,1-.06.3.46.46,0,0,1-.16.18.37.37,0,0,1-.23.07.83.83,0,0,1-.29-.06l-34.74-15.5-.14-.09h0s0,0,0,0l0,0,0-.06,0,0,0-.05,0-.06s0,0,0-.07a6.21,6.21,0,0,1-.46-.79,13.09,13.09,0,0,1-.54-1.37,17.17,17.17,0,0,1-.53-2c-.15-.82-.29-1.77-.39-2.87a20.32,20.32,0,0,1-.07-3.41,7.08,7.08,0,0,1,.36-1.9,2.13,2.13,0,0,1,.48-.8.63.63,0,0,1,.27-.17l.06,0h.16l.07,0Z"/><path class="cls-25" d="M176.92,104l-4.25-1.15a25.44,25.44,0,0,1-.41,2.89l3.16-1.23,1.32-.5h.18Z"/><path class="cls-26" d="M145.33,99.55c-7.6-2.46-15.42-4.08-23.08-6.33a4.94,4.94,0,0,1-2.1-1.2c-.56-.14-1.13-.27-1.7-.43l-.25-.08-2.59.51-2.49-.82a.32.32,0,0,0-.09,0,.16.16,0,0,0-.09,0,3.58,3.58,0,0,0-1.33,2.29,10.35,10.35,0,0,0-.17,3A16.68,16.68,0,0,0,112,100a7.27,7.27,0,0,0,.6,1.51,3.79,3.79,0,0,0,.61.88,2.2,2.2,0,0,0,.51.41l.18.09,31.36,14.9-.2-.1a2.14,2.14,0,0,1-.57-.5,4.42,4.42,0,0,1-.64-1.12,8.47,8.47,0,0,1-.37-1.11l2.26,1c0-.11,0-.2,0-.29.38-3.49.57-7.48,2.24-10.61C149.53,102.1,148.28,100.51,145.33,99.55Z"/><path class="cls-20" d="M175.87,94.15s0,.21-.11.51-.15.73-.23,1.22-.18,1.07-.25,1.66-.14,1.23-.15,1.85,0,1.42,0,2,.07,1.14.11,1.59.11.79.15,1a2,2,0,0,0,.08.42L145.76,116a.84.84,0,0,1-.36-.31,3.23,3.23,0,0,1-.43-.86,9.37,9.37,0,0,1-.42-1.69,25.09,25.09,0,0,1-.13-6.45,10.79,10.79,0,0,1,.44-2.08,3.19,3.19,0,0,1,.47-.93.75.75,0,0,1,.26-.21Z"/><path class="cls-27" d="M145.59,103.43a.75.75,0,0,0-.26.21,3.19,3.19,0,0,0-.47.93,10.79,10.79,0,0,0-.44,2.08c-.07.6-.11,1.31-.13,2.14a12.3,12.3,0,0,1,3.86-4.93c2.54-1.69,27.67-9.69,27.67-9.69Z"/><path class="cls-25" d="M175.62,103.66l-1.21.48-29.34,11.37a5.42,5.42,0,0,1,.27,1.55L175.67,105a.68.68,0,0,0,.18-.13,1,1,0,0,0,.15-.2,2,2,0,0,0,.11-.26.28.28,0,0,1,0-.08A4.09,4.09,0,0,1,175.62,103.66Z"/><path class="cls-28" d="M177.23,92.33a.4.4,0,0,1,.19,0,.39.39,0,0,1,.14.12.33.33,0,0,1,.08.19.77.77,0,0,1,0,.27,1.47,1.47,0,0,1,0,.29.8.8,0,0,1-.11.25,1,1,0,0,1-.14.2,1.24,1.24,0,0,1-.2.1l-1.3.4-30.28,9.28a.75.75,0,0,0-.26.21,3.19,3.19,0,0,0-.47.93,10.79,10.79,0,0,0-.44,2.08,25.09,25.09,0,0,0,.13,6.45,9.37,9.37,0,0,0,.42,1.69,3.23,3.23,0,0,0,.43.86.84.84,0,0,0,.36.31l29.66-11.49,1.32-.5a.28.28,0,0,1,.18,0,.18.18,0,0,1,.13.08.34.34,0,0,1,.09.18.69.69,0,0,1,0,.25,1.28,1.28,0,0,1,0,.27,1.19,1.19,0,0,1-.11.26,1.73,1.73,0,0,1-.14.2,1.62,1.62,0,0,1-.19.13l-31.1,12.38-.17.05,0,0h-.08l-.06,0-.2-.1a2.14,2.14,0,0,1-.57-.5,4.42,4.42,0,0,1-.64-1.12,10.4,10.4,0,0,1-.58-2,23.49,23.49,0,0,1-.33-3.18,24.47,24.47,0,0,1,.17-4.23,12.64,12.64,0,0,1,.66-2.7,5.74,5.74,0,0,1,.71-1.42,1.74,1.74,0,0,1,.4-.45l.08-.1.1-.07a.24.24,0,0,1,.11-.06l.1-.05Z"/><path class="cls-29" d="M130.67,96.23c0-.06-.42-.91-.39-.91l-.16-.29-.41-.43-.31-.21a62.85,62.85,0,0,0-5.9-3.65,4,4,0,0,1-1.45-1.21l-8.93,1.67,17.93,5.88A4.67,4.67,0,0,1,130.67,96.23Z"/><path class="cls-25" d="M177.37,92.33h0l-14.3-2.68-20.83-3.88h-.12L135.73,87l.41.33c2.06,1.65,3.06,3.92,3.94,6.35a4.8,4.8,0,0,1-2.44,5.6l7.61,2.5,32-9.41h.14Z"/><g class="cls-3"><g class="cls-30"><g class="cls-3"><path class="cls-31" d="M173.29,82.34l-23-3.63h.08s0,0,0,0l23,3.61h-.15Z"/></g></g></g><path class="cls-32" d="M170.07,92.57a5,5,0,0,1-.71.55l2.66.82,1.75-.26Z"/><path class="cls-32" d="M174,93.69h0l-3.9-1.16,0,0,3.7,1.11H174Z"/><path class="cls-20" d="M171.57,83.93s0,.18-.11.47-.13.68-.2,1.14a14.26,14.26,0,0,0-.18,1.59,12.87,12.87,0,0,0,0,1.76,18.58,18.58,0,0,0,.2,2c.1.6.21,1.13.32,1.58s.22.79.3,1.05.15.39.16.43L136.2,99.33a1.61,1.61,0,0,1-.4-.35,3.55,3.55,0,0,1-.5-.84,7.67,7.67,0,0,1-.49-1.53,16.13,16.13,0,0,1-.4-2.43,18.85,18.85,0,0,1,0-3.14,6.1,6.1,0,0,1,.39-1.72,2.05,2.05,0,0,1,.46-.72.51.51,0,0,1,.26-.16Z"/><path class="cls-33" d="M134.74,100a5.2,5.2,0,0,1-.69-1.12,11.17,11.17,0,0,1-.48-1.33c.24.15.46-.46.66-1.41a5.41,5.41,0,0,1-.25-1.69,5.69,5.69,0,0,1-.25-2.13,4.66,4.66,0,0,1,3.91-5.19L149,79.84l-24.7,2.68-2-.83h-.18l0,0h0s0,0,0,0,0,0,0,0l0,0h0l0,0s0,0,0,0,0,0,0,0a0,0,0,0,0,0,0l0,0h0a.13.13,0,0,0-.06,0l-.06,0,0,.05h0l0,0a.71.71,0,0,0-.07.09l-.09.12-.05.08a2.87,2.87,0,0,0-.21.36v0s0,0,0,0a.19.19,0,0,0,0,.08,3.14,3.14,0,0,0-.17.47.48.48,0,0,0,0,.18l0,.11c0,.2-.08.43-.11.65v0a4.07,4.07,0,0,0,0,.61s0,0,0,.07v.11c0,.19,0,.4,0,.6a1.62,1.62,0,0,0,0,.22c0,.28,0,.57.06.88a11.07,11.07,0,0,0,.32,1.87,7.34,7.34,0,0,0,.45,1.29,4.16,4.16,0,0,0,.51.79,2.7,2.7,0,0,0,.44.45l12.77,9.38A3,3,0,0,1,134.74,100Z"/><path class="cls-32" d="M172.75,93.42a.56.56,0,0,0-.2-.12,1.14,1.14,0,0,0-.27,0l-1.76.27-35.36,5.32a5.33,5.33,0,0,1,.45,1.4l36.74-5.64a1.57,1.57,0,0,0,.23-.09.8.8,0,0,0,.33-.42.75.75,0,0,0,0-.26,1.25,1.25,0,0,0,0-.24A.75.75,0,0,0,172.75,93.42Z"/><path class="cls-34" d="M173.29,82.34a.72.72,0,0,1,.26,0,.5.5,0,0,1,.21.13.72.72,0,0,1,.14.2.47.47,0,0,1,0,.24,1.33,1.33,0,0,1,0,.28.8.8,0,0,1-.13.24.7.7,0,0,1-.19.16,1.06,1.06,0,0,1-.25.09l-1.78.22-36,4.51a.51.51,0,0,0-.26.16,2.05,2.05,0,0,0-.46.72,6.1,6.1,0,0,0-.39,1.72,18.85,18.85,0,0,0,0,3.14,16.13,16.13,0,0,0,.4,2.43,7.67,7.67,0,0,0,.49,1.53,3.55,3.55,0,0,0,.5.84,1.61,1.61,0,0,0,.4.35L172,93.94l1.75-.26a.74.74,0,0,1,.26,0,.71.71,0,0,1,.22.13.43.43,0,0,1,.13.17.76.76,0,0,1,.06.25.59.59,0,0,1,0,.27.9.9,0,0,1-.12.24.83.83,0,0,1-.21.17.6.6,0,0,1-.23.1l-37.77,5.81h-.3a.09.09,0,0,0-.06,0l-.23-.12a3.73,3.73,0,0,1-.61-.54,5.33,5.33,0,0,1-.73-1.11,9.43,9.43,0,0,1-.68-1.87,16.08,16.08,0,0,1-.45-2.8,15.3,15.3,0,0,1,0-3.57,7.71,7.71,0,0,1,.57-2.19,4.3,4.3,0,0,1,.69-1.11,1.89,1.89,0,0,1,.4-.34.24.24,0,0,1,.08-.06l.11-.06a.38.38,0,0,1,.1,0h.12Z"/><polygon class="cls-32" points="135.12 86.98 122.31 81.69 150.32 78.71 173.29 82.34 135.12 86.98"/><path class="cls-35" d="M133.47,78.79l-17.59,2.79-1.08.17h-.07s0,0,0,0h0a0,0,0,0,1,0,0h0s0,0,0,0h0a0,0,0,0,1,0,0s0,0,0,0,0,0,0,0h0s0,0,0,0l0,0h0l0,.06a.14.14,0,0,1,0,.07.11.11,0,0,1,0,0h0v0h0v.07h0v0h0v0h0v0h0v0a0,0,0,0,1,0,0h0v0h0v0h0s0,0,0,0v0h0s0,0,0,.05h0a0,0,0,0,0,0,0s0,0,0,0a.23.23,0,0,0,.07.07h0l0,0,.07,0,43.72,2.66a.12.12,0,0,1-.08,0l0,0a.36.36,0,0,1-.07-.1,0,0,0,0,1,0,0,.58.58,0,0,1,0-.17h0a.58.58,0,0,1,0-.24.8.8,0,0,1,0-.26.57.57,0,0,1,.07-.22h0a.48.48,0,0,1,.1-.17h0a.2.2,0,0,1,.12-.08l.86-.21,13.93-3.43Z"/><path class="cls-23" d="M158.16,78.74v-.35a.91.91,0,0,1,0-.17c0-.12,0-.23,0-.35s0-.23,0-.34,0-.19,0-.28v0a0,0,0,0,0,0,0h0c0-.11,0-.21,0-.32s0-.24,0-.36a.31.31,0,0,1,0-.08v0c0-.14,0-.29,0-.43a.57.57,0,0,0,0-.13v-.1a.43.43,0,0,1,0-.05s0-.08,0-.12a3.07,3.07,0,0,0-.05-.34v0s0-.1,0-.14l0-.23s0,0,0-.09,0,0,0-.05a.66.66,0,0,1,0-.14v0a1.91,1.91,0,0,1,0-.2.2.2,0,0,1,0-.09l-42.11-1.34a.81.81,0,0,0,0,.09s0,0,0,.07a1,1,0,0,1,0,.22v0c0,.1,0,.2.07.31s0,.07,0,.12.06.28.08.43,0,.09,0,.12,0,.35.07.53a.29.29,0,0,1,0,.09c0,.2,0,.41.07.61v0c0,.47.08,1,.09,1.49s0,1.19,0,1.72v0c0,.22,0,.43-.05.63,0,0,0,.08,0,.12a5,5,0,0,1-.05.57.57.57,0,0,0,0,.13c0,.16,0,.31,0,.43a.17.17,0,0,0,0,.07c0,.14,0,.27-.06.38v.06c0,.09,0,.17,0,.23v0a.4.4,0,0,1,0,.12l42,2.47a.78.78,0,0,0,0-.09s0-.1,0-.17,0-.1,0-.13a.17.17,0,0,0,0-.07s0,0,0,0v0c0-.1,0-.22,0-.35s0-.26,0-.39,0-.16,0-.23a.08.08,0,0,0,0,0v0c0-.06,0-.11,0-.18s0-.33,0-.51h0v-.08c0-.16,0-.32,0-.48s0-.19,0-.3v-.1c0-.14,0-.28,0-.43s0-.29,0-.44,0-.29,0-.45v-.74Z"/><path class="cls-20" d="M157.73,74.26l15.47-2.14s.05,0,.1.09a1.67,1.67,0,0,1,.17.48,9.73,9.73,0,0,1,.18,1.26c0,.59.08,1.36.08,2.39,0,.77,0,1.41-.06,1.94s-.08.93-.13,1.26-.1.57-.13.73a1.21,1.21,0,0,1-.15.35l-15.49,3.43s0-.19.08-.46.07-.65.13-1.1.09-1,.11-1.61.06-1.26.06-2,0-1.16-.07-1.69-.09-1-.13-1.47-.11-.79-.15-1.05S157.73,74.29,157.73,74.26Z"/><path class="cls-24" d="M116.18,78.82c0,.22,0,.43-.05.63,0,0,0,.08,0,.12a5,5,0,0,1-.05.57.57.57,0,0,0,0,.13c0,.16,0,.31,0,.43a.17.17,0,0,0,0,.07c0,.14,0,.27-.06.38v.06c0,.09,0,.17,0,.23v0c2.09-.68,3.75-2.07,5.69-3a59.29,59.29,0,0,1,5.55-2.2c6.52-2.49,27.88-1.71,28.86-2l-40.3-1.28a.81.81,0,0,0,0,.09s0,0,0,.07a1,1,0,0,1,0,.22v0c0,.1,0,.2.07.31s0,.07,0,.12.06.28.08.43,0,.09,0,.12,0,.35.07.53a.29.29,0,0,1,0,.09c0,.2,0,.41.07.61v0c0,.47.08,1,.09,1.49s0,1.19,0,1.72Z"/><path class="cls-24" d="M115.88,81.55Z"/><polygon class="cls-36" points="133.36 70.1 173.34 70.94 158.48 73.04 114.57 71.84 133.36 70.1"/><path class="cls-36" d="M173.64,73.38a8.69,8.69,0,0,0-.22-1.59,1.7,1.7,0,0,0-.09-.24,3.9,3.9,0,0,1-1.6.49c1.69-.25.91,7.41.7,8.08-.07.26-13.48,3.61-14.75,3.93h.1c.23,0,.47,0,.7,0h1.41a2.17,2.17,0,0,1,1.37.52l11.72-3,.05,0,.05-.06.07-.13.18-.55c.06-.25.12-.57.18-1s.12-.91.16-1.53.06-1.35.06-2.21C173.73,75,173.69,74.08,173.64,73.38Z"/><path class="cls-35" d="M158.34,74.33a.33.33,0,0,1-.09-.11s0,0,0,0a1,1,0,0,1-.06-.18h0a2,2,0,0,1,0-.25,2.45,2.45,0,0,1,0-.27.71.71,0,0,1,.07-.22h0a.65.65,0,0,1,.1-.15.24.24,0,0,1,.13-.07l-43.91-1.2h-.08s0,0,0,0h0a0,0,0,0,0,0,0h0a0,0,0,0,0,0,0h0a0,0,0,0,0,0,0,0,0,0,0,1,0,0h0s0,0,0,0v0h0s0,0,0,0h0l0,.06,0,.07s0,0,0,.06h0s0,0,0,0v.06h0v.06h0v0h0v0h0v0h0v0h0v0h0v0h0s0,0,0,0h0v0h0s0,0,0,0v0h0s0,0,0,0,0,0,0,.06h0s0,0,0,0l0,0,.06.07s0,0,0,0h0a.05.05,0,0,0,0,0,.12.12,0,0,0,.08,0l43.89,1.37a.21.21,0,0,1-.11-.05Z"/><path class="cls-37" d="M158.48,73l14.86-2.1h0a0,0,0,0,1,0,0,.05.05,0,0,1,0,0l0,0a.45.45,0,0,1,.13.19,4.31,4.31,0,0,1,.24.76,11.07,11.07,0,0,1,.22,1.57c.06.7.1,1.59.1,2.71,0,.86,0,1.59-.07,2.21s-.09,1.12-.15,1.54a9.66,9.66,0,0,1-.2,1,3.19,3.19,0,0,1-.17.54l-.06.15-.06.06,0,0L158.54,85.6a.18.18,0,0,1-.13,0,.4.4,0,0,1-.1-.12.77.77,0,0,1-.07-.2,1,1,0,0,1,0-.26.8.8,0,0,1,0-.26.57.57,0,0,1,.07-.22.45.45,0,0,1,.1-.18.2.2,0,0,1,.12-.08l.86-.21,13.93-3.43a1.6,1.6,0,0,0,.11-.35,6.37,6.37,0,0,0,.13-.73c0-.33.09-.74.12-1.26s0-1.17,0-1.94c0-1,0-1.8-.07-2.39a10.16,10.16,0,0,0-.17-1.26,1.1,1.1,0,0,0-.16-.48c0-.08-.07-.09-.07-.09l-13.91,2.14-.87.14a.24.24,0,0,1-.13,0,.51.51,0,0,1-.16-.34,1.09,1.09,0,0,1,0-.26,2.45,2.45,0,0,1,0-.27.71.71,0,0,1,.07-.22.55.55,0,0,1,.1-.16A.24.24,0,0,1,158.48,73Z"/><polygon class="cls-24" points="142.56 131.48 123.53 123.05 142.51 131.16 154.73 125.16 142.56 131.48"/><polygon class="cls-23" points="144.09 91.85 137.77 93.05 145.68 92.23 157.09 90.69 146.91 91.59 144.09 91.85"/><path class="cls-22" d="M148,93.32c-.26-1.27-.7-1.13-2.5-1.24-1.33-.09-2.85,0-2.69.38,1.16.64,0,5.62-.13,6.88.24.24,2.72-2.36,3-2.45s1.42,2.68,1.8,2.52C147.87,97.61,148.39,95.07,148,93.32Z"/><path class="cls-38" d="M116.05,74.32c0,.1,0,.22,0,.32h14Z"/><polygon class="cls-23" points="171.68 75.41 162.95 77.18 169.72 76.18 171.68 75.41"/><path class="cls-18" d="M148.06,92.68c-.42-1.23-.84-1-2.65-.91-1.32.08-2.82.34-2.61.73,1.23.48.69,5.56.75,6.83.27.21,2.4-2.68,2.69-2.81s1.75,2.48,2.1,2.27C148.46,97,148.64,94.36,148.06,92.68Z"/><path class="cls-22" d="M169.54,76.08c-.52.06-1.29.15-1.63.22.8.16.48,5.61.51,7,.48-.56,1.48-2.18,1.48-2.18h0c.11-.19.26-.14.26-.14a13.15,13.15,0,0,0,.74,1.59,32.74,32.74,0,0,0-.1-6.37C170.75,76,170.56,76,169.54,76.08Z"/><path class="cls-26" d="M170.89,75.84c0-.2-.25-.25-1.27,0-.75.16-1.73.28-1.71.46.73.48.82,5.66,1,7,.17.23,1.55-2.49,1.55-2.49s1,1.94,1.14,1.69A35.91,35.91,0,0,0,170.89,75.84Z"/><path class="cls-25" d="M169.62,75.8c-.51.11-1.27.25-1.61.36.81.09,1,5.55,1.1,7a25.57,25.57,0,0,0,1.3-2.29h0c.1-.19.24-.16.24-.16a11.13,11.13,0,0,0,.88,1.52,33.46,33.46,0,0,0-.64-6.34C170.84,75.64,170.64,75.59,169.62,75.8Z"/><path class="cls-19" d="M146.24,96.52c.3-.13,1.75,2.48,2.1,2.27,0-.12,0-.25,0-.37a3.08,3.08,0,0,1-.93-1.12c-.19-.31-.74-1-1.19-.84C146.06,96.54,146.17,96.55,146.24,96.52Z"/><path class="cls-19" d="M143.55,99.33c.1.08.49-.29.92-.8-.18.11-.36.14-.48,0-.26-.36.1-3.58-.3-5.1a1.55,1.55,0,0,0-.82-1.11c-.07.06-.11.14-.07.21C144,93,143.49,98.06,143.55,99.33Z"/><path class="cls-19" d="M145.41,91.77c-1.32.08-2.82.34-2.61.73a4.91,4.91,0,0,1,.63.26c0,.08-.28-.28.1-.46a5.2,5.2,0,0,1,.76-.25,2.34,2.34,0,0,1,.79,0c.14,0,.63.14.66.32-.09-.59,1.31-.48,1.77-.51C147.12,91.59,146.54,91.7,145.41,91.77Z"/><path class="cls-39" d="M171.18,106c-2.05.78-4.77,1.81-7.5,2.83l-7.43,3-3.37,1.38L156.3,112l7.49-2.84,7.43-2.95,3.38-1.38Z"/><path class="cls-21" d="M146.26,134.28a.43.43,0,0,0-.19.59h0a.42.42,0,0,0,.6.11l34-20.19a.44.44,0,0,0,.2-.59h0a.43.43,0,0,0-.61-.11Z"/><polygon class="cls-22" points="150.32 85.1 131.79 85.61 127.15 83.69 150.32 85.1"/><path class="cls-40" d="M166.06,82.37l-2.59.59-2.57.67-1.17.34,1.19-.26,2.59-.59,2.59-.67,1.15-.33Z"/><path class="cls-41" d="M145,117.65a2.14,2.14,0,0,1-.57-.5,4.42,4.42,0,0,1-.64-1.12,2.38,2.38,0,0,1-.12-.32c-1.91-1.39-34.06-12.49-30.18-24.37l-.17,0-.06,0v0l-.18-.06a.32.32,0,0,0-.09,0,.16.16,0,0,0-.09,0,3.58,3.58,0,0,0-1.33,2.29,10.35,10.35,0,0,0-.17,3A16.68,16.68,0,0,0,112,100a7.27,7.27,0,0,0,.6,1.51,3.79,3.79,0,0,0,.61.88,2.2,2.2,0,0,0,.51.41l.18.09,31.36,14.9Z"/><path class="cls-42" d="M147.71,94.05c0-.28,0-1.6-.4-1.72s-.68.69-.88.86a.47.47,0,0,1-.62.06,1.4,1.4,0,0,0-.34-.26c-.68-.24-.32,1-.21,1.27s.28.44.45.23,0-.5.16-.63c.51-.44,1.36,2.54,1.85,2.48C147.77,95.58,147.71,94.81,147.71,94.05Z"/><path class="cls-43" d="M170.91,77.9a6.21,6.21,0,0,0-.31-1.46c-.1-.19-.29-.32-.44-.13s0,.72-.21.94c-.37.38-.58-.71-.83-.84a.34.34,0,0,0-.2,0l0,0a14.86,14.86,0,0,0,.77,2.36c.26.21.43-.38.77-.06a6.5,6.5,0,0,1,.5.81C171.18,79.2,171,78.27,170.91,77.9Z"/><path class="cls-44" d="M111.89,104.71c-8.61.22-15.53,2.9-15.46,6l.48,18.69c.07,3.08,7.19,7.44,15.8,7.23s15.5-5,15.42-8l-.48-18.68C127.57,106.81,120.52,104.48,111.89,104.71Z"/><path class="cls-45" d="M114.69,105.76c-.9,0-1.82,0-2.77,0-.79,0-1.58.07-2.34.14a29.36,29.36,0,0,0-7.26,2.15,16.51,16.51,0,0,0-5.83,4.63l.35,14a5.89,5.89,0,0,1,5.84-2,19.38,19.38,0,0,1,6.74,3.14c4.15,2.81,8.31-1.83,12.13-3.09,2.68-.89,4.84-.68,6.5.67l-.37-14.44a3,3,0,0,0-1.41-2.23l-1.65-.28C121.45,107.82,117.93,106.23,114.69,105.76Z"/><path class="cls-46" d="M114.3,124.91a5.07,5.07,0,0,1-3.77.09l-28-12.37c-.6-.26-.8-.47-.82-1.44,0-.27.33-.12.78-.33L110,103.24a5,5,0,0,1,3.77-.1l27.89,6.2c.58.25.78-.08.79.28a1.37,1.37,0,0,1-.74,1.5Z"/><path class="cls-44" d="M114.29,124.31a5,5,0,0,1-3.77.08L82.47,112c-1.06-.46-1.08-1.25,0-1.78L110,102.63a5.07,5.07,0,0,1,3.77-.1l27.89,6.21c1.06.47,1.08,1.26,0,1.77Z"/><path class="cls-47" d="M131.2,115.8c-6.46,3.17-16.94,8.36-16.94,8.36a5,5,0,0,1-3.77.1S100,119.71,93.55,117c0,0,17,7.56,17,7.56a4.93,4.93,0,0,0,3.77-.1S131.22,115.82,131.2,115.8Z"/><g class="cls-48"><path class="cls-49" d="M112,110.24c-.16.05-15.36,4.77-19.83,6.1a.79.79,0,0,0-.43.33c.17.08.33.15.48.24s.36.19.4.19.09-.39.33-.46c5.11-1.53,18.85-6,19-6s.42-.1.38-.24A.26.26,0,0,0,112,110.24Z"/></g><path class="cls-50" d="M92.5,129.38a.24.24,0,0,1-.26-.25c-.07-2.62-.34-5.09-.57-7.07-.39-3.52-.63-5.64.48-6C96.61,114.77,111.82,110,112,110a.26.26,0,0,1,.32.17.27.27,0,0,1-.17.32c-.15,0-15.36,4.78-19.83,6.11-.69.2-.42,2.62-.11,5.42.23,2,.51,4.48.58,7.12A.26.26,0,0,1,92.5,129.38Z"/><path class="cls-51" d="M114.21,110.27c0,.63-1,1.17-2.26,1.19s-2.3-.44-2.32-1.08,1-1.16,2.26-1.19S114.19,109.64,114.21,110.27Z"/><path class="cls-52" d="M112.15,110a.19.19,0,0,0-.18,0c-.15,0-15.36,4.79-19.82,6.11-1.11.33-.87,2.45-.48,6,.23,2,.5,4.45.57,7.07l.13.05c.14,0-.24-.17-.13-.26.3-.28-.19-5.21-.43-7.2-.31-2.8-.35-5.14.34-5.35,4.47-1.32,19.68-6.06,19.84-6.1A.26.26,0,0,0,112.15,110Z"/><path class="cls-46" d="M114.2,109.9c0,.72-1,1.33-2.25,1.37s-2.31-.53-2.33-1.25,1-1.33,2.25-1.37S114.18,109.17,114.2,109.9Z"/><path class="cls-44" d="M111.93,110.78c-1,0-1.86-.4-2-1,0,.06-.06.11,0,.18,0,.64.94,1.14,2.08,1.11s2-.58,2-1.21c0-.07,0-.12-.06-.18C113.76,110.29,113,110.75,111.93,110.78Z"/><path class="cls-50" d="M93.83,129.09c0,.55-.57,1-1.31,1s-1.33-.4-1.35-1,.56-1,1.3-1S93.82,128.55,93.83,129.09Z"/><path class="cls-50" d="M93.05,129.41H93c-.18.1-.3.19-.42.27a2.61,2.61,0,0,0-.42-.24h-.08c-2.46,1.59-2.4,4.76-2.19,7.46.12,0,.43-.38.38-.55a8,8,0,0,0,.35,1c0-.42.26.15.26.15.15.15.35-1,.42-.71,0,1.15.28.06.28.06.06.2.15.25.18.48l.1-.13a2.83,2.83,0,0,1,.19.47l.19-.41c.08.11.16.57.28.65s0-.78.07-.86.13.63.15.67l.05-.07a.23.23,0,0,0,.06.07s0-.09,0-.14.14.25.17.31.09-.12.16-.23a1.06,1.06,0,0,0,.31,0,3.13,3.13,0,0,1,.16-.49l.11.13a1.88,1.88,0,0,1,.16-.49s.33,1.07.28-.08c0-.27.19.33.45.7,0,0,.07-1.24.26-.17a6.06,6.06,0,0,0,.24-.86c0,.17.34.41.46.36C95.69,134,95.59,130.89,93.05,129.41Z"/><path class="cls-52" d="M92,130a1.44,1.44,0,0,0-.12.18,1.82,1.82,0,0,0-.27.49,8.4,8.4,0,0,0-.43,1.67,16.71,16.71,0,0,0-.22,2.53,16.24,16.24,0,0,1,.09-2.55c0-.32.1-.64.15-.93a5.29,5.29,0,0,1,.21-.81,3.34,3.34,0,0,1,.38-.73Z"/><path class="cls-52" d="M92.63,129.93l-.08.16c0,.06-.08.11-.09.19a1.32,1.32,0,0,0,0,.23,7.41,7.41,0,0,0-.19,1.41c-.07,1-.06,2.1-.06,2.1s-.07-1-.07-2.1a9.13,9.13,0,0,1,.1-1.46,1.46,1.46,0,0,1,.14-.48.61.61,0,0,1,.08-.16Z"/><path class="cls-53" d="M93.42,129.7a6.57,6.57,0,0,1-.67.22,1.79,1.79,0,0,1,.84,1,9.35,9.35,0,0,1,.84,3.6,0,0,0,0,0,0,0,6,6,0,0,1-.43,1.25c-.26-.39-.51-.88-.74-1.31a4.3,4.3,0,0,1-.61,1.77c-.33-.4-.24-1.24-.55-1.65a3.47,3.47,0,0,1-.42,1.86c-.09-.16-.1-.34-.27-.42a1.82,1.82,0,0,1-.08.19,4.14,4.14,0,0,1-.15-.56,3.81,3.81,0,0,1-.38.72,2.36,2.36,0,0,1-.5-1.13,7.18,7.18,0,0,0-.45,1.06c0,.2,0,.41,0,.6.12,0,.43-.38.38-.55a8,8,0,0,0,.35,1c0-.42.26.15.26.15.15.15.35-1,.42-.71,0,1.15.28.06.28.06.06.2.15.25.18.48l.1-.13a2.83,2.83,0,0,1,.19.47l.19-.41c.08.11.16.57.28.65s0-.78.07-.86.13.63.15.67l.05-.07a.23.23,0,0,0,.06.07s0-.09,0-.14.14.25.17.31.09-.12.16-.23a1.06,1.06,0,0,0,.31,0,3.13,3.13,0,0,1,.16-.49l.11.13a1.88,1.88,0,0,1,.16-.49s.33,1.07.28-.08c0-.27.19.33.45.7,0,0,.07-1.24.26-.17a6.06,6.06,0,0,0,.24-.86c0,.17.34.41.46.36C95.68,134.2,95.56,131.26,93.42,129.7Z"/><path class="cls-53" d="M93.06,128.22a.82.82,0,0,1,.33.61c0,.55-.56,1-1.3,1a1.63,1.63,0,0,1-.59-.1,1.54,1.54,0,0,0,1,.35c.74,0,1.33-.48,1.31-1A1,1,0,0,0,93.06,128.22Z"/><path class="cls-52" d="M91,130.62s-.09.28-.24.71c-.08.21-.12.47-.21.73s-.11.55-.18.85c-.12.57-.19,1.16-.25,1.6a6.16,6.16,0,0,1-.14.73,1.78,1.78,0,0,0,0-.2c0-.14,0-.31,0-.55a9.48,9.48,0,0,1,.15-1.64c.08-.29.13-.58.22-.86s.19-.51.29-.72C90.88,130.87,91,130.62,91,130.62Z"/><path class="cls-52" d="M91.51,128.79c-.14.22-.17.46-.05.54s.32-.05.45-.26.16-.46,0-.52S91.64,128.58,91.51,128.79Z"/></g></g></g></svg>