<svg id="Group_1035" data-name="Group 1035" xmlns="http://www.w3.org/2000/svg" width="16.5" height="16.501" viewBox="0 0 16.5 16.501">
  <path id="Path_1427" data-name="Path 1427" d="M111.437,95.339a.717.717,0,0,0-.717.717v1.277a1.2,1.2,0,0,1-1.2,1.2h-6.416a1.2,1.2,0,0,1-1.2-1.2V86.1a1.2,1.2,0,0,1,1.2-1.2h6.416a1.2,1.2,0,0,1,1.2,1.2v1.277a.717.717,0,1,0,1.435,0V86.1a2.635,2.635,0,0,0-2.633-2.633h-6.416a2.635,2.635,0,0,0-2.633,2.633V97.334a2.635,2.635,0,0,0,2.633,2.633h6.416a2.635,2.635,0,0,0,2.633-2.633V96.057A.717.717,0,0,0,111.437,95.339Zm0,0" transform="translate(-100.473 -83.465)" fill="#fff"/>
  <path id="Path_1428" data-name="Path 1428" d="M241.063,199.252l-1.43-1.43a.717.717,0,0,0-1.014,1.014l.882.882h-7.475a.717.717,0,1,0,0,1.435H239.5l-.882.882a.717.717,0,0,0,1.014,1.014l1.43-1.43A1.677,1.677,0,0,0,241.063,199.252Zm0,0" transform="translate(-225.052 -192.154)" fill="#fff"/>
</svg>
