<svg xmlns="http://www.w3.org/2000/svg" width="251.032" height="34.7" viewBox="0 0 251.032 34.7">
  <g id="Group_1057" data-name="Group 1057" transform="translate(-148.968 -39)">
    <g id="Group_1030" data-name="Group 1030" transform="translate(13 1)">
      <g id="Group_1" data-name="Group 1" transform="translate(135.968 38)">
        <path id="Path_16" data-name="Path 16" d="M133.642,435.641a1.627,1.627,0,0,1-.874-1.474,1.294,1.294,0,0,1,.3-.888.943.943,0,0,1,.737-.341,3.02,3.02,0,0,1,1.284.436,11.92,11.92,0,0,0,1.6.628,6.5,6.5,0,0,0,1.843.218,3.5,3.5,0,0,0,1.788-.382,1.183,1.183,0,0,0,.641-1.064,1.028,1.028,0,0,0-.26-.737,2.389,2.389,0,0,0-.928-.505,19.6,19.6,0,0,0-2.033-.532,7.8,7.8,0,0,1-3.481-1.392,3.1,3.1,0,0,1-1.051-2.484,3.582,3.582,0,0,1,.71-2.17,4.6,4.6,0,0,1,1.951-1.5,7.112,7.112,0,0,1,2.826-.532,8.476,8.476,0,0,1,2.211.287,6.726,6.726,0,0,1,1.911.832,1.649,1.649,0,0,1,.874,1.447,1.4,1.4,0,0,1-.3.915.92.92,0,0,1-.737.368,1.479,1.479,0,0,1-.587-.123,7.9,7.9,0,0,1-.724-.368,11.384,11.384,0,0,0-1.365-.615,4.261,4.261,0,0,0-1.419-.2,2.747,2.747,0,0,0-1.6.409,1.292,1.292,0,0,0-.587,1.119,1.137,1.137,0,0,0,.6,1.037,8.578,8.578,0,0,0,2.321.71,13.247,13.247,0,0,1,2.866.874,3.359,3.359,0,0,1,1.487,1.228,3.567,3.567,0,0,1,.451,1.883,3.5,3.5,0,0,1-1.542,2.976,6.846,6.846,0,0,1-4.108,1.119,8.77,8.77,0,0,1-4.8-1.174" transform="translate(-98.131 -412.485)" fill="#545454"/>
        <path id="Path_17" data-name="Path 17" d="M160.515,433.619a1.11,1.11,0,0,1-.532,1,2.543,2.543,0,0,1-1.516.287l-.737-.055q-4.586-.328-4.586-4.913v-5.951h-1.365a1.732,1.732,0,0,1-1.133-.328,1.351,1.351,0,0,1,0-1.911,1.732,1.732,0,0,1,1.133-.327h1.365V418.9a1.535,1.535,0,0,1,.464-1.174,1.759,1.759,0,0,1,1.255-.437,1.724,1.724,0,0,1,1.229.437,1.537,1.537,0,0,1,.464,1.174v2.512h2.32a1.732,1.732,0,0,1,1.133.327,1.351,1.351,0,0,1,0,1.911,1.731,1.731,0,0,1-1.133.328h-2.32v6.2q0,2.021,1.856,2.157l.737.055q1.365.082,1.365,1.228" transform="translate(-103.822 -410.654)" fill="#545454"/>
        <path id="Path_18" data-name="Path 18" d="M179.568,423.437a1.535,1.535,0,0,1,.464,1.174V435.2a1.48,1.48,0,0,1-.478,1.147,1.774,1.774,0,0,1-1.242.436,1.648,1.648,0,0,1-1.174-.409,1.46,1.46,0,0,1-.436-1.12v-.682a4.356,4.356,0,0,1-1.693,1.678,4.893,4.893,0,0,1-2.4.587q-4.914,0-4.914-5.514v-6.716a1.535,1.535,0,0,1,.464-1.174,1.722,1.722,0,0,1,1.228-.436,1.761,1.761,0,0,1,1.256.436,1.535,1.535,0,0,1,.464,1.174v6.743a3.219,3.219,0,0,0,.573,2.1,2.224,2.224,0,0,0,1.8.683,2.942,2.942,0,0,0,2.28-.942,3.561,3.561,0,0,0,.859-2.5v-6.088a1.535,1.535,0,0,1,.464-1.174,1.722,1.722,0,0,1,1.228-.436,1.761,1.761,0,0,1,1.256.436" transform="translate(-109.499 -412.512)" fill="#545454"/>
        <path id="Path_19" data-name="Path 19" d="M203,414.9a1.461,1.461,0,0,1,.492,1.147v16.324a1.535,1.535,0,0,1-.464,1.174,1.945,1.945,0,0,1-2.457,0,1.533,1.533,0,0,1-.464-1.174v-.683a4.27,4.27,0,0,1-1.734,1.748,5.233,5.233,0,0,1-2.579.627,5.529,5.529,0,0,1-3.071-.874,5.789,5.789,0,0,1-2.1-2.47,8.53,8.53,0,0,1-.751-3.672,8.262,8.262,0,0,1,.751-3.631,5.51,5.51,0,0,1,5.173-3.248,5.347,5.347,0,0,1,2.566.6,4.171,4.171,0,0,1,1.72,1.692V415.99a1.447,1.447,0,0,1,.451-1.106,1.7,1.7,0,0,1,1.214-.424A1.821,1.821,0,0,1,203,414.9m-3.781,15.4a5.038,5.038,0,0,0,.887-3.194,4.98,4.98,0,0,0-.887-3.18,3.021,3.021,0,0,0-2.5-1.106,3.108,3.108,0,0,0-2.539,1.092,4.819,4.819,0,0,0-.9,3.139,5.1,5.1,0,0,0,.9,3.221,3.365,3.365,0,0,0,5.037.027" transform="translate(-116.717 -409.732)" fill="#545454"/>
        <path id="Path_20" data-name="Path 20" d="M224.175,423.26a1.483,1.483,0,0,1,.805-.232,1.716,1.716,0,0,1,1.133.424,1.318,1.318,0,0,1,.505,1.051,1.406,1.406,0,0,1-.163.627L219,440.745a1.526,1.526,0,0,1-1.447.928,1.682,1.682,0,0,1-1.106-.4,1.239,1.239,0,0,1-.478-1,1.757,1.757,0,0,1,.163-.682l1.856-3.9-5.078-10.565a1.38,1.38,0,0,1-.136-.627,1.332,1.332,0,0,1,.532-1.065,1.865,1.865,0,0,1,1.215-.436,1.6,1.6,0,0,1,.846.232,1.553,1.553,0,0,1,.6.723l3.821,8.435,3.795-8.407a1.579,1.579,0,0,1,.587-.724" transform="translate(-124.173 -412.512)" fill="#545454"/>
        <path id="Path_21" data-name="Path 21" d="M255.211,424.216a6.2,6.2,0,0,1,1.16,4.19v6.716a1.537,1.537,0,0,1-.478,1.215,1.8,1.8,0,0,1-1.242.423,1.764,1.764,0,0,1-1.215-.423,1.537,1.537,0,0,1-.478-1.215v-6.716a3.38,3.38,0,0,0-.532-2.143,1.992,1.992,0,0,0-1.624-.642,2.674,2.674,0,0,0-2.129.915,3.689,3.689,0,0,0-.792,2.5v6.088a1.537,1.537,0,0,1-.478,1.215,1.765,1.765,0,0,1-1.215.423,1.816,1.816,0,0,1-1.228-.423,1.514,1.514,0,0,1-.491-1.215v-6.716a3.375,3.375,0,0,0-.533-2.143,1.991,1.991,0,0,0-1.624-.642,2.634,2.634,0,0,0-2.116.915,3.733,3.733,0,0,0-.778,2.5v6.088a1.514,1.514,0,0,1-.492,1.215,1.817,1.817,0,0,1-1.228.423,1.764,1.764,0,0,1-1.215-.423,1.534,1.534,0,0,1-.478-1.215V424.558a1.441,1.441,0,0,1,.491-1.174,1.852,1.852,0,0,1,1.228-.409,1.7,1.7,0,0,1,1.16.4,1.43,1.43,0,0,1,.451,1.133v.655a4.277,4.277,0,0,1,1.679-1.665,4.961,4.961,0,0,1,2.416-.573,3.911,3.911,0,0,1,4.013,2.511,4.509,4.509,0,0,1,1.775-1.829,5.178,5.178,0,0,1,2.647-.682,4.255,4.255,0,0,1,3.344,1.3" transform="translate(-131.734 -412.485)" fill="#545454"/>
        <path id="Path_24" data-name="Path 24" d="M280.727,424.3a5.772,5.772,0,0,1,1.351,4.19v6.66a1.54,1.54,0,0,1-.436,1.16,1.653,1.653,0,0,1-1.2.424,1.6,1.6,0,0,1-1.16-.437,1.523,1.523,0,0,1-.451-1.147v-.6a3.56,3.56,0,0,1-1.46,1.665,4.385,4.385,0,0,1-2.306.6,5.362,5.362,0,0,1-2.43-.546,4.313,4.313,0,0,1-1.719-1.5,3.792,3.792,0,0,1-.628-2.129,3.37,3.37,0,0,1,.751-2.32,4.514,4.514,0,0,1,2.443-1.228,22.285,22.285,0,0,1,4.668-.382h.683v-.628a2.8,2.8,0,0,0-.573-1.952,2.439,2.439,0,0,0-1.856-.614,5.9,5.9,0,0,0-1.611.232q-.819.232-1.938.668a2.725,2.725,0,0,1-1.037.355,1.025,1.025,0,0,1-.805-.355,1.346,1.346,0,0,1-.314-.928,1.4,1.4,0,0,1,.232-.805,2.206,2.206,0,0,1,.778-.641,8.951,8.951,0,0,1,2.28-.819,11.745,11.745,0,0,1,2.606-.3,5.562,5.562,0,0,1,4.136,1.379m-2.757,9.144a3.305,3.305,0,0,0,.86-2.361v-.573h-.491a18.816,18.816,0,0,0-2.839.164,2.755,2.755,0,0,0-1.447.573,1.46,1.46,0,0,0-.437,1.12,1.854,1.854,0,0,0,.615,1.433,2.166,2.166,0,0,0,1.515.559,2.914,2.914,0,0,0,2.225-.915" transform="translate(-142.89 -412.485)" fill="#545454"/>
        <path id="Path_25" data-name="Path 25" d="M299.975,433.619a1.111,1.111,0,0,1-.532,1,2.543,2.543,0,0,1-1.516.287l-.737-.055q-4.586-.328-4.586-4.913v-5.951h-1.365a1.731,1.731,0,0,1-1.132-.328,1.351,1.351,0,0,1,0-1.911,1.732,1.732,0,0,1,1.132-.327H292.6V418.9a1.535,1.535,0,0,1,.464-1.174,1.758,1.758,0,0,1,1.255-.437,1.725,1.725,0,0,1,1.229.437,1.537,1.537,0,0,1,.463,1.174v2.512h2.32a1.734,1.734,0,0,1,1.133.327,1.352,1.352,0,0,1,0,1.911,1.733,1.733,0,0,1-1.133.328h-2.32v6.2q0,2.021,1.857,2.157l.737.055q1.365.082,1.365,1.228" transform="translate(-149.213 -410.654)" fill="#545454"/>
        <path id="Path_26" data-name="Path 26" d="M318.233,433.293a1.474,1.474,0,0,1,.287.955,1.655,1.655,0,0,1-1.01,1.42,9.157,9.157,0,0,1-2.1.832,8.678,8.678,0,0,1-2.239.314,6.957,6.957,0,0,1-5.1-1.856,6.8,6.8,0,0,1-1.884-5.078,7.8,7.8,0,0,1,.82-3.631,5.957,5.957,0,0,1,2.307-2.457,6.533,6.533,0,0,1,3.371-.874,6.047,6.047,0,0,1,3.139.792,5.366,5.366,0,0,1,2.074,2.238,7.424,7.424,0,0,1,.737,3.412q0,1.174-1.037,1.174h-8.053a4.3,4.3,0,0,0,1.065,2.771,3.581,3.581,0,0,0,2.62.887,4.968,4.968,0,0,0,1.543-.219,15.131,15.131,0,0,0,1.515-.6,3.013,3.013,0,0,1,1.2-.436.917.917,0,0,1,.75.355m-7.7-7.1a4.127,4.127,0,0,0-1,2.512h6.17a3.9,3.9,0,0,0-.819-2.525,2.7,2.7,0,0,0-2.13-.86,2.933,2.933,0,0,0-2.225.874" transform="translate(-154.574 -412.485)" fill="#545454"/>
        <path id="Path_14" data-name="Path 14" d="M84.3,418.57l-2.879,19.472a20.785,20.785,0,0,1,14.622,7.727q.076-10,.151-20a12.954,12.954,0,0,0-3.636-4.47A13.373,13.373,0,0,0,84.3,418.57" transform="translate(-81.418 -411.069)" fill="#002984"/>
        <path id="Path_15" data-name="Path 15" d="M116.339,418.57l2.879,19.472a20.785,20.785,0,0,0-14.622,7.727q-.076-10-.152-20a12.963,12.963,0,0,1,3.636-4.47,13.374,13.374,0,0,1,8.259-2.728" transform="translate(-88.912 -411.069)" fill="#10a3ff"/>
        <path id="Path_22" data-name="Path 22" d="M91.976,411.163a3.637,3.637,0,1,0,3.637-3.713,3.675,3.675,0,0,0-3.637,3.713" transform="translate(-84.854 -407.45)" fill="#002984"/>
        <path id="Path_23" data-name="Path 23" d="M105.23,411.163a3.637,3.637,0,1,0,3.637-3.713,3.675,3.675,0,0,0-3.637,3.713" transform="translate(-89.168 -407.45)" fill="#10a3ff"/>
      </g>
      <path id="Rectangle_921" data-name="Rectangle 921" d="M0,0H68A10,10,0,0,1,78,10V20A10,10,0,0,1,68,30H10A10,10,0,0,1,0,20V0A0,0,0,0,1,0,0Z" transform="translate(309 40)" fill="#10a3ff"/>
      <text id="StudyPack" transform="translate(322 59)" fill="#fff" font-size="11" font-family="OpenSans-Semibold, Open Sans" font-weight="600"><tspan x="0" y="0">StudyPack</tspan></text>
    </g>
  </g>
</svg>
