<svg xmlns="http://www.w3.org/2000/svg" xmlns:xlink="http://www.w3.org/1999/xlink" width="267" height="274" viewBox="0 0 267 274">
  <defs>
    <clipPath id="clip-path">
      <rect id="Rectangle_1151" data-name="Rectangle 1151" width="267" height="274" rx="26" transform="translate(0 0.116)" fill="#fff"/>
    </clipPath>
  </defs>
  <g id="Mask_Group_30" data-name="Mask Group 30" transform="translate(0 -0.116)" clip-path="url(#clip-path)">
    <g id="Group_1258" data-name="Group 1258" transform="translate(68.382 66.43)">
      <g id="Group_1250" data-name="Group 1250" transform="translate(0 107.428)">
        <g id="Group_1248" data-name="Group 1248" transform="translate(109.212)">
          <path id="Path_3183" data-name="Path 3183" d="M234.15,156.135a9.085,9.085,0,0,0-10.075,7.988L222.568,177.2a9.1,9.1,0,0,0,18.07,2.089l1.5-13.087A9.077,9.077,0,0,0,234.15,156.135Z" transform="translate(-222.508 -155.211)" fill="#d27f5c"/>
          <path id="Path_3184" data-name="Path 3184" d="M233.924,155.785a9.879,9.879,0,0,0-5.792,1.094l-.256,2.205a8.21,8.21,0,0,1,13.087,7.527l-1.5,13.073a8.237,8.237,0,0,1-15.138,3.471.85.85,0,0,0-1.181-.271.862.862,0,0,0-.268,1.188,9.956,9.956,0,0,0,18.3-4.193l1.5-13.073A9.959,9.959,0,0,0,233.924,155.785Z" transform="translate(-222.183 -155.717)" fill="#e59776"/>
          <path id="Path_3185" data-name="Path 3185" d="M234.355,159.288a6.384,6.384,0,0,0-2.918-.86c-4.406-.3-7.949,7.092-3.551,8.411,1.657,1.756-.063,3.792-.063,3.792-1.512,1.787-3.546,4.365-3.077,6.894.266,1.5,1.792,2.3,3.181,2.676,1.1.292,1.321-.647.44-1.1a4.952,4.952,0,0,1-1.669-1.493c-.044-.089-.087-.171-.138-.256a1.023,1.023,0,0,1-.1-.191,1.733,1.733,0,0,1-.046-1.1c.985.773,2.645.947,3.411-.046.833-1.092.205-2.8.5-4.044a9.721,9.721,0,0,1,1.01-2.488c2.024-3.669-1.618-4.287-1.618-4.287a11.726,11.726,0,0,0-1.333.111c-1.848-1.051.21-4.053,1.329-4.529a3.3,3.3,0,0,1,3.845.715,6.328,6.328,0,0,1,1.222,4.227,14.779,14.779,0,0,1-1.205,5.085c-.394.9-.9,1.966-1.3,2.877-.456,1.022.65,1.471,1.1.44.964-2.167,2.758-5.35,3.135-8.353C236.819,163.281,236.4,160.894,234.355,159.288Z" transform="translate(-219.438 -151.891)" fill="#e59776"/>
        </g>
        <g id="Group_1249" data-name="Group 1249">
          <path id="Path_3186" data-name="Path 3186" d="M185.7,156.135a9.086,9.086,0,0,1,10.077,7.988l1.5,13.073a9.094,9.094,0,0,1-18.068,2.089l-1.5-13.087A9.078,9.078,0,0,1,185.7,156.135Z" transform="translate(-176.791 -155.211)" fill="#d27f5c"/>
          <path id="Path_3187" data-name="Path 3187" d="M186.112,155.785a9.878,9.878,0,0,1,5.79,1.094l.249,2.205a8.209,8.209,0,0,0-13.085,7.527l1.5,13.073a8.243,8.243,0,0,0,15.147,3.471.851.851,0,0,1,1.184-.271.863.863,0,0,1,.266,1.188,9.958,9.958,0,0,1-18.3-4.193l-1.5-13.073A9.958,9.958,0,0,1,186.112,155.785Z" transform="translate(-177.295 -155.717)" fill="#e59776"/>
          <path id="Path_3188" data-name="Path 3188" d="M180.943,159.288a6.356,6.356,0,0,1,2.915-.86c4.406-.3,7.952,7.092,3.553,8.411-1.659,1.756.058,3.792.058,3.792,1.514,1.787,3.551,4.365,3.087,6.894-.275,1.5-1.8,2.3-3.186,2.676-1.109.292-1.324-.647-.44-1.1a4.951,4.951,0,0,0,1.669-1.493c.041-.089.089-.171.133-.256a.81.81,0,0,0,.106-.191,1.767,1.767,0,0,0,.051-1.1c-.988.773-2.65.947-3.418-.046-.831-1.092-.2-2.8-.486-4.044a9.909,9.909,0,0,0-1.014-2.488c-2.024-3.669,1.616-4.287,1.616-4.287a11.774,11.774,0,0,1,1.336.111c1.845-1.051-.213-4.053-1.336-4.529a3.3,3.3,0,0,0-3.843.715,6.326,6.326,0,0,0-1.22,4.227,15.047,15.047,0,0,0,1.2,5.085c.4.9.9,1.966,1.312,2.877.459,1.022-.64,1.471-1.1.44-.964-2.167-2.758-5.35-3.135-8.353C178.479,163.281,178.89,160.894,180.943,159.288Z" transform="translate(-175.305 -151.891)" fill="#e59776"/>
        </g>
      </g>
      <path id="Path_3190" data-name="Path 3190" d="M235.968,119.218v-.007c-.242,0-.483,0-.722,0s-.483,0-.727,0v.007c-36.517.324-57.273,7.425-51.67,73.993l2.751,60.346s.229,9.174,8.106,13.08l27.23,13.063s9.423,4.188,14.309,3.771c4.884.418,14.309-3.771,14.309-3.771l23.609-10.679c10.611-5.787,11.722-15.464,11.722-15.464l3.486-57.706C293.976,129.281,272.488,119.542,235.968,119.218Z" transform="translate(-170.716 -99.961)" fill="#d27f5c"/>
      <g id="Group_1257" data-name="Group 1257" transform="translate(26.274 75.602)">
        <path id="Path_3193" data-name="Path 3193" d="M199.421,165.044s1.357.176,3.4.437c.483.06,1.007.123,1.56.191.536.089,1.123.082,1.7.174,1.172.082,2.394.2,3.609.191a31.583,31.583,0,0,0,3.572-.1c1.147-.082,2.251-.2,3.205-.365.971-.128,1.8-.288,2.4-.4s.983-.128.983-.128-.21.287-.633.756a8.745,8.745,0,0,1-1.976,1.7,7.011,7.011,0,0,1-1.524.867,10.1,10.1,0,0,1-1.841.72,13.536,13.536,0,0,1-4.249.57,14.5,14.5,0,0,1-7.532-2.234A9.356,9.356,0,0,1,199.421,165.044Z" transform="translate(-172.25 -110.687)" fill="#fcb590"/>
        <g id="Group_1253" data-name="Group 1253" transform="translate(21.882 71.816)">
          <g id="Group_1251" data-name="Group 1251">
            <path id="Path_3194" data-name="Path 3194" d="M198.127,175.642c8.353,4.6,21.116,4,29.565,0,2.109-1,.268-4.123-1.831-3.128-7.222,3.423-18.78,3.923-25.906,0-2.046-1.128-3.877,2-1.828,3.128Z" transform="translate(-197.231 -172.272)" fill="#fcb590"/>
          </g>
          <g id="Group_1252" data-name="Group 1252" transform="translate(10.968 8.784)">
            <path id="Path_3195" data-name="Path 3195" d="M203.584,179.542a16.48,16.48,0,0,0,6.268-.063c2.266-.572,1.3-4.068-.961-3.5a14.163,14.163,0,0,1-5.307-.065,1.814,1.814,0,0,0-1.812,1.812,1.852,1.852,0,0,0,1.812,1.812Z" transform="translate(-201.772 -175.909)" fill="#fcb590"/>
          </g>
        </g>
        <g id="Group_1256" data-name="Group 1256">
          <g id="Group_1254" data-name="Group 1254" transform="translate(48.006)">
            <path id="Path_3196" data-name="Path 3196" d="M211.967,157.709c0,4.358,2.36,7.889,5.261,7.889s5.261-3.531,5.261-7.889-2.353-7.889-5.261-7.889S211.967,153.351,211.967,157.709Z" transform="translate(-202.498 -132.237)" fill="#1b0d05"/>
            <path id="Path_3197" data-name="Path 3197" d="M215.073,153.372a2.506,2.506,0,1,0,2.51-2.507A2.5,2.5,0,0,0,215.073,153.372Z" transform="translate(-198.101 -130.757)" fill="#fff"/>
            <path id="Path_3198" data-name="Path 3198" d="M233.139,151.16a1.7,1.7,0,0,1-2.268.838,22.878,22.878,0,0,0-18.887,0,1.7,1.7,0,0,1-2.273-.838q-.764-1.725-1.531-3.449a2.068,2.068,0,0,1,1.258-2.58,29.033,29.033,0,0,1,23.976,0,2.07,2.07,0,0,1,1.258,2.58Q233.909,149.436,233.139,151.16Z" transform="translate(-208.047 -142.541)" fill="#3e211d"/>
          </g>
          <g id="Group_1255" data-name="Group 1255">
            <path id="Path_3199" data-name="Path 3199" d="M201.5,157.709c0,4.358-2.357,7.889-5.266,7.889s-5.256-3.531-5.256-7.889,2.355-7.889,5.256-7.889S201.5,153.351,201.5,157.709Z" transform="translate(-184.207 -132.237)" fill="#1b0d05"/>
            <path id="Path_3200" data-name="Path 3200" d="M195.165,153.372a2.508,2.508,0,1,1-2.512-2.507A2.507,2.507,0,0,1,195.165,153.372Z" transform="translate(-185.376 -130.757)" fill="#fff"/>
            <path id="Path_3201" data-name="Path 3201" d="M189.841,151.16a1.7,1.7,0,0,0,2.266.838A22.884,22.884,0,0,1,211,152a1.7,1.7,0,0,0,2.268-.838q.768-1.725,1.534-3.449a2.068,2.068,0,0,0-1.259-2.58,29.032,29.032,0,0,0-23.976,0,2.072,2.072,0,0,0-1.258,2.58Q189.069,149.436,189.841,151.16Z" transform="translate(-188.172 -142.541)" fill="#3e211d"/>
          </g>
        </g>
      </g>
      <path id="Path_3202" data-name="Path 3202" d="M183.711,219.062l3.606.246s1.821-.737,2.867,4.756H194.7V184.777s1.763-21.445,26.131-22.86c0,0,52.409,16.737,72.921-2.611,0,0,13.432-12.126,4.186-34.4,0,0-7.51,16.976-22.928,4.6,0,0-27.046-37.831-78.385-4.6,0,0-13.2,10.259-11.348,27.94,0,0-7.829,2.824-7.829,14.848Z" transform="translate(-177.072 -111.242)" fill="#3e211d"/>
      <path id="Path_3203" data-name="Path 3203" d="M219.192,142.69c8.1,4.068,8.481,18.681,8.481,18.681v39.288H232.2c1.041-5.493,2.867-4.756,2.867-4.756l3.606-.246,6.254-51.368c0-12.024-7.826-14.848-7.826-14.848S219.675,120.854,219.192,142.69Z" transform="translate(-117.99 -87.836)" fill="#3e211d"/>
    </g>
  </g>
</svg>
