<svg xmlns="http://www.w3.org/2000/svg" width="127.762" height="180.706" viewBox="0 0 127.762 180.706">
  <g id="Group_1360" data-name="Group 1360" transform="translate(-453.326 -550)">
    <g id="Group_1258" data-name="Group 1258" transform="translate(258.078 438.758)">
      <g id="Group_1250" data-name="Group 1250" transform="translate(195.248 217.011)">
        <g id="Group_1248" data-name="Group 1248" transform="translate(107.526)">
          <path id="Path_3183" data-name="Path 3183" d="M233.971,156.134A8.945,8.945,0,0,0,224.051,164l-1.484,12.871a8.955,8.955,0,0,0,17.791,2.057l1.482-12.885A8.937,8.937,0,0,0,233.971,156.134Z" transform="translate(-222.508 -155.225)" fill="#d27f5c"/>
          <path id="Path_3184" data-name="Path 3184" d="M233.751,155.784a9.727,9.727,0,0,0-5.7,1.077l-.252,2.171a8.084,8.084,0,0,1,12.885,7.41L239.2,179.314a8.11,8.11,0,0,1-14.9,3.417.837.837,0,0,0-1.163-.266.848.848,0,0,0-.264,1.17,9.8,9.8,0,0,0,18.017-4.129l1.477-12.871A9.806,9.806,0,0,0,233.751,155.784Z" transform="translate(-222.192 -155.717)" fill="#e59776"/>
          <path id="Path_3185" data-name="Path 3185" d="M234.206,159.275a6.285,6.285,0,0,0-2.873-.847c-4.338-.293-7.827,6.982-3.5,8.281,1.631,1.729-.062,3.734-.062,3.734-1.489,1.76-3.491,4.3-3.03,6.787.262,1.477,1.765,2.269,3.132,2.635,1.087.288,1.3-.637.433-1.084a4.875,4.875,0,0,1-1.643-1.47c-.043-.088-.086-.169-.136-.252a1.008,1.008,0,0,1-.1-.188,1.706,1.706,0,0,1-.045-1.082c.97.761,2.6.932,3.358-.045.82-1.075.2-2.759.487-3.981a9.571,9.571,0,0,1,.994-2.45c1.993-3.612-1.593-4.221-1.593-4.221a11.548,11.548,0,0,0-1.313.109c-1.819-1.035.207-3.991,1.308-4.459a3.253,3.253,0,0,1,3.786.7,6.23,6.23,0,0,1,1.2,4.162,14.551,14.551,0,0,1-1.187,5.006c-.388.887-.882,1.936-1.28,2.832-.449,1.006.64,1.448,1.084.433.949-2.133,2.716-5.268,3.087-8.224C236.631,163.206,236.218,160.856,234.206,159.275Z" transform="translate(-219.519 -151.991)" fill="#e59776"/>
        </g>
        <g id="Group_1249" data-name="Group 1249">
          <path id="Path_3186" data-name="Path 3186" d="M185.578,156.134A8.946,8.946,0,0,1,195.5,164l1.477,12.871a8.954,8.954,0,0,1-17.789,2.057l-1.477-12.885A8.938,8.938,0,0,1,185.578,156.134Z" transform="translate(-176.804 -155.225)" fill="#d27f5c"/>
          <path id="Path_3187" data-name="Path 3187" d="M185.976,155.784a9.726,9.726,0,0,1,5.7,1.077l.245,2.171a8.082,8.082,0,0,0-12.883,7.41l1.477,12.871a8.116,8.116,0,0,0,14.914,3.417.838.838,0,0,1,1.165-.266.85.85,0,0,1,.262,1.17,9.8,9.8,0,0,1-18.02-4.129l-1.477-12.871A9.8,9.8,0,0,1,185.976,155.784Z" transform="translate(-177.295 -155.717)" fill="#e59776"/>
          <path id="Path_3188" data-name="Path 3188" d="M180.909,159.275a6.258,6.258,0,0,1,2.87-.847c4.338-.293,7.829,6.982,3.5,8.281-1.634,1.729.057,3.734.057,3.734,1.491,1.76,3.5,4.3,3.039,6.787-.271,1.477-1.774,2.269-3.137,2.635-1.092.288-1.3-.637-.433-1.084a4.875,4.875,0,0,0,1.643-1.47c.04-.088.088-.169.131-.252a.8.8,0,0,0,.1-.188,1.74,1.74,0,0,0,.05-1.082c-.973.761-2.609.932-3.365-.045-.818-1.075-.2-2.759-.478-3.981a9.756,9.756,0,0,0-1-2.45c-1.993-3.612,1.591-4.221,1.591-4.221a11.6,11.6,0,0,1,1.315.109c1.817-1.035-.209-3.991-1.315-4.459a3.251,3.251,0,0,0-3.784.7,6.229,6.229,0,0,0-1.2,4.162,14.815,14.815,0,0,0,1.177,5.006c.4.887.889,1.936,1.291,2.832.452,1.006-.63,1.448-1.084.433-.949-2.133-2.716-5.268-3.087-8.224C178.483,163.206,178.887,160.856,180.909,159.275Z" transform="translate(-175.358 -151.991)" fill="#e59776"/>
        </g>
      </g>
      <path id="Path_3190" data-name="Path 3190" d="M235.134,119.218v-.007c-.238,0-.476,0-.711,0s-.476,0-.716,0v.007c-35.954.319-56.389,7.311-50.872,72.851l2.709,59.414s.226,9.032,7.981,12.878l26.809,12.861s9.277,4.124,14.088,3.712c4.809.411,14.088-3.712,14.088-3.712l23.244-10.514c10.447-5.7,11.541-15.225,11.541-15.225l3.432-56.815C292.247,129.126,271.09,119.537,235.134,119.218Z" transform="translate(24.359 10.983)" fill="#d27f5c"/>
      <g id="Group_1257" data-name="Group 1257" transform="translate(221.117 185.676)">
        <path id="Path_3193" data-name="Path 3193" d="M199.421,165.044s1.337.174,3.344.43c.476.059.992.121,1.536.188.528.088,1.106.081,1.674.171,1.153.081,2.357.2,3.553.188a31.094,31.094,0,0,0,3.517-.1c1.13-.081,2.217-.2,3.156-.359.956-.126,1.769-.283,2.362-.39s.968-.126.968-.126-.207.283-.623.744a8.61,8.61,0,0,1-1.945,1.674,6.9,6.9,0,0,1-1.5.854,9.943,9.943,0,0,1-1.812.709,13.327,13.327,0,0,1-4.183.561,14.273,14.273,0,0,1-7.415-2.2A9.211,9.211,0,0,1,199.421,165.044Z" transform="translate(-172.669 -111.526)" fill="#fcb590"/>
        <g id="Group_1253" data-name="Group 1253" transform="translate(21.544 70.707)">
          <g id="Group_1251" data-name="Group 1251">
            <path id="Path_3194" data-name="Path 3194" d="M198.113,175.589c8.224,4.528,20.79,3.943,29.109,0,2.076-.985.264-4.06-1.8-3.08-7.111,3.37-18.49,3.862-25.506,0-2.014-1.111-3.817,1.972-1.8,3.08Z" transform="translate(-197.231 -172.272)" fill="#fcb590"/>
          </g>
          <g id="Group_1252" data-name="Group 1252" transform="translate(10.799 8.649)">
            <path id="Path_3195" data-name="Path 3195" d="M203.556,179.486a16.226,16.226,0,0,0,6.171-.062c2.231-.564,1.282-4-.947-3.441a13.944,13.944,0,0,1-5.225-.064,1.786,1.786,0,0,0-1.784,1.784,1.824,1.824,0,0,0,1.784,1.784Z" transform="translate(-201.772 -175.909)" fill="#fcb590"/>
          </g>
        </g>
        <g id="Group_1256" data-name="Group 1256">
          <g id="Group_1254" data-name="Group 1254" transform="translate(47.265)">
            <path id="Path_3196" data-name="Path 3196" d="M211.967,157.587c0,4.29,2.323,7.767,5.18,7.767s5.18-3.477,5.18-7.767-2.316-7.767-5.18-7.767S211.967,153.3,211.967,157.587Z" transform="translate(-202.644 -132.508)" fill="#1b0d05"/>
            <path id="Path_3197" data-name="Path 3197" d="M215.073,153.334a2.467,2.467,0,1,0,2.471-2.469A2.466,2.466,0,0,0,215.073,153.334Z" transform="translate(-198.363 -131.068)" fill="#fff"/>
            <path id="Path_3198" data-name="Path 3198" d="M232.752,151.027a1.673,1.673,0,0,1-2.233.825,22.525,22.525,0,0,0-18.6,0,1.678,1.678,0,0,1-2.238-.825q-.753-1.7-1.508-3.4a2.036,2.036,0,0,1,1.239-2.54,28.584,28.584,0,0,1,23.606,0,2.038,2.038,0,0,1,1.239,2.54Q233.509,149.329,232.752,151.027Z" transform="translate(-208.047 -142.541)" fill="#3e211d"/>
          </g>
          <g id="Group_1255" data-name="Group 1255">
            <path id="Path_3199" data-name="Path 3199" d="M201.333,157.587c0,4.29-2.321,7.767-5.184,7.767s-5.175-3.477-5.175-7.767,2.319-7.767,5.175-7.767S201.333,153.3,201.333,157.587Z" transform="translate(-184.311 -132.508)" fill="#1b0d05"/>
            <path id="Path_3200" data-name="Path 3200" d="M195.088,153.334a2.47,2.47,0,1,1-2.473-2.469A2.468,2.468,0,0,1,195.088,153.334Z" transform="translate(-185.449 -131.068)" fill="#fff"/>
            <path id="Path_3201" data-name="Path 3201" d="M189.815,151.027a1.671,1.671,0,0,0,2.231.825,22.531,22.531,0,0,1,18.6,0,1.672,1.672,0,0,0,2.233-.825q.756-1.7,1.51-3.4a2.036,2.036,0,0,0-1.239-2.54,28.584,28.584,0,0,0-23.606,0,2.04,2.04,0,0,0-1.239,2.54Q189.055,149.329,189.815,151.027Z" transform="translate(-188.172 -142.541)" fill="#3e211d"/>
          </g>
        </g>
      </g>
      <path id="Path_3202" data-name="Path 3202" d="M183.614,217.4l3.551.243s1.793-.725,2.823,4.683h4.45V183.642s1.736-21.114,25.727-22.507c0,0,51.6,16.479,71.8-2.571,0,0,13.225-11.939,4.121-33.868,0,0-7.394,16.714-22.574,4.528,0,0-26.629-37.247-77.175-4.528,0,0-13,10.1-11.173,27.509,0,0-7.708,2.78-7.708,14.619Z" transform="translate(18.17)" fill="#3e211d"/>
      <path id="Path_3203" data-name="Path 3203" d="M219.192,142.46c7.976,4,8.35,18.393,8.35,18.393v38.681H232c1.025-5.408,2.823-4.683,2.823-4.683l3.551-.243,6.157-50.575c0-11.839-7.705-14.619-7.705-14.619S219.668,120.961,219.192,142.46Z" transform="translate(75.696 22.789)" fill="#3e211d"/>
    </g>
  </g>
</svg>
