<svg xmlns="http://www.w3.org/2000/svg" xmlns:xlink="http://www.w3.org/1999/xlink" viewBox="0 0 356.87 187.26"><defs><style>.cls-1{fill:#2b3033;}.cls-2,.cls-39,.cls-54{fill:none;}.cls-3{isolation:isolate;}.cls-4{clip-path:url(#clip-path);}.cls-5{opacity:0.27;}.cls-18,.cls-20,.cls-22,.cls-26,.cls-35,.cls-41,.cls-5{mix-blend-mode:multiply;}.cls-6{fill:#fff;}.cls-7{fill:#b32007;}.cls-8{fill:#f02402;}.cls-9{fill:#f7c200;}.cls-10{fill:#575756;}.cls-11{fill:#488391;}.cls-12{fill:#5296a6;}.cls-13{fill:#75d6ed;}.cls-14{fill:#de9f00;}.cls-15{fill:#ff664d;}.cls-16{fill:#fee57c;}.cls-17{fill:#ff8975;}.cls-19{fill:#ff9180;}.cls-20,.cls-41{opacity:0.55;}.cls-21,.cls-22,.cls-41{fill:#938763;}.cls-22,.cls-26{opacity:0.41;}.cls-23{fill:#ffca00;}.cls-24{fill:#fff7ab;}.cls-25{fill:#404141;}.cls-26{fill:#a06245;}.cls-27{fill:#f3931a;}.cls-28{fill:#fff37f;}.cls-29{fill:#fffbdc;}.cls-30{fill:#eb5d7e;}.cls-31{fill:#b33a5b;}.cls-32{fill:#878787;}.cls-33{fill:#676868;}.cls-34{fill:#f19ac1;}.cls-35{opacity:0.24;}.cls-36{fill:#e4cb90;}.cls-37{fill:#fffce1;}.cls-38{fill:#ecd4ad;opacity:0.17;}.cls-39{stroke:#ffe1a8;stroke-width:0.72px;}.cls-39,.cls-54{stroke-linecap:round;stroke-miterlimit:10;}.cls-40{fill:#454444;}.cls-42{fill:#fff271;}.cls-43{fill:#c56816;}.cls-44{clip-path:url(#clip-path-2);}.cls-45{fill:#bc1016;}.cls-46{fill:#ac1013;}.cls-47{fill:#e3051d;}.cls-48{fill:#006a5f;}.cls-49{fill:#004941;}.cls-50{fill:#00987e;}.cls-51{fill:#c8c8c8;}.cls-52{fill:#999a9a;}.cls-53{fill:#f4e9e7;}.cls-54{stroke:#504f4e;stroke-width:0.28px;}</style><clipPath id="clip-path"><rect class="cls-1" x="63.87" y="42.51" width="293" height="123" rx="11.19"/></clipPath><clipPath id="clip-path-2"><path class="cls-2" d="M88.37,89.77c.58.67,5.51,2,12.28,1.92a32.72,32.72,0,0,0,12.24-2.16l4.31-15.68-4-8.31-6.79-2.78L96.84,63l-12,7.44-1.31,8.92Z"/></clipPath></defs><title>Asset 16</title><g class="cls-3"><g id="Layer_2" data-name="Layer 2"><g id="Layer_1-2" data-name="Layer 1"><rect class="cls-1" x="63.87" y="42.51" width="293" height="123" rx="11.19"/><g class="cls-4"><rect class="cls-1" x="63.87" y="42.51" width="293" height="123" rx="11.19"/><g class="cls-5"><path class="cls-1" d="M68.53,2.8C50.1,7,28.18,20.26,17.1,35.57,7.37,49,1.13,63.44.28,80c-1.37,26.56,1.82,55.58,20.06,74.93a103.78,103.78,0,0,0,47.45,28.36c13.12,3.44,53.24,6.87,72.13,0,14.06-5.11,27.76-11.67,38.06-22.52,6.06-6.38,11.74-13.23,15.92-21C201,126.53,203.45,111,202,96S197.42,65.29,190.26,52a93.43,93.43,0,0,0-28-32.14C149.26,10.51,110.93-6.77,68.53,2.8Z"/></g></g><path class="cls-6" d="M238.61,131.55h3.68v12.24h-2.38v-8.28c0-.23,0-.57,0-1s0-.76,0-1l-2.32,10.27h-2.49l-2.3-10.27c0,.23,0,.56,0,1s0,.77,0,1v8.28h-2.39V131.55h3.73l2.22,9.62Z"/><path class="cls-6" d="M247.93,138.28a3.77,3.77,0,0,0,.95-.2.72.72,0,0,0,.51-.67.78.78,0,0,0-.4-.77,2.46,2.46,0,0,0-1.14-.21,1.51,1.51,0,0,0-1.21.41,1.75,1.75,0,0,0-.33.83H244a3.5,3.5,0,0,1,.67-1.95,3.89,3.89,0,0,1,3.24-1.19,5.83,5.83,0,0,1,2.65.58,2.28,2.28,0,0,1,1.16,2.23v4.15c0,.29,0,.64,0,1a1.47,1.47,0,0,0,.14.64.89.89,0,0,0,.35.27v.35h-2.57a3,3,0,0,1-.15-.52c0-.16-.05-.34-.07-.54a5,5,0,0,1-1.13.9,3.46,3.46,0,0,1-1.74.44,3,3,0,0,1-2-.7,2.49,2.49,0,0,1-.81-2A2.57,2.57,0,0,1,245,139a5.84,5.84,0,0,1,2.09-.59Zm1.45,1.11a3.29,3.29,0,0,1-.46.23,3.94,3.94,0,0,1-.64.16l-.53.1a3.79,3.79,0,0,0-1.09.32,1.07,1.07,0,0,0-.56,1,1,1,0,0,0,.34.87,1.31,1.31,0,0,0,.83.27,2.47,2.47,0,0,0,1.43-.45,1.9,1.9,0,0,0,.68-1.63Z"/><path class="cls-6" d="M252.75,136.51v-1.69H254V132.3h2.34v2.52h1.47v1.69h-1.47v4.78c0,.37,0,.6.14.69a1.54,1.54,0,0,0,.86.14h.23l.24,0v1.77l-1.13,0a3,3,0,0,1-2.29-.58,1.75,1.75,0,0,1-.39-1.25v-5.57Z"/><path class="cls-6" d="M265.73,134.79a2.71,2.71,0,0,1,1.12.89,2.31,2.31,0,0,1,.45,1,11.89,11.89,0,0,1,.09,1.75v5.32H265v-5.51a2.38,2.38,0,0,0-.25-1.18,1.24,1.24,0,0,0-1.22-.63,1.66,1.66,0,0,0-1.41.63,2.87,2.87,0,0,0-.48,1.79v4.9h-2.37V131.6h2.37v4.31a2.92,2.92,0,0,1,1.18-1.1,3.34,3.34,0,0,1,1.42-.31A3.92,3.92,0,0,1,265.73,134.79Z"/><path class="cls-6" d="M275.39,134.92a3.72,3.72,0,0,1,1.56,1.34,4.46,4.46,0,0,1,.72,1.87,11.05,11.05,0,0,1,.08,1.8h-6.59a2.17,2.17,0,0,0,.95,1.91,2.35,2.35,0,0,0,1.3.34,2,2,0,0,0,1.31-.42,1.85,1.85,0,0,0,.49-.62h2.42a3,3,0,0,1-.88,1.64,4.41,4.41,0,0,1-3.41,1.32,4.88,4.88,0,0,1-3.18-1.12,4.38,4.38,0,0,1-1.38-3.62,4.91,4.91,0,0,1,1.24-3.61,4.39,4.39,0,0,1,3.24-1.25A5.19,5.19,0,0,1,275.39,134.92ZM271.85,137a2.37,2.37,0,0,0-.63,1.4h4.07a1.94,1.94,0,0,0-.63-1.43,2,2,0,0,0-1.4-.49A1.84,1.84,0,0,0,271.85,137Z"/><path class="cls-6" d="M290.11,134.77a2.7,2.7,0,0,1,1.06.82,2.51,2.51,0,0,1,.51,1.16,7.41,7.41,0,0,1,.09,1.34l0,5.7h-2.42V138a1.92,1.92,0,0,0-.17-.85,1.18,1.18,0,0,0-1.16-.63,1.35,1.35,0,0,0-1.35.81,2.54,2.54,0,0,0-.2,1v5.39h-2.38V138.4a3,3,0,0,0-.16-1.17,1.15,1.15,0,0,0-1.17-.65,1.41,1.41,0,0,0-1.37.65,2.64,2.64,0,0,0-.19,1.11v5.45h-2.4v-9h2.3v1.32a4,4,0,0,1,.83-1,2.88,2.88,0,0,1,1.79-.53,2.81,2.81,0,0,1,1.68.46,2.66,2.66,0,0,1,.78,1.09,2.88,2.88,0,0,1,1.15-1.17,3.53,3.53,0,0,1,1.63-.38A3.21,3.21,0,0,1,290.11,134.77Z"/><path class="cls-6" d="M297.41,138.28a3.67,3.67,0,0,0,.94-.2.72.72,0,0,0,.51-.67.79.79,0,0,0-.39-.77,2.48,2.48,0,0,0-1.15-.21,1.49,1.49,0,0,0-1.2.41,1.75,1.75,0,0,0-.34.83H293.5a3.43,3.43,0,0,1,.67-1.95,3.85,3.85,0,0,1,3.23-1.19,5.77,5.77,0,0,1,2.65.58,2.28,2.28,0,0,1,1.16,2.23v4.15c0,.29,0,.64,0,1a1.23,1.23,0,0,0,.14.64.82.82,0,0,0,.35.27v.35h-2.58a3,3,0,0,1-.15-.52q0-.24-.06-.54a5,5,0,0,1-1.14.9,3.45,3.45,0,0,1-1.73.44,3,3,0,0,1-2.05-.7,2.52,2.52,0,0,1-.8-2A2.56,2.56,0,0,1,294.5,139a6,6,0,0,1,2.1-.59Zm1.44,1.11a2.82,2.82,0,0,1-.46.23,3.54,3.54,0,0,1-.63.16l-.54.1a3.9,3.9,0,0,0-1.09.32,1.09,1.09,0,0,0-.56,1,1,1,0,0,0,.35.87,1.27,1.27,0,0,0,.83.27,2.44,2.44,0,0,0,1.42-.45,1.85,1.85,0,0,0,.68-1.63Z"/><path class="cls-6" d="M302.23,136.51v-1.69h1.26V132.3h2.34v2.52h1.47v1.69h-1.47v4.78a1.09,1.09,0,0,0,.14.69,1.58,1.58,0,0,0,.87.14h.22l.24,0v1.77l-1.12,0a3,3,0,0,1-2.29-.58,1.71,1.71,0,0,1-.4-1.25v-5.57Z"/><path class="cls-6" d="M311.13,133.66h-2.4v-2.18h2.4Zm-2.4,1.08h2.4v9h-2.4Z"/><path class="cls-6" d="M318.72,138a2.22,2.22,0,0,0-.34-.92,1.45,1.45,0,0,0-1.24-.54,1.62,1.62,0,0,0-1.64,1.18,4.83,4.83,0,0,0-.24,1.68,4.36,4.36,0,0,0,.24,1.59,1.57,1.57,0,0,0,1.59,1.13,1.43,1.43,0,0,0,1.19-.45,2.23,2.23,0,0,0,.42-1.16h2.42a4,4,0,0,1-.79,2A3.78,3.78,0,0,1,317,144.1a3.88,3.88,0,0,1-3.22-1.3,5.2,5.2,0,0,1-1-3.36,5.29,5.29,0,0,1,1.14-3.62,4,4,0,0,1,3.14-1.29,4.76,4.76,0,0,1,2.79.76,3.55,3.55,0,0,1,1.28,2.7Z"/><path class="cls-6" d="M324.48,140.9a1.58,1.58,0,0,0,.32.9,2.25,2.25,0,0,0,1.64.47,2.5,2.5,0,0,0,1.11-.21.67.67,0,0,0,.41-.62.68.68,0,0,0-.33-.61,14.81,14.81,0,0,0-2.48-.71,5.27,5.27,0,0,1-2.17-1,2.08,2.08,0,0,1-.63-1.63,2.83,2.83,0,0,1,1-2.16,4,4,0,0,1,2.77-.9,5.14,5.14,0,0,1,2.77.68,2.88,2.88,0,0,1,1.22,2.34h-2.36a1.39,1.39,0,0,0-.26-.72,1.6,1.6,0,0,0-1.33-.49,1.94,1.94,0,0,0-1.11.24.68.68,0,0,0-.32.57.61.61,0,0,0,.35.59,14.83,14.83,0,0,0,2.47.65,4.66,4.66,0,0,1,2.12,1,2.28,2.28,0,0,1,.69,1.7,2.71,2.71,0,0,1-1,2.19,4.7,4.7,0,0,1-3.1.86,4.65,4.65,0,0,1-3.15-.9,3,3,0,0,1-1-2.3Z"/><path class="cls-7" d="M134.39,86a.49.49,0,0,0-.41-.55L111.65,82.1a.48.48,0,0,0-.55.4L107.69,105a1.48,1.48,0,0,0,1.26,1.65l20.33,3.07a1.46,1.46,0,0,0,1.69-1.2Z"/><path class="cls-8" d="M131.08,107.83l3.49-23-23.29-3.53-3.48,23a1.46,1.46,0,0,0,1.26,1.64L129.39,109A1.47,1.47,0,0,0,131.08,107.83Z"/><path class="cls-9" d="M113.68,72.18,135,75.42a1,1,0,0,1,.83,1.16l-1.36,9L111.17,82l1.37-9A1,1,0,0,1,113.68,72.18Z"/><path class="cls-9" d="M113.72,72.19,135,75.42a1,1,0,0,1,.84,1.17l-1.36,9L111.21,82l1.36-9A1,1,0,0,1,113.72,72.19Z"/><path class="cls-10" d="M113.27,80.41l19.52,3a.47.47,0,0,0,.54-.39L134,78.3a.48.48,0,0,0-.4-.55l-19.52-3a.48.48,0,0,0-.55.4l-.7,4.69A.46.46,0,0,0,113.27,80.41Z"/><path class="cls-11" d="M113.79,80.05l18.6,2.83a.47.47,0,0,0,.54-.41l.59-3.82a.48.48,0,0,0-.4-.54l-18.61-2.82a.47.47,0,0,0-.54.4l-.59,3.82A.48.48,0,0,0,113.79,80.05Z"/><polygon class="cls-12" points="115.23 75.92 115.91 76.03 116.23 76.34 115.83 76.54 115.15 76.44 114.84 76.13 115.23 75.92"/><polygon class="cls-12" points="114.74 79.15 115.42 79.24 115.74 79.56 115.34 79.77 114.67 79.67 114.35 79.35 114.74 79.15"/><polygon class="cls-13" points="114.99 77.53 115.67 77.63 115.99 77.95 115.59 78.15 114.91 78.05 114.6 77.73 114.99 77.53"/><polygon class="cls-13" points="114.33 77.27 114.44 76.56 114.74 76.23 114.94 76.63 114.83 77.34 114.52 77.67 114.33 77.27"/><polygon class="cls-13" points="115.92 77.5 116.03 76.8 116.33 76.47 116.52 76.87 116.42 77.58 116.11 77.91 115.92 77.5"/><polygon class="cls-13" points="114.09 78.84 114.21 78.12 114.51 77.79 114.7 78.2 114.59 78.91 114.29 79.24 114.09 78.84"/><polygon class="cls-12" points="115.68 79.08 115.78 78.37 116.09 78.04 116.29 78.44 116.18 79.14 115.87 79.48 115.68 79.08"/><polygon class="cls-13" points="117.91 76.34 118.59 76.43 118.91 76.74 118.51 76.94 117.84 76.85 117.52 76.54 117.91 76.34"/><polygon class="cls-13" points="117.43 79.55 118.1 79.66 118.42 79.97 118.02 80.17 117.34 80.07 117.03 79.76 117.43 79.55"/><polygon class="cls-13" points="117.67 77.94 118.35 78.04 118.66 78.36 118.27 78.56 117.59 78.46 117.27 78.15 117.67 77.94"/><polygon class="cls-13" points="117.01 77.67 117.11 76.97 117.42 76.64 117.61 77.04 117.51 77.75 117.21 78.08 117.01 77.67"/><polygon class="cls-12" points="118.6 77.91 118.7 77.2 119 76.87 119.2 77.28 119.09 77.98 118.78 78.32 118.6 77.91"/><polygon class="cls-13" points="116.77 79.24 116.88 78.53 117.18 78.2 117.38 78.61 117.27 79.31 116.97 79.65 116.77 79.24"/><polygon class="cls-12" points="118.36 79.47 118.46 78.77 118.77 78.44 118.97 78.84 118.86 79.55 118.55 79.88 118.36 79.47"/><polygon class="cls-13" points="120.59 76.74 121.26 76.84 121.58 77.16 121.19 77.36 120.51 77.25 120.19 76.94 120.59 76.74"/><polygon class="cls-13" points="120.1 79.96 120.77 80.06 121.09 80.37 120.7 80.58 120.02 80.48 119.7 80.17 120.1 79.96"/><polygon class="cls-13" points="120.35 78.34 121.02 78.44 121.34 78.76 120.94 78.97 120.27 78.86 119.95 78.55 120.35 78.34"/><polygon class="cls-13" points="119.69 78.08 119.8 77.37 120.1 77.04 120.3 77.45 120.19 78.16 119.87 78.48 119.69 78.08"/><polygon class="cls-12" points="121.27 78.32 121.38 77.61 121.69 77.28 121.88 77.69 121.77 78.4 121.46 78.72 121.27 78.32"/><polygon class="cls-12" points="119.45 79.64 119.56 78.94 119.86 78.61 120.06 79.01 119.95 79.72 119.64 80.05 119.45 79.64"/><polygon class="cls-13" points="121.03 79.88 121.14 79.17 121.45 78.85 121.64 79.26 121.54 79.96 121.23 80.28 121.03 79.88"/><polygon class="cls-12" points="123.26 77.14 123.94 77.25 124.25 77.56 123.86 77.77 123.19 77.67 122.87 77.34 123.26 77.14"/><polygon class="cls-12" points="122.77 80.36 123.45 80.47 123.77 80.78 123.37 80.99 122.7 80.88 122.38 80.57 122.77 80.36"/><polygon class="cls-12" points="123.02 78.75 123.7 78.85 124.01 79.17 123.62 79.37 122.94 79.26 122.63 78.95 123.02 78.75"/><polygon class="cls-13" points="122.36 78.48 122.47 77.77 122.77 77.44 122.97 77.85 122.86 78.56 122.55 78.89 122.36 78.48"/><polygon class="cls-12" points="123.95 78.72 124.05 78.02 124.36 77.69 124.55 78.09 124.45 78.8 124.14 79.13 123.95 78.72"/><polygon class="cls-13" points="122.13 80.05 122.23 79.34 122.53 79.01 122.73 79.42 122.62 80.13 122.32 80.45 122.13 80.05"/><polygon class="cls-12" points="123.71 80.29 123.81 79.58 124.12 79.25 124.31 79.66 124.21 80.37 123.91 80.7 123.71 80.29"/><polygon class="cls-12" points="125.94 77.55 126.62 77.65 126.93 77.96 126.54 78.17 125.86 78.07 125.55 77.75 125.94 77.55"/><polygon class="cls-12" points="125.45 80.77 126.13 80.87 126.44 81.19 126.05 81.39 125.37 81.29 125.06 80.97 125.45 80.77"/><polygon class="cls-12" points="125.7 79.16 126.37 79.26 126.69 79.57 126.3 79.78 125.62 79.68 125.3 79.36 125.7 79.16"/><polygon class="cls-12" points="125.04 78.89 125.14 78.18 125.45 77.85 125.65 78.26 125.54 78.96 125.23 79.29 125.04 78.89"/><polygon class="cls-12" points="126.62 79.13 126.73 78.43 127.03 78.09 127.22 78.5 127.12 79.2 126.81 79.54 126.62 79.13"/><polygon class="cls-12" points="124.8 80.45 124.91 79.75 125.21 79.42 125.41 79.82 125.3 80.53 124.99 80.86 124.8 80.45"/><polygon class="cls-12" points="126.38 80.69 126.49 79.99 126.8 79.65 126.99 80.06 126.88 80.77 126.57 81.1 126.38 80.69"/><polygon class="cls-12" points="128.62 77.95 129.29 78.06 129.61 78.37 129.22 78.57 128.53 78.47 128.22 78.16 128.62 77.95"/><polygon class="cls-12" points="128.13 81.17 128.8 81.28 129.12 81.59 128.73 81.8 128.05 81.69 127.73 81.38 128.13 81.17"/><polygon class="cls-12" points="128.37 79.56 129.05 79.66 129.36 79.97 128.97 80.18 128.29 80.08 127.97 79.76 128.37 79.56"/><polygon class="cls-12" points="127.71 79.3 127.82 78.59 128.13 78.25 128.31 78.67 128.21 79.37 127.91 79.7 127.71 79.3"/><polygon class="cls-12" points="129.3 79.53 129.4 78.83 129.71 78.5 129.9 78.9 129.79 79.61 129.49 79.94 129.3 79.53"/><polygon class="cls-12" points="127.47 80.86 127.58 80.16 127.89 79.83 128.08 80.23 127.97 80.93 127.67 81.26 127.47 80.86"/><polygon class="cls-12" points="129.06 81.1 129.16 80.4 129.47 80.06 129.67 80.47 129.56 81.17 129.25 81.51 129.06 81.1"/><polygon class="cls-12" points="131.29 78.36 131.97 78.46 132.28 78.77 131.89 78.98 131.21 78.88 130.9 78.56 131.29 78.36"/><polygon class="cls-12" points="130.8 81.58 131.48 81.68 131.79 82 131.4 82.2 130.72 82.1 130.41 81.78 130.8 81.58"/><polygon class="cls-12" points="131.05 79.96 131.72 80.07 132.04 80.39 131.65 80.58 130.97 80.48 130.65 80.17 131.05 79.96"/><polygon class="cls-12" points="130.39 79.7 130.49 78.99 130.8 78.66 131 79.07 130.88 79.77 130.58 80.11 130.39 79.7"/><polygon class="cls-12" points="131.97 79.94 132.08 79.23 132.39 78.9 132.58 79.31 132.47 80.02 132.17 80.35 131.97 79.94"/><polygon class="cls-12" points="130.15 81.26 130.26 80.56 130.56 80.23 130.76 80.64 130.65 81.34 130.34 81.67 130.15 81.26"/><polygon class="cls-12" points="131.73 81.51 131.84 80.8 132.15 80.47 132.34 80.87 132.24 81.58 131.93 81.91 131.73 81.51"/><path class="cls-14" d="M111.68,78.9c0,.35-.37,2.18.6,2.94.53.42,19.88,3.38,21.44,2.93.45-.13.9-1,1.14-1.59l-.36,2.38L111.21,82Z"/><path class="cls-15" d="M111.38,82.47a.18.18,0,0,0,.14.19l22.37,3.39a.16.16,0,0,0,.18-.14h0a.17.17,0,0,0-.13-.18l-22.37-3.39a.18.18,0,0,0-.19.13Z"/><path class="cls-16" d="M129.05,74.93c.54,0,5.9.79,6.19,1.11a3,3,0,0,1-.22,2.5c-.39.34-.14-1.74-.48-2a9.31,9.31,0,0,0-3.06-.94c-.55-.11-1.38-.21-1.93-.32C129.29,75.26,128.55,75,129.05,74.93Z"/><path class="cls-17" d="M112.77,106.47l6.71,1,6.7,1,3,.5-3-.44-6.71-1-6.7-1-3-.49Z"/><path class="cls-7" d="M128.37,90.17l2.36.36a.48.48,0,0,0,.55-.4l.35-2.26a.49.49,0,0,0-.41-.55L128.85,87a.49.49,0,0,0-.55.4L128,89.63A.47.47,0,0,0,128.37,90.17Z"/><path class="cls-7" d="M123.36,89.42l2.36.35a.48.48,0,0,0,.55-.4l.35-2.27a.48.48,0,0,0-.41-.54l-2.37-.36a.47.47,0,0,0-.54.4L123,88.87A.48.48,0,0,0,123.36,89.42Z"/><path class="cls-7" d="M118.34,88.66l2.37.35a.48.48,0,0,0,.55-.4l.35-2.27a.49.49,0,0,0-.41-.54l-2.37-.36a.48.48,0,0,0-.55.4l-.34,2.26A.49.49,0,0,0,118.34,88.66Z"/><path class="cls-7" d="M113.33,87.89l2.37.36a.48.48,0,0,0,.55-.4l.34-2.26a.48.48,0,0,0-.4-.55l-2.37-.36a.48.48,0,0,0-.55.4l-.34,2.27A.47.47,0,0,0,113.33,87.89Z"/><path class="cls-7" d="M127.73,94.37l2.37.36a.48.48,0,0,0,.54-.4l.35-2.27a.47.47,0,0,0-.4-.54l-2.38-.37a.47.47,0,0,0-.53.4l-.36,2.27A.5.5,0,0,0,127.73,94.37Z"/><path class="cls-7" d="M122.72,93.61l2.37.36a.48.48,0,0,0,.54-.4L126,91.3a.48.48,0,0,0-.41-.54l-2.37-.36a.47.47,0,0,0-.54.4l-.34,2.26A.47.47,0,0,0,122.72,93.61Z"/><path class="cls-7" d="M117.71,92.84l2.37.37a.49.49,0,0,0,.55-.41l.33-2.26a.47.47,0,0,0-.4-.54l-2.37-.36a.47.47,0,0,0-.54.4l-.35,2.26A.49.49,0,0,0,117.71,92.84Z"/><path class="cls-7" d="M112.69,92.08l2.37.37a.48.48,0,0,0,.55-.41l.34-2.26a.48.48,0,0,0-.4-.55l-2.37-.36a.49.49,0,0,0-.54.4l-.35,2.28A.46.46,0,0,0,112.69,92.08Z"/><path class="cls-7" d="M127.09,98.57l2.37.36a.48.48,0,0,0,.54-.41l.36-2.26a.49.49,0,0,0-.41-.55l-2.37-.36a.47.47,0,0,0-.54.41L126.69,98A.49.49,0,0,0,127.09,98.57Z"/><path class="cls-7" d="M122.08,97.81l2.37.36a.48.48,0,0,0,.55-.41l.34-2.26a.49.49,0,0,0-.4-.55l-2.37-.36a.49.49,0,0,0-.55.4l-.34,2.27A.48.48,0,0,0,122.08,97.81Z"/><path class="cls-7" d="M117.07,97l2.38.37A.48.48,0,0,0,120,97l.34-2.26a.47.47,0,0,0-.4-.55l-2.37-.36a.49.49,0,0,0-.55.4l-.34,2.27A.47.47,0,0,0,117.07,97Z"/><path class="cls-7" d="M112.06,96.29l2.37.36a.48.48,0,0,0,.54-.41l.35-2.26a.48.48,0,0,0-.41-.55l-2.37-.36a.47.47,0,0,0-.54.4l-.34,2.27A.48.48,0,0,0,112.06,96.29Z"/><path class="cls-7" d="M126.73,99.65H129a.48.48,0,0,1,.48.48v2.4a.47.47,0,0,1-.47.47h-2.3a.47.47,0,0,1-.47-.47v-2.41a.47.47,0,0,1,.47-.47Z" transform="translate(8.55 212.6) rotate(-81.39)"/><path class="cls-7" d="M121.44,102l2.38.36a.47.47,0,0,0,.54-.4l.34-2.27a.48.48,0,0,0-.4-.55l-2.37-.36a.48.48,0,0,0-.54.41l-.35,2.26A.48.48,0,0,0,121.44,102Z"/><path class="cls-7" d="M116.71,98.13H119a.48.48,0,0,1,.48.48V101a.47.47,0,0,1-.47.47h-2.3a.48.48,0,0,1-.48-.48v-2.4A.47.47,0,0,1,116.71,98.13Z" transform="translate(1.67 201.55) rotate(-81.46)"/><path class="cls-7" d="M124.14,103.42l4.54.68a.47.47,0,0,1,.4.54l-.35,2.27a.47.47,0,0,1-.53.41l-4.55-.7-2-.29-.9-.13a.48.48,0,0,1-.39-.55l.34-2.27a.48.48,0,0,1,.54-.4l.9.14Z"/><path class="cls-7" d="M115.8,105.43l2.37.36a.47.47,0,0,0,.54-.39l.35-2.28a.46.46,0,0,0-.4-.53l-2.38-.36a.47.47,0,0,0-.54.39l-.35,2.27A.48.48,0,0,0,115.8,105.43Z"/><path class="cls-7" d="M114.68,98.17l-.1.66-.31,2.08-.57,3.73a.48.48,0,0,1-.54.4l-2.38-.37a.45.45,0,0,1-.39-.53l.56-3.73.32-2.08.1-.66a.47.47,0,0,1,.54-.4l2.37.35A.48.48,0,0,1,114.68,98.17Z"/><path class="cls-9" d="M128.41,89.86l2.38.36a.47.47,0,0,0,.54-.4l.34-2.26a.48.48,0,0,0-.4-.55l-2.37-.35a.47.47,0,0,0-.55.39L128,89.32A.47.47,0,0,0,128.41,89.86Z"/><path class="cls-9" d="M123.4,89.1l2.37.37a.49.49,0,0,0,.55-.41l.34-2.26a.49.49,0,0,0-.41-.55l-2.36-.36a.49.49,0,0,0-.55.4L123,88.56A.47.47,0,0,0,123.4,89.1Z"/><path class="cls-9" d="M118.39,88.34l2.37.37a.48.48,0,0,0,.54-.41l.35-2.26a.48.48,0,0,0-.41-.55l-2.37-.36a.48.48,0,0,0-.54.41L118,87.8A.46.46,0,0,0,118.39,88.34Z"/><path class="cls-9" d="M113.38,87.59l2.37.35a.49.49,0,0,0,.55-.39l.34-2.27a.48.48,0,0,0-.4-.55l-2.38-.36a.47.47,0,0,0-.54.4L113,87A.5.5,0,0,0,113.38,87.59Z"/><path class="cls-9" d="M127.77,94.06l2.38.36a.47.47,0,0,0,.54-.41l.35-2.26a.49.49,0,0,0-.4-.54l-2.38-.36a.47.47,0,0,0-.54.4l-.35,2.26A.49.49,0,0,0,127.77,94.06Z"/><path class="cls-9" d="M122.76,93.3l2.37.35a.46.46,0,0,0,.55-.39L126,91a.47.47,0,0,0-.4-.54l-2.37-.36a.46.46,0,0,0-.54.4l-.35,2.26A.48.48,0,0,0,122.76,93.3Z"/><path class="cls-9" d="M117.75,92.54l2.37.36a.49.49,0,0,0,.55-.4l.35-2.26a.49.49,0,0,0-.41-.55l-2.37-.36a.48.48,0,0,0-.55.4L117.36,92A.46.46,0,0,0,117.75,92.54Z"/><path class="cls-9" d="M112.74,91.78l2.37.35a.47.47,0,0,0,.55-.39l.34-2.26a.48.48,0,0,0-.4-.55l-2.38-.36a.48.48,0,0,0-.54.4l-.34,2.26A.48.48,0,0,0,112.74,91.78Z"/><path class="cls-9" d="M127.14,98.26l2.37.35a.47.47,0,0,0,.54-.39L130.4,96a.49.49,0,0,0-.4-.55L127.62,95a.48.48,0,0,0-.54.4l-.34,2.27A.48.48,0,0,0,127.14,98.26Z"/><path class="cls-9" d="M122.13,97.5l2.37.36a.48.48,0,0,0,.54-.41l.35-2.27a.46.46,0,0,0-.4-.53l-2.38-.36a.47.47,0,0,0-.54.39L121.73,97A.47.47,0,0,0,122.13,97.5Z"/><path class="cls-9" d="M117.11,96.73l2.38.37a.47.47,0,0,0,.54-.4l.35-2.27a.48.48,0,0,0-.4-.55l-2.38-.36a.47.47,0,0,0-.54.4l-.34,2.28A.45.45,0,0,0,117.11,96.73Z"/><path class="cls-9" d="M112.1,96l2.37.36a.49.49,0,0,0,.55-.4l.35-2.27a.48.48,0,0,0-.41-.54l-2.37-.37a.47.47,0,0,0-.54.41l-.35,2.27A.49.49,0,0,0,112.1,96Z"/><path class="cls-9" d="M126.5,102.45l2.37.36a.48.48,0,0,0,.55-.41l.34-2.26a.48.48,0,0,0-.4-.54L127,99.24a.48.48,0,0,0-.55.4l-.34,2.27A.48.48,0,0,0,126.5,102.45Z"/><path class="cls-9" d="M121.49,101.69l2.37.36a.48.48,0,0,0,.55-.4l.34-2.27a.47.47,0,0,0-.4-.54L122,98.48a.49.49,0,0,0-.55.4l-.34,2.27A.47.47,0,0,0,121.49,101.69Z"/><path class="cls-9" d="M116.48,100.93l2.37.36a.47.47,0,0,0,.54-.4l.35-2.26a.49.49,0,0,0-.4-.56L117,97.72a.48.48,0,0,0-.55.41l-.34,2.26A.47.47,0,0,0,116.48,100.93Z"/><path class="cls-9" d="M124.18,103.11l4.55.68a.47.47,0,0,1,.39.55l-.34,2.27a.48.48,0,0,1-.54.4l-4.54-.69-2-.3-.89-.13a.48.48,0,0,1-.41-.55l.35-2.26a.45.45,0,0,1,.54-.4l.9.13Z"/><path class="cls-9" d="M115.84,105.13l2.38.35a.46.46,0,0,0,.54-.39l.34-2.27a.48.48,0,0,0-.39-.55l-2.38-.36a.49.49,0,0,0-.54.41l-.34,2.26A.46.46,0,0,0,115.84,105.13Z"/><path class="cls-9" d="M114.73,97.87l-.1.65-.31,2.08-.57,3.73a.49.49,0,0,1-.55.4l-2.38-.36a.47.47,0,0,1-.39-.54l.57-3.73.31-2.08.1-.65A.49.49,0,0,1,112,97l2.38.37A.48.48,0,0,1,114.73,97.87Z"/><g class="cls-18"><path class="cls-19" d="M125.56,87.8a.88.88,0,0,0-.73-1,.91.91,0,0,0-.59.1.15.15,0,0,0,0,.19.14.14,0,0,0,.18.05.55.55,0,0,1,.4-.07.65.65,0,0,1,.4.23.58.58,0,0,1,.11.44.56.56,0,0,1-.23.38.65.65,0,0,1-.45.11.58.58,0,0,1-.37-.19.14.14,0,0,0-.19,0,.13.13,0,0,0,0,.19.91.91,0,0,0,.51.27A.88.88,0,0,0,125.56,87.8Z"/><path class="cls-19" d="M129.12,91.85l-.21,1.39a.12.12,0,0,0,.11.15.11.11,0,0,0,.14-.1l.19-1.16.08.06.06,0a.12.12,0,0,0,.13,0,.12.12,0,0,0,0-.18l-.26-.22h0s0,0,0,0,0,0,0,0h-.09a0,0,0,0,1,0,0h0v0s0,0,0,0,0,0,0,0h0v0h0Z"/><path class="cls-19" d="M123.53,92.49a.12.12,0,0,0,.12.14l.83.14h0a.18.18,0,0,0,.11,0,.13.13,0,0,0,0-.19l-.6-.75a.31.31,0,0,1-.07-.24.33.33,0,0,1,.11-.2.33.33,0,0,1,.25-.06.27.27,0,0,1,.18.11l.07.07a.12.12,0,0,0,.19,0,.13.13,0,0,0,0-.18l-.06-.08a.53.53,0,0,0-.35-.2.56.56,0,0,0-.45.13.5.5,0,0,0-.21.34.62.62,0,0,0,.12.46l.39.48-.51-.09A.14.14,0,0,0,123.53,92.49Z"/><path class="cls-19" d="M118.86,90.89a.59.59,0,0,0-.23.39.6.6,0,0,0,.1.44.63.63,0,0,0,.4.23.57.57,0,0,0,.43-.11.13.13,0,0,0,0-.19.14.14,0,0,0-.19,0,.27.27,0,0,1-.23.06.32.32,0,0,1-.28-.36.3.3,0,0,1,.13-.21.31.31,0,0,1,.24-.07.15.15,0,0,0,.11,0h0a.14.14,0,0,0,0-.19l-.2-.28.38,0a.13.13,0,0,0,.15-.12.12.12,0,0,0-.11-.14l-.69-.11a.13.13,0,0,0-.16.11s0,0,0,.07l0,0,.25.36A.38.38,0,0,0,118.86,90.89Z"/><path class="cls-19" d="M127.91,97.09a.13.13,0,0,0,.11.16h0l0,.18a.14.14,0,0,0,.27,0l0-.19.75.11h0a.1.1,0,0,0,.09,0,.12.12,0,0,0,0-.17L128.47,96h0a0,0,0,0,1,0,0h0s0,0,0,0a0,0,0,0,0,0,0h0s0,0,0,0h0s0,0,0,0h0s0,0,0,0h0v0h0v0h0l-.15,1h0A.12.12,0,0,0,127.91,97.09Zm.52-.64.38.65-.47-.07Z"/><path class="cls-19" d="M123.19,95.84a.58.58,0,0,0-.12.82.6.6,0,0,0,.38.24h0a.56.56,0,0,0,.43-.11.12.12,0,0,0,0-.19.13.13,0,0,0-.19,0,.33.33,0,0,1-.24,0,.3.3,0,0,1-.21-.13.3.3,0,0,1,0-.24.27.27,0,0,1,.12-.21.35.35,0,0,1,.24-.06.36.36,0,0,1,.21.13.14.14,0,0,0,.19,0l0,0h0a0,0,0,0,1,0,0h0a.08.08,0,0,0,0,0l0-.63a.25.25,0,0,0,0-.11h0l-.06,0-.69-.1a.13.13,0,1,0-.05.26l.58.09v.24a.53.53,0,0,0-.16,0A.59.59,0,0,0,123.19,95.84Z"/><path class="cls-19" d="M117.93,95.48a.58.58,0,0,0,1.13.23h0l0-.14a1.68,1.68,0,0,0,0-.5.88.88,0,0,0-.25-.45.6.6,0,0,0-.34-.16.12.12,0,0,0-.15.1.13.13,0,0,0,.1.16.49.49,0,0,1,.22.09.76.76,0,0,1,.12.19.25.25,0,0,1,0,.07.48.48,0,0,0-.22-.07A.57.57,0,0,0,117.93,95.48Zm.27,0a.31.31,0,0,1,.61.1.31.31,0,0,1-.35.27A.32.32,0,0,1,118.2,95.51Z"/><path class="cls-19" d="M127.5,100.3l.38,1.49a.13.13,0,0,0,.11.09h0a.14.14,0,0,0,.1-.16l-.33-1.28.62.08a.13.13,0,0,0,.14-.11.11.11,0,0,0-.11-.15l-.81-.12h-.07s0,0,0,0h0a0,0,0,0,0,0,0h0v0h0s0,0,0,.06Z"/><path class="cls-19" d="M122.32,100.45a.56.56,0,0,0,.48.64.57.57,0,0,0,.65-.48.58.58,0,0,0-.19-.51.35.35,0,0,0,.12-.21.4.4,0,0,0-.34-.45.39.39,0,0,0-.44.33.34.34,0,0,0,0,.24A.55.55,0,0,0,122.32,100.45Zm.25,0a.33.33,0,0,1,.36-.26.31.31,0,0,1,.26.35.31.31,0,0,1-.62-.09Zm.55-.63a.14.14,0,0,1-.15.11.13.13,0,0,1-.11-.16.11.11,0,0,1,.15-.1A.13.13,0,0,1,123.12,99.85Z"/><path class="cls-19" d="M118.52,99.34a.58.58,0,0,0-.48-.66.56.56,0,0,0-.65.43h0a.89.89,0,0,0,0,.14,1.35,1.35,0,0,0,0,.49.79.79,0,0,0,.25.45.5.5,0,0,0,.33.16.13.13,0,0,0,.16-.1.13.13,0,0,0-.11-.15.59.59,0,0,1-.21-.1.64.64,0,0,1-.13-.19.25.25,0,0,0,0-.07.57.57,0,0,0,.23.08A.56.56,0,0,0,118.52,99.34Zm-.26,0a.31.31,0,0,1-.36.27A.31.31,0,1,1,118,99,.3.3,0,0,1,118.26,99.29Z"/><path class="cls-19" d="M125.39,104.94a1.06,1.06,0,0,0-.08-.6.51.51,0,0,0-.4-.32.52.52,0,0,0-.48.2,1,1,0,0,0-.24.53,1,1,0,0,0,.07.59.55.55,0,0,0,.4.33.54.54,0,0,0,.48-.19A1.17,1.17,0,0,0,125.39,104.94Zm-.93-.15a.74.74,0,0,1,.17-.4.29.29,0,0,1,.24-.12.32.32,0,0,1,.21.18.89.89,0,0,1,0,.44.87.87,0,0,1-.18.41.33.33,0,0,1-.25.11.27.27,0,0,1-.19-.18A.7.7,0,0,1,124.46,104.79Z"/><path class="cls-19" d="M114.29,90.5l.33,0a.12.12,0,0,0,.15-.1.13.13,0,0,0-.11-.15l-.34,0,.05-.33a.13.13,0,0,0-.11-.16.13.13,0,0,0-.15.12l-.06.32-.33,0a.13.13,0,0,0-.15.11.12.12,0,0,0,.11.14l.34.06,0,.32a.13.13,0,0,0,.11.16.12.12,0,0,0,.15-.11Z"/><path class="cls-19" d="M113,102.75a.19.19,0,0,0-.16-.21l-1-.14a.17.17,0,0,0-.2.15.17.17,0,0,0,.15.21l1,.15A.19.19,0,0,0,113,102.75Zm-.09.58a.17.17,0,0,0-.16-.21l-1-.15a.21.21,0,0,0-.22.15.2.2,0,0,0,.16.22l1,.14A.18.18,0,0,0,112.88,103.33Z"/><path class="cls-19" d="M114.25,94.66a.18.18,0,0,0-.16-.21l-1-.15a.19.19,0,0,0-.06.37l1,.14A.18.18,0,0,0,114.25,94.66Z"/><path class="cls-19" d="M115.47,86.28a.19.19,0,0,0-.17-.22l-1-.15a.21.21,0,0,0-.21.16.19.19,0,0,0,.15.22l1,.15A.2.2,0,0,0,115.47,86.28Z"/><path class="cls-19" d="M119.34,86.44l.29.45-.41.33a.11.11,0,0,0,0,.18l.08,0a.24.24,0,0,0,.14,0l.34-.29.24.37a.15.15,0,0,0,.11.08h.1c.07,0,.1-.11.05-.17l-.29-.45.41-.33a.11.11,0,0,0,0-.17.17.17,0,0,0-.22,0l-.33.27-.25-.36a.19.19,0,0,0-.21-.06C119.33,86.32,119.3,86.39,119.34,86.44Z"/><path class="cls-19" d="M115.08,85.61a.18.18,0,0,1-.21.15.19.19,0,0,1-.17-.22.2.2,0,0,1,.22-.15A.18.18,0,0,1,115.08,85.61Z"/><path class="cls-19" d="M117.34,104.56a.21.21,0,0,1-.22.16.18.18,0,0,1-.16-.22.19.19,0,0,1,.22-.16A.2.2,0,0,1,117.34,104.56Z"/><path class="cls-19" d="M114.9,86.82a.19.19,0,0,1-.22.16.19.19,0,0,1,.06-.38A.2.2,0,0,1,114.9,86.82Z"/><path class="cls-19" d="M130.19,88.86l.45.07.06.25a.09.09,0,0,0,.08.08h0a.09.09,0,0,0,.07-.12L130.66,88a.13.13,0,0,0-.1-.09.14.14,0,0,0-.1,0l-.57,1a.11.11,0,0,0,0,.14s0,0,0,0a.09.09,0,0,0,.1,0Zm.11-.19.2-.37.1.41Z"/><path class="cls-19" d="M129.84,88.44a.69.69,0,0,0-.58-.77.71.71,0,0,0-.44.08.1.1,0,0,0,0,.15.12.12,0,0,0,.14,0,.47.47,0,0,1,.31-.06.51.51,0,0,1,.32.19.48.48,0,0,1,.08.34.44.44,0,0,1-.18.29.49.49,0,0,1-.36.09.42.42,0,0,1-.28-.14.09.09,0,0,0-.15,0,.11.11,0,0,0,0,.14.65.65,0,0,0,.4.21A.69.69,0,0,0,129.84,88.44Z"/></g><g class="cls-20"><path class="cls-21" d="M126.63,129.65h0l-26.77-7.47-1.76,3.67,24.74,10.57A5.39,5.39,0,0,1,126.63,129.65Z"/><path class="cls-21" d="M130.74,134.69l-4.11-5a5.39,5.39,0,0,0-3.8,6.76l.1,0Z"/><path class="cls-21" d="M129.55,133.24a1.06,1.06,0,0,0-.55,1.84l1.74-.39Z"/><path class="cls-22" d="M122.81,133.53a6.21,6.21,0,0,0,0,2.88l.1,0,7.81-1.76h0Z"/><path class="cls-21" d="M98.09,125.84l24.74,10.57a6.17,6.17,0,0,1,0-2.87l-24.1-9Z"/><path class="cls-21" d="M100.5,122.88l23.93,7.06a3.92,3.92,0,0,0-1.81,2.22c-4.55-1.79-22.48-8.57-22.48-8.57Z"/><path class="cls-21" d="M124.07,131.6a5.4,5.4,0,0,1,2.44-1.75c1.26,1.5,2.6,3.28,2.6,3.28a1.45,1.45,0,0,0-.45.4C128,133.18,124.07,131.6,124.07,131.6Z"/><path class="cls-21" d="M97.4,121l-3.17-1.53s-2.6,1.35-1.76,5.6a19,19,0,0,0,3.61.27Z"/><path class="cls-21" d="M92.47,125.07a19,19,0,0,0,3.61.27L96.5,124l-4.06-1.78A7.08,7.08,0,0,0,92.47,125.07Z"/><path class="cls-21" d="M100,122.21c.35-.48-.47-.88-.74-.37-.13-.68-.84-1-1.18-.41a.55.55,0,0,0-1-.38,9.19,9.19,0,0,0-1.48,4.62c0,.54.58.7.88.19.12.76,1,.36,1,.36.06.9,1.11.67,1.22-.3A8.84,8.84,0,0,1,100,122.21Z"/><path class="cls-21" d="M97.51,124.22c-.33.46-.89.61-1-.31-.29.36-.55.31-.69,0a8.06,8.06,0,0,0-.26,1.76c0,.54.58.7.88.19.12.76,1,.36,1,.36.06.9,1.11.67,1.22-.3a8.18,8.18,0,0,1,.26-1.27C98.36,124.93,97.64,124.85,97.51,124.22Z"/><path class="cls-21" d="M93.23,121a3.33,3.33,0,0,1,1.08-1.25,20.24,20.24,0,0,1,2.29,1.23l-.31.73Z"/></g><path class="cls-23" d="M126.63,127.8h0l-26.77-7.47L98.09,124l24.74,10.57A5.39,5.39,0,0,1,126.63,127.8Z"/><path class="cls-24" d="M130.74,132.84l-4.11-5a5.39,5.39,0,0,0-3.8,6.76l.1.05Z"/><path class="cls-25" d="M129.55,131.39a1.06,1.06,0,0,0-.55,1.84l1.74-.39Z"/><path class="cls-26" d="M122.81,131.68a6.21,6.21,0,0,0,0,2.88l.1.05,7.81-1.77h0Z"/><path class="cls-27" d="M98.09,124l24.74,10.57a6.17,6.17,0,0,1,0-2.87l-24.1-9Z"/><path class="cls-28" d="M100.5,121l23.93,7a4,4,0,0,0-1.81,2.22c-4.55-1.79-22.48-8.57-22.48-8.57Z"/><path class="cls-29" d="M124.07,129.75a5.4,5.4,0,0,1,2.44-1.75c1.26,1.5,2.6,3.28,2.6,3.28a1.45,1.45,0,0,0-.45.4C128,131.34,124.07,129.75,124.07,129.75Z"/><path class="cls-30" d="M97.4,119.15l-3.17-1.53s-2.6,1.35-1.76,5.6a19,19,0,0,0,3.61.27Z"/><path class="cls-31" d="M92.47,123.22a19,19,0,0,0,3.61.27l.42-1.38-4.06-1.79A7.08,7.08,0,0,0,92.47,123.22Z"/><path class="cls-32" d="M100,120.36c.35-.48-.47-.88-.74-.37-.13-.68-.84-.95-1.18-.41a.55.55,0,0,0-1-.37,9.13,9.13,0,0,0-1.48,4.61c0,.54.58.7.88.19.12.76,1,.36,1,.36.06.9,1.11.67,1.22-.3A8.84,8.84,0,0,1,100,120.36Z"/><path class="cls-33" d="M97.51,122.37c-.33.46-.89.61-1-.31-.29.36-.55.31-.69,0a8.06,8.06,0,0,0-.26,1.75c0,.54.58.7.88.19.12.76,1,.36,1,.36.06.9,1.11.67,1.22-.3a7.83,7.83,0,0,1,.26-1.26C98.36,123.08,97.64,123,97.51,122.37Z"/><path class="cls-34" d="M93.23,119.1a3.48,3.48,0,0,1,1.08-1.25,20.24,20.24,0,0,1,2.29,1.23l-.31.73Z"/><g class="cls-35"><path d="M106.79,98.09c3.27,9.42,7.54,30.61,11.53,43.59,9.65-1.51,26.46,1.27,44.28-.82C173,139.65,177.75,138.33,181,135c-12.38-5.72-34.88-37.67-34.88-37.67l-4.3.08s1.51,2.32-1.16,2.61c-1.85.2-3.4-1.09-2.36-2.54-1.88,0-4.66-.08-6.43.13.55.7,1.89,2.94-1.57,3s-2.85-2.53-1.83-2.94c-2.26.09-5.71.11-5.71.11s1.13,3.43-1.71,3.48-3.1-1.88-2.21-3.41c-2.41.14-4.62,0-6.64.13,1.17.92,1.26,3.41-1.06,3.46A1.92,1.92,0,0,1,109.78,98Z"/></g><path class="cls-36" d="M107.59,97.32c3.27,9.42,7.54,30.61,11.53,43.59,9.65-1.51,26.46,1.27,44.28-.82,10.35-1.21,15.15-2.53,18.35-5.87-12.38-5.71-34.89-37.67-34.89-37.67l-4-.22-.28.31s1.51,2.31-1.16,2.6c-1.85.2-3.41-1.09-2.36-2.53-1.76,0-4.38-.36-6.16-.19a1.54,1.54,0,0,0-.28.31c.55.7,1.9,2.94-1.56,3s-2.85-2.53-1.83-2.94c-1.92.08-4.63-.21-5.43-.2-.14,0-.28.31-.28.31s1.12,3.43-1.71,3.48-3.11-1.88-2.21-3.4c-2.25.12-4.45-.31-6.36-.18-.14,0-.15.3-.28.31,1.16.91,1.26,3.41-1.06,3.45a1.92,1.92,0,0,1-1.32-3.41l-2.7-.25Z"/><path class="cls-37" d="M107.87,97c3.27,9.42,7.54,30.61,11.53,43.59,9.65-1.51,26.46,1.27,44.28-.82,10.36-1.21,15.15-2.53,18.35-5.87-12.38-5.72-34.88-37.67-34.88-37.67l-4.3.09s1.51,2.31-1.16,2.6c-1.85.2-3.4-1.09-2.36-2.54-1.88,0-4.66-.08-6.44.13.55.7,1.9,2.94-1.56,3s-2.85-2.53-1.83-2.94c-2.26.09-5.71.11-5.71.11s1.13,3.43-1.71,3.48-3.11-1.88-2.21-3.4c-2.41.13-4.62,0-6.64.13,1.16.91,1.26,3.41-1.06,3.45A1.92,1.92,0,0,1,110.85,97Z"/><path class="cls-38" d="M162.47,138c8.06-.52,12.61-5.79,5.33-8.74-6.38-2.58-15.19-2.44-24.43-.56s-24.68,8.3-3.73,9.95A124.58,124.58,0,0,0,162.47,138Z"/><path class="cls-39" d="M114.52,104.41q16.12-1.55,32.31-2.14"/><path class="cls-39" d="M117.14,111.3q16-2.22,32.11-3.18"/><path class="cls-39" d="M119.24,118.45q12.78-1.2,25.61-1.71a66.31,66.31,0,0,0,10.54-1"/><path class="cls-39" d="M122.88,128.57c13.41-.34,26.72-2.85,40.13-2.71"/><path class="cls-39" d="M126.43,136q19.32-.14,38.63-1.24"/><path class="cls-40" d="M116.2,112.33a31.37,31.37,0,0,0,3.2-3.32l-.88-.24a75.33,75.33,0,0,0,3.8,8.75c.31.6,1.22.07.91-.53a77.16,77.16,0,0,1-3.7-8.5.53.53,0,0,0-.88-.23,30.5,30.5,0,0,1-3.2,3.33c-.5.45.25,1.2.75.74Z"/><path class="cls-40" d="M127.24,111a17.64,17.64,0,0,1,1.45,2.92c.23.63,1.25.36,1-.28a18.6,18.6,0,0,0-1.55-3.17.53.53,0,0,0-.91.53Z"/><path class="cls-40" d="M126.06,113.1c1.93-.31,3.85-.66,5.76-1,.66-.13.38-1.15-.28-1q-2.86.56-5.76,1c-.66.11-.38,1.13.28,1Z"/><path class="cls-40" d="M134.32,108.5a3.39,3.39,0,0,1,1.93-.65l.94.1c.89.08,1.2.53.94,1.34,0,1.5-1.39,2.39-2.49,3.29-.77.64-2.79,1.66-2.55,2.87a.53.53,0,0,0,.77.32c1.17-.85,3.11-.71,4.48-.79s2.93-.13,4.39-.15a.53.53,0,0,0,0-1c-1.91,0-3.82.09-5.72.24a7,7,0,0,0-3.68.84l.77.31c-.07-.36,3.67-3,4.1-3.44.77-.81,1.63-1.91,1.27-3.11-.69-2.3-4.11-2.15-5.69-1-.54.39,0,1.3.54.91Z"/><path class="cls-40" d="M142.69,110.85q3.08-.43,6.14-1c.67-.13.38-1.15-.28-1q-3.06.59-6.14,1c-.67.09-.39,1.11.28,1Z"/><path class="cls-40" d="M144.48,112.74l6.48-.39c.68,0,.68-1.1,0-1l-6.48.39c-.67,0-.67,1.09,0,1Z"/><path class="cls-40" d="M136.11,123.45a7.93,7.93,0,0,1,5.12-3.94,7.19,7.19,0,0,1,3.23-.06c2,.71.92,2.21-.05,3.3s-2.4,1.86-3,3.08-.07,2.25.38,3.28c.27.62,1.18.08.91-.53-1.39-3.17,3.27-4.87,4.14-7.37.46-1.32-.15-2.15-1.38-2.61-3.92-1.45-8.27,1-10.23,4.32a.53.53,0,0,0,.91.53Z"/><path class="cls-40" d="M142.91,131.81a2.34,2.34,0,0,0-.76,1.63.53.53,0,0,0,.66.51,2.5,2.5,0,0,0,.88-.35c.57-.36,0-1.27-.53-.91a1.56,1.56,0,0,1-.63.24l.67.51a1.28,1.28,0,0,1,.46-.89c.5-.46-.24-1.2-.75-.74Z"/><ellipse class="cls-41" cx="101.29" cy="113.24" rx="12.96" ry="3.2" transform="translate(-4.08 3.79) rotate(-2.1)"/><path class="cls-42" d="M113.78,89.52a28.61,28.61,0,0,1-13.13,2.93c-7.27.07-12.56-1.75-13.19-2.67s5.87-2.85,13.13-2.93S115.85,88.56,113.78,89.52Z"/><path class="cls-23" d="M87.46,89.78c.63.92,5.92,2.74,13.19,2.67a28.61,28.61,0,0,0,13.13-2.93c.26-.12.36-.26.33-.4l-6,24s-7.24,3.38-14.28.22C93.17,111.49,87.46,89.78,87.46,89.78Z"/><path class="cls-42" d="M107.29,92.26a19.75,19.75,0,0,0,5.48-1.61c-2.54,10.39-5,18.44-5,18.44Z"/><path class="cls-42" d="M102.85,93.11l2.55-.51s.59,14.88.63,15.07-.37.07-.37.07Z"/><path class="cls-43" d="M112.89,89.53a32.72,32.72,0,0,1-12.24,2.16c-6.77.07-11.7-1.25-12.28-1.92s5.47-2.1,12.24-2.16S114.83,88.82,112.89,89.53Z"/><path class="cls-27" d="M93.07,91.81c-3.16-.6-5.23-1.48-5.61-2,0,0,5.71,21.71,6.39,23.61,7,3.16,14.28-.22,14.28-.22l.73-2.94C100.22,113.23,92.92,104,93.07,91.81Z"/><g class="cls-44"><path class="cls-45" d="M108.07,71.09h0l-3.5,27.57,3.89,1.22,6.86-26A5.38,5.38,0,0,1,108.07,71.09Z"/><path class="cls-24" d="M112.46,66.3l-4.39,4.79a5.38,5.38,0,0,0,7.24,2.78l0-.11Z"/><path class="cls-46" d="M111.2,67.68a1.06,1.06,0,0,0,1.9.28l-.64-1.66Z"/><path class="cls-26" d="M112.46,74.31a6.19,6.19,0,0,0,2.85-.44l0-.11-2.88-7.46h0Z"/><path class="cls-46" d="M108.45,99.89l6.86-26a6.16,6.16,0,0,1-2.84.44l-5.39,25.15Z"/><path class="cls-47" d="M105.17,97.93l3.5-24.7a4,4,0,0,0,2.46,1.47c-1.1,4.76-5.21,23.48-5.21,23.48Z"/><path class="cls-29" d="M110.38,73.34a5.32,5.32,0,0,1-2.09-2.15c1.3-1.47,2.87-3.06,2.87-3.06a1.4,1.4,0,0,0,.46.39C111.36,69.18,110.38,73.34,110.38,73.34Z"/><path class="cls-48" d="M85.45,77.51h0l12.14,25,3.92-1.12L93,75.88A5.38,5.38,0,0,1,85.45,77.51Z"/><path class="cls-24" d="M86.5,71.1l-1,6.41A5.38,5.38,0,0,0,93,75.88l0-.11Z"/><path class="cls-48" d="M86.2,73A1.07,1.07,0,0,0,88,72.14l-1.45-1Z"/><path class="cls-26" d="M90.89,77.8A6.15,6.15,0,0,0,93,75.88l0-.11L86.5,71.1h0Z"/><path class="cls-49" d="M101.51,101.41,93,75.88a6.15,6.15,0,0,1-2.14,1.92l9.24,24Z"/><path class="cls-50" d="M97.7,101.56,87.12,79A4,4,0,0,0,90,78.86c1.67,4.58,8.47,22.51,8.47,22.51Z"/><path class="cls-29" d="M88.61,78.13a5.29,5.29,0,0,1-2.92-.66c.28-1.94.72-4.13.72-4.13a1.63,1.63,0,0,0,.6.08C87.16,74.11,88.61,78.13,88.61,78.13Z"/><path class="cls-51" d="M98,64l2.84,33.31,3.89.53,1.35-33.5Zm4.26,2.65a.66.66,0,1,1,.66-.66A.66.66,0,0,1,102.23,66.62Z"/><polygon class="cls-52" points="99.5 81.95 100.81 97.28 104.7 97.81 105.11 87.64 99.5 81.95"/><polygon class="cls-53" points="98.96 75.57 105.4 80.38 105.61 75.22 98.82 73.88 98.96 75.57"/><polygon class="cls-53" points="105.69 73.17 98.6 71.27 98.7 72.49 105.66 74.13 105.69 73.17"/><path class="cls-54" d="M104.38,68.4h.32"/><path class="cls-54" d="M104.24,69.23a1.58,1.58,0,0,0,.38,0"/><path class="cls-54" d="M104.34,70h.22"/><path class="cls-54" d="M104.36,70.6l.18,0"/><path class="cls-54" d="M104.32,71.23a1.67,1.67,0,0,0,.32,0"/><path class="cls-54" d="M103.16,72.18c.5,0,1,0,1.5,0"/><path class="cls-54" d="M104.32,73.06h.3"/><path class="cls-54" d="M104.32,73.81h.28"/><path class="cls-54" d="M104.34,74.75l.22,0"/><path class="cls-54" d="M104.26,75.62l.2,0"/><path class="cls-54" d="M104.16,76.27a1,1,0,0,1,.24,0"/><path class="cls-54" d="M103.18,77.09a12.72,12.72,0,0,0,1.38,0"/><path class="cls-54" d="M104.19,78a1.06,1.06,0,0,0,.35,0"/><path class="cls-54" d="M104.26,79.06l.28,0"/><path class="cls-54" d="M104.2,79.88l.22,0"/><path class="cls-54" d="M104.16,80.87a1.26,1.26,0,0,1,.28,0"/><path class="cls-54" d="M104.3,81.4l.16,0"/><path class="cls-54" d="M103,82.22c.49,0,1,.09,1.48.12"/><path class="cls-54" d="M104.16,83.23l.28,0"/><path class="cls-54" d="M104.2,84.11l.26,0"/><path class="cls-54" d="M104.14,85.17a1.36,1.36,0,0,1,.4,0"/><path class="cls-54" d="M104,86.12l.29,0"/><path class="cls-54" d="M104.14,86.64l.28,0"/><path class="cls-54" d="M103,87.28c.51,0,1,0,1.54-.07"/><path class="cls-54" d="M104.16,87.88l.28,0"/><path class="cls-54" d="M104.2,88.75l.26,0"/><path class="cls-54" d="M104.14,89.81a1.81,1.81,0,0,1,.4,0"/><path class="cls-54" d="M104,90.77l.29,0"/><path class="cls-54" d="M104.14,91.28l.28,0"/><path class="cls-54" d="M103,91.93c.51,0,1,0,1.54-.08"/></g></g></g></g></svg>