<?xml version="1.0" encoding="utf-8"?>
<!-- Generator: Adobe Illustrator 23.0.1, SVG Export Plug-In . SVG Version: 6.00 Build 0)  -->
<svg version="1.1" id="Layer_1" xmlns="http://www.w3.org/2000/svg" xmlns:xlink="http://www.w3.org/1999/xlink" x="0px" y="0px"
	 viewBox="0 0 293 123" style="enable-background:new 0 0 293 123;" xml:space="preserve">
<style type="text/css">
	.st0{clip-path:url(#SVGID_2_);fill:#2B3033;}
	.st1{opacity:0.27;clip-path:url(#SVGID_2_);}
	.st2{fill:#2B3033;}
	.st3{fill:#FFFFFF;}
	.st4{fill:#B32007;}
	.st5{fill:#F02402;}
	.st6{fill:#F7C200;}
	.st7{fill:#575756;}
	.st8{fill:#488391;}
	.st9{fill:#5296A6;}
	.st10{fill:#75D6ED;}
	.st11{fill:#DE9F00;}
	.st12{fill:#FF664D;}
	.st13{fill:#FEE57C;}
	.st14{fill:#FF8975;}
	.st15{fill:#FF9180;}
	.st16{opacity:0.55;}
	.st17{fill:#938763;}
	.st18{opacity:0.41;fill:#938763;}
	.st19{fill:#FFCA00;}
	.st20{fill:#FFF7AB;}
	.st21{fill:#404141;}
	.st22{opacity:0.41;fill:#A06245;}
	.st23{fill:#F3931A;}
	.st24{fill:#FFF37F;}
	.st25{fill:#FFFBDC;}
	.st26{fill:#EB5D7E;}
	.st27{fill:#B33A5B;}
	.st28{fill:#878787;}
	.st29{fill:#676868;}
	.st30{fill:#F19AC1;}
	.st31{opacity:0.24;}
	.st32{fill:#E4CB90;}
	.st33{fill:#FFFCE1;}
	.st34{opacity:0.17;fill:#ECD4AD;}
	.st35{fill:none;stroke:#FFE1A8;stroke-width:0.8049;stroke-linecap:round;stroke-miterlimit:10;}
	.st36{fill:#454444;}
	.st37{opacity:0.55;fill:#938763;}
	.st38{fill:#FFF271;}
	.st39{fill:#C56816;}
	.st40{clip-path:url(#SVGID_4_);}
	.st41{fill:#BC1016;}
	.st42{fill:#AC1013;}
	.st43{fill:#E3051D;}
	.st44{fill:#006A5F;}
	.st45{fill:#004941;}
	.st46{fill:#00987E;}
	.st47{fill:#C8C8C8;}
	.st48{fill:#999A9A;}
	.st49{fill:#F4E9E7;}
	.st50{fill:none;stroke:#504F4E;stroke-width:0.3161;stroke-linecap:round;stroke-miterlimit:10;}
</style>
<g>
	<g>
		<defs>
			<path id="SVGID_1_" d="M281.8,123H11.2C5,123,0,118,0,111.8V11.2C0,5,5,0,11.2,0h270.6C288,0,293,5,293,11.2v100.6
				C293,118,288,123,281.8,123z"/>
		</defs>
		<use xlink:href="#SVGID_1_"  style="overflow:visible;fill:#2B3033;"/>
		<clipPath id="SVGID_2_">
			<use xlink:href="#SVGID_1_"  style="overflow:visible;"/>
		</clipPath>
		<path class="st0" d="M281.8,123H11.2C5,123,0,118,0,111.8V11.2C0,5,5,0,11.2,0h270.6C288,0,293,5,293,11.2v100.6
			C293,118,288,123,281.8,123z"/>
		<g class="st1">
			<path class="st2" d="M4.7-39.7c-18.4,4.2-40.4,17.5-51.4,32.8c-9.7,13.4-16,27.9-16.8,44.4C-65,64-61.8,93.1-43.5,112.4
				c12.4,13.2,29.9,23.7,47.5,28.4c13.1,3.4,53.2,6.9,72.1,0c14.1-5.1,27.8-11.7,38.1-22.5c6.1-6.4,11.7-13.2,15.9-21
				c7.1-13.3,9.6-28.8,8.1-43.8c-1.4-15-4.6-30.7-11.8-44c-7-13-16.1-23.5-28-32.1C85.4-32,47.1-49.3,4.7-39.7z"/>
		</g>
	</g>
	<g>
		<g>
			<path class="st3" d="M174.7,89h3.7v12.2H176V93c0-0.2,0-0.6,0-1c0-0.4,0-0.8,0-1l-2.3,10.3h-2.5L168.9,91c0,0.2,0,0.6,0,1
				c0,0.4,0,0.8,0,1v8.3h-2.4V89h3.7l2.2,9.6L174.7,89z"/>
			<path class="st3" d="M184.1,95.8c0.4-0.1,0.8-0.1,0.9-0.2c0.3-0.1,0.5-0.4,0.5-0.7c0-0.4-0.1-0.6-0.4-0.8
				c-0.3-0.1-0.6-0.2-1.1-0.2c-0.6,0-1,0.1-1.2,0.4c-0.2,0.2-0.3,0.5-0.3,0.8h-2.3c0-0.8,0.3-1.4,0.7-2c0.6-0.8,1.7-1.2,3.2-1.2
				c1,0,1.9,0.2,2.7,0.6c0.8,0.4,1.2,1.1,1.2,2.2V99c0,0.3,0,0.6,0,1c0,0.3,0.1,0.5,0.1,0.6c0.1,0.1,0.2,0.2,0.3,0.3v0.3h-2.6
				c-0.1-0.2-0.1-0.4-0.1-0.5c0-0.2,0-0.3-0.1-0.5c-0.3,0.4-0.7,0.7-1.1,0.9c-0.5,0.3-1.1,0.4-1.7,0.4c-0.8,0-1.5-0.2-2-0.7
				s-0.8-1.1-0.8-2c0-1.1,0.4-1.9,1.3-2.4c0.5-0.3,1.2-0.5,2.1-0.6L184.1,95.8z M185.5,96.9c-0.2,0.1-0.3,0.2-0.5,0.2
				c-0.2,0.1-0.4,0.1-0.6,0.2l-0.5,0.1c-0.5,0.1-0.9,0.2-1.1,0.3c-0.4,0.2-0.6,0.6-0.6,1c0,0.4,0.1,0.7,0.3,0.9s0.5,0.3,0.8,0.3
				c0.5,0,1-0.2,1.4-0.4s0.7-0.8,0.7-1.6V96.9z"/>
			<path class="st3" d="M188.9,94v-1.7h1.3v-2.5h2.3v2.5h1.5V94h-1.5v4.8c0,0.4,0,0.6,0.1,0.7c0.1,0.1,0.4,0.1,0.9,0.1
				c0.1,0,0.1,0,0.2,0c0.1,0,0.2,0,0.2,0v1.8l-1.1,0c-1.1,0-1.9-0.2-2.3-0.6c-0.3-0.3-0.4-0.7-0.4-1.3V94H188.9z"/>
			<path class="st3" d="M201.9,92.3c0.5,0.2,0.8,0.5,1.1,0.9c0.2,0.3,0.4,0.7,0.5,1c0.1,0.4,0.1,0.9,0.1,1.7v5.3h-2.4v-5.5
				c0-0.5-0.1-0.9-0.2-1.2c-0.2-0.4-0.6-0.6-1.2-0.6c-0.6,0-1.1,0.2-1.4,0.6c-0.3,0.4-0.5,1-0.5,1.8v4.9h-2.4V89.1h2.4v4.3
				c0.3-0.5,0.7-0.9,1.2-1.1c0.4-0.2,0.9-0.3,1.4-0.3C200.9,92,201.4,92.1,201.9,92.3z"/>
			<path class="st3" d="M211.5,92.4c0.6,0.3,1.2,0.7,1.6,1.3c0.4,0.5,0.6,1.2,0.7,1.9c0.1,0.4,0.1,1,0.1,1.8h-6.6
				c0,0.9,0.4,1.5,0.9,1.9c0.4,0.2,0.8,0.3,1.3,0.3c0.5,0,1-0.1,1.3-0.4c0.2-0.1,0.3-0.4,0.5-0.6h2.4c-0.1,0.5-0.4,1.1-0.9,1.6
				c-0.8,0.9-1.9,1.3-3.4,1.3c-1.2,0-2.3-0.4-3.2-1.1c-0.9-0.7-1.4-2-1.4-3.6c0-1.6,0.4-2.8,1.2-3.6c0.8-0.8,1.9-1.3,3.2-1.3
				C210.2,92,210.9,92.1,211.5,92.4z M208,94.5c-0.3,0.3-0.5,0.8-0.6,1.4h4.1c0-0.6-0.3-1.1-0.6-1.4c-0.4-0.3-0.8-0.5-1.4-0.5
				C208.8,93.9,208.3,94.1,208,94.5z"/>
			<path class="st3" d="M226.2,92.3c0.4,0.2,0.7,0.4,1.1,0.8c0.3,0.3,0.4,0.7,0.5,1.2c0.1,0.3,0.1,0.8,0.1,1.3l0,5.7h-2.4v-5.8
				c0-0.3-0.1-0.6-0.2-0.8c-0.2-0.4-0.6-0.6-1.2-0.6c-0.7,0-1.1,0.3-1.4,0.8c-0.1,0.3-0.2,0.6-0.2,1v5.4h-2.4v-5.4
				c0-0.5-0.1-0.9-0.2-1.2c-0.2-0.4-0.6-0.7-1.2-0.7c-0.7,0-1.1,0.2-1.4,0.7c-0.1,0.2-0.2,0.6-0.2,1.1v5.4h-2.4v-9h2.3v1.3
				c0.3-0.5,0.6-0.8,0.8-1c0.5-0.4,1.1-0.5,1.8-0.5c0.7,0,1.2,0.2,1.7,0.5c0.3,0.3,0.6,0.6,0.8,1.1c0.3-0.5,0.7-0.9,1.2-1.2
				c0.5-0.2,1-0.4,1.6-0.4C225.5,92,225.9,92.1,226.2,92.3z"/>
			<path class="st3" d="M233.5,95.8c0.4-0.1,0.8-0.1,0.9-0.2c0.3-0.1,0.5-0.4,0.5-0.7c0-0.4-0.1-0.6-0.4-0.8
				c-0.3-0.1-0.6-0.2-1.1-0.2c-0.6,0-1,0.1-1.2,0.4c-0.2,0.2-0.3,0.5-0.3,0.8h-2.3c0-0.8,0.3-1.4,0.7-2c0.6-0.8,1.7-1.2,3.2-1.2
				c1,0,1.9,0.2,2.7,0.6c0.8,0.4,1.2,1.1,1.2,2.2V99c0,0.3,0,0.6,0,1c0,0.3,0.1,0.5,0.1,0.6c0.1,0.1,0.2,0.2,0.3,0.3v0.3h-2.6
				c-0.1-0.2-0.1-0.4-0.1-0.5c0-0.2,0-0.3-0.1-0.5c-0.3,0.4-0.7,0.7-1.1,0.9c-0.5,0.3-1.1,0.4-1.7,0.4c-0.8,0-1.5-0.2-2-0.7
				s-0.8-1.1-0.8-2c0-1.1,0.4-1.9,1.3-2.4c0.5-0.3,1.2-0.5,2.1-0.6L233.5,95.8z M235,96.9c-0.2,0.1-0.3,0.2-0.5,0.2
				c-0.2,0.1-0.4,0.1-0.6,0.2l-0.5,0.1c-0.5,0.1-0.9,0.2-1.1,0.3c-0.4,0.2-0.6,0.6-0.6,1c0,0.4,0.1,0.7,0.3,0.9s0.5,0.3,0.8,0.3
				c0.5,0,1-0.2,1.4-0.4s0.7-0.8,0.7-1.6V96.9z"/>
			<path class="st3" d="M238.4,94v-1.7h1.3v-2.5h2.3v2.5h1.5V94H242v4.8c0,0.4,0,0.6,0.1,0.7c0.1,0.1,0.4,0.1,0.9,0.1
				c0.1,0,0.1,0,0.2,0s0.2,0,0.2,0v1.8l-1.1,0c-1.1,0-1.9-0.2-2.3-0.6c-0.3-0.3-0.4-0.7-0.4-1.3V94H238.4z"/>
			<path class="st3" d="M247.3,91.2h-2.4V89h2.4V91.2z M244.9,92.2h2.4v9h-2.4V92.2z"/>
			<path class="st3" d="M254.8,95.5c0-0.3-0.2-0.6-0.3-0.9c-0.3-0.4-0.7-0.5-1.2-0.5c-0.8,0-1.3,0.4-1.6,1.2c-0.2,0.4-0.2,1-0.2,1.7
				c0,0.7,0.1,1.2,0.2,1.6c0.3,0.8,0.8,1.1,1.6,1.1c0.6,0,0.9-0.1,1.2-0.4c0.2-0.3,0.4-0.7,0.4-1.2h2.4c-0.1,0.7-0.3,1.4-0.8,2
				c-0.7,1-1.8,1.6-3.3,1.6c-1.5,0-2.5-0.4-3.2-1.3c-0.7-0.9-1-2-1-3.4c0-1.6,0.4-2.8,1.1-3.6s1.8-1.3,3.1-1.3
				c1.1,0,2.1,0.3,2.8,0.8c0.7,0.5,1.2,1.4,1.3,2.7H254.8z"/>
			<path class="st3" d="M260.6,98.4c0,0.4,0.2,0.7,0.3,0.9c0.3,0.3,0.8,0.5,1.6,0.5c0.5,0,0.8-0.1,1.1-0.2s0.4-0.3,0.4-0.6
				c0-0.3-0.1-0.5-0.3-0.6c-0.2-0.1-1-0.4-2.5-0.7c-1-0.3-1.8-0.6-2.2-1c-0.4-0.4-0.6-0.9-0.6-1.6c0-0.8,0.3-1.6,1-2.2
				s1.6-0.9,2.8-0.9c1.1,0,2.1,0.2,2.8,0.7c0.7,0.5,1.1,1.2,1.2,2.3h-2.4c0-0.3-0.1-0.5-0.3-0.7c-0.3-0.3-0.7-0.5-1.3-0.5
				c-0.5,0-0.9,0.1-1.1,0.2c-0.2,0.2-0.3,0.3-0.3,0.6c0,0.3,0.1,0.5,0.3,0.6c0.2,0.1,1.1,0.3,2.5,0.7c0.9,0.2,1.6,0.6,2.1,1
				c0.5,0.5,0.7,1,0.7,1.7c0,0.9-0.3,1.6-1,2.2c-0.7,0.6-1.7,0.9-3.1,0.9c-1.4,0-2.5-0.3-3.2-0.9c-0.7-0.6-1-1.4-1-2.3H260.6z"/>
		</g>
	</g>
	<g>
		<path class="st4" d="M70.5,43.5c0-0.3-0.1-0.5-0.4-0.5l-22.3-3.4c-0.3,0-0.5,0.1-0.5,0.4l-3.4,22.5c-0.1,0.8,0.5,1.5,1.3,1.7
			l20.3,3.1c0.8,0.1,1.6-0.4,1.7-1.2L70.5,43.5z"/>
		<path class="st5" d="M67.2,65.3l3.5-23l-23.3-3.5l-3.5,23c-0.1,0.8,0.4,1.5,1.3,1.6l20.3,3.1C66.3,66.6,67.1,66.1,67.2,65.3z"/>
		<path class="st6" d="M49.8,29.7l21.3,3.2c0.5,0.1,0.9,0.6,0.8,1.2l-1.4,9l-23.3-3.5l1.4-9C48.7,30,49.3,29.6,49.8,29.7z"/>
		<path class="st6" d="M49.8,29.7l21.3,3.2c0.5,0.1,0.9,0.6,0.8,1.2l-1.4,9l-23.3-3.5l1.4-9C48.8,30,49.3,29.6,49.8,29.7z"/>
		<path class="st7" d="M49.4,37.9l19.5,3c0.3,0,0.5-0.1,0.5-0.4l0.7-4.7c0-0.3-0.1-0.5-0.4-0.5l-19.5-3c-0.3,0-0.5,0.1-0.5,0.4
			L49,37.4C49,37.6,49.1,37.9,49.4,37.9z"/>
		<path class="st8" d="M49.9,37.5l18.6,2.8c0.3,0,0.5-0.1,0.5-0.4l0.6-3.8c0-0.3-0.1-0.5-0.4-0.5l-18.6-2.8c-0.3,0-0.5,0.1-0.5,0.4
			L49.5,37C49.5,37.3,49.7,37.5,49.9,37.5z"/>
		<polygon class="st9" points="51.4,33.4 52,33.5 52.4,33.8 52,34 51.3,33.9 51,33.6 		"/>
		<polygon class="st9" points="50.9,36.6 51.6,36.7 51.9,37.1 51.5,37.3 50.8,37.2 50.5,36.8 		"/>
		<polygon class="st10" points="51.1,35 51.8,35.1 52.1,35.4 51.7,35.6 51,35.5 50.7,35.2 		"/>
		<polygon class="st10" points="50.5,34.8 50.6,34 50.9,33.7 51.1,34.1 51,34.8 50.6,35.2 		"/>
		<polygon class="st10" points="52,35 52.2,34.3 52.5,34 52.6,34.4 52.5,35.1 52.2,35.4 		"/>
		<polygon class="st10" points="50.2,36.3 50.3,35.6 50.6,35.3 50.8,35.7 50.7,36.4 50.4,36.7 		"/>
		<polygon class="st9" points="51.8,36.6 51.9,35.9 52.2,35.5 52.4,35.9 52.3,36.6 52,37 		"/>
		<polygon class="st10" points="54,33.8 54.7,33.9 55,34.2 54.6,34.4 54,34.3 53.6,34 		"/>
		<polygon class="st10" points="53.6,37 54.2,37.1 54.5,37.5 54.2,37.7 53.5,37.6 53.2,37.2 		"/>
		<polygon class="st10" points="53.8,35.4 54.5,35.5 54.8,35.8 54.4,36 53.7,35.9 53.4,35.6 		"/>
		<polygon class="st10" points="53.1,35.2 53.2,34.5 53.6,34.1 53.7,34.5 53.6,35.2 53.3,35.6 		"/>
		<polygon class="st9" points="54.7,35.4 54.8,34.7 55.1,34.4 55.3,34.8 55.2,35.5 54.9,35.8 		"/>
		<polygon class="st10" points="52.9,36.7 53,36 53.3,35.7 53.5,36.1 53.4,36.8 53.1,37.1 		"/>
		<polygon class="st9" points="54.5,37 54.6,36.3 54.9,35.9 55.1,36.3 55,37 54.7,37.4 		"/>
		<polygon class="st10" points="56.7,34.2 57.4,34.3 57.7,34.6 57.3,34.8 56.6,34.7 56.3,34.4 		"/>
		<polygon class="st10" points="56.2,37.4 56.9,37.5 57.2,37.9 56.8,38.1 56.1,38 55.8,37.7 		"/>
		<polygon class="st10" points="56.5,35.8 57.1,35.9 57.5,36.2 57.1,36.5 56.4,36.4 56.1,36 		"/>
		<polygon class="st10" points="55.8,35.6 55.9,34.9 56.2,34.5 56.4,34.9 56.3,35.6 56,36 		"/>
		<polygon class="st9" points="57.4,35.8 57.5,35.1 57.8,34.8 58,35.2 57.9,35.9 57.6,36.2 		"/>
		<polygon class="st9" points="55.6,37.1 55.7,36.4 56,36.1 56.2,36.5 56.1,37.2 55.8,37.5 		"/>
		<polygon class="st10" points="57.2,37.4 57.3,36.7 57.6,36.3 57.8,36.7 57.7,37.4 57.4,37.8 		"/>
		<polygon class="st9" points="59.4,34.6 60.1,34.7 60.4,35 60,35.3 59.3,35.2 59,34.8 		"/>
		<polygon class="st9" points="58.9,37.9 59.6,38 59.9,38.3 59.5,38.5 58.8,38.4 58.5,38.1 		"/>
		<polygon class="st9" points="59.1,36.2 59.8,36.3 60.1,36.7 59.7,36.9 59.1,36.8 58.8,36.4 		"/>
		<polygon class="st10" points="58.5,36 58.6,35.3 58.9,34.9 59.1,35.3 59,36 58.7,36.4 		"/>
		<polygon class="st9" points="60.1,36.2 60.2,35.5 60.5,35.2 60.7,35.6 60.6,36.3 60.3,36.6 		"/>
		<polygon class="st10" points="58.3,37.5 58.4,36.8 58.7,36.5 58.9,36.9 58.7,37.6 58.4,37.9 		"/>
		<polygon class="st9" points="59.8,37.8 59.9,37.1 60.2,36.7 60.4,37.2 60.3,37.9 60,38.2 		"/>
		<g>
			<polygon class="st9" points="62.1,35 62.7,35.1 63.1,35.5 62.7,35.7 62,35.6 61.7,35.2 			"/>
			<polygon class="st9" points="61.6,38.3 62.3,38.4 62.6,38.7 62.2,38.9 61.5,38.8 61.2,38.5 			"/>
			<polygon class="st9" points="61.8,36.6 62.5,36.8 62.8,37.1 62.4,37.3 61.7,37.2 61.4,36.9 			"/>
			<polygon class="st9" points="61.2,36.4 61.3,35.7 61.6,35.3 61.8,35.8 61.7,36.5 61.4,36.8 			"/>
			<polygon class="st9" points="62.8,36.6 62.9,35.9 63.2,35.6 63.4,36 63.2,36.7 62.9,37 			"/>
			<polygon class="st9" points="60.9,37.9 61,37.2 61.3,36.9 61.5,37.3 61.4,38 61.1,38.4 			"/>
			<polygon class="st9" points="62.5,38.2 62.6,37.5 62.9,37.1 63.1,37.6 63,38.3 62.7,38.6 			"/>
		</g>
		<g>
			<polygon class="st9" points="64.7,35.4 65.4,35.6 65.7,35.9 65.3,36.1 64.7,36 64.3,35.6 			"/>
			<polygon class="st9" points="64.3,38.7 64.9,38.8 65.3,39.1 64.9,39.3 64.2,39.2 63.9,38.9 			"/>
			<polygon class="st9" points="64.5,37 65.2,37.2 65.5,37.5 65.1,37.7 64.4,37.6 64.1,37.3 			"/>
			<polygon class="st9" points="63.8,36.8 63.9,36.1 64.3,35.7 64.4,36.2 64.3,36.9 64,37.2 			"/>
			<polygon class="st9" points="65.4,37 65.5,36.3 65.8,36 66,36.4 65.9,37.1 65.6,37.4 			"/>
			<polygon class="st9" points="63.6,38.3 63.7,37.6 64,37.3 64.2,37.7 64.1,38.4 63.8,38.8 			"/>
			<polygon class="st9" points="65.2,38.6 65.3,37.9 65.6,37.6 65.8,38 65.7,38.7 65.4,39 			"/>
		</g>
		<g>
			<polygon class="st9" points="67.4,35.8 68.1,36 68.4,36.3 68,36.5 67.3,36.4 67,36.1 			"/>
			<polygon class="st9" points="66.9,39.1 67.6,39.2 67.9,39.5 67.5,39.7 66.9,39.6 66.5,39.3 			"/>
			<polygon class="st9" points="67.2,37.5 67.8,37.6 68.2,37.9 67.8,38.1 67.1,38 66.8,37.7 			"/>
			<polygon class="st9" points="66.5,37.2 66.6,36.5 66.9,36.2 67.1,36.6 67,37.3 66.7,37.6 			"/>
			<polygon class="st9" points="68.1,37.4 68.2,36.7 68.5,36.4 68.7,36.8 68.6,37.5 68.3,37.8 			"/>
			<polygon class="st9" points="66.3,38.8 66.4,38 66.7,37.7 66.9,38.1 66.8,38.8 66.5,39.2 			"/>
			<polygon class="st9" points="67.9,39 68,38.3 68.3,38 68.5,38.4 68.4,39.1 68.1,39.4 			"/>
		</g>
		<path class="st11" d="M47.8,36.4c0,0.4-0.4,2.2,0.6,2.9c0.5,0.4,19.9,3.4,21.4,2.9c0.4-0.1,0.9-1.1,1.1-1.6l-0.4,2.4l-23.3-3.5
			L47.8,36.4z"/>
		<path class="st12" d="M47.5,40c0,0.1,0,0.2,0.1,0.2L70,43.5c0.1,0,0.2,0,0.2-0.1l0,0c0-0.1-0.1-0.2-0.1-0.2l-22.4-3.4
			C47.6,39.8,47.5,39.9,47.5,40L47.5,40z"/>
		<g>
			<path class="st13" d="M65.2,32.4c0.5,0,5.9,0.8,6.2,1.1c0.4,0.4,0.1,2.2-0.2,2.5c-0.4,0.3-0.1-1.7-0.5-2
				c-0.7-0.5-2.3-0.8-3.1-0.9c-0.5-0.1-1.4-0.2-1.9-0.3C65.4,32.7,64.7,32.4,65.2,32.4z"/>
		</g>
		<path class="st14" d="M48.9,64c1.8,0.3,4.3,0.6,6.7,1c2.4,0.4,4.9,0.7,6.7,1c1.8,0.3,3,0.5,3,0.5s-1.2-0.2-3.1-0.4
			c-1.8-0.3-4.3-0.6-6.7-1C53.2,64.7,50.7,64.3,48.9,64c-1.8-0.2-3.1-0.4-3.1-0.4S47.1,63.7,48.9,64z"/>
		<g>
			<path class="st4" d="M64.5,47.7l2.4,0.4c0.3,0,0.5-0.1,0.5-0.4l0.3-2.3c0-0.3-0.1-0.5-0.4-0.5L65,44.4c-0.3,0-0.5,0.1-0.5,0.4
				l-0.3,2.3C64.1,47.4,64.2,47.6,64.5,47.7z"/>
			<path class="st4" d="M59.5,46.9l2.4,0.4c0.3,0,0.5-0.1,0.5-0.4l0.3-2.3c0-0.3-0.1-0.5-0.4-0.5L60,43.7c-0.3,0-0.5,0.1-0.5,0.4
				l-0.3,2.3C59,46.6,59.2,46.9,59.5,46.9z"/>
			<path class="st4" d="M54.5,46.1l2.4,0.4c0.3,0,0.5-0.1,0.5-0.4l0.3-2.3c0-0.3-0.1-0.5-0.4-0.5L55,42.9c-0.3,0-0.5,0.1-0.5,0.4
				l-0.3,2.3C54,45.9,54.2,46.1,54.5,46.1z"/>
			<path class="st4" d="M49.5,45.4l2.4,0.4c0.3,0,0.5-0.1,0.6-0.4l0.3-2.3c0-0.3-0.1-0.5-0.4-0.5l-2.4-0.4c-0.3,0-0.5,0.1-0.5,0.4
				l-0.3,2.3C49,45.1,49.2,45.3,49.5,45.4z"/>
			<path class="st4" d="M63.9,51.9l2.4,0.4c0.3,0,0.5-0.1,0.5-0.4l0.3-2.3c0-0.3-0.1-0.5-0.4-0.5l-2.4-0.4c-0.3,0-0.5,0.1-0.5,0.4
				l-0.4,2.3C63.4,51.6,63.6,51.8,63.9,51.9z"/>
			<path class="st4" d="M58.8,51.1l2.4,0.4c0.3,0,0.5-0.1,0.5-0.4l0.3-2.3c0-0.3-0.1-0.5-0.4-0.5l-2.4-0.4c-0.3,0-0.5,0.1-0.5,0.4
				l-0.3,2.3C58.4,50.8,58.6,51.1,58.8,51.1z"/>
			<path class="st4" d="M53.8,50.3l2.4,0.4c0.3,0,0.5-0.1,0.6-0.4l0.3-2.3c0-0.3-0.1-0.5-0.4-0.5l-2.4-0.4c-0.3,0-0.5,0.1-0.5,0.4
				l-0.3,2.3C53.4,50.1,53.6,50.3,53.8,50.3z"/>
			<path class="st4" d="M48.8,49.6l2.4,0.4c0.3,0,0.5-0.1,0.5-0.4l0.3-2.3c0-0.3-0.1-0.5-0.4-0.5l-2.4-0.4c-0.3,0-0.5,0.1-0.5,0.4
				L48.4,49C48.4,49.3,48.6,49.5,48.8,49.6z"/>
			<path class="st4" d="M63.2,56.1l2.4,0.4c0.3,0,0.5-0.1,0.5-0.4l0.4-2.3c0-0.3-0.1-0.5-0.4-0.5l-2.4-0.4c-0.3,0-0.5,0.1-0.5,0.4
				l-0.3,2.3C62.8,55.8,63,56,63.2,56.1z"/>
			<path class="st4" d="M58.2,55.3l2.4,0.4c0.3,0,0.5-0.1,0.5-0.4l0.3-2.3c0-0.3-0.1-0.5-0.4-0.6l-2.4-0.4c-0.3,0-0.5,0.1-0.5,0.4
				l-0.3,2.3C57.8,55,57.9,55.3,58.2,55.3z"/>
			<path class="st4" d="M53.2,54.5l2.4,0.4c0.3,0,0.5-0.1,0.5-0.4l0.3-2.3c0-0.3-0.1-0.5-0.4-0.6l-2.4-0.4c-0.3,0-0.5,0.1-0.5,0.4
				L52.8,54C52.8,54.3,52.9,54.5,53.2,54.5z"/>
			<path class="st4" d="M48.2,53.8l2.4,0.4c0.3,0,0.5-0.1,0.5-0.4l0.3-2.3c0-0.3-0.1-0.5-0.4-0.5l-2.4-0.4c-0.3,0-0.5,0.1-0.5,0.4
				l-0.3,2.3C47.7,53.5,47.9,53.7,48.2,53.8z"/>
			<path class="st4" d="M62.6,60.2l2.4,0.4c0.3,0,0.5-0.1,0.5-0.4l0.3-2.3c0-0.3-0.1-0.5-0.4-0.5L63.1,57c-0.3,0-0.5,0.1-0.5,0.4
				l-0.3,2.3C62.1,60,62.3,60.2,62.6,60.2z"/>
			<path class="st4" d="M57.6,59.5l2.4,0.4c0.3,0,0.5-0.1,0.5-0.4l0.3-2.3c0-0.3-0.1-0.5-0.4-0.5l-2.4-0.4c-0.3,0-0.5,0.1-0.5,0.4
				l-0.3,2.3C57.1,59.2,57.3,59.4,57.6,59.5z"/>
			<path class="st4" d="M52.6,58.7l2.4,0.4c0.3,0,0.5-0.1,0.5-0.4l0.3-2.3c0-0.3-0.1-0.5-0.4-0.6L53,55.5c-0.3,0-0.5,0.1-0.5,0.4
				l-0.3,2.3C52.1,58.4,52.3,58.7,52.6,58.7z"/>
			<path class="st4" d="M60.3,60.9l4.5,0.7c0.3,0,0.4,0.3,0.4,0.5l-0.3,2.3c0,0.3-0.3,0.4-0.5,0.4l-4.5-0.7l-2-0.3l-0.9-0.1
				c-0.3,0-0.4-0.3-0.4-0.5l0.3-2.3c0-0.3,0.3-0.4,0.5-0.4l0.9,0.1L60.3,60.9z"/>
			<path class="st4" d="M51.9,62.9l2.4,0.4c0.3,0,0.5-0.1,0.5-0.4l0.3-2.3c0-0.3-0.1-0.5-0.4-0.5l-2.4-0.4c-0.3,0-0.5,0.1-0.5,0.4
				l-0.3,2.3C51.5,62.6,51.7,62.9,51.9,62.9z"/>
			<path class="st4" d="M50.8,55.7l-0.1,0.7l-0.3,2.1l-0.6,3.7c0,0.2-0.3,0.4-0.5,0.4l-2.4-0.4c-0.3,0-0.4-0.3-0.4-0.5l0.6-3.7
				l0.3-2.1l0.1-0.7c0-0.3,0.3-0.4,0.5-0.4l2.4,0.4C50.7,55.2,50.8,55.4,50.8,55.7z"/>
		</g>
		<g>
			<path class="st6" d="M64.5,47.4l2.4,0.4c0.3,0,0.5-0.1,0.5-0.4l0.3-2.3c0-0.3-0.1-0.5-0.4-0.5L65,44.1c-0.3,0-0.5,0.1-0.5,0.4
				l-0.3,2.3C64.1,47.1,64.3,47.3,64.5,47.4z"/>
			<path class="st6" d="M59.5,46.6l2.4,0.4c0.3,0,0.5-0.1,0.5-0.4l0.3-2.3c0-0.3-0.1-0.5-0.4-0.5L60,43.4c-0.3,0-0.5,0.1-0.5,0.4
				L59.1,46C59.1,46.3,59.3,46.6,59.5,46.6z"/>
			<path class="st6" d="M54.5,45.8l2.4,0.4c0.3,0,0.5-0.1,0.5-0.4l0.3-2.3c0-0.3-0.1-0.5-0.4-0.5L55,42.6c-0.3,0-0.5,0.1-0.5,0.4
				l-0.3,2.3C54.1,45.6,54.3,45.8,54.5,45.8z"/>
			<path class="st6" d="M49.5,45.1l2.4,0.4c0.3,0,0.5-0.1,0.6-0.4l0.3-2.3c0-0.3-0.1-0.5-0.4-0.5L50,41.9c-0.3,0-0.5,0.1-0.5,0.4
				l-0.3,2.3C49.1,44.8,49.2,45,49.5,45.1z"/>
			<path class="st6" d="M63.9,51.5l2.4,0.4c0.3,0,0.5-0.1,0.5-0.4l0.3-2.3c0-0.3-0.1-0.5-0.4-0.5l-2.4-0.4c-0.3,0-0.5,0.1-0.5,0.4
				L63.5,51C63.5,51.3,63.6,51.5,63.9,51.5z"/>
			<path class="st6" d="M58.9,50.8l2.4,0.4c0.3,0,0.5-0.1,0.5-0.4l0.3-2.3c0-0.3-0.1-0.5-0.4-0.5l-2.4-0.4c-0.3,0-0.5,0.1-0.5,0.4
				l-0.3,2.3C58.4,50.5,58.6,50.7,58.9,50.8z"/>
			<path class="st6" d="M53.9,50l2.4,0.4c0.3,0,0.5-0.1,0.6-0.4l0.3-2.3c0-0.3-0.1-0.5-0.4-0.5l-2.4-0.4c-0.3,0-0.5,0.1-0.6,0.4
				l-0.3,2.3C53.4,49.7,53.6,50,53.9,50z"/>
			<path class="st6" d="M48.9,49.3l2.4,0.4c0.3,0,0.5-0.1,0.5-0.4l0.3-2.3c0-0.3-0.1-0.5-0.4-0.5l-2.4-0.4c-0.3,0-0.5,0.1-0.5,0.4
				l-0.3,2.3C48.4,49,48.6,49.2,48.9,49.3z"/>
			<path class="st6" d="M63.3,55.7l2.4,0.4c0.3,0,0.5-0.1,0.5-0.4l0.3-2.3c0-0.3-0.1-0.5-0.4-0.5l-2.4-0.4c-0.3,0-0.5,0.1-0.5,0.4
				l-0.3,2.3C62.8,55.5,63,55.7,63.3,55.7z"/>
			<path class="st6" d="M58.3,55l2.4,0.4c0.3,0,0.5-0.1,0.5-0.4l0.3-2.3c0-0.3-0.1-0.5-0.4-0.5l-2.4-0.4c-0.3,0-0.5,0.1-0.5,0.4
				l-0.3,2.3C57.8,54.7,58,54.9,58.3,55z"/>
			<path class="st6" d="M53.2,54.2l2.4,0.4c0.3,0,0.5-0.1,0.5-0.4l0.3-2.3c0-0.3-0.1-0.5-0.4-0.5L53.7,51c-0.3,0-0.5,0.1-0.5,0.4
				l-0.3,2.3C52.8,54,53,54.2,53.2,54.2z"/>
			<path class="st6" d="M48.2,53.5l2.4,0.4c0.3,0,0.5-0.1,0.5-0.4l0.3-2.3c0-0.3-0.1-0.5-0.4-0.5l-2.4-0.4c-0.3,0-0.5,0.1-0.5,0.4
				l-0.3,2.3C47.8,53.2,48,53.4,48.2,53.5z"/>
			<path class="st6" d="M62.6,59.9l2.4,0.4c0.3,0,0.5-0.1,0.5-0.4l0.3-2.3c0-0.3-0.1-0.5-0.4-0.5l-2.4-0.4c-0.3,0-0.5,0.1-0.5,0.4
				l-0.3,2.3C62.2,59.7,62.4,59.9,62.6,59.9z"/>
			<path class="st6" d="M57.6,59.2l2.4,0.4c0.3,0,0.5-0.1,0.5-0.4l0.3-2.3c0-0.3-0.1-0.5-0.4-0.5L58.1,56c-0.3,0-0.5,0.1-0.5,0.4
				l-0.3,2.3C57.2,58.9,57.4,59.1,57.6,59.2z"/>
			<path class="st6" d="M52.6,58.4l2.4,0.4c0.3,0,0.5-0.1,0.5-0.4l0.3-2.3c0-0.3-0.1-0.5-0.4-0.6l-2.4-0.4c-0.3,0-0.5,0.1-0.5,0.4
				l-0.3,2.3C52.2,58.1,52.3,58.4,52.6,58.4z"/>
			<path class="st6" d="M60.3,60.6l4.5,0.7c0.3,0,0.4,0.3,0.4,0.5l-0.3,2.3c0,0.3-0.3,0.4-0.5,0.4l-4.5-0.7l-1.9-0.3L57,63.4
				c-0.3,0-0.4-0.3-0.4-0.5l0.3-2.3c0-0.3,0.3-0.4,0.5-0.4l0.9,0.1L60.3,60.6z"/>
			<path class="st6" d="M52,62.6l2.4,0.4c0.3,0,0.5-0.1,0.5-0.4l0.3-2.3c0-0.3-0.1-0.5-0.4-0.5l-2.4-0.4c-0.3,0-0.5,0.1-0.5,0.4
				l-0.3,2.3C51.5,62.3,51.7,62.6,52,62.6z"/>
			<path class="st6" d="M50.9,55.4L50.8,56l-0.3,2.1l-0.6,3.7c0,0.3-0.3,0.4-0.5,0.4L47,61.9c-0.3,0-0.4-0.3-0.4-0.5l0.6-3.7
				l0.3-2.1l0.1-0.7c0-0.3,0.3-0.4,0.5-0.4l2.4,0.4C50.7,54.8,50.9,55.1,50.9,55.4z"/>
		</g>
		<g>
			<path class="st15" d="M61.7,45.3c0.1-0.5-0.3-0.9-0.7-1c-0.2,0-0.4,0-0.6,0.1c-0.1,0-0.1,0.1,0,0.2c0,0.1,0.1,0.1,0.2,0
				c0.1-0.1,0.3-0.1,0.4-0.1c0.2,0,0.3,0.1,0.4,0.2c0.1,0.1,0.1,0.3,0.1,0.4c0,0.2-0.1,0.3-0.2,0.4c-0.1,0.1-0.3,0.1-0.4,0.1
				c-0.1,0-0.3-0.1-0.4-0.2c0-0.1-0.1-0.1-0.2,0c-0.1,0.1-0.1,0.1,0,0.2c0.1,0.1,0.3,0.2,0.5,0.3C61.2,46.1,61.6,45.7,61.7,45.3z"/>
			<path class="st15" d="M65.2,49.3L65,50.7c0,0.1,0,0.1,0.1,0.2c0.1,0,0.1,0,0.1-0.1l0.2-1.2l0.1,0.1c0,0,0,0,0.1,0
				c0,0,0.1,0,0.1,0c0-0.1,0-0.1,0-0.2l-0.3-0.2c0,0,0,0,0,0c0,0,0,0,0,0c0,0,0,0,0,0c0,0,0,0,0,0c0,0,0,0,0,0h0h0c0,0,0,0,0,0
				c0,0,0,0,0,0c0,0,0,0,0,0h0c0,0,0,0,0,0c0,0,0,0,0,0C65.3,49.2,65.3,49.2,65.2,49.3C65.3,49.2,65.3,49.3,65.2,49.3
				C65.3,49.3,65.3,49.3,65.2,49.3C65.3,49.3,65.3,49.3,65.2,49.3L65.2,49.3L65.2,49.3C65.3,49.3,65.3,49.3,65.2,49.3
				C65.3,49.3,65.3,49.3,65.2,49.3C65.3,49.3,65.3,49.3,65.2,49.3C65.3,49.3,65.3,49.3,65.2,49.3C65.2,49.3,65.2,49.3,65.2,49.3z"/>
			<path class="st15" d="M59.7,50c0,0.1,0,0.1,0.1,0.1l0.8,0.1l0,0l0,0c0,0,0.1,0,0.1,0c0.1,0,0.1-0.1,0-0.2l-0.6-0.7
				c-0.1-0.1-0.1-0.2-0.1-0.2c0-0.1,0.1-0.1,0.1-0.2c0.1-0.1,0.2-0.1,0.2-0.1c0.1,0,0.1,0,0.2,0.1l0.1,0.1c0,0.1,0.1,0.1,0.2,0
				c0.1,0,0.1-0.1,0-0.2l-0.1-0.1c-0.1-0.1-0.2-0.2-0.4-0.2c-0.2,0-0.3,0-0.4,0.1c-0.1,0.1-0.2,0.2-0.2,0.3c0,0.2,0,0.3,0.1,0.5
				l0.4,0.5l-0.5-0.1C59.7,49.9,59.7,49.9,59.7,50z"/>
			<path class="st15" d="M55,48.4c-0.1,0.1-0.2,0.2-0.2,0.4c0,0.1,0,0.3,0.1,0.4c0.1,0.1,0.2,0.2,0.4,0.2c0.1,0,0.3,0,0.4-0.1
				c0.1,0,0.1-0.1,0-0.2c0-0.1-0.1-0.1-0.2,0c-0.1,0.1-0.2,0.1-0.2,0.1c-0.1,0-0.2-0.1-0.2-0.1C55,49,55,48.9,55,48.8
				c0-0.1,0.1-0.2,0.1-0.2c0.1-0.1,0.2-0.1,0.2-0.1c0,0,0.1,0,0.1,0c0,0,0,0,0,0c0.1,0,0.1-0.1,0-0.2L55.3,48l0.4,0.1
				c0.1,0,0.1,0,0.2-0.1c0-0.1,0-0.1-0.1-0.1l-0.7-0.1c-0.1,0-0.1,0-0.2,0.1c0,0,0,0,0,0.1c0,0,0,0,0,0l0.3,0.4
				C55.1,48.3,55,48.3,55,48.4z"/>
			<path class="st15" d="M64,54.6c0,0.1,0,0.1,0.1,0.2l0,0l0,0.2c0,0.1,0,0.1,0.1,0.1c0.1,0,0.1,0,0.1-0.1l0-0.2l0.7,0.1l0,0l0,0
				c0,0,0.1,0,0.1,0c0.1,0,0.1-0.1,0-0.2l-0.7-1.2c0,0,0,0,0,0c0,0,0,0,0,0c0,0,0,0,0,0l0,0c0,0,0,0,0,0c0,0,0,0,0,0c0,0,0,0,0,0
				s0,0,0,0c0,0,0,0,0,0c0,0,0,0,0,0c0,0,0,0,0,0c0,0,0,0,0,0c0,0,0,0,0,0c0,0,0,0,0,0c0,0,0,0,0,0h0c0,0,0,0,0,0l0,0c0,0,0,0,0,0
				c0,0,0,0,0,0c0,0,0,0,0,0c0,0,0,0,0,0c0,0,0,0,0,0c0,0,0,0,0,0l0,0c0,0,0,0,0,0c0,0,0,0,0,0c0,0,0,0,0,0l-0.1,1l0,0
				C64.1,54.5,64,54.5,64,54.6z M64.6,53.9l0.4,0.7l-0.5-0.1L64.6,53.9z"/>
			<path class="st15" d="M59.3,53.3c-0.1,0.1-0.2,0.2-0.2,0.4c0,0.2,0,0.3,0.1,0.4c0.1,0.1,0.2,0.2,0.4,0.2c0,0,0,0,0,0
				c0.1,0,0.3,0,0.4-0.1c0.1,0,0.1-0.1,0-0.2c0-0.1-0.1-0.1-0.2,0c-0.1,0-0.2,0.1-0.2,0.1c-0.1,0-0.2-0.1-0.2-0.1
				c0-0.1-0.1-0.2-0.1-0.2c0-0.1,0.1-0.2,0.1-0.2c0.1-0.1,0.2-0.1,0.2-0.1c0.1,0,0.2,0.1,0.2,0.1c0,0.1,0.1,0.1,0.2,0c0,0,0,0,0,0
				c0,0,0,0,0,0c0,0,0,0,0,0c0,0,0,0,0,0c0,0,0,0,0,0c0,0,0,0,0,0l0-0.6c0,0,0-0.1,0-0.1c0,0,0,0,0,0c0,0,0,0,0,0c0,0,0,0-0.1,0
				l-0.7-0.1c-0.1,0-0.1,0-0.2,0.1c0,0.1,0,0.1,0.1,0.1l0.6,0.1l0,0.2c-0.1,0-0.1,0-0.2,0C59.6,53.2,59.4,53.2,59.3,53.3z"/>
			<path class="st15" d="M54.1,53c0,0.3,0.2,0.6,0.5,0.7c0.3,0,0.6-0.2,0.6-0.4c0,0,0,0,0,0c0,0,0-0.1,0-0.1c0-0.2,0-0.3,0-0.5
				c0-0.2-0.1-0.3-0.2-0.4c-0.1-0.1-0.2-0.1-0.3-0.2c-0.1,0-0.1,0-0.2,0.1c0,0.1,0,0.1,0.1,0.2c0.1,0,0.2,0,0.2,0.1
				c0.1,0.1,0.1,0.1,0.1,0.2c0,0,0,0,0,0.1c-0.1,0-0.1-0.1-0.2-0.1C54.4,52.4,54.1,52.7,54.1,53z M54.3,53c0-0.2,0.2-0.3,0.4-0.3
				c0.2,0,0.3,0.2,0.3,0.3c0,0.2-0.2,0.3-0.4,0.3C54.4,53.3,54.3,53.2,54.3,53z"/>
			<path class="st15" d="M63.6,57.8l0.4,1.5c0,0.1,0.1,0.1,0.1,0.1c0,0,0,0,0.1,0c0.1,0,0.1-0.1,0.1-0.2l-0.3-1.3l0.6,0.1
				c0.1,0,0.1,0,0.1-0.1c0-0.1,0-0.1-0.1-0.2l-0.8-0.1c0,0,0,0,0,0c0,0,0,0-0.1,0c0,0,0,0,0,0c0,0,0,0,0,0l0,0c0,0,0,0,0,0l0,0
				c0,0,0,0,0,0L63.6,57.8C63.6,57.7,63.6,57.7,63.6,57.8C63.6,57.7,63.6,57.8,63.6,57.8C63.6,57.8,63.6,57.8,63.6,57.8z"/>
			<path class="st15" d="M58.4,57.9c0,0.3,0.2,0.6,0.5,0.6c0.3,0,0.6-0.2,0.7-0.5c0-0.2,0-0.4-0.2-0.5c0.1-0.1,0.1-0.1,0.1-0.2
				c0-0.2-0.1-0.4-0.3-0.4c-0.2,0-0.4,0.1-0.4,0.3c0,0.1,0,0.2,0,0.2C58.6,57.6,58.5,57.7,58.4,57.9z M58.7,58
				c0-0.2,0.2-0.3,0.4-0.3c0.2,0,0.3,0.2,0.3,0.3c0,0.2-0.2,0.3-0.4,0.3C58.8,58.3,58.7,58.1,58.7,58z M59.2,57.3
				c0,0.1-0.1,0.1-0.2,0.1c-0.1,0-0.1-0.1-0.1-0.2c0-0.1,0.1-0.1,0.2-0.1C59.2,57.2,59.3,57.3,59.2,57.3z"/>
			<path class="st15" d="M54.7,56.8c0-0.3-0.2-0.6-0.5-0.7c-0.3-0.1-0.6,0.1-0.6,0.4v0c0,0,0,0.1,0,0.1c0,0.2,0,0.3,0,0.5
				c0,0.2,0.1,0.3,0.2,0.4c0.1,0.1,0.2,0.1,0.3,0.2c0.1,0,0.1,0,0.2-0.1c0-0.1,0-0.1-0.1-0.2c-0.1,0-0.2-0.1-0.2-0.1
				c-0.1-0.1-0.1-0.1-0.1-0.2c0,0,0,0,0-0.1c0.1,0,0.1,0.1,0.2,0.1C54.3,57.4,54.6,57.1,54.7,56.8z M54.4,56.8
				c0,0.2-0.2,0.3-0.4,0.3c-0.2,0-0.3-0.2-0.3-0.4c0-0.2,0.2-0.3,0.4-0.3C54.3,56.5,54.4,56.6,54.4,56.8z"/>
			<path class="st15" d="M61.5,62.4c0-0.2,0-0.4-0.1-0.6c-0.1-0.2-0.2-0.3-0.4-0.3c-0.2,0-0.4,0.1-0.5,0.2c-0.1,0.1-0.2,0.3-0.2,0.5
				c0,0.2,0,0.4,0.1,0.6c0.1,0.2,0.2,0.3,0.4,0.3c0.2,0,0.4-0.1,0.5-0.2C61.4,62.8,61.5,62.6,61.5,62.4z M60.6,62.3
				c0-0.2,0.1-0.3,0.2-0.4c0.1-0.1,0.2-0.1,0.2-0.1c0.1,0,0.1,0.1,0.2,0.2c0,0.1,0.1,0.3,0,0.4c0,0.2-0.1,0.3-0.2,0.4
				c-0.1,0.1-0.2,0.1-0.2,0.1c-0.1,0-0.1-0.1-0.2-0.2C60.6,62.6,60.6,62.4,60.6,62.3z"/>
			<path class="st15" d="M50.4,48l0.3,0c0.1,0,0.1,0,0.1-0.1c0-0.1,0-0.1-0.1-0.2l-0.3,0l0-0.3c0-0.1,0-0.1-0.1-0.2
				c-0.1,0-0.1,0-0.2,0.1l-0.1,0.3l-0.3,0c-0.1,0-0.1,0-0.1,0.1c0,0.1,0,0.1,0.1,0.1l0.3,0.1l0,0.3c0,0.1,0,0.1,0.1,0.2
				c0.1,0,0.1,0,0.2-0.1L50.4,48z"/>
			<path class="st15" d="M49.1,60.2c0-0.1-0.1-0.2-0.2-0.2l-1-0.1c-0.1,0-0.2,0.1-0.2,0.2c0,0.1,0,0.2,0.2,0.2l0.9,0.1
				C49,60.4,49.1,60.3,49.1,60.2z M49,60.8c0-0.1-0.1-0.2-0.2-0.2l-1-0.1c-0.1,0-0.2,0.1-0.2,0.1c0,0.1,0.1,0.2,0.2,0.2l1,0.1
				C48.9,61,49,60.9,49,60.8z"/>
			<path class="st15" d="M50.4,52.2c0-0.1,0-0.2-0.2-0.2l-1-0.1c-0.1,0-0.2,0.1-0.2,0.2c0,0.1,0.1,0.2,0.1,0.2l1,0.1
				C50.3,52.3,50.4,52.3,50.4,52.2z"/>
			<path class="st15" d="M51.6,43.8c0-0.1-0.1-0.2-0.2-0.2l-1-0.1c-0.1,0-0.2,0.1-0.2,0.2c0,0.1,0.1,0.2,0.1,0.2l1,0.1
				C51.5,43.9,51.6,43.9,51.6,43.8z"/>
			<path class="st15" d="M55.5,43.9l0.3,0.4l-0.4,0.3c-0.1,0.1-0.1,0.1,0,0.2c0,0,0.1,0,0.1,0c0,0,0.1,0,0.1,0l0.3-0.3l0.2,0.4
				c0,0,0.1,0.1,0.1,0.1c0,0,0.1,0,0.1,0c0.1,0,0.1-0.1,0.1-0.2l-0.3-0.4l0.4-0.3c0.1,0,0-0.1,0-0.2c-0.1-0.1-0.2-0.1-0.2,0L56,44.2
				l-0.2-0.4c0-0.1-0.1-0.1-0.2-0.1C55.5,43.8,55.4,43.9,55.5,43.9z"/>
			<path class="st15" d="M51.2,43.1c0,0.1-0.1,0.2-0.2,0.2c-0.1,0-0.2-0.1-0.2-0.2c0-0.1,0.1-0.2,0.2-0.2
				C51.2,42.9,51.2,43,51.2,43.1z"/>
			<path class="st15" d="M53.5,62c0,0.1-0.1,0.2-0.2,0.2c-0.1,0-0.2-0.1-0.2-0.2c0-0.1,0.1-0.2,0.2-0.2C53.4,61.8,53.5,61.9,53.5,62
				z"/>
			<path class="st15" d="M51,44.3c0,0.1-0.1,0.2-0.2,0.2c-0.1,0-0.2-0.1-0.2-0.2c0-0.1,0.1-0.2,0.2-0.2C51,44.1,51,44.2,51,44.3z"/>
			<g>
				<path class="st15" d="M66.3,46.4l0.4,0.1l0.1,0.3c0,0,0,0.1,0.1,0.1c0,0,0,0,0,0c0.1,0,0.1-0.1,0.1-0.1l-0.2-1.2
					c0,0,0-0.1-0.1-0.1c0,0-0.1,0-0.1,0.1l-0.6,1c0,0,0,0.1,0,0.1c0,0,0,0,0,0c0,0,0.1,0,0.1,0L66.3,46.4z M66.4,46.2l0.2-0.4
					l0.1,0.4L66.4,46.2z"/>
				<path class="st15" d="M66,45.9c0.1-0.4-0.2-0.7-0.6-0.8c-0.2,0-0.3,0-0.4,0.1c-0.1,0-0.1,0.1,0,0.1c0,0,0.1,0.1,0.1,0
					c0.1-0.1,0.2-0.1,0.3-0.1c0.1,0,0.2,0.1,0.3,0.2c0.1,0.1,0.1,0.2,0.1,0.3c0,0.1-0.1,0.2-0.2,0.3c-0.1,0.1-0.2,0.1-0.4,0.1
					c-0.1,0-0.2-0.1-0.3-0.1c0,0-0.1,0-0.1,0c0,0,0,0.1,0,0.1c0.1,0.1,0.2,0.2,0.4,0.2C65.6,46.6,65.9,46.3,66,45.9z"/>
			</g>
		</g>
	</g>
	<g>
		<g>
			<g class="st16">
				<path class="st17" d="M66.7,90.5L66.7,90.5l-30-8.4l-2,4.1l27.7,11.8C61.7,95.4,62.7,91.5,66.7,90.5z"/>
				<path class="st17" d="M71.3,96.1l-4.6-5.6c-4,1-4.9,4.9-4.2,7.6l0.1,0L71.3,96.1z"/>
				<path class="st17" d="M69.9,94.5c-0.9,0.3-1.4,1.2-0.6,2.1l1.9-0.4L69.9,94.5z"/>
				<path class="st18" d="M62.4,94.9c-0.3,1.1-0.2,2.2,0,3.2l0.1,0l8.7-2l0,0L62.4,94.9z"/>
				<path class="st17" d="M34.7,86.2l27.7,11.8c-0.3-1-0.3-2.1,0-3.2l-27-10.1L34.7,86.2z"/>
				<path class="st17" d="M37.4,82.9l26.8,7.9c0,0-1.4,0.7-2,2.5c-5.1-2-25.1-9.6-25.1-9.6L37.4,82.9z"/>
				<path class="st17" d="M63.8,92.7c0.2-0.3,1.5-1.6,2.7-2c1.4,1.7,2.9,3.7,2.9,3.7s-0.4,0.2-0.5,0.4
					C68.2,94.5,63.8,92.7,63.8,92.7z"/>
				<g>
					<path class="st17" d="M34,80.8l-3.5-1.7c0,0-2.9,1.5-2,6.3c2.6,0.4,4,0.3,4,0.3L34,80.8z"/>
					<path class="st17" d="M28.4,85.4c2.6,0.4,4,0.3,4,0.3l0.5-1.5l-4.5-2C28.2,83,28.2,84.1,28.4,85.4z"/>
					<path class="st17" d="M36.9,82.2c0.4-0.5-0.5-1-0.8-0.4c-0.1-0.8-0.9-1.1-1.3-0.5c0.1-0.7-0.7-1-1.1-0.4
						c-0.9,1.1-1.6,3.6-1.7,5.2c0,0.6,0.6,0.8,1,0.2c0.1,0.8,1.1,0.4,1.1,0.4c0.1,1,1.2,0.7,1.4-0.3C35.5,84.7,36.3,83,36.9,82.2z"
						/>
					<path class="st17" d="M34.1,84.4c-0.4,0.5-1,0.7-1.1-0.4c-0.3,0.4-0.6,0.3-0.8,0c-0.2,0.7-0.3,1.4-0.3,2c0,0.6,0.6,0.8,1,0.2
						c0.1,0.8,1.1,0.4,1.1,0.4c0.1,1,1.2,0.7,1.4-0.3c0.1-0.5,0.2-1,0.3-1.4C35,85.2,34.2,85.1,34.1,84.4z"/>
					<path class="st17" d="M29.3,80.8c0.2-0.3,0.7-1.1,1.2-1.4c1,0.4,2.6,1.4,2.6,1.4l-0.3,0.8L29.3,80.8z"/>
				</g>
			</g>
			<g>
				<path class="st19" d="M66.7,88.4L66.7,88.4l-30-8.4l-2,4.1L62.4,96C61.7,93.3,62.7,89.4,66.7,88.4z"/>
				<path class="st20" d="M71.3,94.1l-4.6-5.6c-4,1-4.9,4.9-4.2,7.6l0.1,0L71.3,94.1z"/>
				<path class="st21" d="M69.9,92.5c-0.9,0.3-1.4,1.2-0.6,2.1l1.9-0.4L69.9,92.5z"/>
				<path class="st22" d="M62.4,92.8c-0.3,1.1-0.2,2.2,0,3.2l0.1,0l8.7-2l0,0L62.4,92.8z"/>
				<path class="st23" d="M34.7,84.2L62.4,96c-0.3-1-0.3-2.1,0-3.2l-27-10.1L34.7,84.2z"/>
				<path class="st24" d="M37.4,80.9l26.8,7.9c0,0-1.4,0.7-2,2.5c-5.1-2-25.1-9.6-25.1-9.6L37.4,80.9z"/>
				<path class="st25" d="M63.8,90.6c0.2-0.3,1.5-1.6,2.7-2c1.4,1.7,2.9,3.7,2.9,3.7s-0.4,0.2-0.5,0.4
					C68.2,92.4,63.8,90.6,63.8,90.6z"/>
				<g>
					<path class="st26" d="M34,78.8l-3.5-1.7c0,0-2.9,1.5-2,6.3c2.6,0.4,4,0.3,4,0.3L34,78.8z"/>
					<path class="st27" d="M28.4,83.3c2.6,0.4,4,0.3,4,0.3l0.5-1.5l-4.5-2C28.2,80.9,28.2,82,28.4,83.3z"/>
					<path class="st28" d="M36.9,80.1c0.4-0.5-0.5-1-0.8-0.4c-0.1-0.8-0.9-1.1-1.3-0.5c0.1-0.7-0.7-1-1.1-0.4
						c-0.9,1.1-1.6,3.6-1.7,5.2c0,0.6,0.6,0.8,1,0.2c0.1,0.8,1.1,0.4,1.1,0.4c0.1,1,1.2,0.7,1.4-0.3C35.5,82.7,36.3,81,36.9,80.1z"
						/>
					<path class="st29" d="M34.1,82.4c-0.4,0.5-1,0.7-1.1-0.4c-0.3,0.4-0.6,0.3-0.8,0c-0.2,0.7-0.3,1.4-0.3,2c0,0.6,0.6,0.8,1,0.2
						c0.1,0.8,1.1,0.4,1.1,0.4c0.1,1,1.2,0.7,1.4-0.3c0.1-0.5,0.2-1,0.3-1.4C35,83.2,34.2,83.1,34.1,82.4z"/>
					<path class="st30" d="M29.3,78.7c0.2-0.3,0.7-1.1,1.2-1.4c1,0.4,2.6,1.4,2.6,1.4l-0.3,0.8L29.3,78.7z"/>
				</g>
			</g>
		</g>
		<g>
			<g class="st31">
				<path d="M44.5,55.2c3.7,10.5,8.4,34.3,12.9,48.8c10.8-1.7,29.6,1.4,49.6-0.9c11.6-1.4,16.9-2.8,20.5-6.6
					c-13.9-6.4-39-42.2-39-42.2l-4.8,0.1c0,0,1.7,2.6-1.3,2.9c-2.1,0.2-3.8-1.2-2.6-2.8c-2.1,0-5.2-0.1-7.2,0.1
					c0.6,0.8,2.1,3.3-1.7,3.4c-3.9,0.1-3.2-2.8-2.1-3.3c-2.5,0.1-6.4,0.1-6.4,0.1s1.3,3.8-1.9,3.9c-3.2,0.1-3.5-2.1-2.5-3.8
					c-2.7,0.1-5.2,0-7.4,0.1c1.3,1,1.4,3.8-1.2,3.9c-2.6,0.1-2.7-2.8-1.5-3.8L44.5,55.2z"/>
			</g>
			<g>
				<g>
					<path class="st32" d="M45.4,54.3c3.7,10.5,8.4,34.3,12.9,48.8c10.8-1.7,29.6,1.4,49.6-0.9c11.6-1.4,16.9-2.8,20.5-6.6
						c-13.9-6.4-39-42.2-39-42.2l-4.5-0.3l-0.3,0.3c0,0,1.7,2.6-1.3,2.9c-2.1,0.2-3.8-1.2-2.6-2.8c-2,0-4.9-0.4-6.9-0.2
						c0,0-0.3,0.2-0.3,0.3c0.6,0.8,2.1,3.3-1.7,3.4c-3.9,0.1-3.2-2.8-2.1-3.3c-2.1,0.1-5.2-0.2-6.1-0.2c-0.2,0-0.3,0.3-0.3,0.3
						s1.3,3.8-1.9,3.9c-3.2,0.1-3.5-2.1-2.5-3.8c-2.5,0.1-5-0.3-7.1-0.2c-0.2,0-0.2,0.3-0.3,0.3c1.3,1,1.4,3.8-1.2,3.9
						c-2.6,0.1-2.7-2.8-1.5-3.8l-3-0.3L45.4,54.3z"/>
				</g>
				<g>
					<path class="st33" d="M45.7,54c3.7,10.5,8.4,34.3,12.9,48.8c10.8-1.7,29.6,1.4,49.6-0.9c11.6-1.4,16.9-2.8,20.5-6.6
						c-13.9-6.4-39-42.2-39-42.2l-4.8,0.1c0,0,1.7,2.6-1.3,2.9c-2.1,0.2-3.8-1.2-2.6-2.8c-2.1,0-5.2-0.1-7.2,0.1
						c0.6,0.8,2.1,3.3-1.7,3.4c-3.9,0.1-3.2-2.8-2.1-3.3c-2.5,0.1-6.4,0.1-6.4,0.1s1.3,3.8-1.9,3.9c-3.2,0.1-3.5-2.1-2.5-3.8
						c-2.7,0.1-5.2,0-7.4,0.1c1.3,1,1.4,3.8-1.2,3.9c-2.6,0.1-2.7-2.8-1.5-3.8L45.7,54z"/>
				</g>
				<path class="st34" d="M106.8,99.8c9-0.6,14.1-6.5,6-9.8c-7.1-2.9-17-2.7-27.3-0.6c-10.4,2.1-27.6,9.3-4.2,11.1
					C93.6,101.6,103.6,100,106.8,99.8z"/>
				<g>
					<path class="st35" d="M53.1,62.3c12-1.2,24.1-1.9,36.2-2.4"/>
					<path class="st35" d="M56.1,70C68,68.3,80,67.1,92,66.4"/>
					<path class="st35" d="M58.4,78c9.5-0.9,19.1-1.5,28.7-1.9C91,75.9,95,75.8,98.8,75"/>
					<path class="st35" d="M62.5,89.3c15-0.4,29.9-3.2,44.9-3"/>
					<path class="st35" d="M66.4,97.6c14.4-0.1,28.8-0.6,43.2-1.4"/>
				</g>
				<g>
					<g>
						<g>
							<path class="st36" d="M55,71.1c1.3-1.2,2.5-2.4,3.6-3.7c-0.3-0.1-0.7-0.2-1-0.3c1.2,3.4,2.6,6.6,4.3,9.8
								c0.3,0.7,1.4,0.1,1-0.6c-1.6-3.1-3-6.2-4.1-9.5c-0.1-0.4-0.7-0.6-1-0.3c-1.1,1.3-2.3,2.6-3.6,3.7
								C53.6,70.8,54.4,71.6,55,71.1L55,71.1z"/>
						</g>
					</g>
					<g>
						<g>
							<g>
								<path class="st36" d="M67.4,69.6c0.6,1,1.2,2.1,1.6,3.3c0.3,0.7,1.4,0.4,1.1-0.3c-0.5-1.2-1-2.4-1.7-3.6
									C68,68.4,67,69,67.4,69.6L67.4,69.6z"/>
							</g>
						</g>
						<g>
							<g>
								<path class="st36" d="M66,72c2.2-0.3,4.3-0.7,6.4-1.1c0.7-0.1,0.4-1.3-0.3-1.1c-2.1,0.4-4.3,0.8-6.4,1.1
									C65,71,65.3,72.1,66,72L66,72z"/>
							</g>
						</g>
					</g>
					<g>
						<g>
							<path class="st36" d="M75.3,66.8c0.6-0.5,1.3-0.7,2.2-0.7c0.4,0,0.7,0.1,1.1,0.1c1,0.1,1.3,0.6,1.1,1.5
								c0,1.7-1.6,2.7-2.8,3.7c-0.9,0.7-3.1,1.9-2.9,3.2c0.1,0.4,0.6,0.6,0.9,0.4c1.3-0.9,3.5-0.8,5-0.9c1.6-0.1,3.3-0.1,4.9-0.2
								c0.8,0,0.8-1.2,0-1.2c-2.1,0-4.3,0.1-6.4,0.3c-1.4,0.1-3,0.1-4.1,0.9c0.3,0.1,0.6,0.2,0.9,0.4c-0.1-0.4,4.1-3.3,4.6-3.8
								c0.9-0.9,1.8-2.1,1.4-3.5c-0.8-2.6-4.6-2.4-6.4-1.2C74.1,66.3,74.7,67.3,75.3,66.8L75.3,66.8z"/>
						</g>
					</g>
					<g>
						<g>
							<path class="st36" d="M84.6,69.5c2.3-0.3,4.6-0.7,6.9-1.1c0.7-0.1,0.4-1.3-0.3-1.1c-2.3,0.4-4.6,0.8-6.9,1.1
								C83.6,68.4,83.9,69.6,84.6,69.5L84.6,69.5z"/>
						</g>
					</g>
					<g>
						<g>
							<path class="st36" d="M86.6,71.6c2.4-0.1,4.8-0.3,7.3-0.4c0.8,0,0.8-1.2,0-1.2c-2.4,0.1-4.8,0.3-7.3,0.4
								C85.9,70.5,85.9,71.6,86.6,71.6L86.6,71.6z"/>
						</g>
					</g>
					<g>
						<g>
							<path class="st36" d="M77.3,83.6c1.3-2.2,3.2-3.8,5.7-4.4c0.9-0.2,2.7-0.4,3.6-0.1c2.2,0.8,1,2.5-0.1,3.7
								c-1,1.1-2.7,2.1-3.4,3.4c-0.6,1.2-0.1,2.5,0.4,3.7c0.3,0.7,1.3,0.1,1-0.6c-1.6-3.6,3.7-5.5,4.6-8.2c0.5-1.5-0.2-2.4-1.5-2.9
								c-4.4-1.6-9.3,1.1-11.4,4.8C75.9,83.6,76.9,84.2,77.3,83.6L77.3,83.6z"/>
						</g>
					</g>
					<g>
						<g>
							<path class="st36" d="M84.9,92.9c-0.5,0.5-0.8,1.1-0.9,1.8c0,0.4,0.4,0.6,0.7,0.6c0.4-0.1,0.7-0.2,1-0.4c0.6-0.4,0-1.4-0.6-1
								c-0.2,0.1-0.4,0.2-0.7,0.3c0.2,0.2,0.5,0.4,0.7,0.6c0-0.4,0.2-0.7,0.5-1C86.3,93.2,85.5,92.4,84.9,92.9L84.9,92.9z"/>
						</g>
					</g>
				</g>
			</g>
		</g>
		<g>
			<g>
				
					<ellipse transform="matrix(0.9993 -3.663722e-02 3.663722e-02 0.9993 -2.6178 1.4523)" class="st37" cx="38.3" cy="72.2" rx="14.5" ry="3.6"/>
				<path class="st38" d="M52.3,45.6c-2.3,1.1-6.6,3.2-14.7,3.3c-8.1,0.1-14.1-2-14.8-3c-0.7-1,6.6-3.2,14.7-3.3
					C45.7,42.5,54.6,44.5,52.3,45.6z"/>
				<path class="st19" d="M22.8,45.9c0.7,1,6.6,3.1,14.8,3c8.1-0.1,12.4-2.2,14.7-3.3c0.3-0.1,0.4-0.3,0.4-0.4L46,72.1
					c0,0-8.1,3.8-16,0.3C29.2,70.2,22.8,45.9,22.8,45.9z"/>
				<path class="st38" d="M45,48.7c0,0,3.9-0.5,6.1-1.8c-2.8,11.6-5.6,20.6-5.6,20.6L45,48.7z"/>
				<path class="st38" d="M40.1,49.6l2.9-0.6c0,0,0.7,16.7,0.7,16.9c0,0.2-0.4,0.1-0.4,0.1L40.1,49.6z"/>
				<path class="st39" d="M51.3,45.6c-2.2,0.8-6.1,2.3-13.7,2.4c-7.6,0.1-13.1-1.4-13.7-2.1c-0.7-0.7,6.1-2.3,13.7-2.4
					C45.1,43.4,53.5,44.8,51.3,45.6z"/>
				<path class="st23" d="M29.1,48.2c-3.5-0.7-5.9-1.7-6.3-2.3c0,0,6.4,24.3,7.1,26.4c7.9,3.5,16-0.3,16-0.3l0.8-3.3
					C37.1,72.1,29,61.8,29.1,48.2z"/>
			</g>
			<g>
				<defs>
					<path id="SVGID_3_" d="M23.9,45.9c0.7,0.7,6.2,2.2,13.7,2.1c7.6-0.1,11.5-1.6,13.7-2.4l4.8-17.5l-4.5-9.3L44,15.7l-10.7,0.3
						L20,24.3l-1.5,10L23.9,45.9z"/>
				</defs>
				<clipPath id="SVGID_4_">
					<use xlink:href="#SVGID_3_"  style="overflow:visible;"/>
				</clipPath>
				<g class="st40">
					<path class="st41" d="M45.9,25L45.9,25L42,55.8l4.3,1.4L54,28.1C51.5,29.2,47.5,28.8,45.9,25z"/>
					<path class="st20" d="M50.8,19.6L45.9,25c1.6,3.8,5.6,4.2,8.1,3.1l0-0.1L50.8,19.6z"/>
					<path class="st42" d="M49.4,21.2c0.4,0.8,1.4,1.3,2.1,0.3l-0.7-1.9L49.4,21.2z"/>
					<path class="st22" d="M50.8,28.6c1.1,0.1,2.3-0.1,3.2-0.5l0-0.1l-3.2-8.4l0,0L50.8,28.6z"/>
					<path class="st42" d="M46.3,57.2L54,28.1c-0.9,0.4-2,0.6-3.2,0.5l-6,28.1L46.3,57.2z"/>
					<path class="st43" d="M42.7,55l3.9-27.6c0,0,0.9,1.3,2.8,1.6c-1.2,5.3-5.8,26.3-5.8,26.3L42.7,55z"/>
					<path class="st25" d="M48.5,27.5c-0.3-0.2-1.8-1.2-2.3-2.4c1.4-1.6,3.2-3.4,3.2-3.4s0.3,0.3,0.5,0.4
						C49.6,22.8,48.5,27.5,48.5,27.5z"/>
				</g>
				<g class="st40">
					<path class="st44" d="M20.6,32.2L20.6,32.2l13.6,28l4.4-1.2l-9.5-28.6C27.5,32.6,24,34.5,20.6,32.2z"/>
					<path class="st20" d="M21.8,25l-1.2,7.2c3.4,2.3,6.9,0.5,8.5-1.8l0-0.1L21.8,25z"/>
					<path class="st44" d="M21.4,27.1c0.8,0.5,1.8,0.3,2-0.9L21.8,25L21.4,27.1z"/>
					<path class="st22" d="M26.7,32.5c1-0.5,1.8-1.3,2.4-2.2l0-0.1L21.8,25l0,0L26.7,32.5z"/>
					<path class="st45" d="M38.6,58.9l-9.5-28.6c-0.6,0.8-1.4,1.6-2.4,2.2L37,59.4L38.6,58.9z"/>
					<path class="st46" d="M34.3,59.1L22.5,33.8c0,0,1.4,0.6,3.2-0.1c1.9,5.1,9.5,25.2,9.5,25.2L34.3,59.1z"/>
					<path class="st25" d="M24.1,32.9c-0.4,0.1-2.2,0-3.3-0.7c0.3-2.2,0.8-4.6,0.8-4.6s0.4,0.1,0.7,0.1
						C22.5,28.4,24.1,32.9,24.1,32.9z"/>
				</g>
				<g class="st40">
					<path class="st47" d="M34.6,17l3.2,37.3l4.4,0.6l1.5-37.5L34.6,17z M39.4,20c-0.4,0-0.7-0.3-0.7-0.7s0.3-0.7,0.7-0.7
						c0.4,0,0.7,0.3,0.7,0.7S39.8,20,39.4,20z"/>
					<polygon class="st48" points="36.3,37.1 37.8,54.3 42.1,54.9 42.6,43.5 					"/>
					<polygon class="st49" points="35.7,30 42.9,35.4 43.1,29.6 35.5,28.1 					"/>
					<polygon class="st49" points="43.2,27.3 35.3,25.2 35.4,26.5 43.2,28.4 					"/>
					<g>
						<path class="st50" d="M41.8,22c0.1,0,0.2,0,0.4,0"/>
						<path class="st50" d="M41.6,22.9c0.1,0,0.3,0,0.4,0"/>
						<path class="st50" d="M41.7,23.7c0.1,0,0.2,0,0.3,0"/>
						<path class="st50" d="M41.7,24.4c0.1,0,0.1,0,0.2,0"/>
						<path class="st50" d="M41.7,25.1c0.1,0,0.2,0,0.4,0"/>
						<path class="st50" d="M40.4,26.2c0.6,0,1.1,0,1.7,0.1"/>
						<path class="st50" d="M41.7,27.2c0.1,0,0.2,0,0.3,0"/>
						<path class="st50" d="M41.7,28c0.1,0,0.2,0,0.3,0"/>
						<path class="st50" d="M41.7,29.1c0.1,0,0.2,0,0.3,0"/>
						<path class="st50" d="M41.6,30.1c0.1,0,0.2,0,0.2,0"/>
						<path class="st50" d="M41.5,30.8c0.1,0,0.2,0,0.3,0"/>
						<path class="st50" d="M40.4,31.7c0.5,0,1,0.1,1.5,0"/>
						<path class="st50" d="M41.6,32.8c0.1,0,0.3,0,0.4,0"/>
						<path class="st50" d="M41.6,33.9c0.1,0,0.2,0,0.3,0"/>
						<path class="st50" d="M41.6,34.8c0.1,0,0.2,0,0.3,0"/>
						<path class="st50" d="M41.5,35.9c0.1,0,0.2,0,0.3,0"/>
						<path class="st50" d="M41.7,36.5c0.1,0,0.1,0,0.2,0"/>
						<path class="st50" d="M40.3,37.4c0.6,0.1,1.1,0.1,1.7,0.1"/>
						<path class="st50" d="M41.5,38.6c0.1,0,0.2,0,0.3,0"/>
						<path class="st50" d="M41.6,39.6c0.1,0,0.2,0,0.3,0"/>
						<path class="st50" d="M41.5,40.7c0.2,0,0.3,0,0.5,0"/>
						<path class="st50" d="M41.4,41.8c0.1,0,0.2,0,0.3,0"/>
						<path class="st50" d="M41.5,42.4c0.1,0,0.2,0,0.3,0"/>
						<path class="st50" d="M40.2,43.1c0.6,0,1.2,0,1.7-0.1"/>
						<path class="st50" d="M41.5,43.8c0.1,0,0.2,0,0.3,0"/>
						<path class="st50" d="M41.6,44.7c0.1,0,0.2,0,0.3,0"/>
						<path class="st50" d="M41.5,45.9c0.2,0,0.3,0,0.5,0"/>
						<path class="st50" d="M41.4,47c0.1,0,0.2,0,0.3,0"/>
						<path class="st50" d="M41.5,47.6c0.1,0,0.2,0,0.3,0"/>
						<path class="st50" d="M40.2,48.3c0.6,0,1.2,0,1.7-0.1"/>
					</g>
				</g>
			</g>
		</g>
	</g>
</g>
</svg>
