<svg id="Component_102_1" data-name="Component 102 – 1" xmlns="http://www.w3.org/2000/svg" xmlns:xlink="http://www.w3.org/1999/xlink" width="341" height="165" viewBox="0 0 341 165">
  <defs>
    <clipPath id="clip-path">
      <rect id="Rectangle_1607" data-name="Rectangle 1607" width="341" height="165" rx="16" transform="translate(744 1040)" fill="#939393"/>
    </clipPath>
  </defs>
  <g id="Group_1813" data-name="Group 1813" transform="translate(-744 -1040)" clip-path="url(#clip-path)">
    <g id="Rectangle_1606" data-name="Rectangle 1606" transform="translate(732 1019)" fill="#939393" stroke="#707070" stroke-width="1">
      <rect width="361" height="191" stroke="none"/>
      <rect x="0.5" y="0.5" width="360" height="190" fill="none"/>
    </g>
    <ellipse id="Ellipse_240" data-name="Ellipse 240" cx="181" cy="174.5" rx="181" ry="174.5" transform="translate(563 932)" fill="#656565" opacity="0.36"/>
  </g>
  <text id="Mathematics" transform="translate(185 140)" fill="#fff" font-size="19" font-family="WorkSans-Bold, Work Sans" font-weight="700" letter-spacing="-0.009em"><tspan x="0" y="0">Mathematics</tspan></text>
  <g id="_023---Mathematics" data-name="023---Mathematics" transform="translate(36 30.023)">
    <path id="Shape" d="M2.067,46.467H15.5v12.4A4.133,4.133,0,0,0,19.633,63H42.366A4.133,4.133,0,0,0,46.5,58.867v-12.4h3.1V57.833a5.167,5.167,0,0,0,10.333,0V24.767c0-.341-.217-.754-4.133-10.55,0-2.8,0-3.028-.1-3.338s.692.589-9.5-9.6C45.755.856,48.235,1,2.067,1A2.067,2.067,0,0,0,0,3.067V44.4a2.067,2.067,0,0,0,2.067,2.067Zm42.366,12.4a2.067,2.067,0,0,1-2.067,2.067H19.633a2.067,2.067,0,0,1-2.067-2.067V23.734a2.067,2.067,0,0,1,2.067-2.067H42.366a2.067,2.067,0,0,1,2.067,2.067ZM54.766,17.214l.951,2.387h-1.9Zm-3.1,8.587h6.2V49.567h-6.2Zm0,25.833h6.2v3.1h-6.2Zm1.323-29.966h3.555l.827,2.067H52.2Zm4.877,36.166a3.1,3.1,0,1,1-6.2,0V56.8h6.2ZM46.5,4.524,52.276,10.3H46.5ZM2.067,3.067H44.433V10.3A2.067,2.067,0,0,0,46.5,12.367h7.233v1.87c-4.516,11.284-4.04,10.044-4.133,10.333s0-1.715,0,19.829H46.5V23.734A4.133,4.133,0,0,0,42.366,19.6H19.633A4.133,4.133,0,0,0,15.5,23.734V44.4H2.067Z" fill="#fff"/>
    <path id="Shape-2" data-name="Shape" d="M39.666,23h-18.6A2.067,2.067,0,0,0,19,25.067v5.167A2.067,2.067,0,0,0,21.067,32.3h18.6a2.067,2.067,0,0,0,2.067-2.067V25.067A2.067,2.067,0,0,0,39.666,23ZM23.877,30.233l2.955-5.167h2.79l-2.955,5.167Zm-2.811-5.167h3.389L21.5,30.233h-.434Zm7.977,5.167L32,25.067h7.667v5.167Z" transform="translate(0.633 0.734)" fill="#fff"/>
    <path id="Shape-3" data-name="Shape" d="M23.133,34H21.067A2.067,2.067,0,0,0,19,36.067v2.067A2.067,2.067,0,0,0,21.067,40.2h2.067A2.067,2.067,0,0,0,25.2,38.133V36.067A2.067,2.067,0,0,0,23.133,34Zm-2.067,4.133V36.067h2.067v2.067Z" transform="translate(0.633 1.1)" fill="#fff"/>
    <path id="Shape-4" data-name="Shape" d="M31.133,34H29.067A2.067,2.067,0,0,0,27,36.067v2.067A2.067,2.067,0,0,0,29.067,40.2h2.067A2.067,2.067,0,0,0,33.2,38.133V36.067A2.067,2.067,0,0,0,31.133,34Zm-2.067,4.133V36.067h2.067v2.067Z" transform="translate(0.9 1.1)" fill="#fff"/>
    <path id="Shape-5" data-name="Shape" d="M39.133,34H37.067A2.067,2.067,0,0,0,35,36.067v2.067A2.067,2.067,0,0,0,37.067,40.2h2.067A2.067,2.067,0,0,0,41.2,38.133V36.067A2.067,2.067,0,0,0,39.133,34Zm-2.067,4.133V36.067h2.067v2.067Z" transform="translate(1.166 1.1)" fill="#fff"/>
    <path id="Shape-6" data-name="Shape" d="M23.133,42H21.067A2.067,2.067,0,0,0,19,44.067v2.067A2.067,2.067,0,0,0,21.067,48.2h2.067A2.067,2.067,0,0,0,25.2,46.133V44.067A2.067,2.067,0,0,0,23.133,42Zm-2.067,4.133V44.067h2.067v2.067Z" transform="translate(0.633 1.367)" fill="#fff"/>
    <path id="Shape-7" data-name="Shape" d="M31.133,42H29.067A2.067,2.067,0,0,0,27,44.067v2.067A2.067,2.067,0,0,0,29.067,48.2h2.067A2.067,2.067,0,0,0,33.2,46.133V44.067A2.067,2.067,0,0,0,31.133,42Zm-2.067,4.133V44.067h2.067v2.067Z" transform="translate(0.9 1.367)" fill="#fff"/>
    <path id="Shape-8" data-name="Shape" d="M39.133,42H37.067A2.067,2.067,0,0,0,35,44.067v2.067A2.067,2.067,0,0,0,37.067,48.2h2.067A2.067,2.067,0,0,0,41.2,46.133V44.067A2.067,2.067,0,0,0,39.133,42Zm-2.067,4.133V44.067h2.067v2.067Z" transform="translate(1.166 1.367)" fill="#fff"/>
    <path id="Shape-9" data-name="Shape" d="M23.133,50H21.067A2.067,2.067,0,0,0,19,52.067v2.067A2.067,2.067,0,0,0,21.067,56.2h2.067A2.067,2.067,0,0,0,25.2,54.133V52.067A2.067,2.067,0,0,0,23.133,50Zm-2.067,4.133V52.067h2.067v2.067Z" transform="translate(0.633 1.633)" fill="#fff"/>
    <path id="Shape-10" data-name="Shape" d="M31.133,50H29.067A2.067,2.067,0,0,0,27,52.067v2.067A2.067,2.067,0,0,0,29.067,56.2h2.067A2.067,2.067,0,0,0,33.2,54.133V52.067A2.067,2.067,0,0,0,31.133,50Zm-2.067,4.133V52.067h2.067v2.067Z" transform="translate(0.9 1.633)" fill="#fff"/>
    <path id="Shape-11" data-name="Shape" d="M39.133,50H37.067A2.067,2.067,0,0,0,35,52.067v2.067A2.067,2.067,0,0,0,37.067,56.2h2.067A2.067,2.067,0,0,0,41.2,54.133V52.067A2.067,2.067,0,0,0,39.133,50Zm-2.067,4.133V52.067h2.067v2.067Z" transform="translate(1.166 1.633)" fill="#fff"/>
    <path id="Shape-12" data-name="Shape" d="M33.3,13.967a1.033,1.033,0,0,0,1.467,0l2.366-2.377L39.5,13.967A1.038,1.038,0,1,0,40.967,12.5L38.59,10.133l2.377-2.366A1.038,1.038,0,1,0,39.5,6.3L37.133,8.676,34.767,6.3A1.038,1.038,0,0,0,33.3,7.767l2.377,2.366L33.3,12.5a1.033,1.033,0,0,0,0,1.467Z" transform="translate(1.099 0.167)" fill="#fff"/>
    <path id="Shape-13" data-name="Shape" d="M11.233,9.1H9.167V7.033a1.033,1.033,0,1,0-2.067,0V9.1H5.033a1.033,1.033,0,1,0,0,2.067H7.1v2.067a1.033,1.033,0,0,0,2.067,0V11.167h2.067a1.033,1.033,0,0,0,0-2.067Z" transform="translate(0.133 0.167)" fill="#fff"/>
    <path id="Shape-14" data-name="Shape" d="M15.033,11.067h6.2a1.033,1.033,0,1,0,0-2.067h-6.2a1.033,1.033,0,1,0,0,2.067Z" transform="translate(0.466 0.267)" fill="#fff"/>
    <path id="Shape-15" data-name="Shape" d="M25.033,11.067h6.2a1.033,1.033,0,1,0,0-2.067h-6.2a1.033,1.033,0,1,0,0,2.067Z" transform="translate(0.8 0.267)" fill="#fff"/>
    <circle id="Oval" cx="1.033" cy="1.033" r="1.033" transform="translate(27.9 6.167)" fill="#fff"/>
    <circle id="Oval-2" data-name="Oval" cx="1.033" cy="1.033" r="1.033" transform="translate(27.9 12.367)" fill="#fff"/>
    <path id="Shape-16" data-name="Shape" d="M5.033,17A1.033,1.033,0,0,0,4,18.033V20.1a1.033,1.033,0,0,0,2.067,0V18.033A1.033,1.033,0,0,0,5.033,17Z" transform="translate(0.133 0.534)" fill="#fff"/>
    <path id="Shape-17" data-name="Shape" d="M5.033,23A1.033,1.033,0,0,0,4,24.033V40.566a1.033,1.033,0,1,0,2.067,0V24.033A1.033,1.033,0,0,0,5.033,23Z" transform="translate(0.133 0.734)" fill="#fff"/>
  </g>
</svg>
