<svg id="Group_2025" data-name="Group 2025" xmlns="http://www.w3.org/2000/svg" width="90.699" height="108.495" viewBox="0 0 90.699 108.495">
  <g id="Group_2023" data-name="Group 2023" transform="translate(0 0)">
    <g id="Group_2022" data-name="Group 2022">
      <g id="Group_2020" data-name="Group 2020" transform="translate(13.484)">
        <path id="Path_7698" data-name="Path 7698" d="M530.15,538.82h-8.809V509.692a23.057,23.057,0,1,0-46.113,0V538.82h-8.809V509.692a31.866,31.866,0,1,1,63.731,0Z" transform="translate(-466.419 -477.826)" fill="#72716f"/>
      </g>
      <g id="Group_2021" data-name="Group 2021" transform="translate(0 47.171)">
        <rect id="Rectangle_1856" data-name="Rectangle 1856" width="90.699" height="61.324" rx="10.138" fill="#f2cb30"/>
      </g>
    </g>
  </g>
  <path id="Path_7699" data-name="Path 7699" d="M629.435,579.271s7.565-9.44,8.512-19.595v19.595Z" transform="translate(-561.029 -532.1)" fill="#5c5a5a"/>
  <path id="Path_7700" data-name="Path 7700" d="M518.383,724V690.614c-27.631,23.377-67.47,32.161-90.046,35.384a3.4,3.4,0,0,0,2.762,1.42h83.868A3.416,3.416,0,0,0,518.383,724Z" transform="translate(-427.683 -618.923)" fill="#eab531"/>
  <path id="Path_7701" data-name="Path 7701" d="M553.744,666.683a7.5,7.5,0,1,0-11.952,6.016l-2.386,16.949h13.685L550.706,672.7A7.478,7.478,0,0,0,553.744,666.683Z" transform="translate(-500.899 -598.085)" fill="#72716f"/>
  <path id="Path_7702" data-name="Path 7702" d="M540.69,718.732s10.694-4.092,11.478-15.682l2.207,15.682Z" transform="translate(-502.183 -627.169)" fill="#5c5a5a"/>
</svg>
