<svg xmlns="http://www.w3.org/2000/svg" xmlns:xlink="http://www.w3.org/1999/xlink" viewBox="0 0 356.87 187.26"><defs><style>.cls-1{fill:url(#linear-gradient);}.cls-2{isolation:isolate;}.cls-3{clip-path:url(#clip-path);}.cls-4{opacity:0.27;mix-blend-mode:multiply;}.cls-5{fill:url(#linear-gradient-4);}.cls-6{fill:#fff;}.cls-7{fill:#f4429b;}.cls-8{fill:#5097ff;}.cls-9{fill:none;}.cls-10{fill:#fb7a01;}.cls-11{fill:#ffe766;}.cls-12{fill:#00c2b8;}</style><linearGradient id="linear-gradient" y1="61.5" x2="293" y2="61.5" gradientUnits="userSpaceOnUse"><stop offset="0" stop-color="#ee3434"/><stop offset="0.66" stop-color="#a51010"/><stop offset="1" stop-color="#840000"/></linearGradient><clipPath id="clip-path" transform="translate(63.87 42.51)"><rect class="cls-1" width="293" height="123" rx="11.19"/></clipPath><linearGradient id="linear-gradient-4" x1="-63.87" y1="51.12" x2="138.54" y2="51.12" xlink:href="#linear-gradient"/></defs><title>2</title><g class="cls-2"><g id="Layer_1" data-name="Layer 1"><rect class="cls-1" x="63.87" y="42.51" width="293" height="123" rx="11.19"/><g class="cls-3"><rect class="cls-1" x="63.87" y="42.51" width="293" height="123" rx="11.19"/><g class="cls-4"><path class="cls-5" d="M4.66-39.71C-13.77-35.55-35.69-22.25-46.78-6.94c-9.72,13.43-16,27.87-16.81,44.43C-65,64.05-61.77,93.07-43.54,112.42A103.87,103.87,0,0,0,3.92,140.78c13.12,3.44,53.24,6.87,72.13,0,14.06-5.11,27.76-11.67,38.06-22.52,6.06-6.38,11.74-13.23,15.92-21,7.13-13.26,9.55-28.8,8.11-43.8s-4.59-30.7-11.75-43.95a93.35,93.35,0,0,0-28-32.14C85.39-32,47.06-49.28,4.66-39.71Z" transform="translate(63.87 42.51)"/></g></g><path class="cls-6" d="M210.08,92.35a4.66,4.66,0,0,1-3.07.9h-2.55v4.4h-2.54V85.42h5.26a4.22,4.22,0,0,1,2.89.94,3.7,3.7,0,0,1,1.08,2.93A3.79,3.79,0,0,1,210.08,92.35Zm-2-4.4a2.08,2.08,0,0,0-1.36-.41h-2.31v3.6h2.31a1.94,1.94,0,0,0,1.36-.44,1.8,1.8,0,0,0,.48-1.39A1.69,1.69,0,0,0,208.13,88Z" transform="translate(63.87 42.51)"/><path class="cls-6" d="M219.39,88.65a2.74,2.74,0,0,1,1.13.89,2.56,2.56,0,0,1,.45,1,14,14,0,0,1,.08,1.75v5.32h-2.41V92.14a2.49,2.49,0,0,0-.25-1.18,1.24,1.24,0,0,0-1.22-.63,1.66,1.66,0,0,0-1.41.63,2.89,2.89,0,0,0-.48,1.79v4.9h-2.37V85.46h2.37v4.31a2.92,2.92,0,0,1,1.18-1.1,3.46,3.46,0,0,1,1.42-.31A3.84,3.84,0,0,1,219.39,88.65Z" transform="translate(63.87 42.51)"/><path class="cls-6" d="M223.52,99.38l.29,0a4.85,4.85,0,0,0,.67,0,1.19,1.19,0,0,0,.53-.19,1.22,1.22,0,0,0,.38-.59,1.39,1.39,0,0,0,.16-.55l-3.33-9.45h2.64l2,6.68,1.87-6.68h2.51l-3.1,8.9a12.38,12.38,0,0,1-1.42,3.19,2.71,2.71,0,0,1-2.09.62h-.51l-.57,0Z" transform="translate(63.87 42.51)"/><path class="cls-6" d="M234.33,94.76a1.65,1.65,0,0,0,.32.9,2.25,2.25,0,0,0,1.64.47,2.44,2.44,0,0,0,1.11-.21.64.64,0,0,0,.41-.62.66.66,0,0,0-.33-.6A13.19,13.19,0,0,0,235,94a5.13,5.13,0,0,1-2.18-1,2.08,2.08,0,0,1-.63-1.63,2.8,2.8,0,0,1,1-2.15,4,4,0,0,1,2.77-.9,5.12,5.12,0,0,1,2.77.67A2.92,2.92,0,0,1,240,91.36h-2.37a1.31,1.31,0,0,0-.26-.72,1.62,1.62,0,0,0-1.33-.49,1.89,1.89,0,0,0-1.1.25.68.68,0,0,0-.33.56.62.62,0,0,0,.35.59,14.36,14.36,0,0,0,2.47.66,4.51,4.51,0,0,1,2.12,1,2.28,2.28,0,0,1,.69,1.7,2.75,2.75,0,0,1-1,2.2,4.74,4.74,0,0,1-3.1.85,4.66,4.66,0,0,1-3.15-.9,2.93,2.93,0,0,1-1-2.3Z" transform="translate(63.87 42.51)"/><path class="cls-6" d="M244.26,87.52h-2.4V85.34h2.4Zm-2.4,1.08h2.4v9.05h-2.4Z" transform="translate(63.87 42.51)"/><path class="cls-6" d="M251.85,91.85a2.06,2.06,0,0,0-.35-.91,1.41,1.41,0,0,0-1.24-.55,1.63,1.63,0,0,0-1.64,1.18,5.11,5.11,0,0,0-.23,1.68,4.61,4.61,0,0,0,.23,1.59,1.58,1.58,0,0,0,1.6,1.13,1.42,1.42,0,0,0,1.18-.44,2.19,2.19,0,0,0,.43-1.17h2.41a3.92,3.92,0,0,1-.78,2,3.8,3.8,0,0,1-3.3,1.55,3.85,3.85,0,0,1-3.21-1.3,5.2,5.2,0,0,1-1-3.36,5.29,5.29,0,0,1,1.14-3.62,4,4,0,0,1,3.14-1.29,4.76,4.76,0,0,1,2.79.76,3.55,3.55,0,0,1,1.28,2.7Z" transform="translate(63.87 42.51)"/><path class="cls-6" d="M257.6,94.76a1.57,1.57,0,0,0,.33.9,2.22,2.22,0,0,0,1.63.47,2.51,2.51,0,0,0,1.12-.21.69.69,0,0,0,.08-1.22,13.42,13.42,0,0,0-2.48-.72,5.08,5.08,0,0,1-2.17-1,2.08,2.08,0,0,1-.63-1.63,2.82,2.82,0,0,1,1-2.15,4,4,0,0,1,2.78-.9A5.08,5.08,0,0,1,262,89a2.89,2.89,0,0,1,1.23,2.34h-2.36a1.39,1.39,0,0,0-.26-.72,1.64,1.64,0,0,0-1.33-.49,1.93,1.93,0,0,0-1.11.25.68.68,0,0,0-.33.56.62.62,0,0,0,.35.59,15,15,0,0,0,2.47.66,4.46,4.46,0,0,1,2.12,1,2.26,2.26,0,0,1,.7,1.7,2.75,2.75,0,0,1-1,2.2,4.76,4.76,0,0,1-3.1.85,4.68,4.68,0,0,1-3.16-.9,2.93,2.93,0,0,1-1-2.3Z" transform="translate(63.87 42.51)"/><circle class="cls-7" cx="128.73" cy="104.01" r="7.69"/><path class="cls-8" d="M25.64,73.41a3.4,3.4,0,1,1,4.64-1.24A3.39,3.39,0,0,1,25.64,73.41Z" transform="translate(63.87 42.51)"/><path class="cls-6" d="M25.88,69.63a.83.83,0,0,0,.83-1.44.83.83,0,1,0-.83,1.44Z" transform="translate(63.87 42.51)"/><circle class="cls-8" cx="117.74" cy="67.03" r="3.39"/><path class="cls-6" d="M53.87,22.83A.83.83,0,1,1,53,22,.84.84,0,0,1,53.87,22.83Z" transform="translate(63.87 42.51)"/><path class="cls-6" d="M63.8,57.23a1.59,1.59,0,1,1-1.59-1.59A1.59,1.59,0,0,1,63.8,57.23Z" transform="translate(63.87 42.51)"/><path class="cls-8" d="M89.69,92.44a3.39,3.39,0,1,1,4.64-1.24A3.39,3.39,0,0,1,89.69,92.44Z" transform="translate(63.87 42.51)"/><path class="cls-9" d="M51.69,87.93c3.21,8.94,7.92,14.59,13.17,14.59s10-5.65,13.17-14.59a87.63,87.63,0,0,1-13.17-4.76A88.43,88.43,0,0,1,51.69,87.93Z" transform="translate(63.87 42.51)"/><path class="cls-9" d="M66.85,82.24A83.86,83.86,0,0,0,78.52,86.5a74,74,0,0,0,2.86-12.59c-2.18,1.48-4.48,2.92-6.87,4.31C72,79.69,69.39,81,66.85,82.24Z" transform="translate(63.87 42.51)"/><path class="cls-9" d="M45.9,52.86a82.26,82.26,0,0,0-9.52,8,74,74,0,0,0,9.47,8.77c-.19-2.63-.29-5.34-.29-8.1C45.56,58.55,45.67,55.66,45.9,52.86Z" transform="translate(63.87 42.51)"/><path class="cls-9" d="M55.21,78.22q-3.6-2.09-6.87-4.31A74,74,0,0,0,51.2,86.5a83.3,83.3,0,0,0,11.66-4.26C60.33,81,57.77,79.69,55.21,78.22Z" transform="translate(63.87 42.51)"/><path class="cls-9" d="M82,51.59c-2.2-1.52-4.53-3-7-4.41A102.49,102.49,0,0,0,64.86,42a101.41,101.41,0,0,0-10.18,5.15c-2.45,1.41-4.78,2.89-7,4.41-.21,2.67-.32,5.43-.32,8.25A99.17,99.17,0,0,0,48,71.23a99.71,99.71,0,0,0,9.55,6.25c2.44,1.41,4.89,2.69,7.31,3.84q3.63-1.72,7.31-3.84a101,101,0,0,0,9.55-6.25,101.48,101.48,0,0,0,.63-11.39C82.35,57,82.24,54.26,82,51.59Z" transform="translate(63.87 42.51)"/><path class="cls-9" d="M100.38,41c-2.62-4.55-9.87-5.8-19.21-4.11a89,89,0,0,1,2.45,13.79,87.64,87.64,0,0,1,10.71,9C100.47,52.44,103,45.54,100.38,41Z" transform="translate(63.87 42.51)"/><path class="cls-9" d="M84.16,61.5c0,2.76-.1,5.47-.3,8.1a74.11,74.11,0,0,0,9.48-8.77,83.12,83.12,0,0,0-9.52-8C84,55.66,84.16,58.55,84.16,61.5Z" transform="translate(63.87 42.51)"/><path class="cls-9" d="M55.21,44.78C57.6,43.4,60,42.14,62.37,41A75.39,75.39,0,0,0,50,37.17,84.73,84.73,0,0,0,47.89,49.4C50.21,47.81,52.65,46.26,55.21,44.78Z" transform="translate(63.87 42.51)"/><path class="cls-9" d="M48.55,36.88C39.21,35.19,32,36.44,29.34,41s-.09,11.45,6,18.7a87.77,87.77,0,0,1,10.72-9A89,89,0,0,1,48.55,36.88Z" transform="translate(63.87 42.51)"/><path class="cls-9" d="M81.82,49.4a83.42,83.42,0,0,0-2.14-12.23A75.48,75.48,0,0,0,67.34,41c2.38,1.15,4.78,2.41,7.17,3.79C77.07,46.26,79.51,47.81,81.82,49.4Z" transform="translate(63.87 42.51)"/><path class="cls-10" d="M46.1,50.67a87.77,87.77,0,0,0-10.72,9c.32.38.66.76,1,1.14a82.26,82.26,0,0,1,9.52-8C46,52.12,46,51.39,46.1,50.67Z" transform="translate(63.87 42.51)"/><path class="cls-10" d="M64.86,81.32c.67.32,1.33.62,2,.92,2.54-1.2,5.1-2.55,7.66-4,2.39-1.39,4.69-2.83,6.87-4.31.12-.88.24-1.77.34-2.68a101,101,0,0,1-9.55,6.25Q68.5,79.6,64.86,81.32Z" transform="translate(63.87 42.51)"/><path class="cls-10" d="M47.89,49.4c-.07.72-.14,1.45-.2,2.19,2.21-1.52,4.54-3,7-4.41A101.41,101.41,0,0,1,64.86,42c-.83-.36-1.66-.71-2.49-1C60,42.14,57.6,43.4,55.21,44.78,52.65,46.26,50.21,47.81,47.89,49.4Z" transform="translate(63.87 42.51)"/><path class="cls-10" d="M29.93,65.86a.73.73,0,0,0,.16,1h0a.71.71,0,0,0,1-.15,54.45,54.45,0,0,1,3.59-4.16l-1-1.08C32.27,63,31,64.42,29.93,65.86Z" transform="translate(63.87 42.51)"/><path class="cls-11" d="M47.89,49.4A84.73,84.73,0,0,1,50,37.17l-1.49-.29A89,89,0,0,0,46.1,50.67C46.69,50.24,47.28,49.82,47.89,49.4Z" transform="translate(63.87 42.51)"/><path class="cls-11" d="M47.69,51.59c-.61.42-1.2.84-1.79,1.27-.23,2.8-.34,5.69-.34,8.64,0,2.76.1,5.47.29,8.1.7.55,1.42,1.09,2.15,1.63a99.17,99.17,0,0,1-.63-11.39C47.37,57,47.48,54.26,47.69,51.59Z" transform="translate(63.87 42.51)"/><path class="cls-11" d="M48.34,73.91c-.76-.52-1.51-1-2.25-1.58a88.18,88.18,0,0,0,2.73,14.79c.78-.19,1.58-.4,2.38-.62A74,74,0,0,1,48.34,73.91Z" transform="translate(63.87 42.51)"/><path class="cls-11" d="M64.86,15.51c-3,0-5.82,1.62-8.35,4.51a.72.72,0,0,0,.12,1.06l0,0a.71.71,0,0,0,1-.11c2.21-2.46,4.66-3.83,7.25-3.83,5.83,0,11,7,14.17,17.65.48-.13,1-.24,1.44-.35C77,23,71.28,15.51,64.86,15.51Z" transform="translate(63.87 42.51)"/><path class="cls-11" d="M52.51,29.62a.71.71,0,0,0-.36-.91h0a.72.72,0,0,0-1,.37,55.41,55.41,0,0,0-1.92,5.39c.47.11,1,.22,1.44.35Q51.52,32,52.51,29.62Z" transform="translate(63.87 42.51)"/><path class="cls-10" d="M62.86,82.24A83.3,83.3,0,0,1,51.2,86.5c-.8.22-1.6.43-2.38.62C38,89.71,29.38,88.71,26.46,83.67c-1.29-2.24-1.33-5-.31-8.19a.7.7,0,0,0-.38-.88h0a.73.73,0,0,0-1,.42c-1.24,3.63-1.23,6.9.27,9.49,3.2,5.56,12.51,6.75,24.21,4,.81-.18,1.62-.39,2.45-.61a88.43,88.43,0,0,0,13.17-4.76C64.19,82.87,63.53,82.56,62.86,82.24Z" transform="translate(63.87 42.51)"/><path class="cls-11" d="M46.1,50.67c-.08.72-.14,1.45-.2,2.19.59-.43,1.18-.85,1.79-1.27.06-.74.13-1.47.2-2.19C47.28,49.82,46.69,50.24,46.1,50.67Z" transform="translate(63.87 42.51)"/><path class="cls-12" d="M82,51.59c0-.74-.12-1.47-.2-2.19-2.31-1.59-4.75-3.14-7.31-4.62-2.39-1.38-4.79-2.64-7.17-3.79-.82.33-1.65.68-2.48,1A102.49,102.49,0,0,1,75,47.18C77.49,48.59,79.82,50.07,82,51.59Z" transform="translate(63.87 42.51)"/><path class="cls-12" d="M86.1,89.57a.73.73,0,0,0,.81-.66h0a.71.71,0,0,0-.62-.76c-1.72-.23-3.53-.58-5.4-1-.13.48-.27.95-.42,1.42C82.42,89,84.3,89.34,86.1,89.57Z" transform="translate(63.87 42.51)"/><path class="cls-12" d="M95.06,62.58c7.67,8.1,11.11,16,8.19,21.09-1.29,2.24-3.7,3.68-6.93,4.36a.72.72,0,0,0-.57.77v0a.73.73,0,0,0,.86.63c3.76-.74,6.59-2.38,8.08-5,3.21-5.56-.41-14.22-8.6-23Z" transform="translate(63.87 42.51)"/><path class="cls-12" d="M36.38,60.83c-.6.58-1.17,1.17-1.72,1.75a87.36,87.36,0,0,0,11.43,9.75Q46,71,45.85,69.6A74,74,0,0,1,36.38,60.83Z" transform="translate(63.87 42.51)"/><path class="cls-12" d="M64.86,83.17A87.63,87.63,0,0,0,78,87.93c.17-.47.33-.94.49-1.43a83.86,83.86,0,0,1-11.67-4.26C66.19,82.56,65.52,82.87,64.86,83.17Z" transform="translate(63.87 42.51)"/><path class="cls-12" d="M62.86,82.24c.67-.3,1.33-.6,2-.92-2.42-1.15-4.87-2.43-7.31-3.84A99.71,99.71,0,0,1,48,71.23c.1.91.21,1.8.34,2.68q3.27,2.22,6.87,4.31C57.77,79.69,60.33,81,62.86,82.24Z" transform="translate(63.87 42.51)"/><path class="cls-12" d="M83.82,52.86a83.12,83.12,0,0,1,9.52,8q.51-.57,1-1.14a87.64,87.64,0,0,0-10.71-9C83.7,51.39,83.76,52.12,83.82,52.86Z" transform="translate(63.87 42.51)"/><path class="cls-10" d="M104.69,38.5c-3.21-5.56-12.52-6.75-24.22-4-.48.11-1,.22-1.44.35a87.46,87.46,0,0,0-14.17,5c.82.38,1.65.76,2.48,1.16a75.48,75.48,0,0,1,12.34-3.82l1.49-.29c9.34-1.69,16.59-.44,19.21,4.11s.09,11.45-6,18.7q-.48.57-1,1.14a74.11,74.11,0,0,1-9.48,8.77q-.1,1.38-.24,2.73a86.83,86.83,0,0,0,11.44-9.75l1-1.08C104.28,52.72,107.9,44.06,104.69,38.5Z" transform="translate(63.87 42.51)"/><path class="cls-12" d="M64.86,42c.83-.36,1.66-.71,2.48-1-.83-.4-1.66-.78-2.48-1.16-.83.38-1.66.76-2.49,1.16C63.2,41.32,64,41.67,64.86,42Z" transform="translate(63.87 42.51)"/><path class="cls-12" d="M64.86,83.17c.66-.3,1.33-.61,2-.93-.66-.3-1.32-.6-2-.92-.67.32-1.33.62-2,.92C63.53,82.56,64.19,82.87,64.86,83.17Z" transform="translate(63.87 42.51)"/><path class="cls-12" d="M36.38,60.83c-.34-.38-.68-.76-1-1.14-.6.6-1.19,1.21-1.75,1.81l1,1.08C35.21,62,35.78,61.41,36.38,60.83Z" transform="translate(63.87 42.51)"/><path class="cls-12" d="M50.69,34.81c-.48-.13-1-.24-1.44-.35-11.71-2.71-21-1.52-24.22,4s.41,14.22,8.6,23c.56-.6,1.15-1.21,1.75-1.81-6.13-7.25-8.67-14.15-6-18.7s9.87-5.8,19.21-4.11l1.49.29A75.39,75.39,0,0,1,62.37,41c.83-.4,1.66-.78,2.49-1.16A87.46,87.46,0,0,0,50.69,34.81Z" transform="translate(63.87 42.51)"/><path class="cls-11" d="M83.82,52.86c-.06-.74-.12-1.47-.2-2.19a89,89,0,0,0-2.45-13.79l-1.49.29A83.42,83.42,0,0,1,81.82,49.4c.08.72.15,1.45.2,2.19.22,2.67.33,5.43.33,8.25a101.48,101.48,0,0,1-.63,11.39c-.1.91-.22,1.8-.34,2.68A74,74,0,0,1,78.52,86.5c-.16.49-.32,1-.49,1.43-3.21,8.94-7.92,14.59-13.17,14.59s-10-5.65-13.17-14.59c-.83.22-1.64.43-2.45.61,3.51,11.49,9.2,18.95,15.62,18.95S77,100,80.47,88.54c.15-.47.29-.94.42-1.42a87.18,87.18,0,0,0,2.73-14.79q.13-1.35.24-2.73c.2-2.63.3-5.34.3-8.1C84.16,58.55,84,55.66,83.82,52.86Z" transform="translate(63.87 42.51)"/><path class="cls-12" d="M48,71.23c-.73-.54-1.45-1.08-2.15-1.63q.1,1.38.24,2.73c.74.53,1.49,1.06,2.25,1.58C48.21,73,48.1,72.14,48,71.23Z" transform="translate(63.87 42.51)"/><path class="cls-6" d="M89.93,88.66a.82.82,0,0,0,1.13-.3.83.83,0,1,0-1.13.3Z" transform="translate(63.87 42.51)"/></g></g></svg>