<svg id="Component_99_1" data-name="Component 99 – 1" xmlns="http://www.w3.org/2000/svg" xmlns:xlink="http://www.w3.org/1999/xlink" width="341" height="165" viewBox="0 0 341 165">
  <defs>
    <clipPath id="clip-path">
      <rect id="Rectangle_1600" data-name="Rectangle 1600" width="341" height="165" rx="16" transform="translate(744 1040)" fill="#b40000"/>
    </clipPath>
  </defs>
  <g id="Mask_Group_39" data-name="Mask Group 39" transform="translate(-744 -1040)" clip-path="url(#clip-path)">
    <g id="Rectangle_1601" data-name="Rectangle 1601" transform="translate(732 1019)" fill="#b40000" stroke="#707070" stroke-width="1">
      <rect width="361" height="191" stroke="none"/>
      <rect x="0.5" y="0.5" width="360" height="190" fill="none"/>
    </g>
    <ellipse id="Ellipse_237" data-name="Ellipse 237" cx="181" cy="174.5" rx="181" ry="174.5" transform="translate(606 932)" fill="#6a0000" opacity="0.213"/>
  </g>
  <text id="Physics" transform="translate(236 140)" fill="#fff" font-size="19" font-family="WorkSans-Bold, Work Sans" font-weight="700" letter-spacing="-0.009em"><tspan x="0" y="0">Physics</tspan></text>
  <g id="proton" transform="translate(35 30)">
    <path id="Path_4555" data-name="Path 4555" d="M55,47a7.945,7.945,0,0,0-4.9,1.689l-9.664-9.665A5.972,5.972,0,0,0,39.7,30.29l13.044-4.7A4.973,4.973,0,1,0,52,23a4.893,4.893,0,0,0,.072.711L38.966,28.43c.01-.144.034-.284.034-.43a5.979,5.979,0,0,0-2.016-4.474l4.04-8.815a7.02,7.02,0,1,0-1.817-.836l-3.931,8.577a5.989,5.989,0,0,0-8.25,5.03L14.312,19.006A7.026,7.026,0,1,0,13.2,20.669L25.562,28.91A6.973,6.973,0,0,0,23.4,39.185l-4.368,4.368a11.008,11.008,0,1,0,1.414,1.413L24.816,40.6A6.939,6.939,0,0,0,31,41.705v5.437a4,4,0,1,0,2,0V40.736c.146-.1.29-.207.428-.32a5.973,5.973,0,0,0,5.432-.143L48.688,50.1A7.991,7.991,0,1,0,55,47Zm2-27a3,3,0,1,1-3,3A3,3,0,0,1,57,20ZM38,8a5,5,0,1,1,5,5A5.006,5.006,0,0,1,38,8ZM8,21a5,5,0,1,1,5-5A5.006,5.006,0,0,1,8,21ZM34,51a2,2,0,1,1-2-2A2,2,0,0,1,34,51ZM33,24a4,4,0,0,1,4,4,3.962,3.962,0,0,1-1.993,3.424A7,7,0,0,0,29,28,4,4,0,0,1,33,24ZM12,61a9,9,0,1,1,9-9A9.01,9.01,0,0,1,12,61ZM24,35a5,5,0,1,1,5,5A5.006,5.006,0,0,1,24,35Zm10.851,3.832a6.9,6.9,0,0,0,.929-5.541,5.991,5.991,0,0,0,2.1-1.818A4,4,0,0,1,36,39,4.028,4.028,0,0,1,34.851,38.832ZM55,61a6,6,0,1,1,6-6A6.006,6.006,0,0,1,55,61Z" fill="#fff"/>
    <path id="Path_4556" data-name="Path 4556" d="M5,52H7a5.006,5.006,0,0,1,5-5V45A7.008,7.008,0,0,0,5,52Z" fill="#fff"/>
    <path id="Path_4557" data-name="Path 4557" d="M55,57v2a4,4,0,0,0,4-4H57A2,2,0,0,1,55,57Z" fill="#fff"/>
  </g>
</svg>
