<?xml version="1.0" encoding="utf-8"?>
<!-- Generator: Adobe Illustrator 23.0.1, SVG Export Plug-In . SVG Version: 6.00 Build 0)  -->
<svg version="1.1" id="Layer_1" xmlns="http://www.w3.org/2000/svg" xmlns:xlink="http://www.w3.org/1999/xlink" x="0px" y="0px"
	 viewBox="0 0 293 123" style="enable-background:new 0 0 293 123;" xml:space="preserve">
<style type="text/css">
	.st0{fill:url(#SVGID_1_);}
	.st1{clip-path:url(#SVGID_3_);}
	.st2{fill:url(#SVGID_4_);}
	.st3{opacity:0.27;}
	.st4{fill:url(#SVGID_5_);}
	.st5{fill:#FFFFFF;}
	.st6{fill:#F4429B;}
	.st7{fill:#5097FF;}
	.st8{fill:none;}
	.st9{fill:#FB7A01;}
	.st10{fill:#FFE766;}
	.st11{fill:#00C2B8;}
</style>
<title>Physics</title>
<g>
	<g>
		
			<linearGradient id="SVGID_1_" gradientUnits="userSpaceOnUse" x1="-63.87" y1="40.432" x2="229.13" y2="40.432" gradientTransform="matrix(1 0 0 -1 0 101.8841)">
			<stop  offset="0" style="stop-color:#EE3434"/>
			<stop  offset="0.66" style="stop-color:#A51010"/>
			<stop  offset="1" style="stop-color:#840000"/>
		</linearGradient>
		<path class="st0" d="M11.2,0h270.6C288,0,293,5,293,11.1v100.6c0,6.2-5,11.2-11.2,11.2H11.2C5,123,0,117.9,0,111.8V11.1
			C0,5,5,0,11.2,0z"/>
		<g>
			<defs>
				<path id="SVGID_2_" d="M11.2,0h270.6C288,0,293,5,293,11.1v100.6c0,6.2-5,11.2-11.2,11.2H11.2C5,123,0,117.9,0,111.8V11.1
					C0,5,5,0,11.2,0z"/>
			</defs>
			<clipPath id="SVGID_3_">
				<use xlink:href="#SVGID_2_"  style="overflow:visible;"/>
			</clipPath>
			<g class="st1">
				
					<linearGradient id="SVGID_4_" gradientUnits="userSpaceOnUse" x1="-63.87" y1="40.432" x2="229.13" y2="40.432" gradientTransform="matrix(1 0 0 -1 0 101.8841)">
					<stop  offset="0" style="stop-color:#EE3434"/>
					<stop  offset="0.66" style="stop-color:#A51010"/>
					<stop  offset="1" style="stop-color:#840000"/>
				</linearGradient>
				<path class="st2" d="M11.2,0h270.6C288,0,293,5,293,11.1v100.6c0,6.2-5,11.2-11.2,11.2H11.2C5,123,0,117.9,0,111.8V11.1
					C0,5,5,0,11.2,0z"/>
				<g class="st3">
					
						<linearGradient id="SVGID_5_" gradientUnits="userSpaceOnUse" x1="-127.752" y1="93.323" x2="74.6675" y2="93.323" gradientTransform="matrix(1 0 0 -1 63.87 144.3941)">
						<stop  offset="0" style="stop-color:#EE3434"/>
						<stop  offset="0.66" style="stop-color:#A51010"/>
						<stop  offset="1" style="stop-color:#840000"/>
					</linearGradient>
					<path class="st4" d="M4.7-39.8C-13.8-35.6-35.7-22.3-46.8-7c-9.7,13.4-16,27.9-16.8,44.4C-65,64-61.8,93-43.5,112.4
						c13,13.6,29.4,23.4,47.5,28.4c13.1,3.4,53.2,6.9,72.1,0c14.1-5.1,27.8-11.7,38.1-22.5c6.1-6.4,11.7-13.2,15.9-21
						c7.1-13.3,9.6-28.8,8.1-43.8s-4.6-30.7-11.8-43.9c-6.7-12.7-16.3-23.7-28-32.1C85.4-32,47.1-49.3,4.7-39.8z"/>
				</g>
			</g>
		</g>
		<path class="st5" d="M210.1,92.3c-0.9,0.7-2,1-3.1,0.9h-2.6v4.4h-2.5V85.4h5.3c1-0.1,2.1,0.3,2.9,0.9c0.8,0.8,1.2,1.8,1.1,2.9
			C211.3,90.4,210.9,91.5,210.1,92.3z M208.1,87.9c-0.4-0.3-0.9-0.4-1.4-0.4h-2.3v3.6h2.3c0.5,0,1-0.1,1.4-0.4
			c0.4-0.4,0.5-0.9,0.5-1.4C208.6,88.8,208.5,88.3,208.1,87.9L208.1,87.9z"/>
		<path class="st5" d="M219.4,88.6c0.4,0.2,0.8,0.5,1.1,0.9c0.2,0.3,0.4,0.6,0.4,1c0.1,0.6,0.1,1.2,0.1,1.8v5.3h-2.4v-5.5
			c0-0.4-0.1-0.8-0.2-1.2c-0.2-0.4-0.7-0.7-1.2-0.6c-0.5,0-1.1,0.2-1.4,0.6c-0.4,0.5-0.5,1.2-0.5,1.8v4.9h-2.4V85.4h2.4v4.3
			c0.3-0.5,0.7-0.9,1.2-1.1c0.4-0.2,0.9-0.3,1.4-0.3C218.4,88.3,218.9,88.4,219.4,88.6z"/>
		<path class="st5" d="M223.5,99.3h0.3c0.2,0,0.4,0,0.7,0c0.2,0,0.4-0.1,0.5-0.2c0.2-0.2,0.3-0.4,0.4-0.6c0.1-0.2,0.1-0.4,0.2-0.6
			l-3.3-9.4h2.6l2,6.7l1.9-6.7h2.5l-3.1,8.9c-0.3,1.1-0.8,2.2-1.4,3.2c-0.6,0.5-1.3,0.7-2.1,0.6h-0.5h-0.6L223.5,99.3z"/>
		<path class="st5" d="M234.3,94.7c0,0.3,0.1,0.6,0.3,0.9c0.5,0.4,1.1,0.5,1.6,0.5c0.4,0,0.8-0.1,1.1-0.2c0.3-0.1,0.4-0.3,0.4-0.6
			c0-0.2-0.1-0.5-0.3-0.6c-0.8-0.3-1.6-0.5-2.5-0.7c-0.8-0.2-1.5-0.5-2.2-1c-0.4-0.4-0.7-1-0.6-1.6c0-0.8,0.4-1.6,1-2.2
			c0.8-0.6,1.8-1,2.8-0.9c1,0,1.9,0.2,2.8,0.7c0.8,0.5,1.3,1.4,1.3,2.4h-2.4c0-0.3-0.1-0.5-0.3-0.7c-0.3-0.4-0.8-0.5-1.3-0.5
			c-0.4,0-0.8,0.1-1.1,0.2c-0.2,0.1-0.3,0.3-0.3,0.6c0,0.2,0.1,0.5,0.4,0.6c0.8,0.3,1.6,0.5,2.5,0.7c0.8,0.1,1.5,0.5,2.1,1
			c0.5,0.4,0.7,1.1,0.7,1.7c0,0.8-0.3,1.7-1,2.2c-0.9,0.6-2,0.9-3.1,0.8c-1.1,0.1-2.2-0.2-3.1-0.9c-0.7-0.6-1-1.4-1-2.3L234.3,94.7z
			"/>
		<path class="st5" d="M244.3,87.5h-2.4v-2.2h2.4V87.5z M241.9,88.6h2.4v9.1h-2.4V88.6z"/>
		<path class="st5" d="M251.9,91.8c0-0.3-0.2-0.6-0.4-0.9c-0.3-0.4-0.8-0.6-1.2-0.6c-0.8,0-1.4,0.5-1.6,1.2
			c-0.2,0.5-0.2,1.1-0.2,1.7c0,0.5,0.1,1.1,0.2,1.6c0.2,0.7,0.9,1.2,1.6,1.1c0.4,0,0.9-0.1,1.2-0.4c0.3-0.3,0.4-0.7,0.4-1.2h2.4
			c-0.1,0.7-0.3,1.4-0.8,2c-0.8,1-2,1.6-3.3,1.6c-1.2,0.1-2.4-0.4-3.2-1.3c-0.7-1-1.1-2.2-1-3.4c-0.1-1.3,0.3-2.6,1.1-3.6
			c0.8-0.9,2-1.3,3.1-1.3c1,0,2,0.2,2.8,0.8c0.8,0.7,1.3,1.7,1.3,2.7L251.9,91.8z"/>
		<path class="st5" d="M257.6,94.7c0,0.3,0.1,0.6,0.3,0.9c0.5,0.4,1,0.5,1.6,0.5c0.4,0,0.8-0.1,1.1-0.2c0.3-0.2,0.5-0.6,0.4-0.9
			c-0.1-0.1-0.2-0.2-0.3-0.3c-0.8-0.3-1.6-0.6-2.5-0.7c-0.8-0.2-1.5-0.5-2.2-1c-0.4-0.4-0.7-1-0.6-1.6c0-0.8,0.4-1.6,1-2.2
			c0.8-0.6,1.8-1,2.8-0.9c1,0,1.9,0.2,2.7,0.7c0.8,0.5,1.2,1.4,1.2,2.3h-2.4c0-0.3-0.1-0.5-0.3-0.7c-0.3-0.4-0.8-0.5-1.3-0.5
			c-0.4,0-0.8,0.1-1.1,0.2c-0.2,0.1-0.3,0.3-0.3,0.6c0,0.2,0.1,0.5,0.4,0.6c0.8,0.3,1.6,0.5,2.5,0.7c0.8,0.1,1.5,0.5,2.1,1
			c0.5,0.4,0.7,1.1,0.7,1.7c0,0.8-0.3,1.7-1,2.2c-0.9,0.6-2,0.9-3.1,0.8c-1.1,0.1-2.3-0.2-3.2-0.9c-0.7-0.6-1-1.4-1-2.3L257.6,94.7z
			"/>
		<circle class="st6" cx="64.9" cy="61.5" r="7.7"/>
		<path class="st7" d="M25.6,73.4c-1.6-0.9-2.2-3-1.2-4.6c0.9-1.6,3-2.2,4.6-1.2c1.6,0.9,2.2,3,1.2,4.6c0,0,0,0,0,0
			C29.3,73.7,27.3,74.3,25.6,73.4C25.6,73.4,25.6,73.4,25.6,73.4z"/>
		<path class="st5" d="M25.9,69.6c0.4,0.2,0.9,0.1,1.1-0.3c0.2-0.4,0.1-0.9-0.3-1.1s-0.9-0.1-1.1,0.3C25.3,68.8,25.5,69.4,25.9,69.6
			z"/>
		<circle class="st7" cx="53.9" cy="24.5" r="3.4"/>
		<path class="st5" d="M53.9,22.8c0,0.5-0.4,0.8-0.8,0.8s-0.8-0.4-0.8-0.8c0-0.4,0.3-0.8,0.8-0.8C53.5,21.9,53.9,22.3,53.9,22.8
			C53.9,22.8,53.9,22.8,53.9,22.8z"/>
		<path class="st5" d="M63.8,57.2c0,0.9-0.7,1.6-1.6,1.6s-1.6-0.7-1.6-1.6s0.7-1.6,1.6-1.6S63.8,56.3,63.8,57.2L63.8,57.2z"/>
		<path class="st7" d="M89.7,92.4c-1.6-0.9-2.2-3-1.2-4.6c0.9-1.6,3-2.2,4.6-1.2c1.6,0.9,2.2,3,1.2,4.6
			C93.4,92.8,91.3,93.3,89.7,92.4C89.7,92.4,89.7,92.4,89.7,92.4z"/>
		<path class="st8" d="M51.7,87.9c3.2,8.9,7.9,14.6,13.2,14.6s10-5.7,13.2-14.6c-4.5-1.2-8.9-2.8-13.2-4.8
			C60.6,85.1,56.2,86.6,51.7,87.9z"/>
		<path class="st8" d="M66.8,82.2c3.8,1.7,7.7,3.1,11.7,4.3c1.3-4.1,2.3-8.3,2.9-12.6c-2.2,1.5-4.5,2.9-6.9,4.3
			C72,79.6,69.4,81,66.8,82.2z"/>
		<path class="st8" d="M45.9,52.8c-3.4,2.4-6.6,5.1-9.5,8c2.9,3.2,6.1,6.1,9.5,8.8c-0.2-2.6-0.3-5.3-0.3-8.1
			C45.6,58.5,45.7,55.6,45.9,52.8z"/>
		<path class="st8" d="M55.2,78.2c-2.4-1.4-4.7-2.8-6.9-4.3c0.6,4.3,1.5,8.5,2.9,12.6c4-1.1,7.9-2.6,11.7-4.3
			C60.3,81,57.8,79.6,55.2,78.2z"/>
		<path class="st8" d="M82,51.5c-2.2-1.5-4.5-3-7-4.4c-3.3-1.9-6.7-3.6-10.1-5.2c-3.5,1.5-6.9,3.2-10.2,5.2c-2.5,1.4-4.8,2.9-7,4.4
			c-0.2,2.7-0.3,5.4-0.3,8.2c0,3.8,0.2,7.6,0.6,11.4c3.1,2.3,6.2,4.4,9.5,6.2c2.4,1.4,4.9,2.7,7.3,3.8c2.4-1.1,4.9-2.4,7.3-3.8
			c3.3-1.9,6.5-4,9.6-6.2c0.4-3.8,0.6-7.6,0.6-11.4C82.3,57,82.2,54.2,82,51.5z"/>
		<path class="st8" d="M100.4,41c-2.6-4.5-9.9-5.8-19.2-4.1c1.2,4.5,2,9.1,2.4,13.8c3.8,2.7,7.4,5.7,10.7,9
			C100.5,52.4,103,45.5,100.4,41z"/>
		<path class="st8" d="M84.2,61.5c0,2.8-0.1,5.5-0.3,8.1c3.4-2.6,6.6-5.6,9.5-8.8c-3-2.9-6.2-5.6-9.5-8C84,55.6,84.2,58.5,84.2,61.5
			z"/>
		<path class="st8" d="M55.2,44.7c2.4-1.4,4.8-2.6,7.2-3.8c-4-1.6-8.1-2.9-12.4-3.8c-1,4-1.7,8.1-2.1,12.2
			C50.2,47.8,52.7,46.2,55.2,44.7z"/>
		<path class="st8" d="M48.5,36.8C39.2,35.1,32,36.4,29.3,41s-0.1,11.5,6,18.7c3.3-3.3,6.9-6.3,10.7-9C46.5,46,47.4,41.4,48.5,36.8z
			"/>
		<path class="st8" d="M81.8,49.4c-0.4-4.1-1.1-8.2-2.1-12.2c-4.2,0.9-8.3,2.2-12.3,3.8c2.4,1.2,4.8,2.4,7.2,3.8
			C77.1,46.2,79.5,47.8,81.8,49.4z"/>
		<path class="st9" d="M46.1,50.6c-3.8,2.7-7.4,5.7-10.7,9c0.3,0.4,0.7,0.8,1,1.1c3-2.9,6.1-5.6,9.5-8C46,52.1,46,51.3,46.1,50.6z"
			/>
		<path class="st9" d="M64.9,81.3c0.7,0.3,1.3,0.6,2,0.9c2.5-1.2,5.1-2.6,7.7-4c2.4-1.4,4.7-2.8,6.9-4.3c0.1-0.9,0.2-1.8,0.3-2.7
			c-3.1,2.3-6.3,4.3-9.6,6.2C69.7,78.9,67.3,80.1,64.9,81.3z"/>
		<path class="st9" d="M47.9,49.4c-0.1,0.7-0.1,1.5-0.2,2.2c2.2-1.5,4.5-3,7-4.4c3.3-1.9,6.7-3.6,10.2-5.2c-0.8-0.4-1.7-0.7-2.5-1
			c-2.4,1.1-4.8,2.4-7.2,3.8C52.7,46.2,50.2,47.8,47.9,49.4z"/>
		<path class="st9" d="M29.9,65.8c-0.2,0.3-0.2,0.8,0.2,1l0,0c0.3,0.2,0.8,0.2,1-0.1c0,0,0,0,0,0c1.1-1.4,2.3-2.8,3.6-4.2l-1-1.1
			C32.3,63,31,64.4,29.9,65.8z"/>
		<path class="st10" d="M47.9,49.4c0.4-4.1,1.1-8.2,2.1-12.2l-1.5-0.3c-1.2,4.5-2,9.1-2.4,13.8C46.7,50.2,47.3,49.8,47.9,49.4z"/>
		<path class="st10" d="M47.7,51.5c-0.6,0.4-1.2,0.8-1.8,1.3c-0.2,2.8-0.3,5.7-0.3,8.6c0,2.8,0.1,5.5,0.3,8.1
			c0.7,0.6,1.4,1.1,2.2,1.6c-0.4-3.8-0.6-7.6-0.6-11.4C47.4,57,47.5,54.2,47.7,51.5z"/>
		<path class="st10" d="M48.3,73.9c-0.8-0.5-1.5-1-2.2-1.6c0.5,5,1.4,9.9,2.7,14.8c0.8-0.2,1.6-0.4,2.4-0.6
			C49.9,82.3,48.9,78.1,48.3,73.9z"/>
		<path class="st10" d="M64.9,15.5c-3,0-5.8,1.6-8.3,4.5c-0.3,0.3-0.2,0.8,0.1,1c0,0,0,0,0.1,0l0,0c0.3,0.2,0.8,0.2,1-0.1
			c0,0,0,0,0,0c2.2-2.5,4.7-3.8,7.3-3.8c5.8,0,11,7,14.2,17.6c0.5-0.1,1-0.2,1.4-0.3C77,23,71.3,15.5,64.9,15.5z"/>
		<path class="st10" d="M52.5,29.6c0.1-0.4,0-0.8-0.4-0.9l0,0c-0.4-0.2-0.8,0-1,0.3c0,0,0,0,0,0.1c-0.7,1.8-1.4,3.6-1.9,5.4
			c0.5,0.1,1,0.2,1.4,0.3C51.2,32.9,51.9,31.2,52.5,29.6z"/>
		<path class="st9" d="M62.9,82.2c-3.8,1.7-7.7,3.1-11.7,4.3c-0.8,0.2-1.6,0.4-2.4,0.6c-10.8,2.6-19.4,1.6-22.4-3.5
			c-1.3-2.2-1.3-5-0.3-8.2c0.1-0.3,0-0.7-0.4-0.9l0,0c-0.4-0.2-0.8,0-1,0.3c0,0,0,0,0,0.1c-1.2,3.6-1.2,6.9,0.3,9.5
			c3.2,5.6,12.5,6.8,24.2,4c0.8-0.2,1.6-0.4,2.5-0.6c4.5-1.2,8.9-2.8,13.2-4.8C64.2,82.8,63.5,82.5,62.9,82.2z"/>
		<path class="st10" d="M46.1,50.6c-0.1,0.7-0.1,1.5-0.2,2.2c0.6-0.4,1.2-0.8,1.8-1.3c0.1-0.7,0.1-1.5,0.2-2.2
			C47.3,49.8,46.7,50.2,46.1,50.6z"/>
		<path class="st11" d="M82,51.5c0-0.7-0.1-1.5-0.2-2.2c-2.3-1.6-4.8-3.1-7.3-4.6c-2.4-1.4-4.8-2.6-7.2-3.8c-0.8,0.3-1.7,0.7-2.5,1
			c3.5,1.5,6.9,3.3,10.2,5.2C77.5,48.5,79.8,50,82,51.5z"/>
		<path class="st11" d="M86.1,89.5c0.4,0,0.8-0.2,0.8-0.6c0,0,0,0,0,0l0,0c0-0.4-0.2-0.7-0.6-0.8c-1.7-0.2-3.5-0.6-5.4-1
			c-0.1,0.5-0.3,0.9-0.4,1.4C82.4,89,84.3,89.3,86.1,89.5z"/>
		<path class="st11" d="M95.1,62.5c7.7,8.1,11.1,16,8.2,21.1c-1.3,2.2-3.7,3.7-6.9,4.4c-0.4,0.1-0.6,0.4-0.6,0.8l0,0
			c0,0.4,0.4,0.7,0.8,0.6c0,0,0,0,0,0c3.8-0.7,6.6-2.4,8.1-5c3.2-5.6-0.4-14.2-8.6-23L95.1,62.5z"/>
		<path class="st11" d="M36.4,60.8c-0.6,0.6-1.2,1.2-1.7,1.8c3.5,3.6,7.3,6.8,11.4,9.8c-0.1-0.9-0.1-1.8-0.2-2.7
			C42.4,66.9,39.3,64,36.4,60.8z"/>
		<path class="st11" d="M64.9,83.1c4.2,1.9,8.6,3.5,13.1,4.8c0.2-0.5,0.3-0.9,0.5-1.4c-4-1.1-7.9-2.6-11.7-4.3
			C66.2,82.5,65.5,82.8,64.9,83.1z"/>
		<path class="st11" d="M62.9,82.2c0.7-0.3,1.3-0.6,2-0.9c-2.4-1.2-4.9-2.4-7.3-3.8c-3.3-1.9-6.5-4-9.5-6.2c0.1,0.9,0.2,1.8,0.3,2.7
			c2.2,1.5,4.5,2.9,6.9,4.3C57.8,79.6,60.3,81,62.9,82.2z"/>
		<path class="st11" d="M83.8,52.8c3.4,2.4,6.6,5.1,9.5,8c0.3-0.4,0.7-0.8,1-1.1c-3.3-3.3-6.9-6.3-10.7-9
			C83.7,51.3,83.8,52.1,83.8,52.8z"/>
		<path class="st9" d="M104.7,38.5c-3.2-5.6-12.5-6.7-24.2-4c-0.5,0.1-1,0.2-1.4,0.3c-4.9,1.3-9.6,2.9-14.2,5
			c0.8,0.4,1.7,0.8,2.5,1.2c4-1.6,8.1-2.9,12.3-3.8l1.5-0.3c9.3-1.7,16.6-0.4,19.2,4.1s0.1,11.5-6,18.7c-0.3,0.4-0.7,0.8-1,1.1
			c-2.9,3.2-6.1,6.1-9.5,8.8c-0.1,0.9-0.1,1.8-0.2,2.7c4.1-2.9,7.9-6.2,11.4-9.8l1-1.1C104.3,52.7,107.9,44,104.7,38.5z"/>
		<path class="st11" d="M64.9,42c0.8-0.4,1.7-0.7,2.5-1c-0.8-0.4-1.7-0.8-2.5-1.2c-0.8,0.4-1.7,0.8-2.5,1.2
			C63.2,41.3,64,41.6,64.9,42z"/>
		<path class="st11" d="M64.9,83.1c0.7-0.3,1.3-0.6,2-0.9c-0.7-0.3-1.3-0.6-2-0.9c-0.7,0.3-1.3,0.6-2,0.9
			C63.5,82.5,64.2,82.8,64.9,83.1z"/>
		<path class="st11" d="M36.4,60.8c-0.3-0.4-0.7-0.8-1-1.1c-0.6,0.6-1.2,1.2-1.8,1.8l1,1.1C35.2,62,35.8,61.4,36.4,60.8z"/>
		<path class="st11" d="M50.7,34.8c-0.5-0.1-1-0.2-1.4-0.3c-11.7-2.7-21-1.5-24.2,4s0.4,14.2,8.6,23c0.6-0.6,1.2-1.2,1.8-1.8
			c-6.1-7.2-8.7-14.2-6-18.7s9.9-5.8,19.2-4.1l1.5,0.3c4.2,0.9,8.3,2.2,12.3,3.9c0.8-0.4,1.7-0.8,2.5-1.2
			C60.3,37.7,55.5,36,50.7,34.8z"/>
		<path class="st10" d="M83.8,52.8c-0.1-0.7-0.1-1.5-0.2-2.2c-0.5-4.7-1.3-9.3-2.4-13.8l-1.5,0.3c1,4,1.7,8.1,2.1,12.2
			c0.1,0.7,0.2,1.5,0.2,2.2c0.2,2.7,0.3,5.4,0.3,8.2c0,3.8-0.2,7.6-0.6,11.4c-0.1,0.9-0.2,1.8-0.3,2.7c-0.6,4.3-1.5,8.5-2.9,12.6
			c-0.2,0.5-0.3,1-0.5,1.4c-3.2,8.9-7.9,14.6-13.2,14.6s-10-5.7-13.2-14.6c-0.8,0.2-1.6,0.4-2.5,0.6c3.5,11.5,9.2,18.9,15.6,18.9
			s12.1-7.5,15.6-19c0.2-0.5,0.3-0.9,0.4-1.4c1.3-4.8,2.2-9.8,2.7-14.8c0.1-0.9,0.2-1.8,0.2-2.7c0.2-2.6,0.3-5.3,0.3-8.1
			C84.2,58.5,84,55.6,83.8,52.8z"/>
		<path class="st11" d="M48,71.2c-0.7-0.5-1.5-1.1-2.2-1.6c0.1,0.9,0.1,1.8,0.2,2.7c0.7,0.5,1.5,1.1,2.2,1.6
			C48.2,73,48.1,72.1,48,71.2z"/>
		<path class="st5" d="M89.9,88.6c0.4,0.2,0.9,0.1,1.1-0.3c0,0,0,0,0,0c0.2-0.4,0.1-0.9-0.3-1.1c-0.4-0.2-0.9-0.1-1.1,0.3
			C89.4,87.9,89.5,88.4,89.9,88.6C89.9,88.6,89.9,88.6,89.9,88.6z"/>
	</g>
</g>
</svg>
