<svg xmlns="http://www.w3.org/2000/svg" xmlns:xlink="http://www.w3.org/1999/xlink" viewBox="0 0 356.87 187.26"><defs><style>.cls-1{fill:url(#linear-gradient);}.cls-2{isolation:isolate;}.cls-3{clip-path:url(#clip-path);}.cls-4{opacity:0.27;mix-blend-mode:multiply;}.cls-5{fill:url(#linear-gradient-4);}.cls-6{fill:#fff;}.cls-7{fill:#f4429b;}.cls-8{fill:#5097ff;}.cls-9{fill:none;}.cls-10{fill:#fb7a01;}.cls-11{fill:#ffe766;}.cls-12{fill:#00c2b8;}</style><linearGradient id="linear-gradient" x1="63.87" y1="104.01" x2="356.87" y2="104.01" gradientUnits="userSpaceOnUse"><stop offset="0" stop-color="#ee3434"/><stop offset="0.66" stop-color="#a51010"/><stop offset="1" stop-color="#840000"/></linearGradient><clipPath id="clip-path"><rect class="cls-1" x="63.87" y="42.51" width="293" height="123" rx="11.19"/></clipPath><linearGradient id="linear-gradient-4" x1="0" y1="93.63" x2="202.41" y2="93.63" xlink:href="#linear-gradient"/></defs><title>Asset 19</title><g class="cls-2"><g id="Layer_2" data-name="Layer 2"><g id="Layer_1-2" data-name="Layer 1"><rect class="cls-1" x="63.87" y="42.51" width="293" height="123" rx="11.19"/><g class="cls-3"><rect class="cls-1" x="63.87" y="42.51" width="293" height="123" rx="11.19"/><g class="cls-4"><path class="cls-5" d="M68.53,2.8C50.1,7,28.18,20.26,17.1,35.57,7.37,49,1.13,63.44.28,80c-1.37,26.56,1.82,55.58,20.06,74.93a103.78,103.78,0,0,0,47.45,28.36c13.12,3.44,53.24,6.87,72.13,0,14.06-5.11,27.76-11.67,38.06-22.52,6.06-6.38,11.74-13.23,15.92-21C201,126.53,203.45,111,202,96S197.42,65.29,190.26,52a93.43,93.43,0,0,0-28-32.14C149.26,10.51,110.93-6.77,68.53,2.8Z"/></g></g><path class="cls-6" d="M274,134.86a4.66,4.66,0,0,1-3.07.9h-2.55v4.4h-2.54V127.92h5.26a4.23,4.23,0,0,1,2.89,1A3.7,3.7,0,0,1,275,131.8,3.76,3.76,0,0,1,274,134.86Zm-1.95-4.4a2.08,2.08,0,0,0-1.36-.41h-2.31v3.6h2.31a1.94,1.94,0,0,0,1.36-.44,1.8,1.8,0,0,0,.48-1.39A1.69,1.69,0,0,0,272,130.46Z"/><path class="cls-6" d="M283.27,131.16a2.78,2.78,0,0,1,1.12.89,2.43,2.43,0,0,1,.45,1,12.26,12.26,0,0,1,.08,1.75v5.32h-2.41v-5.51a2.38,2.38,0,0,0-.25-1.18,1.24,1.24,0,0,0-1.22-.63,1.66,1.66,0,0,0-1.41.63,2.87,2.87,0,0,0-.48,1.79v4.9h-2.37V128h2.37v4.31a2.92,2.92,0,0,1,1.18-1.1,3.46,3.46,0,0,1,1.42-.31A3.92,3.92,0,0,1,283.27,131.16Z"/><path class="cls-6" d="M287.39,141.89l.3,0a4.75,4.75,0,0,0,.66,0,1.33,1.33,0,0,0,.53-.19,1.3,1.3,0,0,0,.39-.59,1.34,1.34,0,0,0,.15-.55l-3.32-9.45h2.63l2,6.68,1.87-6.68h2.52L292,140a12.38,12.38,0,0,1-1.42,3.19,2.71,2.71,0,0,1-2.09.62H288l-.57,0Z"/><path class="cls-6" d="M298.2,137.27a1.57,1.57,0,0,0,.33.9,2.2,2.2,0,0,0,1.63.47,2.44,2.44,0,0,0,1.11-.21.68.68,0,0,0,.08-1.22,13.19,13.19,0,0,0-2.47-.72,5.08,5.08,0,0,1-2.17-1,2.09,2.09,0,0,1-.64-1.63,2.8,2.8,0,0,1,1-2.15,4,4,0,0,1,2.77-.9,5.1,5.1,0,0,1,2.77.67,2.92,2.92,0,0,1,1.23,2.34h-2.37a1.31,1.31,0,0,0-.26-.72,1.62,1.62,0,0,0-1.33-.49,1.92,1.92,0,0,0-1.1.25.68.68,0,0,0-.33.56.62.62,0,0,0,.35.59,14.1,14.1,0,0,0,2.47.65,4.61,4.61,0,0,1,2.12,1,2.29,2.29,0,0,1,.7,1.7,2.76,2.76,0,0,1-1,2.2,4.73,4.73,0,0,1-3.09.85,4.68,4.68,0,0,1-3.16-.9,2.93,2.93,0,0,1-1-2.3Z"/><path class="cls-6" d="M308.13,130h-2.4v-2.18h2.4Zm-2.4,1.08h2.4v9h-2.4Z"/><path class="cls-6" d="M315.72,134.36a2.18,2.18,0,0,0-.34-.91,1.43,1.43,0,0,0-1.24-.55,1.62,1.62,0,0,0-1.64,1.18,4.83,4.83,0,0,0-.24,1.68,4.36,4.36,0,0,0,.24,1.59,1.57,1.57,0,0,0,1.59,1.13,1.46,1.46,0,0,0,1.19-.44,2.27,2.27,0,0,0,.42-1.17h2.42a4,4,0,0,1-.79,2,3.78,3.78,0,0,1-3.29,1.56,3.85,3.85,0,0,1-3.22-1.3,5.2,5.2,0,0,1-1-3.36,5.29,5.29,0,0,1,1.14-3.62,4,4,0,0,1,3.14-1.29,4.76,4.76,0,0,1,2.79.76,3.55,3.55,0,0,1,1.28,2.7Z"/><path class="cls-6" d="M321.48,137.27a1.58,1.58,0,0,0,.32.9,2.25,2.25,0,0,0,1.64.47,2.5,2.5,0,0,0,1.11-.21.67.67,0,0,0,.41-.62.65.65,0,0,0-.33-.6,13.42,13.42,0,0,0-2.48-.72,5.14,5.14,0,0,1-2.17-1,2.08,2.08,0,0,1-.63-1.63,2.8,2.8,0,0,1,1-2.15,4,4,0,0,1,2.77-.9,5.14,5.14,0,0,1,2.77.67,2.88,2.88,0,0,1,1.22,2.34h-2.36a1.39,1.39,0,0,0-.26-.72,1.64,1.64,0,0,0-1.33-.49,1.93,1.93,0,0,0-1.11.25.67.67,0,0,0-.32.56.61.61,0,0,0,.35.59,13.81,13.81,0,0,0,2.47.65,4.57,4.57,0,0,1,2.11,1,2.26,2.26,0,0,1,.7,1.7,2.75,2.75,0,0,1-1,2.2,4.76,4.76,0,0,1-3.1.85,4.65,4.65,0,0,1-3.15-.9,2.93,2.93,0,0,1-1-2.3Z"/><circle class="cls-7" cx="123.96" cy="103.16" r="6.8"/><path class="cls-8" d="M89.31,113.68a3,3,0,1,1,4.09-1.09A3,3,0,0,1,89.31,113.68Z"/><path class="cls-6" d="M89.52,110.34a.73.73,0,0,0,1-.27.73.73,0,1,0-1.27-.73A.72.72,0,0,0,89.52,110.34Z"/><circle class="cls-8" cx="114.25" cy="70.49" r="3"/><path class="cls-6" d="M114.25,69a.74.74,0,1,1-.74-.74A.74.74,0,0,1,114.25,69Z"/><path class="cls-6" d="M123,99.39a1.41,1.41,0,1,1-1.4-1.41A1.4,1.4,0,0,1,123,99.39Z"/><path class="cls-8" d="M145.9,130.5a3,3,0,1,1,4.09-1.1A3,3,0,0,1,145.9,130.5Z"/><path class="cls-9" d="M112.32,126.51c2.83,7.9,7,12.89,11.64,12.89s8.8-5,11.63-12.89A77,77,0,0,1,124,122.3,77.14,77.14,0,0,1,112.32,126.51Z"/><path class="cls-9" d="M125.72,121.49A74,74,0,0,0,136,125.25a66,66,0,0,0,2.52-11.13c-1.92,1.31-4,2.59-6.07,3.81S128,120.42,125.72,121.49Z"/><path class="cls-9" d="M107.2,95.52a74.47,74.47,0,0,0-8.41,7,65.67,65.67,0,0,0,8.38,7.75q-.27-3.5-.27-7.16C106.9,100.55,107,98,107.2,95.52Z"/><path class="cls-9" d="M115.43,117.93c-2.12-1.22-4.14-2.5-6.07-3.81a65,65,0,0,0,2.53,11.13,73.86,73.86,0,0,0,10.3-3.76C120,120.42,117.69,119.23,115.43,117.93Z"/><path class="cls-9" d="M139.12,94.4c-2-1.34-4-2.65-6.17-3.89A87.31,87.31,0,0,0,124,86a86.44,86.44,0,0,0-9,4.55c-2.16,1.24-4.22,2.55-6.17,3.89-.19,2.36-.29,4.8-.29,7.29a88,88,0,0,0,.56,10.07,89.81,89.81,0,0,0,8.44,5.52c2.16,1.24,4.32,2.38,6.46,3.39,2.13-1,4.29-2.15,6.45-3.39a89.81,89.81,0,0,0,8.44-5.52,88,88,0,0,0,.56-10.07C139.41,99.2,139.31,96.76,139.12,94.4Z"/><path class="cls-9" d="M155.34,85c-2.32-4-8.72-5.13-17-3.63a77,77,0,0,1,2.17,12.18,77.44,77.44,0,0,1,9.47,8C155.42,95.16,157.66,89.06,155.34,85Z"/><path class="cls-9" d="M141,103.16q0,3.66-.26,7.16a66.23,66.23,0,0,0,8.37-7.75,73.59,73.59,0,0,0-8.41-7Q141,99.24,141,103.16Z"/><path class="cls-9" d="M115.43,88.39c2.11-1.22,4.23-2.34,6.33-3.35a65.9,65.9,0,0,0-10.9-3.38A73.92,73.92,0,0,0,109,92.47C111,91.06,113.17,89.69,115.43,88.39Z"/><path class="cls-9" d="M109.55,81.41c-8.26-1.5-14.66-.39-17,3.63s-.08,10.12,5.34,16.52a78.21,78.21,0,0,1,9.47-8A77,77,0,0,1,109.55,81.41Z"/><path class="cls-9" d="M139,92.47a73.89,73.89,0,0,0-1.9-10.81A65.9,65.9,0,0,0,126.15,85c2.1,1,4.22,2.13,6.33,3.35C134.74,89.69,136.9,91.06,139,92.47Z"/><path class="cls-10" d="M107.38,93.59a78.21,78.21,0,0,0-9.47,8l.88,1a74.47,74.47,0,0,1,8.41-7C107.26,94.87,107.31,94.23,107.38,93.59Z"/><path class="cls-10" d="M124,120.67l1.76.82c2.24-1.07,4.5-2.26,6.76-3.56s4.15-2.5,6.07-3.81c.11-.78.21-1.56.3-2.36a89.81,89.81,0,0,1-8.44,5.52C128.25,118.52,126.09,119.66,124,120.67Z"/><path class="cls-10" d="M109,92.47c-.07.64-.13,1.28-.18,1.93,1.95-1.34,4-2.65,6.17-3.89A86.44,86.44,0,0,1,124,86c-.74-.32-1.47-.63-2.2-.92-2.1,1-4.22,2.13-6.33,3.35C113.17,89.69,111,91.06,109,92.47Z"/><path class="cls-10" d="M93.09,107a.64.64,0,0,0,.15.91h0a.63.63,0,0,0,.86-.14,48.24,48.24,0,0,1,3.16-3.68c-.31-.32-.61-.63-.9-1C95.16,104.45,94.07,105.74,93.09,107Z"/><path class="cls-11" d="M109,92.47a73.92,73.92,0,0,1,1.89-10.81c-.44-.09-.88-.18-1.31-.25a77,77,0,0,0-2.17,12.18C107.9,93.21,108.43,92.84,109,92.47Z"/><path class="cls-11" d="M108.79,94.4c-.54.37-1.07.75-1.59,1.12-.19,2.48-.3,5-.3,7.64q0,3.66.27,7.16.92.72,1.89,1.44a88,88,0,0,1-.56-10.07C108.5,99.2,108.6,96.76,108.79,94.4Z"/><path class="cls-11" d="M109.36,114.12c-.67-.46-1.33-.92-2-1.39a76.73,76.73,0,0,0,2.41,13.06q1-.24,2.1-.54A65,65,0,0,1,109.36,114.12Z"/><path class="cls-11" d="M124,62.52c-2.65,0-5.15,1.43-7.38,4a.62.62,0,0,0,.11.93l0,0a.62.62,0,0,0,.84-.09c2-2.17,4.12-3.38,6.41-3.38,5.14,0,9.71,6.14,12.51,15.58l1.28-.3C134.65,69.12,129.63,62.52,124,62.52Z"/><path class="cls-11" d="M113,75a.63.63,0,0,0-.31-.81h0a.64.64,0,0,0-.86.32c-.61,1.48-1.18,3.08-1.7,4.77l1.28.3A47.94,47.94,0,0,1,113,75Z"/><path class="cls-10" d="M122.19,121.49a73.86,73.86,0,0,1-10.3,3.76q-1.06.3-2.1.54c-9.58,2.29-17.18,1.41-19.76-3-1.14-2-1.18-4.47-.27-7.24a.62.62,0,0,0-.34-.77l0,0a.63.63,0,0,0-.86.38c-1.1,3.21-1.09,6.09.23,8.38,2.84,4.91,11.06,6,21.4,3.57q1.07-.24,2.16-.54A77.14,77.14,0,0,0,124,122.3Q123.08,121.91,122.19,121.49Z"/><path class="cls-11" d="M107.38,93.59c-.07.64-.12,1.28-.18,1.93.52-.37,1-.75,1.59-1.12,0-.65.11-1.29.18-1.93C108.43,92.84,107.9,93.21,107.38,93.59Z"/><path class="cls-12" d="M139.12,94.4c-.05-.65-.11-1.29-.17-1.93-2-1.41-4.21-2.78-6.47-4.08-2.11-1.22-4.23-2.34-6.33-3.35-.73.29-1.46.6-2.19.92a87.31,87.31,0,0,1,9,4.55C135.11,91.75,137.17,93.06,139.12,94.4Z"/><path class="cls-12" d="M142.73,128a.64.64,0,0,0,.71-.58h0a.64.64,0,0,0-.55-.68,46,46,0,0,1-4.77-.9c-.12.43-.24.85-.37,1.26C139.47,127.45,141.14,127.75,142.73,128Z"/><path class="cls-12" d="M150.64,104.11c6.77,7.16,9.81,14.18,7.24,18.64-1.14,2-3.27,3.25-6.13,3.85a.63.63,0,0,0-.5.68v0a.64.64,0,0,0,.76.56c3.33-.65,5.82-2.1,7.14-4.39,2.84-4.91-.36-12.56-7.6-20.32Z"/><path class="cls-12" d="M98.79,102.57c-.52.51-1,1-1.52,1.54a77.26,77.26,0,0,0,10.11,8.62c-.08-.79-.15-1.6-.21-2.41A65.67,65.67,0,0,1,98.79,102.57Z"/><path class="cls-12" d="M124,122.3a77,77,0,0,0,11.63,4.21c.15-.41.29-.83.44-1.26a74,74,0,0,1-10.31-3.76Z"/><path class="cls-12" d="M122.19,121.49l1.77-.82c-2.14-1-4.3-2.15-6.46-3.39a89.81,89.81,0,0,1-8.44-5.52c.09.8.19,1.58.3,2.36,1.93,1.31,4,2.59,6.07,3.81S120,120.42,122.19,121.49Z"/><path class="cls-12" d="M140.71,95.52a73.59,73.59,0,0,1,8.41,7l.88-1a77.44,77.44,0,0,0-9.47-8C140.6,94.23,140.66,94.87,140.71,95.52Z"/><path class="cls-10" d="M159.15,82.84c-2.84-4.91-11.06-6-21.4-3.57l-1.28.3A77.53,77.53,0,0,0,124,84c.73.33,1.46.66,2.19,1a65.9,65.9,0,0,1,10.9-3.38c.44-.09.88-.18,1.31-.25,8.26-1.5,14.66-.39,17,3.63s.08,10.12-5.34,16.52l-.88,1a66.23,66.23,0,0,1-8.37,7.75c-.06.81-.13,1.62-.22,2.41a76.61,76.61,0,0,0,10.11-8.62l.91-1C158.79,95.4,162,87.75,159.15,82.84Z"/><path class="cls-12" d="M124,86c.73-.32,1.46-.63,2.19-.92-.73-.36-1.46-.69-2.19-1-.73.33-1.46.66-2.2,1C122.49,85.33,123.22,85.64,124,86Z"/><path class="cls-12" d="M124,122.3l1.76-.81-1.76-.82-1.77.82Q123.08,121.91,124,122.3Z"/><path class="cls-12" d="M98.79,102.57l-.88-1c-.53.53-1,1.07-1.54,1.6.29.32.59.63.9,1C97.76,103.6,98.27,103.08,98.79,102.57Z"/><path class="cls-12" d="M111.44,79.57l-1.28-.3c-10.34-2.39-18.56-1.34-21.4,3.57s.37,12.56,7.61,20.32c.49-.53,1-1.07,1.54-1.6-5.42-6.4-7.66-12.5-5.34-16.52s8.72-5.13,17-3.63c.43.07.87.16,1.31.25A65.9,65.9,0,0,1,121.76,85c.74-.36,1.47-.69,2.2-1A78,78,0,0,0,111.44,79.57Z"/><path class="cls-11" d="M140.71,95.52c-.05-.65-.11-1.29-.18-1.93a77,77,0,0,0-2.17-12.18c-.43.07-.87.16-1.31.25A73.89,73.89,0,0,1,139,92.47c.06.64.12,1.28.17,1.93.19,2.36.29,4.8.29,7.29a88,88,0,0,1-.56,10.07c-.09.8-.19,1.58-.3,2.36A66,66,0,0,1,136,125.25c-.15.43-.29.85-.44,1.26-2.83,7.9-7,12.89-11.63,12.89s-8.81-5-11.64-12.89q-1.09.3-2.16.54c3.1,10.15,8.12,16.75,13.8,16.75s10.69-6.6,13.79-16.75c.13-.41.25-.83.37-1.26a75.76,75.76,0,0,0,2.41-13.06c.09-.79.16-1.6.22-2.41q.25-3.5.26-7.16Q141,99.25,140.71,95.52Z"/><path class="cls-12" d="M109.06,111.76q-1-.72-1.89-1.44c.06.81.13,1.62.21,2.41.65.47,1.31.93,2,1.39C109.25,113.34,109.15,112.56,109.06,111.76Z"/><path class="cls-6" d="M146.11,127.16a.73.73,0,1,0,.73-1.27.73.73,0,0,0-.73,1.27Z"/></g></g></g></svg>