<?xml version="1.0" encoding="utf-8"?>
<!-- Generator: Adobe Illustrator 23.0.1, SVG Export Plug-In . SVG Version: 6.00 Build 0)  -->
<svg version="1.1" id="Layer_1" xmlns="http://www.w3.org/2000/svg" xmlns:xlink="http://www.w3.org/1999/xlink" x="0px" y="0px"
	 viewBox="0 0 293 123" style="enable-background:new 0 0 293 123;" xml:space="preserve">
<style type="text/css">
	.st0{clip-path:url(#SVGID_2_);fill:#224F26;}
	.st1{opacity:0.27;clip-path:url(#SVGID_2_);}
	.st2{fill:#224F26;}
	.st3{fill:#FFFFFF;}
	.st4{fill:#FFC10E;}
	.st5{fill:#0D0C0C;}
	.st6{fill:#0C6C39;}
	.st7{opacity:0.4;fill:#FFFFFF;}
	.st8{opacity:0.3;}
	.st9{fill:#162817;}
	.st10{fill:#E9E6E6;}
	.st11{opacity:0.5;}
	.st12{fill:#AC5C38;}
	.st13{fill:#814126;}
	.st14{fill:#16331A;}
	.st15{fill:#245C2E;}
	.st16{opacity:0.4;fill:#181A2B;}
	.st17{opacity:0.2;fill:#FFFFFF;}
	.st18{fill:#AC5A35;}
	.st19{fill:#BC694B;}
	.st20{fill:#C66D4A;}
	.st21{fill:#F79F80;}
	.st22{fill:#201A28;}
	.st23{fill:#472B22;}
	.st24{fill:#E2E2E1;}
	.st25{fill:#1E1927;}
	.st26{fill:#E28079;}
	.st27{fill:#1D1B23;}
	.st28{opacity:0.5;fill:#FFFFFF;}
	.st29{fill:#1E4721;}
	.st30{fill:#286AB3;}
	.st31{fill:#275127;}
	.st32{fill:#8D4830;}
	.st33{fill:none;stroke:#231F20;stroke-width:0.174;stroke-miterlimit:10;}
	.st34{fill:#9F9E9B;}
	.st35{fill:#0E4924;}
	.st36{fill:#177D3E;}
	.st37{fill:#824226;}
	.st38{fill:#224422;}
	.st39{fill:#152916;}
	.st40{fill:#050706;}
	.st41{fill:#19171B;}
	.st42{fill:#E2866A;}
	.st43{fill:#2C5F2F;}
	.st44{fill:#0A1A2C;}
	.st45{fill:#263575;}
	.st46{fill:#C1BEBB;}
	.st47{opacity:0.4;}
	.st48{fill:#BA6D4F;}
	.st49{fill:#E9E8E7;}
	.st50{fill:#A19E97;}
	.st51{fill:#CBCAC8;}
	.st52{fill:#8D8A8A;}
	.st53{fill:#D8D4D1;}
	.st54{fill:#17AEAD;}
	.st55{fill:#474E53;}
	.st56{fill:#A9A4A5;}
	.st57{fill:#434044;}
	.st58{fill:#2A292D;}
	.st59{fill:#3F1E10;}
	.st60{fill:#E3EAEE;}
	.st61{fill:#792E23;}
	.st62{fill:#C2513C;}
	.st63{fill:#2C160E;}
	.st64{fill:none;}
	.st65{fill:#DD766C;}
	.st66{fill:#C3C2D7;}
	.st67{fill:#E1A825;}
	.st68{fill:none;stroke:#F08B5F;stroke-width:0.174;stroke-miterlimit:10;}
	.st69{fill:#162144;}
	.st70{fill:#122314;}
	.st71{fill:#F08B5F;}
	.st72{fill:#484EA0;}
	.st73{fill:#FCEDF3;}
	.st74{fill:#0F1321;}
	.st75{fill:#7E8386;}
	.st76{fill:#31160E;}
	.st77{fill:#892D2F;}
	.st78{fill:#B45541;}
	.st79{fill:#231F20;}
</style>
<g>
	<defs>
		<path id="SVGID_1_" d="M281.8,123H11.2C5,123,0,118,0,111.8V11.2C0,5,5,0,11.2,0h270.6C288,0,293,5,293,11.2v100.6
			C293,118,288,123,281.8,123z"/>
	</defs>
	<use xlink:href="#SVGID_1_"  style="overflow:visible;fill:#224F26;"/>
	<clipPath id="SVGID_2_">
		<use xlink:href="#SVGID_1_"  style="overflow:visible;"/>
	</clipPath>
	<path class="st0" d="M281.8,123H11.2C5,123,0,118,0,111.8V11.2C0,5,5,0,11.2,0h270.6C288,0,293,5,293,11.2v100.6
		C293,118,288,123,281.8,123z"/>
	<g class="st1">
		<path class="st2" d="M4.7-39.7c-18.4,4.2-40.4,17.5-51.4,32.8c-9.7,13.4-16,27.9-16.8,44.4C-65,64-61.8,93.1-43.5,112.4
			c12.4,13.2,29.9,23.7,47.5,28.4c13.1,3.4,53.2,6.9,72.1,0c14.1-5.1,27.8-11.7,38.1-22.5c6.1-6.4,11.7-13.2,15.9-21
			c7.1-13.3,9.6-28.8,8.1-43.8c-1.4-15-4.6-30.7-11.8-44c-7-13-16.1-23.5-28-32.1C85.4-32,47.1-49.3,4.7-39.7z"/>
	</g>
</g>
<g>
	<g>
		<path class="st3" d="M174.6,70.7c0.5,0.2,0.8,0.5,1.1,0.9c0.3,0.3,0.5,0.7,0.6,1c0.2,0.4,0.2,0.8,0.2,1.3c0,0.6-0.1,1.2-0.4,1.7
			c-0.3,0.6-0.8,1-1.5,1.2c0.6,0.2,1,0.5,1.2,1c0.2,0.4,0.4,1.1,0.4,1.9v0.8c0,0.6,0,0.9,0.1,1.1c0.1,0.3,0.2,0.5,0.5,0.7v0.3h-2.8
			c-0.1-0.3-0.1-0.5-0.2-0.7c-0.1-0.3-0.1-0.7-0.1-1.1l0-1.1c0-0.8-0.1-1.3-0.4-1.6c-0.3-0.3-0.7-0.4-1.5-0.4h-2.5v4.8h-2.5V70.4
			h5.9C173.5,70.4,174.1,70.5,174.6,70.7z M169.3,72.5v3.3h2.8c0.5,0,1-0.1,1.2-0.2c0.5-0.2,0.7-0.7,0.7-1.4c0-0.7-0.2-1.2-0.7-1.5
			c-0.3-0.1-0.7-0.2-1.2-0.2H169.3z"/>
		<path class="st3" d="M184.6,73.7c0.6,0.3,1.2,0.7,1.6,1.3c0.4,0.5,0.6,1.2,0.7,1.9c0.1,0.4,0.1,1,0.1,1.8h-6.6
			c0,0.9,0.4,1.5,0.9,1.9c0.4,0.2,0.8,0.3,1.3,0.3c0.5,0,1-0.1,1.3-0.4c0.2-0.2,0.3-0.4,0.5-0.6h2.4c-0.1,0.5-0.4,1.1-0.9,1.6
			c-0.8,0.9-1.9,1.3-3.4,1.3c-1.2,0-2.3-0.4-3.2-1.1s-1.4-1.9-1.4-3.6c0-1.6,0.4-2.8,1.2-3.6c0.8-0.8,1.9-1.3,3.2-1.3
			C183.2,73.3,184,73.5,184.6,73.7z M181,75.8c-0.3,0.3-0.5,0.8-0.6,1.4h4.1c0-0.6-0.3-1.1-0.6-1.4c-0.4-0.3-0.8-0.5-1.4-0.5
			C181.9,75.3,181.4,75.4,181,75.8z"/>
		<path class="st3" d="M190.4,82.6h-2.4V70.4h2.4V82.6z"/>
		<path class="st3" d="M195.1,72.5h-2.4v-2.2h2.4V72.5z M192.7,73.6h2.4v9h-2.4V73.6z"/>
		<path class="st3" d="M201.7,73.5c0.6,0.2,1,0.7,1.4,1.3v-1.3h2.3v8.6c0,1.2-0.2,2-0.6,2.6c-0.7,1-2,1.5-3.9,1.5
			c-1.2,0-2.1-0.2-2.8-0.7c-0.7-0.5-1.1-1.1-1.2-2h2.6c0.1,0.3,0.2,0.5,0.3,0.6c0.3,0.2,0.7,0.3,1.3,0.3c0.9,0,1.4-0.3,1.7-0.9
			c0.2-0.4,0.3-1,0.3-1.8v-0.6c-0.2,0.4-0.5,0.7-0.7,0.9c-0.5,0.4-1.1,0.5-1.8,0.5c-1.2,0-2.1-0.4-2.8-1.2c-0.7-0.8-1-1.9-1-3.3
			c0-1.3,0.3-2.5,1-3.4s1.6-1.4,2.8-1.4C201,73.3,201.4,73.4,201.7,73.5z M202.5,80c0.4-0.4,0.6-1.1,0.6-2c0-0.9-0.2-1.5-0.5-2
			c-0.4-0.4-0.8-0.7-1.5-0.7c-0.8,0-1.4,0.4-1.7,1.2c-0.2,0.4-0.2,0.9-0.2,1.5c0,0.5,0.1,1,0.3,1.4c0.3,0.8,0.9,1.1,1.7,1.1
			C201.7,80.7,202.1,80.5,202.5,80z"/>
		<path class="st3" d="M209.9,72.5h-2.4v-2.2h2.4V72.5z M207.5,73.6h2.4v9h-2.4V73.6z"/>
		<path class="st3" d="M219.6,81.5c-0.8,0.9-1.9,1.4-3.5,1.4c-1.6,0-2.7-0.5-3.5-1.4s-1.1-2.1-1.1-3.4c0-1.3,0.4-2.4,1.1-3.4
			s1.9-1.4,3.5-1.4c1.6,0,2.7,0.5,3.5,1.4s1.1,2.1,1.1,3.4C220.8,79.4,220.4,80.6,219.6,81.5z M217.8,80.2c0.4-0.5,0.6-1.2,0.6-2.1
			s-0.2-1.6-0.6-2.1c-0.4-0.5-0.9-0.7-1.6-0.7c-0.7,0-1.2,0.2-1.6,0.7c-0.4,0.5-0.6,1.2-0.6,2.1s0.2,1.6,0.6,2.1
			c0.4,0.5,0.9,0.7,1.6,0.7C216.9,80.9,217.4,80.7,217.8,80.2z"/>
		<path class="st3" d="M229.7,74.1c0.6,0.5,0.9,1.3,0.9,2.4v6.1h-2.4v-5.5c0-0.5-0.1-0.8-0.2-1.1c-0.2-0.5-0.7-0.7-1.3-0.7
			c-0.8,0-1.3,0.3-1.6,1c-0.2,0.4-0.2,0.8-0.2,1.4v4.9h-2.4v-9h2.3v1.3c0.3-0.5,0.6-0.8,0.9-1c0.5-0.4,1.1-0.5,1.8-0.5
			C228.3,73.3,229.1,73.6,229.7,74.1z"/>
		<path class="st3" d="M240.8,77.1c0.4-0.1,0.8-0.1,0.9-0.2c0.3-0.1,0.5-0.4,0.5-0.7c0-0.4-0.1-0.6-0.4-0.8
			c-0.3-0.1-0.6-0.2-1.1-0.2c-0.6,0-1,0.1-1.2,0.4c-0.2,0.2-0.3,0.5-0.3,0.8h-2.3c0-0.8,0.3-1.4,0.7-2c0.6-0.8,1.7-1.2,3.2-1.2
			c1,0,1.9,0.2,2.7,0.6c0.8,0.4,1.2,1.1,1.2,2.2v4.2c0,0.3,0,0.6,0,1c0,0.3,0.1,0.5,0.1,0.6c0.1,0.1,0.2,0.2,0.3,0.3v0.3h-2.6
			c-0.1-0.2-0.1-0.4-0.1-0.5c0-0.2,0-0.3-0.1-0.5c-0.3,0.4-0.7,0.7-1.1,0.9c-0.5,0.3-1.1,0.4-1.7,0.4c-0.8,0-1.5-0.2-2-0.7
			c-0.5-0.5-0.8-1.1-0.8-2c0-1.1,0.4-1.9,1.3-2.4c0.5-0.3,1.2-0.5,2.1-0.6L240.8,77.1z M242.3,78.2c-0.2,0.1-0.3,0.2-0.5,0.2
			s-0.4,0.1-0.6,0.2l-0.5,0.1c-0.5,0.1-0.9,0.2-1.1,0.3c-0.4,0.2-0.6,0.6-0.6,1c0,0.4,0.1,0.7,0.3,0.9s0.5,0.3,0.8,0.3
			c0.5,0,1-0.2,1.4-0.4s0.7-0.8,0.7-1.6V78.2z"/>
		<path class="st3" d="M253.9,74.1c0.6,0.5,0.9,1.3,0.9,2.4v6.1h-2.4v-5.5c0-0.5-0.1-0.8-0.2-1.1c-0.2-0.5-0.7-0.7-1.3-0.7
			c-0.8,0-1.3,0.3-1.6,1c-0.2,0.4-0.2,0.8-0.2,1.4v4.9h-2.4v-9h2.3v1.3c0.3-0.5,0.6-0.8,0.9-1c0.5-0.4,1.1-0.5,1.8-0.5
			C252.5,73.3,253.3,73.6,253.9,74.1z"/>
		<path class="st3" d="M261.6,73.7c0.4,0.2,0.8,0.6,1,1v-4.3h2.4v12.2h-2.3v-1.3c-0.3,0.5-0.7,0.9-1.2,1.2c-0.4,0.2-1,0.4-1.6,0.4
			c-1.1,0-1.9-0.4-2.7-1.3c-0.7-0.9-1.1-2-1.1-3.3c0-1.5,0.4-2.8,1.1-3.6c0.7-0.9,1.7-1.3,2.9-1.3C260.7,73.3,261.2,73.5,261.6,73.7
			z M262.2,80.1c0.3-0.5,0.5-1.1,0.5-1.9c0-1.1-0.3-1.9-0.8-2.4c-0.3-0.3-0.7-0.4-1.2-0.4c-0.7,0-1.2,0.3-1.5,0.8
			c-0.3,0.5-0.5,1.2-0.5,1.9c0,0.8,0.2,1.5,0.5,2c0.3,0.5,0.8,0.8,1.5,0.8C261.4,80.9,261.9,80.6,262.2,80.1z"/>
		<path class="st3" d="M152.7,90.8h2.7l4.9,8.5v-8.5h2.4V103h-2.6l-5-8.7v8.7h-2.4V90.8z"/>
		<path class="st3" d="M168.3,97.5c0.4-0.1,0.8-0.1,0.9-0.2c0.3-0.1,0.5-0.4,0.5-0.7c0-0.4-0.1-0.6-0.4-0.8
			c-0.3-0.1-0.6-0.2-1.1-0.2c-0.6,0-1,0.1-1.2,0.4c-0.2,0.2-0.3,0.5-0.3,0.8h-2.3c0-0.8,0.3-1.4,0.7-2c0.6-0.8,1.7-1.2,3.2-1.2
			c1,0,1.9,0.2,2.7,0.6c0.8,0.4,1.2,1.1,1.2,2.2v4.2c0,0.3,0,0.6,0,1c0,0.3,0.1,0.5,0.1,0.6c0.1,0.1,0.2,0.2,0.3,0.3v0.3H170
			c-0.1-0.2-0.1-0.4-0.1-0.5c0-0.2,0-0.3-0.1-0.5c-0.3,0.4-0.7,0.7-1.1,0.9c-0.5,0.3-1.1,0.4-1.7,0.4c-0.8,0-1.5-0.2-2-0.7
			c-0.5-0.5-0.8-1.1-0.8-2c0-1.1,0.4-1.9,1.3-2.4c0.5-0.3,1.2-0.5,2.1-0.6L168.3,97.5z M169.7,98.6c-0.2,0.1-0.3,0.2-0.5,0.2
			s-0.4,0.1-0.6,0.2l-0.5,0.1c-0.5,0.1-0.9,0.2-1.1,0.3c-0.4,0.2-0.6,0.6-0.6,1c0,0.4,0.1,0.7,0.3,0.9s0.5,0.3,0.8,0.3
			c0.5,0,1-0.2,1.4-0.4s0.7-0.8,0.7-1.6V98.6z"/>
		<path class="st3" d="M173.1,95.7V94h1.3v-2.5h2.3V94h1.5v1.7h-1.5v4.8c0,0.4,0,0.6,0.1,0.7c0.1,0.1,0.4,0.1,0.9,0.1
			c0.1,0,0.1,0,0.2,0c0.1,0,0.2,0,0.2,0v1.8l-1.1,0c-1.1,0-1.9-0.2-2.3-0.6c-0.3-0.3-0.4-0.7-0.4-1.3v-5.6H173.1z"/>
		<path class="st3" d="M182,92.9h-2.4v-2.2h2.4V92.9z M179.6,94h2.4v9h-2.4V94z"/>
		<path class="st3" d="M191.7,101.9c-0.8,0.9-1.9,1.4-3.5,1.4c-1.6,0-2.7-0.5-3.5-1.4s-1.1-2.1-1.1-3.4c0-1.3,0.4-2.4,1.1-3.4
			s1.9-1.4,3.5-1.4c1.6,0,2.7,0.5,3.5,1.4s1.1,2.1,1.1,3.4C192.9,99.8,192.5,101,191.7,101.9z M189.9,100.6c0.4-0.5,0.6-1.2,0.6-2.1
			s-0.2-1.6-0.6-2.1c-0.4-0.5-0.9-0.7-1.6-0.7c-0.7,0-1.2,0.2-1.6,0.7c-0.4,0.5-0.6,1.2-0.6,2.1s0.2,1.6,0.6,2.1
			c0.4,0.5,0.9,0.7,1.6,0.7C188.9,101.3,189.5,101.1,189.9,100.6z"/>
		<path class="st3" d="M201.8,94.5c0.6,0.5,0.9,1.3,0.9,2.4v6.1h-2.4v-5.5c0-0.5-0.1-0.8-0.2-1.1c-0.2-0.5-0.7-0.7-1.3-0.7
			c-0.8,0-1.3,0.3-1.6,1c-0.2,0.4-0.2,0.8-0.2,1.4v4.9h-2.4v-9h2.3v1.3c0.3-0.5,0.6-0.8,0.9-1c0.5-0.4,1.1-0.5,1.8-0.5
			C200.4,93.7,201.2,94,201.8,94.5z"/>
		<path class="st3" d="M208.3,97.5c0.4-0.1,0.8-0.1,0.9-0.2c0.3-0.1,0.5-0.4,0.5-0.7c0-0.4-0.1-0.6-0.4-0.8
			c-0.3-0.1-0.6-0.2-1.1-0.2c-0.6,0-1,0.1-1.2,0.4c-0.2,0.2-0.3,0.5-0.3,0.8h-2.3c0-0.8,0.3-1.4,0.7-2c0.6-0.8,1.7-1.2,3.2-1.2
			c1,0,1.9,0.2,2.7,0.6c0.8,0.4,1.2,1.1,1.2,2.2v4.2c0,0.3,0,0.6,0,1c0,0.3,0.1,0.5,0.1,0.6c0.1,0.1,0.2,0.2,0.3,0.3v0.3H210
			c-0.1-0.2-0.1-0.4-0.1-0.5c0-0.2,0-0.3-0.1-0.5c-0.3,0.4-0.7,0.7-1.1,0.9c-0.5,0.3-1.1,0.4-1.7,0.4c-0.8,0-1.5-0.2-2-0.7
			c-0.5-0.5-0.8-1.1-0.8-2c0-1.1,0.4-1.9,1.3-2.4c0.5-0.3,1.2-0.5,2.1-0.6L208.3,97.5z M209.8,98.6c-0.2,0.1-0.3,0.2-0.5,0.2
			s-0.4,0.1-0.6,0.2l-0.5,0.1c-0.5,0.1-0.9,0.2-1.1,0.3c-0.4,0.2-0.6,0.6-0.6,1c0,0.4,0.1,0.7,0.3,0.9s0.5,0.3,0.8,0.3
			c0.5,0,1-0.2,1.4-0.4s0.7-0.8,0.7-1.6V98.6z"/>
		<path class="st3" d="M216.5,103h-2.4V90.8h2.4V103z"/>
		<path class="st3" d="M230.6,90.8h2.7l-4.2,12.2h-2.4l-4.1-12.2h2.7l2.7,9.3L230.6,90.8z"/>
		<path class="st3" d="M237.1,97.5c0.4-0.1,0.8-0.1,0.9-0.2c0.3-0.1,0.5-0.4,0.5-0.7c0-0.4-0.1-0.6-0.4-0.8
			c-0.3-0.1-0.6-0.2-1.1-0.2c-0.6,0-1,0.1-1.2,0.4c-0.2,0.2-0.3,0.5-0.3,0.8h-2.3c0-0.8,0.3-1.4,0.7-2c0.6-0.8,1.7-1.2,3.2-1.2
			c1,0,1.9,0.2,2.7,0.6c0.8,0.4,1.2,1.1,1.2,2.2v4.2c0,0.3,0,0.6,0,1c0,0.3,0.1,0.5,0.1,0.6c0.1,0.1,0.2,0.2,0.3,0.3v0.3h-2.6
			c-0.1-0.2-0.1-0.4-0.1-0.5c0-0.2,0-0.3-0.1-0.5c-0.3,0.4-0.7,0.7-1.1,0.9c-0.5,0.3-1.1,0.4-1.7,0.4c-0.8,0-1.5-0.2-2-0.7
			c-0.5-0.5-0.8-1.1-0.8-2c0-1.1,0.4-1.9,1.3-2.4c0.5-0.3,1.2-0.5,2.1-0.6L237.1,97.5z M238.6,98.6c-0.2,0.1-0.3,0.2-0.5,0.2
			s-0.4,0.1-0.6,0.2l-0.5,0.1c-0.5,0.1-0.9,0.2-1.1,0.3c-0.4,0.2-0.6,0.6-0.6,1c0,0.4,0.1,0.7,0.3,0.9s0.5,0.3,0.8,0.3
			c0.5,0,1-0.2,1.4-0.4s0.7-0.8,0.7-1.6V98.6z"/>
		<path class="st3" d="M245.3,103h-2.4V90.8h2.4V103z"/>
		<path class="st3" d="M249.9,94v5.5c0,0.5,0.1,0.9,0.2,1.2c0.2,0.5,0.6,0.7,1.3,0.7c0.8,0,1.4-0.3,1.7-1c0.2-0.4,0.2-0.8,0.2-1.4
			V94h2.4v9h-2.3v-1.3c0,0-0.1,0.1-0.2,0.2c-0.1,0.1-0.2,0.3-0.3,0.4c-0.4,0.3-0.7,0.6-1.1,0.7c-0.3,0.1-0.7,0.2-1.2,0.2
			c-1.3,0-2.2-0.5-2.7-1.4c-0.3-0.5-0.4-1.3-0.4-2.3V94H249.9z"/>
		<path class="st3" d="M263.7,94.1c0.6,0.3,1.2,0.7,1.6,1.3c0.4,0.5,0.6,1.2,0.7,1.9c0.1,0.4,0.1,1,0.1,1.8h-6.6
			c0,0.9,0.4,1.5,0.9,1.9c0.4,0.2,0.8,0.3,1.3,0.3c0.5,0,1-0.1,1.3-0.4c0.2-0.2,0.3-0.4,0.5-0.6h2.4c-0.1,0.5-0.4,1.1-0.9,1.6
			c-0.8,0.9-1.9,1.3-3.4,1.3c-1.2,0-2.3-0.4-3.2-1.1c-0.9-0.7-1.4-1.9-1.4-3.6c0-1.6,0.4-2.8,1.2-3.6c0.8-0.8,1.9-1.3,3.2-1.3
			C262.3,93.7,263,93.9,263.7,94.1z M260.1,96.2c-0.3,0.3-0.5,0.8-0.6,1.4h4.1c0-0.6-0.3-1.1-0.6-1.4c-0.4-0.3-0.8-0.5-1.4-0.5
			C260.9,95.7,260.5,95.8,260.1,96.2z"/>
	</g>
</g>
<g>
	<path class="st4" d="M41.6,96.4c0,0,1,0.2,0.8,2.4c0,0-2.1,1.9-2.8,3.3c0,0-1.4,0.8-4.8,0.6c0,0-1.4-1.5,0.7-2c0,0,2.8-2.1,4.1-4.2
		H41.6z"/>
	<path class="st4" d="M60.9,96.4c0,0-1.4,0.3-0.7,2.2c0,0,2.1,2.3,3.4,2.6c1.3,0.3,1.4,0.2,1.9,0.3c0.5,0,2.1,0,2.1,0
		s0.6-0.4-0.7-1.7c-1.3-1.2-4-3.7-4-3.7L60.9,96.4z"/>
	<path class="st5" d="M64.3,97.6c0,0-0.6,0.4-0.9,0.8c0,0-1.9-0.8-0.2-1.5l0.5-0.1l0.7,0.8L64.3,97.6z"/>
	<path class="st5" d="M65.1,97.9c0,0-2,1-0.8,2c0,0,0.9-1.1,1.6-1L65.1,97.9z"/>
	<path class="st6" d="M45.8,63.8c0,0,9.1,4.4,14.7,0c0,0,2.1,2.8,2.3,10.7c0,0,1.4,7.6,1.4,9.8c0,2.6-1.3,7-1.8,10.3
		c0,0,0.9,1.4,0.9,1.6c0,0-2.1,0.9-3.2,0.7c0,0,0.6-0.6,0.2-2.6c0,0-0.6-1.4-0.3-2.9c0,0-1-2-0.5-3.9c0,0,0.1-3.3-1.4-5.5
		c-1.6-2.3-2.4-6.4-2.2-6.8c0,0-3.3-1.4-5.8,0.7c0,0-1.6,2.5-2.5,5c0,0-0.5,3.9-1.2,5.7c-0.7,1.8-2,2.5-3.1,5.9
		c-1.1,3.4-1.1,3.4-1.1,3.4v0.5c0,0-1,1.5-3.1,0.4c0,0,0.1-1.7,0.5-2.4c0,0-0.5-6.4,2.5-10.4c0,0,1.7-15.4,3.2-18.8L45.8,63.8z"/>
	<path class="st5" d="M38,98.7c0,0,0.6,0.4,0.9,0.8c0,0,1.9-0.8,0.2-1.5l-0.5-0.1l-0.7,0.8L38,98.7z"/>
	<path class="st5" d="M37.3,99.1c0,0,2,1,0.8,2c0,0-0.9-1.1-1.6-1L37.3,99.1z"/>
	<path class="st7" d="M59,64.6c0,0,2.1,3.8,2.3,9.7c0.1,5.9,2,7.7,1.5,11.4c-0.5,3.6-0.7,7.5-1,8.7l0.7,2.1l0.9-0.3l-1-1.6
		c0,0,1.6-7.2,1.7-8.8c0.1-2,0.4-1.2-0.7-7.9c-1.1-6.6-0.6-3.4-0.6-3.4s-0.3-8.2-2.3-10.6L59,64.6z"/>
	<path class="st8" d="M47.6,66.4c0,0-3.9,16.4-3.4,17.9c0,0-4,7.2-3.7,10.1l-0.6,2.9L39,96.9c0,0-0.5-2.3,0.5-2.4
		c0,0-0.8-6.4,2.5-10.4c0,0,2.3-18.3,3.5-19.6C46.7,63.3,47.6,66.4,47.6,66.4z"/>
	<path class="st9" d="M22.5,39.1c-4.3,6.1-0.1,8.5-2.5,14.5c-1.7,4.4,1.3,5.9,1.3,5.9s1.1-0.9,1.5-1.1c5.1-1.9,12.6,2.7,19.9,3.2
		c7.3,0.5,17.2-1.1,23.9-2.6c1.2-0.3,4.5-2,4.5-2c0,0,0.4-1,0.4-1L22.5,39.1z"/>
	<g>
		<path class="st10" d="M26.9,21.2c-2.6,1.1-3.3,7.1-3.3,7.1c0.9,3.5-1.1,10-1.1,10c-4.3,6.1,0.3,9.5-1.3,13.9c-1.5,4.4,0.5,6,0.5,6
			l1.5-1.1c5.4-0.5,13.3,2.6,20.6,3.1c6.1,0.4,15.7-0.1,21.8-1.4V22.9C49.4,23.8,26.9,21.2,26.9,21.2z"/>
		<path class="st2" d="M77.1,56c0,0-2.2-3.7,0.6-12.8c2.6-8.5,1.7-5.4,1.3-8.1c-0.4-2.8,1-9.3,2.5-10.3l-3.1,1.4
			c0,0-0.8-1.3,0.6-3.8c0.1-0.1,0.1-0.2,0.2-0.3c-0.7,0,2.9-0.2,1.9-0.9c-0.2-0.1-0.4-0.3,0-0.4c2-0.7,4.4,0.1,4.4,0.1
			c-0.2-0.6-2.1-1.6-2.1-1.6c-2-0.4-2.3-0.3-3.2,0.1c-0.8,0.4-3,1.6-3,1.6c-2.9,0.9-10,1.5-14.5,1.8c0,0-0.9,13.4-1,18
			c-0.1,4.6,0,18.5,0,18.5c0.6-0.1,1.8,0,3.3-0.3c1.6-0.3,3.6-1.1,4-1.3C74.1,55.7,77.1,56,77.1,56z"/>
		<path class="st2" d="M42.1,22.5l-15.4-1.7c0,0-3.6,2.5-3.2,7.5c0.3,3.4-1.2,9.2-1.2,9.5c0,0.3-1.9,2.3-1.9,4.8
			c0,0.9,0.1,2.6,0.4,3.8c0.2,0.6,0.1,0.4,0.3,1.1c0.2,1.2,0.3,1.8,0.2,3.1c-0.1,1.2-1,3.1-0.9,4.3c0.1,0.6,0.2,1.7,0.5,2.2
			c0.2,0.4,0.4,1,0.7,0.9c1.6-0.6,4.5-1.6,15.3,1C36.9,59.1,37.1,25.2,42.1,22.5z"/>
	</g>
	<g class="st11">
		<path d="M27.7,23.8c0,0,0.1,0,0.1,0.1c0.1,0,0.2,0.1,0.4,0.2c0.1,0,0.2,0.1,0.3,0.1c0.1,0,0.2,0.1,0.4,0.1c0.1,0,0.3,0.1,0.4,0.1
			c0.1,0,0.3,0.1,0.5,0.1c0.2,0,0.3,0.1,0.5,0.1c0.2,0,0.4,0.1,0.5,0.1c0.4,0.1,0.8,0.1,1.2,0.1c0.2,0,0.4,0,0.6,0
			c0.2,0,0.4,0,0.6,0c0.2,0,0.4,0,0.7,0l0.3,0c0.1,0,0.2,0,0.3,0c0.2,0,0.4,0,0.7,0c0.1,0,0.2,0,0.3,0c0.1,0,0.2,0,0.3,0
			c0.2,0,0.4,0,0.6-0.1c0.1,0,0.2,0,0.3,0c0.1,0,0.2,0,0.3,0c0.4-0.1,0.8-0.1,1.2-0.2c0.4-0.1,0.7-0.2,1.1-0.2
			c0.2,0,0.3-0.1,0.5-0.1c0.1,0,0.3-0.1,0.4-0.1c0.3-0.1,0.5-0.1,0.7-0.2c0.4-0.1,0.6-0.2,0.6-0.2s-0.2,0.1-0.6,0.2
			c-0.2,0.1-0.4,0.1-0.7,0.2c-0.1,0-0.3,0.1-0.4,0.1c-0.1,0-0.3,0.1-0.5,0.1c-0.3,0.1-0.7,0.2-1.1,0.3c-0.4,0.1-0.8,0.2-1.2,0.2
			c-0.1,0-0.2,0-0.3,0.1c-0.1,0-0.2,0-0.3,0C36.4,25,36.2,25,36,25c-0.1,0-0.2,0-0.3,0c-0.1,0-0.2,0-0.3,0c-0.2,0-0.4,0-0.7,0.1
			c-0.1,0-0.2,0-0.3,0l-0.3,0c-0.2,0-0.4,0-0.7,0c-0.2,0-0.4,0-0.7,0c-0.2,0-0.4,0-0.6,0c-0.4,0-0.8,0-1.2-0.1c-0.2,0-0.4,0-0.6-0.1
			C30,25,29.8,25,29.7,25c-0.2,0-0.3-0.1-0.5-0.1c-0.2,0-0.3-0.1-0.4-0.1c-0.1,0-0.3-0.1-0.4-0.1c-0.1,0-0.2-0.1-0.3-0.1
			c-0.2-0.1-0.3-0.1-0.4-0.2c-0.1,0-0.2-0.1-0.2-0.1L27.7,23.8z"/>
	</g>
	<g class="st11">
		<path d="M62.5,27.2c0.1,0,0.1,0,0.2,0l0.2,0l0.5,0c0.3,0,0.6,0,0.9-0.1c0.6-0.1,1.2-0.1,1.8-0.2c0.3,0,0.6-0.1,0.9-0.1
			c0.3,0,0.6-0.1,0.9-0.1c0.3-0.1,0.6-0.1,0.9-0.2c0.3-0.1,0.6-0.1,0.9-0.2c0.3-0.1,0.6-0.1,0.9-0.2c0.3-0.1,0.6-0.2,0.9-0.2
			c0.3-0.1,0.6-0.2,0.9-0.3c0.3-0.1,0.6-0.2,0.8-0.3c0.3-0.1,0.6-0.2,0.8-0.3c0.3-0.1,0.5-0.2,0.8-0.4l0.4-0.2l0.4-0.2
			c0.3-0.1,0.5-0.3,0.8-0.4l0.4-0.2l0,0.4c0,0.1,0,0.1,0,0.1c0,0,0,0.1,0,0.1c0,0.1,0,0.1,0,0.2c0,0.1-0.1,0.2-0.1,0.4l-0.1,0.2
			L76.4,25c-0.1,0.1-0.1,0.2-0.2,0.3l-0.2,0.3l-0.2,0.3c-0.1,0.2-0.3,0.4-0.4,0.6c-0.1,0.2-0.3,0.4-0.5,0.5
			c-0.1,0.1-0.2,0.2-0.2,0.3l-0.3,0.2c-0.2,0.2-0.3,0.3-0.5,0.5l-0.5,0.5c-0.2,0.1-0.4,0.3-0.6,0.4l-0.3,0.2
			c-0.1,0.1-0.2,0.1-0.3,0.2l-0.6,0.4c-0.2,0.1-0.4,0.3-0.6,0.4l-0.6,0.4c-0.2,0.1-0.4,0.2-0.6,0.3c-0.4,0.2-0.8,0.4-1.3,0.6
			c0.4-0.3,0.8-0.5,1.2-0.8c0.2-0.1,0.4-0.3,0.6-0.4l0.6-0.4c0.2-0.1,0.4-0.3,0.6-0.4L72,29c0.1-0.1,0.2-0.1,0.3-0.2l0.3-0.2
			c0.2-0.1,0.4-0.3,0.5-0.4l0.5-0.5c0.2-0.1,0.3-0.3,0.5-0.5c0.2-0.2,0.3-0.3,0.5-0.5c0.2-0.2,0.3-0.3,0.5-0.5
			c0.1-0.2,0.3-0.4,0.4-0.5l0.2-0.3l0.2-0.3c0.1-0.1,0.1-0.2,0.2-0.3l0.1-0.1l0.1-0.2c0-0.1,0.1-0.2,0.1-0.3c0-0.1,0-0.1,0-0.2
			c0,0,0,0,0-0.1c0,0,0,0,0-0.1l0.4,0.2c-0.3,0.2-0.5,0.3-0.8,0.5l-0.4,0.2L75,25c-0.3,0.1-0.6,0.3-0.8,0.4
			c-0.3,0.1-0.6,0.2-0.9,0.3c-0.3,0.1-0.6,0.2-0.9,0.3c-0.3,0.1-0.6,0.2-0.9,0.3c-0.3,0.1-0.6,0.2-0.9,0.2c-0.3,0.1-0.6,0.1-0.9,0.2
			c-0.3,0.1-0.6,0.1-0.9,0.2c-0.3,0-0.6,0.1-0.9,0.1c-0.3,0-0.6,0.1-0.9,0.1c-0.3,0-0.6,0.1-0.9,0.1c-0.6,0-1.2,0.1-1.8,0.1
			c-0.3,0-0.6,0-0.9,0l-0.5,0l-0.2,0C62.7,27.2,62.6,27.2,62.5,27.2z"/>
	</g>
	<path class="st12" d="M57.6,42.9c0,0-3,1.5-3.5,5.3c0,0-0.3,2.8-0.9,2.8c-0.6,0.1-6.8-4.6-6.8-4.6l5.6-5.5L57.6,42.9z"/>
	<path class="st13" d="M52,42.5c0,0-0.9,2.9-1.2,4.7l-6-4.1l5.2-0.9L52,42.5z"/>
	<path class="st10" d="M45.4,63.5c0,0-1,1.5-0.4,1.8c0.6,0.2,5.5,3.8,16.3,0.5c0,0-2.4-5.1-0.2-9.2c2.2-4.1,1.3-4.8,0.9-7.3
		c0,0,0-5.4-4-6.7l-2,0.6c0,0,1.1,4.4-1.5,6c0,0-6.4,1.2-6.7-5.8l-2.3,0.1c0,0-2,8.2,0.9,14.1C46.4,57.5,47.3,62.4,45.4,63.5z"/>
	<path class="st14" d="M57,43.7c0,0-0.7,4.8-2.7,5.5l-1.1-1.1c0,0,2.2-2.4,2.6-4.4C55.8,43.7,56.9,43.1,57,43.7z"/>
	<path class="st15" d="M48.8,44c0,0,1.5,3.9,6.5,4.3c0,0,0,0.2-0.8,0.9c0,0-4.8,0.9-6.4-3.8L48.8,44z"/>
	<path class="st16" d="M47.6,66.4c0,0-1-9.8,1.4-10c1.7-0.1,0.7-5.9-0.8-7.5c-1.5-1.7-2.9-3.9-2.9-3.9s-0.7,10.3,1.2,12.6
		c0,0,0.6,5.5-0.9,5.9C45.4,63.5,43.2,65.6,47.6,66.4z"/>
	<path class="st17" d="M54.7,51.4c0,0,1.7,1.4,0.7,3.5C55.4,54.8,56,53.5,54.7,51.4z"/>
	<path class="st16" d="M58,42.5c3.7,2.1,3.7,4.7,4,6.7c0.2,1.1,0.4,1.9,0.4,2.5c0.1,1.3-0.1,1.6-0.3,2.3c-0.2,1-1.6,3.7-1.6,3.7
		s1.2-2.7,0,0s0.7,8,0.7,8l-1.7,0.4c0,0,0.7-0.1-0.1-2.3c-0.7-1.7,0.3-6.2,1.4-7.5c0.6-0.6-2.3-0.8-2.3-0.8c6.2,0.1,1.7-6.9,1.7-6.9
		c0.5-1.7-3-6.2-3-6.2S54.4,40.4,58,42.5z"/>
	<path class="st18" d="M79.1,27.9l-0.5,4.5c0,0,0,5.3-2.3,8.5c0,0-5.5,1.7-3.9-2.7s2.6-5.5,2.9-7.5c0.3-2.3,0.3-4.8,0.4-5
		C75.7,25.4,79.1,27.9,79.1,27.9z"/>
	<path class="st18" d="M67.6,46.8c0,0,6.3-1.8,9-6.4c0,0-1-4.8-4.5-2.8c-3.5,2-6.5,2.8-6.5,2.8S67.5,46.1,67.6,46.8z"/>
	<path class="st10" d="M57.7,41.8c0,0,4.4-1,6.2-0.5c0,0,0.9,0,1.8-0.9c0,0,2.3,2.7,1.9,6.6c0,0-4.1,1.6-5.8,2.6L57.7,41.8z"/>
	<path class="st16" d="M64.9,41c0,0,1.9,2.3,2.2,6.2l0.5-0.2c0,0,0.3-3.7-1.9-6.6L64.9,41z"/>
	<path class="st13" d="M77.8,21.8c0,0-1.9,4.6,1.7,3.2c0,0,5.7-1.1,1.3-4.4L77.8,21.8z"/>
	<path class="st19" d="M82.5,22.7c0,0,1.1-1.9-1.4-1.4c-0.4,0.1-2.3,1.6-0.6,1.6"/>
	<g>
		<path class="st18" d="M79.4,21.5c0,0.5,0.7,0.2,1,0.2l1.3-0.5c0,0-0.1-0.4-0.4-0.7C80.5,20.7,79.9,20.7,79.4,21.5z"/>
	</g>
	<path class="st18" d="M80.8,24.5c-2-1.1-3,0.1-3,0.1s1.4-1.4,0.4-2.5c0,0,0.4-0.6,0.9-1.2c0.5-0.5,1.1-0.8,1.3-1.1
		c0.2-0.3-0.5-0.8-1.8-0.2c-0.5,0.2-2,1-2.8,2.3c0,0-1.2,3.8,0.3,4.4l2.4,1.8c0,0,2.3-0.5,3.3-2.5c0,0,2.5-1.9,0.5-2.9
		c0,0-2,0-1.4,1.1c0,0,0.7-0.4,0.9,0C82.1,24.1,80.8,24.5,80.8,24.5z"/>
	<path class="st18" d="M27.3,24.5c0.3-0.2,1,1.8,1.8,3c0.8,1.2-1.1,2.7-1.1,2.7S25.4,25.6,27.3,24.5z"/>
	<g>
		<path class="st13" d="M27.6,22.3c0.8-2,1.2-0.8,1.2-0.8c-0.5,0.9,0,2.6,0,2.6c1.9,1.8,0,3.5,0,3.5s-1.8-2.8-1.5-4.5L27.6,22.3z"/>
		<path class="st9" d="M26.5,21.5c0.8,2,3.2,1.7,3.2,1.7s-1.1,1.3-3,1.4C24.2,24.6,26,20.4,26.5,21.5z"/>
		<g>
			<path class="st20" d="M39.4,43.2l0.3,5.9c0.4,0.1,0.6,0.1,0.6,0.1l-0.3-6.3c0,0-5.5-2.4-8.5-2.6c0,0.1,0,0.2,0,0.3
				C34.5,41,39.4,43.2,39.4,43.2z"/>
			<path class="st20" d="M26.8,24.3l-0.1,0l-1.2,1.4l1.6,2.6l0.8,1.6c0,0,0.3,4.3,1.6,6.3c1,1.5,1.2,3.1,1.3,4.2c0.2,0,0.4,0,0.6,0
				c-0.1-1.1-0.2-2.8-1.3-4.4c-1.4-2-1.6-6.3-1.6-6.3L27.7,28l-1.6-2.6l0.8-1C26.9,24.4,26.8,24.3,26.8,24.3z"/>
			<path class="st18" d="M26.8,22.3c0.4,0.4,0.4,1.4,0.3,1.8l0.1-0.1l0.1,0c0,0,0.3,0.3,0.3,0c0-0.3,0.1-1.6-0.3-2
				c-0.5-0.5-3.1,0-3.1,0c0,0.1-0.1,0.1-0.1,0.2C25,22.1,26.5,22,26.8,22.3z"/>
			<path class="st18" d="M30.8,40.3c0,0.1,0,0.2,0,0.3c0.2,0,0.4,0,0.6,0.1c0-0.1,0-0.2,0-0.3C31.2,40.3,31,40.3,30.8,40.3z"/>
			<path class="st18" d="M31.4,40.6c0,0.1,0,0.2,0,0.2c0.1,0.9,0.9,4.7-0.4,4.5c0,0,0,0,0,0.1c0.2,0.1,0.4,0.2,0.6,0.3
				c5.1,2.3,7.3,3.1,8.2,3.4l-0.3-5.9C39.4,43.2,34.5,41,31.4,40.6z"/>
			<path class="st18" d="M31,45.4c1.4,0.1,0.5-3.7,0.4-4.5c0-0.1,0-0.1,0-0.2c-0.2,0-0.4,0-0.6-0.1c0,0.2,0,0.4,0,0.6
				C30.9,41.8,31.5,44.5,31,45.4z"/>
			<path class="st21" d="M27.2,24.3c0,0,0-0.1,0-0.2L27,24.4C27,24.5,27.2,24.5,27.2,24.3z"/>
			<path class="st18" d="M24.9,30.3c1.1,1.6,1,7,1.8,10.7c0.2,0.8,0.4,1.4,0.6,1.9c0-0.9,1.1-1.6,1.9-1.9c0.7-0.4,1.4-0.6,1.4-0.6
				c0.1,0,0.2,0,0.3,0c-0.1-1.1-0.3-2.7-1.3-4.2c-1.4-2-1.6-6.3-1.6-6.3l-0.8-1.6l-1.6-2.6l1.2-1.4l0.1,0c0,0,0,0,0.1,0.1l0.2-0.3
				c0-0.5,0.1-1.4-0.3-1.8c-0.3-0.3-1.9-0.2-2.7-0.1c-0.4,1-0.6,2.4-0.6,2.4C22.4,26.1,24.9,30.3,24.9,30.3z"/>
			<path class="st18" d="M30.9,40.6c0-0.1,0-0.2,0-0.3c-0.1,0-0.2,0-0.3,0c0,0-0.7,0.2-1.4,0.6c0.5-0.2,0.8-0.3,0.8-0.3
				C30.3,40.6,30.5,40.6,30.9,40.6z"/>
			<path class="st21" d="M30.6,45.3c0.1,0.1,0.3,0.1,0.4,0.2c0,0,0,0,0-0.1C30.9,45.4,30.7,45.3,30.6,45.3z"/>
			<path class="st18" d="M29.2,40.9c-0.8,0.4-1.9,1-1.9,1.9c0.7,1.7,1.7,1.6,3.2,2.4c0,0,0,0,0,0C26.5,43.1,27.8,41.7,29.2,40.9z"/>
			<path class="st18" d="M30.9,41.1c0-0.2,0-0.3,0-0.6c-0.3,0-0.6,0-0.8,0c0,0-0.4,0.1-0.8,0.3c-1.3,0.8-2.6,2.2,1.4,4.3
				c0.2,0.1,0.3,0.1,0.4,0.1C31.5,44.5,30.9,41.8,30.9,41.1z"/>
		</g>
		<path class="st18" d="M27.6,30.1c0,0,0.4,0.3,1.1-0.8c0.7-1-1.9-3.9-1.9-3.9h-2.2L27.6,30.1z"/>
		<path class="st19" d="M23.3,25.7c0.6-1.7,1.8-3.2,1.8-3.2c1.1,0,1.6,0.5,2,0.5c0.4,0,0.2,2.8,0.2,2.8l-0.9-0.1l-0.9-1.1l-0.9,0.6
			l-1.2,1.3L23.3,25.7z"/>
		<path class="st13" d="M23.5,27.1c-0.3-0.8,0.3-1.8,0.3-1.8s0,0,0.8-1.1c0.8-1.1,2.1,0,2.1,0c-0.3,0.5,0.2,1.6,0.2,1.6
			c-1.2,1.2-1.5-0.9-1.5-0.9l-0.6,0.8c0,0-1,1.1-1,1.7L23.5,27.1z"/>
		<path class="st18" d="M23.5,27c-0.3-0.8,0.3-1.9,0.3-1.9s0,0,0.8-1.1c0.8-1.1,2.1,0,2.1,0c-0.3,0.5,0.2,1.8,0.2,1.8
			c-1.3,0.9-1.4-1.2-1.4-1.2l-0.5,0.7c0,0-1.4,1.4-1.3,2.1L23.5,27z"/>
	</g>
	<g>
		<path class="st10" d="M44,43.7c0,0-1.1-0.8-5.7-1.5c0,0,1,4,0,6.7l5.1,1.8L44,43.7z"/>
		<path class="st16" d="M39.1,42.3c0,0,1.1,4.4,0,6.9l-0.9-0.3c0,0,1-2.3,0-6.7L39.1,42.3z"/>
	</g>
	<path class="st12" d="M51.5,32.9c0,0,5.4-9.3,8.4,1.2c0,0,0.8,2.5,1,3.2c0.3,1.2-0.4,3.4-0.7,4.8c-0.3,1.4,0,4-8.7,0.3
		c-2.6-1.1-2.9-1.2-2.9-1.2L51.5,32.9z"/>
	<path class="st22" d="M56.6,35.2c-1.4-1.2-2.5,0.4-2.5,0.4s-0.2,0.8,0.3,0.4c0.5-0.4,1.2-1,2.2-0.4C56.5,35.7,57.1,35.7,56.6,35.2z
		"/>
	<path class="st13" d="M57.6,30.4c0,0-1.1-0.9-1.4,0.3c0,0-0.7,2-3.6,3.4c0,0-0.9,2.6,0,4.5c0,0,0.7,3.4-0.5,4l-3.1-1.7l0.5-4.4
		l1.8-5.5l4.8-2.4l2.3,1.3C58.2,30,58.5,31.1,57.6,30.4z"/>
	<path class="st22" d="M58.2,35.3c0.5-1.2,1.8-0.5,1.8-0.5s0.4,0.3-0.1,0.4c-0.4,0-1-0.3-1.5,0.4C58.4,35.6,58,35.8,58.2,35.3z"/>
	<path class="st23" d="M55.5,39.1h4.3c0,0,0.7,2.9-2.1,3.1C56.7,42.3,54.8,41.6,55.5,39.1z"/>
	<path class="st24" d="M59.8,39.8l-4.4,0c0,0,0-0.2,0-0.3c0-0.1,0.1-0.4,0.1-0.4h4.2c0,0,0.1,0.3,0.1,0.3
		C59.8,39.5,59.8,39.8,59.8,39.8z"/>
	<g>
		<path class="st25" d="M53.8,33.8c0,0,0.1-0.2,0.3-0.4c0,0,0.1-0.1,0.2-0.1c0.1,0,0.1-0.1,0.2-0.1c0.1,0,0.1-0.1,0.2-0.1
			c0.1,0,0.2-0.1,0.3-0.1l0.1,0c0,0,0.1,0,0.1,0c0.1,0,0.2,0,0.3,0c0.1,0,0.2,0,0.2,0c0,0,0.1,0,0.1,0c0,0,0.1,0,0.1,0
			c0.1,0,0.1,0,0.2,0.1c0,0,0.1,0.1,0.1,0.1c0.1,0,0.1,0.1,0.1,0.1s0,0-0.1,0c0,0-0.1,0-0.1,0c0,0-0.1,0-0.2,0c0,0-0.1,0-0.1,0
			c0,0-0.1,0-0.1,0c-0.1,0-0.1,0-0.2,0c0,0-0.1,0-0.1,0c0,0-0.1,0-0.1,0c0,0-0.1,0-0.1,0l-0.1,0c-0.1,0-0.1,0.1-0.2,0.1
			c-0.1,0-0.1,0.1-0.2,0.1c-0.1,0-0.1,0.1-0.2,0.1c-0.1,0-0.1,0.1-0.2,0.1C54.1,33.7,54,33.7,53.8,33.8
			C53.9,33.8,53.8,33.8,53.8,33.8z"/>
	</g>
	<g>
		<g>
			<path class="st25" d="M57.8,33.4C57.8,33.4,57.8,33.4,57.8,33.4c0.1-0.1,0.1-0.1,0.1-0.2c0,0,0.1-0.1,0.1-0.1
				c0,0,0.1-0.1,0.1-0.1c0,0,0.1,0,0.1,0c0,0,0.1,0,0.1,0c0.1,0,0.1,0,0.2-0.1c0.1,0,0.1,0,0.2,0c0.1,0,0.1,0,0.2,0
				c0.1,0,0.1,0,0.2,0c0.1,0,0.2,0.1,0.3,0.1c0,0,0.1,0.1,0.1,0.1c0,0,0.1,0,0.1,0.1c0,0,0.1,0.1,0.1,0.1s0,0-0.1,0
				c-0.1,0-0.1,0-0.2,0c0,0-0.1,0-0.2,0c-0.1,0-0.1,0-0.2,0c-0.1,0-0.1,0-0.2,0c-0.1,0-0.1,0-0.2,0c-0.1,0-0.1,0-0.2,0
				c-0.1,0-0.1,0-0.2,0c0,0-0.1,0-0.1,0c0,0-0.1,0-0.1,0c-0.1,0-0.1,0-0.1,0.1c0,0-0.1,0-0.1,0.1C57.9,33.3,57.9,33.4,57.8,33.4
				C57.8,33.4,57.8,33.4,57.8,33.4z"/>
		</g>
	</g>
	<path class="st26" d="M55.4,38.2c0,0.6-0.5,1.1-1.1,1.1c-0.6,0-1.1-0.5-1.1-1.1c0-0.6,0.5-1.1,1.1-1.1
		C54.9,37.1,55.4,37.6,55.4,38.2z"/>
	<path class="st26" d="M60.8,37.5c0,0.5-0.4,0.8-0.8,0.8c-0.5,0-0.8-0.4-0.8-0.8c0-0.5,0.4-0.8,0.8-0.8C60.4,36.7,60.8,37,60.8,37.5
		z"/>
	<path class="st27" d="M59,31.8c0,0,0.8-3.9-2-3.8c-2.7,0.1-9.3,0.7-11,3.3c-1.7,2.6-3,6.8-2.4,10.3c0.5,3.5-5.5,5.1-2.7,10.1
		c0,0-1.2,0.5-2.1,0c-0.9-0.5,0.9,1.6,1.6,1.1c0,0-1,1.1-2.2,0.5c0,0,2.6,3.2,5.9,0.8c0,0,0.9-0.8,0.7-1.6c0,0,0.5,1.8-0.7,2.8
		c0,0,2,0.7,3.1-1.8c0,0,0.5-1.5,0.1-2.9c0,0,0.9,2.6,2.6,2.4c0,0-2.3-3.3,0.4-8.2c2.7-4.9,0.7-6.5,0.7-9.6c0-3.1,2.4-1.4,5.1-5.5
		c0,0,2.1-1.8,3.3,4.2c0,0,0.5,2,1.1,2.7c0.6,0.6,0.2,3-0.2,4.2c-0.4,1.2,0,3.2-1.8,3.3c-1.9,0.2-2.2,0.2-2.2,0.2s0.7,1.7,0.2,3.9
		c-0.5,2.2,1.1,4.3,2.1,4.7c0,0-1.3-1.6-0.1-2.7c0,0-0.1,1.8,2.6,2.8c2.7,1.1,1.7,2.3,1.5,2.4c-0.2,0.1,2.2-1.5-0.3-3.4
		c0,0-1-1.4-0.1-3.5c0,0,0.5-1.3-0.7-2.1c0,0,2.3-0.6,2.6,1.7c0.3,2.3,0.3,2.3,0.3,2.3s0.9-5.3-1.8-6.4c-2.7-1.2,0.6-7.7-0.5-8.6
		C61,34.6,60.3,34.4,59,31.8z"/>
	<path class="st28" d="M50.5,32.3c0.8,0.4,0.2,2-1,3.3c0,0-0.8,0.6-1-0.5c-0.2-1.1-0.7,1.1-0.8,0c0-1.1-1.4,1.6-0.8-0.3
		c0.5-1.9-2.3,2.1-1.5-0.2c0.9-2.2-1,0.3-0.6-0.4c0.3-0.5,0.8-2.5,1.8-1.8c1,0.7,0.8,0,1.4,0c0.6,0,0.4,0.8,1,0.6
		C49.7,32.8,50.2,32.1,50.5,32.3z"/>
</g>
<g>
	<path class="st29" d="M68.4,68.8c0,0,0.1,0.3,0.3,0.4c0.2,0.1,0.3,0.4,0.2,0.6l0.4-0.9L68.4,68.8z"/>
	<path class="st30" d="M63.4,99.4c0,0-1,2.4-0.8,3c0.1,0.3,0.9,0.1,0.2,1.2c-0.9,1.5,1.4,5.3,4.2,5.3c0.9,0,3.4,0,2.7-2.4
		c-0.1-0.4-0.2-1-0.8-1.4c-0.7-0.5-1.8-1.8-1.3-3.1c0.3-0.6-1-2.2-0.7-2.6H63.4z"/>
	<path class="st30" d="M88.6,99.9c0,0-1.2,0-1.1,1.9c0.1,0.6-0.7,2.4-0.3,2.4c0.7,0,3.8-0.2,6.2,0.3c0.9,0.2,4.1,0.4,3.6-1.4
		c-0.1-0.5-0.4-0.8-1.7-0.9c0,0-1.7-0.4-1.8-0.9c-0.1-0.4-1.7-1.8-2.5-1.9L88.6,99.9z"/>
	<path class="st6" d="M68.6,72.3l-1.3,1.1c0,0,2.5,11.2,1,13.2c-1.5,2-4.4,7.1-3.8,9.2c0.1,0.3-0.2,0.5-0.7,1.2
		c-0.3,0.5-0.3,1.9-0.6,2.3c-0.4,0.5,0.2,1.4,1.9,1.4c0.7,0,2.3,0.2,2.5-0.9c0.3-2.7,1.2-4.3,5.4-9.2c0.6-0.7,2.2-2,2.5-2.6
		c0.4-0.7-0.1-1.5,0.5-3.2c0.3-0.9-0.1-3.2,0.4-3.6c0.4-0.4,1.8-3.2,2.1-3.2c0.7,0,2.1-0.4,2.6,0c1.2,1.1,1.1,4.5,2.1,6.1
		c0.5,0.9,0.7,2.5,1.9,3.8c0.4,0.4,0.2,1.1,0,2.3c-0.2,1.2-0.1,3.2,1.1,4.8c0.8,1,2,3.1,1.2,5c0,0.1-0.2,0.2-0.1,0.3
		c0,0.1,0.1,0,0.3,0.1c0.8,0.3,3,0.6,4.6,0.1c0.1,0,0.3-0.1,0.2-0.2c0-0.1-0.2-0.2-0.3-0.3c-0.2-0.2-0.6-0.7,0.2-0.8
		c0.1,0,0.1,0,0.2-0.1c0-0.1-0.1-0.1-0.2-0.3c-0.5-0.9-1.8-2.9-2.1-12.4c0-0.6,0.5-0.9-0.5-2.4c-0.6-0.8-1.4-2-0.9-3.9
		c0.3-1.2,0.7-4.6,1.9-4.8L68.6,72.3z"/>
	<path class="st18" d="M96.3,46.3c0,0,4.1,0.8,3.2,3.8c0,0-1.7,0.3-3.4,1.4c-2.2,1.3-7.2,4.4-9.6,3.5c-3.2-1.2-7.1-11.8-7.1-11.8
		l1.5-0.9c0,0,1.8,0.5,4.6,4.4c0.2,0.4,2.6,2.4,3.1,2.6c1.1,0.4,0.9,0.8,1.2,0.7c0.9-0.3,1.7-1.1,3.4-1.4
		C94.1,48.4,95.4,47.3,96.3,46.3z"/>
	<path class="st13" d="M81.2,43c0,0,1.7,1.2,2.9,4.7c0.4,1.1,1.5,1.3,1.8,3.5c0,0,9.6,0.8,11.4-1.8c0,0,0.9,1.3,2.8-0.6l0.2,1.3
		c0,0-2.1,0.6-2.5,0.7c0,0-11,4.6-13.1,1l-3.6-6.6L81.2,43z"/>
	<path class="st3" d="M68.9,60.8c-0.5-0.7-2-1.9-2.9-2.7c-1.5-1.3-2-4.1-2-7.5c0-1.1-1.8-3.9-1.8-3.9s0.5-1.1,3.2-1.8
		c1.2-0.4,3.8-2,4.1-3.7c0.5-2.5,6.5,0.9,8.7,0.7c0.8-0.1,2-0.9,2.8-0.4c0.7,0.4,1.2,1.8,1.2,4.5l2.4,23.1l-0.9,6.3
		c0,0-14,1.3-15.4-2.6C68.2,72.8,70.8,63.5,68.9,60.8"/>
	<path class="st2" d="M63.5,45.6c0,0,6.3,0.8,4.3,8.8c-0.1,0.5-0.8,1-1.6,1.1c-0.2,0-0.4,0.1-0.4,0.4c-0.2,1.2,1.1,1.9,2.9,3.5
		c0.7,0.6,1.7,2.2,1.6,3.2c-0.2,1.1,0,7.8-1.6,10.9c0,0-0.3-0.3-0.4-0.7c0,0,2.7-9.4,0.5-12.2c0,0-1.4-1.3-1.9-1.8
		c0,0-2-1.3-2.4-3.7l-2.3-8.5C62.2,46.7,63.2,45.6,63.5,45.6z"/>
	<path class="st31" d="M68.1,43.2c0,0,1.3,9.7,9.7,8c2.5-0.5,5.8-1.1,2-9.8c0,0-0.8,0.2-0.9,0.3c0,0-0.7,0.3-1.8,0.2l-8.3,0.6
		L68.1,43.2z"/>
	<path class="st32" d="M68.7,37.2c0,0,1.2,3,0.8,3.8c0,0,4.9,4.1,7.5,3.1c0,0,0.2-3.3,1.7-4.1L68.7,37.2z"/>
	<path class="st33" d="M69,61.6"/>
	<g>
		<path class="st34" d="M67,55.8c0,0,0.1,0.1,0.2,0.3c0.1,0.1,0.1,0.2,0.2,0.3c0.1,0.1,0.2,0.2,0.2,0.4c0,0.1,0.1,0.1,0.1,0.2
			c0,0.1,0.1,0.1,0.1,0.2c0.1,0.1,0.2,0.3,0.3,0.5c0.1,0.1,0.1,0.2,0.2,0.2c0.1,0.1,0.1,0.2,0.2,0.2c0.1,0.1,0.1,0.2,0.2,0.2
			c0.1,0.1,0.1,0.2,0.2,0.2c0.1,0.2,0.3,0.3,0.4,0.4c0.1,0.1,0.1,0.1,0.2,0.2c0,0,0.1,0.1,0.1,0.1c0,0,0.1,0.1,0.1,0.1
			c0.2,0.1,0.3,0.3,0.4,0.4c0.1,0.1,0.3,0.3,0.4,0.4c0.1,0.1,0.1,0.1,0.1,0.2c0,0.1,0.1,0.1,0.1,0.2c0.1,0.1,0.1,0.2,0.2,0.3
			c0,0,0,0.1,0,0.1c0,0,0,0.1,0,0.1c0,0.1,0,0.1,0,0.1l-0.1,0c0,0,0,0,0-0.1c0,0,0,0,0-0.1c0,0,0-0.1-0.1-0.1
			c-0.1-0.1-0.1-0.2-0.2-0.3c-0.1-0.1-0.2-0.2-0.3-0.3c-0.2-0.2-0.5-0.5-0.8-0.7c-0.1-0.1-0.2-0.1-0.2-0.2c-0.1-0.1-0.2-0.1-0.3-0.2
			c-0.2-0.1-0.3-0.3-0.5-0.5c-0.1-0.1-0.1-0.2-0.2-0.3c-0.1-0.1-0.1-0.2-0.2-0.3c-0.1-0.2-0.2-0.4-0.3-0.5c0-0.1-0.1-0.2-0.1-0.3
			c0-0.1-0.1-0.2-0.1-0.3c-0.1-0.2-0.2-0.3-0.2-0.5c-0.1-0.3-0.2-0.6-0.3-0.7C67,55.9,66.9,55.8,67,55.8L67,55.8z"/>
	</g>
	<path class="st35" d="M69.4,65.2c0,0,0,2.6-0.9,3.5c0,0,0.5,0.7,2.4,0.4c0.5-0.1,1.4-0.3,2,0.3l0.8-3.6L69.4,65.2z"/>
	<path class="st36" d="M69.3,61.9c0,0,1.5,1.6,5.1,0.3l-0.8,3.6c0,0-3.7,0.2-4.3-0.6C69.4,65.2,69.6,63.6,69.3,61.9z"/>
	<path class="st18" d="M97.8,50.7c-1.3-0.6-2.3-4.3-2.1-5.4c0.1-0.5,0.2-1.5,0.2-1.9c0.1-0.4,1.2-0.8,1.5,0c0.1,0.2,0.1,0.7,0.3,0.6
		c0.2-0.1,1.2-2.8,2.3-1.2c0.2,0.3,0.7,0.7,1.3,0.9c0.2,0.1,0.3,0.3,0.2,0.8c-0.1,0.6,0.3,1,0.7,2.1c0.4,1.1-0.9,3.2-3,3.6
		C99,50.5,98.2,50.9,97.8,50.7z"/>
	<g>
		<path class="st37" d="M98.3,46.6c0,0,0,0,0,0.1c0,0.1,0,0.2,0,0.3c0,0.1,0,0.1,0,0.2c0,0.1,0,0.1,0,0.2c0,0.1,0,0.1,0,0.2
			c0,0.1,0,0.2,0,0.2l0,0.1c0,0,0,0.1,0,0.1c0,0.1,0.1,0.1,0.1,0.2c0,0.1,0.1,0.1,0.1,0.2c0,0.1,0.1,0.1,0.1,0.2
			c0,0,0.1,0.1,0.1,0.1c0,0,0.1,0.1,0.1,0.1c0,0.1,0.1,0.1,0.1,0.1s0,0-0.1,0c0,0-0.1,0-0.1-0.1c-0.1,0-0.1-0.1-0.2-0.1
			c-0.1,0-0.1-0.1-0.2-0.1c-0.1-0.1-0.1-0.1-0.2-0.2c0-0.1-0.1-0.2-0.1-0.2c0,0,0-0.1-0.1-0.1l0-0.1c0-0.1,0-0.2,0-0.3
			c0,0,0-0.1,0-0.1c0,0,0-0.1,0-0.1c0-0.1,0-0.2,0.1-0.2c0-0.1,0.1-0.1,0.1-0.2C98.1,46.8,98.2,46.7,98.3,46.6
			C98.3,46.6,98.3,46.6,98.3,46.6z"/>
	</g>
	<path class="st38" d="M78.9,41.7c0,0,4.7,5.2,6.3,10.2l-2.4,0.3c0,0-0.4-2-5.5-9.4l0.2-1C77.4,41.9,78.2,42,78.9,41.7z"/>
	<g>
		<path class="st39" d="M76.9,50.3c-3.1,0-5.8-2.7-7.5-6.6c-0.4-0.8-1.3-2.3,0.1-3.6c0,0,2.1,3.7,7.6,3.9c0,0-0.2-0.8,0.4-2
			c0,0,1.1-0.4,2.2,2.9c0.4,1.2,0.6,3.8-1.2,5c-0.2,0.1-0.4,0.2-0.7,0.3"/>
		<path class="st31" d="M69.4,40c0,0,2,3.6,7.6,3.9c0,0-0.2-0.7,0.4-2c0,0,1.5-0.3,2.4,3.3c0.6,2.7-3.3,8-10.9-2.6
			C68.5,42.1,68.6,40.8,69.4,40z"/>
		<g class="st11">
			<path class="st40" d="M69.3,40.3c0,0,0,0.1,0.1,0.2c0,0.1,0.1,0.3,0.2,0.4c0,0.1,0.1,0.2,0.1,0.3c0,0.1,0.1,0.2,0.1,0.3
				c0.1,0.2,0.2,0.4,0.2,0.6c0.1,0.2,0.2,0.4,0.3,0.6c0,0,0.1,0.1,0.1,0.1c0,0,0.1,0.1,0.1,0.1c0.1,0.1,0.1,0.1,0.2,0.2
				c0.1,0,0.1,0.1,0.2,0.1c0.1,0,0.1,0.1,0.2,0.1c0.1,0,0.2,0.1,0.2,0.1v0c0,0-0.1,0-0.2,0c-0.1,0-0.1,0-0.2,0c0,0-0.1,0-0.1,0
				c0,0-0.1,0-0.1,0c-0.1,0-0.2-0.1-0.3-0.2c0,0-0.1-0.1-0.1-0.1c0,0-0.1-0.1-0.1-0.1c-0.1-0.1-0.2-0.2-0.2-0.3
				c-0.1-0.1-0.1-0.2-0.2-0.3c-0.2-0.5-0.3-1-0.3-1.4C69.3,40.5,69.3,40.3,69.3,40.3L69.3,40.3z"/>
		</g>
		<g class="st11">
			<path class="st40" d="M70.6,43.9C70.6,43.9,70.6,43.9,70.6,43.9c0.1,0.1,0.2,0.2,0.3,0.3c0.2,0.2,0.4,0.4,0.8,0.6
				c0.2,0.1,0.3,0.3,0.5,0.4c0.2,0.1,0.4,0.3,0.6,0.4c0.2,0.2,0.4,0.3,0.6,0.5c0.2,0.2,0.4,0.3,0.7,0.4c0.2,0.1,0.5,0.3,0.7,0.4
				c0.2,0.1,0.5,0.2,0.7,0.3c0.2,0.1,0.4,0.2,0.7,0.3c0.1,0,0.2,0.1,0.3,0.1c0.1,0,0.2,0.1,0.3,0.1c0.2,0.1,0.4,0.1,0.5,0.1
				c0.2,0,0.3,0.1,0.4,0.1c0.1,0,0.2,0,0.3,0c0.1,0,0.1,0,0.1,0l0,0c0,0-0.1,0-0.4,0c-0.1,0-0.3,0-0.4,0c-0.2,0-0.4,0-0.6-0.1
				c-0.1,0-0.2,0-0.3-0.1c-0.1,0-0.2-0.1-0.3-0.1c-0.2-0.1-0.5-0.1-0.7-0.2c-0.1,0-0.2-0.1-0.4-0.2c-0.1-0.1-0.2-0.1-0.4-0.2
				c-0.2-0.1-0.5-0.3-0.7-0.4c-0.2-0.1-0.5-0.3-0.7-0.5c-0.2-0.2-0.4-0.3-0.6-0.5c-0.4-0.3-0.7-0.7-1-1
				C70.9,44.4,70.6,43.9,70.6,43.9L70.6,43.9z"/>
		</g>
		<g class="st11">
			<path class="st40" d="M77.8,42.4c0,0,0.1,0,0.2,0.1c0.1,0,0.1,0.1,0.2,0.1c0.1,0,0.1,0.1,0.2,0.2c0.1,0.1,0.2,0.2,0.2,0.3
				c0.1,0.1,0.2,0.2,0.2,0.3c0.1,0.1,0.1,0.3,0.2,0.4c0,0.1,0.1,0.3,0.1,0.5c0,0.2,0,0.3-0.1,0.5c0,0.1-0.1,0.3-0.1,0.4
				c-0.1,0.1-0.1,0.2-0.2,0.3c-0.1,0.1-0.2,0.2-0.2,0.3c-0.1,0.1-0.2,0.1-0.2,0.2c-0.1,0-0.1,0.1-0.2,0.1C77.9,46,77.8,46,77.8,46
				l0,0c0,0,0,0,0.1-0.1c0.1-0.1,0.2-0.2,0.3-0.4c0,0,0.1-0.1,0.1-0.1c0,0,0.1-0.1,0.1-0.1c0.1-0.1,0.1-0.2,0.1-0.3
				c0-0.1,0.1-0.2,0.1-0.4c0-0.1,0-0.3,0-0.4c0-0.3-0.1-0.5-0.1-0.7c-0.1-0.2-0.2-0.4-0.3-0.6c-0.1-0.2-0.2-0.3-0.3-0.4
				C77.8,42.4,77.8,42.4,77.8,42.4L77.8,42.4z"/>
		</g>
	</g>
	<path class="st13" d="M67,30.2c0,0,0.3,10.3,6.2,11c1.3,0.2,4,0.7,5.2,0c0.7-0.4,2.2-1,1.7-2.9c-0.3-1.1,0.1-3.6-0.4-4.4
		c-0.5-0.8-0.7-2.9-0.6-3.8c0.1-1-0.5-3.2-1.5-3.9C77.7,26.3,67.8,24.8,67,30.2z"/>
	<path class="st41" d="M67,34.2c0,0,1.8-2,1.6-2.8c0,0-1.5-2.4,0.9-3.1c1.2-0.4,3.7-1.3,5-0.5c0.2,0.1,0.6,0.1,1.1,0.1
		c0.8-0.1,1.9-2.2,3.2,0c0,0-0.9-4.7-5.1-6.2c0,0-1.4,2.7-6.6,5.2C65.4,27.8,65.3,27.3,67,34.2z"/>
	<path class="st13" d="M69.4,37.5c-4.5,1.2-4.6-2.1-4.4-3.6c0.4-2.9,3.5-0.2,3.5-0.2s-0.3,0.3-0.3,0.4
		C68.2,35.1,69.4,37.5,69.4,37.5z"/>
	<path class="st42" d="M67,36.4c-2.9-4.1,1.6-1.6,1.6-1.6s-1.6-0.4-1.9-0.1C66.5,35,67,36.4,67,36.4z"/>
	<path class="st13" d="M68.7,34.8c0,0-4.5-2.5-1.6,1.6"/>
	<path class="st43" d="M65.8,44.7c0,0,6.6,6.8,8.6,14.3c0,0,2.2-1.5,2-2.2c-1.1-3.4-4.6-11-8.6-13.3C67.8,43.4,66.3,44.5,65.8,44.7z
		"/>
	<g>
		<g>
			<path class="st31" d="M91.1,34.7c0.4,0.7,1.7,2.5,1.7,2.5l2.2-1c0,0-0.7-2-0.9-2.7c-0.2-0.6-0.4-1.6-2.4-0.5
				C91.4,33.2,90.4,33.6,91.1,34.7z"/>
			<path class="st44" d="M101.4,50.8c-0.3,0.2-0.5,0.4-0.4,0.6l1.8,3.4c0.1,0.2,0.4,0.2,0.7,0.1c0.3-0.2,0.4-0.4,0.3-0.6l-1.8-3.4
				C102,50.7,101.7,50.6,101.4,50.8z"/>
			<path class="st45" d="M93.8,36.4c-0.3,0.2-0.4,0.5-0.3,0.8l9.3,17.5c0.1-0.1,0.3-0.3,0.5-0.4c0.2-0.1,0.4-0.2,0.6-0.2l-9.3-17.5
				C94.4,36.3,94,36.2,93.8,36.4z"/>
			<g>
				<path class="st46" d="M93.8,36.4c0.3-0.2,0.6-0.1,0.8,0.2l0,0.1c0.2-0.2,0.5-0.4,0.4-0.5c-0.1-0.2-0.8-0.2-1.4,0
					c-0.6,0.3-1,0.7-0.9,0.9c0.1,0.2,0.4,0.2,0.7,0.1l0,0C93.3,36.9,93.5,36.5,93.8,36.4z"/>
			</g>
		</g>
		<path class="st47" d="M92,32.8c-0.1,0-0.1,0.1-0.2,0.1c-0.4,0.2-1.4,0.7-0.7,1.7c0.4,0.6,1.5,2.1,1.7,2.4c0,0,0,0,0,0c0,0,0,0,0,0
			l0,0c0.1,0.1,0.4,0.1,0.7,0l7.6,14.2c0,0,0,0,0,0l1.8,3.4c0.1,0.2,0.4,0.2,0.7,0.1L92,32.8z"/>
	</g>
	<path class="st48" d="M97.8,44c0,0,0.3-0.3,0.4-0.6c0.2-0.4,1.1-1.7,1.9-0.5c0.2,0.3,0.9,0.7,1.2,0.9c0.2,0.1,0.5,0.1,0.3,1
		c-0.1,0.3,0,0.4,0.3,0.9c0.1,0.2,0.3,0.6,0.4,0.9c0.3,0.7,0.2,1.8-1.2,3c0,0-1.4-0.9-1.5-1.9C99.6,47.7,98.1,48,97.8,44z"/>
	<path class="st18" d="M98.4,45.8c0.4-0.3-0.2,1.4,1.3,1.7c0.4,0.1,0,0.8,1,1c0.3,0.1,0.9,1.1,0.2,1.1c-0.5,0-0.4-0.8-1.4-1.5
		c-0.3-0.2-0.3-0.4-1-0.8C98.2,47.1,97.9,46.2,98.4,45.8z"/>
	<path class="st13" d="M97.8,47.3c-0.3,0.5-1.3,0.4-2-1.3c-0.1-0.3-0.2-0.6,0-1.2c0.1-0.4,0.2-1.1,0.2-1.4c0.1-0.3,1.3-0.8,1.5,0
		c0.1,0.2,0.1,0.3,0.3,0.4c0.2,0.1,0.5,0.3,0.6,0.7c0,0.2,0.2,0.2,0.5,0.5c0.3,0.3-0.4,1.4-1.4,0.9C97.5,45.8,98.3,46.5,97.8,47.3z"
		/>
	<path class="st7" d="M65.9,100.6c0,0,0.8-6.7,7.2-12.1c0.5-0.4,1.5-1.2,1.3-2.4c-0.1-0.5-0.3-1.5,0.3-2.2c0.5-0.6,0-2.1,0.3-2.9
		c0.5-1.2,2.4-4.6,2.4-4.6c0.8,0.6,1.1,0.1,1.1,0.9c0,0-1.6,2.9-2.4,3.8c-0.1,0.2-0.1,0.5-0.2,0.9c0,0.9,0.1,2.2-0.3,3.2
		c-0.2,0.5-0.1,0.9-0.2,2.2c0,0.7-0.5,1-1.6,2.1c-2.6,2.6-6.5,7.4-6.3,10C67.5,99.9,67.6,100.7,65.9,100.6z"/>
	<path class="st7" d="M86.7,81.5c0,0,1.2,2,1.9,2.9c0.3,0.4,0.5,1.8,0.3,2c-0.5,0.6,0.4,8.7,1.7,11.7c0.2,0.5-0.7,0.8,0.4,2.2
		c0,0,1.5-0.2,1.1-0.4c-0.2-0.1-1.1-0.7-0.2-1c0.1,0,0.6,0,0.2-0.3c-0.2-0.2-0.9-1.3-1.5-4.8C90.2,92,90,88.4,89.9,86
		c0-0.3,0.1-0.6,0.1-0.9c0-0.4-0.3-0.9-0.9-1.7c-0.3-0.4-0.7-1.4-0.5-2.1L86.7,81.5z"/>
	<g>
		<path class="st38" d="M85.8,82.5l-0.2-31.2c0,0,3.5-0.6,6.7-0.7c1.5,0,3-0.3,4.6,0.6c6.3,3.6,15.5,15.6,5.5,27.7
			C100.9,80.6,91.6,82.2,85.8,82.5z"/>
		<path class="st43" d="M84.8,82.6l-0.8-31.4c0,0,3.5-0.6,6.7-0.7c1.5,0,3-0.3,4.6,0.6c6.3,3.6,15.5,15.6,5.5,27.7
			C99.3,80.6,93.3,82.9,84.8,82.6z"/>
		<path class="st38" d="M96.1,66.9C96.7,75.8,92,83,84.3,82.6c-6.5-0.3-11.8-7-11.8-15.7c0-8.7,5.3-15.7,11.8-15.7
			C90.8,51.2,95.5,58.2,96.1,66.9z"/>
		<path class="st49" d="M95.5,66.8c0.7,8.3-3.8,15.6-9.4,15.6c-4.1,0-11.7-6.2-11.5-15.1c0.2-8.3,5-14.9,10.6-15.1
			C90.8,52.1,94.9,59.6,95.5,66.8z"/>
		<g>
			
				<rect x="93.8" y="72.5" transform="matrix(0.9992 -3.877582e-02 3.877582e-02 0.9992 -2.7486 3.901)" class="st50" width="10.8" height="0.7"/>
			<path class="st51" d="M104.5,73c-0.2-0.4-0.2-1.8,1.4-1c0.3,0.1,1.3,0.5,0.3,1C105.8,73.1,104.9,73.8,104.5,73z"/>
			<path class="st52" d="M93.8,72.7c0.3-0.1-1.5,0.4-1,1.3c0.2,0.4,0.9,1.7,2.1,0.2c0.3-0.3,0.1-1.3-1-1.2L93.8,72.7z"/>
		</g>
		<g>
			
				<rect x="95" y="64" transform="matrix(0.9953 -9.652890e-02 9.652890e-02 0.9953 -5.7412 9.9544)" class="st50" width="9.9" height="0.7"/>
			<path class="st51" d="M104.9,64.3c-0.2-0.3-0.3-1.7,1.2-1.1c0.2,0.1,1.3,0.4,0.3,1C106.1,64.3,105.3,65,104.9,64.3z"/>
			<path class="st52" d="M95,64.4c0.3-0.1-1.4,0.5-0.8,1.4c0.2,0.4,0.9,1.8,1.9,0.3c0.2-0.3,0.2-1.3-1-1.3L95,64.4z"/>
		</g>
		<g>
			
				<rect x="92.5" y="55.7" transform="matrix(0.9986 -5.380193e-02 5.380193e-02 0.9986 -2.8752 5.2936)" class="st50" width="8.9" height="0.7"/>
			<path class="st51" d="M101.2,56.2c-0.2-0.4-0.2-1.8,1.1-1.1c0.2,0.1,1.1,0.5,0.3,1C102.3,56.3,101.6,57,101.2,56.2z"/>
			<path class="st52" d="M92.4,55.9c0.2-0.1-1.2,0.4-0.8,1.3c0.2,0.4,0.8,1.8,1.7,0.3c0.2-0.3,0.2-1.2-0.9-1.3L92.4,55.9z"/>
		</g>
		<path class="st53" d="M76.6,67.3c0.2-7.9,4.5-14.3,9.8-15c-0.4-0.1-0.7-0.1-1.1-0.1c-5.6,0.2-10.4,6.7-10.6,15.1
			c-0.2,8.9,7.4,15.1,11.5,15.1c0.4,0,0.7,0,1-0.1C83,81.5,76.4,75.6,76.6,67.3z"/>
	</g>
	<path class="st54" d="M91.6,100c0,0,1.1,1.5,1.2,2.3c0.2,1.1,1.9,2.1,4,1.3c0.5-0.2,0.2-1.5-1.5-1.5c0,0-1.9-0.4-1.9-1
		c0,0-1.4-1.4-1.7-1.4L91.6,100z"/>
	<path class="st55" d="M73.7,21.8"/>
	<path class="st18" d="M96.4,48.8c0,0,1.1,2.2,3.9,1.3c0,0-1.8,0.9-3,0.7C96.6,50.6,96.3,49.6,96.4,48.8z"/>
	<path class="st17" d="M69.8,69.2c0,0-1,0-1.3-0.5c0,0,0.9-1.3,0.9-3.5c0,0,0.4,0.3,0.7,0.4C70.1,65.6,69.9,68.4,69.8,69.2z"/>
	<path class="st17" d="M69.3,61.9c0,0,0.5,0.4,0.9,0.6c0,0,0,2.8-0.2,3.2c0,0-0.7-0.2-0.7-0.4C69.4,65.2,69.4,62.2,69.3,61.9z"/>
	<path class="st56" d="M90.6,66.9c0.5,5.3-1.5,9.8-4.4,10c-2.9,0.3-6.3-4.3-6.8-9.6c-0.5-5.3,2.2-9.3,5.1-9.6
		C87.4,57.6,90.1,61.7,90.6,66.9z"/>
	<path class="st43" d="M78.1,41.9c0,0,5.5,7.9,5.3,9.7l1.6-0.2c0,0-2.2-6.2-6.1-9.7C78.9,41.7,78.4,41.8,78.1,41.9z"/>
	<path class="st57" d="M73.7,21.8c0,0,3.4,3.2,2.8,5.6c0,0,1.2-1.3,2.3,0.6C78.8,27.9,78,23.2,73.7,21.8z"/>
	<path class="st58" d="M73.7,21.8c0,0-1.9,3.7-4.5,4.8c-1.1,0.5-3.2,1.9-0.5,4.8c0,0-1.6-2.1,0.9-3.1c0,0,3.6-1.5,5-0.5
		c0,0,1,0.5,2-0.4C76.4,27.4,77.3,25.4,73.7,21.8z"/>
	<path class="st54" d="M69.4,105.6c0,0,1.6,2.5-0.9,3.2c0,0-1.2,0.2-1.4,0.1c-1.5-0.6-5.1-4.2-2.7-5.8c0,0,2,1.3,3.3,0.6
		c0,0,0.4,0.7,1.5,1.7C69.3,105.4,69.3,105.5,69.4,105.6z"/>
	<path class="st18" d="M80.2,38.2c-0.1-0.4-0.1-1-0.1-1.6c0-0.7,0-1.4-0.1-1.8c0-0.2-0.1-0.6-0.3-0.9c-0.5-0.8-0.6-2.2-0.6-3.7
		c0-0.6,0-1.2-0.4-2.2c0,0-0.7-0.5-2.3,0.6c-0.2,0.2-1.7,0-2.7-0.3c0,0-2.2-0.3-3.4,0.6c-0.7,0.6-0.2,2.2-0.1,4
		c0.1,1.1-1,2.6,1.3,4.4c0.6,0.5,1.2,0.5,1.7,1.8c0.2,0.6,0.4,1.4,1.6,1.9c0.9,0.4,1.4,0.8,3.8,0.2C79.5,40.9,80.7,40,80.2,38.2z"/>
	<path class="st59" d="M77.3,31.8c0.4-0.4,0.9-1.1,1.9-0.2c0.1,0.1,0.5-0.2,0-0.7c-0.4-0.4-1.7-0.9-2.3,0.5
		C76.9,31.5,76.7,32.4,77.3,31.8z"/>
	<path class="st60" d="M73.5,35.7c0,0,4.4-0.1,5.8-0.9c0,0,0.8,3.4-1.6,4.1C76.4,39.4,74.9,39.7,73.5,35.7z"/>
	<path class="st61" d="M73.7,36.3c0,0,2,0.9,4.1-0.2c0.4-0.2,1.1-0.5,1.6-0.2c0,0,0.2,2.5-1.7,3C76.6,39.3,75.1,39.8,73.7,36.3z"/>
	<path class="st62" d="M76.1,39.2c0,0,1-1.6,2.6-0.8C78.7,38.4,77.9,39.4,76.1,39.2z"/>
	<g>
		<path class="st63" d="M77,30.4C77,30.4,77,30.4,77,30.4c0-0.1,0-0.1,0-0.1c0,0,0-0.1,0-0.1c0-0.1,0-0.1,0.1-0.2c0,0,0-0.1,0-0.1
			c0,0,0-0.1,0.1-0.1c0-0.1,0.1-0.1,0.2-0.2c0.1-0.1,0.1-0.1,0.2-0.2c0.1-0.1,0.2-0.1,0.3-0.1c0.1,0,0.2,0,0.3,0c0,0,0.1,0,0.1,0
			c0,0,0.1,0,0.1,0c0.1,0,0.2,0.1,0.2,0.1c0.1,0,0.1,0.1,0.2,0.1c0,0,0.1,0,0.1,0.1c0,0,0,0,0.1,0.1c0,0,0.1,0.1,0.1,0.1
			c0,0.1,0.1,0.1,0.1,0.1l0,0c0,0,0,0-0.1,0c0,0-0.1,0-0.1-0.1c0,0-0.1,0-0.1-0.1c-0.1,0-0.1,0-0.2-0.1c-0.1,0-0.1,0-0.2,0
			c-0.1,0-0.1,0-0.2,0c-0.1,0-0.2,0-0.2,0c-0.1,0-0.1,0-0.2,0.1c0,0-0.1,0-0.1,0c0,0-0.1,0-0.1,0.1c-0.1,0-0.1,0.1-0.2,0.1
			c0,0-0.1,0.1-0.1,0.1c0,0-0.1,0.1-0.1,0.1C77.1,30.3,77.1,30.3,77,30.4C77.1,30.4,77,30.4,77,30.4L77,30.4z"/>
	</g>
	<g>
		<path class="st64" d="M74.3,30.1"/>
	</g>
	<g>
		<path class="st64" d="M72,30.7"/>
	</g>
	<path class="st59" d="M72.3,32.4c0.4-0.4,1-1.1,2.1-0.2c0.1,0.1,0.6-0.2,0-0.7c-0.5-0.4-1.9-0.9-2.5,0.5
		C71.8,32.1,71.6,33,72.3,32.4z"/>
	<path class="st65" d="M73.4,35.7c0,0.4-0.5,0.7-1.1,0.7c-0.6,0-1.1-0.3-1.1-0.7c0-0.4,0.5-0.7,1.1-0.7C72.9,35,73.4,35.3,73.4,35.7
		z"/>
	<g>
		<path class="st63" d="M71.1,30.9C71.1,30.9,71.1,30.9,71.1,30.9c0-0.1,0-0.1,0-0.2c0,0,0-0.1,0.1-0.2c0-0.1,0.1-0.1,0.2-0.2
			c0.1-0.1,0.1-0.1,0.2-0.2c0,0,0.1-0.1,0.1-0.1c0,0,0.1-0.1,0.2-0.1c0.1,0,0.1,0,0.2-0.1c0.1,0,0.1,0,0.2-0.1c0.1,0,0.1,0,0.2,0
			l0.1,0l0.1,0c0.1,0,0.2,0,0.4,0c0.1,0,0.2,0,0.3,0.1c0.1,0,0.2,0.1,0.3,0.1c0.1,0,0.2,0.1,0.3,0.1c0,0,0.1,0,0.1,0.1
			c0,0,0.1,0,0.1,0.1c0.1,0,0.1,0.1,0.2,0.1c0.1,0.1,0.1,0.1,0.1,0.1l0,0c0,0-0.1,0-0.1,0c-0.1,0-0.2-0.1-0.4-0.1
			c-0.1,0-0.2,0-0.3-0.1c-0.1,0-0.2,0-0.3,0c-0.1,0-0.2,0-0.3,0c-0.1,0-0.2,0-0.3,0l-0.1,0l-0.1,0c-0.1,0-0.1,0-0.2,0
			c-0.1,0-0.2,0.1-0.3,0.1c0,0-0.1,0-0.1,0.1c0,0-0.1,0-0.1,0.1c-0.1,0-0.2,0.1-0.2,0.1c-0.1,0.1-0.1,0.1-0.2,0.1
			c-0.1,0-0.1,0.1-0.1,0.1C71.2,30.9,71.1,31,71.1,30.9L71.1,30.9z"/>
	</g>
	<g>
		<path class="st65" d="M78.7,34.2c0,0.4,0.5,0.7,1.1,0.7c0.1,0,0.2,0,0.2,0c0,0,0-0.1,0-0.1c0-0.2-0.1-0.6-0.3-0.9
			c-0.1-0.1-0.1-0.2-0.2-0.4C79.1,33.6,78.7,33.9,78.7,34.2z"/>
	</g>
	<path class="st18" d="M77.5,41.7c0,0-0.7,1.4-0.4,2.2c0,0-3.5-0.2-3.7-2.3C73.4,41.6,76.8,42.5,77.5,41.7z"/>
	<path class="st66" d="M65.5,103.6c0.4-0.4,1.5-0.9,2.2-0.4c0.1,0.1,0.6,0.4,0.1,0.6c-0.4,0.1-1.2,0-2,0.6
		C65.7,104.4,65,104.2,65.5,103.6z"/>
	<path class="st66" d="M66,105.1c0.4-0.5,1.7-1.1,2.6-0.6c0.2,0.1,0.7,0.5,0.2,0.7c-0.5,0.2-1.5-0.1-2.3,0.7
		C66.2,106.1,65.4,105.8,66,105.1z"/>
	<path class="st66" d="M93.6,101.1c-0.2-0.1-0.4-0.2-0.4-0.1l-0.6,0.7c-0.1,0.1,0,0.3,0.1,0.4c0.2,0.1,0.4,0.2,0.4,0.1l0.6-0.7
		C93.8,101.4,93.8,101.2,93.6,101.1z"/>
	<path class="st66" d="M94.4,101.6c-0.2-0.1-0.4-0.1-0.5,0l-0.8,1.1c-0.1,0.2-0.1,0.4,0.1,0.5c0.2,0.1,0.4,0.1,0.5,0l0.8-1.1
		C94.7,102,94.6,101.8,94.4,101.6z"/>
	<g>
		<g>
			<g>
				<path class="st44" d="M63.8,74c0-0.3,0-0.6-0.3-0.6L60,73.2c-0.2,0-0.4,0.3-0.4,0.6c0,0.3,0.1,0.6,0.3,0.6l3.5,0.3
					C63.6,74.6,63.8,74.4,63.8,74z"/>
				<path class="st45" d="M79.1,75.1c0-0.3-0.2-0.6-0.5-0.6l-18.4-1.3c0.1,0.2,0.1,0.4,0.1,0.6c0,0.2-0.1,0.4-0.1,0.6l18.4,1.3
					C78.8,75.7,79.1,75.5,79.1,75.1z"/>
			</g>
			<path class="st31" d="M80.9,75.5c0.1-0.8,0.3-1.5,0.6-1.7l0,0c-0.7,0-2.8,0.2-2.8,0.2v0c-0.2,0-0.5,0.5-0.5,1.1
				c-0.1,0.6,0,1.2,0.3,1.2c0,0,2.1,0.6,2.7,0.7h0.1C81,76.6,80.8,76.1,80.9,75.5z"/>
			<path class="st46" d="M82,75.4c-0.1,0.9-0.4,1.6-0.8,1.6c-0.3,0-0.5-0.8-0.4-1.7c0.1-0.9,0.4-1.6,0.8-1.6
				C81.9,73.7,82.1,74.5,82,75.4z"/>
		</g>
		<path class="st47" d="M59.6,74c0,0.2,0.1,0.3,0.3,0.3l3.4,0.2l14.8,1.1c0,0.3,0.1,0.5,0.3,0.6c0,0,2.1,0.6,2.7,0.7h0.1
			c0,0,0,0,0,0c0,0,0.1,0.1,0.1,0.1c0.3,0,0.6-0.6,0.7-1.4L59.6,74z"/>
	</g>
	<path class="st18" d="M61.9,71.4c0,0-6.4-7.4-4.6-13.2c0.6-1.9,2.9-5.8,2.9-7.3c0-1.2,0-3.7,2.2-4.3c1.9-0.5,5.1,1,4.9,6.2
		c0,0.4,0,1.1-0.9,1.6c-1.8,0.8-2.8,2.2-4.5,6.4c0,0,1.2,0,0.9,3.1c0,0,1,4.9,2.1,5.6c0,0,0.5,0.2,0.5,1.3c0,0,0.9,0,1.6,0.7
		c0,0,2.3,0.7,0.4,2c-0.6,0.4,1.8,3.1,0,3.1c-0.3,0-0.9-0.2-1.3-0.3c-0.4-0.1-0.8,0.3-1.5-0.5c-0.2-0.2-0.6,0-1.1-0.1
		C62.4,75.6,61.7,72.8,61.9,71.4z"/>
	<path class="st13" d="M64.9,47.1c0,0-3.7,1.1-3.5,3.8c0.1,3.1-4.5,9.2-2.6,12.7c1,1.8,1.7,4.3,3.7,7.4c0,0,0.6,3.8,1.9,4.8
		c0,0-2.2,1.2-2.6-3.3c0-0.2,0-0.4,0-0.6c0-0.1,0-0.2,0-0.3c0,0-7.2-8.3-4.1-14.4c0.9-1.7,2.7-5.7,2.5-7.3
		C59.9,48.5,61.7,45.2,64.9,47.1z"/>
</g>
<g>
	<path class="st67" d="M128.3,101.1c0,0-0.5,2.4-0.1,3c0.3,0.5,1.3,0.8,1.7,1.8c0,0,1.2,2.9,3.3,2.8c0,0,2.9,0.1,3.3-1.1
		c0,0,0.6-1.5-0.6-2.4c0,0-3.7-4.3-5.5-5.3c0,0-0.5,0.8-0.8,1C129.2,101.1,128.3,101.1,128.3,101.1z"/>
	<path class="st67" d="M103.2,102c0,0,1.9,1,3.8,0.5c0,0,0.8,2.9,0.1,3c-1.3,0.3-3.6,0.5-4.7,0.9c0,0-3,1.1-4.8,0.2
		c0,0-4-2.2-1.2-2.7C98.1,103.5,102.3,103.6,103.2,102z"/>
	<path class="st12" d="M97.1,53.5c0,0-0.8,1.4-1.1,1.8c0,0-1.7,3.1-0.9,7c0,0,3.1,2.4,5-0.5c0,0,0.7-1.9,0.6-3.4
		C100.8,58.5,100.4,55,97.1,53.5z"/>
	<path class="st12" d="M97.7,62.6c0,0-3.2,0.9-5-3c0,0-1.4-2.6-2.2-5c0,0,0.5-3.7,2.2-2.6c0,0,0.3,0.6,1.1,1.4
		c1.2,1.1,3.2,2.8,3.5,4.5C97.4,57.9,98.7,60.7,97.7,62.6z"/>
	<path class="st12" d="M108.2,30.1c0,0-1.6-2.2-2.4-1.1c-0.8,1.1-2.2,3.6-0.3,5.7c0,0,1.4,1.2,2.4-0.4"/>
	<path class="st68" d="M107.5,31.7c0,0-0.9-1.6-1.3-1.3c0,0-1.3,0.8-0.5,2.3"/>
	<path class="st12" d="M108.2,34.7l-0.5,9.4c0,0,12.9,0.9,14.2-5.9c0,0-0.7-4.7-2.2-6.7C119.7,31.6,110.4,32.1,108.2,34.7z"/>
	<path class="st13" d="M108.7,26.7c0,0-0.9,7.1-0.6,8.7c0,0,0.9,2.8,1.3,3.5c0,0,0.6,1.6,0.8,1.6c2,0.6,7.6-0.3,8.3-0.8
		c0,0,2-0.8,1.8,0.1c0,0,1.6-1.9,1.6-2.8c0,0-1.1-3.8-1.4-5.1c0,0,0.1-1.5-0.8-2.3c0,0,0.1-0.5,0.3-1.3c0,0,0.2-0.3-0.1-0.9
		c0,0-0.2-0.8-1.1-3.6C118.6,23.8,111.2,23.4,108.7,26.7z"/>
	<path class="st6" d="M102.5,64.6c0,0-0.6,3.8,0.1,11.7c0,0,0.1,4.4-0.2,6.1c0,0-0.8,2,0.2,3.3c0,0,2.1,9.1,0.5,16
		c0,0,1.9,1.8,3.9,0.4c0,0,1.5-7.7,1.8-9.9c0,0,0.3-3.2-0.3-5.1c0,0-1.2-2.6,0.5-6.4c0,0,1.4-4.3,1.8-6.3l1.9,0.3
		c0,0,1.3,1.9,1.7,2.3c0,0,3.2,5.2,4.8,6.2c0,0,0.8,1.8,1.5,4.4c0.3,1.1,1.2,2.7,2.5,3.9c0,0,5,6.2,5.2,9.4c0,0,2.1,1.7,3.3-0.6
		c0,0-0.7-1.3-1.1-3c0,0-0.9-3.1-1.1-4c0,0-0.5-3-1.2-4.3c0,0-0.6-2.3-1.3-4.4c-0.4-1.4-1.4-3.5-3.2-5c0,0-1.3-7.6-1.1-15.5
		C122.7,64.3,107.9,66.1,102.5,64.6z"/>
	<path class="st10" d="M109.2,27.5c0,0-1,6.3-0.7,7.6c0,0,1,2.8,1.3,3.4c0,0,0.6,1.4,0.7,1.5c1.8,0.5,6.6-0.1,7.6-0.7
		c0,0,2-0.7,2.1-0.4c0,0,1.5-1.6,1.4-2.4c0,0-1-3.3-1.2-4.5c0,0,0.1-1.5-0.7-2.2c0,0,0-0.1,0.1-0.8c0,0,0.3-0.9,0-1.4
		c0,0-0.7-0.5-1.5-3l-2.3-0.2c0,0-1.3,0.1-1.7,0.1c-0.4,0.1-1.6,0.4-1.6,0.4S110,26.4,109.2,27.5z"/>
	<path class="st69" d="M107.8,31.1c0,0-1.3-3.7,1.4-6.5c0,0,1-0.7,3-0.9c0,0,6-1,7.3-2.2c0,0,0.3,0.9-0.9,2.6c0,0-4.6-0.4-8,1.7
		c0,0,0.9,0.8,0.5,1.7c0,0-0.5,1.6-1.7,2.3l-0.5,1.7C109,31.5,108.6,31.7,107.8,31.1z"/>
	<path class="st68" d="M106.3,33.5c0,0,1.1,0.2,0.7-0.6c0,0-0.6-1.2,0.2-1.5"/>
	<path class="st10" d="M103.9,43.4c0,0-1.3,1.1-2.2,1.3c0,0-2.8,0.2-3.1,1.8c0,0-1,3.2-0.7,5.3c0.1,0.9-0.9,1.7-1.6,3.1
		c-0.6,1.2,2.3-1.9,4.1,7c0,0,2.3-1.6,3.5-3.8C103.9,58.1,105.7,46.1,103.9,43.4z"/>
	<g>
		<path class="st10" d="M121.6,36.6c-1,4-4,5.1-4,5.1c-5.7,2.1-8.7,0.1-9.6-0.8l0.4,0.6l0,0l0.9,1.6l0,0l1,1.6h0l0.9,1.6l1,1.6l0,0
			l0.9,1.6l0,0l0.9,1.6h0l0.9,1.6l-1.6,1l-1-1.6l0,0l-0.9-1.6l0,0l-0.9-1.6l0,0l-1-1.6l-1-1.6l0,0l-0.9-1.6l0,0l-0.9-1.6h0l-0.6-1.1
			c0,0,0,0,0,0l0.6,1.1l0,0l0.9,1.6v0l1,1.6l0,0l0.9,1.6l1,1.6l0,0l0.9,1.6l0,0l0.9,1.6l0,0l1,1.6l-1.6,1l-1-1.6l0,0l-0.9-1.6l0,0
			l-0.9-1.6l0,0l-1-1.6l-1-1.6l0,0l-0.9-1.6l0,0l-1-1.6l0,0l-0.5-0.8c0,0,0,0,0,0l0.5,0.8l0,0l1,1.6l0,0l0.9,1.6l0,0l0.9,1.6
			l0.9,1.6h0l1,1.6l0,0l0.9,1.6h0l0.9,1.6l-1.6,1l-0.9-1.6l0,0l-1-1.6l0,0l-0.9-1.6l0,0l-0.9-1.6l-1-1.6l0,0l-0.9-1.6l0,0l-0.9-1.6
			l0,0l-0.4-0.7c0,0,0,0,0,0l0.4,0.7l0,0l0.9,1.6l0,0l1,1.6l0,0l0.9,1.6l0.9,1.6l0,0l1,1.6l0,0l0.9,1.6l0,0l0.9,1.6l-1.6,1l0,0
			l-1.6,0.9l-0.9-1.6l0,0l-0.9-1.6l0,0l-0.9-1.6l0,0l-1-1.6l-0.8-1.3c0.3,0.7,0.6,1.2,0.6,1.2c0.7,2,0.6,5.9,0.6,5.9
			c-1,3.2-1.2,7.7-1.2,7.7c6.8,5.5,20.3-0.1,20.3-0.1c0-1.7,1.6-6,1.6-6C129.8,40.1,121.6,36.6,121.6,36.6z"/>
		<path class="st2" d="M101.6,44.9c0,0.3-0.1,0.6-0.1,0.8l0.4-0.3L101.6,44.9z"/>
		<path class="st10" d="M101.6,44.9l0.4,0.6l1.6-0.9l0,0l0,0l-0.4-0.7c-0.8,0.5-1.5,0.9-1.5,0.9C101.7,44.7,101.6,44.8,101.6,44.9z"
			/>
		<path class="st10" d="M101.6,44.9l-0.6-1l0,0L101.6,44.9C101.6,44.9,101.6,44.9,101.6,44.9z"/>
		<path class="st10" d="M102,45.5L102,45.5L102,45.5l-0.3-0.6c0,0,0,0,0,0L102,45.5L102,45.5z"/>
		<path class="st2" d="M103.6,44.5L103.6,44.5l1.6-1l-0.5-0.8c-0.5,0.4-1,0.8-1.5,1.1L103.6,44.5L103.6,44.5z"/>
		<path class="st10" d="M106.9,42.5L106.9,42.5L106.9,42.5l-0.6-1c-0.7,0.5-1.4,1.1-1.4,1.1c0,0,0,0-0.1,0l0.5,0.8L106.9,42.5z"/>
		<path class="st2" d="M106.9,42.5L106.9,42.5l1.6-1l0,0l0,0l-0.4-0.6c-0.2-0.2-0.3-0.3-0.3-0.3c-0.3,0-0.9,0.4-1.6,0.8L106.9,42.5
			L106.9,42.5z"/>
		<path class="st10" d="M102.9,47L102.9,47l-0.9-1.6l0,0l0,0l-0.4,0.3c0,0.7,0.1,1.4,0.2,2L102.9,47L102.9,47z"/>
		<path class="st10" d="M101.5,45.7l-1.2,0.7l0,0L101.5,45.7C101.5,45.7,101.5,45.7,101.5,45.7z"/>
		<path class="st10" d="M102,45.5l-0.4,0.3c0,0,0,0,0,0L102,45.5L102,45.5z"/>
		<polygon class="st10" points="102,45.5 102,45.5 102,45.5 102,45.5 		"/>
		<polygon class="st10" points="102,45.5 102,45.5 102,45.5 102,45.5 		"/>
		
			<rect x="102.3" y="44.9" transform="matrix(0.8583 -0.5131 0.5131 0.8583 -8.8531 59.473)" class="st2" width="1.9" height="1.8"/>
		<polygon class="st2" points="102,45.4 102,45.5 102,45.5 102,45.5 103.6,44.5 103.6,44.5 		"/>
		<polygon class="st2" points="102,45.5 102,45.4 102,45.5 102,45.5 102,45.4 102,45.5 		"/>
		<polygon class="st2" points="102.9,47 102.9,47 102,45.5 102,45.5 		"/>
		<polygon class="st2" points="102,45.5 102,45.5 102,45.5 102,45.5 		"/>
		<rect x="102" y="45.5" transform="matrix(0.8592 -0.5117 0.5117 0.8592 -8.8996 58.5836)" class="st2" width="0" height="0"/>
		<polygon class="st10" points="103.6,44.5 104.6,46.1 104.6,46.1 104.6,46 106.2,45.1 106.2,45.1 106.2,45.1 105.2,43.5 
			105.2,43.5 105.2,43.5 		"/>
		<rect x="103.5" y="44" transform="matrix(0.8583 -0.5132 0.5132 0.8583 -7.7849 59.8202)" class="st10" width="1.9" height="0"/>
		<polygon class="st2" points="105.3,43.5 105.3,43.5 106.2,45.1 106.2,45.1 106.2,45.1 107.8,44.1 106.9,42.6 105.3,43.5 		"/>
		<polygon class="st2" points="105.3,43.5 105.3,43.5 106.9,42.6 106.9,42.5 		"/>
		<polygon class="st10" points="107.9,44.1 107.9,44.1 107.8,44.1 109.4,43.1 108.5,41.6 106.9,42.5 		"/>
		<rect x="106.8" y="42" transform="matrix(0.8584 -0.513 0.513 0.8584 -6.3186 61.1994)" class="st10" width="1.9" height="0"/>
		<path class="st2" d="M102.9,47.1l-1.2,0.7c0.1,0.7,0.4,1.3,0.6,1.8l1.6-0.9L102.9,47.1z"/>
		<path class="st2" d="M102.9,47l-1.2,0.7c0,0,0,0,0,0L102.9,47L102.9,47z"/>
		<polygon class="st10" points="103,47.1 103,47.1 103,47.1 103.9,48.6 105.5,47.7 105.5,47.7 105.5,47.7 104.5,46.1 104.5,46.1 
			104.5,46.1 		"/>
		<polygon class="st10" points="102.9,47 102.9,47 102.9,47 102.9,47 		"/>
		<polygon class="st10" points="103,47.1 103,47.1 103,47.1 103,47.1 		"/>
		
			<rect x="102.8" y="46.5" transform="matrix(0.8583 -0.5132 0.5132 0.8583 -9.1932 59.8302)" class="st10" width="1.9" height="0"/>
		<polygon class="st10" points="102.9,47 102.9,47 103,47.1 103,47.1 102.9,47 102.9,47 		"/>
		<polygon class="st10" points="103.9,48.6 103.9,48.6 103.9,48.6 103.9,48.6 103,47.1 102.9,47.1 		"/>
		<polygon class="st10" points="102.9,47.1 102.9,47 102.9,47 102.9,47.1 103,47.1 103,47.1 		"/>
		<polygon class="st10" points="103,47.1 102.9,47 102.9,47 102.9,47.1 		"/>
		<polygon class="st2" points="105.5,47.6 107.1,46.7 107.1,46.7 107.1,46.7 106.2,45.1 104.6,46.1 		"/>
		<rect x="104.4" y="45.6" transform="matrix(0.8554 -0.5179 0.5179 0.8554 -8.3764 61.1647)" class="st2" width="1.9" height="0"/>
		<polygon class="st10" points="106.2,45.1 107.1,46.7 108.7,45.7 108.8,45.7 108.8,45.7 107.8,44.1 107.8,44.1 107.8,44.1 		"/>
		<rect x="106.1" y="44.6" transform="matrix(0.8583 -0.5132 0.5132 0.8583 -7.7258 61.235)" class="st10" width="1.9" height="0"/>
		<polygon class="st2" points="107.9,44.1 108.8,45.7 110.4,44.7 110.4,44.7 110.4,44.7 109.4,43.1 109.4,43.1 109.5,43.2 		"/>
		<polygon class="st2" points="107.9,44.1 109.5,43.2 109.4,43.1 107.8,44.1 		"/>
		<path class="st10" d="M102.3,49.6L102.3,49.6L102.3,49.6l0.1,0.2C102.4,49.7,102.4,49.7,102.3,49.6L102.3,49.6z"/>
		<path class="st10" d="M104.8,50.2L104.8,50.2l-0.9-1.6l-1.6,0.9c0,0.1,0.1,0.2,0.1,0.3l0.8,1.3L104.8,50.2z"/>
		<path class="st10" d="M102.3,49.6C102.3,49.6,102.3,49.6,102.3,49.6L102.3,49.6L102.3,49.6L102.3,49.6z"/>
		<path class="st10" d="M103.9,48.6L103.9,48.6l-1.6,0.9c0,0,0,0,0,0L103.9,48.6L103.9,48.6L103.9,48.6z"/>
		<polygon class="st10" points="103.9,48.6 103.9,48.6 103.9,48.6 103.9,48.6 		"/>
		
			<rect x="104.2" y="48" transform="matrix(0.8583 -0.5132 0.5132 0.8583 -10.2139 60.8982)" class="st2" width="1.9" height="1.9"/>
		<polygon class="st2" points="103.9,48.6 103.9,48.6 103.9,48.6 103.9,48.6 105.5,47.7 105.5,47.7 		"/>
		<polygon class="st2" points="103.9,48.6 103.9,48.6 103.9,48.6 103.9,48.6 		"/>
		<polygon class="st2" points="103.9,48.6 103.9,48.6 103.9,48.6 103.9,48.6 104.8,50.2 104.8,50.2 		"/>
		<polygon class="st2" points="103.9,48.6 103.9,48.6 103.9,48.6 103.9,48.6 		"/>
		<polygon class="st2" points="103.9,48.6 103.9,48.6 103.9,48.6 103.9,48.6 		"/>
		<polygon class="st2" points="103.9,48.6 103.9,48.6 103.9,48.6 103.9,48.6 		"/>
		<polygon class="st10" points="105.5,47.6 105.5,47.6 106.5,49.2 108.1,48.3 107.1,46.7 105.5,47.7 		"/>
		<polygon class="st10" points="105.5,47.6 105.5,47.7 107.1,46.7 107.1,46.7 		"/>
		<polygon class="st2" points="107.1,46.7 107.1,46.7 108.1,48.3 109.7,47.3 108.8,45.7 107.2,46.7 		"/>
		<polygon class="st2" points="107.1,46.7 107.2,46.7 108.8,45.7 108.7,45.7 		"/>
		<polygon class="st10" points="108.8,45.7 108.8,45.7 109.7,47.3 111.3,46.3 110.4,44.7 108.8,45.7 		"/>
		<polygon class="st10" points="108.8,45.7 108.8,45.7 110.4,44.7 110.4,44.7 		"/>
		<polygon class="st2" points="105.8,51.8 104.8,50.2 103.2,51.2 104.2,52.8 104.2,52.8 104.2,52.8 		"/>
		<polygon class="st10" points="104.8,50.2 105.8,51.8 107.4,50.9 106.4,49.3 104.8,50.2 		"/>
		<polygon class="st10" points="104.8,50.2 104.8,50.2 104.8,50.2 104.8,50.2 		"/>
		<polygon class="st10" points="105.8,51.8 105.8,51.8 105.8,51.8 104.8,50.2 104.8,50.2 105.8,51.8 		"/>
		
			<rect x="106.8" y="48.6" transform="matrix(0.8582 -0.5132 0.5132 0.8582 -10.1614 62.3225)" class="st2" width="1.9" height="1.9"/>
		<polygon class="st10" points="109.1,49.9 109.1,49.9 109.1,49.8 110.7,48.9 110.7,48.9 110.7,48.9 109.7,47.3 108.1,48.3 		"/>
		<polygon class="st2" points="110.7,48.9 110.7,48.9 110.7,48.9 112.3,47.9 112.3,47.9 112.3,47.9 111.3,46.3 109.7,47.3 		"/>
		<polygon class="st10" points="106.7,53.4 105.8,51.8 104.2,52.8 105.1,54.4 105.1,54.4 105.1,54.3 		"/>
		<polygon class="st10" points="105.8,51.8 105.8,51.8 105.8,51.8 104.2,52.8 104.2,52.8 105.8,51.8 		"/>
		<polygon class="st10" points="105.8,51.8 105.8,51.8 105.8,51.8 105.8,51.8 		"/>
		<polygon class="st2" points="105.8,51.8 106.7,53.4 108.3,52.4 108.3,52.5 108.3,52.5 107.4,50.9 107.4,50.9 107.4,50.9 		"/>
		<polygon class="st2" points="105.8,51.8 105.8,51.8 105.8,51.8 107.4,50.9 107.4,50.9 105.8,51.8 		"/>
		<polygon class="st2" points="105.8,51.8 105.8,51.8 105.8,51.8 105.8,51.8 		"/>
		<polygon class="st2" points="105.8,51.8 105.8,51.8 106.7,53.4 106.7,53.4 106.7,53.4 106.7,53.4 105.8,51.8 105.8,51.8 		"/>
		<polygon class="st2" points="105.8,51.8 105.8,51.8 105.8,51.8 105.8,51.8 		"/>
		<polygon class="st2" points="105.8,51.8 105.8,51.8 105.8,51.8 105.8,51.8 		"/>
		<polygon class="st2" points="105.8,51.8 105.8,51.8 105.8,51.8 105.8,51.8 		"/>
		<polygon class="st10" points="107.4,50.8 107.4,50.8 107.4,50.8 108.4,52.4 110,51.4 110,51.5 110,51.5 109,49.9 109,49.9 
			109,49.9 		"/>
		
			<rect x="107.3" y="50.3" transform="matrix(0.8583 -0.5132 0.5132 0.8583 -10.5057 62.6791)" class="st10" width="1.9" height="0"/>
		<polygon class="st2" points="110,51.4 111.6,50.5 111.6,50.5 111.6,50.5 110.7,48.9 109.1,49.9 		"/>
		<polygon class="st2" points="109.1,49.8 109.1,49.9 110.7,48.9 110.7,48.9 		"/>
		<polygon class="st10" points="111.7,50.5 111.7,50.5 111.6,50.4 113.2,49.5 113.3,49.5 113.3,49.5 112.3,47.9 110.7,48.9 		"/>
		<polygon class="st10" points="110.7,48.9 110.7,48.9 112.3,47.9 112.3,47.9 		"/>
		<polygon class="st2" points="107.7,55 106.7,53.4 106.7,53.4 106.7,53.4 105.1,54.4 106.1,55.9 106.1,55.9 106.1,55.9 		"/>
		<polygon class="st2" points="106.7,53.4 105.1,54.3 105.1,54.4 106.7,53.4 		"/>
		<rect x="106.7" y="53.4" class="st2" width="0" height="0"/>
		<polygon class="st2" points="106.7,53.4 106.7,53.4 106.7,53.4 106.7,53.4 		"/>
		<polygon class="st10" points="107.7,55 109.3,54 109.3,54 109.3,54 108.3,52.5 106.7,53.4 		"/>
		<polygon class="st10" points="106.7,53.4 106.7,53.4 106.7,53.4 106.7,53.4 108.3,52.5 108.3,52.4 		"/>
		<polygon class="st10" points="106.7,53.4 106.7,53.4 106.7,53.4 106.7,53.4 106.7,53.4 106.7,53.4 		"/>
		<polygon class="st10" points="107.7,55 107.7,55 107.7,55 107.7,55 106.7,53.4 106.7,53.4 		"/>
		<polygon class="st10" points="106.7,53.4 106.7,53.4 106.7,53.4 106.7,53.4 		"/>
		<rect x="106.7" y="53.4" transform="matrix(0.8566 -0.5159 0.5159 0.8566 -12.2455 62.7186)" class="st10" width="0" height="0"/>
		<polygon class="st2" points="108.4,52.4 108.4,52.4 109.3,54 109.3,54 109.3,54 110.9,53 110.9,53 110.9,53 110,51.5 108.4,52.4 
					"/>
		<polygon class="st2" points="108.4,52.4 108.4,52.4 110,51.5 110,51.4 		"/>
		<polygon class="st10" points="110,51.4 110,51.4 110.9,53 112.5,52 111.6,50.5 110,51.5 		"/>
		<polygon class="st10" points="110,51.4 110,51.5 111.6,50.5 111.6,50.5 		"/>
		<polygon class="st2" points="112.6,52 114.2,51.1 114.2,51.1 114.2,51.1 113.3,49.5 111.7,50.5 		"/>
		<polygon class="st2" points="111.6,50.4 111.7,50.5 113.3,49.5 113.2,49.5 		"/>
		<polygon class="st10" points="107.7,55 107.7,55 106.1,55.9 107,57.5 108.6,56.6 107.7,55 		"/>
		<polygon class="st10" points="107.7,55 106.1,55.9 106.1,55.9 107.7,55 		"/>
		<polygon class="st10" points="107.7,55 107.7,55 107.7,55 107.7,55 		"/>
		<polygon class="st10" points="107.7,55 107.7,55 107.7,55 107.7,55 		"/>
		<polygon class="st2" points="108.6,56.6 108.6,56.6 108.6,56.6 110.2,55.6 109.3,54 107.7,55 		"/>
		<polygon class="st2" points="107.7,55 107.7,55 107.7,55 107.7,55 109.3,54 109.3,54 		"/>
		<polygon class="st2" points="107.7,55 107.7,55 107.7,55 107.7,55 107.7,55 107.7,55 		"/>
		<polygon class="st2" points="107.7,55 107.7,55 108.6,56.6 108.6,56.6 		"/>
		<polygon class="st2" points="107.7,55 107.7,55 107.7,55 107.7,55 		"/>
		<rect x="107.7" y="55" transform="matrix(0.8593 -0.5114 0.5114 0.8593 -12.968 62.7968)" class="st2" width="0" height="0"/>
		
			<rect x="109.7" y="53.4" transform="matrix(0.8582 -0.5132 0.5132 0.8582 -12.203 64.4592)" class="st10" width="1.9" height="1.9"/>
		<polygon class="st10" points="109.3,54 109.3,54 110.9,53 110.9,53 		"/>
		<polygon class="st2" points="111,53 110.9,53 110.9,53 111.9,54.6 113.5,53.7 112.5,52 112.5,52 112.6,52.1 		"/>
		
			<rect x="110.8" y="52.5" transform="matrix(0.8583 -0.5132 0.5132 0.8583 -11.1243 64.7937)" class="st2" width="1.9" height="0"/>
		<polygon class="st10" points="112.6,52 112.6,52 113.5,53.6 115.1,52.7 114.2,51.1 112.6,52 		"/>
		<polygon class="st10" points="112.6,52 112.6,52 114.2,51.1 114.2,51.1 		"/>
	</g>
	<path class="st70" d="M107,40.9c0,0,4,4.4,11.7,1.1c1.3-0.5,2.7-2.1,3.1-4.8c0-0.2-0.2-0.6-0.2-0.6s-1.7,3.6-2.4,4.1
		c0,0-2.3,2.1-7.1,1.9c0,0-3.4-0.6-4.4-2L107,40.9z"/>
	<path class="st70" d="M96.8,54c0,0,4.6,2.1,4.2,7.5l-0.6,0.5c0,0-0.7-3.2-1.4-4.5c0,0-0.7-1.8-2.4-2.2C96.7,55.3,95.6,55.6,96.8,54
		z"/>
	<path class="st18" d="M130.8,33.1c0,0,0.6-1.1,2.7-1.7c0,0,2.8,1.1,4.3,4.5c0,0-0.8,4.4-3.1,4.8C134.7,40.7,130.5,39.9,130.8,33.1z
		"/>
	<path class="st10" d="M121.6,36.6c0,0,2.8-1.5,5-0.9c0,0,2.7-2.8,5.2-3.6c0,0-2.2,8.3,3.5,8.3c0,0-7.1,8.4-8.7,12.7
		c0,0-1.1,2.4-2.2,3.8c0,0,3.1-7.5-0.8-16.5C123.8,40.4,122.5,37.4,121.6,36.6z"/>
	<path class="st18" d="M133.5,31.6c0,0,0.3-3.1,3.8-4.9c0,0,3.9-2.4,4.7-6.2c0,0,1.8,1.8,3.4,1.6c0,0-3.1,12.3-8.7,14.3
		C136.7,36.5,132.8,34.6,133.5,31.6z"/>
	<path class="st18" d="M141.9,20.8c0,0-1.6-1.1-1.2-2.2c0,0,0.5-0.7,0.1-1.4c-0.1-0.2,0-1,0.8-0.9c0,0,1.7-0.6,2.2-0.8
		c0.2-0.1,0.2,0.7,0.2,0.7s1.8-1.1,2.3-0.3c0,0,0.5,0.3,0.3,0.8l0.5,2l-0.6,0.4c0,0,0.2,0.7-0.4,0.7l-1.1,2.6
		C145.3,22.5,143.3,22,141.9,20.8z"/>
	<path class="st18" d="M146.8,16.6c0,0,0.6,0.1,0.3,1.2c0,0.1,0.1,0,0.2,0c0.2,0.1,0.4,0.4-0.1,1c-0.1,0.1-0.6,0.4-0.6,0.4
		c0.3,0.7-0.4,0.7-0.4,0.7l-0.2,0.4c-0.3-0.2-1-1-1-1s-1.1-1.9-1.1-3.1C144.1,16.2,146.8,14.6,146.8,16.6z"/>
	<g>
		<path class="st71" d="M143.1,18.8c0,0,0,0,0.1,0c0.1,0,0.2,0,0.3,0.1c0.1,0,0.1,0.1,0.2,0.1c0.1,0,0.1,0.1,0.2,0.1
			c0.1,0,0.1,0.1,0.2,0.2c0.1,0.1,0.1,0.1,0.1,0.2c0,0.1,0.1,0.1,0.1,0.2c0,0.1,0.1,0.1,0.1,0.2c0,0.1,0,0.1,0.1,0.2
			c0,0.1,0,0.1,0,0.2c0,0.1,0,0.1,0,0.2c0,0,0,0.1,0,0.1c0,0.1,0,0.1,0,0.1s0,0,0-0.1c0,0,0-0.1,0-0.1c0,0,0-0.1,0-0.1
			c0-0.1,0-0.1-0.1-0.2c0-0.1,0-0.1-0.1-0.2c0-0.1-0.1-0.1-0.1-0.2c0-0.1-0.1-0.1-0.1-0.2c-0.1-0.1-0.2-0.2-0.3-0.3
			c-0.1-0.1-0.2-0.2-0.3-0.2C143.3,19,143.2,18.9,143.1,18.8C143.1,18.8,143.1,18.8,143.1,18.8z"/>
	</g>
	<path class="st12" d="M90.7,54.6c0,0-0.5,2.6-3.3,0c0,0-1.4,0-0.7-2c0,0-0.7-0.6-0.8-0.9c-0.2-0.5,0-1.8,0.8-1.9
		c0,0-0.7-0.3-0.8-0.5c-0.2-0.3-0.2-1.1,0.4-1.4c0,0,2-1.3,2.9-0.2c0,0,1.3-0.2,1.6-0.5c0,0,0.4-0.3,1,0.1l1.8,0.9
		c0,0,0.2,0.1,0.2,0.6c0,0-0.1,0.5,0.1,0.9c0.1,0.3,0.3,0.4,0.2,0.6C93.6,51.1,90.8,53.9,90.7,54.6z"/>
	<path class="st12" d="M86.6,54.2c0.4,1,2,0,2,0c0.8-0.3-0.1-1.6-0.1-1.6c0.3-0.3,0.5-0.7,0.5-0.7c0.5-0.7-0.8-1.9-0.8-1.9
		c0.3-0.4,1-2.4,1-2.4s-0.2,0-0.7-0.3c0,0-0.8-0.3-2.2,0.5c0,0-1.6,0.9,0.1,2c0,0-1.7,1.5,0.2,2.9C86.7,52.6,86.3,53.4,86.6,54.2z"
		/>
	<g>
		<path class="st71" d="M89.7,54.1c-0.1-0.1-0.1-0.2-0.1-0.4c0-0.1,0-0.1-0.1-0.2c0-0.1,0-0.1,0-0.2c0-0.1,0-0.1,0-0.2
			c0-0.1,0-0.1,0-0.2c0-0.1,0-0.1,0-0.2c0-0.1,0-0.1,0-0.2c0-0.1,0-0.1,0.1-0.2c0-0.1,0.1-0.1,0.1-0.2l0.1-0.2
			c0-0.1,0.1-0.1,0.1-0.1c0,0,0.1-0.1,0.1-0.1l0.2-0.1c0.1,0,0.1-0.1,0.2-0.1l0.2-0.1l0,0.1c0-0.1-0.1-0.2-0.1-0.3
			c0-0.1-0.1-0.2-0.1-0.3c0-0.1,0-0.2,0-0.3c0-0.1,0-0.2,0-0.3c0-0.1,0-0.2,0-0.3c0,0,0-0.1,0-0.1c0,0,0-0.1,0-0.1l0-0.1
			c0,0,0-0.1,0.1-0.1c0,0,0-0.1,0.1-0.1l0.1-0.1l-0.1,0.1c0,0,0,0.1-0.1,0.1c0,0,0,0.1,0,0.1l0,0.1c0,0,0,0.1,0,0.1c0,0,0,0.1,0,0.1
			c0,0.1,0,0.2,0,0.3c0,0.1,0,0.2,0,0.3c0,0.1,0,0.2,0.1,0.3c0,0.1,0,0.2,0.1,0.3c0,0.1,0.1,0.2,0.1,0.3l0,0.1l-0.1,0l-0.2,0.1
			c-0.1,0-0.1,0.1-0.2,0.1l-0.2,0.1c-0.1,0-0.1,0.1-0.1,0.1c0,0-0.1,0.1-0.1,0.1l-0.1,0.1c0,0-0.1,0.1-0.1,0.2
			c0,0.1-0.1,0.1-0.1,0.2c0,0.1,0,0.1-0.1,0.2c0,0.1,0,0.1,0,0.2c0,0.1,0,0.1,0,0.2c0,0.1,0,0.1,0,0.2c0,0.1,0,0.1,0,0.2
			c0,0.1,0,0.1,0,0.2C89.6,53.9,89.7,54,89.7,54.1z"/>
	</g>
	<path class="st72" d="M103.2,101.5c0,0,1.9,1,3.8,0.5c0,0,0.4,1.4,0.4,2.4c0,1.3-3.9,1.2-4.9,1.6c0,0-3,1.1-4.8,0.2
		c0,0-4-1.7-1.2-2.2C98.1,103.5,102.3,103.1,103.2,101.5z"/>
	<path class="st73" d="M98.9,103.4c0,0,1.2,0.3,1.5,2.3c0.1,0.4,1.1,0.1,1.1-0.9c0-0.6-0.3-1.3-1.5-1.7L98.9,103.4z"/>
	<path class="st73" d="M101.5,102.6c0,0,0.8,0.8,1.5,2c0.2,0.3,0.8-0.5,0.8-0.9c0-0.5-1-1.6-1.5-1.3L101.5,102.6z"/>
	<path class="st72" d="M128.3,101.1c0,0,0,2.2,0.4,2.8c0.4,0.5,1.5,0.9,1.8,1.9c0,0,0.5,2.9,2.6,2.9c0,0,3.4,0.1,3.8-1.1
		c0,0,0.6-1.5-0.6-2.4c0,0-3.2-3.3-5.1-5.3c0,0-0.8,0.8-1.2,1C129.7,101.1,128.3,101.1,128.3,101.1z"/>
	<path class="st73" d="M133.8,102.5c0,0-2.3,0-2.5,1.1c0,0,0.2,1.5,1.3,0.2c0,0,1-0.8,2.1-0.5L133.8,102.5z"/>
	<path class="st73" d="M135.7,104.4c0,0-2.6-0.6-2.7,1c0,0.3,0.3,1.3,1.3,0.4c0.4-0.4,0.8-1.1,2.3-0.5L135.7,104.4z"/>
	<path class="st74" d="M118.6,24.1c0,0-6.7,0.4-7.7,1.7l-0.1,0.2c0,0,0.4,0.4,0.4,1.2c0,0.6-0.9,2.1-1.8,2.7l-0.5,1.7
		c0,0-1.1-0.1-1.2-0.6c0,0,0.3,0,0.9,0.1l0.3-1.4c0,0,1.5-1.5,1.6-2.5c0-0.3-0.5-1.1-0.3-1.6c0.2-0.7,1.3-1.8,7.7-2.1
		c0.6,0,1.2-1.1,1.6-2C119.6,21.5,119.9,22.6,118.6,24.1z"/>
	<path class="st28" d="M128.7,34c0,0-2.2,2.7-1.6,5.6c0,0-0.9-0.6-0.4-3.8C126.7,35.7,128,34.4,128.7,34z"/>
	<path class="st70" d="M131.9,32.1c0,0-2.1,8.2,3.5,8.3l-1,1.3c0,0-4.5-1.6-4.2-5.8c0.1-0.9,0.3-2.6,0.9-3.5c0,0,0.3-0.2,0.5-0.2
		c0,0,0.1,0,0.2-0.1C131.8,32.1,131.9,32.1,131.9,32.1z"/>
	<path class="st13" d="M133.8,40.1c0,0,2.9-1.8,3.2-5c0,0,3.5-3.3,5.6-7.4c0.7-1.3,1.8-3.8,1.8-5.8l1,0.2c0,0-1.7,9.5-7.5,13.7
		c0,0-0.5,3.3-2.4,4.5c0,0-0.4,0-0.5,0C134.7,40.4,133.8,40.1,133.8,40.1z"/>
	<path class="st13" d="M90.7,53.7c0,0,1.1,3.9,2.2,5.6c0,0,4.3,6.5,7.2,1.8l0.1-0.1l0.1,0.6c0,0-1.4,3.9-6.2,0c0,0-1.7-1.7-2.5-4.1
		c0,0-1-2.3-1.1-2.8L90.7,53.7z"/>
	<path class="st13" d="M143.9,15.5c0.6,0.2,0.2,1,1.4,2.1c0.2,0.2-0.1,0.8-0.9,0.4c0,0-0.7-0.1-1.2-0.7c0,0,0.2,1.5-0.4,2
		c0,0-0.7,1-1.1,1.2c0,0-1-0.7-0.9-1.7c0,0,0.4-0.8,0.2-1.5c-0.1-0.3-0.1-1.2,0.8-1C141.6,16.3,143.7,15.4,143.9,15.5z"/>
	<path class="st7" d="M122.7,64.5c0,0,0.3,11.9,1.1,15.3c0,0,3.1,1.9,4.4,9.4c0,0,0.7,1,1.1,4.2c0,0,1.4,5.5,2,6.6l-0.8,0.7
		c0,0-2.1-6.2-2.1-6.9c0-1.1-1.3-3.4-1.5-4.2c-1.2-4-2.8-7-4.1-9c-2.1-3.3-1.9-12.1-1.6-15.5L122.7,64.5z"/>
	<path class="st7" d="M106.1,101.9c0,0,1.8-9.6,1.3-14.9c0,0-1.2-3.4,0.5-6.8c0,0,1.6-4.6,1.9-6l0.9,0.2l-1.9,6.4
		c0,0-1.5,2.7-0.4,6.3c0,0,1,2.8,0,6.8l-1.4,8.1L106.1,101.9z"/>
	<path class="st68" d="M87.5,54.6c0,0,2.5-0.4,1.1-2c0,0,1.5-1.1-0.1-2.5"/>
	<path class="st68" d="M86.7,52.6c0,0,0.9-0.4,1.9,0"/>
	<path class="st68" d="M86.5,49.7c0,0,1-0.1,2.2,0.4"/>
	<path class="st68" d="M146.3,19.9c-0.6,0-0.6-1-0.6-1c-0.6-0.2-0.8-1.3-0.8-1.3s1.2,0.3,2-1.1"/>
	<path class="st68" d="M145.6,18.9c0,0,1-0.1,1.5-1.2"/>
	<path class="st28" d="M98.4,51.7c0,0-0.3-5.9,2.9-6.7c0,0-1.6,1.1-2.1,3.4L98.4,51.7z"/>
	<path class="st72" d="M95.7,105c0,0-1.2-0.9,0.7-1.2l1.5-0.3c0,0,2,0.8,0.8,2.9C98.8,106.4,97.4,106.3,95.7,105z"/>
	<path class="st72" d="M131.4,100c0,0-2.3,2.2,0.3,3.1c0,0,1.2-0.7,2.2-0.4L131.4,100z"/>
	<path class="st13" d="M93.6,49.2c-2.8-2.4-3,0.3-3.4,0.6c-1.5,0.9-2.3,0.4-2.1-0.1c1.1-2,0.5-1.8,1-2.1c0.3-0.2,1.2-0.5,1.2-0.5
		c0.4-0.4,1-0.2,1-0.2l2,1c0.1,0.2,0.2,0.3,0.2,0.5L93.6,49.2z"/>
	<path class="st28" d="M124.7,49.8c0,0,1.2-1.7,1.4-3.4c0,0-0.6-0.9-2.3-1.5c0,0,1.8-0.4,3,1.1C126.8,46,127.2,48,124.7,49.8z"/>
	<path class="st11" d="M102,48.4c0,0,1.4,5.8,6.3,5c0.4-0.1,1.9,0.3,1.5,0.6c0,0-0.1,0.1-0.2,0c0,0-1.1-0.7-2.3,0c0,0-0.4,0.1-0.6,0
		c0,0-3.1-1.2-4.1-3.7C102.5,50.3,101.9,48.6,102,48.4z"/>
	<path class="st75" d="M103.4,65.3l-0.9-0.7c0,0-0.2-2.7,0.7-5.7c0,0,1.5-2.9,0.9-6.6l1,0.7c0,0-0.2,4-1,6.5
		C103.5,60.8,103.1,63.6,103.4,65.3z"/>
	<path class="st75" d="M117.2,53.3c0,0,5.3-0.6,9.2-4.6c0.7-0.7,0.9-1,1.2-1.9c0,0,0.2,1.7-1,2.7c0,0-4.3,3.9-7.9,4.1
		C118.3,53.6,117.6,53.6,117.2,53.3z"/>
	<path class="st75" d="M96.8,54c0,0,1-1.3,1.1-1.8c0,0-0.1-1.9,0-2.2c0,0,0.1-0.8,0.3-1.7c0.1-0.6,0.3-1.3,0.5-1.9
		c0.1-0.2,0.1-0.4,0.2-0.6c0.1-0.2,0.3-0.4,0.4-0.4c0,0,0.3-0.3,0.8-0.5c0.4-0.1,1.4-0.3,1.6-0.3c0,0-1.9,0.8-2.1,1.3
		c0,0-1.7,3.5-1,6.3C98.6,52.3,98,53.9,96.8,54z"/>
	<path class="st2" d="M113.9,40.1l-1.1-15.1c-2.4,0.6-1.9,1.6-1.9,1.1c0,0,1.1,0.8-0.5,3.1l-0.9,0.8l-0.5,1.7l-0.4-0.1
		c0,0-0.7,4,0.2,4.5c0,0,0.6,1.6,1,2.4c0.1,0.4,0.3,0.8,0.4,1.1c0.1,0.3,0.3,0.4,0.3,0.4S112.6,40.4,113.9,40.1z"/>
	<path class="st2" d="M116.1,24.3"/>
	<path class="st2" d="M116,24.4c0,0,0.7-0.1,1-0.1c0.2,0,1.8-0.1,1.8-0.1s0.3,1.1,0.6,2.4c0.2,0.8,0.3,1,0.3,1.1c0,0,0.4,1-0.1,2.1
		c0,0,0.6,0.8,0.6,1.5l0.1,0.8l1.3,4.6c0,0-0.9,2.3-1.5,2.3l-2.1,0.4C118.1,39.2,117.2,27.3,116,24.4z"/>
	<path class="st22" d="M112.8,29.8c0.6-0.3,1.2-1.4,2.6-0.3c0,0,0.2-0.1-0.3-0.5c-0.5-0.4-1.3-0.8-2.5,0.1
		C112.6,29,112.5,29.9,112.8,29.8z"/>
	<path class="st22" d="M118,28.9c0.1-0.5,1.2-1.1,1.8-0.6l0,0.4c0,0-0.8-0.4-1.5,0.4C118.3,29.1,118,29.3,118,28.9z"/>
	<path class="st76" d="M117,37.8c-0.7,0-2.2-0.2-3.7-1.8l-0.3-0.3l0.2-0.3c0.1-0.1,2.2-3,4.4-3c1,0,1.9,0.6,2.5,1.8
		c0.2,0.4,0.2,1,0,1.5c-0.4,0.9-1.3,1.7-2.6,2.1l0,0l0,0C117.5,37.8,117.3,37.8,117,37.8z"/>
	<path class="st77" d="M113.6,35.7c0,0,3.8-5.4,6-1.3c0.4,0.8-0.3,2.3-2.3,2.8C117.4,37.3,115.6,37.7,113.6,35.7z"/>
	<path class="st73" d="M114.5,34.7c0,0-0.6,0.6-0.8,1c0,0,4.1-1.7,6.1-1.1c0,0-0.9-2.5-3.2-1.5C116.5,33.1,115.5,33.6,114.5,34.7z"
		/>
	<path class="st78" d="M115.9,37.1c0,0,1.2-1.5,2.8-0.5c0,0-0.7,0.5-1.3,0.6C117.3,37.3,116.4,37.3,115.9,37.1z"/>
	<g>
		<g>
			<path class="st79" d="M112.3,28.5c0,0,0.1-0.2,0.4-0.3c0.1,0,0.1-0.1,0.2-0.1c0.1,0,0.2-0.1,0.2-0.1c0.1,0,0.2-0.1,0.3-0.1
				c0.1,0,0.2-0.1,0.3-0.1c0.1,0,0.2,0,0.3,0c0.1,0,0.2,0,0.3,0c0.1,0,0.2,0,0.3,0.1c0.1,0,0.2,0.1,0.2,0.1c0.1,0,0.1,0.1,0.2,0.1
				c0,0,0.1,0.1,0.1,0.1c0.1,0.1,0.1,0.1,0.1,0.1s0,0-0.1,0c0,0-0.1,0-0.1-0.1c-0.1,0-0.1,0-0.2,0c-0.1,0-0.1,0-0.2,0
				c-0.1,0-0.2,0-0.2,0c-0.1,0-0.2,0-0.3,0c-0.1,0-0.2,0-0.3,0c-0.1,0-0.2,0-0.3,0.1c-0.1,0-0.2,0-0.3,0.1c-0.1,0-0.2,0.1-0.2,0.1
				c-0.1,0-0.1,0.1-0.2,0.1c-0.1,0-0.1,0.1-0.2,0.1c-0.1,0-0.1,0-0.1,0.1C112.4,28.5,112.3,28.5,112.3,28.5z"/>
		</g>
	</g>
	<g>
		<g>
			<path class="st79" d="M117.3,28c0,0,0.1-0.2,0.3-0.3c0.1-0.1,0.2-0.2,0.4-0.2c0.1,0,0.2-0.1,0.2-0.1c0.1,0,0.2,0,0.3-0.1l0.1,0
				c0,0,0.1,0,0.1,0c0.1,0,0.2,0,0.3,0c0.1,0,0.2,0,0.2,0.1c0.1,0,0.1,0.1,0.2,0.1c0.1,0,0.1,0.1,0.2,0.1c0,0,0.1,0.1,0.1,0.1
				c0.1,0.1,0.1,0.1,0.1,0.1s0,0-0.1,0c0,0-0.1,0-0.1,0c0,0-0.1,0-0.2,0c-0.1,0-0.1,0-0.2,0c-0.1,0-0.1,0-0.2,0c-0.1,0-0.2,0-0.2,0
				c0,0-0.1,0-0.1,0l-0.1,0c-0.1,0-0.2,0-0.2,0c-0.1,0-0.2,0-0.2,0.1c-0.1,0-0.1,0-0.2,0.1c-0.1,0-0.1,0.1-0.2,0.1
				c-0.1,0.1-0.2,0.1-0.3,0.1C117.3,28,117.3,28,117.3,28z"/>
		</g>
	</g>
	<path class="st65" d="M115.2,31.7c0.1,0.6-0.4,1.3-1.2,1.5c-0.8,0.2-1.6-0.2-1.7-0.8c-0.1-0.6,0.4-1.3,1.2-1.5
		C114.3,30.7,115.1,31.1,115.2,31.7z"/>
	<path class="st65" d="M119.7,29.7c-0.6-0.1-1.5,0.4-1.8,0.9c-0.4,0.7,0.1,1.2,0.4,1.3c0.8,0.4,2.1,0.1,2.1,0.1
		C120.4,31.8,120.3,29.9,119.7,29.7z"/>
</g>
</svg>
