<svg xmlns="http://www.w3.org/2000/svg" xmlns:xlink="http://www.w3.org/1999/xlink" viewBox="0 0 356.87 187.26"><defs><style>.cls-1{fill:#224f26;}.cls-2{isolation:isolate;}.cls-3{clip-path:url(#clip-path);}.cls-4{opacity:0.27;mix-blend-mode:multiply;}.cls-19,.cls-30,.cls-5,.cls-9{fill:#fff;}.cls-6{fill:#ffc10e;}.cls-7{fill:#0d0c0c;}.cls-8{fill:#0c6c39;}.cls-18,.cls-48,.cls-9{opacity:0.4;}.cls-10{opacity:0.3;}.cls-11{fill:#162817;}.cls-12{fill:#e9e6e6;}.cls-13,.cls-30,.cls-74{opacity:0.5;}.cls-14{fill:#ac5c38;}.cls-15{fill:#814126;}.cls-16{fill:#16331a;}.cls-17{fill:#245c2e;}.cls-18{fill:#181a2b;}.cls-19{opacity:0.2;}.cls-20{fill:#ac5a35;}.cls-21{fill:#bc694b;}.cls-22{fill:#c66d4a;}.cls-23{fill:#f79f80;}.cls-24{fill:#201a28;}.cls-25{fill:#472b22;}.cls-26{fill:#e2e2e1;}.cls-27{fill:#1e1927;}.cls-28{fill:#e28079;}.cls-29{fill:#1d1b23;}.cls-31{fill:#1e4721;}.cls-32{fill:#286ab3;}.cls-33{fill:#275127;}.cls-34{fill:#8d4830;}.cls-35{fill:#9f9e9b;}.cls-36{fill:#0e4924;}.cls-37{fill:#177d3e;}.cls-38{fill:#824226;}.cls-39{fill:#242;}.cls-40{fill:#152916;}.cls-41{fill:#050706;}.cls-42{fill:#19171b;}.cls-43{fill:#e2866a;}.cls-44{fill:#2c5f2f;}.cls-45{fill:#0a1a2c;}.cls-46{fill:#263575;}.cls-47{fill:#c1bebb;}.cls-49{fill:#ba6d4f;}.cls-50{fill:#e9e8e7;}.cls-51{fill:#a19e97;}.cls-52{fill:#cbcac8;}.cls-53{fill:#8d8a8a;}.cls-54{fill:#d8d4d1;}.cls-55{fill:#17aead;}.cls-56{fill:#a9a4a5;}.cls-57{fill:#434044;}.cls-58{fill:#2a292d;}.cls-59{fill:#3f1e10;}.cls-60{fill:#e3eaee;}.cls-61{fill:#792e23;}.cls-62{fill:#c2513c;}.cls-63{fill:#2c160e;}.cls-64{fill:#dd766c;}.cls-65{fill:#c3c2d7;}.cls-66{fill:#e1a825;}.cls-67{fill:none;stroke:#f08b5f;stroke-miterlimit:10;stroke-width:0.17px;}.cls-68{fill:#162144;}.cls-69{fill:#122314;}.cls-70{fill:#f08b5f;}.cls-71{fill:#484ea0;}.cls-72{fill:#fcedf3;}.cls-73{fill:#0f1321;}.cls-75{fill:#7e8386;}.cls-76{fill:#31160e;}.cls-77{fill:#892d2f;}.cls-78{fill:#b45541;}.cls-79{fill:#231f20;}</style><clipPath id="clip-path"><rect class="cls-1" x="63.87" y="42.51" width="293" height="123" rx="11.19"/></clipPath></defs><title>Asset 13</title><g class="cls-2"><g id="Layer_2" data-name="Layer 2"><g id="Layer_1-2" data-name="Layer 1"><rect class="cls-1" x="63.87" y="42.51" width="293" height="123" rx="11.19"/><g class="cls-3"><rect class="cls-1" x="63.87" y="42.51" width="293" height="123" rx="11.19"/><g class="cls-4"><path class="cls-1" d="M68.53,2.8C50.1,7,28.18,20.26,17.1,35.57,7.37,49,1.13,63.44.28,80c-1.37,26.56,1.82,55.58,20.06,74.93a103.78,103.78,0,0,0,47.45,28.36c13.12,3.44,53.24,6.87,72.13,0,14.06-5.11,27.76-11.67,38.06-22.52,6.06-6.38,11.74-13.23,15.92-21C201,126.53,203.45,111,202,96S197.42,65.29,190.26,52a93.43,93.43,0,0,0-28-32.14C149.26,10.51,110.93-6.77,68.53,2.8Z"/></g></g><path class="cls-5" d="M238.44,113.19a3,3,0,0,1,1.14.86,4,4,0,0,1,.62,1,3.4,3.4,0,0,1,.22,1.28,3.64,3.64,0,0,1-.44,1.72,2.43,2.43,0,0,1-1.45,1.19,2.33,2.33,0,0,1,1.2,1,4.05,4.05,0,0,1,.35,1.91V123a6.64,6.64,0,0,0,.07,1.14,1,1,0,0,0,.47.7v.3H237.8c-.08-.27-.13-.49-.17-.65a6.24,6.24,0,0,1-.1-1.06l0-1.14a2.38,2.38,0,0,0-.4-1.56,2.08,2.08,0,0,0-1.46-.39h-2.5v4.8h-2.5V112.88h5.86A5.3,5.3,0,0,1,238.44,113.19ZM233.15,115v3.29h2.75a3,3,0,0,0,1.23-.2,1.37,1.37,0,0,0,.73-1.38,1.55,1.55,0,0,0-.7-1.49A2.49,2.49,0,0,0,236,115Z"/><path class="cls-5" d="M248.46,116.25a3.65,3.65,0,0,1,1.56,1.34,4.41,4.41,0,0,1,.72,1.87,10.86,10.86,0,0,1,.08,1.79h-6.59a2.16,2.16,0,0,0,1,1.91,2.35,2.35,0,0,0,1.3.34,2,2,0,0,0,1.31-.41,1.89,1.89,0,0,0,.49-.63h2.42a3,3,0,0,1-.88,1.64,4.4,4.4,0,0,1-3.4,1.32,4.94,4.94,0,0,1-3.19-1.11,4.4,4.4,0,0,1-1.38-3.63,4.9,4.9,0,0,1,1.24-3.6,4.35,4.35,0,0,1,3.24-1.26A5,5,0,0,1,248.46,116.25Zm-3.54,2a2.4,2.4,0,0,0-.63,1.4h4.07a2,2,0,0,0-.63-1.43,2.08,2.08,0,0,0-1.4-.49A1.88,1.88,0,0,0,244.92,118.29Z"/><path class="cls-5" d="M254.31,125.11H252V112.88h2.36Z"/><path class="cls-5" d="M258.93,115h-2.4V112.8h2.4Zm-2.4,1.07h2.4v9h-2.4Z"/><path class="cls-5" d="M265.58,116.06a2.75,2.75,0,0,1,1.39,1.31v-1.31h2.31v8.59a4.76,4.76,0,0,1-.59,2.64c-.67,1-2,1.52-3.88,1.52a5.23,5.23,0,0,1-2.83-.68,2.48,2.48,0,0,1-1.21-2h2.57a1.07,1.07,0,0,0,.32.6A2.07,2.07,0,0,0,265,127a1.73,1.73,0,0,0,1.71-.85,4.34,4.34,0,0,0,.28-1.85v-.58a2.84,2.84,0,0,1-.73.87,2.93,2.93,0,0,1-1.83.54,3.46,3.46,0,0,1-2.79-1.22,5,5,0,0,1-1-3.32,5.6,5.6,0,0,1,1-3.39,3.33,3.33,0,0,1,2.85-1.37A3.07,3.07,0,0,1,265.58,116.06Zm.81,6.48a2.9,2.9,0,0,0,.57-2,3.07,3.07,0,0,0-.54-2,1.77,1.77,0,0,0-1.45-.67,1.72,1.72,0,0,0-1.72,1.17,4.24,4.24,0,0,0-.24,1.53,3.43,3.43,0,0,0,.26,1.4,1.72,1.72,0,0,0,1.72,1.15A1.82,1.82,0,0,0,266.39,122.54Z"/><path class="cls-5" d="M273.8,115h-2.4V112.8h2.4Zm-2.4,1.07h2.4v9h-2.4Z"/><path class="cls-5" d="M283.52,124a5,5,0,0,1-7,0,5.23,5.23,0,0,1-1.14-3.4,5.3,5.3,0,0,1,1.14-3.39,4.92,4.92,0,0,1,7,0,5.31,5.31,0,0,1,1.15,3.39A5.24,5.24,0,0,1,283.52,124Zm-1.89-1.3a4.27,4.27,0,0,0,0-4.19,2.09,2.09,0,0,0-3.19,0,4.2,4.2,0,0,0,0,4.19,2.11,2.11,0,0,0,3.19,0Z"/><path class="cls-5" d="M293.54,116.58a3,3,0,0,1,.88,2.44v6.09H292v-5.5a2.5,2.5,0,0,0-.19-1.1,1.33,1.33,0,0,0-1.32-.69,1.64,1.64,0,0,0-1.64,1,3.59,3.59,0,0,0-.23,1.37v4.9h-2.36v-9h2.29v1.32a3.92,3.92,0,0,1,.86-1,2.94,2.94,0,0,1,1.84-.55A3.49,3.49,0,0,1,293.54,116.58Z"/><path class="cls-5" d="M304.69,119.61a4.16,4.16,0,0,0,.95-.21.71.71,0,0,0,.51-.67.8.8,0,0,0-.39-.77,2.51,2.51,0,0,0-1.15-.21,1.48,1.48,0,0,0-1.2.42,1.62,1.62,0,0,0-.34.83h-2.28a3.5,3.5,0,0,1,.66-2,3.92,3.92,0,0,1,3.24-1.19,5.68,5.68,0,0,1,2.65.59,2.26,2.26,0,0,1,1.16,2.22v4.15c0,.29,0,.64,0,1a1.3,1.3,0,0,0,.15.63.79.79,0,0,0,.34.27v.35h-2.57a2.88,2.88,0,0,1-.15-.51c0-.16,0-.35-.07-.55a4.53,4.53,0,0,1-1.13.9,3.36,3.36,0,0,1-1.74.44,3,3,0,0,1-2-.7,2.47,2.47,0,0,1-.8-2,2.57,2.57,0,0,1,1.29-2.41,5.93,5.93,0,0,1,2.09-.58Zm1.45,1.1a2.2,2.2,0,0,1-.46.23,3.54,3.54,0,0,1-.63.16l-.54.1a3.45,3.45,0,0,0-1.09.33,1.23,1.23,0,0,0-.22,1.88,1.31,1.31,0,0,0,.83.27,2.45,2.45,0,0,0,1.43-.45,1.91,1.91,0,0,0,.68-1.64Z"/><path class="cls-5" d="M317.74,116.58a3,3,0,0,1,.89,2.44v6.09h-2.42v-5.5a2.65,2.65,0,0,0-.19-1.1,1.33,1.33,0,0,0-1.32-.69,1.63,1.63,0,0,0-1.64,1,3.59,3.59,0,0,0-.23,1.37v4.9h-2.37v-9h2.29v1.32a4.13,4.13,0,0,1,.86-1,3,3,0,0,1,1.85-.55A3.45,3.45,0,0,1,317.74,116.58Z"/><path class="cls-5" d="M325.51,116.21a2.92,2.92,0,0,1,1,1v-4.32h2.39v12.22h-2.29v-1.25a3.33,3.33,0,0,1-1.16,1.17,3.28,3.28,0,0,1-1.61.36,3.34,3.34,0,0,1-2.67-1.28,4.92,4.92,0,0,1-1.08-3.29,5.66,5.66,0,0,1,1.07-3.64,3.45,3.45,0,0,1,2.85-1.33A2.93,2.93,0,0,1,325.51,116.21Zm.58,6.45a3.32,3.32,0,0,0,.52-1.94,2.94,2.94,0,0,0-.84-2.37,1.78,1.78,0,0,0-1.19-.43,1.66,1.66,0,0,0-1.52.78,4.22,4.22,0,0,0,0,4,1.68,1.68,0,0,0,1.5.75A1.77,1.77,0,0,0,326.09,122.66Z"/><path class="cls-5" d="M216.58,133.28h2.68l4.86,8.53v-8.53h2.38v12.23h-2.56l-5-8.68v8.68h-2.38Z"/><path class="cls-5" d="M232.17,140a4.16,4.16,0,0,0,1-.21.71.71,0,0,0,.51-.67.8.8,0,0,0-.39-.77,2.54,2.54,0,0,0-1.15-.21,1.51,1.51,0,0,0-1.21.42,1.71,1.71,0,0,0-.33.83h-2.29a3.51,3.51,0,0,1,.67-2,3.92,3.92,0,0,1,3.24-1.19,5.71,5.71,0,0,1,2.65.59,2.26,2.26,0,0,1,1.16,2.22v4.15c0,.29,0,.64,0,1a1.46,1.46,0,0,0,.14.63.89.89,0,0,0,.35.27v.35h-2.57a2.88,2.88,0,0,1-.15-.51c0-.16,0-.34-.07-.55a4.53,4.53,0,0,1-1.13.9,3.36,3.36,0,0,1-1.74.44,3,3,0,0,1-2-.7,2.48,2.48,0,0,1-.81-2,2.58,2.58,0,0,1,1.3-2.41,5.86,5.86,0,0,1,2.09-.58Zm1.45,1.1a2.47,2.47,0,0,1-.46.23,3.68,3.68,0,0,1-.64.16l-.53.1a3.45,3.45,0,0,0-1.09.33,1.08,1.08,0,0,0-.56,1,1,1,0,0,0,.34.88,1.31,1.31,0,0,0,.83.27,2.47,2.47,0,0,0,1.43-.45,1.91,1.91,0,0,0,.68-1.64Z"/><path class="cls-5" d="M237,138.23v-1.68h1.27V134h2.34v2.53h1.47v1.68H240.6V143c0,.37,0,.61.14.7a1.57,1.57,0,0,0,.86.13h.47v1.76l-1.12,0a3.05,3.05,0,0,1-2.29-.58,1.73,1.73,0,0,1-.4-1.26v-5.57Z"/><path class="cls-5" d="M245.9,135.39h-2.4V133.2h2.4Zm-2.4,1.07h2.4v9h-2.4Z"/><path class="cls-5" d="M255.62,144.41a5,5,0,0,1-7,0,5.6,5.6,0,0,1,0-6.8,4.93,4.93,0,0,1,7,0,5.64,5.64,0,0,1,0,6.8Zm-1.9-1.31a4.2,4.2,0,0,0,0-4.19,1.88,1.88,0,0,0-1.59-.74,1.91,1.91,0,0,0-1.6.74,4.2,4.2,0,0,0,0,4.19,1.91,1.91,0,0,0,1.6.74A1.88,1.88,0,0,0,253.72,143.1Z"/><path class="cls-5" d="M265.63,137a3,3,0,0,1,.89,2.44v6.09H264.1V140a2.65,2.65,0,0,0-.19-1.1,1.33,1.33,0,0,0-1.32-.69,1.63,1.63,0,0,0-1.64,1,3.41,3.41,0,0,0-.23,1.37v4.9h-2.37v-9h2.29v1.32a4.13,4.13,0,0,1,.86-1,3,3,0,0,1,1.85-.55A3.45,3.45,0,0,1,265.63,137Z"/><path class="cls-5" d="M272.18,140a4.16,4.16,0,0,0,.95-.21.71.71,0,0,0,.51-.67.8.8,0,0,0-.39-.77,2.51,2.51,0,0,0-1.15-.21,1.48,1.48,0,0,0-1.2.42,1.71,1.71,0,0,0-.34.83h-2.28a3.5,3.5,0,0,1,.66-2,3.92,3.92,0,0,1,3.24-1.19,5.68,5.68,0,0,1,2.65.59,2.26,2.26,0,0,1,1.16,2.22v4.15c0,.29,0,.64,0,1a1.21,1.21,0,0,0,.14.63.79.79,0,0,0,.34.27v.35h-2.57a2.88,2.88,0,0,1-.15-.51,4,4,0,0,1-.06-.55,4.77,4.77,0,0,1-1.14.9,3.36,3.36,0,0,1-1.74.44,3,3,0,0,1-2-.7,2.5,2.5,0,0,1-.8-2,2.57,2.57,0,0,1,1.29-2.41,5.93,5.93,0,0,1,2.09-.58Zm1.45,1.1a2.2,2.2,0,0,1-.46.23,3.54,3.54,0,0,1-.63.16l-.54.1a3.45,3.45,0,0,0-1.09.33,1.23,1.23,0,0,0-.22,1.88,1.31,1.31,0,0,0,.83.27,2.45,2.45,0,0,0,1.43-.45,1.91,1.91,0,0,0,.68-1.64Z"/><path class="cls-5" d="M280.35,145.51H278V133.28h2.36Z"/><path class="cls-5" d="M294.49,133.28h2.66L293,145.51h-2.41l-4.14-12.23h2.73l2.65,9.29Z"/><path class="cls-5" d="M301,140a4,4,0,0,0,.94-.21.71.71,0,0,0,.51-.67.8.8,0,0,0-.39-.77,2.48,2.48,0,0,0-1.15-.21,1.51,1.51,0,0,0-1.2.42,1.71,1.71,0,0,0-.34.83h-2.28a3.43,3.43,0,0,1,.67-2,3.9,3.9,0,0,1,3.23-1.19,5.65,5.65,0,0,1,2.65.59,2.24,2.24,0,0,1,1.16,2.22v4.15c0,.29,0,.64,0,1a1.32,1.32,0,0,0,.14.63.82.82,0,0,0,.35.27v.35h-2.57a1.82,1.82,0,0,1-.15-.51c0-.16-.05-.34-.07-.55a4.77,4.77,0,0,1-1.14.9,3.35,3.35,0,0,1-1.73.44,3,3,0,0,1-2-.7,2.48,2.48,0,0,1-.81-2,2.56,2.56,0,0,1,1.3-2.41,5.86,5.86,0,0,1,2.09-.58Zm1.45,1.1a2.82,2.82,0,0,1-.46.23,3.94,3.94,0,0,1-.64.16l-.54.1a3.46,3.46,0,0,0-1.08.33,1.06,1.06,0,0,0-.56,1,1,1,0,0,0,.34.88,1.29,1.29,0,0,0,.83.27,2.5,2.5,0,0,0,1.43-.45,1.94,1.94,0,0,0,.68-1.64Z"/><path class="cls-5" d="M309.19,145.51h-2.37V133.28h2.37Z"/><path class="cls-5" d="M313.73,136.46v5.46a2.9,2.9,0,0,0,.18,1.16,1.27,1.27,0,0,0,1.27.69,1.66,1.66,0,0,0,1.65-1,3.65,3.65,0,0,0,.23-1.4v-4.93h2.4v9h-2.3v-1.28l-.17.25a1.56,1.56,0,0,1-.31.37,3.33,3.33,0,0,1-1.07.68,3.71,3.71,0,0,1-1.21.18,2.7,2.7,0,0,1-2.7-1.44,5.54,5.54,0,0,1-.39-2.35v-5.46Z"/><path class="cls-5" d="M327.54,136.65A3.65,3.65,0,0,1,329.1,138a4.41,4.41,0,0,1,.72,1.87,12.1,12.1,0,0,1,.08,1.79h-6.59a2.18,2.18,0,0,0,.94,1.91,2.41,2.41,0,0,0,1.31.34,2,2,0,0,0,1.31-.41,1.89,1.89,0,0,0,.49-.63h2.41a2.91,2.91,0,0,1-.87,1.64,4.41,4.41,0,0,1-3.41,1.32,4.93,4.93,0,0,1-3.18-1.11,4.4,4.4,0,0,1-1.38-3.63,4.9,4.9,0,0,1,1.24-3.6,4.35,4.35,0,0,1,3.24-1.26A5,5,0,0,1,327.54,136.65Zm-3.54,2a2.4,2.4,0,0,0-.63,1.4h4.07a2,2,0,0,0-.63-1.43,2.08,2.08,0,0,0-1.4-.49A1.88,1.88,0,0,0,324,138.69Z"/><path class="cls-6" d="M105.44,138.86s1,.19.84,2.35a16.92,16.92,0,0,0-2.78,3.33s-1.36.75-4.82.58c0,0-1.4-1.53.72-2a17.79,17.79,0,0,0,4-4.24Z"/><path class="cls-6" d="M124.76,138.86s-1.39.32-.68,2.17c0,0,2.14,2.3,3.38,2.57a7.41,7.41,0,0,0,1.89.27c.47,0,2.1,0,2.1,0s.61-.44-.68-1.69-4-3.71-4-3.71Z"/><path class="cls-7" d="M128.14,140.09a3.61,3.61,0,0,0-.92.81s-1.89-.78-.16-1.52l.54-.14.71.83Z"/><path class="cls-7" d="M128.92,140.45s-2,1-.78,2c0,0,.87-1.13,1.62-1Z"/><path class="cls-8" d="M109.62,106.27s9.13,4.39,14.67,0c0,0,2.09,2.84,2.29,10.75,0,0,1.4,7.65,1.42,9.79,0,2.6-1.28,7-1.76,10.34a10.69,10.69,0,0,1,.88,1.55,8,8,0,0,1-3.22.66s.59-.63.18-2.62a5.13,5.13,0,0,1-.27-2.92,6.45,6.45,0,0,1-.49-3.92,10.38,10.38,0,0,0-1.44-5.54c-1.58-2.26-2.44-6.44-2.21-6.76,0,0-3.29-1.4-5.77.68a26.85,26.85,0,0,0-2.52,5,39.24,39.24,0,0,1-1.21,5.72c-.68,1.85-2,2.52-3.07,6L106,138.41V139a2.34,2.34,0,0,1-3.11.44,9.33,9.33,0,0,1,.5-2.42s-.5-6.35,2.52-10.41c0,0,1.71-15.4,3.24-18.78Z"/><path class="cls-7" d="M101.91,141.23a3.47,3.47,0,0,1,.91.81s1.89-.77.17-1.52l-.55-.14-.7.83Z"/><path class="cls-7" d="M101.12,141.59s2,1,.79,2c0,0-.88-1.13-1.62-1Z"/><path class="cls-9" d="M122.9,107.16a22.24,22.24,0,0,1,2.26,9.65c.14,5.88,2,7.71,1.49,11.35s-.68,7.5-1,8.72l.69,2.11.93-.29-1-1.55s1.58-7.22,1.66-8.78c.1-2,.41-1.22-.72-7.91s-.6-3.44-.6-3.44-.25-8.18-2.33-10.62Z"/><path class="cls-10" d="M111.48,108.88s-3.88,16.42-3.43,17.86c0,0-4,7.2-3.7,10.09l-.64,2.86-.8-.3s-.45-2.29.5-2.42c0,0-.77-6.35,2.52-10.41,0,0,2.28-18.33,3.49-19.61S111.48,108.88,111.48,108.88Z"/><path class="cls-11" d="M86.38,81.61c-4.32,6.13-.13,8.45-2.47,14.51-1.69,4.35,1.26,5.93,1.26,5.93A9.27,9.27,0,0,1,86.65,101c5.12-1.94,12.57,2.7,19.87,3.15s17.24-1.1,23.89-2.62a32.09,32.09,0,0,0,4.48-2s.44-1,.44-1Z"/><path class="cls-12" d="M90.75,63.67c-2.57,1.1-3.25,7.12-3.25,7.12.94,3.55-1.12,10-1.12,10-4.32,6.12.27,9.46-1.26,13.87s.54,6,.54,6l1.49-1.08c5.44-.54,13.29,2.62,20.58,3.07a93.64,93.64,0,0,0,21.8-1.4V65.41C113.28,66.32,90.75,63.67,90.75,63.67Z"/><path class="cls-1" d="M141,98.56s-2.17-3.75.63-12.76c2.64-8.45,1.66-5.41,1.27-8.12s1-9.29,2.52-10.33l-3.12,1.43s-.76-1.31.6-3.84a1.83,1.83,0,0,1,.18-.3c-.69,0,2.94-.16,1.93-.85-.21-.15-.36-.28,0-.42a8.1,8.1,0,0,1,4.42.13c-.18-.59-2.08-1.57-2.08-1.57-2-.36-2.34-.28-3.22.14s-3,1.6-3,1.6c-2.93,1-10,1.52-14.51,1.78,0,0-.92,13.42-1.05,18s0,18.54,0,18.54c.59-.13,1.79,0,3.27-.33a29.21,29.21,0,0,0,4.05-1.31C138,98.23,141,98.56,141,98.56Z"/><path class="cls-1" d="M106,65l-15.39-1.7a8.44,8.44,0,0,0-3.16,7.54c.31,3.39-1.21,9.21-1.21,9.55s-1.91,2.31-1.88,4.83A18.24,18.24,0,0,0,84.79,89,6.76,6.76,0,0,1,85,90.14a10.46,10.46,0,0,1,.2,3.14c-.08,1.16-1,3.09-.9,4.25a6.82,6.82,0,0,0,.53,2.22c.25.42.41,1,.66.91,1.61-.57,4.49-1.62,15.27,1C100.8,101.62,101,67.73,106,65Z"/><g class="cls-13"><path d="M91.58,66.34l.14.06.4.17.3.11.35.11.41.11.46.11.51.11c.17,0,.36.06.54.09.38.07.78.1,1.19.14l.63,0c.22,0,.43,0,.65,0h1.33l.66,0,.34,0,.32,0,.65-.06.32,0,.31,0,1.19-.19,1.06-.23.47-.1.42-.11.68-.18.6-.16-.59.18-.67.21-.42.13-.47.11-1,.27-1.19.24-.31.06-.32.05-.65.09-.33,0c-.11,0-.22,0-.33,0l-.68.07-.33,0h-.34l-.67,0c-.22,0-.44,0-.66,0h-.64c-.42,0-.84,0-1.22-.1l-.56-.07-.53-.09c-.17,0-.33-.07-.48-.1l-.43-.1-.38-.1-.31-.1-.45-.17-.15-.06Z"/></g><g class="cls-13"><path d="M126.4,69.72a.85.85,0,0,1,.23,0l.22,0,.46,0,.9-.07c.61-.05,1.21-.12,1.81-.19l.89-.13.89-.14.89-.17c.3-.06.59-.12.88-.2s.59-.14.88-.21l.87-.24.85-.28c.29-.1.57-.19.85-.3s.56-.22.83-.33l.82-.37.4-.2.4-.2c.27-.13.53-.29.79-.43l.4-.23v.45s0,.08,0,.12,0,.07,0,.1a1.29,1.29,0,0,1,0,.19,3,3,0,0,1-.12.36l-.07.18-.08.16c-.06.11-.11.23-.17.33l-.19.31-.21.3c-.14.2-.3.38-.45.56s-.32.36-.48.53-.16.18-.25.26l-.26.24c-.18.16-.35.33-.54.47l-.54.45-.57.43-.29.2-.29.2-.59.39c-.2.13-.39.26-.6.37l-.61.36c-.2.12-.4.24-.61.34l-1.25.65,1.18-.76c.2-.12.39-.26.58-.39l.58-.39c.2-.13.38-.27.57-.41l.56-.42a1.86,1.86,0,0,0,.28-.21l.27-.22.54-.44.52-.46c.18-.15.33-.32.5-.48s.33-.32.48-.5.31-.33.45-.51.29-.36.41-.55l.19-.28.17-.29c.06-.1.1-.2.15-.3l.07-.15L140,67c0-.1.07-.21.1-.31l0-.15a.17.17,0,0,0,0-.07.13.13,0,0,0,0-.05l.4.22c-.27.15-.53.31-.81.45l-.4.22-.42.2-.84.37c-.29.11-.57.23-.86.33s-.58.21-.87.3l-.88.26c-.29.09-.59.16-.89.23l-.89.2-.9.16-.91.13-.91.11-.91.07c-.6.05-1.21.06-1.82.07h-1.59A.9.9,0,0,0,126.4,69.72Z"/></g><path class="cls-14" d="M121.48,85.41A7.19,7.19,0,0,0,118,90.68s-.34,2.77-1,2.84-6.75-4.6-6.75-4.6l5.6-5.47Z"/><path class="cls-15" d="M115.87,85a40.45,40.45,0,0,0-1.21,4.67l-6-4.06,5.16-.88Z"/><path class="cls-12" d="M109.31,106s-1,1.53-.41,1.76,5.5,3.84,16.31.5c0,0-2.43-5.1-.23-9.24s1.26-4.82,1-7.3c0,0-.05-5.36-4-6.71l-2,.63s1.09,4.37-1.48,6c0,0-6.35,1.21-6.71-5.77l-2.35.09s-2,8.24.91,14C110.26,100,111.16,105,109.31,106Z"/><path class="cls-16" d="M120.84,86.24s-.69,4.82-2.73,5.46L117,90.63s2.22-2.41,2.64-4.39C119.66,86.24,120.77,85.66,120.84,86.24Z"/><path class="cls-17" d="M112.69,86.52a7.46,7.46,0,0,0,6.55,4.26s0,.16-.83.88c0,0-4.84.93-6.41-3.79Z"/><path class="cls-18" d="M111.48,108.88s-1-9.84,1.39-10c1.74-.13.65-5.88-.85-7.53a36.57,36.57,0,0,1-2.94-3.88s-.71,10.25,1.18,12.58c0,0,.58,5.46-1,6C109.31,106,107.08,108.13,111.48,108.88Z"/><path class="cls-19" d="M118.61,93.86a2.89,2.89,0,0,1,.69,3.46S119.89,96,118.61,93.86Z"/><path class="cls-18" d="M121.92,85c3.69,2.07,3.74,4.74,4,6.71.15,1.13.4,1.93.45,2.54a5,5,0,0,1-.3,2.3,32,32,0,0,1-1.62,3.7h0c-1.24,2.72.75,8,.75,8l-1.66.43s.67-.14-.14-2.27c-.65-1.7.27-6.21,1.39-7.46.56-.62-2.27-.78-2.27-.78,6.2.14,1.73-6.86,1.73-6.86.53-1.7-3-6.2-3-6.2S118.23,82.92,121.92,85Z"/><path class="cls-20" d="M143,70.36l-.5,4.54s0,5.27-2.29,8.47c0,0-5.54,1.71-3.92-2.7s2.59-5.46,2.88-7.48c.33-2.25.33-4.79.37-5S143,70.36,143,70.36Z"/><path class="cls-20" d="M131.48,89.29s6.34-1.82,9.05-6.42c0,0-1-4.77-4.54-2.81a32.88,32.88,0,0,1-6.46,2.77S131.39,88.59,131.48,89.29Z"/><path class="cls-12" d="M121.56,84.27s4.41-1,6.22-.54a2.37,2.37,0,0,0,1.75-.9,9.44,9.44,0,0,1,1.94,6.62,53.59,53.59,0,0,0-5.81,2.61Z"/><path class="cls-18" d="M128.73,83.48a11.72,11.72,0,0,1,2.21,6.18l.53-.21a10.41,10.41,0,0,0-1.94-6.62Z"/><path class="cls-15" d="M141.72,64.32s-1.93,4.62,1.72,3.17c0,0,5.71-1.11,1.32-4.39Z"/><path class="cls-21" d="M146.33,65.17s1.11-1.93-1.42-1.39c-.4.08-2.25,1.58-.56,1.62"/><path class="cls-20" d="M143.28,64c0,.47.72.24,1,.21l1.25-.5a2.11,2.11,0,0,0-.41-.72C144.33,63.22,143.81,63.22,143.28,64Z"/><path class="cls-20" d="M144.64,67c-2-1.08-3,.09-3,.09s1.43-1.42.44-2.52a6,6,0,0,1,.91-1.17c.47-.46,1.14-.84,1.27-1.08s-.54-.75-1.77-.22a7,7,0,0,0-2.79,2.25s-1.17,3.78.32,4.41l2.43,1.8a5.45,5.45,0,0,0,3.33-2.47s2.53-1.9.54-2.89c0,0-2,0-1.35,1.13,0,0,.69-.41.86,0S144.64,67,144.64,67Z"/><path class="cls-20" d="M91.13,67c.29-.18,1,1.78,1.81,3s-1.15,2.74-1.15,2.74S89.3,68.15,91.13,67Z"/><path class="cls-15" d="M91.45,64.82c.83-2,1.19-.77,1.19-.77a4.12,4.12,0,0,0,0,2.64,2.3,2.3,0,0,1,0,3.53s-1.76-2.84-1.48-4.51Z"/><path class="cls-11" d="M90.33,64c.77,2,3.17,1.66,3.17,1.66a4.61,4.61,0,0,1-3,1.35C88.06,67.16,89.91,63,90.33,64Z"/><path class="cls-22" d="M103.27,85.67l.32,5.93a2.81,2.81,0,0,0,.56.12l-.34-6.32S98.28,83,95.27,82.81c0,.12,0,.23,0,.33A40.84,40.84,0,0,1,103.27,85.67Z"/><path class="cls-22" d="M90.72,66.81l-.1,0L89.44,68.2,91,70.8l.78,1.56s.27,4.32,1.62,6.28a8,8,0,0,1,1.31,4.17,5,5,0,0,1,.55,0A8.21,8.21,0,0,0,94,78.37c-1.35-2-1.62-6.28-1.62-6.28l-.78-1.56L90,67.93l.85-1Z"/><path class="cls-20" d="M90.72,64.8c.4.4.35,1.36.33,1.84l.11-.13.1,0s.33.34.33,0,.13-1.55-.33-2-3.12,0-3.12,0l-.08.2C88.84,64.62,90.38,64.46,90.72,64.8Z"/><path class="cls-20" d="M94.72,82.81c0,.09,0,.19,0,.28l.56,0c0-.1,0-.21,0-.33A5,5,0,0,0,94.72,82.81Z"/><path class="cls-20" d="M95.29,83.14c0,.08,0,.16,0,.23.06.87.93,4.68-.43,4.53l0,.06.55.26a68.72,68.72,0,0,0,8.21,3.38l-.32-5.93A40.84,40.84,0,0,0,95.29,83.14Z"/><path class="cls-20" d="M94.87,87.9c1.36.15.49-3.66.43-4.53,0-.07,0-.15,0-.23l-.56,0c0,.21,0,.39,0,.55C94.81,84.35,95.4,87,94.87,87.9Z"/><path class="cls-23" d="M91.05,66.81v-.17l-.22.27C90.92,67,91.05,67,91.05,66.81Z"/><path class="cls-20" d="M88.82,72.76c1.08,1.6,1,7,1.8,10.69a9.41,9.41,0,0,0,.57,1.89c0-.92,1-1.57,1.85-1.93a7.64,7.64,0,0,1,1.38-.58l.3,0a8,8,0,0,0-1.31-4.17c-1.35-2-1.62-6.28-1.62-6.28L91,70.8l-1.57-2.6,1.18-1.42.1,0,.11.1.22-.27c0-.48.07-1.44-.33-1.84s-1.88-.18-2.66-.07a16.21,16.21,0,0,0-.6,2.36C86.25,68.64,88.82,72.76,88.82,72.76Z"/><path class="cls-20" d="M94.73,83.09c0-.09,0-.19,0-.28l-.3,0a7.64,7.64,0,0,0-1.38.58,8.78,8.78,0,0,1,.84-.31A4,4,0,0,1,94.73,83.09Z"/><path class="cls-23" d="M94.44,87.76l.39.2,0-.06A1.19,1.19,0,0,1,94.44,87.76Z"/><path class="cls-20" d="M93,83.41c-.8.36-1.87,1-1.85,1.93.74,1.7,1.71,1.63,3.25,2.42h0C90.41,85.64,91.7,84.17,93,83.41Z"/><path class="cls-20" d="M94.76,83.64c0-.16,0-.34,0-.55a4,4,0,0,0-.85,0,8.78,8.78,0,0,0-.84.31c-1.34.76-2.63,2.23,1.4,4.35a1.19,1.19,0,0,0,.43.14C95.4,87,94.81,84.35,94.76,83.64Z"/><path class="cls-20" d="M91.52,72.56s.39.27,1.12-.75-1.87-3.89-1.87-3.89H88.59Z"/><path class="cls-21" d="M87.14,68.26A12,12,0,0,1,88.93,65a5.4,5.4,0,0,1,2,.54c.39,0,.16,2.81.16,2.81l-.88-.13-.85-1.12-.92.64-1.2,1.33Z"/><path class="cls-15" d="M87.36,69.59a2.45,2.45,0,0,1,.26-1.76l.79-1.1c.79-1.11,2.12,0,2.12,0-.3.52.24,1.55.24,1.55-1.22,1.15-1.48-.9-1.48-.9l-.64.83s-1,1.07-1.05,1.75Z"/><path class="cls-20" d="M87.33,69.48a3,3,0,0,1,.29-1.92l.79-1.1c.79-1.11,2.12,0,2.12,0-.3.51.24,1.82.24,1.82-1.28.92-1.41-1.21-1.41-1.21l-.54.74s-1.39,1.43-1.26,2.08Z"/><path class="cls-12" d="M107.87,86.24s-1.15-.84-5.74-1.52c0,0,1,4,0,6.69l5.13,1.82Z"/><path class="cls-18" d="M103,84.86s1.15,4.43,0,6.86l-.87-.31s1-2.26,0-6.69Z"/><path class="cls-14" d="M115.33,75.41s5.42-9.29,8.38,1.22c0,0,.82,2.5,1,3.24.31,1.18-.4,3.38-.67,4.8s0,4-8.72.27c-2.64-1.13-2.9-1.22-2.9-1.22Z"/><path class="cls-24" d="M120.48,77.74a1.73,1.73,0,0,0-2.55.36s-.19.82.31.44a1.74,1.74,0,0,1,2.18-.35S121,78.21,120.48,77.74Z"/><path class="cls-15" d="M121.48,72.9s-1.08-1-1.42.3a7,7,0,0,1-3.65,3.41s-.91,2.63,0,4.51c0,0,.68,3.44-.54,4l-3.07-1.71.47-4.37L115,73.57l4.82-2.36,2.25,1.32S122.32,73.64,121.48,72.9Z"/><path class="cls-24" d="M122.11,77.82a1.24,1.24,0,0,1,1.77-.5s.37.34-.08.38-1-.3-1.52.39C122.28,78.09,121.9,78.28,122.11,77.82Z"/><path class="cls-25" d="M119.34,81.6h4.26s.72,2.88-2.13,3.13C120.53,84.81,118.64,84.13,119.34,81.6Z"/><path class="cls-26" d="M123.65,82.28l-4.44,0,0-.26.09-.39h4.24a2.42,2.42,0,0,1,.07.34Z"/><path class="cls-27" d="M117.7,76.33A1.29,1.29,0,0,1,118,76a1.06,1.06,0,0,1,.15-.15l.2-.14.22-.12.25-.09.14,0h.13a1.15,1.15,0,0,1,.26,0,.86.86,0,0,1,.24,0l.11,0,.1,0,.16.07.12.08.09.07-.12,0-.13,0-.16,0-.1,0h-.42l-.12,0-.11,0-.11,0a2,2,0,0,0-.23.07,1.89,1.89,0,0,0-.21.09l-.19.1-.18.1-.25.16Z"/><path class="cls-27" d="M121.65,75.94a.37.37,0,0,1,0-.09l.07-.09a.5.5,0,0,1,.1-.11.85.85,0,0,1,.14-.1l.08,0,.1,0,.2-.06a1.55,1.55,0,0,1,.22,0,.75.75,0,0,1,.21,0l.2,0a1.26,1.26,0,0,1,.33.15l.12.07.08.07a.36.36,0,0,1,.07.07l-.09,0-.24-.05-.15,0-.17,0h-.55s-.11,0-.17,0l-.08,0-.08,0-.14,0-.12.06a.26.26,0,0,0-.09,0Z"/><path class="cls-28" d="M119.3,80.67a1.08,1.08,0,1,1-2.16,0,1.08,1.08,0,1,1,2.16,0Z"/><path class="cls-28" d="M124.64,80a.83.83,0,1,1-.83-.83A.83.83,0,0,1,124.64,80Z"/><path class="cls-29" d="M122.91,74.27s.77-3.92-2-3.78-9.32.67-11,3.28A15.94,15.94,0,0,0,107.46,84c.54,3.52-5.49,5.14-2.74,10.14a2.83,2.83,0,0,1-2.12,0c-.95-.5.9,1.62,1.62,1.12a1.79,1.79,0,0,1-2.16.45s2.57,3.25,5.9.82c0,0,.9-.82.67-1.58a2.91,2.91,0,0,1-.67,2.84s2,.72,3.11-1.81a5.61,5.61,0,0,0,.09-2.88s.85,2.57,2.56,2.43c0,0-2.29-3.33.41-8.22s.67-6.46.67-9.57,2.44-1.44,5.14-5.54c0,0,2.07-1.75,3.33,4.24a8,8,0,0,0,1.13,2.65c.63.64.22,3-.18,4.24s0,3.15-1.85,3.33-2.16.23-2.16.23a6.85,6.85,0,0,1,.22,3.87,4.67,4.67,0,0,0,2.08,4.73s-1.26-1.58-.09-2.66c0,0-.09,1.76,2.61,2.84s1.71,2.3,1.49,2.43,2.2-1.48-.28-3.38a3.66,3.66,0,0,1-.13-3.46,1.75,1.75,0,0,0-.72-2.08A2,2,0,0,1,128,90.89l.32,2.25s.88-5.25-1.8-6.44.58-7.65-.55-8.65A8.81,8.81,0,0,1,122.91,74.27Z"/><path class="cls-30" d="M114.4,74.8c.79.35.17,2-1,3.33,0,0-.79.6-1-.5s-.73,1.1-.78,0-1.35,1.59-.81-.34-2.34,2.06-1.49-.16-1,.26-.6-.38.78-2.48,1.82-1.78.8,0,1.43,0,.42.81,1,.55S114,74.64,114.4,74.8Z"/><path class="cls-31" d="M132.31,111.26a1,1,0,0,0,.31.43.49.49,0,0,1,.19.58l.41-.92Z"/><path class="cls-32" d="M127.27,141.94s-1,2.45-.78,3c.11.28.89.05.23,1.18-.86,1.46,1.45,5.34,4.23,5.32.89,0,3.37,0,2.66-2.39a2.26,2.26,0,0,0-.82-1.41c-.68-.48-1.84-1.83-1.25-3.05.29-.61-1-2.19-.75-2.62Z"/><path class="cls-32" d="M152.48,142.41s-1.23,0-1.06,1.88c.06.6-.73,2.39-.29,2.39a28,28,0,0,1,6.16.31c1,.2,4.11.41,3.64-1.35-.12-.47-.36-.81-1.7-.93,0,0-1.7-.43-1.85-.89a5.44,5.44,0,0,0-2.5-1.88Z"/><path class="cls-8" d="M132.46,114.82l-1.29,1.05s2.52,11.18,1,13.21-4.37,7.08-3.81,9.16c.09.33-.22.46-.71,1.17-.33.5-.34,1.89-.64,2.29s.17,1.45,1.88,1.41c.66,0,2.32.17,2.46-.94.33-2.65,1.18-4.35,5.4-9.21a30,30,0,0,0,2.47-2.59c.36-.73-.07-1.46.47-3.23.27-.87-.08-3.21.35-3.64s1.82-3.17,2.11-3.17c.67,0,2.15-.43,2.65,0,1.2,1.07,1.12,4.48,2.05,6.11.53.92.71,2.53,1.94,3.76.4.4.18,1.09,0,2.29a6.6,6.6,0,0,0,1.11,4.75c.77,1,2,3.14,1.2,5,0,.09-.17.18-.14.28s.09,0,.25.08a8.65,8.65,0,0,0,4.62.07c.09,0,.25-.06.24-.15s-.2-.2-.34-.3-.65-.65.18-.78c.06,0,.15,0,.16-.1s-.07-.08-.18-.26c-.55-.86-1.8-2.87-2.11-12.36,0-.62.54-.95-.53-2.41a4.28,4.28,0,0,1-.88-3.87c.31-1.25.7-4.58,1.94-4.76Z"/><path class="cls-20" d="M160.17,88.84s4.14.76,3.17,3.81A11.69,11.69,0,0,0,159.93,94c-2.18,1.34-7.22,4.42-9.62,3.52-3.19-1.19-7.11-11.8-7.11-11.8l1.53-.88s1.82.47,4.56,4.45a19.63,19.63,0,0,0,3.07,2.57c1.08.4.89.77,1.23.65A15.72,15.72,0,0,1,157,91.11,7.42,7.42,0,0,0,160.17,88.84Z"/><path class="cls-15" d="M145.05,85.46s1.71,1.18,2.89,4.75c.35,1.08,1.53,1.27,1.84,3.5,0,0,9.58.82,11.39-1.81,0,0,.93,1.3,2.84-.61l.22,1.26s-2.14.6-2.53.69c0,0-11,4.55-13.1,1L145,87.65Z"/><path class="cls-5" d="M132.77,103.35a21.61,21.61,0,0,0-2.88-2.66c-1.47-1.28-2-4.09-2-7.52,0-1.09-1.84-3.93-1.84-3.93s.52-1,3.15-1.84c1.21-.36,3.77-2,4.09-3.7.47-2.47,6.54.93,8.7.7.82-.08,2-.9,2.81-.41.7.41,1.21,1.79,1.17,4.52l2.43,23.13-.86,6.27s-14,1.25-15.42-2.59c0,0,2.61-9.31.68-12"/><path class="cls-1" d="M127.38,88.11s6.27.77,4.28,8.82A1.83,1.83,0,0,1,130.09,98c-.22,0-.38.12-.43.45-.17,1.16,1.05,1.92,2.86,3.46.66.56,1.74,2.18,1.58,3.25s0,7.8-1.58,10.87a2.27,2.27,0,0,1-.43-.7s2.66-9.4.53-12.17c0,0-1.37-1.32-1.88-1.75a5.68,5.68,0,0,1-2.42-3.68L126,89.21S127.1,88.07,127.38,88.11Z"/><path class="cls-33" d="M132,85.67s1.32,9.67,9.67,8c2.45-.49,5.78-1.12,2-9.79l-.9.28a3.54,3.54,0,0,1-1.85.19l-8.28.59Z"/><path class="cls-34" d="M132.56,79.71s1.17,3,.78,3.83c0,0,4.85,4.07,7.51,3.06,0,0,.22-3.32,1.75-4.08Z"/><path class="cls-35" d="M130.87,98.29l.18.25.19.29.25.36c0,.07.09.14.14.21l.14.22.32.46a2,2,0,0,1,.17.23c.06.08.13.16.18.24l.19.23a2.11,2.11,0,0,0,.19.23c.13.15.27.28.4.41l.21.19.12.1.12.1c.16.14.3.29.44.43a4.25,4.25,0,0,1,.35.41l.15.2a2,2,0,0,1,.11.2,1.23,1.23,0,0,1,.16.33,1,1,0,0,1,0,.14.34.34,0,0,1,0,.1.45.45,0,0,1,0,.08l-.05,0,0-.07a.3.3,0,0,0,0-.08l-.06-.11a1.5,1.5,0,0,0-.21-.26c-.09-.1-.19-.2-.31-.31a8.37,8.37,0,0,0-.85-.7l-.25-.18-.25-.2a4,4,0,0,1-.46-.46,1.73,1.73,0,0,1-.21-.25,2.48,2.48,0,0,1-.19-.26,5.13,5.13,0,0,1-.34-.52l-.15-.27-.13-.25c-.08-.17-.16-.33-.22-.48a7.74,7.74,0,0,1-.28-.73l-.09-.28Z"/><path class="cls-36" d="M133.22,107.73s0,2.59-.91,3.53c0,0,.51.73,2.41.36.49-.1,1.41-.33,2,.29l.8-3.58Z"/><path class="cls-37" d="M133.19,104.39s1.47,1.62,5.08.3l-.76,3.64s-3.75.22-4.29-.6A10.06,10.06,0,0,0,133.19,104.39Z"/><path class="cls-20" d="M161.7,93.24c-1.32-.6-2.35-4.35-2.09-5.37.14-.52.16-1.52.24-1.91s1.19-.77,1.52,0c.09.2.1.65.33.59s1.22-2.77,2.28-1.18a3.09,3.09,0,0,0,1.33.91c.19.09.31.28.2.82s.32,1,.74,2.15-.91,3.2-3,3.64C162.88,93,162.06,93.41,161.7,93.24Z"/><path class="cls-38" d="M162.19,89.07v.13c0,.07,0,.18,0,.31s0,.13,0,.2v.21a1.79,1.79,0,0,1,0,.23c0,.07,0,.15,0,.22l0,.11a.49.49,0,0,0,0,.11,1.67,1.67,0,0,0,.08.2c0,.07.07.12.1.18s.08.11.11.16.07.11.1.14l.09.11.08.1-.12,0-.14,0-.16-.09a.79.79,0,0,1-.18-.14,1.09,1.09,0,0,1-.18-.19,1.38,1.38,0,0,1-.14-.24.69.69,0,0,1,0-.13l0-.14a1.35,1.35,0,0,1,0-.28V90c0-.05,0-.09,0-.14a1.69,1.69,0,0,1,.05-.24,1,1,0,0,1,.08-.21,1.56,1.56,0,0,1,.17-.28Z"/><path class="cls-39" d="M142.78,84.17s4.65,5.17,6.25,10.25l-2.44.32s-.39-2-5.53-9.38l.23-1A3.06,3.06,0,0,0,142.78,84.17Z"/><path class="cls-40" d="M140.74,92.78c-3.12,0-5.81-2.68-7.52-6.62-.37-.84-1.27-2.29.08-3.64a9.13,9.13,0,0,0,7.61,3.88,2.94,2.94,0,0,1,.35-2s1.09-.38,2.24,2.91c.41,1.19.63,3.82-1.16,5a2.6,2.6,0,0,1-.67.32"/><path class="cls-33" d="M133.3,82.52s2,3.61,7.61,3.88a3.12,3.12,0,0,1,.35-2s1.52-.26,2.36,3.33c.63,2.72-3.31,7.95-10.87-2.65A2.15,2.15,0,0,1,133.3,82.52Z"/><g class="cls-13"><path class="cls-41" d="M133.18,82.8a1.78,1.78,0,0,1,.07.17c0,.11.1.26.16.44s.07.19.1.29l.11.31c.08.21.16.43.25.64a3.09,3.09,0,0,0,.31.57l.09.11.09.11.2.17.2.14.17.09.17.07v0h-.18l-.2,0-.12,0-.14,0a1.28,1.28,0,0,1-.27-.16l-.14-.1-.13-.13a2.37,2.37,0,0,1-.23-.3,1.83,1.83,0,0,1-.18-.34,4.71,4.71,0,0,1-.34-1.37,5,5,0,0,1,0-.64Z"/></g><g class="cls-13"><path class="cls-41" d="M134.48,86.4l.07.07a2.31,2.31,0,0,1,.21.18l.76.65.5.42c.18.15.38.29.58.45l.62.45c.22.16.44.3.67.44s.45.28.68.4.45.24.68.34l.66.28c.11,0,.21.07.32.11l.29.1.53.14.42.09.28,0,.1,0v0h-.38l-.43,0c-.17,0-.36,0-.56-.08l-.32-.07-.33-.08-.71-.24-.36-.16-.36-.17a6.37,6.37,0,0,1-.72-.41,8.09,8.09,0,0,1-.68-.46c-.22-.16-.43-.33-.63-.5-.39-.33-.74-.67-1-1a10.18,10.18,0,0,1-.9-1Z"/></g><g class="cls-13"><path class="cls-41" d="M141.66,84.89a1,1,0,0,1,.18.08l.19.11a1.74,1.74,0,0,1,.22.19,1.89,1.89,0,0,1,.23.25,2.66,2.66,0,0,1,.21.33,1.82,1.82,0,0,1,.15.41,1.63,1.63,0,0,1,.06.45,1.68,1.68,0,0,1-.05.45,1.82,1.82,0,0,1-.15.41,2.19,2.19,0,0,1-.21.34,1.93,1.93,0,0,1-.24.25,1.81,1.81,0,0,1-.23.18l-.18.11-.18.08,0,0,.13-.13a3.51,3.51,0,0,0,.3-.36,1.25,1.25,0,0,0,.08-.12l.09-.13c.05-.1.1-.2.15-.32a2,2,0,0,0,.1-.35,2.34,2.34,0,0,0,0-.38,2.26,2.26,0,0,0-.15-.73,2.75,2.75,0,0,0-.31-.57c-.11-.16-.22-.28-.29-.37l-.13-.12Z"/></g><path class="cls-15" d="M130.91,72.74s.34,10.33,6.19,11c1.3.15,4,.67,5.24,0,.75-.39,2.17-1,1.72-2.9-.25-1.07.15-3.59-.39-4.38a7.8,7.8,0,0,1-.62-3.76,5.5,5.5,0,0,0-1.49-3.91S131.69,67.34,130.91,72.74Z"/><path class="cls-42" d="M130.91,76.73s1.8-2,1.57-2.82c0,0-1.53-2.35.86-3,1.21-.35,3.73-1.34,5-.55a1.81,1.81,0,0,0,1.09.08c.79-.08,1.89-2.21,3.2,0,0,0-.92-4.67-5.11-6.15,0,0-1.42,2.66-6.62,5.24C129.3,70.33,129.19,69.84,130.91,76.73Z"/><path class="cls-15" d="M133.3,80c-4.46,1.17-4.62-2.11-4.42-3.57.38-2.85,3.54-.16,3.54-.16a1.79,1.79,0,0,0-.27.43C132.06,77.6,133.3,80,133.3,80Z"/><path class="cls-43" d="M130.91,78.92c-2.89-4.14,1.65-1.64,1.65-1.64s-1.64-.4-1.92-.1S130.91,78.92,130.91,78.92Z"/><path class="cls-15" d="M132.56,77.28s-4.54-2.5-1.65,1.64"/><path class="cls-44" d="M129.66,87.22s6.59,6.83,8.61,14.27c0,0,2.22-1.5,2-2.21-1.06-3.43-4.61-11-8.58-13.35A18.36,18.36,0,0,1,129.66,87.22Z"/><path class="cls-33" d="M154.93,77.2c.41.67,1.73,2.48,1.73,2.48l2.25-1s-.66-2-.86-2.68-.44-1.56-2.38-.49C155.26,75.7,154.29,76.16,154.93,77.2Z"/><path class="cls-45" d="M165.31,93.3c-.3.16-.48.37-.37.57l1.82,3.43c.11.21.45.24.75.08s.45-.4.34-.61L166,93.37C165.91,93.16,165.61,93.14,165.31,93.3Z"/><path class="cls-46" d="M157.62,78.9a.58.58,0,0,0-.27.77l9.32,17.45a1.58,1.58,0,0,1,.48-.38,1.38,1.38,0,0,1,.58-.18L158.41,79.1A.59.59,0,0,0,157.62,78.9Z"/><path class="cls-47" d="M157.62,78.9a.59.59,0,0,1,.79.2l.05.09c.25-.19.51-.39.45-.54s-.8-.21-1.39,0-1,.7-.9.93.38.16.75.08l0,0A.58.58,0,0,1,157.62,78.9Z"/><path class="cls-48" d="M155.91,75.35l-.17.09c-.41.23-1.38.68-.74,1.73.38.6,1.5,2.14,1.7,2.43l0,0h0a1,1,0,0,0,.71,0L165,93.84h0l1.83,3.43a.55.55,0,0,0,.71.09Z"/><path class="cls-49" d="M161.7,86.55a2.78,2.78,0,0,0,.42-.65c.19-.44,1.12-1.69,1.86-.53a3.94,3.94,0,0,0,1.21.86c.23.11.48.11.31,1-.06.27,0,.36.27.93.09.23.28.61.41.93.31.75.21,1.79-1.22,3,0,0-1.4-.89-1.47-1.89C163.49,90.18,162,90.48,161.7,86.55Z"/><path class="cls-20" d="M162.24,88.34c.43-.31-.22,1.41,1.32,1.66.35,0,0,.79,1,1,.29,0,.86,1.14.19,1.13-.52,0-.39-.82-1.41-1.5a9.7,9.7,0,0,0-1-.76C162.09,89.65,161.75,88.7,162.24,88.34Z"/><path class="cls-15" d="M161.63,89.78c-.33.48-1.32.45-2-1.31a1.63,1.63,0,0,1,0-1.2,12.72,12.72,0,0,0,.22-1.38c.07-.34,1.3-.77,1.53,0a.52.52,0,0,0,.32.4,1.16,1.16,0,0,1,.62.66c0,.16.24.24.47.48s-.44,1.42-1.41.86C161.37,88.29,162.14,89.06,161.63,89.78Z"/><path class="cls-9" d="M129.74,143.11A20.71,20.71,0,0,1,137,131a2.65,2.65,0,0,0,1.29-2.44,2.66,2.66,0,0,1,.28-2.17c.45-.59,0-2.07.35-2.91.51-1.19,2.35-4.6,2.35-4.6.8.57,1.15.09,1.09.91,0,0-1.63,2.89-2.38,3.83a1.6,1.6,0,0,0-.15.89,9.3,9.3,0,0,1-.27,3.18,6.45,6.45,0,0,0-.19,2.18c0,.67-.51,1-1.64,2.13-2.57,2.63-6.47,7.38-6.34,9.95C131.4,142.44,131.45,143.19,129.74,143.11Z"/><path class="cls-9" d="M150.6,124a30.54,30.54,0,0,0,1.88,2.94,3,3,0,0,1,.29,2c-.53.58.35,8.68,1.7,11.74.23.5-.72.82.43,2.17,0,0,1.51-.2,1.09-.45-.21-.13-1.11-.71-.23-1,.09,0,.56,0,.19-.29s-.92-1.34-1.55-4.77a71.3,71.3,0,0,1-.62-7.89,8.55,8.55,0,0,0,.1-.93,3.63,3.63,0,0,0-.91-1.66,2.63,2.63,0,0,1-.49-2.07Z"/><path class="cls-39" d="M149.71,125l-.24-31.24a62.87,62.87,0,0,1,6.65-.67c1.46,0,3-.28,4.58.59,6.33,3.58,15.48,15.57,5.48,27.67C164.74,123.1,155.52,124.74,149.71,125Z"/><path class="cls-44" d="M148.72,125.16l-.78-31.4a62.87,62.87,0,0,1,6.65-.67c1.46,0,3-.28,4.58.59,6.33,3.58,15.47,15.57,5.48,27.67C163.21,123.1,157.18,125.36,148.72,125.16Z"/><path class="cls-39" d="M160,109.41c.59,8.89-4.17,16.09-11.8,15.74-6.51-.3-11.8-7.05-11.8-15.74s5.28-15.73,11.8-15.73S159.42,100.74,160,109.41Z"/><path class="cls-50" d="M159.41,109.3c.67,8.31-3.8,15.59-9.36,15.6-4.11,0-11.69-6.16-11.5-15.08.18-8.33,5-14.91,10.57-15.08S158.82,102.06,159.41,109.3Z"/><rect class="cls-51" x="157.66" y="114.97" width="10.8" height="0.7" transform="translate(-4.35 6.41) rotate(-2.22)"/><path class="cls-52" d="M168.34,115.52c-.19-.35-.19-1.75,1.41-1,.26.12,1.33.49.31,1C169.69,115.64,168.75,116.29,168.34,115.52Z"/><path class="cls-53" d="M157.65,115.18c.3-.09-1.51.38-1,1.34.23.41.87,1.69,2.05.22.27-.32.08-1.27-1-1.21Z"/><rect class="cls-51" x="158.92" y="106.47" width="9.94" height="0.7" transform="translate(-9.55 16.32) rotate(-5.54)"/><path class="cls-52" d="M168.74,106.76c-.2-.34-.28-1.74,1.23-1.11.25.1,1.25.42.35,1C170,106.81,169.17,107.5,168.74,106.76Z"/><path class="cls-53" d="M158.9,107c.27-.11-1.36.45-.79,1.39.24.39.92,1.79,1.92.27.22-.34.23-1.31-1-1.31Z"/><rect class="cls-51" x="156.32" y="98.21" width="8.86" height="0.7" transform="translate(-5.07 8.79) rotate(-3.08)"/><path class="cls-52" d="M165.09,98.73c-.17-.35-.2-1.75,1.13-1,.22.11,1.1.48.28,1C166.19,98.84,165.44,99.49,165.09,98.73Z"/><path class="cls-53" d="M156.31,98.45c.24-.1-1.23.38-.76,1.35.2.4.8,1.79,1.74.31.21-.32.23-1.18-.92-1.31Z"/><path class="cls-54" d="M140.49,109.82c.17-7.92,4.54-14.25,9.75-15a5.91,5.91,0,0,0-1.12-.08c-5.57.17-10.39,6.75-10.57,15.08-.19,8.92,7.39,15.08,11.5,15.08a6,6,0,0,0,1-.09C146.87,124,140.31,118.13,140.49,109.82Z"/><path class="cls-55" d="M155.5,142.53a8.13,8.13,0,0,1,1.2,2.32c.19,1.07,1.89,2.07,4,1.31.48-.17.24-1.48-1.49-1.45,0,0-1.89-.38-1.93-1a10.93,10.93,0,0,0-1.65-1.45Z"/><path class="cls-20" d="M160.28,91.29s1.05,2.18,3.95,1.26a6.75,6.75,0,0,1-3,.69C160.47,93.12,160.2,92.11,160.28,91.29Z"/><path class="cls-19" d="M133.63,111.72s-1,0-1.32-.46a6.71,6.71,0,0,0,.91-3.53,2.15,2.15,0,0,0,.73.4S133.76,110.87,133.63,111.72Z"/><path class="cls-19" d="M133.19,104.39a3.34,3.34,0,0,0,.93.56,20.87,20.87,0,0,1-.17,3.18s-.75-.24-.73-.4C133.22,107.73,133.29,104.71,133.19,104.39Z"/><path class="cls-56" d="M154.45,109.45c.46,5.29-1.51,9.79-4.42,10s-6.32-4.26-6.79-9.55,2.19-9.34,5.1-9.6S154,104.16,154.45,109.45Z"/><path class="cls-44" d="M142,84.4s5.47,7.88,5.27,9.67l1.62-.19s-2.19-6.18-6.07-9.71A5.36,5.36,0,0,0,142,84.4Z"/><path class="cls-57" d="M137.53,64.29s3.43,3.23,2.79,5.58c0,0,1.18-1.3,2.32.57C142.64,70.44,141.83,65.73,137.53,64.29Z"/><path class="cls-58" d="M137.53,64.29S135.67,68,133,69.08c-1.13.47-3.25,1.86-.54,4.83,0,0-1.58-2.12.86-3,0,0,3.65-1.55,5-.55a1.76,1.76,0,0,0,2-.44S141.19,67.89,137.53,64.29Z"/><path class="cls-55" d="M133.27,148.13s1.63,2.51-.88,3.15a5.6,5.6,0,0,1-1.44.13c-1.5-.57-5.13-4.19-2.66-5.83,0,0,2,1.32,3.31.6a8.19,8.19,0,0,0,1.47,1.68C133.16,148,133.16,148,133.27,148.13Z"/><path class="cls-20" d="M144,80.72A7.34,7.34,0,0,1,144,79.1c0-.65,0-1.38-.05-1.81a1.74,1.74,0,0,0-.31-.89c-.55-.77-.61-2.25-.56-3.74a5.48,5.48,0,0,0-.41-2.22s-.74-.48-2.32.62a6.6,6.6,0,0,1-2.73-.31,5.25,5.25,0,0,0-3.4.65c-.71.57-.17,2.25-.07,3.95.06,1.07-1,2.65,1.29,4.4.6.45,1.23.47,1.68,1.8a2.67,2.67,0,0,0,1.62,1.88c.88.37,1.44.84,3.84.19A2.19,2.19,0,0,0,144,80.72Z"/><path class="cls-59" d="M141.17,74.34a1.19,1.19,0,0,1,1.94-.19c.12.1.5-.2,0-.71a1.36,1.36,0,0,0-2.3.45C140.75,74,140.6,74.94,141.17,74.34Z"/><path class="cls-60" d="M137.37,78.22s4.42-.12,5.75-.86c0,0,.84,3.37-1.56,4.15C140.29,81.92,138.74,82.21,137.37,78.22Z"/><path class="cls-61" d="M137.59,78.83a5.25,5.25,0,0,0,4.06-.18c.4-.21,1.13-.51,1.61-.16,0,0,.22,2.47-1.7,3C140.49,81.81,139,82.35,137.59,78.83Z"/><path class="cls-62" d="M140,81.73a2.06,2.06,0,0,1,2.59-.79A2.79,2.79,0,0,1,140,81.73Z"/><path class="cls-63" d="M140.88,72.91a0,0,0,0,1,0,0,.33.33,0,0,1,0-.1.86.86,0,0,1,0-.15.76.76,0,0,1,.06-.18l0-.1.06-.1a1.62,1.62,0,0,1,.18-.2,1,1,0,0,1,.24-.16,1.42,1.42,0,0,1,.29-.1l.3,0,.14,0a.61.61,0,0,1,.13,0l.24.1.18.12.07.06.06.07.09.11.06.11v0l-.1,0-.11,0-.15-.06-.18-.06-.2,0a1.64,1.64,0,0,0-.22,0l-.23,0a1.66,1.66,0,0,0-.21.06l-.1.05-.1.06-.16.12-.13.14-.09.12-.07.1-.05.1Z"/><path class="cls-59" d="M136.13,74.93a1.38,1.38,0,0,1,2.14-.19c.14.1.55-.21,0-.71a1.57,1.57,0,0,0-2.54.45C135.66,74.62,135.5,75.53,136.13,74.93Z"/><path class="cls-64" d="M137.24,78.23c0,.4-.48.72-1.07.72s-1.07-.32-1.07-.72.48-.72,1.07-.72S137.24,77.84,137.24,78.23Z"/><path class="cls-63" d="M135,73.46a.18.18,0,0,1,0,0s0-.07,0-.12l.09-.18.15-.2a.94.94,0,0,1,.23-.21l.13-.1.16-.08.16-.07.18-.06.18,0,.1,0h.46a2,2,0,0,1,.35.06,1.58,1.58,0,0,1,.31.09,2.06,2.06,0,0,1,.26.12.39.39,0,0,1,.11.06l.1.06.15.11.13.11,0,0-.14,0a3.33,3.33,0,0,0-.39-.11l-.26-.06-.29,0c-.1,0-.21,0-.32,0l-.33,0h-.16l-.16,0a2.63,2.63,0,0,0-.3.09l-.14.05-.13.07a2.36,2.36,0,0,0-.23.13l-.17.14a1.67,1.67,0,0,0-.13.12l-.09.12Z"/><path class="cls-64" d="M142.61,76.73c0,.4.48.72,1.07.72l.24,0v-.14a1.74,1.74,0,0,0-.31-.89,2.08,2.08,0,0,1-.2-.36C143,76.12,142.61,76.4,142.61,76.73Z"/><path class="cls-20" d="M141.36,84.19s-.73,1.42-.45,2.21c0,0-3.48-.2-3.67-2.29C137.24,84.11,140.72,85,141.36,84.19Z"/><path class="cls-65" d="M129.39,146.14a2,2,0,0,1,2.22-.43c.12.08.58.42.11.57a4.13,4.13,0,0,0-2,.57C129.57,147,128.89,146.7,129.39,146.14Z"/><path class="cls-65" d="M129.83,147.59a2.3,2.3,0,0,1,2.62-.58c.15.09.72.54.16.71s-1.49-.1-2.35.75C130.09,148.63,129.25,148.3,129.83,147.59Z"/><path class="cls-65" d="M157.49,143.6c-.16-.14-.36-.16-.45-.06l-.6.71c-.09.11,0,.3.13.44s.37.16.45.06l.6-.72C157.71,143.93,157.65,143.73,157.49,143.6Z"/><path class="cls-65" d="M158.3,144.15a.36.36,0,0,0-.52,0l-.8,1.08a.39.39,0,0,0,.11.52.38.38,0,0,0,.53-.05l.8-1.08A.38.38,0,0,0,158.3,144.15Z"/><path class="cls-45" d="M127.67,116.54c0-.34,0-.61-.26-.62l-3.55-.26c-.21,0-.4.25-.42.59s.09.6.31.61l3.52.25C127.48,117.13,127.65,116.88,127.67,116.54Z"/><path class="cls-46" d="M143,117.64a.57.57,0,0,0-.47-.64L124,115.68a1.62,1.62,0,0,1,.07.6,1.65,1.65,0,0,1-.14.59l18.45,1.33A.55.55,0,0,0,143,117.64Z"/><path class="cls-33" d="M144.76,118a3,3,0,0,1,.55-1.74h0c-.69,0-2.82.16-2.82.16h0c-.22,0-.45.49-.54,1.09s0,1.18.26,1.22c0,0,2.09.56,2.69.74h.1A3.68,3.68,0,0,1,144.76,118Z"/><path class="cls-47" d="M145.89,117.92c-.1.92-.44,1.63-.76,1.6s-.51-.81-.4-1.73.44-1.64.76-1.6S146,117,145.89,117.92Z"/><path class="cls-48" d="M123.47,116.56c0,.18.14.31.29.32l3.42.24L142,118.18c0,.31.13.53.28.55s2.08.56,2.69.74H145a.22.22,0,0,0,.13.06c.29,0,.6-.56.73-1.37Z"/><path class="cls-20" d="M125.75,113.93s-6.45-7.37-4.56-13.21c.6-1.86,2.9-5.81,2.87-7.28,0-1.19,0-3.68,2.15-4.26,1.9-.52,5.13,1,4.86,6.18a1.52,1.52,0,0,1-.86,1.57c-1.77.83-2.76,2.19-4.46,6.42,0,0,1.17,0,.86,3.05,0,0,1,4.85,2.11,5.64,0,0,.55.15.55,1.25a2,2,0,0,1,1.56.74s2.27.73.43,2c-.63.44,1.77,3.12,0,3.09-.32,0-.93-.21-1.27-.25s-.82.25-1.51-.55c-.17-.2-.6,0-1-.06C126.28,118.11,125.55,115.27,125.75,113.93Z"/><path class="cls-15" d="M128.75,89.59s-3.66,1.11-3.54,3.77c.13,3.1-4.48,9.2-2.61,12.65,1,1.83,1.73,4.31,3.72,7.44,0,0,.61,3.78,1.94,4.78,0,0-2.24,1.22-2.62-3.33a5.66,5.66,0,0,1,0-.59c0-.12,0-.18,0-.29s-7.19-8.3-4.1-14.38c.87-1.71,2.71-5.66,2.45-7.3C123.8,91,125.62,87.75,128.75,89.59Z"/><path class="cls-66" d="M192.2,143.56s-.49,2.37-.11,3,1.35.82,1.69,1.8c0,0,1.17,2.88,3.31,2.84,0,0,2.9.08,3.29-1.11a2.06,2.06,0,0,0-.56-2.39s-3.65-4.28-5.47-5.26c0,0-.46.82-.82,1A4.2,4.2,0,0,1,192.2,143.56Z"/><path class="cls-66" d="M167,144.49a5.57,5.57,0,0,0,3.76.45s.83,2.87.14,3c-1.26.31-3.61.5-4.69.89,0,0-3,1.1-4.77.2,0,0-4-2.18-1.2-2.73C162,146,166.18,146.1,167,144.49Z"/><path class="cls-14" d="M161,96,160,97.89a11.14,11.14,0,0,0-.85,7s3.07,2.43,5-.46a9.38,9.38,0,0,0,.6-3.45A6.75,6.75,0,0,0,161,96Z"/><path class="cls-14" d="M161.54,105.15s-3.16.9-4.95-3a46.58,46.58,0,0,1-2.18-5s.48-3.69,2.19-2.63A5.48,5.48,0,0,0,157.74,96c1.25,1.15,3.22,2.81,3.5,4.5C161.24,100.45,162.57,103.19,161.54,105.15Z"/><path class="cls-14" d="M172.12,72.66s-1.58-2.24-2.38-1.09-2.16,3.61-.27,5.7a1.56,1.56,0,0,0,2.42-.42"/><path class="cls-67" d="M171.35,74.25s-.86-1.56-1.26-1.25a1.71,1.71,0,0,0-.54,2.25"/><path class="cls-14" d="M172,77.21l-.5,9.44s12.9.94,14.23-5.85c0,0-.69-4.66-2.18-6.71C183.59,74.09,174.29,74.65,172,77.21Z"/><path class="cls-15" d="M172.52,69.23s-.94,7.13-.6,8.66c0,0,.94,2.79,1.26,3.51A8.28,8.28,0,0,0,174,83c2,.62,7.65-.3,8.34-.77,0,0,2-.8,1.78.06,0,0,1.63-1.94,1.55-2.79,0,0-1.11-3.81-1.41-5.13a3.19,3.19,0,0,0-.77-2.25,12.76,12.76,0,0,0,.26-1.28,1,1,0,0,0-.15-.91s-.2-.77-1.11-3.62C182.46,66.33,175.06,65.9,172.52,69.23Z"/><path class="cls-8" d="M166.37,107.12s-.6,3.81.09,11.68c0,0,0,4.38-.18,6.09,0,0-.75,2,.22,3.29,0,0,2.06,9.13.47,16,0,0,1.93,1.77,3.87.4,0,0,1.48-7.75,1.77-9.85a16.13,16.13,0,0,0-.34-5.07,8.25,8.25,0,0,1,.45-6.38s1.43-4.31,1.77-6.27l1.93.34s1.34,1.91,1.71,2.34c0,0,3.25,5.15,4.79,6.15a31.7,31.7,0,0,1,1.54,4.44,9.23,9.23,0,0,0,2.5,3.93s5,6.21,5.24,9.4c0,0,2.05,1.71,3.31-.57a13.77,13.77,0,0,1-1.08-3s-.92-3.07-1.09-4a18.43,18.43,0,0,0-1.19-4.33s-.61-2.27-1.26-4.39a11.12,11.12,0,0,0-3.19-5,95.45,95.45,0,0,1-1.09-15.52S171.81,108.66,166.37,107.12Z"/><path class="cls-12" d="M173,70s-1,6.26-.74,7.61c0,0,1.05,2.75,1.32,3.38a7.45,7.45,0,0,0,.71,1.5,16.24,16.24,0,0,0,7.62-.73s2-.67,2.12-.36c0,0,1.5-1.65,1.43-2.4,0,0-1-3.34-1.25-4.5a3.36,3.36,0,0,0-.7-2.24,3.83,3.83,0,0,1,.08-.77,2.14,2.14,0,0,0,0-1.35s-.7-.55-1.5-3.05l-2.25-.19s-1.26.05-1.68.12-1.57.45-1.57.45A15.84,15.84,0,0,0,173,70Z"/><path class="cls-68" d="M171.69,73.62a6.63,6.63,0,0,1,1.43-6.46,7,7,0,0,1,3-.94s6-1,7.26-2.2c0,0,.34.89-.94,2.62,0,0-4.58-.42-8,1.71a1.85,1.85,0,0,1,.54,1.71,4.77,4.77,0,0,1-1.71,2.34l-.46,1.65S172.46,74.22,171.69,73.62Z"/><path class="cls-67" d="M170.19,76s1.11.23.71-.62c0,0-.65-1.19.23-1.5"/><path class="cls-12" d="M167.74,85.88a7.63,7.63,0,0,1-2.2,1.3s-2.84.2-3.06,1.82a16.1,16.1,0,0,0-.72,5.3c.11.93-.89,1.68-1.59,3.12-.59,1.24,2.27-1.88,4.15,7a12.68,12.68,0,0,0,3.46-3.8S169.62,88.57,167.74,85.88Z"/><path class="cls-12" d="M185.52,79.1a7.41,7.41,0,0,1-4,5.12c-5.7,2.08-8.65.06-9.55-.77l.38.63h0l.93,1.56h0l1,1.6h0l.95,1.59,1,1.61h0l.95,1.58h0l.94,1.58h0l1,1.58-1.61,1-1-1.6h0L175.52,93h0l-1-1.58h0l-1-1.61-1-1.6h0l-.93-1.56h0L170.77,85h0L170.14,84l0,0,.63,1h0l.93,1.56h0l1,1.6h0l1,1.59,1,1.61h0l1,1.58h0l.93,1.56h0l1,1.6-1.61,1-1-1.6h0l-.95-1.59h0l-.93-1.55h0l-1-1.61-1-1.6h0l-.93-1.56h0l-1-1.6h0l-.5-.84,0,0,.5.83h0l1,1.6h0L171,89.2h0l.95,1.59.95,1.59h0l1,1.61h0l.94,1.57h0l1,1.58-1.61,1-.95-1.58h0l-1-1.61h0l-.94-1.57h0l-.95-1.59-1-1.6h0l-.92-1.56h0L167.5,87h0l-.43-.71,0,0,.43.71h0l.93,1.56h0l1,1.6h0l1,1.59.95,1.59h0l1,1.61h0l.94,1.57h0l.95,1.58-1.61,1h0l-1.58,1L170,98.45h0L169,96.88h0l-1-1.59h0l-1-1.61-.81-1.35a8.61,8.61,0,0,0,.61,1.17,20.82,20.82,0,0,1,.63,5.87,38.85,38.85,0,0,0-1.17,7.75c6.75,5.47,20.25-.09,20.25-.09,0-1.71,1.62-6,1.62-6C193.69,82.62,185.52,79.1,185.52,79.1Z"/><path class="cls-1" d="M165.5,87.39a6,6,0,0,0-.09.84l.44-.26Z"/><path class="cls-12" d="M165.51,87.36l.35.6,1.59-.95h0l-.43-.71c-.84.54-1.49.87-1.49.87Z"/><path class="cls-12" d="M165.51,87.36l-.6-1h0l.6,1Z"/><path class="cls-12" d="M165.85,88h0l-.35-.6v0l.35.58Z"/><path class="cls-1" d="M167.5,87h0l1.6-1-.5-.83a18.28,18.28,0,0,1-1.52,1.09l.43.71Z"/><path class="cls-12" d="M170.73,85.05h0l-.63-1c-.74.53-1.43,1.12-1.43,1.12l-.06,0,.5.84Z"/><path class="cls-1" d="M170.77,85h0l1.61-1h0l-.38-.63a2.12,2.12,0,0,1-.3-.32,4.13,4.13,0,0,0-1.56.85l.63,1.06Z"/><path class="cls-12" d="M166.79,89.54h0L165.86,88h0l-.45.27a7.72,7.72,0,0,0,.19,2l1.19-.71Z"/><path class="cls-12" d="M165.41,88.23l-1.15.69h0l1.14-.68Z"/><path class="cls-12" d="M165.85,88l-.44.26v0l.45-.27Z"/><polygon class="cls-12" points="165.86 87.98 165.86 87.98 165.86 87.98 165.86 87.98 165.86 87.98"/><polygon class="cls-12" points="165.85 87.97 165.85 87.97 165.86 87.98 165.86 87.98 165.85 87.97"/><rect class="cls-1" x="166.21" y="87.37" width="1.85" height="1.81" transform="translate(-21.62 98.27) rotate(-30.87)"/><polygon class="cls-1" points="165.86 87.96 165.87 87.97 165.87 87.97 165.87 87.97 167.46 87.02 167.45 87.01 165.86 87.96"/><polygon class="cls-1" points="165.85 87.97 165.86 87.96 165.87 87.97 165.87 87.97 165.86 87.96 165.85 87.97 165.85 87.97"/><polygon class="cls-1" points="166.78 89.54 166.8 89.53 165.87 87.97 165.86 87.98 166.78 89.54"/><polygon class="cls-1" points="165.86 87.98 165.87 87.97 165.87 87.97 165.86 87.98 165.86 87.98"/><rect class="cls-1" x="165.85" y="87.96" width="0.02" height="0.02" transform="translate(-21.66 97.25) rotate(-30.77)"/><polygon class="cls-12" points="167.5 87 168.44 88.59 168.44 88.59 168.43 88.56 170.03 87.6 170.05 87.63 170.05 87.63 169.09 86.03 169.09 86.03 169.1 86.04 167.5 87"/><rect class="cls-12" x="167.36" y="86.51" width="1.87" height="0.02" transform="translate(-20.55 98.62) rotate(-30.87)"/><polygon class="cls-1" points="169.13 86.01 169.13 86.01 170.09 87.61 170.09 87.61 170.06 87.58 171.67 86.62 170.74 85.06 169.13 86.02 169.13 86.01"/><polygon class="cls-1" points="169.13 86.01 169.13 86.02 170.74 85.06 170.73 85.05 169.13 86.01"/><polygon class="cls-12" points="171.72 86.63 171.72 86.63 171.7 86.6 173.31 85.64 172.38 84.08 170.78 85.04 171.72 86.63"/><rect class="cls-12" x="170.64" y="84.55" width="1.87" height="0.02" transform="translate(-19.08 99.98) rotate(-30.86)"/><path class="cls-1" d="M166.81,89.57l-1.2.72a11.17,11.17,0,0,0,.57,1.77l1.55-.93Z"/><path class="cls-1" d="M166.79,89.54l-1.19.71v0l1.2-.72Z"/><polygon class="cls-12" points="166.82 89.56 166.82 89.56 166.82 89.56 167.75 91.12 169.34 90.17 169.35 90.18 169.35 90.18 168.39 88.58 168.39 88.58 168.41 88.61 166.82 89.56"/><polygon class="cls-12" points="166.78 89.54 166.78 89.54 166.78 89.54 166.78 89.54 166.78 89.54"/><rect class="cls-12" x="166.68" y="89.05" width="1.85" height="0.04" transform="translate(-21.96 98.63) rotate(-30.87)"/><polygon class="cls-12" points="166.78 89.54 166.8 89.53 166.82 89.56 166.82 89.56 166.8 89.53 166.78 89.54 166.78 89.54"/><polygon class="cls-12" points="167.74 91.13 167.75 91.12 167.75 91.12 167.75 91.12 166.82 89.56 166.81 89.57 167.74 91.13"/><polygon class="cls-12" points="166.81 89.57 166.78 89.54 166.78 89.54 166.81 89.57 166.82 89.56 166.82 89.56 166.81 89.57"/><polygon class="cls-12" points="166.82 89.56 166.8 89.53 166.78 89.54 166.81 89.57 166.82 89.56"/><polygon class="cls-1" points="169.38 90.15 170.98 89.19 170.99 89.2 170.99 89.2 170.05 87.63 168.44 88.59 169.38 90.15"/><rect class="cls-1" x="168.3" y="88.08" width="1.87" height="0.04" transform="translate(-21.16 100.39) rotate(-31.19)"/><polygon class="cls-12" points="170.09 87.61 171.01 89.17 172.62 88.21 172.63 88.22 172.63 88.22 171.67 86.62 171.67 86.62 171.69 86.65 170.09 87.61"/><rect class="cls-12" x="169.94" y="87.1" width="1.87" height="0.04" transform="translate(-20.49 100.04) rotate(-30.88)"/><polygon class="cls-1" points="171.72 86.63 172.65 88.19 174.26 87.23 174.27 87.24 174.27 87.24 173.31 85.64 173.31 85.64 173.33 85.67 171.72 86.63"/><polygon class="cls-1" points="171.72 86.63 173.33 85.67 173.31 85.64 171.7 86.6 171.72 86.63"/><path class="cls-12" d="M166.16,92.09h0l.15.25c0-.08-.07-.17-.11-.26Z"/><path class="cls-12" d="M168.69,92.73h0l-.94-1.59-1.56.93c0,.09.07.18.11.26l.81,1.35Z"/><path class="cls-12" d="M166.19,92.07h0l0,0h0Z"/><path class="cls-12" d="M167.74,91.13h0l-1.55.93h0l1.56-.93Z"/><polygon class="cls-12" points="167.75 91.12 167.74 91.13 167.74 91.13 167.75 91.12 167.75 91.12"/><rect class="cls-1" x="168.11" y="90.53" width="1.85" height="1.85" transform="translate(-22.98 99.7) rotate(-30.87)"/><polygon class="cls-1" points="167.75 91.12 167.76 91.13 167.76 91.13 167.76 91.13 169.35 90.18 169.34 90.17 167.75 91.12"/><polygon class="cls-1" points="167.76 91.13 167.76 91.13 167.75 91.12 167.75 91.12 167.76 91.13"/><polygon class="cls-1" points="167.76 91.13 167.75 91.14 167.75 91.14 167.75 91.14 168.69 92.73 168.71 92.72 167.76 91.13"/><polygon class="cls-1" points="167.74 91.13 167.74 91.13 167.75 91.14 167.75 91.14 167.74 91.13"/><polygon class="cls-1" points="167.75 91.14 167.76 91.13 167.76 91.13 167.75 91.14 167.75 91.14"/><polygon class="cls-1" points="167.74 91.13 167.75 91.14 167.76 91.13 167.75 91.12 167.74 91.13"/><polygon class="cls-12" points="169.38 90.15 169.38 90.15 170.33 91.75 171.94 90.79 170.99 89.2 169.38 90.16 169.38 90.15"/><polygon class="cls-12" points="169.38 90.15 169.38 90.16 170.99 89.2 170.98 89.19 169.38 90.15"/><polygon class="cls-1" points="171.01 89.17 171.01 89.17 171.97 90.77 173.58 89.81 172.63 88.22 171.02 89.18 171.01 89.17"/><polygon class="cls-1" points="171.01 89.17 171.02 89.18 172.63 88.22 172.62 88.21 171.01 89.17"/><polygon class="cls-12" points="172.65 88.19 172.65 88.19 173.61 89.79 175.22 88.83 174.27 87.24 172.66 88.2 172.65 88.19"/><polygon class="cls-12" points="172.65 88.19 172.66 88.2 174.27 87.24 174.26 87.23 172.65 88.19"/><polygon class="cls-1" points="169.65 94.32 168.69 92.73 167.11 93.68 168.07 95.29 168.07 95.29 168.06 95.27 169.65 94.32"/><polygon class="cls-12" points="168.71 92.72 169.66 94.31 171.25 93.36 170.3 91.77 168.71 92.72 168.71 92.72"/><polygon class="cls-12" points="168.71 92.72 168.69 92.73 168.69 92.73 168.71 92.72 168.71 92.72"/><polygon class="cls-12" points="169.65 94.32 169.65 94.32 169.66 94.31 168.71 92.72 168.69 92.73 169.65 94.32 169.65 94.32"/><rect class="cls-1" x="170.68" y="91.14" width="1.87" height="1.85" transform="translate(-22.92 101.13) rotate(-30.88)"/><polygon class="cls-12" points="172.93 92.38 172.93 92.38 172.92 92.36 174.53 91.4 174.54 91.42 174.54 91.42 173.58 89.81 171.97 90.77 172.93 92.38"/><polygon class="cls-1" points="174.57 91.4 174.57 91.4 174.56 91.38 176.17 90.42 176.18 90.44 176.18 90.44 175.22 88.83 173.61 89.79 174.57 91.4"/><polygon class="cls-12" points="170.58 95.89 169.66 94.34 168.07 95.29 169.02 96.88 169.02 96.88 169 96.84 170.58 95.89"/><polygon class="cls-12" points="169.66 94.34 169.66 94.34 169.65 94.32 168.06 95.27 168.07 95.29 169.66 94.34 169.66 94.34"/><polygon class="cls-12" points="169.65 94.32 169.66 94.34 169.66 94.34 169.65 94.32 169.65 94.32"/><polygon class="cls-1" points="169.67 94.33 170.6 95.88 172.19 94.93 172.21 94.97 172.21 94.97 171.25 93.36 171.25 93.36 171.26 93.38 169.67 94.33"/><polygon class="cls-1" points="169.66 94.31 169.66 94.31 169.67 94.33 171.26 93.38 171.25 93.36 169.66 94.31 169.66 94.31"/><polygon class="cls-1" points="169.65 94.32 169.66 94.31 169.66 94.31 169.65 94.32 169.65 94.32"/><polygon class="cls-1" points="169.67 94.33 169.66 94.34 170.58 95.89 170.58 95.89 170.58 95.89 170.6 95.88 169.67 94.33 169.67 94.33 169.67 94.33"/><polygon class="cls-1" points="169.67 94.33 169.66 94.34 169.66 94.34 169.67 94.33 169.67 94.33"/><polygon class="cls-1" points="169.67 94.33 169.66 94.31 169.66 94.31 169.67 94.33 169.67 94.33"/><polygon class="cls-1" points="169.66 94.34 169.67 94.33 169.66 94.31 169.65 94.32 169.66 94.34"/><polygon class="cls-12" points="171.29 93.36 171.28 93.34 171.28 93.34 172.22 94.91 173.83 93.95 173.85 93.98 173.85 93.98 172.89 92.38 172.89 92.38 172.9 92.4 171.29 93.36"/><rect class="cls-12" x="171.16" y="92.86" width="1.87" height="0.02" transform="translate(-23.27 101.49) rotate(-30.88)"/><polygon class="cls-1" points="173.86 93.93 175.47 92.97 175.49 93 175.49 93 174.54 91.42 172.93 92.38 173.86 93.93"/><polygon class="cls-1" points="172.92 92.36 172.93 92.38 174.54 91.42 174.53 91.4 172.92 92.36"/><polygon class="cls-12" points="175.52 92.98 175.52 92.98 175.5 92.95 177.11 91.99 177.13 92.03 177.13 92.03 176.18 90.44 174.57 91.4 175.52 92.98"/><polygon class="cls-12" points="174.56 91.38 174.57 91.4 176.18 90.44 176.17 90.42 174.56 91.38"/><polygon class="cls-1" points="171.53 97.48 170.6 95.92 170.6 95.92 170.6 95.92 169.02 96.88 169.96 98.45 169.96 98.45 169.94 98.43 171.53 97.48"/><polygon class="cls-1" points="170.58 95.89 169 96.84 169.02 96.88 170.6 95.92 170.58 95.89"/><rect class="cls-1" x="170.6" y="95.93"/><polygon class="cls-1" points="170.58 95.89 170.58 95.89 170.6 95.92 170.6 95.92 170.58 95.89"/><polygon class="cls-12" points="171.55 97.47 173.14 96.52 173.15 96.54 173.15 96.54 172.21 94.97 170.62 95.92 171.55 97.47"/><polygon class="cls-12" points="170.6 95.88 170.62 95.92 170.62 95.92 170.62 95.92 172.21 94.97 172.19 94.93 170.6 95.88"/><polygon class="cls-12" points="170.58 95.89 170.6 95.88 170.62 95.92 170.62 95.92 170.6 95.88 170.58 95.89 170.58 95.89"/><polygon class="cls-12" points="171.53 97.48 171.53 97.48 171.53 97.48 171.55 97.47 170.62 95.92 170.6 95.92 171.53 97.48"/><polygon class="cls-12" points="170.6 95.92 170.62 95.92 170.62 95.92 170.6 95.92 170.6 95.92"/><rect class="cls-12" x="170.59" y="95.88" width="0.02" height="0.04" transform="translate(-25.02 101.77) rotate(-31.06)"/><polygon class="cls-1" points="172.22 94.91 172.22 94.91 173.18 96.52 173.18 96.52 173.17 96.5 174.78 95.54 174.79 95.56 174.79 95.56 173.85 93.98 172.24 94.94 172.22 94.91"/><polygon class="cls-1" points="172.22 94.91 172.24 94.94 173.85 93.98 173.83 93.95 172.22 94.91"/><polygon class="cls-12" points="173.86 93.93 173.86 93.93 174.81 95.52 176.42 94.56 175.49 93 173.88 93.97 173.86 93.93"/><polygon class="cls-12" points="173.86 93.93 173.88 93.97 175.49 93 175.47 92.97 173.86 93.93"/><polygon class="cls-1" points="176.45 94.54 178.06 93.58 178.07 93.6 178.07 93.6 177.13 92.03 175.52 92.98 176.45 94.54"/><polygon class="cls-1" points="175.5 92.95 175.52 92.98 177.13 92.03 177.11 91.99 175.5 92.95"/><polygon class="cls-12" points="171.54 97.5 171.54 97.5 169.96 98.45 170.91 100.03 172.49 99.08 171.54 97.5 171.54 97.5"/><polygon class="cls-12" points="171.53 97.48 169.94 98.43 169.96 98.45 171.54 97.5 171.53 97.48"/><polygon class="cls-12" points="171.54 97.5 171.54 97.5 171.54 97.5 171.54 97.5 171.54 97.5"/><polygon class="cls-12" points="171.53 97.48 171.53 97.48 171.54 97.5 171.54 97.5 171.53 97.48"/><polygon class="cls-1" points="172.51 99.07 172.49 99.08 172.49 99.08 174.1 98.13 173.15 96.54 171.56 97.49 172.51 99.07"/><polygon class="cls-1" points="171.55 97.47 171.56 97.49 171.56 97.49 171.56 97.49 173.15 96.54 173.14 96.52 171.55 97.47"/><polygon class="cls-1" points="171.53 97.48 171.55 97.47 171.56 97.49 171.56 97.49 171.55 97.47 171.53 97.48 171.53 97.48"/><polygon class="cls-1" points="171.56 97.49 171.54 97.5 172.49 99.08 172.51 99.07 171.56 97.49"/><polygon class="cls-1" points="171.54 97.5 171.56 97.49 171.56 97.49 171.54 97.5 171.54 97.5"/><rect class="cls-1" x="171.54" y="97.47" width="0.02" height="0.02" transform="translate(-25.72 101.44) rotate(-30.76)"/><rect class="cls-12" x="173.53" y="95.91" width="1.87" height="1.85" transform="translate(-24.97 103.27) rotate(-30.88)"/><polygon class="cls-12" points="173.17 96.5 173.18 96.52 174.79 95.56 174.78 95.54 173.17 96.5"/><polygon class="cls-1" points="174.82 95.54 174.81 95.52 174.81 95.52 175.77 97.12 177.38 96.16 176.42 94.56 176.42 94.56 176.43 94.58 174.82 95.54"/><rect class="cls-1" x="174.68" y="95.04" width="1.87" height="0.02" transform="translate(-23.89 103.6) rotate(-30.88)"/><polygon class="cls-12" points="176.45 94.54 176.45 94.54 177.41 96.14 179.02 95.18 178.07 93.6 176.46 94.56 176.45 94.54"/><polygon class="cls-12" points="176.45 94.54 176.46 94.56 178.07 93.6 178.06 93.58 176.45 94.54"/><path class="cls-69" d="M170.92,83.43s4,4.42,11.69,1.13c1.26-.55,2.69-2.12,3.13-4.81a1.78,1.78,0,0,0-.22-.65s-1.7,3.55-2.4,4.09c0,0-2.27,2.1-7.07,1.85,0,0-3.42-.64-4.41-2Z"/><path class="cls-69" d="M160.7,96.52a7.67,7.67,0,0,1,4.16,7.49l-.57.49A24.28,24.28,0,0,0,162.9,100a3.82,3.82,0,0,0-2.37-2.23S159.44,98.1,160.7,96.52Z"/><path class="cls-20" d="M194.65,75.61a4.52,4.52,0,0,1,2.74-1.7,9.11,9.11,0,0,1,4.33,4.5s-.8,4.38-3.14,4.78C198.58,83.19,194.35,82.44,194.65,75.61Z"/><path class="cls-12" d="M185.52,79.1s2.75-1.55,5-.86c0,0,2.71-2.85,5.24-3.65,0,0-2.22,8.33,3.49,8.35,0,0-7.13,8.4-8.67,12.73a24.38,24.38,0,0,1-2.17,3.76,22.78,22.78,0,0,0-.75-16.54A16.57,16.57,0,0,0,185.52,79.1Z"/><path class="cls-20" d="M197.33,74.13a6.92,6.92,0,0,1,3.76-4.9s3.93-2.39,4.73-6.15c0,0,1.82,1.77,3.42,1.6,0,0-3.14,12.3-8.66,14.3C200.58,79,196.65,77.1,197.33,74.13Z"/><path class="cls-20" d="M205.82,63.34s-1.57-1.06-1.23-2.22a1.43,1.43,0,0,0,.1-1.43.65.65,0,0,1,.82-.85s1.7-.64,2.19-.8c.16,0,.23.66.23.66s1.76-1.14,2.33-.26a.83.83,0,0,1,.34.83l.55,2-.57.43s.2.65-.37.71l-1.06,2.62A9.44,9.44,0,0,1,205.82,63.34Z"/><path class="cls-20" d="M210.66,59.09s.58.07.32,1.16c0,.07.13,0,.22,0s.45.41,0,1a5.22,5.22,0,0,1-.57.43.45.45,0,0,1-.37.71l-.18.45c-.27-.24-1-1.05-1-1.05a7.71,7.71,0,0,1-1.1-3.13S210.69,57.11,210.66,59.09Z"/><path class="cls-70" d="M207,61.34l.1,0a.9.9,0,0,1,.26.09.7.7,0,0,1,.17.09.66.66,0,0,1,.17.12l.17.15a2.48,2.48,0,0,1,.26.39c0,.07.06.14.09.2l.06.21c0,.06,0,.13,0,.18a.45.45,0,0,1,0,.16v.12a.82.82,0,0,0,0,.1.65.65,0,0,1,0-.1l0-.11c0-.05,0-.1,0-.15s0-.11-.05-.17l-.07-.19-.09-.19a1.88,1.88,0,0,0-.12-.18,1.74,1.74,0,0,0-.28-.32l-.29-.24-.23-.14Z"/><path class="cls-14" d="M154.62,97.12s-.51,2.61-3.33,0c0,0-1.41,0-.73-2a4,4,0,0,1-.81-.94c-.18-.5,0-1.78.78-1.92a3.68,3.68,0,0,1-.82-.51,1,1,0,0,1,.37-1.37s2-1.31,2.87-.23a5.18,5.18,0,0,0,1.63-.45.92.92,0,0,1,1,.08l1.79.91s.17.14.2.63a1.88,1.88,0,0,0,.07.86c.12.27.33.39.24.62C157.51,93.65,154.69,96.41,154.62,97.12Z"/><path class="cls-14" d="M150.48,96.66c.44,1,2,0,2,0,.82-.29-.09-1.57-.09-1.57a5.39,5.39,0,0,0,.54-.68c.49-.75-.8-1.86-.8-1.86a19.8,19.8,0,0,0,1-2.42,1.63,1.63,0,0,1-.7-.34,3,3,0,0,0-2.22.51s-1.63.86.08,2a1.73,1.73,0,0,0,.23,2.86A2.08,2.08,0,0,0,150.48,96.66Z"/><path class="cls-70" d="M153.59,96.65a1.92,1.92,0,0,1-.14-.36,1.21,1.21,0,0,1,0-.18,1.62,1.62,0,0,1,0-.19,1.34,1.34,0,0,1,0-.2,1.32,1.32,0,0,1,0-.39.58.58,0,0,1,0-.19.64.64,0,0,1,.08-.19.91.91,0,0,1,.09-.17l.12-.17a1.85,1.85,0,0,1,.14-.14.64.64,0,0,1,.15-.13l.16-.12.17-.09.18-.09,0,.1a1.33,1.33,0,0,1-.1-.28,2.29,2.29,0,0,1-.08-.28,1.35,1.35,0,0,1,0-.28,1.46,1.46,0,0,1,0-.29,2.64,2.64,0,0,1,0-.29l0-.14,0-.14.05-.14.06-.13a.5.5,0,0,1,.08-.12l.08-.12-.07.13a.61.61,0,0,0,0,.12.78.78,0,0,0-.05.14l0,.13s0,.09,0,.14a.61.61,0,0,0,0,.14,1.52,1.52,0,0,0,0,.55,2.56,2.56,0,0,0,0,.27,2.76,2.76,0,0,0,.08.27,2,2,0,0,0,.1.26l0,.06-.07,0-.16.09a1.29,1.29,0,0,0-.16.09l-.15.11a.41.41,0,0,0-.14.12l-.13.13-.11.14a1.29,1.29,0,0,0-.09.16.53.53,0,0,0-.08.17.84.84,0,0,0,0,.17c0,.06,0,.12,0,.19s0,.12,0,.18v.19c0,.06,0,.12,0,.19l0,.18C153.52,96.41,153.55,96.53,153.59,96.65Z"/><path class="cls-71" d="M167,144a5.55,5.55,0,0,0,3.76.46,12.39,12.39,0,0,1,.38,2.36c0,1.28-3.85,1.17-4.93,1.57,0,0-3,1.1-4.77.2,0,0-4-1.67-1.2-2.22C162,146,166.18,145.58,167,144Z"/><path class="cls-72" d="M162.72,145.88s1.17.26,1.48,2.25c.06.36,1.14.06,1.14-.85a1.73,1.73,0,0,0-1.45-1.65Z"/><path class="cls-72" d="M165.4,145.14a14.65,14.65,0,0,1,1.54,2c.17.26.77-.46.77-.91s-1-1.61-1.51-1.34Z"/><path class="cls-71" d="M192.2,143.56a7.68,7.68,0,0,0,.4,2.84c.36.49,1.5.92,1.84,1.9,0,0,.51,2.95,2.65,2.91,0,0,3.42.08,3.8-1.11a2.06,2.06,0,0,0-.55-2.39s-3.25-3.29-5.13-5.26a6.18,6.18,0,0,1-1.17,1A7.51,7.51,0,0,1,192.2,143.56Z"/><path class="cls-72" d="M197.7,145s-2.3,0-2.49,1.06c0,0,.17,1.52,1.28.24a2.32,2.32,0,0,1,2-.47Z"/><path class="cls-72" d="M199.59,146.94s-2.58-.63-2.69,1c0,.34.32,1.31,1.3.39a1.7,1.7,0,0,1,2.35-.48Z"/><path class="cls-73" d="M182.49,66.64s-6.74.36-7.7,1.7l-.1.21a1.89,1.89,0,0,1,.45,1.17,4.3,4.3,0,0,1-1.79,2.68l-.49,1.73s-1.05-.11-1.21-.61a4.88,4.88,0,0,1,.93.14l.34-1.43s1.53-1.46,1.57-2.47c0-.35-.5-1.15-.34-1.61.24-.72,1.28-1.79,7.71-2.13.63,0,1.2-1.11,1.57-2C183.43,64,183.79,65.09,182.49,66.64Z"/><path class="cls-30" d="M192.54,76.53s-2.2,2.73-1.6,5.55c0,0-.86-.6-.39-3.84A16.83,16.83,0,0,1,192.54,76.53Z"/><path class="cls-69" d="M195.79,74.59s-2.07,8.23,3.49,8.35l-1,1.26s-4.51-1.6-4.22-5.78a9.46,9.46,0,0,1,.85-3.46,5.25,5.25,0,0,1,.49-.21l.15-.06Z"/><path class="cls-15" d="M197.64,82.64a7.4,7.4,0,0,0,3.25-5,31,31,0,0,0,5.56-7.39,14.78,14.78,0,0,0,1.76-5.78l1,.17s-1.66,9.52-7.52,13.73c0,0-.49,3.34-2.44,4.53l-.51,0C198.62,82.89,197.64,82.64,197.64,82.64Z"/><path class="cls-15" d="M154.61,96.23a25.55,25.55,0,0,0,2.25,5.65s4.3,6.46,7.17,1.76l.06-.08.14.61s-1.41,3.87-6.23,0a11.74,11.74,0,0,1-2.53-4.15s-1-2.35-1.06-2.79Z"/><path class="cls-15" d="M207.77,58.05c.59.24.17,1,1.41,2.13.19.17-.11.79-.94.37a2.76,2.76,0,0,1-1.2-.66s.17,1.47-.45,2c0,0-.66,1-1.13,1.18,0,0-1-.73-.94-1.67a2.22,2.22,0,0,0,.2-1.52c-.11-.3-.11-1.15.79-1A11.87,11.87,0,0,1,207.77,58.05Z"/><path class="cls-9" d="M186.62,107s.29,11.88,1.08,15.3c0,0,3.14,1.91,4.45,9.4a11.65,11.65,0,0,1,1.14,4.16s1.43,5.52,2,6.59l-.76.65s-2.06-6.22-2-6.92c0-1.05-1.25-3.37-1.49-4.18a36,36,0,0,0-4.11-9c-2.06-3.3-1.85-12.13-1.62-15.51Z"/><path class="cls-9" d="M170,144.46s1.79-9.57,1.28-14.87a9.33,9.33,0,0,1,.51-6.75s1.6-4.59,1.94-6l.91.2-1.91,6.41a8.36,8.36,0,0,0-.42,6.27,12.57,12.57,0,0,1,0,6.83l-1.43,8.09Z"/><path class="cls-67" d="M151.33,97.11s2.48-.45,1.08-2c0,0,1.48-1-.11-2.51"/><path class="cls-67" d="M150.56,95.11a2.84,2.84,0,0,1,1.85,0"/><path class="cls-67" d="M150.33,92.25a6.19,6.19,0,0,1,2.2.37"/><path class="cls-67" d="M210.14,62.43c-.57,0-.64-1-.64-1-.63-.17-.85-1.27-.85-1.27a1.83,1.83,0,0,0,2-1.06"/><path class="cls-67" d="M209.5,61.42A2,2,0,0,0,211,60.21"/><path class="cls-30" d="M162.31,94.21s-.34-5.93,2.95-6.7a5.94,5.94,0,0,0-2.09,3.41Z"/><path class="cls-71" d="M159.62,147.56s-1.17-.9.73-1.25l1.53-.27a1.88,1.88,0,0,1,.79,2.89A7.4,7.4,0,0,1,159.62,147.56Z"/><path class="cls-71" d="M195.24,142.48s-2.32,2.21.33,3.07a3.58,3.58,0,0,1,2.2-.45Z"/><path class="cls-15" d="M157.5,91.75c-2.84-2.38-3,.34-3.37.59-1.52.94-2.3.39-2.06-.06,1.05-2,.48-1.81,1-2.12a9.22,9.22,0,0,1,1.21-.48,1.12,1.12,0,0,1,1-.16l2,1a1.3,1.3,0,0,1,.16.48Z"/><path class="cls-30" d="M188.61,92.33a8.92,8.92,0,0,0,1.4-3.39,4.46,4.46,0,0,0-2.29-1.51,3.17,3.17,0,0,1,3,1.1S191.05,90.48,188.61,92.33Z"/><path class="cls-74" d="M165.83,90.91s1.4,5.83,6.32,5c.35-.06,1.87.28,1.51.62,0,0-.06.11-.22,0a2.39,2.39,0,0,0-2.33,0,1.5,1.5,0,0,1-.59,0s-3.1-1.17-4.11-3.69A14.46,14.46,0,0,1,165.83,90.91Z"/><path class="cls-75" d="M167.27,107.8l-.9-.68a17.29,17.29,0,0,1,.68-5.66,11,11,0,0,0,.86-6.62l1,.66a28.72,28.72,0,0,1-1,6.45A15.5,15.5,0,0,0,167.27,107.8Z"/><path class="cls-75" d="M181.07,95.8a17.28,17.28,0,0,0,9.18-4.62,3.57,3.57,0,0,0,1.16-1.89,3.58,3.58,0,0,1-1,2.75s-4.33,3.94-7.9,4.1A2.6,2.6,0,0,1,181.07,95.8Z"/><path class="cls-75" d="M160.62,96.52a10.15,10.15,0,0,0,1.11-1.79,15.67,15.67,0,0,1,0-2.18s.1-.78.29-1.73c.12-.6.31-1.27.45-1.85a1.94,1.94,0,0,1,.25-.6,1.27,1.27,0,0,1,.4-.39,2.6,2.6,0,0,1,.85-.48,7.15,7.15,0,0,1,1.57-.32s-1.9.8-2.09,1.27c0,0-1.74,3.54-1,6.32C162.48,94.77,161.88,96.39,160.62,96.52Z"/><path class="cls-1" d="M177.76,82.6l-1.14-15.15c-2.41.55-1.88,1.6-1.93,1.1,0,0,1.06.8-.49,3.08l-.85.77-.49,1.73-.4-.07s-.66,4,.2,4.49c0,0,.62,1.6,1,2.42.15.36.25.81.39,1.1a1.08,1.08,0,0,0,.32.4A9.45,9.45,0,0,0,177.76,82.6Z"/><path class="cls-1" d="M179.87,66.88s.69-.09,1-.11l1.78-.13s.29,1.13.65,2.41c.21.76.3,1,.31,1.07a3.35,3.35,0,0,1-.08,2.12,3.47,3.47,0,0,1,.65,1.48l.05.76,1.28,4.62s-.89,2.32-1.46,2.28l-2.12.36S181.06,69.8,179.87,66.88Z"/><path class="cls-24" d="M176.64,72.31c.6-.33,1.16-1.4,2.63-.34,0,0,.25-.11-.3-.54a1.85,1.85,0,0,0-2.5.13S176.39,72.45,176.64,72.31Z"/><path class="cls-24" d="M181.92,71.39c.11-.46,1.19-1.11,1.82-.62l0,.37a1.17,1.17,0,0,0-1.45.39C182.19,71.6,181.83,71.79,181.92,71.39Z"/><path class="cls-76" d="M180.84,80.32a5.15,5.15,0,0,1-3.7-1.76l-.3-.3.25-.35c.09-.13,2.2-3,4.38-3a2.89,2.89,0,0,1,2.53,1.8,1.74,1.74,0,0,1,0,1.5,3.93,3.93,0,0,1-2.56,2.08h0A2.66,2.66,0,0,1,180.84,80.32Z"/><path class="cls-77" d="M177.51,78.21s3.84-5.37,6-1.28c.43.79-.34,2.25-2.25,2.84A4.27,4.27,0,0,1,177.51,78.21Z"/><path class="cls-72" d="M178.35,77.21a6.69,6.69,0,0,0-.84,1s4.07-1.74,6.11-1.1c0,0-.92-2.51-3.24-1.48A6.61,6.61,0,0,0,178.35,77.21Z"/><path class="cls-78" d="M179.75,79.65a2,2,0,0,1,2.76-.47,2.79,2.79,0,0,1-2.76.47Z"/><path class="cls-79" d="M176.18,71a1.93,1.93,0,0,1,.36-.34c.07,0,.13-.1.21-.14l.24-.13a1.69,1.69,0,0,1,.27-.11l.29-.08.31,0a1.51,1.51,0,0,1,.3,0,.76.76,0,0,1,.27.06.69.69,0,0,1,.23.09l.18.1.13.11.1.09-.13,0-.15-.05-.18,0a1.6,1.6,0,0,0-.23,0,.93.93,0,0,0-.24,0,2.26,2.26,0,0,0-.26,0l-.27,0-.27.06-.26.08-.23.08-.22.09-.18.08-.14.06Z"/><path class="cls-79" d="M181.17,70.49a1.53,1.53,0,0,1,.3-.33,1.75,1.75,0,0,1,.39-.24,1.73,1.73,0,0,1,.24-.1,2.61,2.61,0,0,1,.27-.06h.28a1.09,1.09,0,0,1,.26,0,1.37,1.37,0,0,1,.24.07l.2.1.15.1.1.1a.61.61,0,0,1,.09.09l-.12,0-.13,0-.16,0-.19,0a1.46,1.46,0,0,0-.22,0h-.46l-.23,0-.23.06-.2.07-.19.08-.28.13Z"/><path class="cls-64" d="M179.07,74.22a1.54,1.54,0,1,1-1.71-.83A1.37,1.37,0,0,1,179.07,74.22Z"/><path class="cls-64" d="M183.54,72.24a2.07,2.07,0,0,0-1.76.88.92.92,0,0,0,.37,1.31,4.12,4.12,0,0,0,2.11.14C184.29,74.36,184.15,72.38,183.54,72.24Z"/></g></g></g></svg>