<svg id="Group_1161" data-name="Group 1161" xmlns="http://www.w3.org/2000/svg" xmlns:xlink="http://www.w3.org/1999/xlink" width="322.627" height="693.606" viewBox="0 0 322.627 693.606">
  <defs>
    <clipPath id="clip-path">
      <path id="Path_3096" data-name="Path 3096" d="M406.037,90.306S391.97,88.75,387.5,94.713c0,0,.455,7.468,4.149,8.985s13.337,1.289,13.725.641a7.628,7.628,0,0,0,2.115-2.333,13.529,13.529,0,0,0,1.131-7C408.37,93.23,407.536,92.1,406.037,90.306Z" transform="translate(-387.498 -90.123)" fill="none"/>
    </clipPath>
    <radialGradient id="radial-gradient" cx="0.501" cy="1.159" r="0.847" gradientTransform="translate(0)" gradientUnits="objectBoundingBox">
      <stop offset="0" stop-color="#71879a"/>
      <stop offset="0.871" stop-color="#2a3a5e"/>
    </radialGradient>
    <clipPath id="clip-path-2">
      <path id="Path_3101" data-name="Path 3101" d="M409.955,90.16s11.279-2.851,15.6,1.594c0,0,.472,6.237-2.365,7.9s-10.714,2.55-11.1,2.056a6.35,6.35,0,0,1-1.987-1.7,11.5,11.5,0,0,1-1.71-5.676C408.385,92.841,408.938,91.816,409.955,90.16Z" transform="translate(-408.385 -89.259)" fill="none"/>
    </clipPath>
    <radialGradient id="radial-gradient-2" cx="0.634" cy="1.174" r="0.833" gradientTransform="matrix(-1.007, 0.135, 0.14, 1.008, 159.319, -10.657)" xlink:href="#radial-gradient"/>
  </defs>
  <g id="Group_1153" data-name="Group 1153" transform="translate(256.686 212.103)">
    <path id="Path_3070" data-name="Path 3070" d="M471.2,182.219s9.933-2.255,15.357-5.776c2.371-1.538,4.295-4.554,12.292-8.1.75-.332,4.3-.986,6.8-3.063.468-.39,4.791-3.663,6.7-1.419a1.848,1.848,0,0,1,.256,1.824c-.673,2.156-3.1,3.335-7.449,5.6-9.933,5.178-6.622,5.477-6.27,5.583.954.285,13.876-.565,16.483-1.2s10.451-5.44,14.043-6.97c3.065-1.308,5.892,2.674-7.563,8.944,0,0,12.607-7.63,14.472-6.148,1.176.934,1.59,4.175-12.78,10.232,0,0,11.7-5.766,13.351-4.122,1.245,1.243-2.011,5.074-13.422,8.314,0,0,3.716-1.171,6.9-2.2.891-.287,2.04-.293,2.257.157.517,1.078-.144,2.528-3.325,4.173a41.482,41.482,0,0,1-9.355,2.941c-4.46.722-8.806,1.373-12.54,1.655s-9.721.846-12.609.988-11.271-1.973-13.242-1.763-6.27,2.678-6.27,2.678Z" transform="translate(-471.202 -163.079)" fill="#c4805f"/>
    <path id="Path_3071" data-name="Path 3071" d="M492.108,182.717c-5.086-3.547-4.293-7.452-6.1-12.678-5.514,3.331-14.8,5.448-14.8,5.448l4.086,12.328s4.3-2.465,6.27-2.678,10.354,1.9,13.242,1.763c1.922-.094,5.21-.376,8.3-.635C500.736,185.308,494.223,184.192,492.108,182.717Z" transform="translate(-471.202 -156.347)" fill="#93563e"/>
    <path id="Path_3072" data-name="Path 3072" d="M507,168.391s-5.985,2.693-7.191,3.366c-.773.431-6.068,2.654-6.068,2.654s5.473-1.245,6.628-1.729A51.324,51.324,0,0,0,507,168.391Z" transform="translate(-449.398 -157.941)" fill="#93563e"/>
    <path id="Path_3073" data-name="Path 3073" d="M507.342,171.023s-6.557,1.989-7.47,2.282-5.269,1.637-5.269,1.637a34.713,34.713,0,0,0,5.629-.622C501.473,173.882,507.342,171.023,507.342,171.023Z" transform="translate(-448.564 -155.395)" fill="#93563e"/>
    <path id="Path_3074" data-name="Path 3074" d="M506.809,173.634s-6.571,1.706-7.01,1.816-5.064,1.149-5.064,1.149,3.5-.136,4.824-.273C500.5,176.229,506.809,173.634,506.809,173.634Z" transform="translate(-448.437 -152.869)" fill="#93563e"/>
    <path id="Path_3075" data-name="Path 3075" d="M489.369,173.924a13.248,13.248,0,0,1,6.351,1.178c3.185,1.379,3.557,2.314,5.025,3.071-1.082-.559-1.354-.409-9.011-2.841-3.169-1.005-7.543,1.114-9.925,4.608a2.063,2.063,0,0,1,.106-.22S483,174.475,489.369,173.924Z" transform="translate(-460.942 -152.626)" fill="#93563e"/>
  </g>
  <path id="Path_3076" data-name="Path 3076" d="M432.845,302.53s-18.151,107.465-13.457,160.358c0,0,15.023,30.2,18.309,35.838,0,0-8.763-2.034-11.423-5.79s-17.84-25.352-17.84-25.352,3.364-6.182,3.364-7.59c0-1.32-5.09-79.2-12.206-104.9a38.73,38.73,0,0,1,.319-21.576c.557-1.833,1.249-3.815,2.105-5.945a105.271,105.271,0,0,0,6.886-30.046Z" transform="translate(-285.124 179.082)" fill="#c4805f"/>
  <path id="Path_3077" data-name="Path 3077" d="M440.341,302.206s-54.772,152.846-59.466,172.878c0,0-6.26,27.229-15.493,22.847s10.954-28.324,10.954-28.324,18.554-120.06,22.379-127.809c4.647-9.418,14.866-31.61,14.553-38.028S440.341,302.206,440.341,302.206Z" transform="translate(-319.224 181.911)" fill="#c4805f"/>
  <path id="Path_3078" data-name="Path 3078" d="M412.028,303.77c.313,6.418-9.589,28.887-14.553,38.028C393.35,349.391,375.1,469.607,375.1,469.607s-6.974,8.277-10.85,15.987c2.414-1.808,10.882-11.991,11.987-14.616,2.087-16.963,6.646-32.527,11.527-48.84,5.58-18.649,10.034-57,17.266-75.091,3.364-8.415,13.508-7.344,19.17-2.973,8.743-24.3,14.9-41.868,14.9-41.868S411.715,297.354,412.028,303.77Z" transform="translate(-317.984 181.911)" fill="#c4805f"/>
  <g id="Group_1154" data-name="Group 1154" transform="translate(113.089 476.605)">
    <path id="Path_3079" data-name="Path 3079" d="M399.911,333.514c.557-1.833,1.249-3.815,2.105-5.945.576-1.43,1.09-2.853,1.574-4.267h0a106.422,106.422,0,0,0,5.312-25.779l23.943,5.007s-2.642,19.212-5.45,36.464a23.182,23.182,0,0,0-8.513,2.044c-6.048,2.951-10.8,10.2-10.173,23.113,1.167,24.234,2.335,101.742,11.163,119.7-5.184-7.368-11.438-16.266-11.438-16.266s3.364-6.182,3.364-7.59c0-1.32-5.09-79.2-12.206-104.9A38.73,38.73,0,0,1,399.911,333.514Z" transform="translate(-398.213 -297.523)" fill="#c4805f"/>
  </g>
  <path id="Path_3080" data-name="Path 3080" d="M423.753,397.672s16.123,23.864,19.174,26.33c0,0,3.051,2.347-6.219,1.525a106.6,106.6,0,0,0-15.4-6.351,2.2,2.2,0,0,1-1.413-1.375c-1.11-3.27-4.789-13.528-9.28-19.776V410.7h-2.975s.236-11.425-2.19-13.929-5.243-8.1-3.716-10.034,7.081-6.632,7.081-6.632-1.564,6.689,1.9,12.031c3.095,4.771,10.217,13.945,16.219,17.1a1.008,1.008,0,0,0,1.44-1.212A97.189,97.189,0,0,0,423.753,397.672Z" transform="translate(-282.139 258.971)" fill="#251818"/>
  <path id="Path_3081" data-name="Path 3081" d="M384.494,390.285s-2.495,16.371-3.748,18.56c-1.1,1.928-9.77,16.064-16.158,18.975-1.23.561-5,1.271-4.928-.079.411-7.38,2.817-16.274,6.5-24.529,0,0,7.816-12.638,13.372-16.784,0,0-13.927,21.126-9.624,22.926C376.978,412.31,384.494,390.285,384.494,390.285Z" transform="translate(-322.422 265.089)" fill="#251818"/>
  <path id="Path_3082" data-name="Path 3082" d="M422,122.183a50,50,0,0,1-11.877-3.374c-2.178-.881-4.316-1.865-6.5-2.725.8.366-3.2-.765-3.7-.864a11.724,11.724,0,0,1-2.479-.775c-.445,11.285-2.967,40.038-17.061,45.529,0,0,10.065,12.355,35.69,8.924s18.608-16.091,18.608-16.091S417.245,149.52,422,122.183Z" transform="translate(-302.376 1.975)" fill="#c4805f"/>
  <path id="Path_3083" data-name="Path 3083" d="M386.422,155.32c3.15-2.422,12.76-13.1,16.719-14.1a28.164,28.164,0,0,1,15.511.506c-1.729-4.5-2.489-10.785-.964-19.546a50,50,0,0,1-11.877-3.374c-2.178-.881-4.316-1.865-6.5-2.725.8.366-3.2-.765-3.7-.864a11.725,11.725,0,0,1-2.479-.775c-.329,8.363-1.806,26.316-8.283,37.29C385.171,151.639,384.195,157.031,386.422,155.32Z" transform="translate(-298.06 1.975)" fill="#93563e"/>
  <path id="Path_3084" data-name="Path 3084" d="M379.3,87.1s-5.176,48.384,8.552,69.313,49.309,22.534,51.477,21.155c2.477-1.576,13.5-16.538,20.018-32.192,3.539-8.507,2.213-18.126-1.749-26.446-1.574-3.305-2.455-6.986-3.874-10.339-3.494-8.261,1.416-29.444-21.088-37.7S381.778,70.6,379.3,87.1Z" transform="translate(-304.345 -43.336)" fill="#c4805f"/>
  <path id="Path_3085" data-name="Path 3085" d="M432.533,70.9c-22.505-8.251-50.859-.3-53.336,16.2,0,0-1.1,17.482-.624,32.484,2.656-2.922,9.865-13.27,14.818-24.063,1.741-3.789,4.161-13.04,4.161-13.04s9.021,8.379,12.881,9.719c14.643,5.082,26.324-1.281,30.563,0,2.556.771,9.2,8.216,12.461,9.506C455.072,84.263,444.436,75.264,432.533,70.9Z" transform="translate(-304.241 -43.336)" fill="#c4805f"/>
  <path id="Path_3086" data-name="Path 3086" d="M399.429,96.32S375.8,76.292,360.947,98.57s12.93,52.063,45.96,36.047C406.907,134.617,398.16,113.021,399.429,96.32Z" transform="translate(-325.147 -23.56)" fill="#4f3d37"/>
  <path id="Path_3087" data-name="Path 3087" d="M386.474,94.882c-4.484-.083-9.426.169-12.825,2.219-4.291,2.591-3.868,10.173-2.8,14.6,1.989,8.214,7.533,13.935,12.8,19.93a46.134,46.134,0,0,0,10.4-3.61S386.974,110.55,386.474,94.882Z" transform="translate(-312.287 -16.964)" fill="#37231c"/>
  <path id="Path_3088" data-name="Path 3088" d="M389.329,97.387s-3.712-10.128-16.428-4.84,1.125,31.394,19.692,22.169C392.593,114.715,391.579,104.363,389.329,97.387Z" transform="translate(-314.372 -20.688)" fill="#c4805f"/>
  <path id="Path_3089" data-name="Path 3089" d="M371.267,95.149s4.777-2.963,7.488-.99,8.444,12.814,4.194,14.307c-3.8,1.334-7.468-.165-6.445-5.1s.513-6.046-.506-5.216C373.86,99.9,369.585,97.872,371.267,95.149Z" transform="translate(-311.562 -18.305)" fill="#93563e"/>
  <path id="Path_3090" data-name="Path 3090" d="M395.219,65.158s-43.322-15.753-25.767,49.81c0,0,8.324-3.409,21.791,5.723C391.243,120.692,426.388,79.862,395.219,65.158Z" transform="translate(-316.998 -47.31)" fill="#4f3d37"/>
  <path id="Path_3091" data-name="Path 3091" d="M406.818,74.037s19.8-7.352,22.954,3.152-4.411,20.536-4.411,20.536S422.421,74.037,406.818,74.037Z" transform="translate(-276.8 -39.536)" fill="#2c160f"/>
  <path id="Path_3092" data-name="Path 3092" d="M453.435,117.7c.211-2.632,18.56-19.381,11.387-34.012-4.517-9.215-13.516-19.312-36.523-25.726C387.941,46.714,377.789,74.32,377.789,74.32c5.377,1.537,6.1,1.387,24.893,20.4s32.669-1.5,38.293-4.5,18.08-5.326,14.1,9C452.365,109.005,451.783,113.636,453.435,117.7Z" transform="translate(-304.883 -55.27)" fill="#4f3d37"/>
  <path id="Path_3093" data-name="Path 3093" d="M382.949,94.252s6.4-9.207,10.846-10.874,20.587-2.636,20.841-.555-1.987,7.561-2.819,7.561-13.115-3.053-16.03-2.29S384.671,94.845,382.949,94.252Z" transform="translate(-299.891 -29.76)" fill="#3d2e29"/>
  <path id="Path_3094" data-name="Path 3094" d="M425.2,86.33s-1.3-4.34-5.105-5.046-13.874.765-13.571,1.944,1.127,6.128,4.049,5.371,7.9-4.23,9.92-3.526S425.481,87.219,425.2,86.33Z" transform="translate(-277.09 -30.283)" fill="#3d2e29"/>
  <g id="Group_1157" data-name="Group 1157" transform="translate(88.361 66.082)">
    <g id="Group_1156" data-name="Group 1156" transform="translate(3.647 2.487)">
      <g id="Group_1155" data-name="Group 1155" clip-path="url(#clip-path)">
        <path id="Path_3095" data-name="Path 3095" d="M406.037,90.306S391.97,88.75,387.5,94.713c0,0,.455,7.468,4.149,8.985s13.337,1.289,13.725.641a7.628,7.628,0,0,0,2.115-2.333,13.529,13.529,0,0,0,1.131-7C408.37,93.23,407.536,92.1,406.037,90.306Z" transform="translate(-387.498 -90.123)" fill="#fffff6"/>
        <ellipse id="Ellipse_113" data-name="Ellipse 113" cx="7.407" cy="7.407" rx="7.407" ry="7.407" transform="translate(2.982 0.274)" fill="url(#radial-gradient)"/>
      </g>
    </g>
    <path id="Path_3097" data-name="Path 3097" d="M385.768,93.524s-1.218,5.5,4,5.5c0,0,3.608-5.229,12.1-4.9s8.6,2.591,8.6,2.591a7.226,7.226,0,0,0-4.968-7.13c-5.424-2.074-11.409.714-15.169,3.242S385.768,93.524,385.768,93.524Z" transform="translate(-385.644 -88.859)" fill="#34241f"/>
    <path id="Path_3098" data-name="Path 3098" d="M387.994,94.915s-.209,5.412,6.935,5.66,9.351-.13,9.672-.275a8.427,8.427,0,0,0,2.221-2.473,5.349,5.349,0,0,1-2.371,1.1,89.711,89.711,0,0,1-9.963.134C392.74,98.732,389.472,98.1,387.994,94.915Z" transform="translate(-383.372 -83)" fill="#34241f"/>
  </g>
  <g id="Group_1160" data-name="Group 1160" transform="translate(133.022 64.731)">
    <g id="Group_1159" data-name="Group 1159" transform="translate(0.079 2.138)">
      <g id="Group_1158" data-name="Group 1158" clip-path="url(#clip-path-2)">
        <path id="Path_3099" data-name="Path 3099" d="M409.955,90.16s11.279-2.851,15.6,1.594c0,0,.472,6.237-2.365,7.9s-10.714,2.55-11.1,2.056a6.35,6.35,0,0,1-1.987-1.7,11.5,11.5,0,0,1-1.71-5.676C408.385,92.841,408.938,91.816,409.955,90.16Z" transform="translate(-408.385 -89.259)" fill="#fffff6"/>
        <path id="Path_3100" data-name="Path 3100" d="M409.151,96.325a6.088,6.088,0,1,0,5.2-6.957A6.14,6.14,0,0,0,409.151,96.325Z" transform="translate(-407.701 -89.208)" fill="url(#radial-gradient-2)"/>
      </g>
    </g>
    <path id="Path_3102" data-name="Path 3102" d="M428.859,89.869s.773,4.358-3.018,5.509c0,0-3.579-3.925-10.577-2.7s-6.829,3.118-6.829,3.118a6.038,6.038,0,0,1,3.309-6.467c4.259-2.331,9.532-.7,12.932.972S428.859,89.869,428.859,89.869Z" transform="translate(-408.345 -88.172)" fill="#34241f"/>
    <path id="Path_3103" data-name="Path 3103" d="M424.21,92.942s.649,4.332-5.241,5.343-7.2.4-7.484.319a7.035,7.035,0,0,1-2.117-1.8,4.483,4.483,0,0,0,2.087.645,74.773,74.773,0,0,0,8.267-1.015C421.135,95.966,423.344,95.748,424.21,92.942Z" transform="translate(-407.355 -83.558)" fill="#34241f"/>
  </g>
  <path id="Path_3104" data-name="Path 3104" d="M429.523,103.585c.248,4.094-3.6,8.023-8.605,8.775s-9.255-1.959-9.5-6.056,3.6-8.023,8.605-8.775S429.276,99.491,429.523,103.585Z" transform="translate(-272.364 -14.51)" fill="#c4805f"/>
  <path id="Path_3105" data-name="Path 3105" d="M409.7,108.879c-.132,5.157-5.658,9.078-12.345,8.755s-12-4.767-11.867-9.925,5.66-9.078,12.345-8.755S409.835,103.72,409.7,108.879Z" transform="translate(-297.435 -13.03)" fill="#c4805f"/>
  <path id="Path_3106" data-name="Path 3106" d="M405.918,92.049c-.549,0,2.042,8.06,3.583,11.663,2.662,6.229,5.43,9.209,1.415,10.685-3.419,1.257-7.155,2.174-7.958,2.8a8.561,8.561,0,0,0,2,.346c6.459.431,14.035-.858,9.91-8.519C411.954,103.613,407.659,97.623,405.918,92.049Z" transform="translate(-280.535 -19.691)" fill="#93563e"/>
  <path id="Path_3107" data-name="Path 3107" d="M398.931,109.385s5.627,12.375,15.529,11.25,8.112-9.827,8.112-9.827S403.283,111.036,398.931,109.385Z" transform="translate(-284.43 -2.92)" fill="#fffff6"/>
  <path id="Path_3108" data-name="Path 3108" d="M398.741,109.385s4.94,13.134,15.153,13.349c4.364.092,7.352-1.574,11.751-12.678l-4.551,1.426s-1.055,6.845-7.356,6.4-8.922-3.62-11.191-7.146A4.4,4.4,0,0,1,398.741,109.385Z" transform="translate(-284.614 -2.92)" fill="#d00000"/>
  <path id="Path_3109" data-name="Path 3109" d="M428.407,108.3s-.836,6.414-12.658,6.414c-10.689,0-14.4-.281-18.228-5.1,0,0,6.976,2.253,9.977,1.5s4.987-4.427,8.1-1.2c0,0,2.213-3.038,6.007-.523C425.434,111.921,428.407,108.3,428.407,108.3Z" transform="translate(-285.794 -3.973)" fill="#d00000"/>
  <path id="Path_3110" data-name="Path 3110" d="M383.167,106.661a3.77,3.77,0,1,1-3.77-3.77A3.769,3.769,0,0,1,383.167,106.661Z" transform="translate(-306.973 -9.203)" fill="#fff"/>
  <path id="Path_3111" data-name="Path 3111" d="M442.567,137.5l-11.661-4.554a13.946,13.946,0,0,1-11.842,7.75c3.427-.15.36-.026-.565.144q-2.376.446-4.761.826a49.764,49.764,0,0,1-5.656.106c-2.5-.09-5.654-.065-8.1-.921a27.151,27.151,0,0,1-8.828-5.056,11.191,11.191,0,0,1-2.007-2.162c-3.6-.543-9.394,9.359-9.394,9.359,18.739,10.37,29.241,124.457,29.241,124.457l33.55,3.661C450.962,174.488,442.567,137.5,442.567,137.5Z" transform="translate(-302.986 19.873)" fill="#5a91ab"/>
  <path id="Path_3112" data-name="Path 3112" d="M389.914,133.259s8.3,9.087,25.464,7.6c0,0,5.011,21.346-19.011,17S380.578,136.525,389.914,133.259Z" transform="translate(-302.142 20.175)" fill="#fffff6"/>
  <path id="Path_3113" data-name="Path 3113" d="M412.237,132.734s-2.28,6.117-13.949,8.633c0,0,7.795,25.218,28.7,2.9l2.76-3.7S417.035,134.741,412.237,132.734Z" transform="translate(-285.052 19.667)" fill="#fffff6"/>
  <path id="Path_3114" data-name="Path 3114" d="M480.528,255.886a219.829,219.829,0,0,0-8.749-27.345,15.372,15.372,0,0,1-8.623-12.676l-.014-.122c-.161-.657-.329-1.312-.529-1.958-.431-1.31-.9-2.6-1.434-3.876-.26-.47-1.357-2.729-1.548-3.071q-.832-1.5-1.7-2.981a15.489,15.489,0,0,1-1.271-2.774l-42.789-1.631s-43.849,35.69-48.425,64.973,33.67,127.581,28.5,147.255c0,0-2.451,13.213-6.29,14.679,0,.037,0,.073,0,.108,3.429-.6,26.438-4.257,50.312.085a69.438,69.438,0,0,0,39.507-4.913s-5.912-5.554-5.749-16.2c.153-9.88,3.392-25.714,8.794-51.03C493.875,291.881,487.62,284.56,480.528,255.886Z" transform="translate(-317.189 84.211)" fill="#523f3d"/>
  <path id="Path_3115" data-name="Path 3115" d="M471.779,228.541a15.372,15.372,0,0,1-8.623-12.676l-.014-.122c-.161-.657-.329-1.312-.529-1.958-.431-1.31-.9-2.6-1.434-3.876-.26-.47-1.357-2.729-1.548-3.071q-.832-1.5-1.7-2.981a15.489,15.489,0,0,1-1.271-2.774l-42.789-1.631s-6.272,5.109-14.313,13.042l0-.014c-.368.364-.751.753-1.127,1.127l-.321.323q-2.355,2.355-4.832,4.985l-.11.118a179.858,179.858,0,0,0-13.416,15.932l-.122.165q-2.293,3.11-4.364,6.313l-.287.447c-4.763,7.474-8.391,15.2-9.538,22.534-4.576,29.285,33.67,127.581,28.5,147.255,0,0-2.451,13.213-6.29,14.679,0,.037,0,.073,0,.108a156.487,156.487,0,0,1,27.886-1.993c.087-12.971-.338-26.471-2.31-39.076-3.541-22.657-9.306-36.361-14.822-58.524-5.8-23.286-10.15-41.8-6.469-65.514.541-3.48.976-6.965,1.371-10.447,5.265.659,14.9,1.466,19.861.09,6.14-1.7,19.578-16.7,27.485-18.44,2.823-.624,6.2,11.519,15.521,16.961,5.593,3.266,15.4,3.266,22.826.616A225.74,225.74,0,0,0,471.779,228.541Z" transform="translate(-317.189 84.211)" fill="#36302e" opacity="0.37" style="mix-blend-mode: multiply;isolation: isolate"/>
  <path id="Path_3116" data-name="Path 3116" d="M395.841,196.681c.616,5.7-3.459,13.321-3.459,13.321l38.976,1.444c.382-4.4-.317-10.614,0-14.765Z" transform="translate(-290.765 81.529)" fill="#201d1d"/>
  <path id="Path_3117" data-name="Path 3117" d="M409.455,131.82s-48.384,12-48.384,12.823c0,0,17.337,32.6,18.167,55.232,0,0,19.353,11.586,31.64,54.32a19.46,19.46,0,0,1-5.79,19.825c-10.189,9.135-26.058,23.052-29.735,24.49,0,0,24.364,23.284,45.24,6.042,17.181-14.191,17.405-39.645,17.885-54.526.279-8.615-.712-31.032-5.572-59.405C429.373,169.981,421.889,143.975,409.455,131.82Z" transform="translate(-321.055 18.783)" fill="#226e76"/>
  <path id="Path_3118" data-name="Path 3118" d="M384.107,175.551c-2.788-5.137-13.185-19.627-17.244-24.266,3.48,9.971,6.445,20.874,6.772,29.761,0,0,19.353,11.586,31.639,54.32a19.46,19.46,0,0,1-5.79,19.825c-10.189,9.135-26.058,23.052-29.735,24.49,0,0,24.364,23.284,45.24,6.042,14.86-12.272,17.032-32.962,17.659-47.961C414.2,233.636,402.1,208.672,384.107,175.551Z" transform="translate(-315.452 37.613)" fill="#514a4e" opacity="0.35" style="mix-blend-mode: multiply;isolation: isolate"/>
  <path id="Path_3119" data-name="Path 3119" d="M404.435,131.971s21.195,3.587,37.618,6.666c6.569,1.232,9.489,6.28,11.568,11.094,9.418,21.8,23.363,79.593,27.008,79.593,4.482,0,64.993-21.49,64.993-21.49l5.961,15.839s-65.735,34.937-76.547,34.935c-15.843,0-24.134-30.632-30.841-46.444,0,0-14.437,18.2-16.512,25.312-2.682,9.174-5.546,20.427-5.82,27.416-.279,7.163,13.367,29.326,19.81,37.595,0,0-8.7,10.321-19.263,6.721s-9.463-68.408-10.126-101.291S415.677,153.61,404.435,131.971Z" transform="translate(-279.106 18.929)" fill="#226e76"/>
  <path id="Path_3120" data-name="Path 3120" d="M421.309,189.471c-.411.535-5.751,10.506-12.473,11.592.84,26.131,2.977,50.357,9.318,52.519,10.561,3.6,19.261-6.721,19.261-6.721-6.441-8.269-20.087-30.432-19.808-37.595C417.807,204.132,419.411,196.7,421.309,189.471Z" transform="translate(-274.848 74.554)" fill="#514a4e" opacity="0.35" style="mix-blend-mode: multiply;isolation: isolate"/>
  <path id="Path_3121" data-name="Path 3121" d="M464.351,229.8c-13.662-3.193-22.113-12.977-25.551-26.365-4.332-16.868-6.7-33.682-13.046-49.94,0,0,2.213,11.326,4.265,19.941,2.455,10.313-5.375,17.909-5.375,17.909,6.689,15.841,15.074,46.684,30.841,46.444,6.353-.1,16.3-6.382,28.525-10.844C477.054,228.211,471.552,231.482,464.351,229.8Z" transform="translate(-259.555 39.749)" fill="#514a4e" opacity="0.35" style="mix-blend-mode: multiply;isolation: isolate"/>
  <path id="Path_3122" data-name="Path 3122" d="M380.939,219.756s11.295-7.374,8.279-21.592C389.218,198.163,374.874,197.04,380.939,219.756Z" transform="translate(-303.282 82.954)" fill="#a69a8e"/>
  <path id="Path_3123" data-name="Path 3123" d="M381.164,197.169s.923,7.024,7.954,5.757c.055-.01.11-.026.165-.037.71-1.135,2.969,1.5,4.549.167s2.125-6.13,4.73-6.679a14.657,14.657,0,0,1-.209,4.049c3.177-1.546,5.835-3.831,7.185-3.032,2.43,1.434,13.15,12.408,20.726,15.3a1.042,1.042,0,0,1,.694,1.385c-.75,1.609-3,3.75-9.624-.323-9.375-5.762-11.22-9.988-11.6-7.838-.354,1.987,11.651,10.321,16.573,12.641a1.654,1.654,0,0,1,.331,2.156c-1.151,1.279-3.905,2.621-9.756-1.81-8.531-6.455-10.437-8.832-11.283-8.6-.769.21,11.667,9.495,15.723,12.29a1.35,1.35,0,0,1-.061,1.932c-1.139.907-3.488,1.686-7.608-1.316-6.252-4.558-10.758-9.3-11.22-9.068s9.862,8.952,11.936,10.8c1.568,1.395-3.309,4.285-8.228-.4s-6.026-7.275-8.562-7.2-7.287,5.182-18.737-6.038C374.839,211.3,372.366,198.743,381.164,197.169Z" transform="translate(-308.047 81.234)" fill="#c4805f"/>
  <path id="Path_3124" data-name="Path 3124" d="M382.131,202.91a7.778,7.778,0,0,0,3.091.016c.055-.01.11-.026.165-.037.708-1.135,3.441.232,5.021-1.1s1.653-4.867,4.257-5.416a13.375,13.375,0,0,1-.209,4.049c2.625-1.277,4.818-3,6.337-3.154-3.193,4.922,1.611,6.209,5.164,9.131,2.166,1.781,6.136,5.168,8.562,6.471,2.384,1.279,4.389,2.792,7.218,2.721-1.373.83-3.844.907-8.3-1.834-7.673-4.716-10.3-8.4-11.21-8.4-.885-.838-2.2-1.322-3.358,1.332-1.271,2.916,7.537,9.1,13.37,12.853,2.089,1.344,3.8,2.276,5.465,1.973-1.509.789-4.179.834-8.723-2.607-6.587-4.983-9.219-7.529-10.468-8.328-1.729-.779-2.156-.883-2.756.4-.742,1.588,1.216,3.632,4.342,6.215,2.432,2.009,5.5,5.084,8.194,6.579,1.714.954,2.843,1.422,4.84.9-1.208.828-3.5,1.356-7.38-1.47-1.249-.911-2.424-1.826-3.514-2.709-1.983-1.771-4.1-3.547-5.556-4.753a20.042,20.042,0,0,0-1.8-1.476l-.006,0-.006,0c-.165-.1-.281-.151-.336-.124-.024.012,0,.059.031.118-.3.065-.8.342-1.42,1.359-.635,1.037,3.156,5.894,7.108,8.838,1.958,1.458,3.685,2.644,5.495,2.245-1.511.728-4.5.7-7.506-2.168-4.918-4.686-6.026-7.275-8.562-7.2-1.647.049-4.676,2.68-10.592-.006C376.888,209.17,382.1,203.087,382.131,202.91Z" transform="translate(-304.15 81.234)" fill="#c4805f"/>
  <path id="Path_3125" data-name="Path 3125" d="M387.643,199.454c-1-.033-1.895-.1-2.257.478-.055.012-.11.028-.165.037a7.778,7.778,0,0,1-3.091-.016c-.03.177-5.243,6.26-3.044,14.423a10.861,10.861,0,0,0,7.342.929C383.563,210.363,383.913,203.573,387.643,199.454Z" transform="translate(-304.15 84.19)" fill="#cb6d21" opacity="0.24" style="mix-blend-mode: multiply;isolation: isolate"/>
  <path id="Path_3126" data-name="Path 3126" d="M399.014,204.679c-.86,1.692,2.868,3.191,3.024,3.136a2.187,2.187,0,0,0,1.436-1.969,20.347,20.347,0,0,0-2.333-1.226C400.521,204.328,399.28,204.159,399.014,204.679Z" transform="translate(-284.474 88.942)" fill="#ffddc4"/>
  <path id="Path_3127" data-name="Path 3127" d="M396.8,207.906c-.86,1.69,3,2.963,3.152,2.91a1.767,1.767,0,0,0,1.4-2.284,8.788,8.788,0,0,0-2.79-1.062C397.715,207.312,397.066,207.386,396.8,207.906Z" transform="translate(-286.612 91.894)" fill="#ffddc4"/>
  <path id="Path_3128" data-name="Path 3128" d="M394.373,209.793c-.586,1.277,2.784,2.764,2.92,2.713a1.47,1.47,0,0,0,1.241-1.81,9.4,9.4,0,0,0-2.627-1.306C395.169,209.238,394.6,209.3,394.373,209.793Z" transform="translate(-288.906 93.753)" fill="#ffddc4"/>
  <path id="Path_3129" data-name="Path 3129" d="M391.149,210.709c-.651.972,1.924,2.64,2.042,2.617a1.362,1.362,0,0,0,1.483-1.312,9.965,9.965,0,0,0-2.237-1.6A1,1,0,0,0,391.149,210.709Z" transform="translate(-292.06 94.714)" fill="#ffddc4"/>
  <path id="Path_3130" data-name="Path 3130" d="M381.66,138.444c4.511,8.4,15.554,36.048,18.46,55.262,0,0-29.068,36.887-26.694,42.084.4.874,45.876,18.3,53.241,20.349,0,0-11.12,3.52-8.279,21.592,0,0-38.11-10.061-68.752-19.046-7.681-2.253-10.563-9.459-7.982-17.445,7.856-24.307,15.808-44.317,26.389-77.32C373.56,146.71,380.657,136.575,381.66,138.444Z" transform="translate(-340.732 24.978)" fill="#226e76"/>
  <path id="Path_3131" data-name="Path 3131" d="M377.546,153.009c-1.906,25.462-12.406,43.993-18.383,57.42a24.593,24.593,0,0,0-2.032,7.694c-.134,1.43-.14,2.687.374,2.8.1-3.913,5.2-11.533,8.226-16.074,7.885-11.846,18.6-25.442,18.6-25.442A174.7,174.7,0,0,0,377.546,153.009Z" transform="translate(-324.941 39.281)" fill="#514a4e" opacity="0.35" style="mix-blend-mode: multiply;isolation: isolate"/>
  <path id="Path_3132" data-name="Path 3132" d="M396.112,93.471a1.2,1.2,0,1,1-1.19-1.078A1.138,1.138,0,0,1,396.112,93.471Z" transform="translate(-289.46 -19.358)" fill="#fff"/>
  <ellipse id="Ellipse_114" data-name="Ellipse 114" cx="1.099" cy="0.996" rx="1.099" ry="0.996" transform="translate(141.29 70.732)" fill="#fff"/>
</svg>
