<svg id="Layer_1" data-name="Layer 1" xmlns="http://www.w3.org/2000/svg" viewBox="0 0 659.98 123.77"><defs><style>.cls-1{fill:none;}.cls-2{fill:#15b5ff;}</style></defs><title>Swipe</title><path class="cls-1" d="M576,351q6.38-3.21,6.38-9.1a6.07,6.07,0,0,0-1.93-4.78q-1.92-1.73-5.71-1.72-5.78,0-10.85,5.17a29.78,29.78,0,0,0-7.3,13.65h1.74Q569.57,354.26,576,351Z" transform="translate(-30.01 -298.11)"/><path class="cls-1" d="M374.94,336.17q-4.87,0-9.68,4.77a35.7,35.7,0,0,0-7.85,12.66,45,45,0,0,0-3,16.29c0,3.85.93,6.84,2.79,9a9.94,9.94,0,0,0,7.91,3.21q5.1,0,9.56-4.72a33.08,33.08,0,0,0,7-12.62,52.84,52.84,0,0,0,2.58-16.5Q384.25,336.16,374.94,336.17Z" transform="translate(-30.01 -298.11)"/><path class="cls-1" d="M450,337.16a8.33,8.33,0,0,0-5.71-1.72q-5.78,0-10.85,5.17a29.8,29.8,0,0,0-7.31,13.65h1.75q11.3,0,17.67-3.22t6.37-9.1A6.06,6.06,0,0,0,450,337.16Z" transform="translate(-30.01 -298.11)"/><path class="cls-2" d="M169.2,306.41a24.34,24.34,0,0,0-10.46,9.2,25.24,25.24,0,0,0-3.7,13.64,23,23,0,0,0,1.59,8.69,24.46,24.46,0,0,0,4.6,7.24,47.08,47.08,0,0,0,9.32,7.34q7.88,5,10.34,8.2a11.82,11.82,0,0,1,2.47,7.37,11.48,11.48,0,0,1-4.75,9.76q-4.76,3.52-13,3.52a42.61,42.61,0,0,1-21-5.83V389q8.29,4.51,20.92,4.51,15.27,0,24-7.15t8.68-19.78a22.35,22.35,0,0,0-3.54-12.47q-3.56-5.44-12.87-11.27a58.51,58.51,0,0,1-8.08-5.74,12.08,12.08,0,0,1-2.8-4,12.69,12.69,0,0,1-.9-5,11.67,11.67,0,0,1,4-9.17q4-3.51,10.52-3.51,8.06,0,17.73,4.69l5.17-11.49a48.78,48.78,0,0,0-22.9-5.53A34.85,34.85,0,0,0,169.2,306.41Z" transform="translate(-30.01 -298.11)"/><path class="cls-2" d="M289.09,325.83Q275.4,356.72,274,360t-3.82,9.83q-2.4,6.52-3.43,9.53h-.36l.18-14.07-.06-3.19-1.14-36.3H250.08L233.37,363q-2.58,5.76-6.55,16.35h-.36c.36-6.34.58-11.24.66-14.73l-.78-38.83H213.05l2.83,66.48h15.75q19.17-42.62,20.76-46.41c1.07-2.52,2.1-5,3.1-7.51l-.18,12,.06,4.21,1.14,37.69h16.11l31.14-66.48Z" transform="translate(-30.01 -298.11)"/><path class="cls-2" d="M320.29,314.4a8.6,8.6,0,0,0,5.29,1.57,8.38,8.38,0,0,0,6.31-2.47,9.18,9.18,0,0,0,2.41-6.73,5.84,5.84,0,0,0-2-4.84,8,8,0,0,0-5.17-1.59,8.61,8.61,0,0,0-6.62,2.52,9.35,9.35,0,0,0-2.34,6.61A5.73,5.73,0,0,0,320.29,314.4Z" transform="translate(-30.01 -298.11)"/><polygon class="cls-2" points="285.35 27.71 271.17 94.2 285.35 94.2 299.48 27.71 285.35 27.71"/><path class="cls-2" d="M380.23,324.62q-11.25,0-20.68,12.51H359l1.26-11.3H349.21l-20.32,96.06h14l5.77-27.84a86.5,86.5,0,0,0,1.5-11.12h.6q5.3,10.59,16.17,10.58a24.56,24.56,0,0,0,16-5.95q7.25-6,11.45-16.62A61.84,61.84,0,0,0,398.56,348q0-11-4.87-17.19T380.23,324.62Zm1.44,40.13a33.08,33.08,0,0,1-7,12.62q-4.45,4.72-9.56,4.72a9.94,9.94,0,0,1-7.91-3.21c-1.86-2.15-2.79-5.14-2.79-9a45,45,0,0,1,3-16.29,35.7,35.7,0,0,1,7.85-12.66q4.8-4.77,9.68-4.77,9.31,0,9.31,12.08A52.84,52.84,0,0,1,381.67,364.75Z" transform="translate(-30.01 -298.11)"/><path class="cls-2" d="M460.15,329q-5.38-4.35-15.06-4.36a30.38,30.38,0,0,0-17.83,5.59,38.06,38.06,0,0,0-12.62,15.84A52.88,52.88,0,0,0,410,368.21q0,12,6.64,18.63t18.49,6.67a48.36,48.36,0,0,0,10.79-1.11,55.23,55.23,0,0,0,10.61-3.76V377.4a60.57,60.57,0,0,1-10.1,3.91,33.21,33.21,0,0,1-8.6,1.14q-6.72,0-10.13-3.78t-3.39-10.46v-1.75l.12-1.86H427q18.52,0,28.53-6.16t10-17.11Q465.53,333.34,460.15,329ZM445.51,351q-6.37,3.22-17.67,3.22h-1.75a29.8,29.8,0,0,1,7.31-13.65q5.07-5.16,10.85-5.17a8.33,8.33,0,0,1,5.71,1.72,6.06,6.06,0,0,1,1.92,4.78Q451.88,347.82,445.51,351Z" transform="translate(-30.01 -298.11)"/><polygon class="cls-2" points="473.75 94.2 487.81 94.2 507.71 0.66 493.58 0.66 473.75 94.2"/><path class="cls-2" d="M587,377.4a60.51,60.51,0,0,1-10.09,3.91,33.26,33.26,0,0,1-8.6,1.14q-6.74,0-10.13-3.78t-3.4-10.46v-1.75l.12-1.86h2.59q18.51,0,28.52-6.16t10-17.11q0-8-5.38-12.35t-15.06-4.36a30.35,30.35,0,0,0-17.82,5.59,38,38,0,0,0-12.62,15.84,52.88,52.88,0,0,0-4.66,22.16q0,12,6.64,18.63t18.48,6.67a48.3,48.3,0,0,0,10.79-1.11A55,55,0,0,0,587,388.64Zm-23.11-36.79q5.08-5.16,10.85-5.17,3.79,0,5.71,1.72a6.07,6.07,0,0,1,1.93,4.78q0,5.88-6.38,9.1t-17.67,3.22h-1.74A29.78,29.78,0,0,1,563.84,340.61Z" transform="translate(-30.01 -298.11)"/><path class="cls-2" d="M633.72,320.66q1.32-5.9,3.82-8.48a8.81,8.81,0,0,1,6.64-2.58,23.33,23.33,0,0,1,8.18,1.68L656,300.7a30.68,30.68,0,0,0-12.68-2.59q-10,0-15.42,5t-8.08,16.92l-1.27,5.54-11.66,4.56-1.26,6.38h10.76l-13,61.43q-2.6,12.33-10.64,12.32a23.38,23.38,0,0,1-6.86-1.2V420.5a24.72,24.72,0,0,0,9,1.39q8.83,0,14.31-5.35T617,399.82l13.41-63.29h13.76l2.23-10.7H632.64Z" transform="translate(-30.01 -298.11)"/><path class="cls-2" d="M671,336.53h16.65l2.35-10.7H673.22L676.34,311h-8.77L659.81,325l-11.42,4.93-1.26,6.62h9.74l-7.28,34.26a37.89,37.89,0,0,0-1,7.88q0,14.83,16.47,14.84a34.1,34.1,0,0,0,7.22-.78,26.29,26.29,0,0,0,5.71-1.8v-10.7a26.3,26.3,0,0,1-9.08,1.86,6.15,6.15,0,0,1-4.57-1.53,5.64,5.64,0,0,1-1.5-4.12,24.89,24.89,0,0,1,.78-5.53Z" transform="translate(-30.01 -298.11)"/><polygon class="cls-2" points="52.22 100.7 52.22 4.3 0 48.48 52.22 100.7"/></svg>