<svg xmlns="http://www.w3.org/2000/svg" xmlns:xlink="http://www.w3.org/1999/xlink" width="1920" height="1078" viewBox="0 0 1920 1078">
  <defs>
    <clipPath id="clip-path">
      <rect id="Rectangle_1411" data-name="Rectangle 1411" width="1920" height="1078" fill="#fff"/>
    </clipPath>
  </defs>
  <g id="Mask_Group_36" data-name="Mask Group 36" clip-path="url(#clip-path)">
    <rect id="Rectangle_1420" data-name="Rectangle 1420" width="1981" height="1157" transform="translate(-35 -46)" fill="#fff"/>
    <g id="Group_1395" data-name="Group 1395" transform="translate(-6.034 130.911)">
      <rect id="Rectangle_1170" data-name="Rectangle 1170" width="1917.772" height="1095.87" transform="translate(9.859)" fill="#fff"/>
      <g id="Group_1388" data-name="Group 1388" transform="translate(-238.439 525.777)">
        <g id="Group_1366" data-name="Group 1366" transform="translate(354.959 -118)">
          <g id="Group_1361" data-name="Group 1361" transform="translate(1360.404 189.703)">
            <path id="Path_3365" data-name="Path 3365" d="M510.526,172.548h41.922v-32.5l-20.961-15.729-20.961,15.729Z" transform="translate(-493.487 -124.324)" fill="rgba(238,248,255,0.4)"/>
            <rect id="Rectangle_1171" data-name="Rectangle 1171" width="99.521" height="250.184" transform="translate(0 45.717)" fill="rgba(238,248,255,0.4)"/>
            <rect id="Rectangle_1172" data-name="Rectangle 1172" width="25.015" height="20.248" transform="translate(45.718 35.594)" fill="rgba(238,248,255,0.4)"/>
          </g>
          <rect id="Rectangle_1173" data-name="Rectangle 1173" width="78.642" height="353.821" transform="translate(938.097 131.784)" fill="rgba(238,248,255,0.4)"/>
          <rect id="Rectangle_1174" data-name="Rectangle 1174" width="54.751" height="56.576" transform="translate(950.042 107.712)" fill="rgba(238,248,255,0.4)"/>
          <rect id="Rectangle_1175" data-name="Rectangle 1175" width="42.891" height="48.447" transform="translate(955.972 91.996)" fill="rgba(238,248,255,0.4)"/>
          <g id="Group_1362" data-name="Group 1362" transform="translate(1457.091 100.759)">
            <rect id="Rectangle_1176" data-name="Rectangle 1176" width="109.98" height="338.283" transform="translate(0 46.563)" fill="rgba(238,248,255,0.4)"/>
            <path id="Path_3366" data-name="Path 3366" d="M538.17,166.008h82.654V120.757l-41.085-21.9-41.569,21.9Z" transform="translate(-521.281 -98.853)" fill="rgba(238,248,255,0.4)"/>
          </g>
          <path id="Path_3367" data-name="Path 3367" d="M537.963,538.13V77.012L405.922,108.628v429.5Z" transform="translate(606.235 -52.525)" fill="rgba(238,248,255,0.4)"/>
          <path id="Path_3368" data-name="Path 3368" d="M186.119,485.625V98.081l95.958,92.538V485.625Z" transform="translate(58.466 -0.019)" fill="rgba(238,248,255,0.4)"/>
          <rect id="Rectangle_1177" data-name="Rectangle 1177" width="6.176" height="18.72" transform="translate(650.621 126.677)" fill="rgba(238,248,255,0.4)"/>
          <rect id="Rectangle_1178" data-name="Rectangle 1178" width="6.176" height="18.721" transform="translate(664.838 130.973)" fill="rgba(238,248,255,0.4)"/>
          <rect id="Rectangle_1179" data-name="Rectangle 1179" width="6.176" height="18.721" transform="translate(625.062 130.973)" fill="rgba(238,248,255,0.4)"/>
          <path id="Path_3369" data-name="Path 3369" d="M402.31,451.377V112.484l-113.973-.661V451.377Z" transform="translate(313.201 34.228)" fill="rgba(238,248,255,0.4)"/>
          <rect id="Rectangle_1180" data-name="Rectangle 1180" width="6.176" height="18.72" transform="translate(137.813 126.677)" fill="rgba(238,248,255,0.4)"/>
          <rect id="Rectangle_1181" data-name="Rectangle 1181" width="6.176" height="18.721" transform="translate(152.03 130.973)" fill="rgba(238,248,255,0.4)"/>
          <rect id="Rectangle_1182" data-name="Rectangle 1182" width="6.176" height="18.721" transform="translate(112.254 130.973)" fill="rgba(238,248,255,0.4)"/>
          <path id="Path_3370" data-name="Path 3370" d="M318.783,451.377V112.484l-202.7-.661V451.377Z" transform="translate(-116.08 34.228)" fill="rgba(238,248,255,0.4)"/>
          <path id="Path_3371" data-name="Path 3371" d="M430.49,357.229V150.006l-113.973-.4V357.229Z" transform="translate(383.428 128.376)" fill="rgba(238,248,255,0.4)"/>
          <g id="Group_1363" data-name="Group 1363" transform="translate(1259.163 64.609)">
            <rect id="Rectangle_1183" data-name="Rectangle 1183" width="5.615" height="52.665" transform="translate(67.534)" fill="rgba(238,248,255,0.4)"/>
            <rect id="Rectangle_1184" data-name="Rectangle 1184" width="5.614" height="23.307" transform="translate(80.458 25.424)" fill="rgba(238,248,255,0.4)"/>
            <rect id="Rectangle_1185" data-name="Rectangle 1185" width="5.615" height="23.307" transform="translate(44.298 31.458)" fill="rgba(238,248,255,0.4)"/>
            <path id="Path_3372" data-name="Path 3372" d="M580.2,478.742V101.566l-103.54-.723v377.9Z" transform="translate(-476.655 -57.747)" fill="rgba(238,248,255,0.4)"/>
          </g>
          <path id="Path_3373" data-name="Path 3373" d="M559.167,422.082v-298.5l-103.54,66.947V422.082Z" transform="translate(730.105 63.523)" fill="rgba(238,248,255,0.4)"/>
          <rect id="Rectangle_1186" data-name="Rectangle 1186" width="4.492" height="32.246" transform="translate(894.89)" fill="rgba(238,248,255,0.4)"/>
          <rect id="Rectangle_1187" data-name="Rectangle 1187" width="4.492" height="32.246" transform="translate(963.268 67.597)" fill="rgba(238,248,255,0.4)"/>
          <rect id="Rectangle_1188" data-name="Rectangle 1188" width="4.492" height="32.246" transform="translate(920.201 15.136)" fill="rgba(238,248,255,0.4)"/>
          <rect id="Rectangle_1189" data-name="Rectangle 1189" width="4.492" height="32.246" transform="translate(984.638 79.193)" fill="rgba(238,248,255,0.4)"/>
          <rect id="Rectangle_1190" data-name="Rectangle 1190" width="4.492" height="32.246" transform="translate(883.787 7.4)" fill="rgba(238,248,255,0.4)"/>
          <path id="Path_3374" data-name="Path 3374" d="M436,532.286V80.5l-71.2-1.139V532.286Z" transform="translate(503.752 -46.681)" fill="rgba(238,248,255,0.4)"/>
          <rect id="Rectangle_1191" data-name="Rectangle 1191" width="117.678" height="358.605" transform="translate(759.808 127)" fill="rgba(238,248,255,0.4)"/>
          <rect id="Rectangle_1192" data-name="Rectangle 1192" width="81.093" height="27.082" transform="translate(778.101 110.385)" fill="rgba(238,248,255,0.4)"/>
          <path id="Path_3375" data-name="Path 3375" d="M342.439,154.341H398.8V110.78L370.618,89.7,342.439,110.78Z" transform="translate(448.029 -20.915)" fill="rgba(238,248,255,0.4)"/>
          <g id="Group_1364" data-name="Group 1364" transform="translate(1590.319 76.699)">
            <rect id="Rectangle_1193" data-name="Rectangle 1193" width="11.301" height="28.182" transform="translate(14.096)" fill="rgba(238,248,255,0.4)"/>
            <rect id="Rectangle_1194" data-name="Rectangle 1194" width="11.301" height="28.182" transform="translate(40.11 6.468)" fill="rgba(238,248,255,0.4)"/>
            <path id="Path_3376" data-name="Path 3376" d="M693.355,490.813V102.466L571.485,96V490.813Z" transform="translate(-571.485 -81.908)" fill="rgba(238,248,255,0.4)"/>
          </g>
          <g id="Group_1365" data-name="Group 1365" transform="translate(1708.188 153.048)">
            <rect id="Rectangle_1195" data-name="Rectangle 1195" width="100.923" height="242.865" transform="translate(0 89.693)" fill="rgba(238,248,255,0.4)"/>
            <rect id="Rectangle_1196" data-name="Rectangle 1196" width="71.084" height="80.263" transform="translate(15.341 56.909)" fill="rgba(238,248,255,0.4)"/>
            <rect id="Rectangle_1197" data-name="Rectangle 1197" width="54.546" height="68.73" transform="translate(22.957 34.614)" fill="rgba(238,248,255,0.4)"/>
            <rect id="Rectangle_1198" data-name="Rectangle 1198" width="5.768" height="45.746" transform="translate(68.67 45.746) rotate(180)" fill="rgba(238,248,255,0.4)"/>
            <rect id="Rectangle_1199" data-name="Rectangle 1199" width="5.768" height="45.746" transform="translate(41.225 62.197) rotate(180)" fill="rgba(238,248,255,0.4)"/>
          </g>
          <rect id="Rectangle_1200" data-name="Rectangle 1200" width="196.049" height="306.575" transform="translate(411.406 179.029)" fill="rgba(238,248,255,0.4)"/>
          <rect id="Rectangle_1201" data-name="Rectangle 1201" width="167.608" height="232.014" transform="translate(247.674 253.591)" fill="rgba(238,248,255,0.4)"/>
          <rect id="Rectangle_1202" data-name="Rectangle 1202" width="128.613" height="113.249" transform="translate(429.643 121.065)" fill="rgba(238,248,255,0.4)"/>
        </g>
        <g id="Group_1387" data-name="Group 1387" transform="translate(262.203 -33.595)">
          <rect id="Rectangle_1203" data-name="Rectangle 1203" width="105.695" height="324.735" transform="translate(1718.023 194.009)" fill="#edf9ff"/>
          <rect id="Rectangle_1204" data-name="Rectangle 1204" width="171.352" height="224.547" transform="translate(1186.522 294.231)" fill="#edf9ff"/>
          <rect id="Rectangle_1205" data-name="Rectangle 1205" width="75.905" height="136.33" transform="translate(1225.087 202.135)" fill="#edf9ff"/>
          <rect id="Rectangle_1206" data-name="Rectangle 1206" width="87.08" height="21.854" transform="translate(1448.583 196.118)" fill="#edf9ff"/>
          <rect id="Rectangle_1207" data-name="Rectangle 1207" width="110.166" height="12.776" transform="translate(1715.787 166.262)" fill="#edf9ff"/>
          <path id="Path_3377" data-name="Path 3377" d="M301.134,359.987V163.462l77.724,27.82v168.7Z" transform="translate(710.338 158.683)" fill="#edf9ff"/>
          <rect id="Rectangle_1208" data-name="Rectangle 1208" width="102.435" height="411.21" transform="translate(1346.99 107.568)" fill="#edf9ff"/>
          <rect id="Rectangle_1209" data-name="Rectangle 1209" width="68.938" height="161.47" transform="translate(1363.317 65.639)" fill="#edf9ff"/>
          <rect id="Rectangle_1210" data-name="Rectangle 1210" width="8.164" height="142.947" transform="translate(1393.705)" fill="#edf9ff"/>
          <g id="Group_1367" data-name="Group 1367" transform="translate(1726.221 175.579)">
            <rect id="Rectangle_1211" data-name="Rectangle 1211" width="9.177" height="71.86" fill="#edf9ff"/>
            <rect id="Rectangle_1212" data-name="Rectangle 1212" width="9.177" height="71.86" transform="translate(20.03)" fill="#edf9ff"/>
            <rect id="Rectangle_1213" data-name="Rectangle 1213" width="9.177" height="71.86" transform="translate(40.06)" fill="#edf9ff"/>
            <rect id="Rectangle_1214" data-name="Rectangle 1214" width="9.177" height="71.86" transform="translate(60.091)" fill="#edf9ff"/>
            <rect id="Rectangle_1215" data-name="Rectangle 1215" width="9.177" height="71.86" transform="translate(80.121)" fill="#edf9ff"/>
          </g>
          <rect id="Rectangle_1216" data-name="Rectangle 1216" width="154.992" height="308.674" transform="translate(1371.929 210.104)" fill="#edf9ff"/>
          <rect id="Rectangle_1217" data-name="Rectangle 1217" width="89.823" height="154.496" transform="translate(1641.343 364.249)" fill="#edf9ff"/>
          <path id="Path_3378" data-name="Path 3378" d="M188.4,321V175.2l107,3.494V321Z" transform="translate(335.874 197.67)" fill="#edf9ff"/>
          <path id="Path_3379" data-name="Path 3379" d="M194.216,242.546H256.16V187.376l-30.972-26.7-30.972,26.7Z" transform="translate(355.189 149.413)" fill="#edf9ff"/>
          <path id="Path_3380" data-name="Path 3380" d="M540.512,324.895V174.019l135.926,3.616V324.895Z" transform="translate(1505.478 193.749)" fill="#edf9ff"/>
          <path id="Path_3409" data-name="Path 3409" d="M540.512,292.269V174.019l135.926,2.834V292.269Z" transform="translate(-593.435 226.374)" fill="#edf9ff"/>
          <path id="Path_3381" data-name="Path 3381" d="M540.512,303.766V164.087l118.655,3.348V303.766Z" transform="translate(1505.478 160.759)" fill="#edf9ff"/>
          <rect id="Rectangle_1218" data-name="Rectangle 1218" width="178.823" height="233.561" transform="translate(841.903 285.639)" fill="#edf9ff"/>
          <rect id="Rectangle_1219" data-name="Rectangle 1219" width="123.228" height="43.153" transform="translate(888.244 262.291)" fill="#edf9ff"/>
          <path id="Path_3382" data-name="Path 3382" d="M278.039,245.439H363.68v-73.02L320.86,137.075l-42.82,35.344Z" transform="translate(633.625 71.034)" fill="#edf9ff"/>
          <path id="Path_3383" data-name="Path 3383" d="M419.492,427.273V143.227l87.92,15.146v268.9Z" transform="translate(1103.488 91.471)" fill="#edf9ff"/>
          <path id="Path_3384" data-name="Path 3384" d="M486.284,455.242V134.807l87.92,17.087V455.242Z" transform="translate(1325.35 63.502)" fill="#edf9ff"/>
          <path id="Path_3385" data-name="Path 3385" d="M429.664,377.527V170.3l87.92-12.1V377.527Z" transform="translate(1137.276 141.217)" fill="#edf9ff"/>
          <rect id="Rectangle_1220" data-name="Rectangle 1220" width="7.127" height="39.906" transform="translate(809.541 110.525)" fill="#edf9ff"/>
          <rect id="Rectangle_1221" data-name="Rectangle 1221" width="7.127" height="39.907" transform="translate(825.947 119.683)" fill="#edf9ff"/>
          <rect id="Rectangle_1222" data-name="Rectangle 1222" width="7.126" height="39.907" transform="translate(780.046 119.683)" fill="#edf9ff"/>
          <path id="Path_3386" data-name="Path 3386" d="M238.359,493.252V123.342l129.626,1.773V493.252Z" transform="translate(501.819 25.417)" fill="#edf9ff"/>
          <path id="Path_3387" data-name="Path 3387" d="M318.416,480.9V210.376l128.316-83.283V480.9Z" transform="translate(767.744 37.875)" fill="#edf9ff"/>
          <rect id="Rectangle_1223" data-name="Rectangle 1223" width="120.511" height="268.006" transform="translate(630.221 250.663)" fill="#edf9ff"/>
          <rect id="Rectangle_1224" data-name="Rectangle 1224" width="97.931" height="100.164" transform="translate(652.802 234.054)" fill="#edf9ff"/>
          <rect id="Rectangle_1225" data-name="Rectangle 1225" width="55.216" height="43.651" transform="translate(671.804 208.923)" fill="#edf9ff"/>
          <rect id="Rectangle_1226" data-name="Rectangle 1226" width="156.75" height="230.468" transform="translate(1894.745 288.176)" fill="#edf9ff"/>
          <rect id="Rectangle_1227" data-name="Rectangle 1227" width="127.38" height="86.134" transform="translate(2022.124 360.028) rotate(180)" fill="#edf9ff"/>
          <rect id="Rectangle_1228" data-name="Rectangle 1228" width="71.82" height="37.537" transform="translate(1997.406 289.819) rotate(180)" fill="#edf9ff"/>
          <g id="Group_1368" data-name="Group 1368" transform="translate(1737.829 212.835)">
            <rect id="Rectangle_1229" data-name="Rectangle 1229" width="62.092" height="9.764" transform="translate(62.092 9.764) rotate(180)" fill="#edf9ff"/>
            <rect id="Rectangle_1230" data-name="Rectangle 1230" width="62.092" height="9.764" transform="translate(62.092 34.083) rotate(180)" fill="#edf9ff"/>
            <rect id="Rectangle_1231" data-name="Rectangle 1231" width="62.092" height="9.764" transform="translate(62.092 58.402) rotate(180)" fill="#edf9ff"/>
            <rect id="Rectangle_1232" data-name="Rectangle 1232" width="62.092" height="9.764" transform="translate(62.092 82.72) rotate(180)" fill="#edf9ff"/>
            <rect id="Rectangle_1233" data-name="Rectangle 1233" width="62.092" height="9.764" transform="translate(62.092 107.039) rotate(180)" fill="#edf9ff"/>
            <rect id="Rectangle_1234" data-name="Rectangle 1234" width="62.092" height="9.764" transform="translate(62.092 131.358) rotate(180)" fill="#edf9ff"/>
            <rect id="Rectangle_1235" data-name="Rectangle 1235" width="62.092" height="9.764" transform="translate(62.092 155.677) rotate(180)" fill="#edf9ff"/>
            <rect id="Rectangle_1236" data-name="Rectangle 1236" width="62.092" height="9.764" transform="translate(62.092 179.996) rotate(180)" fill="#edf9ff"/>
            <rect id="Rectangle_1237" data-name="Rectangle 1237" width="62.092" height="9.764" transform="translate(62.092 204.314) rotate(180)" fill="#edf9ff"/>
            <rect id="Rectangle_1238" data-name="Rectangle 1238" width="62.092" height="9.764" transform="translate(62.092 228.633) rotate(180)" fill="#edf9ff"/>
            <rect id="Rectangle_1239" data-name="Rectangle 1239" width="62.092" height="9.764" transform="translate(62.092 252.952) rotate(180)" fill="#edf9ff"/>
          </g>
          <rect id="Rectangle_1240" data-name="Rectangle 1240" width="67.608" height="224.293" transform="translate(191.639 294.451)" fill="#edf9ff"/>
          <rect id="Rectangle_1241" data-name="Rectangle 1241" width="70.467" height="8.824" transform="translate(190.209 275.287)" fill="#edf9ff"/>
          <g id="Group_1369" data-name="Group 1369" transform="translate(196.883 281.722)">
            <rect id="Rectangle_1242" data-name="Rectangle 1242" width="5.87" height="49.633" fill="#edf9ff"/>
            <rect id="Rectangle_1243" data-name="Rectangle 1243" width="5.87" height="49.633" transform="translate(12.812)" fill="#edf9ff"/>
            <rect id="Rectangle_1244" data-name="Rectangle 1244" width="5.87" height="49.633" transform="translate(25.625)" fill="#edf9ff"/>
            <rect id="Rectangle_1245" data-name="Rectangle 1245" width="5.87" height="49.633" transform="translate(38.437)" fill="#edf9ff"/>
            <rect id="Rectangle_1246" data-name="Rectangle 1246" width="5.87" height="49.633" transform="translate(51.249)" fill="#edf9ff"/>
          </g>
          <rect id="Rectangle_1247" data-name="Rectangle 1247" width="74.196" height="137.801" transform="translate(12.573 380.943)" fill="#edf9ff"/>
          <path id="Path_3388" data-name="Path 3388" d="M161.918,343.242V171l141.676,4.128V343.242Z" transform="translate(243.027 175.427)" fill="#edf9ff"/>
          <path id="Path_3389" data-name="Path 3389" d="M161.918,319.667V160.2l123.675,3.822V319.667Z" transform="translate(243.027 137.219)" fill="#edf9ff"/>
          <path id="Path_3390" data-name="Path 3390" d="M82.564,416.91V163.557l72.624,13.51V416.91Z" transform="translate(0.138 101.835)" fill="#edf9ff"/>
          <path id="Path_3391" data-name="Path 3391" d="M125.288,379.063V157.741l56.238,11.8V379.063Z" transform="translate(126.23 139.681)" fill="#edf9ff"/>
          <path id="Path_3392" data-name="Path 3392" d="M89.071,369.525V184.69L161.7,173.9V369.525Z" transform="translate(29.944 149.22)" fill="#edf9ff"/>
          <rect id="Rectangle_1248" data-name="Rectangle 1248" width="100.265" height="159.183" transform="translate(304.679 359.492)" fill="#edf9ff"/>
          <rect id="Rectangle_1249" data-name="Rectangle 1249" width="81.479" height="59.492" transform="translate(386.157 409.12) rotate(180)" fill="#edf9ff"/>
          <rect id="Rectangle_1250" data-name="Rectangle 1250" width="45.94" height="25.926" transform="translate(370.347 360.627) rotate(180)" fill="#edf9ff"/>
          <g id="Group_1370" data-name="Group 1370" transform="translate(204.308 307.454)">
            <rect id="Rectangle_1251" data-name="Rectangle 1251" width="39.718" height="6.744" transform="translate(39.718 6.744) rotate(180)" fill="#edf9ff"/>
            <rect id="Rectangle_1252" data-name="Rectangle 1252" width="39.718" height="6.744" transform="translate(39.718 23.541) rotate(180)" fill="#edf9ff"/>
            <rect id="Rectangle_1253" data-name="Rectangle 1253" width="39.718" height="6.744" transform="translate(39.718 40.337) rotate(180)" fill="#edf9ff"/>
            <rect id="Rectangle_1254" data-name="Rectangle 1254" width="39.718" height="6.744" transform="translate(39.718 57.134) rotate(180)" fill="#edf9ff"/>
            <rect id="Rectangle_1255" data-name="Rectangle 1255" width="39.718" height="6.744" transform="translate(39.718 73.931) rotate(180)" fill="#edf9ff"/>
            <rect id="Rectangle_1256" data-name="Rectangle 1256" width="39.718" height="6.744" transform="translate(39.718 90.728) rotate(180)" fill="#edf9ff"/>
            <rect id="Rectangle_1257" data-name="Rectangle 1257" width="39.718" height="6.744" transform="translate(39.718 107.525) rotate(180)" fill="#edf9ff"/>
            <rect id="Rectangle_1258" data-name="Rectangle 1258" width="39.718" height="6.744" transform="translate(39.718 124.322) rotate(180)" fill="#edf9ff"/>
            <rect id="Rectangle_1259" data-name="Rectangle 1259" width="39.718" height="6.744" transform="translate(39.718 141.119) rotate(180)" fill="#edf9ff"/>
            <rect id="Rectangle_1260" data-name="Rectangle 1260" width="39.718" height="6.744" transform="translate(39.718 157.915) rotate(180)" fill="#edf9ff"/>
            <rect id="Rectangle_1261" data-name="Rectangle 1261" width="39.718" height="6.744" transform="translate(39.718 174.712) rotate(180)" fill="#edf9ff"/>
          </g>
          <g id="Group_1373" data-name="Group 1373" transform="translate(1366.301 126.835)">
            <g id="Group_1371" data-name="Group 1371" transform="translate(0 0)">
              <rect id="Rectangle_1262" data-name="Rectangle 1262" width="63.734" height="6.168" transform="translate(63.734 6.168) rotate(180)" fill="#edf9ff"/>
              <rect id="Rectangle_1263" data-name="Rectangle 1263" width="63.734" height="6.168" transform="translate(63.734 21.531) rotate(180)" fill="#edf9ff"/>
              <rect id="Rectangle_1264" data-name="Rectangle 1264" width="63.734" height="6.168" transform="translate(63.734 36.894) rotate(180)" fill="#edf9ff"/>
              <rect id="Rectangle_1265" data-name="Rectangle 1265" width="63.734" height="6.168" transform="translate(63.734 52.258) rotate(180)" fill="#edf9ff"/>
              <rect id="Rectangle_1266" data-name="Rectangle 1266" width="63.734" height="6.168" transform="translate(63.734 67.621) rotate(180)" fill="#edf9ff"/>
              <rect id="Rectangle_1267" data-name="Rectangle 1267" width="63.734" height="6.168" transform="translate(63.734 82.984) rotate(180)" fill="#edf9ff"/>
              <rect id="Rectangle_1268" data-name="Rectangle 1268" width="63.734" height="6.168" transform="translate(63.734 98.347) rotate(180)" fill="#edf9ff"/>
              <rect id="Rectangle_1269" data-name="Rectangle 1269" width="63.734" height="6.168" transform="translate(63.734 113.71) rotate(180)" fill="#edf9ff"/>
              <rect id="Rectangle_1270" data-name="Rectangle 1270" width="63.734" height="6.168" transform="translate(63.734 129.074) rotate(180)" fill="#edf9ff"/>
              <rect id="Rectangle_1271" data-name="Rectangle 1271" width="63.734" height="6.168" transform="translate(63.734 144.437) rotate(180)" fill="#edf9ff"/>
              <rect id="Rectangle_1272" data-name="Rectangle 1272" width="63.734" height="6.168" transform="translate(63.734 159.8) rotate(180)" fill="#edf9ff"/>
            </g>
            <g id="Group_1372" data-name="Group 1372" transform="translate(0 167.761)">
              <rect id="Rectangle_1273" data-name="Rectangle 1273" width="63.734" height="6.168" transform="translate(63.734 6.168) rotate(180)" fill="#edf9ff"/>
              <rect id="Rectangle_1274" data-name="Rectangle 1274" width="63.734" height="6.168" transform="translate(63.734 21.531) rotate(180)" fill="#edf9ff"/>
              <rect id="Rectangle_1275" data-name="Rectangle 1275" width="63.734" height="6.168" transform="translate(63.734 36.895) rotate(180)" fill="#edf9ff"/>
              <rect id="Rectangle_1276" data-name="Rectangle 1276" width="63.734" height="6.168" transform="translate(63.734 52.258) rotate(180)" fill="#edf9ff"/>
              <rect id="Rectangle_1277" data-name="Rectangle 1277" width="63.734" height="6.168" transform="translate(63.734 67.621) rotate(180)" fill="#edf9ff"/>
              <rect id="Rectangle_1278" data-name="Rectangle 1278" width="63.734" height="6.168" transform="translate(63.734 82.984) rotate(180)" fill="#edf9ff"/>
              <rect id="Rectangle_1279" data-name="Rectangle 1279" width="63.734" height="6.168" transform="translate(63.734 98.347) rotate(180)" fill="#edf9ff"/>
              <rect id="Rectangle_1280" data-name="Rectangle 1280" width="63.734" height="6.168" transform="translate(63.734 113.71) rotate(180)" fill="#edf9ff"/>
              <rect id="Rectangle_1281" data-name="Rectangle 1281" width="63.734" height="6.168" transform="translate(63.734 129.074) rotate(180)" fill="#edf9ff"/>
              <rect id="Rectangle_1282" data-name="Rectangle 1282" width="63.734" height="6.168" transform="translate(63.734 144.437) rotate(180)" fill="#edf9ff"/>
              <rect id="Rectangle_1283" data-name="Rectangle 1283" width="63.734" height="6.168" transform="translate(63.734 159.8) rotate(180)" fill="#edf9ff"/>
            </g>
          </g>
          <g id="Group_1377" data-name="Group 1377" transform="translate(1448.036 232.559)">
            <g id="Group_1374" data-name="Group 1374" transform="translate(47.195 0)">
              <rect id="Rectangle_1284" data-name="Rectangle 1284" width="16.125" height="6.5" transform="translate(16.125 6.5) rotate(180)" fill="#edf9ff"/>
              <rect id="Rectangle_1285" data-name="Rectangle 1285" width="16.125" height="6.5" transform="translate(16.125 30.732) rotate(180)" fill="#edf9ff"/>
              <rect id="Rectangle_1286" data-name="Rectangle 1286" width="16.125" height="6.5" transform="translate(16.125 54.965) rotate(180)" fill="#edf9ff"/>
              <rect id="Rectangle_1287" data-name="Rectangle 1287" width="16.125" height="6.5" transform="translate(16.125 79.198) rotate(180)" fill="#edf9ff"/>
              <rect id="Rectangle_1288" data-name="Rectangle 1288" width="16.125" height="6.5" transform="translate(16.125 103.43) rotate(180)" fill="#edf9ff"/>
              <rect id="Rectangle_1289" data-name="Rectangle 1289" width="16.125" height="6.5" transform="translate(16.125 127.663) rotate(180)" fill="#edf9ff"/>
              <rect id="Rectangle_1290" data-name="Rectangle 1290" width="16.125" height="6.5" transform="translate(16.125 151.896) rotate(180)" fill="#edf9ff"/>
              <rect id="Rectangle_1291" data-name="Rectangle 1291" width="16.125" height="6.5" transform="translate(16.125 176.128) rotate(180)" fill="#edf9ff"/>
              <rect id="Rectangle_1292" data-name="Rectangle 1292" width="16.125" height="6.5" transform="translate(16.125 200.361) rotate(180)" fill="#edf9ff"/>
              <rect id="Rectangle_1293" data-name="Rectangle 1293" width="16.125" height="6.5" transform="translate(16.125 224.594) rotate(180)" fill="#edf9ff"/>
              <rect id="Rectangle_1294" data-name="Rectangle 1294" width="16.125" height="6.5" transform="translate(16.125 248.826) rotate(180)" fill="#edf9ff"/>
            </g>
            <g id="Group_1375" data-name="Group 1375" transform="translate(23.597 0)">
              <rect id="Rectangle_1295" data-name="Rectangle 1295" width="16.125" height="6.5" transform="translate(16.125 6.5) rotate(180)" fill="#edf9ff"/>
              <rect id="Rectangle_1296" data-name="Rectangle 1296" width="16.125" height="6.5" transform="translate(16.125 30.732) rotate(180)" fill="#edf9ff"/>
              <rect id="Rectangle_1297" data-name="Rectangle 1297" width="16.125" height="6.5" transform="translate(16.125 54.965) rotate(180)" fill="#edf9ff"/>
              <rect id="Rectangle_1298" data-name="Rectangle 1298" width="16.125" height="6.5" transform="translate(16.125 79.198) rotate(180)" fill="#edf9ff"/>
              <rect id="Rectangle_1299" data-name="Rectangle 1299" width="16.125" height="6.5" transform="translate(16.125 103.43) rotate(180)" fill="#edf9ff"/>
              <rect id="Rectangle_1300" data-name="Rectangle 1300" width="16.125" height="6.5" transform="translate(16.125 127.663) rotate(180)" fill="#edf9ff"/>
              <rect id="Rectangle_1301" data-name="Rectangle 1301" width="16.125" height="6.5" transform="translate(16.125 151.896) rotate(180)" fill="#edf9ff"/>
              <rect id="Rectangle_1302" data-name="Rectangle 1302" width="16.125" height="6.5" transform="translate(16.125 176.128) rotate(180)" fill="#edf9ff"/>
              <rect id="Rectangle_1303" data-name="Rectangle 1303" width="16.125" height="6.5" transform="translate(16.125 200.361) rotate(180)" fill="#edf9ff"/>
              <rect id="Rectangle_1304" data-name="Rectangle 1304" width="16.125" height="6.5" transform="translate(16.125 224.594) rotate(180)" fill="#edf9ff"/>
              <rect id="Rectangle_1305" data-name="Rectangle 1305" width="16.125" height="6.5" transform="translate(16.125 248.826) rotate(180)" fill="#edf9ff"/>
            </g>
            <g id="Group_1376" data-name="Group 1376" transform="translate(0 0)">
              <rect id="Rectangle_1306" data-name="Rectangle 1306" width="16.125" height="6.5" transform="translate(16.125 6.5) rotate(180)" fill="#edf9ff"/>
              <rect id="Rectangle_1307" data-name="Rectangle 1307" width="16.125" height="6.5" transform="translate(16.125 30.732) rotate(180)" fill="#edf9ff"/>
              <rect id="Rectangle_1308" data-name="Rectangle 1308" width="16.125" height="6.5" transform="translate(16.125 54.965) rotate(180)" fill="#edf9ff"/>
              <rect id="Rectangle_1309" data-name="Rectangle 1309" width="16.125" height="6.5" transform="translate(16.125 79.198) rotate(180)" fill="#edf9ff"/>
              <rect id="Rectangle_1310" data-name="Rectangle 1310" width="16.125" height="6.5" transform="translate(16.125 103.43) rotate(180)" fill="#edf9ff"/>
              <rect id="Rectangle_1311" data-name="Rectangle 1311" width="16.125" height="6.5" transform="translate(16.125 127.663) rotate(180)" fill="#edf9ff"/>
              <rect id="Rectangle_1312" data-name="Rectangle 1312" width="16.125" height="6.5" transform="translate(16.125 151.896) rotate(180)" fill="#edf9ff"/>
              <rect id="Rectangle_1313" data-name="Rectangle 1313" width="16.125" height="6.5" transform="translate(16.125 176.128) rotate(180)" fill="#edf9ff"/>
              <rect id="Rectangle_1314" data-name="Rectangle 1314" width="16.125" height="6.5" transform="translate(16.125 200.361) rotate(180)" fill="#edf9ff"/>
              <rect id="Rectangle_1315" data-name="Rectangle 1315" width="16.125" height="6.5" transform="translate(16.125 224.594) rotate(180)" fill="#edf9ff"/>
              <rect id="Rectangle_1316" data-name="Rectangle 1316" width="16.125" height="6.5" transform="translate(16.125 248.826) rotate(180)" fill="#edf9ff"/>
            </g>
          </g>
          <g id="Group_1381" data-name="Group 1381" transform="translate(903.406 279.61)">
            <g id="Group_1378" data-name="Group 1378" transform="translate(72.838 0)">
              <rect id="Rectangle_1317" data-name="Rectangle 1317" width="16.968" height="5.187" transform="translate(16.968 5.187) rotate(180)" fill="#edf9ff"/>
              <rect id="Rectangle_1318" data-name="Rectangle 1318" width="16.968" height="5.188" transform="translate(16.968 24.527) rotate(180)" fill="#edf9ff"/>
              <rect id="Rectangle_1319" data-name="Rectangle 1319" width="16.968" height="5.187" transform="translate(16.968 43.866) rotate(180)" fill="#edf9ff"/>
              <rect id="Rectangle_1320" data-name="Rectangle 1320" width="16.968" height="5.187" transform="translate(16.968 63.205) rotate(180)" fill="#edf9ff"/>
              <rect id="Rectangle_1321" data-name="Rectangle 1321" width="16.968" height="5.188" transform="translate(16.968 82.545) rotate(180)" fill="#edf9ff"/>
              <rect id="Rectangle_1322" data-name="Rectangle 1322" width="16.968" height="5.187" transform="translate(16.968 101.884) rotate(180)" fill="#edf9ff"/>
              <rect id="Rectangle_1323" data-name="Rectangle 1323" width="16.968" height="5.187" transform="translate(16.968 121.223) rotate(180)" fill="#edf9ff"/>
              <rect id="Rectangle_1324" data-name="Rectangle 1324" width="16.968" height="5.188" transform="translate(16.968 140.563) rotate(180)" fill="#edf9ff"/>
              <rect id="Rectangle_1325" data-name="Rectangle 1325" width="16.968" height="5.188" transform="translate(16.968 159.902) rotate(180)" fill="#edf9ff"/>
              <rect id="Rectangle_1326" data-name="Rectangle 1326" width="16.968" height="5.187" transform="translate(16.968 179.241) rotate(180)" fill="#edf9ff"/>
              <rect id="Rectangle_1327" data-name="Rectangle 1327" width="16.968" height="5.188" transform="translate(16.968 198.581) rotate(180)" fill="#edf9ff"/>
            </g>
            <g id="Group_1379" data-name="Group 1379" transform="translate(36.419 0)">
              <rect id="Rectangle_1328" data-name="Rectangle 1328" width="16.968" height="5.187" transform="translate(16.968 5.187) rotate(180)" fill="#edf9ff"/>
              <rect id="Rectangle_1329" data-name="Rectangle 1329" width="16.968" height="5.188" transform="translate(16.968 24.527) rotate(180)" fill="#edf9ff"/>
              <rect id="Rectangle_1330" data-name="Rectangle 1330" width="16.968" height="5.187" transform="translate(16.968 43.866) rotate(180)" fill="#edf9ff"/>
              <rect id="Rectangle_1331" data-name="Rectangle 1331" width="16.968" height="5.187" transform="translate(16.968 63.205) rotate(180)" fill="#edf9ff"/>
              <rect id="Rectangle_1332" data-name="Rectangle 1332" width="16.968" height="5.188" transform="translate(16.968 82.545) rotate(180)" fill="#edf9ff"/>
              <rect id="Rectangle_1333" data-name="Rectangle 1333" width="16.968" height="5.187" transform="translate(16.968 101.884) rotate(180)" fill="#edf9ff"/>
              <rect id="Rectangle_1334" data-name="Rectangle 1334" width="16.968" height="5.187" transform="translate(16.968 121.223) rotate(180)" fill="#edf9ff"/>
              <rect id="Rectangle_1335" data-name="Rectangle 1335" width="16.968" height="5.188" transform="translate(16.968 140.563) rotate(180)" fill="#edf9ff"/>
              <rect id="Rectangle_1336" data-name="Rectangle 1336" width="16.968" height="5.188" transform="translate(16.968 159.902) rotate(180)" fill="#edf9ff"/>
              <rect id="Rectangle_1337" data-name="Rectangle 1337" width="16.968" height="5.187" transform="translate(16.968 179.241) rotate(180)" fill="#edf9ff"/>
              <rect id="Rectangle_1338" data-name="Rectangle 1338" width="16.968" height="5.188" transform="translate(16.968 198.581) rotate(180)" fill="#edf9ff"/>
            </g>
            <g id="Group_1380" data-name="Group 1380" transform="translate(0 0)">
              <rect id="Rectangle_1339" data-name="Rectangle 1339" width="16.968" height="5.187" transform="translate(16.968 5.187) rotate(180)" fill="#edf9ff"/>
              <rect id="Rectangle_1340" data-name="Rectangle 1340" width="16.968" height="5.188" transform="translate(16.968 24.527) rotate(180)" fill="#edf9ff"/>
              <rect id="Rectangle_1341" data-name="Rectangle 1341" width="16.968" height="5.187" transform="translate(16.968 43.866) rotate(180)" fill="#edf9ff"/>
              <rect id="Rectangle_1342" data-name="Rectangle 1342" width="16.968" height="5.187" transform="translate(16.968 63.205) rotate(180)" fill="#edf9ff"/>
              <rect id="Rectangle_1343" data-name="Rectangle 1343" width="16.968" height="5.188" transform="translate(16.968 82.545) rotate(180)" fill="#edf9ff"/>
              <rect id="Rectangle_1344" data-name="Rectangle 1344" width="16.968" height="5.187" transform="translate(16.968 101.884) rotate(180)" fill="#edf9ff"/>
              <rect id="Rectangle_1345" data-name="Rectangle 1345" width="16.968" height="5.187" transform="translate(16.968 121.223) rotate(180)" fill="#edf9ff"/>
              <rect id="Rectangle_1346" data-name="Rectangle 1346" width="16.968" height="5.188" transform="translate(16.968 140.563) rotate(180)" fill="#edf9ff"/>
              <rect id="Rectangle_1347" data-name="Rectangle 1347" width="16.968" height="5.188" transform="translate(16.968 159.902) rotate(180)" fill="#edf9ff"/>
              <rect id="Rectangle_1348" data-name="Rectangle 1348" width="16.968" height="5.187" transform="translate(16.968 179.241) rotate(180)" fill="#edf9ff"/>
              <rect id="Rectangle_1349" data-name="Rectangle 1349" width="16.968" height="5.188" transform="translate(16.968 198.581) rotate(180)" fill="#edf9ff"/>
            </g>
          </g>
          <g id="Group_1385" data-name="Group 1385" transform="translate(1110.421 279.61)">
            <g id="Group_1382" data-name="Group 1382" transform="translate(72.838 0)">
              <rect id="Rectangle_1350" data-name="Rectangle 1350" width="16.968" height="5.187" transform="translate(16.968 5.187) rotate(180)" fill="#edf9ff"/>
              <rect id="Rectangle_1351" data-name="Rectangle 1351" width="16.968" height="5.188" transform="translate(16.968 24.527) rotate(180)" fill="#edf9ff"/>
              <rect id="Rectangle_1352" data-name="Rectangle 1352" width="16.968" height="5.187" transform="translate(16.968 43.866) rotate(180)" fill="#edf9ff"/>
              <rect id="Rectangle_1353" data-name="Rectangle 1353" width="16.968" height="5.187" transform="translate(16.968 63.205) rotate(180)" fill="#edf9ff"/>
              <rect id="Rectangle_1354" data-name="Rectangle 1354" width="16.968" height="5.188" transform="translate(16.968 82.545) rotate(180)" fill="#edf9ff"/>
              <rect id="Rectangle_1355" data-name="Rectangle 1355" width="16.968" height="5.187" transform="translate(16.968 101.884) rotate(180)" fill="#edf9ff"/>
              <rect id="Rectangle_1356" data-name="Rectangle 1356" width="16.968" height="5.187" transform="translate(16.968 121.223) rotate(180)" fill="#edf9ff"/>
              <rect id="Rectangle_1357" data-name="Rectangle 1357" width="16.968" height="5.188" transform="translate(16.968 140.563) rotate(180)" fill="#edf9ff"/>
              <rect id="Rectangle_1358" data-name="Rectangle 1358" width="16.968" height="5.188" transform="translate(16.968 159.902) rotate(180)" fill="#edf9ff"/>
              <rect id="Rectangle_1359" data-name="Rectangle 1359" width="16.968" height="5.187" transform="translate(16.968 179.241) rotate(180)" fill="#edf9ff"/>
              <rect id="Rectangle_1360" data-name="Rectangle 1360" width="16.968" height="5.188" transform="translate(16.968 198.581) rotate(180)" fill="#edf9ff"/>
            </g>
            <g id="Group_1383" data-name="Group 1383" transform="translate(36.419 0)">
              <rect id="Rectangle_1361" data-name="Rectangle 1361" width="16.968" height="5.187" transform="translate(16.968 5.187) rotate(180)" fill="#edf9ff"/>
              <rect id="Rectangle_1362" data-name="Rectangle 1362" width="16.968" height="5.188" transform="translate(16.968 24.527) rotate(180)" fill="#edf9ff"/>
              <rect id="Rectangle_1363" data-name="Rectangle 1363" width="16.968" height="5.187" transform="translate(16.968 43.866) rotate(180)" fill="#edf9ff"/>
              <rect id="Rectangle_1364" data-name="Rectangle 1364" width="16.968" height="5.187" transform="translate(16.968 63.205) rotate(180)" fill="#edf9ff"/>
              <rect id="Rectangle_1365" data-name="Rectangle 1365" width="16.968" height="5.188" transform="translate(16.968 82.545) rotate(180)" fill="#edf9ff"/>
              <rect id="Rectangle_1366" data-name="Rectangle 1366" width="16.968" height="5.187" transform="translate(16.968 101.884) rotate(180)" fill="#edf9ff"/>
              <rect id="Rectangle_1367" data-name="Rectangle 1367" width="16.968" height="5.187" transform="translate(16.968 121.223) rotate(180)" fill="#edf9ff"/>
              <rect id="Rectangle_1368" data-name="Rectangle 1368" width="16.968" height="5.188" transform="translate(16.968 140.563) rotate(180)" fill="#edf9ff"/>
              <rect id="Rectangle_1369" data-name="Rectangle 1369" width="16.968" height="5.188" transform="translate(16.968 159.902) rotate(180)" fill="#edf9ff"/>
              <rect id="Rectangle_1370" data-name="Rectangle 1370" width="16.968" height="5.187" transform="translate(16.968 179.241) rotate(180)" fill="#edf9ff"/>
              <rect id="Rectangle_1371" data-name="Rectangle 1371" width="16.968" height="5.188" transform="translate(16.968 198.581) rotate(180)" fill="#edf9ff"/>
            </g>
            <g id="Group_1384" data-name="Group 1384" transform="translate(0 0)">
              <rect id="Rectangle_1372" data-name="Rectangle 1372" width="16.968" height="5.187" transform="translate(16.968 5.187) rotate(180)" fill="#edf9ff"/>
              <rect id="Rectangle_1373" data-name="Rectangle 1373" width="16.968" height="5.188" transform="translate(16.968 24.527) rotate(180)" fill="#edf9ff"/>
              <rect id="Rectangle_1374" data-name="Rectangle 1374" width="16.968" height="5.187" transform="translate(16.968 43.866) rotate(180)" fill="#edf9ff"/>
              <rect id="Rectangle_1375" data-name="Rectangle 1375" width="16.968" height="5.187" transform="translate(16.968 63.205) rotate(180)" fill="#edf9ff"/>
              <rect id="Rectangle_1376" data-name="Rectangle 1376" width="16.968" height="5.188" transform="translate(16.968 82.545) rotate(180)" fill="#edf9ff"/>
              <rect id="Rectangle_1377" data-name="Rectangle 1377" width="16.968" height="5.187" transform="translate(16.968 101.884) rotate(180)" fill="#edf9ff"/>
              <rect id="Rectangle_1378" data-name="Rectangle 1378" width="16.968" height="5.187" transform="translate(16.968 121.223) rotate(180)" fill="#edf9ff"/>
              <rect id="Rectangle_1379" data-name="Rectangle 1379" width="16.968" height="5.188" transform="translate(16.968 140.563) rotate(180)" fill="#edf9ff"/>
              <rect id="Rectangle_1380" data-name="Rectangle 1380" width="16.968" height="5.188" transform="translate(16.968 159.902) rotate(180)" fill="#edf9ff"/>
              <rect id="Rectangle_1381" data-name="Rectangle 1381" width="16.968" height="5.187" transform="translate(16.968 179.241) rotate(180)" fill="#edf9ff"/>
              <rect id="Rectangle_1382" data-name="Rectangle 1382" width="16.968" height="5.188" transform="translate(16.968 198.581) rotate(180)" fill="#edf9ff"/>
            </g>
          </g>
          <g id="Group_1386" data-name="Group 1386" transform="translate(755.454 175.488)">
            <rect id="Rectangle_1383" data-name="Rectangle 1383" width="91.047" height="6.5" transform="translate(91.047 6.5) rotate(180)" fill="#edf9ff"/>
            <rect id="Rectangle_1384" data-name="Rectangle 1384" width="91.047" height="6.5" transform="translate(91.047 30.197) rotate(180)" fill="#edf9ff"/>
            <rect id="Rectangle_1385" data-name="Rectangle 1385" width="91.047" height="6.5" transform="translate(91.047 53.893) rotate(180)" fill="#edf9ff"/>
            <rect id="Rectangle_1386" data-name="Rectangle 1386" width="91.047" height="6.5" transform="translate(91.047 77.59) rotate(180)" fill="#edf9ff"/>
            <rect id="Rectangle_1387" data-name="Rectangle 1387" width="91.047" height="6.5" transform="translate(91.047 101.286) rotate(180)" fill="#edf9ff"/>
            <rect id="Rectangle_1388" data-name="Rectangle 1388" width="91.047" height="6.5" transform="translate(91.047 124.983) rotate(180)" fill="#edf9ff"/>
            <rect id="Rectangle_1389" data-name="Rectangle 1389" width="91.047" height="6.5" transform="translate(91.047 148.68) rotate(180)" fill="#edf9ff"/>
            <rect id="Rectangle_1390" data-name="Rectangle 1390" width="91.047" height="6.5" transform="translate(91.047 172.376) rotate(180)" fill="#edf9ff"/>
            <rect id="Rectangle_1391" data-name="Rectangle 1391" width="91.047" height="6.5" transform="translate(91.047 196.073) rotate(180)" fill="#edf9ff"/>
            <rect id="Rectangle_1392" data-name="Rectangle 1392" width="91.047" height="6.5" transform="translate(91.047 219.77) rotate(180)" fill="#edf9ff"/>
            <rect id="Rectangle_1393" data-name="Rectangle 1393" width="91.047" height="6.5" transform="translate(91.047 243.467) rotate(180)" fill="#edf9ff"/>
          </g>
        </g>
      </g>
      <path id="Path_3396" data-name="Path 3396" d="M504.326,49.005c1.567-17.238,71.517-14.556,117.332-13.252,71.579,2.038,143.37-13.581,214.492-5.227,35.188,4.134,69.533,14.082,104.787,17.624,63.38,6.411,143.112-7.819,160.512,8.567v57.015c-11.627,10.066-65.632.041-304.827-35.435-117.409-17.411-70.6-9.822-154.378-10.485C507.529,66.75,503.636,56.616,504.326,49.005Z" transform="translate(881.129 14.796)" fill="rgba(113,200,255,0.06)"/>
      <path id="Path_3407" data-name="Path 3407" d="M264.752,47.669c1.389-15.265,63.333-12.89,103.905-11.734,63.388,1.8,126.965-12.027,189.947-4.63,31.164,3.66,61.577,12.468,92.8,15.608,21.235,2.175,44.457,3.457,65.615.268,18.729-2.825,56.078-3.7,72.76,7.97,2.663,1.863,3.753,6.37,1.088,8.227-1.406.978-3.271.855-4.981.718-22.931-1.808-47.407,1.457-68.612,10.644-21.052,9.118-33.641,11.126-57.555,11.183-46.585.112-89.661-5.425-136.115-12.312-103.973-15.422-62.522-8.7-136.71-9.287C267.588,63.381,264.141,54.409,264.752,47.669Z" transform="translate(464.359 16.644)" fill="rgba(113,200,255,0.06)"/>
      <path id="Path_3408" data-name="Path 3408" d="M321.169,64.621C390.987,48.7,437.468,59.235,535.883,89.7c131.65,40.75,186.331,14.3,188.07,28.21,1.567,12.539-48.585,43.884-195.906,21.942-82.864-12.342-47.991-30.435-165.411-13.022-91.305,13.542-207.7,52.144-297.142,17.986-25.687-9.811-46.177-42.377-11.9-51.2,20.58-5.3,54.161-.967,77-3.682C194.095,82.385,258.666,78.876,321.169,64.621Z" transform="translate(65.655 65.589)" fill="rgba(113,200,255,0.06)"/>
      <rect id="Rectangle_1396" data-name="Rectangle 1396" width="1917.772" height="1095.87" transform="translate(9.859)" fill="none"/>
    </g>
  </g>
</svg>
