<svg xmlns="http://www.w3.org/2000/svg" xmlns:xlink="http://www.w3.org/1999/xlink" width="1589.728" height="795.216" viewBox="0 0 1589.728 795.216">
  <defs>
    <filter id="Rectangle_2" x="443" y="0" width="939" height="532" filterUnits="userSpaceOnUse">
      <feOffset dx="3" dy="3" input="SourceAlpha"/>
      <feGaussianBlur stdDeviation="4" result="blur"/>
      <feFlood flood-opacity="0.102"/>
      <feComposite operator="in" in2="blur"/>
      <feComposite in="SourceGraphic"/>
    </filter>
    <clipPath id="clip-path">
      <path id="Path_3096" data-name="Path 3096" d="M404.452,90.29s-12.864-1.423-16.954,4.03c0,0,.416,6.83,3.795,8.217s12.2,1.178,12.551.587a6.977,6.977,0,0,0,1.934-2.134,12.373,12.373,0,0,0,1.035-6.4C406.586,92.964,405.823,91.935,404.452,90.29Z" transform="translate(-387.498 -90.123)" fill="none"/>
    </clipPath>
    <radialGradient id="radial-gradient" cx="0.501" cy="1.159" r="0.847" gradientTransform="translate(0)" gradientUnits="objectBoundingBox">
      <stop offset="0" stop-color="#71879a"/>
      <stop offset="0.871" stop-color="#2a3a5e"/>
    </radialGradient>
    <clipPath id="clip-path-2">
      <path id="Path_3101" data-name="Path 3101" d="M409.821,90.083s10.315-2.607,14.262,1.457c0,0,.432,5.7-2.163,7.227s-9.8,2.332-10.155,1.88a5.807,5.807,0,0,1-1.817-1.553,10.515,10.515,0,0,1-1.563-5.191A6.885,6.885,0,0,1,409.821,90.083Z" transform="translate(-408.385 -89.259)" fill="none"/>
    </clipPath>
    <radialGradient id="radial-gradient-2" cx="0.634" cy="1.174" r="0.833" gradientTransform="matrix(-1.007, 0.135, 0.14, 1.008, 159.319, -10.657)" xlink:href="#radial-gradient"/>
  </defs>
  <g id="Group_1408" data-name="Group 1408" transform="translate(-165 -188)">
    <g id="Group_1407" data-name="Group 1407">
      <g id="Group_1406" data-name="Group 1406">
        <g id="plants" transform="translate(165 336)">
          <g id="Group_1165" data-name="Group 1165">
            <path id="Path_3133" data-name="Path 3133" d="M271.5,830.823H204.026L171.959,730.287h131.6Z" transform="translate(-9.443 -253.054)" fill="#f7fcff"/>
            <path id="Path_3134" data-name="Path 3134" d="M234.2,449.815c-17.468,30.182-35.048,60.61-46.255,93.633s-15.743,69.217-6.606,102.87c8.48,31.23,27.954,58.1,42.786,86.864s25.167,62.882,13.865,93.2Z" transform="translate(-8.657 -302.03)" fill="#f7fcff"/>
            <g id="Group_1162" data-name="Group 1162" transform="translate(0 144.085)">
              <path id="Path_3135" data-name="Path 3135" d="M81.295,598.25c-12.856-7.7-22.833-22.225-20.548-37.033,1.211-7.852,5.695-15.2,5.245-23.133-.734-12.947-13.57-21.14-22.083-30.923-11.8-13.559-14.941-36.569-1.578-48.583,9.231-8.3,23.061-8.865,35.32-6.919s24.386,5.948,36.771,5.132c16.942-1.116,32.75-11.178,49.689-10.035,15.891,1.071,29.936,12.368,37.176,26.555s8.421,30.821,6.473,46.63c-.982,7.967-2.723,15.935-2.134,23.942.85,11.548,6.436,22.116,10.467,32.97,13.745,37.012-15.944,56.721-50.4,47.934-11.021-2.811-20.807-9.373-31.87-12.393C116.067,607.543,97.6,608.01,81.295,598.25Z" transform="translate(-33.603 -446.665)" fill="#f7fcff"/>
              <path id="Path_3136" data-name="Path 3136" d="M202.682,603.823A281.415,281.415,0,0,0,57.273,480.238Z" transform="translate(-29.47 -440.803)" fill="#f7fcff"/>
              <path id="Path_3137" data-name="Path 3137" d="M141.653,545.583a110.393,110.393,0,0,1,9.657-79.193Z" transform="translate(-15.329 -443.221)" fill="#f7fcff"/>
              <path id="Path_3138" data-name="Path 3138" d="M152.085,533.687a101.534,101.534,0,0,0-84.9,32.553Z" transform="translate(-27.74 -431.563)" fill="#f7fcff"/>
              <path id="Path_3139" data-name="Path 3139" d="M119.728,581.3c13.83-15.52,36.993-21.981,56.86-15.861Z" transform="translate(-18.564 -426.324)" fill="#f7fcff"/>
              <path id="Path_3140" data-name="Path 3140" d="M178.222,522.771a85.548,85.548,0,0,0-13.069,45.289Z" transform="translate(-10.632 -433.375)" fill="#f7fcff"/>
              <path id="Path_3141" data-name="Path 3141" d="M67.8,517.307a46.057,46.057,0,0,1,41.969-12.5Z" transform="translate(-27.631 -436.687)" fill="#f7fcff"/>
              <path id="Path_3142" data-name="Path 3142" d="M104.489,510.076a47.156,47.156,0,0,1,3.283-40.876Z" transform="translate(-21.782 -442.73)" fill="#f7fcff"/>
            </g>
            <g id="Group_1163" data-name="Group 1163" transform="translate(147.197)">
              <path id="Path_3143" data-name="Path 3143" d="M159.156,415.592c-1.343-11.727,2.968-24.925,13.326-30.587,5.491-3,12.235-3.716,16.981-7.8,7.747-6.659,6.725-18.613,8.769-28.622,2.832-13.871,15.72-26.858,29.635-24.251,9.612,1.8,16.588,10.18,21.242,18.781s7.957,18.1,14.4,25.459c8.811,10.062,22.675,15.133,30.073,26.276,6.94,10.453,6.6,24.648,1.191,35.97S279.525,450.85,268.7,457.2c-5.454,3.2-11.272,5.927-16,10.13-6.816,6.062-10.752,14.617-15.612,22.337-16.569,26.321-43.116,17.188-54.118-8.571-3.519-8.241-4.1-17.5-7.508-25.871C169.995,441.793,160.86,430.466,159.156,415.592Z" transform="translate(-158.918 -324)" fill="#f7fcff"/>
              <path id="Path_3144" data-name="Path 3144" d="M204.2,495.8a221.69,221.69,0,0,0,7.673-150.138Z" transform="translate(-151.01 -320.217)" fill="#f7fcff"/>
              <path id="Path_3145" data-name="Path 3145" d="M217.391,428.524a86.965,86.965,0,0,1,54.162-31.882Z" transform="translate(-148.707 -311.315)" fill="#f7fcff"/>
              <path id="Path_3146" data-name="Path 3146" d="M225.782,428.211a79.985,79.985,0,0,0-61.02-37.52Z" transform="translate(-157.898 -312.354)" fill="#f7fcff"/>
              <path id="Path_3147" data-name="Path 3147" d="M179.116,431.835a44.048,44.048,0,0,1,37.15,27.972Z" transform="translate(-155.391 -305.17)" fill="#f7fcff"/>
              <path id="Path_3148" data-name="Path 3148" d="M246.262,440.474a67.384,67.384,0,0,0-34.588,13.512Z" transform="translate(-149.706 -303.661)" fill="#f7fcff"/>
              <path id="Path_3149" data-name="Path 3149" d="M193.846,369.041a36.281,36.281,0,0,1,27.916,20.267Z" transform="translate(-152.819 -316.135)" fill="#f7fcff"/>
              <path id="Path_3150" data-name="Path 3150" d="M218.257,388.886A37.153,37.153,0,0,1,245.4,371.365Z" transform="translate(-148.556 -315.729)" fill="#f7fcff"/>
            </g>
            <g id="Group_1164" data-name="Group 1164" transform="translate(165.067 89.086)">
              <path id="Path_3151" data-name="Path 3151" d="M183.817,501.051c6.356-19.546,22.729-37.332,43.23-38.808,10.87-.784,22.066,2.961,32.535-.067,17.087-4.944,24.115-24.617,34.591-38.992,14.518-19.92,44.324-31.171,64.478-16.978,13.92,9.8,18.909,28.122,20.058,45.109s-.49,34.427,4.392,50.738c6.677,22.31,24.968,40.369,28.624,63.368,3.43,21.577-7.377,43.813-24.131,57.835s-38.634,20.692-60.367,22.926c-10.955,1.125-22.14,1.237-32.667,4.475-15.18,4.669-27.6,15.373-40.882,24.086-45.283,29.707-80.722-3.96-79.516-52.717.386-15.6,6.166-30.689,6.82-46.406C182.03,550.389,175.757,525.84,183.817,501.051Z" transform="translate(-174.132 -399.842)" fill="#f7fcff"/>
              <path id="Path_3152" data-name="Path 3152" d="M202.06,666.395c65.648-60.177,109.2-143.947,120.749-232.251Z" transform="translate(-169.255 -393.852)" fill="#f7fcff"/>
              <path id="Path_3153" data-name="Path 3153" d="M258.894,565.167a151.424,151.424,0,0,1,108.845-11.324Z" transform="translate(-159.33 -373.882)" fill="#f7fcff"/>
              <path id="Path_3154" data-name="Path 3154" d="M268.983,575.77c-5.1-42.864-31.771-82.608-69.51-103.56Z" transform="translate(-169.706 -387.205)" fill="#f7fcff"/>
              <path id="Path_3155" data-name="Path 3155" d="M192.448,547.759c24.984,13.742,40.711,42.736,38.607,71.173Z" transform="translate(-170.933 -374.013)" fill="#f7fcff"/>
              <path id="Path_3156" data-name="Path 3156" d="M294,607.256a117.327,117.327,0,0,0-64.556-3.614Z" transform="translate(-164.472 -364.763)" fill="#f7fcff"/>
              <path id="Path_3157" data-name="Path 3157" d="M261.2,458.954a63.173,63.173,0,0,1,29.556,52.292Z" transform="translate(-158.928 -389.52)" fill="#f7fcff"/>
              <path id="Path_3158" data-name="Path 3158" d="M287.391,505.567a64.689,64.689,0,0,1,55.659-8.12Z" transform="translate(-154.354 -383.321)" fill="#f7fcff"/>
            </g>
          </g>
          <g id="Group_1169" data-name="Group 1169" transform="translate(1274.173 207.804)">
            <g id="Group_1166" data-name="Group 1166" transform="translate(24.663)">
              <path id="Path_3159" data-name="Path 3159" d="M1139.355,559.534c.286-19.922,26.939-31.2,44.866-22.508,7.135,3.459,13.15,9.035,20.521,11.959s17.332,2.121,21.254-4.77c3.134-5.505,1.179-12.366,1.456-18.7.535-12.227,10.946-23.254,23.121-24.491s24.591,7.474,27.573,19.343c3.027,12.05-1.306,28.307,9.459,34.51,9.37,5.4,20.38-2.975,30.944-5.281,15.275-3.336,32.024,9.094,33.256,24.68,1.252,15.816-11.518,29.81-26.028,36.228-32.855,14.53-74.666,18.572-106.3,4.933C1198.3,606.31,1138.937,588.846,1139.355,559.534Z" transform="translate(-1139.353 -500.912)" fill="#f7fcff"/>
              <path id="Path_3160" data-name="Path 3160" d="M1169.291,569.083c.2-13.917,18.819-21.8,31.342-15.723,4.984,2.416,9.187,6.311,14.335,8.354s12.107,1.481,14.847-3.333c2.188-3.847.823-8.639,1.017-13.061a17.986,17.986,0,0,1,35.413-3.6c2.114,8.419-.911,19.775,6.608,24.108,6.545,3.772,14.236-2.078,21.616-3.689,10.67-2.329,22.371,6.354,23.232,17.241.875,11.05-8.046,20.825-18.182,25.307-22.952,10.151-52.159,12.975-74.255,3.448C1210.47,601.759,1169,589.559,1169.291,569.083Z" transform="translate(-1134.126 -496.159)" fill="#f7fcff"/>
              <path id="Path_3161" data-name="Path 3161" d="M1242.289,589.264a202.751,202.751,0,0,1-27.984,149.97Z" transform="translate(-1126.265 -485.483)" fill="#f7fcff"/>
            </g>
            <g id="Group_1167" data-name="Group 1167" transform="translate(0 118.372)">
              <path id="Path_3162" data-name="Path 3162" d="M1120.327,678.99c-6.82-12.021,5.171-28.124,18.948-29.213,5.484-.435,11.04.792,16.476-.046s11.115-4.814,11.044-10.313c-.056-4.394-3.634-7.814-5.69-11.7a17.861,17.861,0,0,1,28.528-20.871c6.04,6.148,9.153,17.4,17.772,17.33,7.5-.058,11.151-8.932,16.662-14.02,7.97-7.355,22.354-5.8,28.562,3.1,6.3,9.025,3.569,21.88-2.861,30.811-14.562,20.226-38.161,37.317-61.874,40.255C1172.015,686.294,1130.364,696.678,1120.327,678.99Z" transform="translate(-1118.356 -601.686)" fill="#f7fcff"/>
              <path id="Path_3163" data-name="Path 3163" d="M1192.631,655.84a140.649,140.649,0,0,1,35.885,99.56Z" transform="translate(-1105.386 -592.229)" fill="#f7fcff"/>
            </g>
            <g id="Group_1168" data-name="Group 1168" transform="translate(137.778 103.157)">
              <path id="Path_3164" data-name="Path 3164" d="M1371.521,666.037c6.821-12.021-5.171-28.124-18.948-29.213-5.484-.435-11.04.792-16.476-.046s-11.115-4.814-11.044-10.313c.058-4.394,3.634-7.814,5.69-11.7a17.861,17.861,0,0,0-28.528-20.871c-6.04,6.148-9.153,17.4-17.772,17.33-7.5-.058-11.149-8.932-16.662-14.02-7.97-7.355-22.354-5.8-28.562,3.1-6.3,9.025-3.568,21.88,2.861,30.811,14.562,20.226,38.161,37.317,61.874,40.255C1319.832,673.341,1361.483,683.725,1371.521,666.037Z" transform="translate(-1235.652 -588.733)" fill="#f7fcff"/>
              <path id="Path_3165" data-name="Path 3165" d="M1343.245,659.353c4.766-8.4-3.611-19.647-13.236-20.408-3.83-.3-7.712.553-11.51-.032s-7.764-3.362-7.715-7.2c.04-3.07,2.539-5.458,3.975-8.172a12.477,12.477,0,0,0-19.929-14.581c-4.219,4.3-6.394,12.154-12.415,12.107-5.24-.04-7.789-6.24-11.639-9.794-5.568-5.138-15.616-4.049-19.953,2.165-4.4,6.3-2.492,15.284,2,21.524,10.172,14.13,26.658,26.068,43.223,28.122C1307.138,664.456,1336.235,671.709,1343.245,659.353Z" transform="translate(-1233.437 -585.831)" fill="#f7fcff"/>
              <path id="Path_3166" data-name="Path 3166" d="M1284.079,642.887a140.649,140.649,0,0,0-35.885,99.56Z" transform="translate(-1233.485 -579.276)" fill="#f7fcff"/>
            </g>
            <path id="Path_3167" data-name="Path 3167" d="M1259.889,832.015h-45.457c-5.481-8.549-12.855-22.591-18.534-44-8.922-33.641-10.777-73.32-10.088-110.809h101.948c1.516,38.884.211,81.52-10.445,116.852C1271.908,811.975,1265.161,824.186,1259.889,832.015Z" transform="translate(-1106.6 -470.128)" fill="#f7fcff"/>
          </g>
        </g>
        <g id="Background" transform="translate(260.61 883.373)">
          <ellipse id="Ellipse_115" data-name="Ellipse 115" cx="747.059" cy="49.921" rx="747.059" ry="49.921" fill="#f7fcff"/>
        </g>
        <g id="Group_1405" data-name="Group 1405">
          <g transform="matrix(1, 0, 0, 1, 165, 188)" filter="url(#Rectangle_2)">
            <rect id="Rectangle_2-2" data-name="Rectangle 2" width="915" height="508" rx="10" transform="translate(452 9)" fill="#fff"/>
          </g>
          <path id="Rectangle_124" data-name="Rectangle 124" d="M10,0H905a10,10,0,0,1,10,10V92a0,0,0,0,1,0,0H0a0,0,0,0,1,0,0V10A10,10,0,0,1,10,0Z" transform="translate(617 197)" fill="#10a3ff"/>
          <text id="We_hope_you_enjoyed_the_lesson._Click_Done_below_to_go_back_to_the_main_menue" data-name="We hope you enjoyed the lesson. 
Click “Done” below to go back to the main menue" transform="translate(1075 466)" fill="#5f5f5f" font-size="26" font-family="work sans, Open Sans, sans-serif" font-weight="500"><tspan x="-214.734" y="0">We hope you enjoyed the lesson. </tspan><tspan x="-319.839" y="32">Click “Done” below to go back to the main menue</tspan></text>
          <text id="Hi_Great_Job_" data-name="Hi Great Job!" transform="translate(962 400)" fill="#5f5f5f" font-size="35" font-family="work sans, Open Sans, sans-serif" font-weight="700"><tspan x="0" y="0">Hi Great Job!</tspan></text>
        </g>
      </g>
    </g>
    <g id="Group_1161" data-name="Group 1161" transform="translate(44.85 246.282)">
      <g id="Group_1153" data-name="Group 1153" transform="translate(587.418 249.24)">
        <path id="Path_3070" data-name="Path 3070" d="M471.2,180.583s9.084-2.062,14.045-5.282c2.168-1.407,3.928-4.165,11.241-7.409.685-.3,3.929-.9,6.216-2.8.428-.356,4.381-3.35,6.128-1.3a1.69,1.69,0,0,1,.234,1.668c-.615,1.972-2.839,3.05-6.812,5.121-9.084,4.735-6.056,5.009-5.734,5.106.873.261,12.69-.516,15.074-1.1s9.557-4.975,12.843-6.375c2.8-1.2,5.389,2.445-6.916,8.179,0,0,11.529-6.977,13.235-5.623,1.076.855,1.454,3.818-11.688,9.358,0,0,10.7-5.273,12.209-3.769,1.139,1.137-1.839,4.64-12.274,7.6,0,0,3.4-1.071,6.312-2.012.815-.263,1.866-.268,2.064.144.473.986-.131,2.312-3.041,3.816a37.936,37.936,0,0,1-8.555,2.69c-4.079.66-8.053,1.256-11.468,1.513s-8.89.774-11.531.9-10.308-1.8-12.11-1.612-5.734,2.449-5.734,2.449Z" transform="translate(-471.202 -163.079)" fill="#c4805f"/>
        <path id="Path_3071" data-name="Path 3071" d="M490.32,181.633c-4.651-3.244-3.926-6.815-5.579-11.594-5.043,3.046-13.539,4.982-13.539,4.982l3.737,11.274s3.93-2.254,5.734-2.449,9.469,1.74,12.11,1.612c1.758-.086,4.764-.344,7.589-.581C498.212,184,492.254,182.982,490.32,181.633Z" transform="translate(-471.202 -157.517)" fill="#93563e"/>
        <path id="Path_3072" data-name="Path 3072" d="M505.866,168.391s-5.473,2.463-6.576,3.078c-.707.394-5.549,2.427-5.549,2.427s5.005-1.139,6.061-1.581A46.938,46.938,0,0,0,505.866,168.391Z" transform="translate(-453.189 -158.834)" fill="#93563e"/>
        <path id="Path_3073" data-name="Path 3073" d="M506.253,171.023s-6,1.819-6.832,2.087-4.818,1.5-4.818,1.5a31.744,31.744,0,0,0,5.148-.569C500.886,173.637,506.253,171.023,506.253,171.023Z" transform="translate(-452.5 -156.731)" fill="#93563e"/>
        <path id="Path_3074" data-name="Path 3074" d="M505.777,173.634s-6.009,1.56-6.411,1.661-4.631,1.051-4.631,1.051,3.2-.124,4.412-.25C500.007,176.007,505.777,173.634,505.777,173.634Z" transform="translate(-452.395 -154.644)" fill="#93563e"/>
        <path id="Path_3075" data-name="Path 3075" d="M488.722,173.921A12.115,12.115,0,0,1,494.53,175c2.913,1.261,3.253,2.116,4.6,2.809-.99-.511-1.238-.374-8.24-2.6-2.9-.919-6.9,1.018-9.077,4.214a1.885,1.885,0,0,1,.1-.2S482.9,174.425,488.722,173.921Z" transform="translate(-462.726 -154.443)" fill="#93563e"/>
      </g>
      <path id="Path_3076" data-name="Path 3076" d="M429.884,302.1s-16.6,98.278-12.307,146.649c0,0,13.739,27.621,16.743,32.774,0,0-8.014-1.86-10.446-5.3s-16.315-23.184-16.315-23.184,3.077-5.653,3.077-6.941c0-1.207-4.655-72.427-11.162-95.935a35.419,35.419,0,0,1,.291-19.732c.509-1.677,1.142-3.489,1.925-5.437a96.271,96.271,0,0,0,6.3-27.477Z" transform="translate(57.884 193.608)" fill="#c4805f"/>
      <path id="Path_3077" data-name="Path 3077" d="M433.726,302.055s-50.09,139.78-54.383,158.1c0,0-5.725,24.9-14.169,20.894s10.018-25.9,10.018-25.9,16.968-109.8,20.466-116.883c4.25-8.613,13.595-28.908,13.309-34.777S433.726,302.055,433.726,302.055Z" transform="translate(29.713 195.945)" fill="#c4805f"/>
      <path id="Path_3078" data-name="Path 3078" d="M407.943,303.486c.286,5.869-8.769,26.418-13.309,34.777-3.773,6.945-20.466,116.883-20.466,116.883a90.409,90.409,0,0,0-9.923,14.62c2.208-1.653,9.951-10.966,10.962-13.366,1.909-15.513,6.078-29.746,10.542-44.665,5.1-17.055,9.176-52.126,15.79-68.672,3.077-7.7,12.353-6.716,17.531-2.719,8-22.22,13.631-38.289,13.631-38.289S407.657,297.618,407.943,303.486Z" transform="translate(30.737 195.945)" fill="#c4805f"/>
      <g id="Group_1154" data-name="Group 1154" transform="translate(456.097 491.131)">
        <path id="Path_3079" data-name="Path 3079" d="M399.766,330.438c.509-1.677,1.142-3.489,1.925-5.437.527-1.308,1-2.609,1.439-3.9h0a97.323,97.323,0,0,0,4.858-23.575l21.9,4.579s-2.416,17.569-4.984,33.346a21.2,21.2,0,0,0-7.785,1.869c-5.531,2.7-9.874,9.327-9.3,21.137,1.067,22.163,2.136,93.044,10.209,109.467-4.741-6.738-10.461-14.876-10.461-14.876s3.077-5.653,3.077-6.941c0-1.207-4.655-72.427-11.162-95.935A35.419,35.419,0,0,1,399.766,330.438Z" transform="translate(-398.213 -297.523)" fill="#c4805f"/>
      </g>
      <path id="Path_3080" data-name="Path 3080" d="M421.833,396.17s14.744,21.824,17.535,24.079c0,0,2.791,2.146-5.687,1.394a97.48,97.48,0,0,0-14.086-5.808,2.008,2.008,0,0,1-1.292-1.258c-1.015-2.99-4.379-12.371-8.487-18.086v11.592H407.1s.216-10.448-2-12.738-4.795-7.406-3.4-9.176a74.446,74.446,0,0,1,6.475-6.065s-1.43,6.117,1.734,11c2.83,4.363,9.343,12.753,14.833,15.64a.922.922,0,0,0,1.317-1.108A88.877,88.877,0,0,0,421.833,396.17Z" transform="translate(60.35 259.608)" fill="#251818"/>
      <path id="Path_3081" data-name="Path 3081" d="M382.371,389.955s-2.281,14.971-3.427,16.974c-1.008,1.763-8.935,14.69-14.777,17.353-1.125.513-4.575,1.162-4.507-.072.376-6.749,2.576-14.883,5.946-22.432,0,0,7.148-11.558,12.229-15.349,0,0-12.736,19.32-8.8,20.966C375.5,410.1,382.371,389.955,382.371,389.955Z" transform="translate(27.071 264.662)" fill="#251818"/>
      <path id="Path_3082" data-name="Path 3082" d="M418.446,121.521a45.728,45.728,0,0,1-10.862-3.086c-1.992-.806-3.947-1.706-5.946-2.492.73.335-2.922-.7-3.388-.79a10.721,10.721,0,0,1-2.267-.709c-.407,10.32-2.713,36.616-15.6,41.637,0,0,9.2,11.3,32.639,8.161s17.017-14.716,17.017-14.716S414.093,146.521,418.446,121.521Z" transform="translate(43.631 47.292)" fill="#c4805f"/>
      <path id="Path_3083" data-name="Path 3083" d="M386.287,151.825c2.881-2.215,11.67-11.984,15.29-12.891a25.757,25.757,0,0,1,14.185.462c-1.582-4.118-2.276-9.863-.882-17.875a45.728,45.728,0,0,1-10.862-3.086c-1.992-.806-3.947-1.706-5.946-2.492.73.335-2.922-.7-3.388-.79a10.721,10.721,0,0,1-2.267-.709c-.3,7.648-1.652,24.066-7.575,34.1C385.142,148.459,384.25,153.39,386.287,151.825Z" transform="translate(47.197 47.292)" fill="#93563e"/>
      <path id="Path_3084" data-name="Path 3084" d="M379.22,85.435s-4.734,44.248,7.821,63.388,45.093,20.608,47.076,19.347c2.265-1.441,12.35-15.124,18.307-29.44,3.237-7.78,2.024-16.576-1.6-24.185-1.439-3.023-2.245-6.389-3.543-9.455-3.2-7.555,1.3-26.927-19.286-34.473S381.485,70.343,379.22,85.435Z" transform="translate(42.005 9.86)" fill="#c4805f"/>
      <path id="Path_3085" data-name="Path 3085" d="M427.91,70.617c-20.581-7.546-46.511-.273-48.776,14.818,0,0-1.009,15.988-.57,29.707,2.429-2.672,9.021-12.136,13.552-22.006,1.592-3.465,3.805-11.925,3.805-11.925s8.249,7.663,11.779,8.888c13.391,4.647,24.073-1.171,27.951,0,2.337.705,8.409,7.513,11.4,8.694C448.521,82.839,438.795,74.609,427.91,70.617Z" transform="translate(42.091 9.86)" fill="#c4805f"/>
      <path id="Path_3086" data-name="Path 3086" d="M395.788,95.613S374.178,77.3,360.6,97.671s11.824,47.612,42.031,32.965C402.627,130.636,394.628,110.886,395.788,95.613Z" transform="translate(24.819 26.197)" fill="#4f3d37"/>
      <path id="Path_3087" data-name="Path 3087" d="M385.077,94.88c-4.1-.076-8.62.155-11.729,2.029-3.924,2.37-3.537,9.3-2.557,13.352,1.819,7.512,6.889,12.744,11.7,18.226a42.191,42.191,0,0,0,9.509-3.3S385.534,109.209,385.077,94.88Z" transform="translate(35.444 31.647)" fill="#37231c"/>
      <path id="Path_3088" data-name="Path 3088" d="M387.5,96.842s-3.4-9.262-15.023-4.426,1.029,28.71,18.008,20.273C390.488,112.689,389.562,103.222,387.5,96.842Z" transform="translate(33.721 28.569)" fill="#c4805f"/>
      <path id="Path_3089" data-name="Path 3089" d="M371.235,95.006s4.368-2.71,6.848-.905,7.722,11.718,3.836,13.084c-3.476,1.22-6.83-.151-5.894-4.662s.47-5.529-.462-4.77C373.606,99.35,369.7,97.5,371.235,95.006Z" transform="translate(36.042 30.538)" fill="#93563e"/>
      <path id="Path_3090" data-name="Path 3090" d="M392.658,65.016S353.04,50.61,369.094,110.568c0,0,7.612-3.118,19.928,5.234C389.022,115.8,421.163,78.463,392.658,65.016Z" transform="translate(31.551 6.576)" fill="#4f3d37"/>
      <path id="Path_3091" data-name="Path 3091" d="M406.818,73.823s18.111-6.724,20.991,2.882-4.034,18.78-4.034,18.78S421.087,73.823,406.818,73.823Z" transform="translate(64.761 12.999)" fill="#2c160f"/>
      <path id="Path_3092" data-name="Path 3092" d="M446.968,112.367c.193-2.407,16.974-17.724,10.414-31.1-4.131-8.427-12.36-17.661-33.4-23.526-36.909-10.291-46.193,14.955-46.193,14.955,4.917,1.405,5.579,1.268,22.765,18.659s29.876-1.373,35.02-4.117,16.535-4.87,12.9,8.231C445.989,104.411,445.457,108.647,446.968,112.367Z" transform="translate(41.561 0)" fill="#4f3d37"/>
      <path id="Path_3093" data-name="Path 3093" d="M382.949,93.174s5.856-8.42,9.919-9.944,18.827-2.411,19.059-.507-1.817,6.914-2.578,6.914-11.993-2.792-14.66-2.094S384.523,93.716,382.949,93.174Z" transform="translate(45.685 21.075)" fill="#3d2e29"/>
      <path id="Path_3094" data-name="Path 3094" d="M423.6,85.882s-1.193-3.969-4.669-4.615-12.688.7-12.411,1.778,1.031,5.6,3.7,4.912,7.229-3.868,9.072-3.224S423.86,86.7,423.6,85.882Z" transform="translate(64.521 20.643)" fill="#3d2e29"/>
      <g id="Group_1157" data-name="Group 1157" transform="translate(433.483 115.703)">
        <g id="Group_1156" data-name="Group 1156" transform="translate(3.335 2.274)">
          <g id="Group_1155" data-name="Group 1155" clip-path="url(#clip-path)">
            <path id="Path_3095" data-name="Path 3095" d="M404.452,90.29s-12.864-1.423-16.954,4.03c0,0,.416,6.83,3.795,8.217s12.2,1.178,12.551.587a6.977,6.977,0,0,0,1.934-2.134,12.373,12.373,0,0,0,1.035-6.4C406.586,92.964,405.823,91.935,404.452,90.29Z" transform="translate(-387.498 -90.123)" fill="#fffff6"/>
            <circle id="Ellipse_113" data-name="Ellipse 113" cx="6.773" cy="6.773" r="6.773" transform="translate(2.727 0.251)" fill="url(#radial-gradient)"/>
          </g>
        </g>
        <path id="Path_3097" data-name="Path 3097" d="M385.757,93.125s-1.114,5.032,3.658,5.032c0,0,3.3-4.782,11.065-4.485s7.862,2.37,7.862,2.37a6.609,6.609,0,0,0-4.543-6.52c-4.96-1.9-10.434.653-13.872,2.965S385.757,93.125,385.757,93.125Z" transform="translate(-385.644 -88.859)" fill="#34241f"/>
        <path id="Path_3098" data-name="Path 3098" d="M387.994,94.915s-.191,4.95,6.342,5.176,8.552-.119,8.845-.252a7.706,7.706,0,0,0,2.031-2.262,4.892,4.892,0,0,1-2.168,1.008,82.041,82.041,0,0,1-9.111.122C392.334,98.405,389.345,97.828,387.994,94.915Z" transform="translate(-383.767 -84.019)" fill="#34241f"/>
      </g>
      <g id="Group_1160" data-name="Group 1160" transform="translate(474.326 114.468)">
        <g id="Group_1159" data-name="Group 1159" transform="translate(0.072 1.956)">
          <g id="Group_1158" data-name="Group 1158" clip-path="url(#clip-path-2)">
            <path id="Path_3099" data-name="Path 3099" d="M409.821,90.083s10.315-2.607,14.262,1.457c0,0,.432,5.7-2.163,7.227s-9.8,2.332-10.155,1.88a5.807,5.807,0,0,1-1.817-1.553,10.515,10.515,0,0,1-1.563-5.191A6.885,6.885,0,0,1,409.821,90.083Z" transform="translate(-408.385 -89.259)" fill="#fffff6"/>
            <path id="Path_3100" data-name="Path 3100" d="M409.146,95.726a5.567,5.567,0,1,0,4.752-6.362A5.615,5.615,0,0,0,409.146,95.726Z" transform="translate(-407.82 -89.217)" fill="url(#radial-gradient-2)"/>
          </g>
        </g>
        <path id="Path_3102" data-name="Path 3102" d="M427.105,89.724s.707,3.985-2.76,5.038c0,0-3.273-3.589-9.673-2.467s-6.245,2.852-6.245,2.852a5.522,5.522,0,0,1,3.026-5.914c3.9-2.132,8.717-.639,11.826.889S427.105,89.724,427.105,89.724Z" transform="translate(-408.345 -88.172)" fill="#34241f"/>
        <path id="Path_3103" data-name="Path 3103" d="M422.941,92.942s.594,3.962-4.793,4.887-6.585.369-6.844.291a6.433,6.433,0,0,1-1.936-1.644,4.1,4.1,0,0,0,1.909.59,68.38,68.38,0,0,0,7.56-.928C420.129,95.707,422.149,95.508,422.941,92.942Z" transform="translate(-407.527 -84.361)" fill="#34241f"/>
      </g>
      <path id="Path_3104" data-name="Path 3104" d="M427.974,103.057c.227,3.744-3.3,7.337-7.87,8.024s-8.463-1.792-8.69-5.538,3.3-7.337,7.87-8.024S427.748,99.312,427.974,103.057Z" transform="translate(68.426 33.674)" fill="#c4805f"/>
      <path id="Path_3105" data-name="Path 3105" d="M407.633,108.029c-.121,4.716-5.174,8.3-11.29,8.006s-10.973-4.359-10.853-9.077,5.176-8.3,11.29-8.006S407.753,103.311,407.633,108.029Z" transform="translate(47.714 34.896)" fill="#c4805f"/>
      <path id="Path_3106" data-name="Path 3106" d="M405.665,92.049c-.5,0,1.868,7.371,3.276,10.666,2.434,5.7,4.966,8.422,1.294,9.771-3.127,1.15-6.544,1.988-7.278,2.564a7.829,7.829,0,0,0,1.832.317c5.907.394,12.835-.784,9.063-7.791C411.185,102.625,407.257,97.146,405.665,92.049Z" transform="translate(61.675 29.394)" fill="#93563e"/>
      <path id="Path_3107" data-name="Path 3107" d="M398.931,109.385s5.146,11.317,14.2,10.288,7.418-8.987,7.418-8.987S402.911,110.895,398.931,109.385Z" transform="translate(58.457 43.248)" fill="#fffff6"/>
      <path id="Path_3108" data-name="Path 3108" d="M398.741,109.385s4.518,12.011,13.857,12.208c3.991.085,6.724-1.439,10.747-11.594l-4.161,1.3s-.964,6.259-6.727,5.849-8.159-3.311-10.234-6.535A4.027,4.027,0,0,1,398.741,109.385Z" transform="translate(58.306 43.248)" fill="#d00000"/>
      <path id="Path_3109" data-name="Path 3109" d="M425.767,108.3s-.765,5.865-11.576,5.865c-9.775,0-13.172-.257-16.67-4.664,0,0,6.38,2.06,9.124,1.371s4.561-4.048,7.409-1.1c0,0,2.024-2.778,5.493-.479C423.048,111.611,425.767,108.3,425.767,108.3Z" transform="translate(57.33 42.379)" fill="#d00000"/>
      <path id="Path_3110" data-name="Path 3110" d="M382.523,106.338a3.447,3.447,0,1,1-3.447-3.447A3.447,3.447,0,0,1,382.523,106.338Z" transform="translate(39.834 38.058)" fill="#fff"/>
      <path id="Path_3111" data-name="Path 3111" d="M437.2,137.112l-10.664-4.165a12.753,12.753,0,0,1-10.829,7.087c3.134-.137.329-.023-.516.131q-2.173.408-4.354.756a45.511,45.511,0,0,1-5.173.1c-2.287-.083-5.171-.059-7.411-.842a24.829,24.829,0,0,1-8.073-4.624,10.235,10.235,0,0,1-1.835-1.977c-3.291-.5-8.591,8.559-8.591,8.559,17.137,9.484,26.741,113.817,26.741,113.817l30.682,3.348C444.874,170.937,437.2,137.112,437.2,137.112Z" transform="translate(43.128 62.079)" fill="#5a91ab"/>
      <path id="Path_3112" data-name="Path 3112" d="M389.119,133.259s7.594,8.31,23.287,6.95c0,0,4.583,19.521-17.386,15.547S380.582,136.246,389.119,133.259Z" transform="translate(43.825 62.328)" fill="#fffff6"/>
      <path id="Path_3113" data-name="Path 3113" d="M411.044,132.734s-2.085,5.594-12.756,7.895c0,0,7.128,23.062,26.245,2.652l2.524-3.384S415.433,134.569,411.044,132.734Z" transform="translate(57.943 61.909)" fill="#fffff6"/>
      <path id="Path_3114" data-name="Path 3114" d="M470.657,251.061a201.038,201.038,0,0,0-8-25.007,14.058,14.058,0,0,1-7.886-11.592l-.013-.112c-.148-.6-.3-1.2-.484-1.79-.394-1.2-.828-2.38-1.312-3.544-.238-.43-1.241-2.5-1.416-2.809q-.761-1.371-1.551-2.726a14.163,14.163,0,0,1-1.162-2.537L409.7,199.453s-40.1,32.639-44.285,59.419,30.791,116.674,26.067,134.666c0,0-2.242,12.083-5.752,13.424,0,.034,0,.067,0,.1,3.136-.545,24.178-3.893,46.011.077a63.5,63.5,0,0,0,36.13-4.493s-5.407-5.079-5.257-14.811c.14-9.036,3.1-23.516,8.042-46.668C482.863,283.979,477.143,277.285,470.657,251.061Z" transform="translate(31.394 115.231)" fill="#523f3d"/>
      <path id="Path_3115" data-name="Path 3115" d="M462.656,226.054a14.058,14.058,0,0,1-7.886-11.592l-.013-.112c-.148-.6-.3-1.2-.484-1.79-.394-1.2-.828-2.38-1.312-3.544-.238-.43-1.241-2.5-1.416-2.809q-.761-1.371-1.551-2.726a14.163,14.163,0,0,1-1.162-2.537L409.7,199.453s-5.736,4.673-13.089,11.927l0-.013c-.336.333-.687.689-1.031,1.031l-.293.3q-2.154,2.154-4.419,4.559l-.1.108A164.48,164.48,0,0,0,378.5,231.93l-.112.151q-2.1,2.845-3.991,5.774l-.263.408c-4.356,6.835-7.674,13.9-8.722,20.608-4.185,26.781,30.791,116.674,26.067,134.666,0,0-2.242,12.083-5.752,13.424,0,.034,0,.067,0,.1a143.111,143.111,0,0,1,25.5-1.823c.079-11.862-.31-24.208-2.112-35.736-3.239-20.72-8.51-33.253-13.555-53.521-5.3-21.3-9.282-38.224-5.916-59.913.495-3.183.892-6.369,1.254-9.554,4.815.6,13.629,1.34,18.163.083,5.615-1.558,17.9-15.27,25.135-16.864,2.582-.57,5.669,10.534,14.194,15.511,5.115,2.987,14.088,2.987,20.874.563A206.428,206.428,0,0,0,462.656,226.054Z" transform="translate(31.394 115.231)" fill="#36302e" opacity="0.37" style="mix-blend-mode: multiply;isolation: isolate"/>
      <path id="Path_3116" data-name="Path 3116" d="M395.545,196.681c.563,5.21-3.163,12.182-3.163,12.182l35.644,1.321c.349-4.019-.29-9.707,0-13.5Z" transform="translate(53.223 113.015)" fill="#201d1d"/>
      <path id="Path_3117" data-name="Path 3117" d="M405.319,131.82s-44.248,10.977-44.248,11.727c0,0,15.855,29.816,16.614,50.511,0,0,17.7,10.6,28.935,49.676a17.8,17.8,0,0,1-5.3,18.131c-9.318,8.354-23.83,21.081-27.193,22.4,0,0,22.281,21.294,41.373,5.525,15.712-12.978,15.918-36.256,16.356-49.865.256-7.879-.651-28.379-5.1-54.327C423.534,166.719,416.69,142.935,405.319,131.82Z" transform="translate(28.2 61.178)" fill="#226e76"/>
      <path id="Path_3118" data-name="Path 3118" d="M382.633,173.476c-2.549-4.7-12.058-17.949-15.77-22.191,3.183,9.118,5.894,19.089,6.193,27.216,0,0,17.7,10.6,28.935,49.676a17.8,17.8,0,0,1-5.3,18.13c-9.318,8.354-23.83,21.081-27.193,22.4,0,0,22.281,21.294,41.373,5.525,13.589-11.223,15.576-30.144,16.15-43.861C410.157,226.6,399.085,203.766,382.633,173.476Z" transform="translate(32.829 76.735)" fill="#514a4e" opacity="0.35" style="mix-blend-mode: multiply;isolation: isolate"/>
      <path id="Path_3119" data-name="Path 3119" d="M404.435,131.971s19.383,3.28,34.4,6.1c6.007,1.126,8.678,5.743,10.579,10.146C458.03,168.153,470.782,221,474.116,221c4.1,0,59.437-19.653,59.437-19.653L539,215.833s-60.115,31.95-70,31.948c-14.489,0-22.071-28.014-28.2-42.474,0,0-13.2,16.648-15.1,23.149-2.452,8.39-5.072,18.681-5.322,25.072-.255,6.551,12.224,26.819,18.116,34.381,0,0-7.958,9.439-17.616,6.146s-8.654-62.56-9.26-92.632S414.716,151.76,404.435,131.971Z" transform="translate(62.856 61.299)" fill="#226e76"/>
      <path id="Path_3120" data-name="Path 3120" d="M420.243,189.471c-.376.489-5.259,9.608-11.407,10.6.768,23.9,2.722,46.052,8.521,48.03,9.658,3.293,17.614-6.146,17.614-6.146-5.891-7.562-18.37-27.83-18.114-34.381C417.04,202.879,418.507,196.078,420.243,189.471Z" transform="translate(66.373 107.253)" fill="#514a4e" opacity="0.35" style="mix-blend-mode: multiply;isolation: isolate"/>
      <path id="Path_3121" data-name="Path 3121" d="M460.956,223.275c-12.494-2.92-20.223-11.867-23.366-24.111-3.962-15.426-6.126-30.8-11.93-45.671,0,0,2.024,10.358,3.9,18.237,2.245,9.431-4.915,16.378-4.915,16.378,6.117,14.487,13.785,42.693,28.2,42.474,5.81-.088,14.906-5.837,26.087-9.917C472.574,221.823,467.542,224.815,460.956,223.275Z" transform="translate(79.008 78.499)" fill="#514a4e" opacity="0.35" style="mix-blend-mode: multiply;isolation: isolate"/>
      <path id="Path_3122" data-name="Path 3122" d="M380.812,217.909a19.209,19.209,0,0,0,7.571-19.746S375.265,197.135,380.812,217.909Z" transform="translate(42.883 114.193)" fill="#a69a8e"/>
      <path id="Path_3123" data-name="Path 3123" d="M380.6,197.1s.844,6.423,7.274,5.264c.05-.009.1-.023.151-.034.649-1.038,2.715,1.367,4.16.153s1.943-5.606,4.325-6.108a13.4,13.4,0,0,1-.191,3.7c2.906-1.414,5.336-3.5,6.571-2.773,2.222,1.312,12.026,11.348,18.955,14a.953.953,0,0,1,.635,1.267c-.686,1.472-2.744,3.429-8.8-.3-8.573-5.27-10.261-9.135-10.612-7.168-.324,1.817,10.655,9.439,15.156,11.56a1.513,1.513,0,0,1,.3,1.972c-1.052,1.17-3.571,2.4-8.922-1.655-7.8-5.9-9.545-8.077-10.318-7.866-.7.192,10.669,8.683,14.379,11.24a1.234,1.234,0,0,1-.056,1.767c-1.042.829-3.19,1.542-6.958-1.2-5.718-4.169-9.838-8.5-10.261-8.292s9.019,8.186,10.916,9.872c1.434,1.276-3.026,3.919-7.524-.369s-5.511-6.653-7.83-6.583-6.664,4.739-17.136-5.522C374.811,210.025,372.55,198.54,380.6,197.1Z" transform="translate(38.947 112.772)" fill="#c4805f"/>
      <path id="Path_3124" data-name="Path 3124" d="M381.824,202.351a7.113,7.113,0,0,0,2.827.014c.05-.009.1-.023.151-.034.648-1.038,3.147.212,4.592-1s1.511-4.451,3.893-4.953a12.231,12.231,0,0,1-.191,3.7c2.4-1.168,4.406-2.746,5.8-2.884-2.92,4.5,1.474,5.678,4.723,8.35,1.981,1.628,5.612,4.727,7.83,5.918,2.181,1.169,4.014,2.553,6.6,2.488-1.256.759-3.516.829-7.591-1.677-7.017-4.313-9.419-7.681-10.252-7.684-.81-.766-2.013-1.209-3.071,1.218-1.162,2.666,6.893,8.325,12.227,11.754,1.911,1.229,3.48,2.082,5,1.8-1.38.721-3.822.763-7.978-2.384-6.024-4.557-8.431-6.886-9.573-7.616-1.582-.712-1.972-.808-2.521.369-.678,1.452,1.112,3.321,3.971,5.684,2.224,1.837,5.034,4.649,7.494,6.017,1.567.873,2.6,1.3,4.426.828-1.1.757-3.2,1.24-6.749-1.344-1.142-.833-2.217-1.67-3.213-2.477-1.814-1.619-3.748-3.244-5.081-4.347a18.325,18.325,0,0,0-1.648-1.349l-.005,0-.005,0c-.151-.1-.257-.139-.308-.113-.022.011,0,.054.029.108-.273.059-.729.313-1.3,1.243-.581.948,2.886,5.39,6.5,8.082,1.79,1.333,3.37,2.418,5.025,2.053-1.382.666-4.113.641-6.864-1.983-4.5-4.286-5.511-6.653-7.83-6.583-1.506.045-4.277,2.45-9.687-.005C377.029,208.076,381.8,202.513,381.824,202.351Z" transform="translate(42.166 112.772)" fill="#c4805f"/>
      <path id="Path_3125" data-name="Path 3125" d="M386.866,199.452c-.91-.031-1.733-.094-2.064.437-.05.011-.1.025-.151.034a7.113,7.113,0,0,1-2.827-.014c-.027.162-4.795,5.725-2.783,13.19a9.932,9.932,0,0,0,6.715.849C383.134,209.428,383.454,203.219,386.866,199.452Z" transform="translate(42.166 115.214)" fill="#cb6d21" opacity="0.24" style="mix-blend-mode: multiply;isolation: isolate"/>
      <path id="Path_3126" data-name="Path 3126" d="M399,204.65c-.786,1.547,2.623,2.918,2.765,2.868a2,2,0,0,0,1.313-1.8,18.606,18.606,0,0,0-2.134-1.121C400.381,204.33,399.246,204.175,399,204.65Z" transform="translate(58.421 119.139)" fill="#ffddc4"/>
      <path id="Path_3127" data-name="Path 3127" d="M396.79,207.862c-.786,1.546,2.74,2.71,2.882,2.661a1.616,1.616,0,0,0,1.277-2.089,8.036,8.036,0,0,0-2.551-.972C397.626,207.319,397.033,207.387,396.79,207.862Z" transform="translate(56.655 121.579)" fill="#ffddc4"/>
      <path id="Path_3128" data-name="Path 3128" d="M394.367,209.752c-.536,1.168,2.546,2.528,2.67,2.481a1.345,1.345,0,0,0,1.135-1.655,8.6,8.6,0,0,0-2.4-1.195C395.1,209.245,394.572,209.3,394.367,209.752Z" transform="translate(54.76 123.114)" fill="#ffddc4"/>
      <path id="Path_3129" data-name="Path 3129" d="M391.14,210.675c-.6.889,1.76,2.415,1.868,2.393a1.246,1.246,0,0,0,1.357-1.2,9.113,9.113,0,0,0-2.046-1.459A.916.916,0,0,0,391.14,210.675Z" transform="translate(52.154 123.908)" fill="#ffddc4"/>
      <path id="Path_3130" data-name="Path 3130" d="M378.161,138.426c4.126,7.683,14.224,32.967,16.882,50.538,0,0-26.583,33.733-24.412,38.487.365.8,41.954,16.734,48.69,18.609,0,0-10.169,3.219-7.571,19.746,0,0-34.852-9.2-62.875-17.418-7.024-2.06-9.66-8.651-7.3-15.954,7.184-22.229,14.457-40.529,24.133-70.71C370.754,145.984,377.243,136.716,378.161,138.426Z" transform="translate(11.944 66.296)" fill="#226e76"/>
      <path id="Path_3131" data-name="Path 3131" d="M375.794,153.009c-1.743,23.285-11.346,40.232-16.812,52.511a22.49,22.49,0,0,0-1.859,7.037c-.122,1.308-.128,2.458.342,2.557.094-3.579,4.757-10.547,7.522-14.7C372.2,189.581,382,177.147,382,177.147A159.768,159.768,0,0,0,375.794,153.009Z" transform="translate(24.989 78.113)" fill="#514a4e" opacity="0.35" style="mix-blend-mode: multiply;isolation: isolate"/>
      <path id="Path_3132" data-name="Path 3132" d="M395.908,93.379a1.094,1.094,0,1,1-1.089-.986A1.041,1.041,0,0,1,395.908,93.379Z" transform="translate(54.302 29.668)" fill="#fff"/>
      <ellipse id="Ellipse_114" data-name="Ellipse 114" cx="1.005" cy="0.911" rx="1.005" ry="0.911" transform="translate(481.887 119.955)" fill="#fff"/>
    </g>
  </g>
</svg>

