<svg xmlns="http://www.w3.org/2000/svg" xmlns:xlink="http://www.w3.org/1999/xlink" width="1970.902" height="1048.46" viewBox="0 0 1970.902 1048.46">
  <defs>
    <linearGradient id="linear-gradient" x1="0.505" y1="1.802" x2="0.493" y2="-0.215" gradientUnits="objectBoundingBox">
      <stop offset="0" stop-color="#daf1fd"/>
      <stop offset="1" stop-color="#fff"/>
    </linearGradient>
    <linearGradient id="linear-gradient-2" x1="0.518" y1="1.542" x2="0.486" y2="0.481" xlink:href="#linear-gradient"/>
    <linearGradient id="linear-gradient-3" x1="0.491" y1="1.807" x2="0.509" y2="0.117" xlink:href="#linear-gradient"/>
    <linearGradient id="linear-gradient-4" x1="0.515" y1="1.983" x2="0.489" y2="0.171" xlink:href="#linear-gradient"/>
    <linearGradient id="linear-gradient-5" x1="0.487" y1="1.951" x2="0.513" y2="-0.115" xlink:href="#linear-gradient"/>
  </defs>
  <g id="Group_1403" data-name="Group 1403" transform="translate(-154.895 -112)">
    <g id="Group_1399" data-name="Group 1399" transform="translate(154.895 112)">
      <path id="Path_3410" data-name="Path 3410" d="M0,762.645V289.927H87.845V206.638h95.217v58.815H286.9V163.745h69.622v62.172H465.513V293.3h102.08V110.633h91.52v81.182H762.446v261.5h97.187V302.472h96.33v63.666h151.522V494.422h78.784V248.259h107.016v114.42H1401.71V762.645Z" transform="translate(0 285.815)" fill="#dbf3ff" opacity="0.515"/>
      <path id="Path_3411" data-name="Path 3411" d="M436.656,338.407V197.272h89.572V252.6h97.68V156.922H689.4v58.486H791.934v63.387h96.029V106.959h86.094v76.369h82.249V720.317H354.02V338.407Z" transform="translate(914.595 276.323)" fill="#dbf3ff" opacity="0.468"/>
      <path id="Path_3412" data-name="Path 3412" d="M1970.9,0V214.35L0,301.01V0Z" fill="#f1f9ff"/>
      <path id="Path_3413" data-name="Path 3413" d="M1970.9,0V143.5L0,46.821V0Z" fill="#dbf3ff"/>
      <path id="Path_3414" data-name="Path 3414" d="M433.857,111.674S586.193,87,803.38,126.213c-29.549-18.114-50.469-23.64-50.469-23.64s-10.2-21.347-34.079-6.493c-6.984-35.061-44.206-18.853-48.527-10.041,1.8-64.484-50.125-58.335-65.771-45.531-24.346-58.926-137.056-16.054-93.457,40.966C482.8,66.107,482.56,89.342,488.752,95.112c-19.9-9.435-23.773,5.812-23.773,5.812Z" transform="translate(1120.851 31.675)" fill="url(#linear-gradient)"/>
      <path id="Path_3415" data-name="Path 3415" d="M479.9,134.908s-116.778-18.917-283.269,11.148c22.655-13.89,38.691-18.125,38.691-18.125s7.819-16.362,26.123-4.974c5.354-26.88,33.885-14.456,37.2-7.7-1.376-49.434,38.425-44.722,50.419-34.906,18.663-45.173,105.067-12.306,71.641,31.405,21.68-11.782,21.863,6.031,17.115,10.457,15.251-7.235,18.225,4.451,18.225,4.451Z" transform="translate(507.978 151.65)" fill="url(#linear-gradient-2)"/>
      <path id="Path_3416" data-name="Path 3416" d="M272.035,62.056s78.678-11.4,184.81,4.512C433.409,53.986,415.664,58.1,415.664,58.1s0-15.036-25.779-8.152c-3.68-34.423-56.246-30.151-69.637-4.035-16.072-14.008-34.82.473-26.449,8.306-17.412-3.562-12.388,4.275-12.388,4.275Z" transform="translate(702.791 65.185)" fill="url(#linear-gradient-3)"/>
      <path id="Path_3417" data-name="Path 3417" d="M312.614,61.024s-97.922-14.262-172.855-2.34c22.991-8.3,42.389-15.108,42.389-15.108s-10.3-6.371,5.877-13.606,47.531-4.494,43.7,10.406c24.267-6.174,53.644,3.4,38.318,10.431,11.922-1.7,30.456,2.211,23.418,4.684A80.058,80.058,0,0,1,312.614,61.024Z" transform="translate(361.061 67.508)" fill="url(#linear-gradient-4)"/>
      <path id="Path_3418" data-name="Path 3418" d="M40.826,102.619s106.615-15.233,220.562,8.31c-34.648-16.616-42.313-13.158-42.313-13.158s3.666-15-11.661-19.845-15.326,7.848-15.326,7.848S181.76,39.153,135.78,43.539,110.46,71.694,110.46,71.694,89.8,59.231,74.478,64.771s2.666,20.54,2.666,20.54-20.325,4.153-20.325,7.153S65.151,95,65.151,95Z" transform="translate(105.472 111.729)" fill="url(#linear-gradient-5)"/>
    </g>
  </g>
</svg>
